%FSTAX23Y23*%
%MOIN*%
%SFA1B1*%

%IPPOS*%
%ADD68C,0.003940*%
%ADD70C,0.001970*%
%LNboost-shield-v2-1*%
%LPD*%
G54D68*
X011Y00674D02*
Y0071D01*
X01082Y00692D02*
X01117D01*
X0062Y0013D02*
Y00169D01*
X006Y0015D02*
X00639D01*
X0026Y00368D02*
Y00407D01*
X0024Y00388D02*
X00279D01*
X0095Y00216D02*
Y00254D01*
X00931Y00235D02*
X00968D01*
X0085Y00072D02*
Y00107D01*
X00832Y0009D02*
X00867D01*
X01021Y0006D02*
X01058D01*
X0104Y00041D02*
Y00078D01*
X0079Y00071D02*
Y00108D01*
X00771Y0009D02*
X00808D01*
X00416Y0055D02*
X00454D01*
X00435Y00531D02*
Y00568D01*
X00301Y00099D02*
X00338D01*
X0032Y0008D02*
Y00118D01*
X0043Y00321D02*
Y00358D01*
X00411Y0034D02*
X00448D01*
X00451Y0075D02*
X00488D01*
X0047Y00731D02*
Y00768D01*
X0051Y00546D02*
Y00583D01*
X00491Y00565D02*
X00528D01*
X00351Y0075D02*
X00388D01*
X0037Y00731D02*
Y00768D01*
X01019Y0032D02*
X01057D01*
X01038Y00301D02*
Y00338D01*
X0091Y0011D02*
X00949D01*
X0093Y0009D02*
Y00129D01*
X00651Y0043D02*
X0069D01*
X00671Y0041D02*
Y00449D01*
G54D70*
X01112Y00372D02*
Y00647D01*
X00801D02*
X01112D01*
X00801Y00372D02*
Y00647D01*
Y00372D02*
X01112D01*
X01072Y00743D02*
X01127D01*
X01072Y00641D02*
X01127D01*
Y00743*
X01072Y00641D02*
Y00743D01*
X00488Y00047D02*
X00751D01*
X00488Y00252D02*
X00751D01*
Y00047D02*
Y00252D01*
X00488Y00047D02*
Y00252D01*
X00108Y00199D02*
X00411D01*
X00108Y00577D02*
X00411D01*
X00108Y00199D02*
Y00577D01*
X00411Y00199D02*
Y00577D01*
X00926Y0028D02*
X00973D01*
X00926Y0019D02*
X00973D01*
Y0028*
X00926Y0019D02*
Y0028D01*
X0081Y00154D02*
X00889D01*
X0081Y00025D02*
X00889D01*
Y00154*
X0081Y00025D02*
Y00154D01*
X00994Y00036D02*
Y00083D01*
X01085Y00036D02*
Y00083D01*
X00994D02*
X01085D01*
X00994Y00036D02*
X01085D01*
X00748Y00023D02*
X00831D01*
X00748Y00156D02*
X00831D01*
X00748Y00023D02*
Y00156D01*
X00831Y00023D02*
Y00156D01*
X00467Y00282D02*
X00552D01*
X00467Y00457D02*
X00552D01*
Y00282D02*
Y00457D01*
X00467Y00282D02*
Y00457D01*
X00392Y00526D02*
Y00573D01*
X00478Y00526D02*
Y00573D01*
X00392D02*
X00478D01*
X00392Y00526D02*
X00478D01*
X0029Y0004D02*
Y00158D01*
X00349Y0004D02*
Y00158D01*
X0029Y0004D02*
X00349D01*
X0029Y00158D02*
X00349D01*
X00388Y00275D02*
X00471D01*
X00388Y00404D02*
X00471D01*
X00388Y00275D02*
Y00404D01*
X00471Y00275D02*
Y00404D01*
X00511Y00726D02*
Y00773D01*
X00428Y00726D02*
Y00773D01*
Y00726D02*
X00511D01*
X00428Y00773D02*
X00511D01*
X00486Y00523D02*
X00533D01*
X00486Y00606D02*
X00533D01*
X00486Y00523D02*
Y00606D01*
X00533Y00523D02*
Y00606D01*
X00415Y00726D02*
Y00773D01*
X00324Y00726D02*
Y00773D01*
Y00726D02*
X00415D01*
X00324Y00773D02*
X00415D01*
X00971Y00278D02*
Y00361D01*
X01105Y00278D02*
Y00361D01*
X00971D02*
X01105D01*
X00971Y00278D02*
X01105D01*
X00867Y00023D02*
Y00196D01*
X00992Y00023D02*
Y00196D01*
X00867Y00023D02*
X00992D01*
X00867Y00196D02*
X00992D01*
X00565Y00568D02*
X00776D01*
Y00291D02*
Y00568D01*
X00565Y00291D02*
X00776D01*
X00565D02*
Y00568D01*
X00214Y00583D02*
Y00716D01*
Y00583D02*
X00497D01*
Y00716*
X00214D02*
X00497D01*
X00518Y00583D02*
Y00716D01*
Y00583D02*
X00801D01*
Y00716*
X00518D02*
X00801D01*
M02*