%FSTAX23Y23*%
%MOIN*%
%SFA1B1*%

%IPPOS*%
%ADD12C,0.007870*%
%LNboost-shield-v2-1*%
%LPD*%
G36*
X01039Y00728D02*
X01039D01*
X0104Y00728*
X0104Y00727*
X01041Y00727*
X01042Y00727*
X01043Y00727*
X01043*
X01043Y00727*
X01043Y00727*
X01043Y00726*
X01043Y00726*
X01044Y00726*
X01044Y00726*
X01045Y00725*
X01045Y00724*
X01046Y00724*
Y00724*
X01046Y00724*
X01046Y00724*
X01046Y00723*
X01046Y00723*
X01046Y00723*
X01047Y00722*
X01047Y00721*
X01047Y00721*
X01047Y0072*
Y0072*
X01047Y00719*
Y00719*
X01047Y00719*
X01047Y00718*
X01047Y00718*
X01047Y00718*
X01046Y00717*
X01046Y00717*
X01046Y00716*
X01046Y00715*
X01045Y00715*
X01045Y00714*
X01045Y00714*
X01044Y00713*
X01044Y00713*
X01044Y00713*
X01044Y00713*
X01044Y00713*
X01043Y00713*
X01043Y00713*
X01042Y00712*
X01042Y00712*
X01041Y00712*
X01041Y00712*
X0104Y00712*
X01039Y00711*
X01038Y00711*
X01037Y00711*
X01036Y00711*
X01035Y00711*
X01035*
X01035*
X01035*
X01034*
X01034Y00711*
X01034*
X01033Y00711*
X01032Y00711*
X01031Y00711*
X01031Y00711*
X0103Y00711*
X01029Y00712*
X01028Y00712*
X01027Y00712*
X01026Y00712*
X01026Y00713*
X01025Y00713*
X01024Y00714*
X01024Y00714*
X01024Y00714*
X01024Y00714*
X01024Y00714*
X01023Y00714*
X01023Y00715*
X01023Y00715*
X01023Y00715*
X01022Y00716*
X01022Y00716*
X01022Y00717*
X01022Y00717*
X01021Y00718*
X01021Y00719*
X01021Y00719*
X01021Y0072*
Y0072*
X01021Y00721*
Y00721*
X01021Y00721*
X01021Y00722*
X01022Y00723*
X01022Y00723*
X01022Y00724*
X01023Y00725*
X01023Y00725*
X01023Y00725*
X01023Y00725*
X01023Y00725*
X01023Y00725*
X01023Y00725*
X01024Y00726*
X01024Y00726*
X01025Y00726*
X01026Y00727*
X01026Y00727*
X01027Y00727*
X01028Y00724*
X01028*
X01028Y00724*
X01027Y00724*
X01027Y00724*
X01027Y00724*
X01026Y00724*
X01026Y00723*
X01025Y00723*
X01025Y00723*
X01025Y00723*
X01025Y00723*
X01025Y00723*
X01024Y00722*
X01024Y00722*
X01024Y00721*
X01024Y00721*
X01024Y0072*
Y0072*
X01024Y00719*
X01024Y00719*
X01024Y00719*
X01024Y00718*
X01024Y00718*
X01025Y00717*
X01025Y00717*
X01025Y00717*
X01025Y00717*
X01025Y00716*
X01026Y00716*
X01026Y00716*
X01027Y00715*
X01028Y00715*
X01028*
X01028Y00715*
X01028Y00715*
X01028Y00715*
X01028Y00715*
X01029Y00715*
X01029Y00715*
X01029Y00715*
X0103Y00714*
X0103Y00714*
X01031Y00714*
X01031Y00714*
X01032Y00714*
X01032Y00714*
X01033Y00714*
X01033*
X01033Y00714*
X01033Y00714*
X01033Y00715*
X01033Y00715*
X01032Y00715*
X01032Y00716*
X01031Y00716*
X01031Y00717*
Y00717*
X01031Y00717*
X01031Y00717*
X01031Y00717*
X01031Y00718*
X0103Y00718*
X0103Y00719*
X0103Y0072*
X0103Y0072*
Y00721*
X0103Y00721*
X0103Y00721*
X0103Y00721*
X0103Y00722*
X0103Y00722*
X01031Y00723*
X01031Y00723*
X01031Y00724*
X01031Y00724*
X01032Y00725*
X01032Y00725*
X01032Y00726*
X01032Y00726*
X01033Y00726*
X01033Y00726*
X01033Y00726*
X01033Y00726*
X01033Y00726*
X01034Y00726*
X01034Y00727*
X01034Y00727*
X01035Y00727*
X01035Y00727*
X01036Y00727*
X01036Y00727*
X01037Y00728*
X01038Y00728*
X01038Y00728*
X01038*
X01038*
X01039*
X01039*
X01039Y00728*
G37*
G36*
X01035Y00708D02*
X01035D01*
X01035Y00708*
X01036Y00708*
X01037Y00708*
X01038Y00707*
X01039Y00707*
X01039*
X01039Y00707*
X01039Y00707*
X01039Y00707*
X0104Y00707*
X0104Y00707*
X01041Y00706*
X01041Y00706*
X01042Y00706*
X01043Y00705*
X01043Y00705*
X01043Y00705*
X01043Y00705*
X01043Y00705*
X01044Y00704*
X01044Y00704*
X01044Y00704*
X01045Y00703*
X01045Y00703*
X01045Y00703*
X01045Y00703*
X01045Y00702*
X01045Y00702*
X01046Y00701*
X01046Y00701*
X01046Y007*
Y007*
X01046Y007*
X01046Y007*
X01046Y00699*
X01046Y00699*
X01046Y00698*
X01046Y00698*
X01046Y00697*
X01046Y00696*
Y00687*
X01021*
Y00697*
X01021Y00697*
X01021Y00698*
X01021Y00699*
X01022Y007*
X01022Y007*
Y007*
X01022Y007*
Y007*
X01022Y00701*
X01022Y00701*
X01022Y00701*
X01022Y00702*
X01023Y00703*
X01023Y00703*
X01023Y00704*
X01024Y00704*
X01024Y00704*
X01024Y00704*
X01024Y00704*
X01024Y00705*
X01025Y00705*
X01025Y00705*
X01026Y00706*
X01027Y00706*
X01028Y00707*
X01028*
X01028Y00707*
X01028Y00707*
X01028Y00707*
X01028Y00707*
X01029Y00707*
X01029Y00707*
X0103Y00707*
X0103Y00707*
X0103Y00708*
X01031Y00708*
X01033Y00708*
X01034Y00708*
X01034*
X01034*
X01034*
X01034*
X01035Y00708*
G37*
%LNboost-shield-v2-2*%
%LPC*%
G36*
X01039Y00725D02*
X01038D01*
X01038*
X01038*
X01038Y00724*
X01038*
X01038Y00724*
X01037Y00724*
X01036Y00724*
X01036Y00724*
X01035Y00724*
X01034Y00723*
X01034Y00723*
X01034Y00723*
X01034Y00723*
X01034Y00722*
X01033Y00722*
X01033Y00721*
X01033Y0072*
X01033Y0072*
Y00719*
X01033Y00719*
X01033Y00719*
X01033Y00718*
X01033Y00718*
X01034Y00717*
X01034Y00717*
X01034Y00716*
X01034Y00716*
X01035Y00716*
X01035Y00716*
X01035Y00715*
X01036Y00715*
X01037Y00715*
X01037Y00715*
X01038Y00715*
X01038*
X01039*
X01039Y00715*
X01039Y00715*
X0104Y00715*
X0104Y00715*
X01041Y00715*
X01041Y00715*
X01041Y00715*
X01042Y00715*
X01042Y00716*
X01042Y00716*
X01043Y00716*
X01043Y00716*
X01043Y00717*
X01044Y00717*
X01044Y00717*
X01044Y00717*
X01044Y00718*
X01044Y00718*
X01044Y00718*
X01044Y00719*
X01044Y00719*
X01044Y0072*
Y0072*
X01044Y0072*
X01044Y0072*
X01044Y00721*
X01044Y00721*
X01044Y00722*
X01043Y00723*
X01043Y00723*
X01043Y00723*
X01043*
X01043Y00723*
X01043Y00723*
X01042Y00724*
X01042Y00724*
X01041Y00724*
X0104Y00724*
X01039Y00724*
X01039Y00725*
G37*
G36*
X01034Y00704D02*
X01034D01*
X01034*
X01033*
X01033Y00704*
X01033*
X01032Y00704*
X01032Y00704*
X01031Y00704*
X01031Y00704*
X01029Y00704*
X01029Y00704*
X01028Y00703*
X01028Y00703*
X01028*
X01028Y00703*
X01027Y00703*
X01027Y00703*
X01027Y00703*
X01026Y00702*
X01026Y00702*
X01026Y00701*
X01025Y00701*
X01025Y007*
X01025Y007*
X01025Y007*
X01025Y00699*
X01025Y00699*
X01024Y00698*
X01024Y00698*
X01024Y00697*
Y00697*
X01024Y00696*
Y0069*
X01043*
Y00696*
X01043Y00697*
X01043Y00697*
X01043Y00698*
X01043Y00698*
X01043Y00699*
X01043Y007*
X01043Y007*
X01043Y007*
X01043Y007*
X01043Y007*
X01043Y00701*
X01042Y00701*
X01042Y00702*
X01042Y00702*
X01042Y00702*
X01042Y00702*
X01041Y00702*
X01041Y00703*
X0104Y00703*
X0104Y00703*
X01039Y00703*
X01039Y00704*
X01039*
X01038Y00704*
X01038Y00704*
X01038Y00704*
X01038Y00704*
X01038Y00704*
X01038Y00704*
X01037Y00704*
X01037Y00704*
X01036Y00704*
X01035Y00704*
X01034Y00704*
G37*
%LNboost-shield-v2-3*%
%LPD*%
G54D12*
X01018Y00635D02*
X01061D01*
Y00739*
X01018D02*
X01061D01*
X01018Y00635D02*
Y00739D01*
X00406Y00277D02*
X00453D01*
X00406Y00182D02*
Y00277D01*
Y00182D02*
X00453D01*
Y00277*
X00454Y00117D02*
Y00162D01*
X00365D02*
X00454D01*
X00365Y00117D02*
Y00162D01*
Y00117D02*
X00454D01*
X00463Y0004D02*
Y00099D01*
X00356D02*
X00463D01*
X00356Y0004D02*
Y00099D01*
Y0004D02*
X00463D01*
X00768Y00156D02*
X00811D01*
Y00243*
X00768D02*
X00811D01*
X00768Y00156D02*
Y00243D01*
X00996Y00224D02*
Y00267D01*
Y00224D02*
X01083D01*
Y00267*
X00996D02*
X01083D01*
X00996Y0016D02*
Y00209D01*
Y0016D02*
X01083D01*
Y00209*
X00996D02*
X01083D01*
M02*