%FSTAX23Y23*%
%MOIN*%
%SFA1B1*%

%IPPOS*%
%AMD18*
4,1,8,-0.024600,0.008900,-0.024600,-0.008900,-0.022700,-0.010800,0.022700,-0.010800,0.024600,-0.008900,0.024600,0.008900,0.022700,0.010800,-0.022700,0.010800,-0.024600,0.008900,0.0*
1,1,0.003900,-0.022700,0.008900*
1,1,0.003900,-0.022700,-0.008900*
1,1,0.003900,0.022700,-0.008900*
1,1,0.003900,0.022700,0.008900*
%
%AMD34*
4,1,8,-0.032000,-0.031700,0.032000,-0.031700,0.047800,-0.015800,0.047800,0.015800,0.032000,0.031700,-0.032000,0.031700,-0.047800,0.015800,-0.047800,-0.015800,-0.032000,-0.031700,0.0*
1,1,0.031700,-0.032000,-0.015800*
1,1,0.031700,0.032000,-0.015800*
1,1,0.031700,0.032000,0.015800*
1,1,0.031700,-0.032000,0.015800*
%
%ADD15R,0.106300X0.086610*%
%ADD16R,0.031500X0.031500*%
%ADD17R,0.035430X0.027560*%
G04~CAMADD=18~8~0.0~0.0~216.5~492.1~19.5~0.0~15~0.0~0.0~0.0~0.0~0~0.0~0.0~0.0~0.0~0~0.0~0.0~0.0~90.0~492.0~216.0*
%ADD18D18*%
%ADD19R,0.035430X0.074800*%
%ADD20R,0.125980X0.074800*%
%ADD21R,0.060000X0.060000*%
%ADD22R,0.060000X0.060000*%
%ADD23R,0.033470X0.029530*%
%ADD24R,0.039370X0.031500*%
%ADD25R,0.029530X0.033470*%
%ADD26R,0.041340X0.035430*%
%ADD27R,0.066140X0.039370*%
%ADD28R,0.027560X0.033470*%
%ADD29R,0.037400X0.037400*%
%ADD30R,0.033470X0.027560*%
%ADD31R,0.035430X0.041340*%
%ADD32R,0.019680X0.049210*%
%ADD33R,0.025590X0.047240*%
G04~CAMADD=34~8~0.0~0.0~956.7~633.9~158.5~0.0~15~0.0~0.0~0.0~0.0~0~0.0~0.0~0.0~0.0~0~0.0~0.0~0.0~180.0~956.0~633.0*
%ADD34D34*%
%ADD35R,0.035430X0.029530*%
%ADD36R,0.031750X0.034180*%
%ADD37R,0.031500X0.035430*%
%ADD38R,0.031970X0.029850*%
%ADD39R,0.029850X0.031970*%
%ADD40R,0.027560X0.025590*%
%ADD65R,0.059060X0.059060*%
%ADD66C,0.059060*%
%LNboost-shield-v2-1*%
%LPD*%
G54D15*
X0105Y0051D03*
X00864D03*
G54D16*
X0104Y00655D03*
Y0072D03*
G54D17*
X011Y0072D03*
Y00664D03*
G54D18*
X00723Y00075D03*
Y00125D03*
Y00175D03*
Y00225D03*
X00516Y00075D03*
Y00125D03*
Y00175D03*
Y00225D03*
G54D19*
X00169Y00256D03*
X0026D03*
X0035D03*
G54D20*
X0026Y0052D03*
G54D21*
X0026Y0076D03*
G54D22*
X0016Y0076D03*
G54D23*
X0095Y00261D03*
Y0021D03*
G54D24*
X0085Y00119D03*
Y0006D03*
G54D25*
X01014Y0006D03*
X01065D03*
X00395Y0075D03*
X00344D03*
G54D26*
X0079Y00061D03*
Y00118D03*
X0043Y00312D03*
Y00367D03*
G54D27*
X0051Y00312D03*
Y00427D03*
G54D28*
X0041Y0055D03*
X0046D03*
X00492Y0075D03*
X00447D03*
G54D29*
X0032Y0007D03*
Y00129D03*
G54D30*
X0051Y00542D03*
Y00587D03*
G54D31*
X0101Y0032D03*
X01067D03*
G54D32*
X0093Y00067D03*
X00904Y00152D03*
X00955D03*
G54D33*
X00592Y0054D03*
X00645D03*
X00697D03*
X0075D03*
X00746Y00318D03*
X00696D03*
X00646D03*
X00596D03*
G54D34*
X0044Y0065D03*
X00271D03*
X00744D03*
X00575D03*
G54D35*
X0043Y00206D03*
Y00253D03*
G54D36*
X00385Y0014D03*
X00434D03*
G54D37*
X0038Y0007D03*
X00439D03*
G54D38*
X0079Y00224D03*
Y00175D03*
G54D39*
X01064Y00245D03*
X01015D03*
G54D40*
X01065Y00185D03*
X01014D03*
G54D65*
X012Y0075D03*
X0005D03*
G54D66*
X012Y0065D03*
Y0055D03*
Y0045D03*
Y0035D03*
Y0025D03*
Y0015D03*
Y0005D03*
X0005D03*
Y0015D03*
Y0025D03*
Y0035D03*
Y0045D03*
Y0055D03*
Y0065D03*
M02*