%FSTAX23Y23*%
%MOIN*%
%SFA1B1*%

%IPPOS*%
%ADD51C,0.010000*%
%ADD52R,0.059060X0.059060*%
%ADD53C,0.059060*%
%ADD54C,0.030000*%
%ADD55C,0.050000*%
%LNboost-shield-v1.5-1*%
%LPD*%
G36*
X00624Y00799D02*
D01*
X0114*
Y002*
X0122*
X01225Y00205*
X0123Y00203*
Y0012*
X0114*
Y0002*
X00361*
X00359Y00025*
X00363Y00028*
X00367Y00036*
X0037Y00045*
Y00054*
X00367Y00063*
X00363Y00071*
X00356Y00078*
X00354Y00078*
Y00613*
X00375Y00634*
X00375*
X00436Y00694*
X00648*
X00651Y00688*
X00658Y00681*
X00666Y00677*
X00675Y00675*
X00684*
X00693Y00677*
X00701Y00681*
X00708Y00688*
X00712Y00696*
X00715Y00705*
Y00714*
X00712Y00723*
X00708Y00731*
X00701Y00738*
X00693Y00742*
X00684Y00745*
X00675*
X00666Y00742*
X00658Y00738*
X00651Y00731*
X00648Y00725*
X0043*
X00424Y00724*
X00419Y0072*
X00354Y00655*
X00354*
X00328Y0063*
X00325Y00625*
X00324Y00619*
Y00083*
X00321Y00082*
X00313Y00078*
X00306Y00071*
X00302Y00063*
X003Y00054*
Y00045*
X00302Y00036*
X00306Y00028*
X0031Y00025*
X00308Y0002*
X0012*
Y0011*
X0002*
Y002*
X0011*
Y008*
X00623*
X00624Y00799*
G37*
G54D51*
X00335Y0005D02*
X00339Y00054D01*
X00365Y00645D02*
D01*
X00339Y00054D02*
Y00619D01*
X00365Y00645*
X0043Y0071D01*
X0068*
G54D52*
X0119Y0076D03*
X0006D03*
G54D53*
X0119Y0066D03*
Y0056D03*
Y0046D03*
Y0036D03*
Y0026D03*
Y0016D03*
Y0006D03*
X0006Y0066D03*
Y0056D03*
Y0046D03*
Y0036D03*
Y0026D03*
Y0016D03*
Y0006D03*
G54D54*
X01Y0005D03*
X0075Y0015D03*
Y001D03*
Y0005D03*
X007Y0015D03*
Y001D03*
Y0005D03*
X004Y0045D03*
Y004D03*
X003Y007D03*
Y005D03*
Y0045D03*
Y004D03*
Y002D03*
Y0015D03*
Y001D03*
X0025Y007D03*
Y005D03*
Y0045D03*
Y004D03*
Y002D03*
Y0015D03*
Y001D03*
Y0005D03*
X002Y0075D03*
Y007D03*
Y005D03*
Y0045D03*
Y004D03*
X0015Y0075D03*
Y007D03*
Y0065D03*
Y006D03*
Y0055D03*
Y005D03*
Y0045D03*
Y004D03*
G54D55*
X00335Y0005D03*
X0068Y0071D03*
M02*