%FSTAX23Y23*%
%MOIN*%
%SFA1B1*%

%IPPOS*%
%ADD51C,0.010000*%
%LNboost-shield-v1.5-1*%
%LPD*%
G54D51*
X00962Y0065D02*
Y0061D01*
X00942*
X00936Y00617*
Y00644*
X00942Y0065*
X00962*
X00902Y0061D02*
X00916D01*
X00922Y00617*
Y0063*
X00916Y00637*
X00902*
X00896Y0063*
Y00624*
X00922*
X00882Y0061D02*
Y00637D01*
X00862*
X00856Y0063*
Y0061*
X00842D02*
X00829D01*
X00836*
Y00637*
X00842*
X00809Y0061D02*
X00796D01*
X00802*
Y0065*
X00809*
X00736Y0061D02*
Y0065D01*
X00716*
X00709Y00644*
Y0063*
X00716Y00624*
X00736*
X00689Y0061D02*
X00676D01*
X00669Y00617*
Y0063*
X00676Y00637*
X00689*
X00696Y0063*
Y00617*
X00689Y0061*
X00656Y00637D02*
Y00617D01*
X00649Y0061*
X00629*
Y00637*
X00589Y0065D02*
Y0061D01*
X00609*
X00616Y00617*
Y0063*
X00609Y00637*
X00589*
X00556Y0061D02*
X00569D01*
X00576Y00617*
Y0063*
X00569Y00637*
X00556*
X00549Y0063*
Y00624*
X00576*
X00536Y0061D02*
X00523D01*
X00529*
Y0065*
X00536*
X00966Y00578D02*
Y00538D01*
X00946*
X00939Y00545*
Y00552*
X00946Y00558*
X00966*
X00946*
X00939Y00565*
Y00572*
X00946Y00578*
X00966*
X00919Y00538D02*
X00906D01*
X00899Y00545*
Y00558*
X00906Y00565*
X00919*
X00926Y00558*
Y00545*
X00919Y00538*
X00879D02*
X00866D01*
X00859Y00545*
Y00558*
X00866Y00565*
X00879*
X00886Y00558*
Y00545*
X00879Y00538*
X00846D02*
X00826D01*
X00819Y00545*
X00826Y00552*
X00839*
X00846Y00558*
X00839Y00565*
X00819*
X00799Y00572D02*
Y00565D01*
X00806*
X00792*
X00799*
Y00545*
X00792Y00538*
X00706Y00572D02*
X00713Y00578D01*
X00726*
X00733Y00572*
Y00565*
X00726Y00558*
X00713*
X00706Y00552*
Y00545*
X00713Y00538*
X00726*
X00733Y00545*
X00693Y00578D02*
Y00538D01*
Y00558*
X00686Y00565*
X00673*
X00666Y00558*
Y00538*
X00653D02*
X00639D01*
X00646*
Y00565*
X00653*
X00599Y00538D02*
X00613D01*
X00619Y00545*
Y00558*
X00613Y00565*
X00599*
X00593Y00558*
Y00552*
X00619*
X00579Y00538D02*
X00566D01*
X00573*
Y00578*
X00579*
X00519D02*
Y00538D01*
X00539*
X00546Y00545*
Y00558*
X00539Y00565*
X00519*
X00946Y00506D02*
Y0048D01*
X00932Y00466*
X00919Y0048*
Y00506*
X00886Y00466D02*
X00899D01*
X00906Y00473*
Y00486*
X00899Y00493*
X00886*
X00879Y00486*
Y0048*
X00906*
X00866Y00493D02*
Y00466D01*
Y0048*
X00859Y00486*
X00852Y00493*
X00846*
X00826Y00466D02*
X00806D01*
X00799Y00473*
X00806Y0048*
X00819*
X00826Y00486*
X00819Y00493*
X00799*
X00786Y00466D02*
X00772D01*
X00779*
Y00493*
X00786*
X00746Y00466D02*
X00733D01*
X00726Y00473*
Y00486*
X00733Y00493*
X00746*
X00753Y00486*
Y00473*
X00746Y00466*
X00713D02*
Y00493D01*
X00693*
X00686Y00486*
Y00466*
X00633D02*
X00619D01*
X00626*
Y00506*
X00633Y005*
X00599Y00466D02*
Y00473D01*
X00593*
Y00466*
X00599*
X00539Y00506D02*
X00566D01*
Y00486*
X00553Y00493*
X00546*
X00539Y00486*
Y00473*
X00546Y00466*
X00559*
X00566Y00473*
X00892Y00395D02*
X00879D01*
X00886*
Y00434*
X00892Y00428*
X00859Y00414D02*
X00832D01*
X00819Y00434D02*
X00792D01*
Y00428*
X00819Y00401*
Y00395*
X00779Y00414D02*
X00753D01*
X00713Y00395D02*
X00739D01*
X00713Y00421*
Y00428*
X00719Y00434*
X00733*
X00739Y00428*
X00699D02*
X00693Y00434D01*
X00679*
X00673Y00428*
Y00401*
X00679Y00395*
X00693*
X00699Y00401*
Y00428*
X00633Y00395D02*
X00659D01*
X00633Y00421*
Y00428*
X00639Y00434*
X00653*
X00659Y00428*
X00593Y00395D02*
X00619D01*
X00593Y00421*
Y00428*
X00599Y00434*
X00613*
X00619Y00428*
M02*