%FSTAX23Y23*%
%MOIN*%
%SFA1B1*%

%IPPOS*%
%ADD10C,0.023620*%
%ADD11C,0.009840*%
%ADD12C,0.007870*%
%ADD13C,0.003000*%
%ADD14C,0.006000*%
%LNboost-shield-v1.5-1*%
%LPD*%
G36*
X00528Y00512D02*
X00527D01*
X00526Y00512*
X00525Y00511*
X00524Y00509*
Y00509*
Y00508*
X00525Y00506*
X00526Y00505*
X00527Y00505*
X00528*
X00529*
X0053Y00505*
X00532Y00506*
X00532Y00508*
Y00509*
Y00509*
X00532Y00511*
X0053Y00512*
X00529Y00512*
X00528*
G37*
G54D10*
X00723Y00214D02*
X00718Y00223D01*
X00708Y00225*
X007Y00219*
Y00208*
X00708Y00202*
X00718Y00204*
X00723Y00214*
G54D11*
X00584Y00235D02*
X00577Y00239D01*
Y0023*
X00584Y00235*
X0015Y00313D02*
X00142Y00317D01*
Y00308*
X0015Y00313*
G54D12*
X00376Y00638D02*
X00368D01*
X00376*
X00686D02*
X00678D01*
X00686*
X01103Y0017D02*
X01123D01*
X01113Y0016D02*
Y00179D01*
G54D13*
X00387Y00208D02*
X0046D01*
X00385Y0021D02*
X00387Y00208D01*
X00445Y0023D02*
X0046D01*
X0039Y00185D02*
X00393Y00182D01*
X00387Y00092D02*
X00396Y00083D01*
G54D14*
X00707Y00282D02*
Y0027D01*
X0071Y00267*
X00715*
X00717Y0027*
Y00282*
X00732D02*
X00722D01*
Y00275*
X00727Y00277*
X0073*
X00732Y00275*
Y0027*
X0073Y00267*
X00725*
X00722Y0027*
X00262Y00652D02*
Y0064D01*
X00265Y00637*
X0027*
X00272Y0064*
Y00652*
X00285Y00637D02*
Y00652D01*
X00277Y00645*
X00287*
X0045Y00502D02*
Y00517D01*
X00457*
X0046Y00515*
Y0051*
X00457Y00507*
X0045*
X00455D02*
X0046Y00502D01*
X00475D02*
X00465D01*
X00475Y00512*
Y00515*
X00472Y00517*
X00467*
X00465Y00515*
X0048D02*
X00482Y00517D01*
X00487*
X00489Y00515*
Y00512*
X00487Y0051*
X00489Y00507*
Y00505*
X00487Y00502*
X00482*
X0048Y00505*
Y00507*
X00482Y0051*
X0048Y00512*
Y00515*
X00482Y0051D02*
X00487D01*
X006Y00032D02*
Y00047D01*
X00607*
X0061Y00045*
Y0004*
X00607Y00037*
X006*
X00605D02*
X0061Y00032D01*
X00625D02*
X00615D01*
X00625Y00042*
Y00045*
X00622Y00047*
X00617*
X00615Y00045*
X0063Y00047D02*
X00639D01*
Y00045*
X0063Y00035*
Y00032*
X00335Y00182D02*
Y00197D01*
X00342*
X00345Y00195*
Y0019*
X00342Y00187*
X00335*
X0034D02*
X00345Y00182D01*
X0036D02*
X0035D01*
X0036Y00192*
Y00195*
X00357Y00197*
X00352*
X0035Y00195*
X00374Y00197D02*
X00369Y00195D01*
X00365Y0019*
Y00185*
X00367Y00182*
X00372*
X00374Y00185*
Y00187*
X00372Y0019*
X00365*
X004Y00282D02*
Y00297D01*
X00407*
X0041Y00295*
Y0029*
X00407Y00287*
X004*
X00405D02*
X0041Y00282D01*
X00425D02*
X00415D01*
X00425Y00292*
Y00295*
X00422Y00297*
X00417*
X00415Y00295*
X00439Y00297D02*
X0043D01*
Y0029*
X00434Y00292*
X00437*
X00439Y0029*
Y00285*
X00437Y00282*
X00432*
X0043Y00285*
X00336Y001D02*
Y00115D01*
X00343*
X00346Y00113*
Y00108*
X00343Y00105*
X00336*
X00341D02*
X00346Y001D01*
X00361D02*
X00351D01*
X00361Y0011*
Y00113*
X00358Y00115*
X00353*
X00351Y00113*
X00366D02*
X00368Y00115D01*
X00373*
X00375Y00113*
Y0011*
X00373Y00108*
X0037*
X00373*
X00375Y00105*
Y00103*
X00373Y001*
X00368*
X00366Y00103*
X009Y00032D02*
Y00047D01*
X00907*
X0091Y00045*
Y0004*
X00907Y00037*
X009*
X00905D02*
X0091Y00032D01*
X00925D02*
X00915D01*
X00925Y00042*
Y00045*
X00922Y00047*
X00917*
X00915Y00045*
X00939Y00032D02*
X0093D01*
X00939Y00042*
Y00045*
X00937Y00047*
X00932*
X0093Y00045*
X011Y00242D02*
Y00257D01*
X01107*
X0111Y00255*
Y0025*
X01107Y00247*
X011*
X01105D02*
X0111Y00242D01*
X01125D02*
X01115D01*
X01125Y00252*
Y00255*
X01122Y00257*
X01117*
X01115Y00255*
X0113D02*
X01132Y00257D01*
X01137*
X01139Y00255*
Y00245*
X01137Y00242*
X01132*
X0113Y00245*
Y00255*
X00567Y00545D02*
Y00555D01*
X00565Y00557*
X0056*
X00557Y00555*
Y00545*
X0056Y00542*
X00565*
X00562Y00547D02*
X00567Y00542D01*
X00565D02*
X00567Y00545D01*
X0058Y00542D02*
Y00557D01*
X00572Y0055*
X00582*
X01087Y00587D02*
Y00572D01*
X01097*
X01102Y00585D02*
X01105Y00587D01*
X0111*
X01112Y00585*
Y00582*
X0111Y0058*
X01107*
X0111*
X01112Y00577*
Y00575*
X0111Y00572*
X01105*
X01102Y00575*
X00507Y00727D02*
Y00712D01*
X00515*
X00517Y00715*
Y00725*
X00515Y00727*
X00507*
X00532D02*
X00522D01*
Y0072*
X00527Y00722*
X0053*
X00532Y0072*
Y00715*
X0053Y00712*
X00525*
X00522Y00715*
X00817Y00727D02*
Y00712D01*
X00825*
X00827Y00715*
Y00725*
X00825Y00727*
X00817*
X0084Y00712D02*
Y00727D01*
X00832Y0072*
X00842*
X00407Y00235D02*
X00405Y00237D01*
X004*
X00397Y00235*
Y00225*
X004Y00222*
X00405*
X00407Y00225*
X00422Y00222D02*
X00412D01*
X00422Y00232*
Y00235*
X0042Y00237*
X00415*
X00412Y00235*
X00427Y00222D02*
X00432D01*
X0043*
Y00237*
X00427Y00235*
X00345D02*
X00342Y00237D01*
X00337*
X00335Y00235*
Y00225*
X00337Y00222*
X00342*
X00345Y00225*
X0036Y00222D02*
X0035D01*
X0036Y00232*
Y00235*
X00357Y00237*
X00352*
X0035Y00235*
X00365D02*
X00367Y00237D01*
X00372*
X00374Y00235*
Y00225*
X00372Y00222*
X00367*
X00365Y00225*
Y00235*
X00346Y00155D02*
X00343Y00157D01*
X00338*
X00336Y00155*
Y00145*
X00338Y00142*
X00343*
X00346Y00145*
X00351Y00142D02*
X00356D01*
X00353*
Y00157*
X00351Y00155*
X00363Y00145D02*
X00366Y00142D01*
X00371*
X00373Y00145*
Y00155*
X00371Y00157*
X00366*
X00363Y00155*
Y00152*
X00366Y0015*
X00373*
X00911Y00295D02*
X00908Y00297D01*
X00903*
X00901Y00295*
Y00285*
X00903Y00282*
X00908*
X00911Y00285*
X00916Y00282D02*
X00921D01*
X00918*
Y00297*
X00916Y00295*
X00928D02*
X00931Y00297D01*
X00936*
X00938Y00295*
Y00292*
X00936Y0029*
X00938Y00287*
Y00285*
X00936Y00282*
X00931*
X00928Y00285*
Y00287*
X00931Y0029*
X00928Y00292*
Y00295*
X00931Y0029D02*
X00936D01*
X01111Y00105D02*
X01108Y00107D01*
X01103*
X01101Y00105*
Y00095*
X01103Y00092*
X01108*
X01111Y00095*
X01116Y00092D02*
X01121D01*
X01118*
Y00107*
X01116Y00105*
X01138Y00092D02*
X01128D01*
X01138Y00102*
Y00105*
X01136Y00107*
X01131*
X01128Y00105*
X01113Y00215D02*
X01111Y00217D01*
X01106*
X01103Y00215*
Y00205*
X01106Y00202*
X01111*
X01113Y00205*
X01118Y00202D02*
X01123D01*
X01121*
Y00217*
X01118Y00215*
X01131Y00202D02*
X01136D01*
X01133*
Y00217*
X01131Y00215*
M02*