%FSTAX23Y23*%
%MOIN*%
%SFA1B1*%

%IPPOS*%
%ADD12C,0.007870*%
%LNboost-shield-v1.5-1*%
%LPD*%
G36*
X005Y00229D02*
X005D01*
X005Y00229*
X00501Y00229*
X00501Y00229*
X00502Y00229*
X00504Y00229*
X00505Y00228*
X00505Y00228*
X00506Y00228*
X00506Y00228*
X00506Y00228*
X00506Y00228*
X00506Y00228*
X00506Y00227*
X00507Y00227*
X00507Y00227*
X00507Y00227*
X00507Y00226*
X00508Y00226*
X00508Y00225*
X00509Y00224*
X0051Y00223*
Y00223*
X0051Y00223*
X0051Y00223*
X0051Y00223*
X0051Y00222*
X0051Y00222*
X0051Y00221*
X0051Y00221*
X0051Y00221*
X0051Y0022*
X00511Y00219*
X00511Y00218*
X00511Y00216*
Y00216*
Y00216*
Y00216*
X00511Y00216*
Y00215*
X00511Y00215*
X00511Y00214*
X00511Y00214*
X00511Y00213*
X0051Y00212*
X0051Y00211*
X00509Y00209*
X00509Y00209*
X00509Y00209*
X00509Y00209*
X00509Y00209*
X00509Y00209*
X00509Y00208*
X00508Y00208*
X00508Y00207*
X00507Y00206*
X00506Y00206*
X00505Y00205*
X00505Y00205*
X00505Y00205*
X00505Y00205*
X00505Y00205*
X00504Y00205*
X00504Y00204*
X00504Y00204*
X00503Y00204*
X00503Y00204*
X00502Y00204*
X00501Y00204*
X005Y00204*
X00499Y00203*
X00499*
X00498Y00203*
X00498Y00204*
X00498Y00204*
X00497Y00204*
X00497Y00204*
X00496Y00204*
X00495Y00204*
X00494Y00204*
X00494Y00205*
X00493Y00205*
X00493Y00205*
X00493Y00205*
X00493Y00205*
X00492Y00206*
X00492Y00206*
X00492Y00206*
X00492Y00206*
X00492Y00206*
X00491Y00207*
X00491Y00207*
X00491Y00208*
X0049Y00208*
X0049Y00208*
X0049Y00209*
X00489Y0021*
X00489Y0021*
X00489Y00211*
X00492Y00212*
Y00212*
X00492Y00211*
X00492Y00211*
X00493Y00211*
X00493Y00211*
X00493Y00211*
X00493Y0021*
X00493Y00209*
X00494Y00209*
X00494Y00208*
X00495Y00208*
X00495Y00207*
X00495Y00207*
X00496Y00207*
X00496Y00207*
X00497Y00207*
X00497Y00206*
X00498Y00206*
X00499Y00206*
X00499*
X005Y00206*
X005*
X005Y00206*
X00501Y00206*
X00502Y00207*
X00502Y00207*
X00503Y00207*
X00504Y00208*
X00504*
X00504Y00208*
X00504Y00208*
X00505Y00208*
X00505Y00209*
X00505Y00209*
X00506Y0021*
X00506Y00211*
X00507Y00211*
Y00211*
X00507Y00212*
X00507Y00212*
X00507Y00212*
X00507Y00212*
X00507Y00212*
X00507Y00213*
X00507Y00214*
X00507Y00214*
X00507Y00215*
X00507Y00216*
Y00216*
Y00216*
Y00217*
Y00217*
X00507Y00217*
Y00217*
X00507Y00218*
X00507Y00218*
X00507Y00219*
X00507Y0022*
X00507Y00221*
X00507Y00222*
Y00222*
X00507Y00222*
X00506Y00222*
X00506Y00222*
X00506Y00223*
X00506Y00223*
X00505Y00224*
X00505Y00224*
X00504Y00225*
X00504Y00226*
X00504*
X00504Y00226*
X00503Y00226*
X00503Y00226*
X00503Y00226*
X00503Y00226*
X00502Y00226*
X00502Y00226*
X00501Y00226*
X005Y00227*
X00499Y00227*
X00499*
X00499Y00227*
X00499*
X00498Y00227*
X00498Y00226*
X00497Y00226*
X00496Y00226*
X00495Y00226*
X00495Y00225*
X00495Y00225*
X00495Y00225*
X00495Y00225*
X00494Y00225*
X00494Y00225*
X00494Y00225*
X00494Y00224*
X00494Y00224*
X00494Y00224*
X00493Y00224*
X00493Y00223*
X00493Y00223*
X00493Y00222*
X00492Y00222*
X00492Y00221*
X00492Y00221*
X00492Y0022*
X00489Y00221*
Y00221*
X00489Y00221*
X00489Y00221*
X00489Y00222*
X00489Y00222*
X00489Y00223*
X00489Y00223*
X00489Y00223*
X0049Y00224*
X00491Y00225*
X00491Y00226*
X00491Y00226*
X00492Y00227*
X00492Y00227*
X00492Y00227*
X00493Y00227*
X00493Y00228*
X00493Y00228*
X00493Y00228*
X00493Y00228*
X00494Y00228*
X00494Y00228*
X00495Y00229*
X00495Y00229*
X00496Y00229*
X00496Y00229*
X00497Y00229*
X00498Y00229*
X00498Y00229*
X00499Y0023*
X00499*
X005Y00229*
G37*
G36*
X00486Y00229D02*
Y00229D01*
Y00229*
X00486Y00228*
X00486Y00228*
X00486Y00228*
X00486Y00227*
X00486Y00227*
Y00227*
X00486Y00227*
X00486Y00227*
X00486Y00226*
X00485Y00226*
X00485Y00225*
X00485Y00225*
X00484Y00224*
X00484Y00224*
Y00224*
X00484Y00223*
X00484Y00223*
X00483Y00223*
X00483Y00222*
X00482Y00222*
X00482Y00221*
X00481Y00221*
X0048Y0022*
X0048Y0022*
X0048Y0022*
X00479Y00219*
X00479Y00219*
X00479Y00219*
X00478Y00219*
X00478Y00218*
X00478Y00218*
X00477Y00217*
X00476Y00216*
X00475Y00216*
X00475Y00215*
X00474Y00215*
X00474Y00214*
Y00214*
X00474Y00214*
X00474Y00214*
X00474Y00214*
X00474Y00214*
X00473Y00213*
X00473Y00213*
X00473Y00212*
X00473Y00211*
X00473Y00211*
Y00211*
Y00211*
X00473Y0021*
X00473Y0021*
X00473Y0021*
X00473Y00209*
X00473Y00209*
X00474Y00208*
X00474Y00208*
X00474Y00208*
X00474Y00207*
X00475Y00207*
X00475Y00207*
X00475Y00207*
X00476Y00206*
X00477Y00206*
X00478Y00206*
X00478*
X00478Y00206*
X00478Y00206*
X00479Y00206*
X00479Y00207*
X0048Y00207*
X00481Y00207*
X00481Y00208*
X00481Y00208*
X00481Y00208*
X00482Y00208*
X00482Y00209*
X00482Y00209*
X00482Y0021*
X00482Y00211*
X00482Y00211*
X00486Y00211*
Y00211*
X00486Y00211*
Y00211*
X00486Y0021*
X00485Y0021*
X00485Y0021*
X00485Y00209*
X00485Y00209*
X00485Y00208*
X00484Y00207*
X00484Y00207*
X00484Y00206*
X00484Y00206*
X00483Y00206*
X00483Y00206*
X00483Y00206*
X00483Y00205*
X00483Y00205*
X00483Y00205*
X00482Y00205*
X00482Y00205*
X00482Y00205*
X00481Y00205*
X00481Y00204*
X0048Y00204*
X0048Y00204*
X00479Y00204*
X00479Y00204*
X00478Y00204*
X00477Y00204*
X00477*
X00477Y00204*
X00477Y00204*
X00476Y00204*
X00476Y00204*
X00475Y00204*
X00474Y00204*
X00473Y00205*
X00473Y00205*
X00473Y00205*
X00472Y00205*
X00472Y00206*
X00472Y00206*
X00472Y00206*
X00471Y00206*
X00471Y00206*
X00471Y00206*
X00471Y00207*
X00471Y00207*
X00471Y00207*
X0047Y00208*
X0047Y00209*
X0047Y00209*
X0047Y0021*
X0047Y0021*
X0047Y00211*
Y00211*
Y00211*
X0047Y00211*
X0047Y00212*
X0047Y00212*
X0047Y00213*
X0047Y00213*
X0047Y00214*
X0047Y00214*
X0047Y00214*
X0047Y00214*
X00471Y00215*
X00471Y00215*
X00471Y00216*
X00472Y00216*
X00472Y00217*
X00472Y00217*
X00473Y00217*
X00473Y00217*
X00473Y00217*
X00473Y00218*
X00473Y00218*
X00474Y00218*
X00474Y00219*
X00474Y00219*
X00475Y00219*
X00475Y0022*
X00476Y0022*
X00476Y00221*
X00477Y00221*
X00477Y00221*
X00477Y00221*
X00477Y00221*
X00477Y00222*
X00478Y00222*
X00478Y00222*
X00478Y00223*
X00479Y00223*
X0048Y00224*
X0048Y00224*
X0048Y00224*
X00481Y00224*
X00481Y00224*
X00481Y00225*
X00481Y00225*
X00481Y00225*
X00481Y00225*
X00481Y00225*
X00482Y00226*
X00469*
Y00229*
X00486*
Y00229*
G37*
G36*
X00458Y00209D02*
X00458Y00209D01*
X00458Y0021*
X00458Y0021*
X00458Y0021*
X00459Y0021*
X00459Y00211*
X0046Y00211*
X00461Y00212*
X00461*
X00461Y00212*
X00461Y00212*
X00461Y00212*
X00462Y00212*
X00462Y00212*
X00463Y00213*
X00463Y00213*
X00464Y00213*
Y0021*
X00464*
X00464Y0021*
X00464Y0021*
X00463Y0021*
X00463Y0021*
X00463Y0021*
X00462Y00209*
X00462Y00209*
X00461Y00208*
X0046Y00208*
X00459Y00207*
X00459Y00207*
X00459Y00207*
X00459Y00207*
X00459Y00207*
X00459Y00206*
X00458Y00206*
X00458Y00206*
X00457Y00205*
X00457Y00204*
X00457Y00204*
X00455*
Y00229*
X00458*
Y00209*
G37*
G54D12*
X00558Y00206D02*
Y00253D01*
X00464D02*
X00558D01*
X00464Y00206D02*
Y00253D01*
Y00206D02*
X00558D01*
X00554Y00152D02*
Y00197D01*
X00465D02*
X00554D01*
X00465Y00152D02*
Y00197D01*
Y00152D02*
X00554D01*
X00563Y0009D02*
Y00149D01*
X00456D02*
X00563D01*
X00456Y0009D02*
Y00149D01*
Y0009D02*
X00563D01*
X00996Y00083D02*
Y00126D01*
Y00083D02*
X01083D01*
Y00126*
X00996D02*
X01083D01*
X00996Y00145D02*
Y00194D01*
Y00145D02*
X01082D01*
Y00194*
X00996D02*
X01082D01*
X00903Y00181D02*
X00946D01*
Y00268*
X00903D02*
X00946D01*
X00903Y00181D02*
Y00268D01*
M02*