M48
;Layer_Color=9474304
;FILE_FORMAT=2:5
INCH,LZ
;TYPE=PLATED
T1F00S00C0.02953
T2F00S00C0.03543
;TYPE=NON_PLATED
T4F00S00C0.12598
%
T01
X025Y0291
T02
X0078Y003778
X011Y0047
X014Y0046843
Y0037
X0168Y0039315
X0182
X0232157Y0035
Y0021
X0251842
Y0035
X0254Y004837
X0264
X0277Y0048
X0244Y004837
X0234
Y007963
X0244
X0254
X0264
X0266843Y0093
X0266685Y0108
Y0122
X0264717Y0136
X0229283
X0227315Y0122
Y0108
X0234685Y0093
X0247158
X0218Y0196
X0211Y0179
X0194Y0174
X0184
X0174
X0164
X0154
X0144
X0134
Y0146
X0144
X0154
X0164
X0174
X0184
X0194
X0194027Y016
X0164Y0162
Y0204
X0174
X0184
X0194
X0154
X0144
X0134
X0103Y0198843
Y0189
X007Y0194
Y0208
Y0179
Y0146
X0078Y012022
X0104Y0124
Y0133843
X0116Y0148
X0118Y0161
X012Y0102
X0102Y0106
X0134Y0116
X0144
X0154
X0164
X0174
X0184
X0194
X0195315Y0093
X017774Y009374
X0162Y0094
X0144
X0139Y0078
Y0068158
X011Y0067
Y0057
X0168Y0078685
X0182
X0209Y0075842
Y0066
X0048Y0082
Y0122
Y014
X003
Y015
Y016
Y017
Y018
X002
Y017
Y016
Y015
Y014
Y013
X003
Y012
X002
Y011
X003
X0048Y016
X0050157Y0232
X005Y024637
X0035Y0237315
X002
Y0276685
X0035
X005Y027763
Y0292
Y0301842
X008
Y0292
Y027763
X007
X006
Y024637
X007
X008
X0093Y0246
X0106Y0232283
X013Y023278
X016Y0234842
Y0225
X0185
X0195
X0205
Y0255
X0195
X0185
X0190315Y0274
X019Y0291
X02
X021
Y0321
X02
X019
X016Y0324921
Y0315079
X013Y031522
X016Y0279921
Y0270079
X0106Y0267717
X0069842Y0232
X0215Y0225
X0225
X0235
X0245
X0255
Y0255
X0245
X0235
X0225
X0215
X0229685Y0274
X023Y0291
X022
X024
Y0321
X023
X022
X025
T04
X0015Y0015
X0285
X0015Y034
X0285
M30
