G04*
G04 #@! TF.GenerationSoftware,Altium Limited,Altium Designer,21.2.1 (34)*
G04*
G04 Layer_Color=16711935*
%FSLAX25Y25*%
%MOIN*%
G70*
G04*
G04 #@! TF.SameCoordinates,80AB4F38-7A27-461E-8C37-B356CBF0BF54*
G04*
G04*
G04 #@! TF.FilePolarity,Positive*
G04*
G01*
G75*
%ADD12C,0.00787*%
G36*
X80519Y78032D02*
X80515Y77966D01*
X80511Y77894D01*
X80504Y77821D01*
X80493Y77748D01*
X80482Y77686D01*
Y77682D01*
X80479Y77675D01*
Y77664D01*
X80471Y77650D01*
X80461Y77610D01*
X80442Y77559D01*
X80417Y77500D01*
X80384Y77438D01*
X80348Y77377D01*
X80300Y77318D01*
X80297Y77315D01*
X80293Y77311D01*
X80282Y77300D01*
X80271Y77286D01*
X80235Y77249D01*
X80184Y77205D01*
X80122Y77158D01*
X80049Y77107D01*
X79966Y77060D01*
X79871Y77020D01*
X79867D01*
X79860Y77016D01*
X79845Y77009D01*
X79824Y77005D01*
X79798Y76994D01*
X79769Y76987D01*
X79736Y76980D01*
X79696Y76969D01*
X79656Y76958D01*
X79609Y76951D01*
X79507Y76933D01*
X79394Y76922D01*
X79270Y76918D01*
X79267D01*
X79259D01*
X79241D01*
X79223D01*
X79198Y76922D01*
X79168D01*
X79099Y76925D01*
X79019Y76936D01*
X78935Y76947D01*
X78848Y76965D01*
X78761Y76987D01*
X78757D01*
X78750Y76991D01*
X78739Y76994D01*
X78724Y76998D01*
X78684Y77013D01*
X78633Y77034D01*
X78575Y77056D01*
X78517Y77085D01*
X78455Y77122D01*
X78397Y77158D01*
X78389Y77162D01*
X78371Y77176D01*
X78346Y77198D01*
X78313Y77227D01*
X78277Y77260D01*
X78240Y77300D01*
X78200Y77340D01*
X78167Y77387D01*
X78164Y77395D01*
X78153Y77409D01*
X78138Y77435D01*
X78120Y77471D01*
X78098Y77515D01*
X78080Y77566D01*
X78058Y77624D01*
X78040Y77690D01*
Y77697D01*
X78036Y77708D01*
X78033Y77719D01*
X78029Y77755D01*
X78022Y77806D01*
X78014Y77864D01*
X78007Y77934D01*
X78004Y78010D01*
X78000Y78094D01*
Y79000D01*
X80519D01*
Y78032D01*
D02*
G37*
G36*
X79896Y76346D02*
X79904Y76339D01*
X79907Y76325D01*
X79918Y76306D01*
X79929Y76285D01*
X79944Y76259D01*
X79980Y76197D01*
X80020Y76124D01*
X80071Y76052D01*
X80129Y75975D01*
X80191Y75899D01*
X80195Y75895D01*
X80199Y75892D01*
X80209Y75881D01*
X80220Y75866D01*
X80257Y75833D01*
X80300Y75789D01*
X80351Y75746D01*
X80410Y75699D01*
X80468Y75659D01*
X80530Y75622D01*
Y75422D01*
X78000D01*
Y75731D01*
X79969D01*
X79966Y75735D01*
X79951Y75753D01*
X79929Y75775D01*
X79904Y75811D01*
X79871Y75851D01*
X79835Y75902D01*
X79795Y75961D01*
X79754Y76026D01*
Y76030D01*
X79751Y76033D01*
X79736Y76055D01*
X79718Y76092D01*
X79696Y76135D01*
X79671Y76186D01*
X79645Y76241D01*
X79620Y76296D01*
X79598Y76350D01*
X79896D01*
Y76346D01*
D02*
G37*
G36*
X103352Y134691D02*
X103956D01*
Y134381D01*
X103352D01*
Y133286D01*
X103068D01*
X101437Y134440D01*
Y134691D01*
X103068D01*
Y135033D01*
X103352D01*
Y134691D01*
D02*
G37*
G36*
X103956Y132288D02*
X101987D01*
X101991Y132285D01*
X102005Y132266D01*
X102027Y132245D01*
X102053Y132208D01*
X102085Y132168D01*
X102122Y132117D01*
X102162Y132059D01*
X102202Y131993D01*
Y131990D01*
X102206Y131986D01*
X102220Y131964D01*
X102238Y131928D01*
X102260Y131884D01*
X102286Y131833D01*
X102311Y131779D01*
X102337Y131724D01*
X102358Y131669D01*
X102060D01*
Y131673D01*
X102053Y131680D01*
X102049Y131695D01*
X102038Y131713D01*
X102027Y131735D01*
X102013Y131760D01*
X101976Y131822D01*
X101936Y131895D01*
X101885Y131968D01*
X101827Y132044D01*
X101765Y132121D01*
X101761Y132124D01*
X101758Y132128D01*
X101747Y132139D01*
X101736Y132153D01*
X101699Y132186D01*
X101656Y132230D01*
X101605Y132274D01*
X101547Y132321D01*
X101488Y132361D01*
X101426Y132397D01*
Y132598D01*
X103956D01*
Y132288D01*
D02*
G37*
G36*
X103177Y131145D02*
X103199Y131138D01*
X103228Y131127D01*
X103261Y131116D01*
X103301Y131102D01*
X103345Y131083D01*
X103392Y131061D01*
X103494Y131011D01*
X103596Y130945D01*
X103647Y130905D01*
X103698Y130865D01*
X103742Y130821D01*
X103785Y130770D01*
X103789Y130767D01*
X103796Y130759D01*
X103804Y130741D01*
X103818Y130723D01*
X103836Y130694D01*
X103854Y130665D01*
X103873Y130625D01*
X103891Y130585D01*
X103913Y130537D01*
X103931Y130486D01*
X103949Y130432D01*
X103967Y130374D01*
X103982Y130312D01*
X103989Y130246D01*
X103996Y130177D01*
X104000Y130104D01*
Y130064D01*
X103996Y130035D01*
Y130002D01*
X103993Y129962D01*
X103986Y129919D01*
X103978Y129868D01*
X103960Y129762D01*
X103931Y129653D01*
X103891Y129544D01*
X103865Y129493D01*
X103836Y129442D01*
X103833Y129438D01*
X103829Y129431D01*
X103818Y129416D01*
X103804Y129402D01*
X103789Y129380D01*
X103767Y129354D01*
X103742Y129325D01*
X103712Y129296D01*
X103680Y129267D01*
X103647Y129234D01*
X103563Y129169D01*
X103465Y129107D01*
X103356Y129052D01*
X103352D01*
X103341Y129045D01*
X103323Y129041D01*
X103301Y129030D01*
X103272Y129023D01*
X103236Y129012D01*
X103196Y128998D01*
X103152Y128987D01*
X103105Y128976D01*
X103050Y128961D01*
X102937Y128943D01*
X102810Y128928D01*
X102679Y128921D01*
X102675D01*
X102661D01*
X102639D01*
X102613Y128925D01*
X102577D01*
X102540Y128928D01*
X102493Y128932D01*
X102446Y128939D01*
X102340Y128958D01*
X102224Y128983D01*
X102107Y129019D01*
X101994Y129070D01*
X101991Y129074D01*
X101980Y129078D01*
X101965Y129085D01*
X101947Y129100D01*
X101922Y129114D01*
X101892Y129132D01*
X101827Y129180D01*
X101754Y129242D01*
X101681Y129314D01*
X101609Y129398D01*
X101547Y129496D01*
X101543Y129500D01*
X101539Y129511D01*
X101532Y129525D01*
X101521Y129544D01*
X101510Y129573D01*
X101499Y129602D01*
X101485Y129638D01*
X101470Y129678D01*
X101456Y129722D01*
X101441Y129769D01*
X101419Y129871D01*
X101401Y129988D01*
X101394Y130108D01*
Y130144D01*
X101397Y130170D01*
X101401Y130202D01*
X101405Y130243D01*
X101408Y130283D01*
X101419Y130330D01*
X101441Y130428D01*
X101474Y130537D01*
X101496Y130592D01*
X101521Y130643D01*
X101554Y130694D01*
X101587Y130745D01*
X101590Y130748D01*
X101594Y130756D01*
X101605Y130770D01*
X101623Y130789D01*
X101641Y130807D01*
X101667Y130832D01*
X101696Y130858D01*
X101725Y130887D01*
X101761Y130916D01*
X101805Y130945D01*
X101849Y130978D01*
X101896Y131007D01*
X101951Y131032D01*
X102005Y131061D01*
X102064Y131083D01*
X102129Y131105D01*
X102206Y130778D01*
X102202D01*
X102195Y130774D01*
X102180Y130767D01*
X102162Y130759D01*
X102140Y130752D01*
X102111Y130741D01*
X102053Y130712D01*
X101987Y130676D01*
X101922Y130632D01*
X101860Y130577D01*
X101805Y130519D01*
X101798Y130512D01*
X101783Y130490D01*
X101765Y130454D01*
X101740Y130406D01*
X101718Y130344D01*
X101696Y130275D01*
X101681Y130192D01*
X101678Y130101D01*
Y130071D01*
X101681Y130053D01*
Y130028D01*
X101685Y129999D01*
X101696Y129929D01*
X101710Y129853D01*
X101736Y129773D01*
X101772Y129689D01*
X101820Y129613D01*
Y129609D01*
X101827Y129605D01*
X101845Y129580D01*
X101874Y129547D01*
X101918Y129507D01*
X101973Y129460D01*
X102034Y129416D01*
X102111Y129376D01*
X102195Y129340D01*
X102198D01*
X102206Y129336D01*
X102216Y129332D01*
X102235Y129329D01*
X102257Y129322D01*
X102282Y129314D01*
X102344Y129303D01*
X102417Y129289D01*
X102497Y129274D01*
X102584Y129267D01*
X102679Y129263D01*
X102682D01*
X102693D01*
X102711D01*
X102733D01*
X102759Y129267D01*
X102792D01*
X102828Y129271D01*
X102868Y129274D01*
X102955Y129285D01*
X103050Y129303D01*
X103145Y129325D01*
X103239Y129354D01*
X103243D01*
X103250Y129358D01*
X103261Y129365D01*
X103279Y129373D01*
X103323Y129394D01*
X103374Y129427D01*
X103432Y129467D01*
X103494Y129518D01*
X103549Y129576D01*
X103600Y129646D01*
Y129649D01*
X103603Y129657D01*
X103611Y129667D01*
X103618Y129682D01*
X103625Y129700D01*
X103636Y129722D01*
X103658Y129773D01*
X103680Y129839D01*
X103698Y129911D01*
X103712Y129991D01*
X103716Y130075D01*
Y130101D01*
X103712Y130122D01*
Y130148D01*
X103709Y130173D01*
X103694Y130239D01*
X103676Y130315D01*
X103647Y130392D01*
X103607Y130472D01*
X103585Y130512D01*
X103556Y130548D01*
X103552Y130552D01*
X103549Y130556D01*
X103538Y130567D01*
X103527Y130581D01*
X103509Y130596D01*
X103487Y130614D01*
X103465Y130636D01*
X103436Y130654D01*
X103403Y130676D01*
X103367Y130701D01*
X103330Y130723D01*
X103287Y130745D01*
X103239Y130763D01*
X103188Y130781D01*
X103134Y130799D01*
X103076Y130814D01*
X103159Y131149D01*
X103163D01*
X103177Y131145D01*
D02*
G37*
G36*
X210000Y271481D02*
X208832D01*
X208803Y271485D01*
X208770D01*
X208693Y271488D01*
X208613Y271499D01*
X208526Y271510D01*
X208446Y271529D01*
X208406Y271539D01*
X208373Y271550D01*
X208369D01*
X208366Y271554D01*
X208344Y271565D01*
X208311Y271579D01*
X208271Y271605D01*
X208227Y271638D01*
X208180Y271681D01*
X208136Y271732D01*
X208093Y271791D01*
Y271794D01*
X208089Y271798D01*
X208074Y271820D01*
X208060Y271856D01*
X208038Y271903D01*
X208020Y271958D01*
X208002Y272024D01*
X207991Y272093D01*
X207987Y272169D01*
Y272173D01*
Y272180D01*
Y272195D01*
X207991Y272213D01*
Y272238D01*
X207994Y272264D01*
X208009Y272326D01*
X208031Y272398D01*
X208060Y272475D01*
X208104Y272551D01*
X208133Y272588D01*
X208162Y272624D01*
X208166Y272628D01*
X208169Y272631D01*
X208180Y272642D01*
X208195Y272653D01*
X208213Y272668D01*
X208235Y272682D01*
X208264Y272701D01*
X208293Y272722D01*
X208329Y272741D01*
X208369Y272759D01*
X208413Y272781D01*
X208460Y272799D01*
X208515Y272813D01*
X208570Y272832D01*
X208631Y272843D01*
X208697Y272853D01*
X208690Y272857D01*
X208675Y272864D01*
X208653Y272879D01*
X208624Y272894D01*
X208559Y272934D01*
X208526Y272959D01*
X208497Y272981D01*
X208489Y272988D01*
X208471Y273006D01*
X208442Y273035D01*
X208406Y273072D01*
X208366Y273123D01*
X208318Y273177D01*
X208271Y273243D01*
X208220Y273316D01*
X207787Y274000D01*
X208202D01*
X208533Y273476D01*
Y273472D01*
X208540Y273465D01*
X208548Y273454D01*
X208559Y273440D01*
X208584Y273399D01*
X208617Y273348D01*
X208657Y273294D01*
X208697Y273236D01*
X208737Y273181D01*
X208773Y273130D01*
X208777Y273126D01*
X208788Y273112D01*
X208806Y273090D01*
X208832Y273065D01*
X208886Y273010D01*
X208915Y272985D01*
X208944Y272963D01*
X208948Y272959D01*
X208955Y272955D01*
X208970Y272948D01*
X208992Y272937D01*
X209014Y272926D01*
X209039Y272915D01*
X209097Y272897D01*
X209101D01*
X209108Y272894D01*
X209123D01*
X209141Y272890D01*
X209167Y272886D01*
X209196D01*
X209236Y272883D01*
X209665D01*
Y274000D01*
X210000D01*
Y271481D01*
D02*
G37*
G36*
X207634Y273996D02*
Y273982D01*
Y273960D01*
X207630Y273931D01*
X207627Y273898D01*
X207620Y273862D01*
X207612Y273825D01*
X207598Y273785D01*
Y273782D01*
X207594Y273778D01*
X207587Y273756D01*
X207572Y273723D01*
X207550Y273680D01*
X207521Y273629D01*
X207485Y273570D01*
X207445Y273512D01*
X207394Y273450D01*
Y273447D01*
X207386Y273443D01*
X207368Y273421D01*
X207336Y273389D01*
X207288Y273341D01*
X207234Y273287D01*
X207165Y273221D01*
X207081Y273148D01*
X206990Y273072D01*
X206986Y273068D01*
X206972Y273057D01*
X206950Y273039D01*
X206924Y273017D01*
X206891Y272988D01*
X206851Y272955D01*
X206811Y272919D01*
X206764Y272879D01*
X206673Y272792D01*
X206582Y272704D01*
X206538Y272660D01*
X206498Y272617D01*
X206462Y272577D01*
X206433Y272537D01*
Y272533D01*
X206426Y272530D01*
X206418Y272519D01*
X206411Y272504D01*
X206385Y272464D01*
X206356Y272417D01*
X206331Y272358D01*
X206305Y272297D01*
X206291Y272227D01*
X206284Y272162D01*
Y272158D01*
Y272155D01*
X206287Y272133D01*
X206291Y272096D01*
X206302Y272056D01*
X206316Y272005D01*
X206342Y271954D01*
X206375Y271903D01*
X206418Y271852D01*
X206426Y271845D01*
X206444Y271831D01*
X206469Y271812D01*
X206509Y271787D01*
X206560Y271765D01*
X206618Y271743D01*
X206688Y271729D01*
X206764Y271725D01*
X206786D01*
X206801Y271729D01*
X206844Y271732D01*
X206895Y271743D01*
X206950Y271758D01*
X207012Y271783D01*
X207070Y271816D01*
X207124Y271860D01*
X207132Y271867D01*
X207146Y271885D01*
X207168Y271914D01*
X207190Y271958D01*
X207215Y272009D01*
X207237Y272075D01*
X207252Y272147D01*
X207259Y272231D01*
X207576Y272198D01*
Y272195D01*
X207572Y272184D01*
Y272165D01*
X207569Y272140D01*
X207561Y272111D01*
X207554Y272078D01*
X207543Y272038D01*
X207532Y271998D01*
X207503Y271911D01*
X207459Y271823D01*
X207434Y271780D01*
X207401Y271736D01*
X207368Y271696D01*
X207332Y271659D01*
X207328Y271656D01*
X207321Y271652D01*
X207310Y271641D01*
X207292Y271630D01*
X207270Y271616D01*
X207244Y271601D01*
X207215Y271583D01*
X207179Y271565D01*
X207139Y271547D01*
X207095Y271529D01*
X207048Y271514D01*
X206997Y271499D01*
X206942Y271488D01*
X206884Y271478D01*
X206822Y271474D01*
X206757Y271470D01*
X206720D01*
X206695Y271474D01*
X206666Y271478D01*
X206629Y271481D01*
X206589Y271488D01*
X206549Y271496D01*
X206455Y271521D01*
X206360Y271558D01*
X206313Y271579D01*
X206265Y271605D01*
X206222Y271638D01*
X206182Y271674D01*
X206178Y271678D01*
X206171Y271681D01*
X206164Y271696D01*
X206149Y271710D01*
X206131Y271729D01*
X206113Y271754D01*
X206094Y271780D01*
X206072Y271812D01*
X206036Y271882D01*
X206000Y271969D01*
X205985Y272013D01*
X205978Y272063D01*
X205971Y272114D01*
X205967Y272169D01*
Y272176D01*
Y272195D01*
X205971Y272224D01*
X205974Y272264D01*
X205981Y272307D01*
X205996Y272358D01*
X206011Y272413D01*
X206032Y272468D01*
X206036Y272475D01*
X206043Y272493D01*
X206058Y272522D01*
X206080Y272562D01*
X206109Y272606D01*
X206145Y272660D01*
X206189Y272715D01*
X206240Y272777D01*
X206247Y272784D01*
X206265Y272806D01*
X206284Y272824D01*
X206302Y272843D01*
X206324Y272864D01*
X206353Y272894D01*
X206382Y272923D01*
X206418Y272955D01*
X206455Y272992D01*
X206498Y273032D01*
X206546Y273072D01*
X206597Y273119D01*
X206655Y273166D01*
X206713Y273217D01*
X206717Y273221D01*
X206724Y273228D01*
X206739Y273239D01*
X206757Y273254D01*
X206779Y273276D01*
X206804Y273298D01*
X206862Y273345D01*
X206924Y273399D01*
X206982Y273454D01*
X207033Y273501D01*
X207055Y273519D01*
X207073Y273538D01*
X207077Y273541D01*
X207088Y273552D01*
X207103Y273567D01*
X207121Y273589D01*
X207139Y273614D01*
X207161Y273640D01*
X207205Y273702D01*
X205963D01*
Y274000D01*
X207634D01*
Y273996D01*
D02*
G37*
G36*
X132519Y273032D02*
X132515Y272966D01*
X132512Y272894D01*
X132504Y272821D01*
X132493Y272748D01*
X132482Y272686D01*
Y272682D01*
X132479Y272675D01*
Y272664D01*
X132472Y272650D01*
X132461Y272609D01*
X132442Y272559D01*
X132417Y272500D01*
X132384Y272439D01*
X132348Y272377D01*
X132300Y272318D01*
X132297Y272315D01*
X132293Y272311D01*
X132282Y272300D01*
X132271Y272286D01*
X132235Y272249D01*
X132184Y272205D01*
X132122Y272158D01*
X132049Y272107D01*
X131966Y272060D01*
X131871Y272020D01*
X131867D01*
X131860Y272016D01*
X131845Y272009D01*
X131824Y272005D01*
X131798Y271994D01*
X131769Y271987D01*
X131736Y271980D01*
X131696Y271969D01*
X131656Y271958D01*
X131609Y271951D01*
X131507Y271933D01*
X131394Y271922D01*
X131270Y271918D01*
X131267D01*
X131259D01*
X131241D01*
X131223D01*
X131198Y271922D01*
X131168D01*
X131099Y271925D01*
X131019Y271936D01*
X130935Y271947D01*
X130848Y271965D01*
X130761Y271987D01*
X130757D01*
X130750Y271991D01*
X130739Y271994D01*
X130724Y271998D01*
X130684Y272013D01*
X130633Y272034D01*
X130575Y272056D01*
X130517Y272085D01*
X130455Y272122D01*
X130397Y272158D01*
X130389Y272162D01*
X130371Y272176D01*
X130346Y272198D01*
X130313Y272227D01*
X130277Y272260D01*
X130240Y272300D01*
X130200Y272340D01*
X130167Y272388D01*
X130164Y272395D01*
X130153Y272409D01*
X130138Y272435D01*
X130120Y272471D01*
X130098Y272515D01*
X130080Y272566D01*
X130058Y272624D01*
X130040Y272690D01*
Y272697D01*
X130036Y272708D01*
X130033Y272719D01*
X130029Y272755D01*
X130022Y272806D01*
X130015Y272864D01*
X130007Y272934D01*
X130004Y273010D01*
X130000Y273094D01*
Y274000D01*
X132519D01*
Y273032D01*
D02*
G37*
G36*
X130069Y271627D02*
X130102Y271623D01*
X130138Y271616D01*
X130175Y271609D01*
X130215Y271594D01*
X130218D01*
X130222Y271590D01*
X130244Y271583D01*
X130277Y271568D01*
X130320Y271547D01*
X130371Y271517D01*
X130429Y271481D01*
X130488Y271441D01*
X130550Y271390D01*
X130553D01*
X130557Y271383D01*
X130579Y271365D01*
X130612Y271332D01*
X130659Y271285D01*
X130713Y271230D01*
X130779Y271161D01*
X130852Y271077D01*
X130928Y270986D01*
X130932Y270983D01*
X130943Y270968D01*
X130961Y270946D01*
X130983Y270921D01*
X131012Y270888D01*
X131045Y270848D01*
X131081Y270808D01*
X131121Y270760D01*
X131208Y270669D01*
X131296Y270578D01*
X131340Y270535D01*
X131383Y270495D01*
X131423Y270458D01*
X131463Y270429D01*
X131467D01*
X131471Y270422D01*
X131481Y270415D01*
X131496Y270407D01*
X131536Y270382D01*
X131583Y270353D01*
X131642Y270327D01*
X131703Y270302D01*
X131773Y270287D01*
X131838Y270280D01*
X131842D01*
X131845D01*
X131867Y270284D01*
X131904Y270287D01*
X131944Y270298D01*
X131995Y270313D01*
X132046Y270338D01*
X132097Y270371D01*
X132148Y270415D01*
X132155Y270422D01*
X132169Y270440D01*
X132188Y270466D01*
X132213Y270506D01*
X132235Y270557D01*
X132257Y270615D01*
X132271Y270684D01*
X132275Y270760D01*
Y270782D01*
X132271Y270797D01*
X132268Y270841D01*
X132257Y270891D01*
X132242Y270946D01*
X132217Y271008D01*
X132184Y271066D01*
X132140Y271121D01*
X132133Y271128D01*
X132115Y271143D01*
X132086Y271164D01*
X132042Y271186D01*
X131991Y271212D01*
X131925Y271234D01*
X131853Y271248D01*
X131769Y271255D01*
X131802Y271572D01*
X131805D01*
X131816Y271568D01*
X131834D01*
X131860Y271565D01*
X131889Y271558D01*
X131922Y271550D01*
X131962Y271539D01*
X132002Y271529D01*
X132089Y271499D01*
X132177Y271456D01*
X132220Y271430D01*
X132264Y271397D01*
X132304Y271365D01*
X132341Y271328D01*
X132344Y271325D01*
X132348Y271317D01*
X132359Y271306D01*
X132370Y271288D01*
X132384Y271266D01*
X132399Y271241D01*
X132417Y271212D01*
X132435Y271175D01*
X132453Y271135D01*
X132472Y271092D01*
X132486Y271044D01*
X132501Y270993D01*
X132512Y270939D01*
X132522Y270881D01*
X132526Y270819D01*
X132530Y270753D01*
Y270717D01*
X132526Y270691D01*
X132522Y270662D01*
X132519Y270626D01*
X132512Y270586D01*
X132504Y270546D01*
X132479Y270451D01*
X132442Y270356D01*
X132421Y270309D01*
X132395Y270262D01*
X132362Y270218D01*
X132326Y270178D01*
X132322Y270174D01*
X132319Y270167D01*
X132304Y270160D01*
X132290Y270145D01*
X132271Y270127D01*
X132246Y270109D01*
X132220Y270091D01*
X132188Y270069D01*
X132118Y270032D01*
X132031Y269996D01*
X131987Y269982D01*
X131936Y269974D01*
X131886Y269967D01*
X131831Y269963D01*
X131824D01*
X131805D01*
X131776Y269967D01*
X131736Y269971D01*
X131693Y269978D01*
X131642Y269992D01*
X131587Y270007D01*
X131532Y270029D01*
X131525Y270032D01*
X131507Y270040D01*
X131478Y270054D01*
X131438Y270076D01*
X131394Y270105D01*
X131340Y270142D01*
X131285Y270185D01*
X131223Y270236D01*
X131216Y270244D01*
X131194Y270262D01*
X131176Y270280D01*
X131158Y270298D01*
X131136Y270320D01*
X131106Y270349D01*
X131077Y270378D01*
X131045Y270415D01*
X131008Y270451D01*
X130968Y270495D01*
X130928Y270542D01*
X130881Y270593D01*
X130833Y270651D01*
X130782Y270709D01*
X130779Y270713D01*
X130772Y270720D01*
X130761Y270735D01*
X130746Y270753D01*
X130724Y270775D01*
X130702Y270800D01*
X130655Y270859D01*
X130601Y270921D01*
X130546Y270979D01*
X130499Y271030D01*
X130480Y271052D01*
X130462Y271070D01*
X130459Y271074D01*
X130448Y271084D01*
X130433Y271099D01*
X130411Y271117D01*
X130386Y271135D01*
X130360Y271157D01*
X130298Y271201D01*
Y269960D01*
X130000D01*
Y271630D01*
X130004D01*
X130018D01*
X130040D01*
X130069Y271627D01*
D02*
G37*
G36*
X159956Y233288D02*
X157987D01*
X157991Y233285D01*
X158005Y233266D01*
X158027Y233244D01*
X158053Y233208D01*
X158085Y233168D01*
X158122Y233117D01*
X158162Y233059D01*
X158202Y232993D01*
Y232990D01*
X158205Y232986D01*
X158220Y232964D01*
X158238Y232928D01*
X158260Y232884D01*
X158286Y232833D01*
X158311Y232779D01*
X158337Y232724D01*
X158358Y232669D01*
X158060D01*
Y232673D01*
X158053Y232680D01*
X158049Y232695D01*
X158038Y232713D01*
X158027Y232735D01*
X158013Y232760D01*
X157976Y232822D01*
X157936Y232895D01*
X157885Y232968D01*
X157827Y233044D01*
X157765Y233121D01*
X157761Y233124D01*
X157758Y233128D01*
X157747Y233139D01*
X157736Y233154D01*
X157700Y233186D01*
X157656Y233230D01*
X157605Y233274D01*
X157547Y233321D01*
X157488Y233361D01*
X157427Y233397D01*
Y233598D01*
X159956D01*
Y233288D01*
D02*
G37*
G36*
X159177Y232145D02*
X159199Y232138D01*
X159228Y232127D01*
X159261Y232116D01*
X159301Y232102D01*
X159345Y232083D01*
X159392Y232062D01*
X159494Y232011D01*
X159596Y231945D01*
X159647Y231905D01*
X159698Y231865D01*
X159742Y231821D01*
X159785Y231770D01*
X159789Y231767D01*
X159796Y231759D01*
X159803Y231741D01*
X159818Y231723D01*
X159836Y231694D01*
X159854Y231665D01*
X159873Y231625D01*
X159891Y231585D01*
X159913Y231537D01*
X159931Y231486D01*
X159949Y231432D01*
X159967Y231374D01*
X159982Y231312D01*
X159989Y231246D01*
X159996Y231177D01*
X160000Y231104D01*
Y231064D01*
X159996Y231035D01*
Y231002D01*
X159993Y230962D01*
X159985Y230919D01*
X159978Y230868D01*
X159960Y230762D01*
X159931Y230653D01*
X159891Y230544D01*
X159865Y230493D01*
X159836Y230442D01*
X159833Y230438D01*
X159829Y230431D01*
X159818Y230416D01*
X159803Y230402D01*
X159789Y230380D01*
X159767Y230354D01*
X159742Y230325D01*
X159713Y230296D01*
X159680Y230267D01*
X159647Y230234D01*
X159563Y230169D01*
X159465Y230107D01*
X159356Y230052D01*
X159352D01*
X159341Y230045D01*
X159323Y230041D01*
X159301Y230030D01*
X159272Y230023D01*
X159236Y230012D01*
X159196Y229998D01*
X159152Y229987D01*
X159105Y229976D01*
X159050Y229961D01*
X158937Y229943D01*
X158810Y229928D01*
X158679Y229921D01*
X158675D01*
X158660D01*
X158639D01*
X158613Y229925D01*
X158577D01*
X158540Y229928D01*
X158493Y229932D01*
X158446Y229939D01*
X158340Y229958D01*
X158224Y229983D01*
X158107Y230019D01*
X157994Y230070D01*
X157991Y230074D01*
X157980Y230078D01*
X157965Y230085D01*
X157947Y230100D01*
X157922Y230114D01*
X157893Y230132D01*
X157827Y230180D01*
X157754Y230241D01*
X157681Y230314D01*
X157608Y230398D01*
X157547Y230496D01*
X157543Y230500D01*
X157539Y230511D01*
X157532Y230525D01*
X157521Y230544D01*
X157510Y230573D01*
X157499Y230602D01*
X157485Y230638D01*
X157470Y230678D01*
X157456Y230722D01*
X157441Y230769D01*
X157419Y230871D01*
X157401Y230988D01*
X157394Y231108D01*
Y231144D01*
X157397Y231170D01*
X157401Y231203D01*
X157405Y231242D01*
X157408Y231283D01*
X157419Y231330D01*
X157441Y231428D01*
X157474Y231537D01*
X157496Y231592D01*
X157521Y231643D01*
X157554Y231694D01*
X157587Y231745D01*
X157590Y231749D01*
X157594Y231756D01*
X157605Y231770D01*
X157623Y231788D01*
X157641Y231807D01*
X157667Y231832D01*
X157696Y231858D01*
X157725Y231887D01*
X157761Y231916D01*
X157805Y231945D01*
X157849Y231978D01*
X157896Y232007D01*
X157951Y232032D01*
X158005Y232062D01*
X158064Y232083D01*
X158129Y232105D01*
X158205Y231778D01*
X158202D01*
X158195Y231774D01*
X158180Y231767D01*
X158162Y231759D01*
X158140Y231752D01*
X158111Y231741D01*
X158053Y231712D01*
X157987Y231676D01*
X157922Y231632D01*
X157860Y231577D01*
X157805Y231519D01*
X157798Y231512D01*
X157783Y231490D01*
X157765Y231454D01*
X157740Y231406D01*
X157718Y231345D01*
X157696Y231275D01*
X157681Y231192D01*
X157678Y231101D01*
Y231071D01*
X157681Y231053D01*
Y231028D01*
X157685Y230999D01*
X157696Y230929D01*
X157711Y230853D01*
X157736Y230773D01*
X157772Y230689D01*
X157820Y230613D01*
Y230609D01*
X157827Y230606D01*
X157845Y230580D01*
X157874Y230547D01*
X157918Y230507D01*
X157973Y230460D01*
X158034Y230416D01*
X158111Y230376D01*
X158195Y230340D01*
X158198D01*
X158205Y230336D01*
X158216Y230332D01*
X158235Y230329D01*
X158256Y230322D01*
X158282Y230314D01*
X158344Y230303D01*
X158417Y230289D01*
X158497Y230274D01*
X158584Y230267D01*
X158679Y230263D01*
X158682D01*
X158693D01*
X158712D01*
X158733D01*
X158759Y230267D01*
X158792D01*
X158828Y230271D01*
X158868Y230274D01*
X158955Y230285D01*
X159050Y230303D01*
X159145Y230325D01*
X159239Y230354D01*
X159243D01*
X159250Y230358D01*
X159261Y230365D01*
X159279Y230373D01*
X159323Y230394D01*
X159374Y230427D01*
X159432Y230467D01*
X159494Y230518D01*
X159549Y230576D01*
X159600Y230646D01*
Y230649D01*
X159603Y230657D01*
X159610Y230667D01*
X159618Y230682D01*
X159625Y230700D01*
X159636Y230722D01*
X159658Y230773D01*
X159680Y230838D01*
X159698Y230911D01*
X159713Y230991D01*
X159716Y231075D01*
Y231101D01*
X159713Y231122D01*
Y231148D01*
X159709Y231173D01*
X159694Y231239D01*
X159676Y231315D01*
X159647Y231392D01*
X159607Y231472D01*
X159585Y231512D01*
X159556Y231548D01*
X159552Y231552D01*
X159549Y231556D01*
X159538Y231567D01*
X159527Y231581D01*
X159509Y231596D01*
X159487Y231614D01*
X159465Y231636D01*
X159436Y231654D01*
X159403Y231676D01*
X159367Y231701D01*
X159330Y231723D01*
X159287Y231745D01*
X159239Y231763D01*
X159188Y231781D01*
X159134Y231799D01*
X159075Y231814D01*
X159159Y232149D01*
X159163D01*
X159177Y232145D01*
D02*
G37*
G36*
X157718Y324161D02*
X157725Y324153D01*
X157740Y324139D01*
X157761Y324124D01*
X157787Y324102D01*
X157816Y324073D01*
X157852Y324044D01*
X157896Y324011D01*
X157940Y323978D01*
X157991Y323938D01*
X158049Y323898D01*
X158107Y323858D01*
X158173Y323815D01*
X158242Y323771D01*
X158318Y323727D01*
X158395Y323684D01*
X158398Y323680D01*
X158413Y323673D01*
X158435Y323662D01*
X158468Y323644D01*
X158508Y323625D01*
X158551Y323604D01*
X158602Y323578D01*
X158660Y323553D01*
X158726Y323523D01*
X158792Y323491D01*
X158864Y323462D01*
X158941Y323432D01*
X159097Y323374D01*
X159265Y323320D01*
X159268D01*
X159279Y323316D01*
X159298Y323312D01*
X159319Y323305D01*
X159348Y323298D01*
X159385Y323290D01*
X159425Y323280D01*
X159469Y323272D01*
X159520Y323261D01*
X159574Y323251D01*
X159691Y323232D01*
X159818Y323214D01*
X159956Y323203D01*
Y322886D01*
X159953D01*
X159942D01*
X159927D01*
X159905Y322890D01*
X159876D01*
X159840Y322894D01*
X159800Y322897D01*
X159756Y322901D01*
X159705Y322908D01*
X159654Y322916D01*
X159592Y322926D01*
X159530Y322937D01*
X159465Y322948D01*
X159392Y322963D01*
X159243Y322999D01*
X159239D01*
X159225Y323003D01*
X159203Y323010D01*
X159170Y323021D01*
X159134Y323032D01*
X159090Y323047D01*
X159039Y323061D01*
X158984Y323083D01*
X158923Y323105D01*
X158861Y323127D01*
X158722Y323181D01*
X158577Y323247D01*
X158431Y323320D01*
X158428Y323323D01*
X158413Y323330D01*
X158395Y323341D01*
X158366Y323356D01*
X158333Y323374D01*
X158293Y323400D01*
X158249Y323425D01*
X158202Y323454D01*
X158096Y323523D01*
X157987Y323596D01*
X157874Y323680D01*
X157769Y323767D01*
Y322533D01*
X157470D01*
Y324164D01*
X157714D01*
X157718Y324161D01*
D02*
G37*
G36*
X159177Y322224D02*
X159199Y322217D01*
X159228Y322206D01*
X159261Y322195D01*
X159301Y322180D01*
X159345Y322162D01*
X159392Y322140D01*
X159494Y322089D01*
X159596Y322024D01*
X159647Y321984D01*
X159698Y321944D01*
X159742Y321900D01*
X159785Y321849D01*
X159789Y321845D01*
X159796Y321838D01*
X159803Y321820D01*
X159818Y321802D01*
X159836Y321773D01*
X159854Y321743D01*
X159873Y321704D01*
X159891Y321663D01*
X159913Y321616D01*
X159931Y321565D01*
X159949Y321511D01*
X159967Y321452D01*
X159982Y321390D01*
X159989Y321325D01*
X159996Y321256D01*
X160000Y321183D01*
Y321143D01*
X159996Y321114D01*
Y321081D01*
X159993Y321041D01*
X159985Y320997D01*
X159978Y320946D01*
X159960Y320841D01*
X159931Y320732D01*
X159891Y320622D01*
X159865Y320571D01*
X159836Y320520D01*
X159833Y320517D01*
X159829Y320510D01*
X159818Y320495D01*
X159803Y320480D01*
X159789Y320459D01*
X159767Y320433D01*
X159742Y320404D01*
X159713Y320375D01*
X159680Y320346D01*
X159647Y320313D01*
X159563Y320248D01*
X159465Y320186D01*
X159356Y320131D01*
X159352D01*
X159341Y320124D01*
X159323Y320120D01*
X159301Y320109D01*
X159272Y320102D01*
X159236Y320091D01*
X159196Y320076D01*
X159152Y320065D01*
X159105Y320055D01*
X159050Y320040D01*
X158937Y320022D01*
X158810Y320007D01*
X158679Y320000D01*
X158675D01*
X158660D01*
X158639D01*
X158613Y320004D01*
X158577D01*
X158540Y320007D01*
X158493Y320011D01*
X158446Y320018D01*
X158340Y320036D01*
X158224Y320062D01*
X158107Y320098D01*
X157994Y320149D01*
X157991Y320153D01*
X157980Y320157D01*
X157965Y320164D01*
X157947Y320178D01*
X157922Y320193D01*
X157893Y320211D01*
X157827Y320258D01*
X157754Y320320D01*
X157681Y320393D01*
X157608Y320477D01*
X157547Y320575D01*
X157543Y320579D01*
X157539Y320590D01*
X157532Y320604D01*
X157521Y320622D01*
X157510Y320652D01*
X157499Y320681D01*
X157485Y320717D01*
X157470Y320757D01*
X157456Y320801D01*
X157441Y320848D01*
X157419Y320950D01*
X157401Y321066D01*
X157394Y321187D01*
Y321223D01*
X157397Y321249D01*
X157401Y321281D01*
X157405Y321321D01*
X157408Y321361D01*
X157419Y321409D01*
X157441Y321507D01*
X157474Y321616D01*
X157496Y321671D01*
X157521Y321722D01*
X157554Y321773D01*
X157587Y321824D01*
X157590Y321827D01*
X157594Y321834D01*
X157605Y321849D01*
X157623Y321867D01*
X157641Y321885D01*
X157667Y321911D01*
X157696Y321936D01*
X157725Y321966D01*
X157761Y321995D01*
X157805Y322024D01*
X157849Y322057D01*
X157896Y322086D01*
X157951Y322111D01*
X158005Y322140D01*
X158064Y322162D01*
X158129Y322184D01*
X158205Y321856D01*
X158202D01*
X158195Y321853D01*
X158180Y321845D01*
X158162Y321838D01*
X158140Y321831D01*
X158111Y321820D01*
X158053Y321791D01*
X157987Y321754D01*
X157922Y321711D01*
X157860Y321656D01*
X157805Y321598D01*
X157798Y321591D01*
X157783Y321569D01*
X157765Y321532D01*
X157740Y321485D01*
X157718Y321423D01*
X157696Y321354D01*
X157681Y321270D01*
X157678Y321179D01*
Y321150D01*
X157681Y321132D01*
Y321107D01*
X157685Y321077D01*
X157696Y321008D01*
X157711Y320932D01*
X157736Y320852D01*
X157772Y320768D01*
X157820Y320692D01*
Y320688D01*
X157827Y320684D01*
X157845Y320659D01*
X157874Y320626D01*
X157918Y320586D01*
X157973Y320539D01*
X158034Y320495D01*
X158111Y320455D01*
X158195Y320419D01*
X158198D01*
X158205Y320415D01*
X158216Y320411D01*
X158235Y320408D01*
X158256Y320400D01*
X158282Y320393D01*
X158344Y320382D01*
X158417Y320368D01*
X158497Y320353D01*
X158584Y320346D01*
X158679Y320342D01*
X158682D01*
X158693D01*
X158712D01*
X158733D01*
X158759Y320346D01*
X158792D01*
X158828Y320349D01*
X158868Y320353D01*
X158955Y320364D01*
X159050Y320382D01*
X159145Y320404D01*
X159239Y320433D01*
X159243D01*
X159250Y320437D01*
X159261Y320444D01*
X159279Y320451D01*
X159323Y320473D01*
X159374Y320506D01*
X159432Y320546D01*
X159494Y320597D01*
X159549Y320655D01*
X159600Y320724D01*
Y320728D01*
X159603Y320735D01*
X159610Y320746D01*
X159618Y320761D01*
X159625Y320779D01*
X159636Y320801D01*
X159658Y320852D01*
X159680Y320917D01*
X159698Y320990D01*
X159713Y321070D01*
X159716Y321154D01*
Y321179D01*
X159713Y321201D01*
Y321227D01*
X159709Y321252D01*
X159694Y321318D01*
X159676Y321394D01*
X159647Y321470D01*
X159607Y321551D01*
X159585Y321591D01*
X159556Y321627D01*
X159552Y321631D01*
X159549Y321634D01*
X159538Y321645D01*
X159527Y321660D01*
X159509Y321674D01*
X159487Y321692D01*
X159465Y321714D01*
X159436Y321733D01*
X159403Y321754D01*
X159367Y321780D01*
X159330Y321802D01*
X159287Y321824D01*
X159239Y321842D01*
X159188Y321860D01*
X159134Y321878D01*
X159075Y321893D01*
X159159Y322228D01*
X159163D01*
X159177Y322224D01*
D02*
G37*
G36*
X159268Y279160D02*
X159298Y279157D01*
X159330Y279150D01*
X159367Y279142D01*
X159407Y279135D01*
X159494Y279106D01*
X159541Y279084D01*
X159585Y279062D01*
X159632Y279033D01*
X159680Y279000D01*
X159727Y278964D01*
X159771Y278920D01*
X159774Y278917D01*
X159782Y278909D01*
X159793Y278895D01*
X159807Y278876D01*
X159825Y278855D01*
X159844Y278826D01*
X159865Y278793D01*
X159883Y278753D01*
X159905Y278713D01*
X159927Y278665D01*
X159945Y278618D01*
X159964Y278563D01*
X159978Y278505D01*
X159989Y278443D01*
X159996Y278381D01*
X160000Y278312D01*
Y278280D01*
X159996Y278258D01*
X159993Y278229D01*
X159989Y278196D01*
X159982Y278159D01*
X159975Y278119D01*
X159953Y278032D01*
X159916Y277941D01*
X159895Y277894D01*
X159869Y277850D01*
X159836Y277806D01*
X159803Y277763D01*
X159800Y277759D01*
X159793Y277752D01*
X159782Y277741D01*
X159767Y277730D01*
X159749Y277712D01*
X159723Y277694D01*
X159698Y277672D01*
X159665Y277650D01*
X159629Y277628D01*
X159592Y277606D01*
X159505Y277566D01*
X159403Y277533D01*
X159348Y277522D01*
X159290Y277515D01*
X159250Y277825D01*
X159254D01*
X159261Y277828D01*
X159276Y277832D01*
X159294Y277835D01*
X159316Y277839D01*
X159341Y277846D01*
X159396Y277865D01*
X159461Y277890D01*
X159523Y277923D01*
X159581Y277959D01*
X159632Y278003D01*
X159636Y278010D01*
X159651Y278025D01*
X159669Y278054D01*
X159687Y278090D01*
X159709Y278134D01*
X159727Y278189D01*
X159742Y278251D01*
X159745Y278316D01*
Y278338D01*
X159742Y278352D01*
X159738Y278392D01*
X159727Y278443D01*
X159709Y278502D01*
X159683Y278563D01*
X159647Y278625D01*
X159596Y278684D01*
X159589Y278691D01*
X159567Y278709D01*
X159534Y278731D01*
X159490Y278760D01*
X159436Y278789D01*
X159374Y278811D01*
X159301Y278829D01*
X159221Y278836D01*
X159217D01*
X159210D01*
X159199D01*
X159185Y278833D01*
X159145Y278829D01*
X159097Y278818D01*
X159039Y278804D01*
X158981Y278778D01*
X158923Y278742D01*
X158868Y278695D01*
X158861Y278687D01*
X158846Y278669D01*
X158824Y278640D01*
X158799Y278600D01*
X158773Y278549D01*
X158751Y278487D01*
X158737Y278418D01*
X158730Y278342D01*
Y278309D01*
X158733Y278283D01*
X158737Y278251D01*
X158744Y278214D01*
X158751Y278170D01*
X158762Y278123D01*
X158489Y278159D01*
Y278178D01*
X158493Y278192D01*
Y278240D01*
X158486Y278280D01*
X158478Y278327D01*
X158468Y278381D01*
X158449Y278443D01*
X158424Y278502D01*
X158391Y278563D01*
Y278567D01*
X158387Y278571D01*
X158373Y278589D01*
X158347Y278614D01*
X158315Y278644D01*
X158267Y278673D01*
X158213Y278698D01*
X158151Y278716D01*
X158115Y278724D01*
X158074D01*
X158071D01*
X158067D01*
X158045D01*
X158016Y278716D01*
X157976Y278709D01*
X157932Y278695D01*
X157885Y278676D01*
X157838Y278647D01*
X157794Y278607D01*
X157791Y278604D01*
X157776Y278585D01*
X157758Y278560D01*
X157736Y278527D01*
X157718Y278483D01*
X157700Y278432D01*
X157685Y278374D01*
X157681Y278309D01*
Y278280D01*
X157689Y278247D01*
X157696Y278203D01*
X157711Y278156D01*
X157729Y278109D01*
X157758Y278058D01*
X157794Y278010D01*
X157798Y278007D01*
X157816Y277992D01*
X157842Y277970D01*
X157878Y277945D01*
X157925Y277919D01*
X157984Y277894D01*
X158053Y277872D01*
X158133Y277857D01*
X158078Y277548D01*
X158074D01*
X158064Y277552D01*
X158049Y277555D01*
X158027Y277559D01*
X158002Y277566D01*
X157973Y277577D01*
X157903Y277599D01*
X157823Y277635D01*
X157743Y277679D01*
X157667Y277734D01*
X157598Y277803D01*
X157594Y277806D01*
X157590Y277814D01*
X157583Y277825D01*
X157572Y277839D01*
X157558Y277857D01*
X157543Y277883D01*
X157528Y277908D01*
X157510Y277941D01*
X157481Y278014D01*
X157452Y278098D01*
X157434Y278196D01*
X157427Y278247D01*
Y278338D01*
X157430Y278378D01*
X157438Y278425D01*
X157448Y278483D01*
X157467Y278549D01*
X157488Y278614D01*
X157518Y278680D01*
Y278684D01*
X157521Y278687D01*
X157532Y278709D01*
X157554Y278742D01*
X157579Y278778D01*
X157616Y278822D01*
X157656Y278866D01*
X157703Y278909D01*
X157758Y278946D01*
X157765Y278949D01*
X157783Y278960D01*
X157816Y278975D01*
X157856Y278993D01*
X157903Y279011D01*
X157958Y279026D01*
X158020Y279037D01*
X158082Y279040D01*
X158089D01*
X158111D01*
X158140Y279037D01*
X158180Y279029D01*
X158227Y279018D01*
X158278Y279000D01*
X158329Y278978D01*
X158380Y278949D01*
X158387Y278946D01*
X158402Y278935D01*
X158428Y278913D01*
X158457Y278884D01*
X158489Y278847D01*
X158526Y278804D01*
X158559Y278753D01*
X158591Y278691D01*
Y278695D01*
X158595Y278702D01*
X158599Y278713D01*
X158602Y278727D01*
X158617Y278767D01*
X158639Y278818D01*
X158668Y278876D01*
X158704Y278935D01*
X158751Y278989D01*
X158806Y279040D01*
X158813Y279044D01*
X158835Y279059D01*
X158872Y279080D01*
X158919Y279102D01*
X158977Y279124D01*
X159046Y279146D01*
X159126Y279160D01*
X159214Y279164D01*
X159217D01*
X159228D01*
X159247D01*
X159268Y279160D01*
D02*
G37*
G36*
X159177Y277224D02*
X159199Y277217D01*
X159228Y277206D01*
X159261Y277195D01*
X159301Y277180D01*
X159345Y277162D01*
X159392Y277140D01*
X159494Y277089D01*
X159596Y277024D01*
X159647Y276984D01*
X159698Y276944D01*
X159742Y276900D01*
X159785Y276849D01*
X159789Y276845D01*
X159796Y276838D01*
X159803Y276820D01*
X159818Y276802D01*
X159836Y276773D01*
X159854Y276744D01*
X159873Y276704D01*
X159891Y276663D01*
X159913Y276616D01*
X159931Y276565D01*
X159949Y276511D01*
X159967Y276452D01*
X159982Y276390D01*
X159989Y276325D01*
X159996Y276256D01*
X160000Y276183D01*
Y276143D01*
X159996Y276114D01*
Y276081D01*
X159993Y276041D01*
X159985Y275997D01*
X159978Y275946D01*
X159960Y275841D01*
X159931Y275732D01*
X159891Y275622D01*
X159865Y275571D01*
X159836Y275520D01*
X159833Y275517D01*
X159829Y275510D01*
X159818Y275495D01*
X159803Y275480D01*
X159789Y275459D01*
X159767Y275433D01*
X159742Y275404D01*
X159713Y275375D01*
X159680Y275346D01*
X159647Y275313D01*
X159563Y275248D01*
X159465Y275186D01*
X159356Y275131D01*
X159352D01*
X159341Y275124D01*
X159323Y275120D01*
X159301Y275109D01*
X159272Y275102D01*
X159236Y275091D01*
X159196Y275076D01*
X159152Y275065D01*
X159105Y275055D01*
X159050Y275040D01*
X158937Y275022D01*
X158810Y275007D01*
X158679Y275000D01*
X158675D01*
X158660D01*
X158639D01*
X158613Y275004D01*
X158577D01*
X158540Y275007D01*
X158493Y275011D01*
X158446Y275018D01*
X158340Y275036D01*
X158224Y275062D01*
X158107Y275098D01*
X157994Y275149D01*
X157991Y275153D01*
X157980Y275156D01*
X157965Y275164D01*
X157947Y275178D01*
X157922Y275193D01*
X157893Y275211D01*
X157827Y275258D01*
X157754Y275320D01*
X157681Y275393D01*
X157608Y275477D01*
X157547Y275575D01*
X157543Y275579D01*
X157539Y275590D01*
X157532Y275604D01*
X157521Y275622D01*
X157510Y275652D01*
X157499Y275681D01*
X157485Y275717D01*
X157470Y275757D01*
X157456Y275801D01*
X157441Y275848D01*
X157419Y275950D01*
X157401Y276066D01*
X157394Y276187D01*
Y276223D01*
X157397Y276249D01*
X157401Y276281D01*
X157405Y276321D01*
X157408Y276361D01*
X157419Y276409D01*
X157441Y276507D01*
X157474Y276616D01*
X157496Y276671D01*
X157521Y276722D01*
X157554Y276773D01*
X157587Y276824D01*
X157590Y276827D01*
X157594Y276835D01*
X157605Y276849D01*
X157623Y276867D01*
X157641Y276886D01*
X157667Y276911D01*
X157696Y276936D01*
X157725Y276965D01*
X157761Y276995D01*
X157805Y277024D01*
X157849Y277057D01*
X157896Y277086D01*
X157951Y277111D01*
X158005Y277140D01*
X158064Y277162D01*
X158129Y277184D01*
X158205Y276856D01*
X158202D01*
X158195Y276853D01*
X158180Y276845D01*
X158162Y276838D01*
X158140Y276831D01*
X158111Y276820D01*
X158053Y276791D01*
X157987Y276754D01*
X157922Y276711D01*
X157860Y276656D01*
X157805Y276598D01*
X157798Y276591D01*
X157783Y276569D01*
X157765Y276532D01*
X157740Y276485D01*
X157718Y276423D01*
X157696Y276354D01*
X157681Y276270D01*
X157678Y276179D01*
Y276150D01*
X157681Y276132D01*
Y276107D01*
X157685Y276077D01*
X157696Y276008D01*
X157711Y275932D01*
X157736Y275852D01*
X157772Y275768D01*
X157820Y275692D01*
Y275688D01*
X157827Y275684D01*
X157845Y275659D01*
X157874Y275626D01*
X157918Y275586D01*
X157973Y275539D01*
X158034Y275495D01*
X158111Y275455D01*
X158195Y275419D01*
X158198D01*
X158205Y275415D01*
X158216Y275411D01*
X158235Y275408D01*
X158256Y275400D01*
X158282Y275393D01*
X158344Y275382D01*
X158417Y275368D01*
X158497Y275353D01*
X158584Y275346D01*
X158679Y275342D01*
X158682D01*
X158693D01*
X158712D01*
X158733D01*
X158759Y275346D01*
X158792D01*
X158828Y275349D01*
X158868Y275353D01*
X158955Y275364D01*
X159050Y275382D01*
X159145Y275404D01*
X159239Y275433D01*
X159243D01*
X159250Y275437D01*
X159261Y275444D01*
X159279Y275451D01*
X159323Y275473D01*
X159374Y275506D01*
X159432Y275546D01*
X159494Y275597D01*
X159549Y275655D01*
X159600Y275724D01*
Y275728D01*
X159603Y275735D01*
X159610Y275746D01*
X159618Y275761D01*
X159625Y275779D01*
X159636Y275801D01*
X159658Y275852D01*
X159680Y275917D01*
X159698Y275990D01*
X159713Y276070D01*
X159716Y276154D01*
Y276179D01*
X159713Y276201D01*
Y276227D01*
X159709Y276252D01*
X159694Y276318D01*
X159676Y276394D01*
X159647Y276470D01*
X159607Y276551D01*
X159585Y276591D01*
X159556Y276627D01*
X159552Y276631D01*
X159549Y276634D01*
X159538Y276645D01*
X159527Y276660D01*
X159509Y276674D01*
X159487Y276693D01*
X159465Y276714D01*
X159436Y276733D01*
X159403Y276754D01*
X159367Y276780D01*
X159330Y276802D01*
X159287Y276824D01*
X159239Y276842D01*
X159188Y276860D01*
X159134Y276878D01*
X159075Y276893D01*
X159159Y277228D01*
X159163D01*
X159177Y277224D01*
D02*
G37*
G36*
X51387Y296918D02*
X51423D01*
X51460Y296914D01*
X51507Y296910D01*
X51554Y296903D01*
X51660Y296885D01*
X51776Y296859D01*
X51893Y296823D01*
X52006Y296772D01*
X52009Y296768D01*
X52020Y296765D01*
X52035Y296758D01*
X52053Y296743D01*
X52078Y296728D01*
X52108Y296710D01*
X52173Y296663D01*
X52246Y296601D01*
X52319Y296528D01*
X52391Y296445D01*
X52453Y296346D01*
X52457Y296342D01*
X52461Y296332D01*
X52468Y296317D01*
X52479Y296299D01*
X52490Y296270D01*
X52501Y296241D01*
X52515Y296204D01*
X52530Y296164D01*
X52544Y296121D01*
X52559Y296073D01*
X52581Y295971D01*
X52599Y295855D01*
X52606Y295735D01*
Y295698D01*
X52602Y295673D01*
X52599Y295640D01*
X52595Y295600D01*
X52592Y295560D01*
X52581Y295513D01*
X52559Y295414D01*
X52526Y295305D01*
X52504Y295251D01*
X52479Y295200D01*
X52446Y295149D01*
X52413Y295098D01*
X52410Y295094D01*
X52406Y295087D01*
X52395Y295072D01*
X52377Y295054D01*
X52359Y295036D01*
X52333Y295010D01*
X52304Y294985D01*
X52275Y294956D01*
X52239Y294927D01*
X52195Y294897D01*
X52151Y294865D01*
X52104Y294836D01*
X52049Y294810D01*
X51995Y294781D01*
X51936Y294759D01*
X51871Y294737D01*
X51794Y295065D01*
X51798D01*
X51805Y295069D01*
X51820Y295076D01*
X51838Y295083D01*
X51860Y295090D01*
X51889Y295101D01*
X51947Y295130D01*
X52013Y295167D01*
X52078Y295211D01*
X52140Y295265D01*
X52195Y295323D01*
X52202Y295331D01*
X52217Y295352D01*
X52235Y295389D01*
X52260Y295436D01*
X52282Y295498D01*
X52304Y295567D01*
X52319Y295651D01*
X52322Y295742D01*
Y295771D01*
X52319Y295789D01*
Y295815D01*
X52315Y295844D01*
X52304Y295913D01*
X52289Y295989D01*
X52264Y296070D01*
X52228Y296153D01*
X52180Y296230D01*
Y296233D01*
X52173Y296237D01*
X52155Y296262D01*
X52126Y296295D01*
X52082Y296335D01*
X52027Y296383D01*
X51965Y296426D01*
X51889Y296466D01*
X51805Y296503D01*
X51802D01*
X51794Y296506D01*
X51784Y296510D01*
X51765Y296514D01*
X51744Y296521D01*
X51718Y296528D01*
X51656Y296539D01*
X51583Y296554D01*
X51503Y296568D01*
X51416Y296575D01*
X51321Y296579D01*
X51318D01*
X51307D01*
X51288D01*
X51267D01*
X51241Y296575D01*
X51208D01*
X51172Y296572D01*
X51132Y296568D01*
X51045Y296557D01*
X50950Y296539D01*
X50855Y296517D01*
X50761Y296488D01*
X50757D01*
X50750Y296484D01*
X50739Y296477D01*
X50721Y296470D01*
X50677Y296448D01*
X50626Y296415D01*
X50568Y296375D01*
X50506Y296324D01*
X50451Y296266D01*
X50400Y296197D01*
Y296193D01*
X50397Y296186D01*
X50389Y296175D01*
X50382Y296161D01*
X50375Y296142D01*
X50364Y296121D01*
X50342Y296070D01*
X50320Y296004D01*
X50302Y295931D01*
X50287Y295851D01*
X50284Y295767D01*
Y295742D01*
X50287Y295720D01*
Y295695D01*
X50291Y295669D01*
X50306Y295604D01*
X50324Y295527D01*
X50353Y295451D01*
X50393Y295371D01*
X50415Y295331D01*
X50444Y295294D01*
X50448Y295291D01*
X50451Y295287D01*
X50462Y295276D01*
X50473Y295262D01*
X50491Y295247D01*
X50513Y295229D01*
X50535Y295207D01*
X50564Y295189D01*
X50597Y295167D01*
X50633Y295141D01*
X50670Y295120D01*
X50713Y295098D01*
X50761Y295079D01*
X50812Y295061D01*
X50866Y295043D01*
X50924Y295028D01*
X50841Y294694D01*
X50837D01*
X50823Y294697D01*
X50801Y294705D01*
X50772Y294715D01*
X50739Y294726D01*
X50699Y294741D01*
X50655Y294759D01*
X50608Y294781D01*
X50506Y294832D01*
X50404Y294897D01*
X50353Y294937D01*
X50302Y294977D01*
X50258Y295021D01*
X50215Y295072D01*
X50211Y295076D01*
X50204Y295083D01*
X50196Y295101D01*
X50182Y295120D01*
X50164Y295149D01*
X50146Y295178D01*
X50127Y295218D01*
X50109Y295258D01*
X50087Y295305D01*
X50069Y295356D01*
X50051Y295411D01*
X50033Y295469D01*
X50018Y295531D01*
X50011Y295596D01*
X50004Y295666D01*
X50000Y295738D01*
Y295778D01*
X50004Y295808D01*
Y295840D01*
X50007Y295880D01*
X50015Y295924D01*
X50022Y295975D01*
X50040Y296080D01*
X50069Y296190D01*
X50109Y296299D01*
X50135Y296350D01*
X50164Y296401D01*
X50167Y296404D01*
X50171Y296412D01*
X50182Y296426D01*
X50196Y296441D01*
X50211Y296463D01*
X50233Y296488D01*
X50258Y296517D01*
X50287Y296546D01*
X50320Y296575D01*
X50353Y296608D01*
X50437Y296674D01*
X50535Y296736D01*
X50644Y296790D01*
X50648D01*
X50659Y296797D01*
X50677Y296801D01*
X50699Y296812D01*
X50728Y296819D01*
X50764Y296830D01*
X50804Y296845D01*
X50848Y296856D01*
X50895Y296867D01*
X50950Y296881D01*
X51063Y296899D01*
X51190Y296914D01*
X51321Y296921D01*
X51325D01*
X51340D01*
X51361D01*
X51387Y296918D01*
D02*
G37*
G36*
X50808Y294410D02*
X50830D01*
X50855Y294406D01*
X50914Y294399D01*
X50979Y294384D01*
X51045Y294362D01*
X51114Y294330D01*
X51179Y294290D01*
X51183D01*
X51187Y294282D01*
X51205Y294268D01*
X51234Y294239D01*
X51270Y294199D01*
X51307Y294148D01*
X51347Y294086D01*
X51380Y294017D01*
X51405Y293933D01*
Y293936D01*
X51409Y293940D01*
X51412Y293951D01*
X51420Y293966D01*
X51434Y293998D01*
X51456Y294042D01*
X51485Y294089D01*
X51521Y294137D01*
X51561Y294180D01*
X51605Y294220D01*
X51613Y294224D01*
X51627Y294235D01*
X51656Y294250D01*
X51693Y294264D01*
X51740Y294282D01*
X51794Y294297D01*
X51856Y294308D01*
X51922Y294311D01*
X51925D01*
X51933D01*
X51947D01*
X51969Y294308D01*
X51991Y294304D01*
X52020Y294301D01*
X52082Y294286D01*
X52155Y294264D01*
X52231Y294228D01*
X52271Y294206D01*
X52311Y294180D01*
X52348Y294148D01*
X52384Y294115D01*
X52388Y294111D01*
X52391Y294104D01*
X52402Y294093D01*
X52413Y294078D01*
X52428Y294060D01*
X52442Y294035D01*
X52461Y294006D01*
X52479Y293976D01*
X52497Y293940D01*
X52515Y293900D01*
X52530Y293856D01*
X52544Y293809D01*
X52566Y293707D01*
X52570Y293649D01*
X52573Y293591D01*
Y293558D01*
X52570Y293536D01*
X52566Y293507D01*
X52562Y293474D01*
X52559Y293438D01*
X52548Y293401D01*
X52526Y293314D01*
X52493Y293227D01*
X52472Y293183D01*
X52446Y293139D01*
X52413Y293099D01*
X52381Y293059D01*
X52377Y293056D01*
X52373Y293052D01*
X52362Y293041D01*
X52348Y293026D01*
X52326Y293012D01*
X52304Y292994D01*
X52249Y292957D01*
X52180Y292921D01*
X52100Y292888D01*
X52009Y292863D01*
X51962Y292859D01*
X51911Y292855D01*
X51907D01*
X51904D01*
X51882D01*
X51849Y292859D01*
X51809Y292866D01*
X51758Y292877D01*
X51707Y292895D01*
X51656Y292917D01*
X51605Y292950D01*
X51598Y292954D01*
X51583Y292968D01*
X51561Y292990D01*
X51532Y293019D01*
X51500Y293059D01*
X51467Y293107D01*
X51434Y293161D01*
X51405Y293227D01*
Y293223D01*
X51401Y293216D01*
X51398Y293205D01*
X51390Y293190D01*
X51372Y293147D01*
X51347Y293096D01*
X51310Y293041D01*
X51270Y292983D01*
X51219Y292928D01*
X51161Y292877D01*
X51157D01*
X51154Y292874D01*
X51132Y292859D01*
X51096Y292837D01*
X51048Y292815D01*
X50990Y292793D01*
X50921Y292772D01*
X50844Y292757D01*
X50761Y292754D01*
X50757D01*
X50746D01*
X50728D01*
X50706Y292757D01*
X50681Y292761D01*
X50648Y292764D01*
X50612Y292772D01*
X50571Y292783D01*
X50488Y292808D01*
X50440Y292826D01*
X50397Y292852D01*
X50349Y292877D01*
X50306Y292906D01*
X50262Y292943D01*
X50218Y292983D01*
X50215Y292986D01*
X50207Y292994D01*
X50196Y293005D01*
X50186Y293023D01*
X50167Y293048D01*
X50149Y293074D01*
X50131Y293107D01*
X50109Y293143D01*
X50087Y293183D01*
X50069Y293230D01*
X50051Y293281D01*
X50033Y293332D01*
X50022Y293390D01*
X50011Y293452D01*
X50004Y293514D01*
X50000Y293583D01*
Y293620D01*
X50004Y293645D01*
X50007Y293678D01*
X50011Y293714D01*
X50018Y293755D01*
X50029Y293798D01*
X50055Y293897D01*
X50073Y293947D01*
X50091Y293995D01*
X50116Y294046D01*
X50146Y294097D01*
X50178Y294144D01*
X50218Y294188D01*
X50222Y294191D01*
X50229Y294199D01*
X50240Y294210D01*
X50258Y294224D01*
X50280Y294239D01*
X50306Y294260D01*
X50335Y294279D01*
X50371Y294301D01*
X50408Y294322D01*
X50451Y294340D01*
X50542Y294377D01*
X50597Y294391D01*
X50652Y294402D01*
X50710Y294410D01*
X50768Y294413D01*
X50772D01*
X50779D01*
X50793D01*
X50808Y294410D01*
D02*
G37*
G36*
X251562Y63665D02*
X250107D01*
X250103D01*
X250092D01*
X250074D01*
X250052D01*
X250026Y63661D01*
X249994D01*
X249924Y63658D01*
X249844Y63651D01*
X249764Y63640D01*
X249688Y63625D01*
X249655Y63618D01*
X249622Y63607D01*
X249615Y63603D01*
X249597Y63596D01*
X249571Y63578D01*
X249535Y63556D01*
X249499Y63530D01*
X249459Y63494D01*
X249419Y63450D01*
X249386Y63399D01*
X249382Y63392D01*
X249371Y63374D01*
X249360Y63341D01*
X249346Y63297D01*
X249328Y63247D01*
X249317Y63181D01*
X249306Y63112D01*
X249302Y63035D01*
Y62999D01*
X249306Y62977D01*
Y62944D01*
X249309Y62912D01*
X249324Y62832D01*
X249342Y62744D01*
X249371Y62660D01*
X249411Y62580D01*
X249437Y62544D01*
X249466Y62511D01*
X249469Y62508D01*
X249473Y62504D01*
X249484Y62497D01*
X249499Y62486D01*
X249520Y62475D01*
X249542Y62460D01*
X249575Y62446D01*
X249608Y62431D01*
X249648Y62417D01*
X249695Y62406D01*
X249750Y62391D01*
X249808Y62380D01*
X249873Y62369D01*
X249943Y62362D01*
X250023Y62355D01*
X250107D01*
X251562D01*
Y62020D01*
X250107D01*
X250103D01*
X250088D01*
X250070D01*
X250045D01*
X250012Y62024D01*
X249975D01*
X249932Y62027D01*
X249888Y62031D01*
X249790Y62042D01*
X249688Y62056D01*
X249590Y62078D01*
X249542Y62093D01*
X249499Y62107D01*
X249495D01*
X249488Y62111D01*
X249477Y62118D01*
X249462Y62125D01*
X249422Y62147D01*
X249371Y62180D01*
X249313Y62224D01*
X249255Y62275D01*
X249193Y62340D01*
X249138Y62420D01*
Y62424D01*
X249131Y62431D01*
X249127Y62442D01*
X249116Y62460D01*
X249106Y62482D01*
X249095Y62511D01*
X249084Y62540D01*
X249069Y62577D01*
X249055Y62617D01*
X249044Y62660D01*
X249033Y62708D01*
X249022Y62762D01*
X249014Y62817D01*
X249007Y62875D01*
X249000Y63006D01*
Y63039D01*
X249004Y63064D01*
Y63094D01*
X249007Y63130D01*
X249011Y63170D01*
X249014Y63210D01*
X249029Y63301D01*
X249051Y63399D01*
X249080Y63494D01*
X249120Y63585D01*
Y63589D01*
X249127Y63596D01*
X249135Y63607D01*
X249142Y63621D01*
X249171Y63661D01*
X249211Y63709D01*
X249262Y63763D01*
X249320Y63814D01*
X249393Y63865D01*
X249473Y63905D01*
X249477D01*
X249484Y63909D01*
X249499Y63913D01*
X249517Y63920D01*
X249539Y63927D01*
X249568Y63934D01*
X249601Y63945D01*
X249641Y63953D01*
X249684Y63960D01*
X249732Y63971D01*
X249782Y63978D01*
X249837Y63986D01*
X249899Y63993D01*
X249965Y63996D01*
X250034Y64000D01*
X250107D01*
X251562D01*
Y63665D01*
D02*
G37*
G36*
X249750Y61277D02*
X249746D01*
X249739Y61274D01*
X249724Y61270D01*
X249706Y61266D01*
X249684Y61263D01*
X249659Y61256D01*
X249604Y61237D01*
X249539Y61212D01*
X249477Y61179D01*
X249419Y61143D01*
X249368Y61099D01*
X249364Y61092D01*
X249349Y61077D01*
X249331Y61048D01*
X249313Y61012D01*
X249291Y60968D01*
X249273Y60913D01*
X249258Y60851D01*
X249255Y60786D01*
Y60764D01*
X249258Y60750D01*
X249262Y60710D01*
X249273Y60659D01*
X249291Y60600D01*
X249317Y60538D01*
X249353Y60476D01*
X249404Y60418D01*
X249411Y60411D01*
X249433Y60393D01*
X249466Y60371D01*
X249510Y60342D01*
X249564Y60313D01*
X249626Y60291D01*
X249699Y60273D01*
X249779Y60265D01*
X249782D01*
X249790D01*
X249801D01*
X249815Y60269D01*
X249855Y60273D01*
X249903Y60284D01*
X249961Y60298D01*
X250019Y60324D01*
X250077Y60360D01*
X250132Y60407D01*
X250139Y60415D01*
X250154Y60433D01*
X250176Y60462D01*
X250201Y60502D01*
X250227Y60553D01*
X250249Y60615D01*
X250263Y60684D01*
X250270Y60760D01*
Y60793D01*
X250267Y60819D01*
X250263Y60851D01*
X250256Y60888D01*
X250249Y60931D01*
X250238Y60979D01*
X250511Y60942D01*
Y60924D01*
X250507Y60910D01*
Y60862D01*
X250514Y60822D01*
X250521Y60775D01*
X250532Y60720D01*
X250551Y60659D01*
X250576Y60600D01*
X250609Y60538D01*
Y60535D01*
X250612Y60531D01*
X250627Y60513D01*
X250653Y60487D01*
X250685Y60458D01*
X250733Y60429D01*
X250787Y60404D01*
X250849Y60386D01*
X250886Y60378D01*
X250925D01*
X250929D01*
X250933D01*
X250955D01*
X250984Y60386D01*
X251024Y60393D01*
X251067Y60407D01*
X251115Y60426D01*
X251162Y60455D01*
X251206Y60495D01*
X251209Y60498D01*
X251224Y60517D01*
X251242Y60542D01*
X251264Y60575D01*
X251282Y60619D01*
X251300Y60669D01*
X251315Y60728D01*
X251319Y60793D01*
Y60822D01*
X251311Y60855D01*
X251304Y60899D01*
X251290Y60946D01*
X251271Y60993D01*
X251242Y61044D01*
X251206Y61092D01*
X251202Y61095D01*
X251184Y61110D01*
X251158Y61132D01*
X251122Y61157D01*
X251075Y61183D01*
X251016Y61208D01*
X250947Y61230D01*
X250867Y61245D01*
X250922Y61554D01*
X250925D01*
X250936Y61550D01*
X250951Y61547D01*
X250973Y61543D01*
X250998Y61536D01*
X251027Y61525D01*
X251097Y61503D01*
X251177Y61467D01*
X251257Y61423D01*
X251333Y61368D01*
X251402Y61299D01*
X251406Y61295D01*
X251410Y61288D01*
X251417Y61277D01*
X251428Y61263D01*
X251442Y61245D01*
X251457Y61219D01*
X251471Y61194D01*
X251490Y61161D01*
X251519Y61088D01*
X251548Y61004D01*
X251566Y60906D01*
X251573Y60855D01*
Y60764D01*
X251570Y60724D01*
X251562Y60677D01*
X251552Y60619D01*
X251533Y60553D01*
X251512Y60487D01*
X251482Y60422D01*
Y60418D01*
X251479Y60415D01*
X251468Y60393D01*
X251446Y60360D01*
X251421Y60324D01*
X251384Y60280D01*
X251344Y60236D01*
X251297Y60193D01*
X251242Y60156D01*
X251235Y60153D01*
X251217Y60142D01*
X251184Y60127D01*
X251144Y60109D01*
X251097Y60091D01*
X251042Y60076D01*
X250980Y60065D01*
X250918Y60062D01*
X250911D01*
X250889D01*
X250860Y60065D01*
X250820Y60072D01*
X250773Y60083D01*
X250722Y60102D01*
X250671Y60123D01*
X250620Y60153D01*
X250612Y60156D01*
X250598Y60167D01*
X250572Y60189D01*
X250543Y60218D01*
X250511Y60255D01*
X250474Y60298D01*
X250441Y60349D01*
X250409Y60411D01*
Y60407D01*
X250405Y60400D01*
X250401Y60389D01*
X250398Y60375D01*
X250383Y60335D01*
X250361Y60284D01*
X250332Y60225D01*
X250296Y60167D01*
X250249Y60113D01*
X250194Y60062D01*
X250187Y60058D01*
X250165Y60043D01*
X250128Y60022D01*
X250081Y60000D01*
X250023Y59978D01*
X249954Y59956D01*
X249873Y59941D01*
X249786Y59938D01*
X249782D01*
X249772D01*
X249753D01*
X249732Y59941D01*
X249703Y59945D01*
X249670Y59952D01*
X249633Y59960D01*
X249593Y59967D01*
X249506Y59996D01*
X249459Y60018D01*
X249415Y60040D01*
X249368Y60069D01*
X249320Y60102D01*
X249273Y60138D01*
X249229Y60182D01*
X249226Y60185D01*
X249218Y60193D01*
X249207Y60207D01*
X249193Y60225D01*
X249175Y60247D01*
X249156Y60276D01*
X249135Y60309D01*
X249116Y60349D01*
X249095Y60389D01*
X249073Y60436D01*
X249055Y60484D01*
X249036Y60538D01*
X249022Y60597D01*
X249011Y60659D01*
X249004Y60720D01*
X249000Y60790D01*
Y60822D01*
X249004Y60844D01*
X249007Y60873D01*
X249011Y60906D01*
X249018Y60942D01*
X249025Y60983D01*
X249047Y61070D01*
X249084Y61161D01*
X249106Y61208D01*
X249131Y61252D01*
X249164Y61295D01*
X249197Y61339D01*
X249200Y61343D01*
X249207Y61350D01*
X249218Y61361D01*
X249233Y61372D01*
X249251Y61390D01*
X249277Y61408D01*
X249302Y61430D01*
X249335Y61452D01*
X249371Y61474D01*
X249408Y61496D01*
X249495Y61536D01*
X249597Y61568D01*
X249652Y61579D01*
X249710Y61587D01*
X249750Y61277D01*
D02*
G37*
G36*
X255886Y92996D02*
X255919D01*
X255959Y92993D01*
X256003Y92985D01*
X256054Y92978D01*
X256159Y92960D01*
X256268Y92931D01*
X256378Y92891D01*
X256429Y92865D01*
X256480Y92836D01*
X256483Y92833D01*
X256490Y92829D01*
X256505Y92818D01*
X256520Y92804D01*
X256541Y92789D01*
X256567Y92767D01*
X256596Y92742D01*
X256625Y92712D01*
X256654Y92680D01*
X256687Y92647D01*
X256752Y92563D01*
X256814Y92465D01*
X256869Y92356D01*
Y92352D01*
X256876Y92341D01*
X256880Y92323D01*
X256891Y92301D01*
X256898Y92272D01*
X256909Y92236D01*
X256924Y92196D01*
X256934Y92152D01*
X256945Y92105D01*
X256960Y92050D01*
X256978Y91937D01*
X256993Y91810D01*
X257000Y91679D01*
Y91675D01*
Y91660D01*
Y91639D01*
X256996Y91613D01*
Y91577D01*
X256993Y91540D01*
X256989Y91493D01*
X256982Y91446D01*
X256964Y91340D01*
X256938Y91224D01*
X256902Y91107D01*
X256851Y90994D01*
X256847Y90991D01*
X256843Y90980D01*
X256836Y90965D01*
X256822Y90947D01*
X256807Y90922D01*
X256789Y90892D01*
X256742Y90827D01*
X256680Y90754D01*
X256607Y90681D01*
X256523Y90609D01*
X256425Y90547D01*
X256421Y90543D01*
X256410Y90539D01*
X256396Y90532D01*
X256378Y90521D01*
X256348Y90510D01*
X256319Y90499D01*
X256283Y90485D01*
X256243Y90470D01*
X256199Y90456D01*
X256152Y90441D01*
X256050Y90419D01*
X255933Y90401D01*
X255813Y90394D01*
X255777D01*
X255751Y90397D01*
X255719Y90401D01*
X255679Y90405D01*
X255639Y90408D01*
X255591Y90419D01*
X255493Y90441D01*
X255384Y90474D01*
X255329Y90496D01*
X255278Y90521D01*
X255227Y90554D01*
X255176Y90587D01*
X255173Y90590D01*
X255166Y90594D01*
X255151Y90605D01*
X255133Y90623D01*
X255115Y90641D01*
X255089Y90667D01*
X255064Y90696D01*
X255034Y90725D01*
X255005Y90761D01*
X254976Y90805D01*
X254943Y90849D01*
X254914Y90896D01*
X254889Y90951D01*
X254860Y91005D01*
X254838Y91063D01*
X254816Y91129D01*
X255144Y91206D01*
Y91202D01*
X255147Y91195D01*
X255155Y91180D01*
X255162Y91162D01*
X255169Y91140D01*
X255180Y91111D01*
X255209Y91053D01*
X255246Y90987D01*
X255289Y90922D01*
X255344Y90860D01*
X255402Y90805D01*
X255409Y90798D01*
X255431Y90783D01*
X255468Y90765D01*
X255515Y90740D01*
X255577Y90718D01*
X255646Y90696D01*
X255730Y90681D01*
X255821Y90678D01*
X255850D01*
X255868Y90681D01*
X255893D01*
X255923Y90685D01*
X255992Y90696D01*
X256068Y90711D01*
X256148Y90736D01*
X256232Y90772D01*
X256308Y90820D01*
X256312D01*
X256316Y90827D01*
X256341Y90845D01*
X256374Y90874D01*
X256414Y90918D01*
X256461Y90973D01*
X256505Y91034D01*
X256545Y91111D01*
X256581Y91195D01*
Y91198D01*
X256585Y91206D01*
X256589Y91216D01*
X256592Y91235D01*
X256600Y91256D01*
X256607Y91282D01*
X256618Y91344D01*
X256632Y91417D01*
X256647Y91497D01*
X256654Y91584D01*
X256658Y91679D01*
Y91682D01*
Y91693D01*
Y91711D01*
Y91733D01*
X256654Y91759D01*
Y91791D01*
X256651Y91828D01*
X256647Y91868D01*
X256636Y91955D01*
X256618Y92050D01*
X256596Y92145D01*
X256567Y92239D01*
Y92243D01*
X256563Y92250D01*
X256556Y92261D01*
X256549Y92279D01*
X256527Y92323D01*
X256494Y92374D01*
X256454Y92432D01*
X256403Y92494D01*
X256345Y92549D01*
X256276Y92600D01*
X256272D01*
X256265Y92603D01*
X256254Y92611D01*
X256239Y92618D01*
X256221Y92625D01*
X256199Y92636D01*
X256148Y92658D01*
X256083Y92680D01*
X256010Y92698D01*
X255930Y92712D01*
X255846Y92716D01*
X255821D01*
X255799Y92712D01*
X255773D01*
X255748Y92709D01*
X255682Y92694D01*
X255606Y92676D01*
X255529Y92647D01*
X255449Y92607D01*
X255409Y92585D01*
X255373Y92556D01*
X255369Y92552D01*
X255366Y92549D01*
X255355Y92538D01*
X255340Y92527D01*
X255326Y92509D01*
X255307Y92487D01*
X255286Y92465D01*
X255267Y92436D01*
X255246Y92403D01*
X255220Y92367D01*
X255198Y92330D01*
X255176Y92287D01*
X255158Y92239D01*
X255140Y92188D01*
X255122Y92134D01*
X255107Y92076D01*
X254772Y92159D01*
Y92163D01*
X254776Y92177D01*
X254783Y92199D01*
X254794Y92228D01*
X254805Y92261D01*
X254820Y92301D01*
X254838Y92345D01*
X254860Y92392D01*
X254911Y92494D01*
X254976Y92596D01*
X255016Y92647D01*
X255056Y92698D01*
X255100Y92742D01*
X255151Y92785D01*
X255155Y92789D01*
X255162Y92796D01*
X255180Y92804D01*
X255198Y92818D01*
X255227Y92836D01*
X255257Y92854D01*
X255296Y92873D01*
X255336Y92891D01*
X255384Y92913D01*
X255435Y92931D01*
X255489Y92949D01*
X255548Y92967D01*
X255609Y92982D01*
X255675Y92989D01*
X255744Y92996D01*
X255817Y93000D01*
X255857D01*
X255886Y92996D01*
D02*
G37*
G36*
X253498Y92352D02*
X254594D01*
Y92068D01*
X253440Y90438D01*
X253189D01*
Y92068D01*
X252847D01*
Y92352D01*
X253189D01*
Y92956D01*
X253498D01*
Y92352D01*
D02*
G37*
G36*
X243249Y37603D02*
X243281Y37599D01*
X243321Y37595D01*
X243361Y37592D01*
X243409Y37581D01*
X243507Y37559D01*
X243616Y37526D01*
X243671Y37504D01*
X243722Y37479D01*
X243773Y37446D01*
X243824Y37413D01*
X243827Y37410D01*
X243834Y37406D01*
X243849Y37395D01*
X243867Y37377D01*
X243885Y37359D01*
X243911Y37333D01*
X243936Y37304D01*
X243966Y37275D01*
X243995Y37238D01*
X244024Y37195D01*
X244057Y37151D01*
X244086Y37104D01*
X244111Y37049D01*
X244140Y36995D01*
X244162Y36936D01*
X244184Y36871D01*
X243856Y36794D01*
Y36798D01*
X243853Y36805D01*
X243845Y36820D01*
X243838Y36838D01*
X243831Y36860D01*
X243820Y36889D01*
X243791Y36947D01*
X243754Y37013D01*
X243711Y37078D01*
X243656Y37140D01*
X243598Y37195D01*
X243591Y37202D01*
X243569Y37217D01*
X243532Y37235D01*
X243485Y37260D01*
X243423Y37282D01*
X243354Y37304D01*
X243270Y37319D01*
X243179Y37322D01*
X243150D01*
X243132Y37319D01*
X243107D01*
X243077Y37315D01*
X243008Y37304D01*
X242932Y37290D01*
X242852Y37264D01*
X242768Y37228D01*
X242692Y37180D01*
X242688D01*
X242684Y37173D01*
X242659Y37155D01*
X242626Y37126D01*
X242586Y37082D01*
X242539Y37027D01*
X242495Y36966D01*
X242455Y36889D01*
X242419Y36805D01*
Y36802D01*
X242415Y36794D01*
X242411Y36784D01*
X242408Y36765D01*
X242400Y36744D01*
X242393Y36718D01*
X242382Y36656D01*
X242368Y36583D01*
X242353Y36503D01*
X242346Y36416D01*
X242342Y36321D01*
Y36318D01*
Y36307D01*
Y36288D01*
Y36267D01*
X242346Y36241D01*
Y36208D01*
X242349Y36172D01*
X242353Y36132D01*
X242364Y36045D01*
X242382Y35950D01*
X242404Y35855D01*
X242433Y35761D01*
Y35757D01*
X242437Y35750D01*
X242444Y35739D01*
X242451Y35721D01*
X242473Y35677D01*
X242506Y35626D01*
X242546Y35568D01*
X242597Y35506D01*
X242655Y35451D01*
X242724Y35400D01*
X242728D01*
X242735Y35397D01*
X242746Y35389D01*
X242761Y35382D01*
X242779Y35375D01*
X242801Y35364D01*
X242852Y35342D01*
X242917Y35320D01*
X242990Y35302D01*
X243070Y35287D01*
X243154Y35284D01*
X243179D01*
X243201Y35287D01*
X243227D01*
X243252Y35291D01*
X243318Y35306D01*
X243394Y35324D01*
X243471Y35353D01*
X243551Y35393D01*
X243591Y35415D01*
X243627Y35444D01*
X243631Y35448D01*
X243634Y35451D01*
X243645Y35462D01*
X243660Y35473D01*
X243674Y35491D01*
X243692Y35513D01*
X243714Y35535D01*
X243733Y35564D01*
X243754Y35597D01*
X243780Y35633D01*
X243802Y35670D01*
X243824Y35713D01*
X243842Y35761D01*
X243860Y35812D01*
X243878Y35866D01*
X243893Y35925D01*
X244228Y35841D01*
Y35837D01*
X244224Y35823D01*
X244217Y35801D01*
X244206Y35772D01*
X244195Y35739D01*
X244180Y35699D01*
X244162Y35655D01*
X244140Y35608D01*
X244089Y35506D01*
X244024Y35404D01*
X243984Y35353D01*
X243944Y35302D01*
X243900Y35258D01*
X243849Y35215D01*
X243845Y35211D01*
X243838Y35204D01*
X243820Y35197D01*
X243802Y35182D01*
X243773Y35164D01*
X243743Y35146D01*
X243704Y35127D01*
X243663Y35109D01*
X243616Y35087D01*
X243565Y35069D01*
X243511Y35051D01*
X243452Y35033D01*
X243390Y35018D01*
X243325Y35011D01*
X243256Y35004D01*
X243183Y35000D01*
X243143D01*
X243114Y35004D01*
X243081D01*
X243041Y35007D01*
X242997Y35015D01*
X242946Y35022D01*
X242841Y35040D01*
X242732Y35069D01*
X242622Y35109D01*
X242571Y35135D01*
X242520Y35164D01*
X242517Y35167D01*
X242510Y35171D01*
X242495Y35182D01*
X242480Y35197D01*
X242459Y35211D01*
X242433Y35233D01*
X242404Y35258D01*
X242375Y35287D01*
X242346Y35320D01*
X242313Y35353D01*
X242248Y35437D01*
X242186Y35535D01*
X242131Y35644D01*
Y35648D01*
X242124Y35659D01*
X242120Y35677D01*
X242109Y35699D01*
X242102Y35728D01*
X242091Y35764D01*
X242076Y35804D01*
X242066Y35848D01*
X242055Y35895D01*
X242040Y35950D01*
X242022Y36063D01*
X242007Y36190D01*
X242000Y36321D01*
Y36325D01*
Y36340D01*
Y36361D01*
X242004Y36387D01*
Y36423D01*
X242007Y36460D01*
X242011Y36507D01*
X242018Y36554D01*
X242036Y36660D01*
X242062Y36776D01*
X242098Y36893D01*
X242149Y37006D01*
X242153Y37009D01*
X242157Y37020D01*
X242164Y37035D01*
X242178Y37053D01*
X242193Y37078D01*
X242211Y37108D01*
X242258Y37173D01*
X242320Y37246D01*
X242393Y37319D01*
X242477Y37391D01*
X242575Y37453D01*
X242579Y37457D01*
X242590Y37461D01*
X242604Y37468D01*
X242622Y37479D01*
X242652Y37490D01*
X242681Y37501D01*
X242717Y37515D01*
X242757Y37530D01*
X242801Y37544D01*
X242848Y37559D01*
X242950Y37581D01*
X243067Y37599D01*
X243187Y37606D01*
X243223D01*
X243249Y37603D01*
D02*
G37*
G36*
X246062Y37235D02*
X245054D01*
X244919Y36554D01*
X244923Y36558D01*
X244930Y36562D01*
X244941Y36569D01*
X244959Y36580D01*
X244981Y36591D01*
X245007Y36605D01*
X245065Y36634D01*
X245138Y36663D01*
X245218Y36689D01*
X245305Y36707D01*
X245349Y36714D01*
X245429D01*
X245451Y36711D01*
X245480Y36707D01*
X245513Y36704D01*
X245549Y36696D01*
X245589Y36685D01*
X245676Y36660D01*
X245724Y36642D01*
X245771Y36616D01*
X245818Y36591D01*
X245866Y36562D01*
X245909Y36525D01*
X245953Y36485D01*
X245957Y36481D01*
X245964Y36474D01*
X245975Y36463D01*
X245989Y36445D01*
X246008Y36419D01*
X246026Y36394D01*
X246048Y36361D01*
X246070Y36325D01*
X246088Y36285D01*
X246110Y36241D01*
X246128Y36190D01*
X246146Y36139D01*
X246161Y36085D01*
X246171Y36023D01*
X246179Y35961D01*
X246182Y35895D01*
Y35892D01*
Y35881D01*
Y35863D01*
X246179Y35837D01*
X246175Y35808D01*
X246171Y35775D01*
X246164Y35735D01*
X246157Y35695D01*
X246135Y35601D01*
X246099Y35502D01*
X246077Y35451D01*
X246048Y35404D01*
X246019Y35353D01*
X245982Y35306D01*
X245978Y35302D01*
X245971Y35291D01*
X245957Y35277D01*
X245938Y35258D01*
X245913Y35236D01*
X245884Y35207D01*
X245847Y35182D01*
X245807Y35153D01*
X245764Y35124D01*
X245713Y35098D01*
X245658Y35073D01*
X245600Y35047D01*
X245538Y35029D01*
X245469Y35015D01*
X245396Y35004D01*
X245320Y35000D01*
X245287D01*
X245261Y35004D01*
X245232Y35007D01*
X245199Y35011D01*
X245160Y35015D01*
X245119Y35025D01*
X245028Y35047D01*
X244937Y35080D01*
X244890Y35102D01*
X244843Y35127D01*
X244799Y35157D01*
X244755Y35189D01*
X244752Y35193D01*
X244744Y35197D01*
X244737Y35211D01*
X244723Y35226D01*
X244705Y35244D01*
X244686Y35266D01*
X244664Y35295D01*
X244646Y35328D01*
X244624Y35360D01*
X244603Y35400D01*
X244563Y35488D01*
X244530Y35590D01*
X244519Y35644D01*
X244512Y35702D01*
X244835Y35728D01*
Y35724D01*
Y35717D01*
X244839Y35706D01*
X244843Y35688D01*
X244854Y35648D01*
X244868Y35593D01*
X244890Y35539D01*
X244919Y35477D01*
X244956Y35422D01*
X244999Y35371D01*
X245007Y35368D01*
X245021Y35353D01*
X245050Y35335D01*
X245090Y35313D01*
X245134Y35291D01*
X245189Y35273D01*
X245251Y35258D01*
X245320Y35255D01*
X245341D01*
X245356Y35258D01*
X245400Y35262D01*
X245451Y35277D01*
X245513Y35295D01*
X245574Y35324D01*
X245640Y35368D01*
X245669Y35393D01*
X245698Y35422D01*
X245702Y35426D01*
X245706Y35429D01*
X245713Y35440D01*
X245724Y35451D01*
X245749Y35491D01*
X245778Y35542D01*
X245804Y35604D01*
X245829Y35681D01*
X245847Y35772D01*
X245855Y35819D01*
Y35870D01*
Y35874D01*
Y35881D01*
Y35895D01*
X245851Y35914D01*
Y35935D01*
X245847Y35961D01*
X245836Y36019D01*
X245818Y36088D01*
X245793Y36158D01*
X245756Y36223D01*
X245706Y36285D01*
Y36288D01*
X245698Y36292D01*
X245680Y36310D01*
X245647Y36336D01*
X245603Y36365D01*
X245545Y36390D01*
X245480Y36416D01*
X245403Y36434D01*
X245360Y36441D01*
X245290D01*
X245261Y36438D01*
X245225Y36434D01*
X245181Y36423D01*
X245138Y36412D01*
X245090Y36394D01*
X245043Y36372D01*
X245039Y36369D01*
X245025Y36361D01*
X245003Y36343D01*
X244974Y36325D01*
X244945Y36299D01*
X244916Y36267D01*
X244883Y36234D01*
X244857Y36194D01*
X244566Y36234D01*
X244810Y37530D01*
X246062D01*
Y37235D01*
D02*
G37*
G36*
X170563Y57832D02*
X170559Y57802D01*
Y57770D01*
X170555Y57693D01*
X170544Y57613D01*
X170533Y57526D01*
X170515Y57446D01*
X170504Y57406D01*
X170493Y57373D01*
Y57369D01*
X170490Y57366D01*
X170479Y57344D01*
X170464Y57311D01*
X170439Y57271D01*
X170406Y57227D01*
X170362Y57180D01*
X170311Y57136D01*
X170253Y57093D01*
X170249D01*
X170246Y57089D01*
X170224Y57074D01*
X170188Y57060D01*
X170140Y57038D01*
X170086Y57020D01*
X170020Y57002D01*
X169951Y56991D01*
X169875Y56987D01*
X169871D01*
X169864D01*
X169849D01*
X169831Y56991D01*
X169805D01*
X169780Y56994D01*
X169718Y57009D01*
X169645Y57031D01*
X169569Y57060D01*
X169492Y57104D01*
X169456Y57133D01*
X169420Y57162D01*
X169416Y57165D01*
X169412Y57169D01*
X169401Y57180D01*
X169390Y57195D01*
X169376Y57213D01*
X169361Y57235D01*
X169343Y57264D01*
X169321Y57293D01*
X169303Y57329D01*
X169285Y57369D01*
X169263Y57413D01*
X169245Y57460D01*
X169230Y57515D01*
X169212Y57569D01*
X169201Y57631D01*
X169190Y57697D01*
X169187Y57690D01*
X169179Y57675D01*
X169165Y57653D01*
X169150Y57624D01*
X169110Y57559D01*
X169085Y57526D01*
X169063Y57497D01*
X169055Y57489D01*
X169037Y57471D01*
X169008Y57442D01*
X168972Y57406D01*
X168921Y57366D01*
X168866Y57318D01*
X168801Y57271D01*
X168728Y57220D01*
X168044Y56787D01*
Y57202D01*
X168568Y57533D01*
X168571D01*
X168579Y57540D01*
X168590Y57548D01*
X168604Y57559D01*
X168644Y57584D01*
X168695Y57617D01*
X168750Y57657D01*
X168808Y57697D01*
X168863Y57737D01*
X168914Y57773D01*
X168917Y57777D01*
X168932Y57788D01*
X168954Y57806D01*
X168979Y57832D01*
X169034Y57886D01*
X169059Y57915D01*
X169081Y57944D01*
X169085Y57948D01*
X169088Y57955D01*
X169096Y57970D01*
X169106Y57992D01*
X169117Y58014D01*
X169128Y58039D01*
X169147Y58097D01*
Y58101D01*
X169150Y58108D01*
Y58123D01*
X169154Y58141D01*
X169158Y58166D01*
Y58196D01*
X169161Y58236D01*
Y58665D01*
X168044D01*
Y59000D01*
X170563D01*
Y57832D01*
D02*
G37*
G36*
X168750Y56277D02*
X168746D01*
X168739Y56274D01*
X168724Y56270D01*
X168706Y56266D01*
X168684Y56263D01*
X168659Y56256D01*
X168604Y56237D01*
X168539Y56212D01*
X168477Y56179D01*
X168419Y56143D01*
X168368Y56099D01*
X168364Y56092D01*
X168349Y56077D01*
X168331Y56048D01*
X168313Y56012D01*
X168291Y55968D01*
X168273Y55913D01*
X168258Y55851D01*
X168255Y55786D01*
Y55764D01*
X168258Y55749D01*
X168262Y55709D01*
X168273Y55659D01*
X168291Y55600D01*
X168317Y55538D01*
X168353Y55476D01*
X168404Y55418D01*
X168411Y55411D01*
X168433Y55393D01*
X168466Y55371D01*
X168509Y55342D01*
X168564Y55313D01*
X168626Y55291D01*
X168699Y55273D01*
X168779Y55265D01*
X168782D01*
X168790D01*
X168801D01*
X168815Y55269D01*
X168855Y55273D01*
X168903Y55284D01*
X168961Y55298D01*
X169019Y55324D01*
X169077Y55360D01*
X169132Y55407D01*
X169139Y55415D01*
X169154Y55433D01*
X169176Y55462D01*
X169201Y55502D01*
X169227Y55553D01*
X169248Y55615D01*
X169263Y55684D01*
X169270Y55760D01*
Y55793D01*
X169267Y55819D01*
X169263Y55851D01*
X169256Y55888D01*
X169248Y55932D01*
X169238Y55979D01*
X169510Y55942D01*
Y55924D01*
X169507Y55910D01*
Y55862D01*
X169514Y55822D01*
X169521Y55775D01*
X169532Y55720D01*
X169551Y55659D01*
X169576Y55600D01*
X169609Y55538D01*
Y55535D01*
X169613Y55531D01*
X169627Y55513D01*
X169652Y55487D01*
X169685Y55458D01*
X169733Y55429D01*
X169787Y55404D01*
X169849Y55386D01*
X169886Y55378D01*
X169925D01*
X169929D01*
X169933D01*
X169955D01*
X169984Y55386D01*
X170024Y55393D01*
X170068Y55407D01*
X170115Y55426D01*
X170162Y55455D01*
X170206Y55495D01*
X170209Y55498D01*
X170224Y55516D01*
X170242Y55542D01*
X170264Y55575D01*
X170282Y55619D01*
X170300Y55669D01*
X170315Y55728D01*
X170319Y55793D01*
Y55822D01*
X170311Y55855D01*
X170304Y55899D01*
X170290Y55946D01*
X170271Y55993D01*
X170242Y56044D01*
X170206Y56092D01*
X170202Y56095D01*
X170184Y56110D01*
X170159Y56132D01*
X170122Y56157D01*
X170075Y56183D01*
X170017Y56208D01*
X169947Y56230D01*
X169867Y56245D01*
X169922Y56554D01*
X169925D01*
X169936Y56550D01*
X169951Y56547D01*
X169973Y56543D01*
X169998Y56536D01*
X170027Y56525D01*
X170097Y56503D01*
X170177Y56467D01*
X170257Y56423D01*
X170333Y56368D01*
X170402Y56299D01*
X170406Y56296D01*
X170410Y56288D01*
X170417Y56277D01*
X170428Y56263D01*
X170442Y56245D01*
X170457Y56219D01*
X170472Y56194D01*
X170490Y56161D01*
X170519Y56088D01*
X170548Y56004D01*
X170566Y55906D01*
X170573Y55855D01*
Y55764D01*
X170570Y55724D01*
X170563Y55677D01*
X170552Y55619D01*
X170533Y55553D01*
X170512Y55487D01*
X170482Y55422D01*
Y55418D01*
X170479Y55415D01*
X170468Y55393D01*
X170446Y55360D01*
X170421Y55324D01*
X170384Y55280D01*
X170344Y55236D01*
X170297Y55193D01*
X170242Y55156D01*
X170235Y55152D01*
X170217Y55142D01*
X170184Y55127D01*
X170144Y55109D01*
X170097Y55091D01*
X170042Y55076D01*
X169980Y55065D01*
X169918Y55062D01*
X169911D01*
X169889D01*
X169860Y55065D01*
X169820Y55072D01*
X169773Y55083D01*
X169722Y55102D01*
X169671Y55123D01*
X169620Y55152D01*
X169613Y55156D01*
X169598Y55167D01*
X169572Y55189D01*
X169543Y55218D01*
X169510Y55255D01*
X169474Y55298D01*
X169441Y55349D01*
X169409Y55411D01*
Y55407D01*
X169405Y55400D01*
X169401Y55389D01*
X169398Y55375D01*
X169383Y55335D01*
X169361Y55284D01*
X169332Y55225D01*
X169296Y55167D01*
X169248Y55112D01*
X169194Y55062D01*
X169187Y55058D01*
X169165Y55043D01*
X169128Y55022D01*
X169081Y55000D01*
X169023Y54978D01*
X168954Y54956D01*
X168874Y54941D01*
X168786Y54938D01*
X168782D01*
X168772D01*
X168753D01*
X168732Y54941D01*
X168702Y54945D01*
X168670Y54952D01*
X168633Y54960D01*
X168593Y54967D01*
X168506Y54996D01*
X168459Y55018D01*
X168415Y55040D01*
X168368Y55069D01*
X168320Y55102D01*
X168273Y55138D01*
X168229Y55182D01*
X168226Y55185D01*
X168218Y55193D01*
X168207Y55207D01*
X168193Y55225D01*
X168175Y55247D01*
X168157Y55276D01*
X168135Y55309D01*
X168116Y55349D01*
X168095Y55389D01*
X168073Y55436D01*
X168054Y55484D01*
X168036Y55538D01*
X168022Y55597D01*
X168011Y55659D01*
X168004Y55720D01*
X168000Y55790D01*
Y55822D01*
X168004Y55844D01*
X168007Y55873D01*
X168011Y55906D01*
X168018Y55942D01*
X168025Y55983D01*
X168047Y56070D01*
X168084Y56161D01*
X168105Y56208D01*
X168131Y56252D01*
X168164Y56296D01*
X168196Y56339D01*
X168200Y56343D01*
X168207Y56350D01*
X168218Y56361D01*
X168233Y56372D01*
X168251Y56390D01*
X168277Y56408D01*
X168302Y56430D01*
X168335Y56452D01*
X168371Y56474D01*
X168408Y56496D01*
X168495Y56536D01*
X168597Y56568D01*
X168651Y56579D01*
X168710Y56587D01*
X168750Y56277D01*
D02*
G37*
G36*
X250709Y108888D02*
X251051D01*
Y108604D01*
X250709D01*
Y108000D01*
X250400D01*
Y108604D01*
X249304D01*
Y108888D01*
X250458Y110519D01*
X250709D01*
Y108888D01*
D02*
G37*
G36*
X248198Y110515D02*
X248230D01*
X248307Y110512D01*
X248387Y110501D01*
X248474Y110490D01*
X248554Y110471D01*
X248594Y110461D01*
X248627Y110450D01*
X248631D01*
X248634Y110446D01*
X248656Y110435D01*
X248689Y110421D01*
X248729Y110395D01*
X248773Y110362D01*
X248820Y110319D01*
X248864Y110268D01*
X248907Y110209D01*
Y110206D01*
X248911Y110202D01*
X248925Y110180D01*
X248940Y110144D01*
X248962Y110097D01*
X248980Y110042D01*
X248998Y109976D01*
X249009Y109907D01*
X249013Y109831D01*
Y109827D01*
Y109820D01*
Y109805D01*
X249009Y109787D01*
Y109762D01*
X249006Y109736D01*
X248991Y109674D01*
X248969Y109601D01*
X248940Y109525D01*
X248896Y109449D01*
X248867Y109412D01*
X248838Y109376D01*
X248834Y109372D01*
X248831Y109369D01*
X248820Y109358D01*
X248805Y109347D01*
X248787Y109332D01*
X248765Y109318D01*
X248736Y109299D01*
X248707Y109278D01*
X248671Y109259D01*
X248631Y109241D01*
X248587Y109219D01*
X248540Y109201D01*
X248485Y109187D01*
X248430Y109168D01*
X248369Y109158D01*
X248303Y109147D01*
X248310Y109143D01*
X248325Y109136D01*
X248347Y109121D01*
X248376Y109107D01*
X248441Y109066D01*
X248474Y109041D01*
X248503Y109019D01*
X248511Y109012D01*
X248529Y108994D01*
X248558Y108965D01*
X248594Y108928D01*
X248634Y108877D01*
X248682Y108823D01*
X248729Y108757D01*
X248780Y108684D01*
X249213Y108000D01*
X248798D01*
X248467Y108524D01*
Y108528D01*
X248460Y108535D01*
X248452Y108546D01*
X248441Y108561D01*
X248416Y108600D01*
X248383Y108651D01*
X248343Y108706D01*
X248303Y108764D01*
X248263Y108819D01*
X248227Y108870D01*
X248223Y108874D01*
X248212Y108888D01*
X248194Y108910D01*
X248168Y108935D01*
X248114Y108990D01*
X248085Y109016D01*
X248056Y109037D01*
X248052Y109041D01*
X248045Y109045D01*
X248030Y109052D01*
X248008Y109063D01*
X247986Y109074D01*
X247961Y109085D01*
X247903Y109103D01*
X247899D01*
X247892Y109107D01*
X247877D01*
X247859Y109110D01*
X247833Y109114D01*
X247804D01*
X247764Y109117D01*
X247335D01*
Y108000D01*
X247000D01*
Y110519D01*
X248168D01*
X248198Y110515D01*
D02*
G37*
G36*
X238666Y20996D02*
X238695D01*
X238728Y20993D01*
X238764Y20986D01*
X238808Y20975D01*
X238851Y20964D01*
X238902Y20949D01*
X238953Y20931D01*
X239004Y20909D01*
X239059Y20880D01*
X239110Y20847D01*
X239161Y20811D01*
X239212Y20767D01*
X239259Y20716D01*
X239263Y20712D01*
X239270Y20702D01*
X239281Y20687D01*
X239296Y20662D01*
X239317Y20629D01*
X239336Y20592D01*
X239357Y20545D01*
X239379Y20494D01*
X239405Y20432D01*
X239426Y20363D01*
X239445Y20287D01*
X239463Y20203D01*
X239481Y20108D01*
X239492Y20006D01*
X239499Y19897D01*
X239503Y19781D01*
Y19777D01*
Y19773D01*
Y19762D01*
Y19748D01*
X239499Y19712D01*
Y19660D01*
X239496Y19602D01*
X239488Y19533D01*
X239481Y19457D01*
X239470Y19373D01*
X239456Y19289D01*
X239438Y19198D01*
X239416Y19111D01*
X239390Y19024D01*
X239357Y18940D01*
X239321Y18860D01*
X239281Y18783D01*
X239234Y18718D01*
X239230Y18714D01*
X239223Y18707D01*
X239208Y18692D01*
X239190Y18670D01*
X239168Y18649D01*
X239139Y18627D01*
X239103Y18598D01*
X239066Y18572D01*
X239022Y18547D01*
X238975Y18518D01*
X238921Y18496D01*
X238866Y18470D01*
X238804Y18452D01*
X238739Y18438D01*
X238669Y18430D01*
X238597Y18427D01*
X238567D01*
X238546Y18430D01*
X238520D01*
X238491Y18434D01*
X238422Y18448D01*
X238346Y18467D01*
X238265Y18496D01*
X238185Y18539D01*
X238145Y18565D01*
X238109Y18594D01*
X238105Y18598D01*
X238102Y18601D01*
X238091Y18612D01*
X238080Y18623D01*
X238061Y18641D01*
X238047Y18663D01*
X238007Y18714D01*
X237967Y18780D01*
X237930Y18860D01*
X237898Y18951D01*
X237876Y19053D01*
X238185Y19078D01*
Y19074D01*
X238189Y19071D01*
X238193Y19049D01*
X238204Y19016D01*
X238218Y18976D01*
X238233Y18933D01*
X238254Y18889D01*
X238280Y18849D01*
X238305Y18816D01*
X238313Y18809D01*
X238327Y18794D01*
X238353Y18772D01*
X238389Y18747D01*
X238437Y18725D01*
X238487Y18703D01*
X238549Y18689D01*
X238615Y18681D01*
X238640D01*
X238669Y18685D01*
X238702Y18692D01*
X238746Y18703D01*
X238790Y18718D01*
X238833Y18736D01*
X238877Y18765D01*
X238884Y18769D01*
X238902Y18783D01*
X238928Y18809D01*
X238961Y18845D01*
X238997Y18889D01*
X239037Y18940D01*
X239073Y19005D01*
X239110Y19078D01*
Y19082D01*
X239113Y19089D01*
X239117Y19100D01*
X239124Y19115D01*
X239128Y19136D01*
X239135Y19162D01*
X239143Y19191D01*
X239150Y19227D01*
X239161Y19267D01*
X239168Y19311D01*
X239175Y19358D01*
X239179Y19409D01*
X239186Y19468D01*
X239190Y19526D01*
X239194Y19591D01*
Y19657D01*
X239190Y19653D01*
X239175Y19631D01*
X239150Y19602D01*
X239117Y19566D01*
X239081Y19522D01*
X239033Y19482D01*
X238983Y19442D01*
X238924Y19406D01*
X238921D01*
X238917Y19402D01*
X238895Y19391D01*
X238862Y19380D01*
X238819Y19362D01*
X238768Y19347D01*
X238709Y19336D01*
X238648Y19326D01*
X238582Y19322D01*
X238553D01*
X238531Y19326D01*
X238502Y19329D01*
X238473Y19333D01*
X238437Y19340D01*
X238400Y19351D01*
X238316Y19377D01*
X238273Y19395D01*
X238229Y19420D01*
X238185Y19446D01*
X238138Y19475D01*
X238094Y19511D01*
X238054Y19551D01*
X238051Y19555D01*
X238043Y19562D01*
X238032Y19573D01*
X238021Y19591D01*
X238003Y19617D01*
X237985Y19642D01*
X237967Y19675D01*
X237945Y19712D01*
X237923Y19751D01*
X237905Y19795D01*
X237887Y19846D01*
X237869Y19897D01*
X237858Y19952D01*
X237847Y20014D01*
X237840Y20076D01*
X237836Y20141D01*
Y20145D01*
Y20152D01*
Y20163D01*
Y20181D01*
X237840Y20203D01*
Y20225D01*
X237850Y20283D01*
X237861Y20352D01*
X237880Y20425D01*
X237905Y20505D01*
X237941Y20581D01*
Y20585D01*
X237945Y20589D01*
X237952Y20600D01*
X237960Y20614D01*
X237982Y20651D01*
X238014Y20698D01*
X238054Y20749D01*
X238102Y20800D01*
X238160Y20851D01*
X238222Y20895D01*
X238225D01*
X238229Y20898D01*
X238240Y20905D01*
X238254Y20909D01*
X238291Y20927D01*
X238338Y20945D01*
X238400Y20967D01*
X238469Y20982D01*
X238546Y20996D01*
X238629Y21000D01*
X238648D01*
X238666Y20996D01*
D02*
G37*
G36*
X240886D02*
X240919D01*
X240959Y20993D01*
X241003Y20986D01*
X241054Y20978D01*
X241159Y20960D01*
X241268Y20931D01*
X241378Y20891D01*
X241428Y20865D01*
X241479Y20836D01*
X241483Y20833D01*
X241490Y20829D01*
X241505Y20818D01*
X241519Y20804D01*
X241541Y20789D01*
X241567Y20767D01*
X241596Y20742D01*
X241625Y20712D01*
X241654Y20680D01*
X241687Y20647D01*
X241753Y20563D01*
X241814Y20465D01*
X241869Y20356D01*
Y20352D01*
X241876Y20341D01*
X241880Y20323D01*
X241891Y20301D01*
X241898Y20272D01*
X241909Y20236D01*
X241924Y20196D01*
X241934Y20152D01*
X241945Y20105D01*
X241960Y20050D01*
X241978Y19937D01*
X241993Y19810D01*
X242000Y19679D01*
Y19675D01*
Y19660D01*
Y19639D01*
X241996Y19613D01*
Y19577D01*
X241993Y19540D01*
X241989Y19493D01*
X241982Y19446D01*
X241964Y19340D01*
X241938Y19224D01*
X241902Y19107D01*
X241851Y18994D01*
X241847Y18991D01*
X241844Y18980D01*
X241836Y18965D01*
X241822Y18947D01*
X241807Y18922D01*
X241789Y18892D01*
X241742Y18827D01*
X241680Y18754D01*
X241607Y18681D01*
X241523Y18609D01*
X241425Y18547D01*
X241421Y18543D01*
X241410Y18539D01*
X241396Y18532D01*
X241378Y18521D01*
X241349Y18510D01*
X241319Y18499D01*
X241283Y18485D01*
X241243Y18470D01*
X241199Y18456D01*
X241152Y18441D01*
X241050Y18419D01*
X240933Y18401D01*
X240813Y18394D01*
X240777D01*
X240752Y18397D01*
X240719Y18401D01*
X240679Y18405D01*
X240639Y18408D01*
X240591Y18419D01*
X240493Y18441D01*
X240384Y18474D01*
X240329Y18496D01*
X240278Y18521D01*
X240227Y18554D01*
X240176Y18587D01*
X240173Y18590D01*
X240165Y18594D01*
X240151Y18605D01*
X240133Y18623D01*
X240114Y18641D01*
X240089Y18667D01*
X240064Y18696D01*
X240034Y18725D01*
X240005Y18761D01*
X239976Y18805D01*
X239943Y18849D01*
X239914Y18896D01*
X239889Y18951D01*
X239860Y19005D01*
X239838Y19064D01*
X239816Y19129D01*
X240144Y19206D01*
Y19202D01*
X240147Y19195D01*
X240155Y19180D01*
X240162Y19162D01*
X240169Y19140D01*
X240180Y19111D01*
X240209Y19053D01*
X240246Y18987D01*
X240289Y18922D01*
X240344Y18860D01*
X240402Y18805D01*
X240409Y18798D01*
X240431Y18783D01*
X240468Y18765D01*
X240515Y18740D01*
X240577Y18718D01*
X240646Y18696D01*
X240730Y18681D01*
X240821Y18678D01*
X240850D01*
X240868Y18681D01*
X240894D01*
X240923Y18685D01*
X240992Y18696D01*
X241068Y18711D01*
X241148Y18736D01*
X241232Y18772D01*
X241308Y18820D01*
X241312D01*
X241316Y18827D01*
X241341Y18845D01*
X241374Y18874D01*
X241414Y18918D01*
X241461Y18973D01*
X241505Y19034D01*
X241545Y19111D01*
X241581Y19195D01*
Y19198D01*
X241585Y19206D01*
X241589Y19216D01*
X241592Y19235D01*
X241600Y19256D01*
X241607Y19282D01*
X241618Y19344D01*
X241632Y19417D01*
X241647Y19497D01*
X241654Y19584D01*
X241658Y19679D01*
Y19682D01*
Y19693D01*
Y19712D01*
Y19733D01*
X241654Y19759D01*
Y19792D01*
X241651Y19828D01*
X241647Y19868D01*
X241636Y19955D01*
X241618Y20050D01*
X241596Y20145D01*
X241567Y20239D01*
Y20243D01*
X241563Y20250D01*
X241556Y20261D01*
X241549Y20279D01*
X241527Y20323D01*
X241494Y20374D01*
X241454Y20432D01*
X241403Y20494D01*
X241345Y20549D01*
X241276Y20600D01*
X241272D01*
X241265Y20603D01*
X241254Y20611D01*
X241239Y20618D01*
X241221Y20625D01*
X241199Y20636D01*
X241148Y20658D01*
X241083Y20680D01*
X241010Y20698D01*
X240930Y20712D01*
X240846Y20716D01*
X240821D01*
X240799Y20712D01*
X240773D01*
X240748Y20709D01*
X240682Y20694D01*
X240606Y20676D01*
X240529Y20647D01*
X240449Y20607D01*
X240409Y20585D01*
X240373Y20556D01*
X240369Y20552D01*
X240366Y20549D01*
X240355Y20538D01*
X240340Y20527D01*
X240326Y20509D01*
X240307Y20487D01*
X240286Y20465D01*
X240267Y20436D01*
X240246Y20403D01*
X240220Y20367D01*
X240198Y20330D01*
X240176Y20287D01*
X240158Y20239D01*
X240140Y20188D01*
X240122Y20134D01*
X240107Y20076D01*
X239772Y20159D01*
Y20163D01*
X239776Y20177D01*
X239783Y20199D01*
X239794Y20228D01*
X239805Y20261D01*
X239820Y20301D01*
X239838Y20345D01*
X239860Y20392D01*
X239911Y20494D01*
X239976Y20596D01*
X240016Y20647D01*
X240056Y20698D01*
X240100Y20742D01*
X240151Y20785D01*
X240155Y20789D01*
X240162Y20796D01*
X240180Y20804D01*
X240198Y20818D01*
X240227Y20836D01*
X240257Y20854D01*
X240297Y20873D01*
X240336Y20891D01*
X240384Y20913D01*
X240435Y20931D01*
X240489Y20949D01*
X240548Y20967D01*
X240610Y20982D01*
X240675Y20989D01*
X240744Y20996D01*
X240817Y21000D01*
X240857D01*
X240886Y20996D01*
D02*
G37*
G36*
X208956Y73389D02*
X208953D01*
X208938D01*
X208916D01*
X208887Y73393D01*
X208854Y73396D01*
X208818Y73404D01*
X208782Y73411D01*
X208742Y73426D01*
X208738D01*
X208734Y73429D01*
X208713Y73436D01*
X208680Y73451D01*
X208636Y73473D01*
X208585Y73502D01*
X208527Y73538D01*
X208469Y73578D01*
X208407Y73629D01*
X208403D01*
X208399Y73637D01*
X208378Y73655D01*
X208345Y73688D01*
X208297Y73735D01*
X208243Y73790D01*
X208177Y73859D01*
X208105Y73942D01*
X208028Y74033D01*
X208025Y74037D01*
X208014Y74052D01*
X207995Y74073D01*
X207974Y74099D01*
X207944Y74132D01*
X207912Y74172D01*
X207875Y74212D01*
X207835Y74259D01*
X207748Y74350D01*
X207661Y74441D01*
X207617Y74485D01*
X207573Y74525D01*
X207533Y74561D01*
X207493Y74590D01*
X207489D01*
X207486Y74598D01*
X207475Y74605D01*
X207460Y74612D01*
X207420Y74638D01*
X207373Y74667D01*
X207315Y74692D01*
X207253Y74718D01*
X207184Y74732D01*
X207118Y74740D01*
X207115D01*
X207111D01*
X207089Y74736D01*
X207053Y74732D01*
X207013Y74721D01*
X206962Y74707D01*
X206911Y74681D01*
X206860Y74649D01*
X206809Y74605D01*
X206802Y74598D01*
X206787Y74579D01*
X206769Y74554D01*
X206743Y74514D01*
X206721Y74463D01*
X206699Y74405D01*
X206685Y74335D01*
X206681Y74259D01*
Y74237D01*
X206685Y74223D01*
X206689Y74179D01*
X206699Y74128D01*
X206714Y74073D01*
X206740Y74012D01*
X206772Y73953D01*
X206816Y73899D01*
X206823Y73891D01*
X206841Y73877D01*
X206871Y73855D01*
X206914Y73833D01*
X206965Y73808D01*
X207031Y73786D01*
X207104Y73771D01*
X207187Y73764D01*
X207155Y73447D01*
X207151D01*
X207140Y73451D01*
X207122D01*
X207096Y73455D01*
X207067Y73462D01*
X207034Y73469D01*
X206994Y73480D01*
X206954Y73491D01*
X206867Y73520D01*
X206780Y73564D01*
X206736Y73589D01*
X206692Y73622D01*
X206652Y73655D01*
X206616Y73691D01*
X206612Y73695D01*
X206609Y73702D01*
X206598Y73713D01*
X206587Y73731D01*
X206572Y73753D01*
X206558Y73779D01*
X206539Y73808D01*
X206521Y73844D01*
X206503Y73884D01*
X206485Y73928D01*
X206470Y73975D01*
X206456Y74026D01*
X206445Y74081D01*
X206434Y74139D01*
X206430Y74201D01*
X206427Y74266D01*
Y74303D01*
X206430Y74328D01*
X206434Y74357D01*
X206437Y74394D01*
X206445Y74434D01*
X206452Y74474D01*
X206477Y74568D01*
X206514Y74663D01*
X206536Y74711D01*
X206561Y74758D01*
X206594Y74801D01*
X206630Y74841D01*
X206634Y74845D01*
X206638Y74852D01*
X206652Y74860D01*
X206667Y74874D01*
X206685Y74892D01*
X206711Y74911D01*
X206736Y74929D01*
X206769Y74951D01*
X206838Y74987D01*
X206925Y75024D01*
X206969Y75038D01*
X207020Y75045D01*
X207071Y75053D01*
X207125Y75056D01*
X207133D01*
X207151D01*
X207180Y75053D01*
X207220Y75049D01*
X207264Y75042D01*
X207315Y75027D01*
X207369Y75013D01*
X207424Y74991D01*
X207431Y74987D01*
X207449Y74980D01*
X207478Y74965D01*
X207519Y74943D01*
X207562Y74914D01*
X207617Y74878D01*
X207671Y74834D01*
X207733Y74783D01*
X207741Y74776D01*
X207762Y74758D01*
X207781Y74740D01*
X207799Y74721D01*
X207821Y74699D01*
X207850Y74670D01*
X207879Y74641D01*
X207912Y74605D01*
X207948Y74568D01*
X207988Y74525D01*
X208028Y74477D01*
X208075Y74427D01*
X208123Y74368D01*
X208174Y74310D01*
X208177Y74306D01*
X208185Y74299D01*
X208196Y74285D01*
X208210Y74266D01*
X208232Y74244D01*
X208254Y74219D01*
X208301Y74161D01*
X208356Y74099D01*
X208410Y74041D01*
X208458Y73990D01*
X208476Y73968D01*
X208494Y73950D01*
X208498Y73946D01*
X208509Y73935D01*
X208523Y73921D01*
X208545Y73902D01*
X208571Y73884D01*
X208596Y73862D01*
X208658Y73819D01*
Y75060D01*
X208956D01*
Y73389D01*
D02*
G37*
G36*
X208177Y73145D02*
X208199Y73138D01*
X208228Y73127D01*
X208261Y73116D01*
X208301Y73102D01*
X208345Y73083D01*
X208392Y73062D01*
X208494Y73011D01*
X208596Y72945D01*
X208647Y72905D01*
X208698Y72865D01*
X208742Y72821D01*
X208785Y72770D01*
X208789Y72767D01*
X208796Y72759D01*
X208804Y72741D01*
X208818Y72723D01*
X208836Y72694D01*
X208854Y72665D01*
X208873Y72625D01*
X208891Y72585D01*
X208913Y72537D01*
X208931Y72486D01*
X208949Y72432D01*
X208967Y72374D01*
X208982Y72312D01*
X208989Y72246D01*
X208996Y72177D01*
X209000Y72104D01*
Y72064D01*
X208996Y72035D01*
Y72002D01*
X208993Y71962D01*
X208985Y71919D01*
X208978Y71868D01*
X208960Y71762D01*
X208931Y71653D01*
X208891Y71544D01*
X208865Y71493D01*
X208836Y71442D01*
X208833Y71438D01*
X208829Y71431D01*
X208818Y71416D01*
X208804Y71402D01*
X208789Y71380D01*
X208767Y71354D01*
X208742Y71325D01*
X208713Y71296D01*
X208680Y71267D01*
X208647Y71234D01*
X208563Y71169D01*
X208465Y71107D01*
X208356Y71052D01*
X208352D01*
X208341Y71045D01*
X208323Y71041D01*
X208301Y71030D01*
X208272Y71023D01*
X208236Y71012D01*
X208196Y70998D01*
X208152Y70987D01*
X208105Y70976D01*
X208050Y70961D01*
X207937Y70943D01*
X207810Y70929D01*
X207679Y70921D01*
X207675D01*
X207661D01*
X207639D01*
X207613Y70925D01*
X207577D01*
X207540Y70929D01*
X207493Y70932D01*
X207446Y70939D01*
X207340Y70958D01*
X207224Y70983D01*
X207107Y71020D01*
X206994Y71070D01*
X206991Y71074D01*
X206980Y71078D01*
X206965Y71085D01*
X206947Y71100D01*
X206922Y71114D01*
X206892Y71132D01*
X206827Y71180D01*
X206754Y71241D01*
X206681Y71314D01*
X206609Y71398D01*
X206547Y71496D01*
X206543Y71500D01*
X206539Y71511D01*
X206532Y71526D01*
X206521Y71544D01*
X206510Y71573D01*
X206499Y71602D01*
X206485Y71638D01*
X206470Y71678D01*
X206456Y71722D01*
X206441Y71769D01*
X206419Y71871D01*
X206401Y71988D01*
X206394Y72108D01*
Y72144D01*
X206397Y72170D01*
X206401Y72202D01*
X206405Y72242D01*
X206408Y72283D01*
X206419Y72330D01*
X206441Y72428D01*
X206474Y72537D01*
X206496Y72592D01*
X206521Y72643D01*
X206554Y72694D01*
X206587Y72745D01*
X206590Y72749D01*
X206594Y72756D01*
X206605Y72770D01*
X206623Y72789D01*
X206641Y72807D01*
X206667Y72832D01*
X206696Y72858D01*
X206725Y72887D01*
X206761Y72916D01*
X206805Y72945D01*
X206849Y72978D01*
X206896Y73007D01*
X206951Y73032D01*
X207005Y73062D01*
X207064Y73083D01*
X207129Y73105D01*
X207206Y72778D01*
X207202D01*
X207195Y72774D01*
X207180Y72767D01*
X207162Y72759D01*
X207140Y72752D01*
X207111Y72741D01*
X207053Y72712D01*
X206987Y72676D01*
X206922Y72632D01*
X206860Y72577D01*
X206805Y72519D01*
X206798Y72512D01*
X206783Y72490D01*
X206765Y72454D01*
X206740Y72406D01*
X206718Y72344D01*
X206696Y72275D01*
X206681Y72192D01*
X206678Y72101D01*
Y72071D01*
X206681Y72053D01*
Y72028D01*
X206685Y71999D01*
X206696Y71930D01*
X206711Y71853D01*
X206736Y71773D01*
X206772Y71689D01*
X206820Y71613D01*
Y71609D01*
X206827Y71605D01*
X206845Y71580D01*
X206874Y71547D01*
X206918Y71507D01*
X206973Y71460D01*
X207034Y71416D01*
X207111Y71376D01*
X207195Y71340D01*
X207198D01*
X207206Y71336D01*
X207216Y71333D01*
X207235Y71329D01*
X207257Y71322D01*
X207282Y71314D01*
X207344Y71303D01*
X207417Y71289D01*
X207497Y71274D01*
X207584Y71267D01*
X207679Y71263D01*
X207682D01*
X207693D01*
X207712D01*
X207733D01*
X207759Y71267D01*
X207792D01*
X207828Y71271D01*
X207868Y71274D01*
X207955Y71285D01*
X208050Y71303D01*
X208145Y71325D01*
X208239Y71354D01*
X208243D01*
X208250Y71358D01*
X208261Y71365D01*
X208279Y71373D01*
X208323Y71394D01*
X208374Y71427D01*
X208432Y71467D01*
X208494Y71518D01*
X208549Y71576D01*
X208600Y71646D01*
Y71649D01*
X208603Y71657D01*
X208611Y71667D01*
X208618Y71682D01*
X208625Y71700D01*
X208636Y71722D01*
X208658Y71773D01*
X208680Y71838D01*
X208698Y71911D01*
X208713Y71991D01*
X208716Y72075D01*
Y72101D01*
X208713Y72122D01*
Y72148D01*
X208709Y72173D01*
X208694Y72239D01*
X208676Y72315D01*
X208647Y72392D01*
X208607Y72472D01*
X208585Y72512D01*
X208556Y72548D01*
X208552Y72552D01*
X208549Y72556D01*
X208538Y72566D01*
X208527Y72581D01*
X208509Y72596D01*
X208487Y72614D01*
X208465Y72636D01*
X208436Y72654D01*
X208403Y72676D01*
X208367Y72701D01*
X208330Y72723D01*
X208287Y72745D01*
X208239Y72763D01*
X208188Y72781D01*
X208134Y72799D01*
X208075Y72814D01*
X208159Y73149D01*
X208163D01*
X208177Y73145D01*
D02*
G37*
G36*
X182000Y62265D02*
X180031D01*
X180034Y62261D01*
X180049Y62243D01*
X180071Y62221D01*
X180096Y62185D01*
X180129Y62145D01*
X180166Y62094D01*
X180206Y62036D01*
X180246Y61970D01*
Y61967D01*
X180249Y61963D01*
X180264Y61941D01*
X180282Y61905D01*
X180304Y61861D01*
X180329Y61810D01*
X180355Y61755D01*
X180380Y61701D01*
X180402Y61646D01*
X180104D01*
Y61650D01*
X180096Y61657D01*
X180093Y61672D01*
X180082Y61690D01*
X180071Y61712D01*
X180056Y61737D01*
X180020Y61799D01*
X179980Y61872D01*
X179929Y61945D01*
X179871Y62021D01*
X179809Y62098D01*
X179805Y62101D01*
X179801Y62105D01*
X179791Y62116D01*
X179780Y62130D01*
X179743Y62163D01*
X179700Y62207D01*
X179649Y62251D01*
X179590Y62298D01*
X179532Y62338D01*
X179470Y62374D01*
Y62574D01*
X182000D01*
Y62265D01*
D02*
G37*
G36*
Y60798D02*
X181476Y60467D01*
X181472D01*
X181465Y60460D01*
X181454Y60452D01*
X181439Y60441D01*
X181399Y60416D01*
X181349Y60383D01*
X181294Y60343D01*
X181236Y60303D01*
X181181Y60263D01*
X181130Y60227D01*
X181126Y60223D01*
X181112Y60212D01*
X181090Y60194D01*
X181065Y60168D01*
X181010Y60114D01*
X180984Y60085D01*
X180963Y60056D01*
X180959Y60052D01*
X180955Y60045D01*
X180948Y60030D01*
X180937Y60008D01*
X180926Y59986D01*
X180915Y59961D01*
X180897Y59903D01*
Y59899D01*
X180894Y59892D01*
Y59877D01*
X180890Y59859D01*
X180886Y59834D01*
Y59804D01*
X180883Y59764D01*
Y59335D01*
X182000D01*
Y59000D01*
X179481D01*
Y60168D01*
X179485Y60198D01*
Y60230D01*
X179488Y60307D01*
X179499Y60387D01*
X179510Y60474D01*
X179528Y60554D01*
X179539Y60594D01*
X179550Y60627D01*
Y60631D01*
X179554Y60634D01*
X179565Y60656D01*
X179579Y60689D01*
X179605Y60729D01*
X179638Y60773D01*
X179681Y60820D01*
X179732Y60864D01*
X179791Y60907D01*
X179794D01*
X179798Y60911D01*
X179820Y60926D01*
X179856Y60940D01*
X179903Y60962D01*
X179958Y60980D01*
X180024Y60998D01*
X180093Y61009D01*
X180169Y61013D01*
X180173D01*
X180180D01*
X180195D01*
X180213Y61009D01*
X180238D01*
X180264Y61006D01*
X180326Y60991D01*
X180398Y60969D01*
X180475Y60940D01*
X180551Y60896D01*
X180588Y60867D01*
X180624Y60838D01*
X180628Y60834D01*
X180631Y60831D01*
X180642Y60820D01*
X180653Y60805D01*
X180668Y60787D01*
X180682Y60765D01*
X180701Y60736D01*
X180722Y60707D01*
X180741Y60671D01*
X180759Y60631D01*
X180781Y60587D01*
X180799Y60540D01*
X180813Y60485D01*
X180832Y60431D01*
X180842Y60369D01*
X180853Y60303D01*
X180857Y60310D01*
X180864Y60325D01*
X180879Y60347D01*
X180894Y60376D01*
X180933Y60441D01*
X180959Y60474D01*
X180981Y60503D01*
X180988Y60511D01*
X181006Y60529D01*
X181035Y60558D01*
X181072Y60594D01*
X181123Y60634D01*
X181177Y60682D01*
X181243Y60729D01*
X181316Y60780D01*
X182000Y61213D01*
Y60798D01*
D02*
G37*
G36*
X33766Y261062D02*
X33813D01*
X33868Y261059D01*
X33923Y261051D01*
X34046Y261040D01*
X34177Y261022D01*
X34301Y260997D01*
X34363Y260979D01*
X34418Y260960D01*
X34421D01*
X34429Y260957D01*
X34443Y260949D01*
X34465Y260942D01*
X34487Y260931D01*
X34516Y260917D01*
X34578Y260880D01*
X34647Y260837D01*
X34720Y260786D01*
X34789Y260720D01*
X34851Y260647D01*
Y260644D01*
X34858Y260636D01*
X34865Y260625D01*
X34873Y260611D01*
X34884Y260589D01*
X34898Y260567D01*
X34913Y260538D01*
X34924Y260509D01*
X34953Y260440D01*
X34978Y260356D01*
X34993Y260265D01*
X35000Y260163D01*
Y260134D01*
X34996Y260116D01*
Y260090D01*
X34993Y260061D01*
X34978Y259992D01*
X34960Y259916D01*
X34931Y259836D01*
X34891Y259755D01*
X34865Y259715D01*
X34836Y259679D01*
X34833Y259675D01*
X34829Y259672D01*
X34818Y259661D01*
X34807Y259650D01*
X34789Y259635D01*
X34767Y259617D01*
X34716Y259581D01*
X34651Y259544D01*
X34571Y259508D01*
X34479Y259479D01*
X34374Y259457D01*
X34348Y259755D01*
X34352D01*
X34359Y259759D01*
X34367D01*
X34381Y259763D01*
X34421Y259774D01*
X34465Y259788D01*
X34516Y259806D01*
X34567Y259832D01*
X34614Y259861D01*
X34654Y259897D01*
X34658Y259901D01*
X34669Y259916D01*
X34683Y259941D01*
X34698Y259970D01*
X34716Y260010D01*
X34731Y260057D01*
X34742Y260112D01*
X34745Y260170D01*
Y260196D01*
X34742Y260221D01*
X34738Y260254D01*
X34731Y260294D01*
X34720Y260334D01*
X34705Y260378D01*
X34683Y260418D01*
X34680Y260421D01*
X34672Y260436D01*
X34658Y260458D01*
X34636Y260480D01*
X34611Y260509D01*
X34581Y260538D01*
X34549Y260567D01*
X34509Y260596D01*
X34505Y260600D01*
X34487Y260607D01*
X34461Y260622D01*
X34429Y260636D01*
X34385Y260654D01*
X34334Y260673D01*
X34276Y260691D01*
X34210Y260709D01*
X34207D01*
X34203Y260713D01*
X34192D01*
X34177Y260716D01*
X34141Y260724D01*
X34094Y260735D01*
X34035Y260742D01*
X33974Y260749D01*
X33904Y260753D01*
X33832Y260756D01*
X33828D01*
X33817D01*
X33799D01*
X33770D01*
X33777Y260753D01*
X33795Y260738D01*
X33821Y260716D01*
X33857Y260691D01*
X33893Y260654D01*
X33933Y260611D01*
X33974Y260560D01*
X34010Y260502D01*
X34014Y260494D01*
X34025Y260472D01*
X34039Y260440D01*
X34054Y260400D01*
X34072Y260345D01*
X34086Y260287D01*
X34097Y260221D01*
X34101Y260152D01*
Y260123D01*
X34097Y260101D01*
X34094Y260072D01*
X34090Y260043D01*
X34083Y260007D01*
X34072Y259970D01*
X34046Y259887D01*
X34028Y259843D01*
X34006Y259799D01*
X33981Y259752D01*
X33948Y259708D01*
X33915Y259664D01*
X33875Y259624D01*
X33872Y259621D01*
X33864Y259613D01*
X33853Y259606D01*
X33835Y259592D01*
X33810Y259573D01*
X33784Y259555D01*
X33751Y259537D01*
X33715Y259519D01*
X33675Y259497D01*
X33631Y259479D01*
X33580Y259461D01*
X33529Y259442D01*
X33471Y259428D01*
X33409Y259421D01*
X33347Y259413D01*
X33278Y259410D01*
X33275D01*
X33260D01*
X33242D01*
X33216Y259413D01*
X33184Y259417D01*
X33144Y259421D01*
X33104Y259428D01*
X33056Y259439D01*
X32962Y259464D01*
X32911Y259482D01*
X32856Y259504D01*
X32805Y259530D01*
X32758Y259562D01*
X32707Y259595D01*
X32663Y259635D01*
X32660Y259639D01*
X32652Y259646D01*
X32641Y259657D01*
X32627Y259675D01*
X32609Y259697D01*
X32587Y259726D01*
X32568Y259755D01*
X32543Y259792D01*
X32521Y259828D01*
X32503Y259872D01*
X32463Y259970D01*
X32448Y260021D01*
X32438Y260079D01*
X32430Y260138D01*
X32427Y260199D01*
Y260225D01*
X32430Y260243D01*
Y260261D01*
X32434Y260287D01*
X32445Y260349D01*
X32459Y260418D01*
X32485Y260494D01*
X32517Y260571D01*
X32561Y260647D01*
Y260651D01*
X32568Y260654D01*
X32576Y260665D01*
X32587Y260680D01*
X32616Y260716D01*
X32656Y260764D01*
X32710Y260811D01*
X32776Y260866D01*
X32852Y260913D01*
X32940Y260957D01*
X32943D01*
X32951Y260960D01*
X32965Y260967D01*
X32983Y260975D01*
X33009Y260982D01*
X33042Y260993D01*
X33078Y261000D01*
X33118Y261011D01*
X33165Y261022D01*
X33220Y261033D01*
X33278Y261040D01*
X33340Y261048D01*
X33409Y261055D01*
X33482Y261062D01*
X33562Y261066D01*
X33646D01*
X33650D01*
X33668D01*
X33693D01*
X33726D01*
X33766Y261062D01*
D02*
G37*
G36*
X34956Y258798D02*
X34432Y258467D01*
X34429D01*
X34421Y258460D01*
X34410Y258452D01*
X34396Y258441D01*
X34356Y258416D01*
X34305Y258383D01*
X34250Y258343D01*
X34192Y258303D01*
X34137Y258263D01*
X34086Y258227D01*
X34083Y258223D01*
X34068Y258212D01*
X34046Y258194D01*
X34021Y258168D01*
X33966Y258114D01*
X33941Y258085D01*
X33919Y258055D01*
X33915Y258052D01*
X33912Y258045D01*
X33904Y258030D01*
X33893Y258008D01*
X33882Y257986D01*
X33872Y257961D01*
X33853Y257903D01*
Y257899D01*
X33850Y257892D01*
Y257877D01*
X33846Y257859D01*
X33843Y257834D01*
Y257804D01*
X33839Y257764D01*
Y257335D01*
X34956D01*
Y257000D01*
X32438D01*
Y258168D01*
X32441Y258197D01*
Y258230D01*
X32445Y258307D01*
X32456Y258387D01*
X32467Y258474D01*
X32485Y258554D01*
X32496Y258594D01*
X32507Y258627D01*
Y258631D01*
X32510Y258634D01*
X32521Y258656D01*
X32536Y258689D01*
X32561Y258729D01*
X32594Y258773D01*
X32638Y258820D01*
X32689Y258864D01*
X32747Y258907D01*
X32750D01*
X32754Y258911D01*
X32776Y258926D01*
X32812Y258940D01*
X32860Y258962D01*
X32914Y258980D01*
X32980Y258998D01*
X33049Y259009D01*
X33125Y259013D01*
X33129D01*
X33136D01*
X33151D01*
X33169Y259009D01*
X33195D01*
X33220Y259006D01*
X33282Y258991D01*
X33355Y258969D01*
X33431Y258940D01*
X33508Y258896D01*
X33544Y258867D01*
X33580Y258838D01*
X33584Y258835D01*
X33588Y258831D01*
X33599Y258820D01*
X33610Y258805D01*
X33624Y258787D01*
X33639Y258765D01*
X33657Y258736D01*
X33679Y258707D01*
X33697Y258671D01*
X33715Y258631D01*
X33737Y258587D01*
X33755Y258540D01*
X33770Y258485D01*
X33788Y258431D01*
X33799Y258369D01*
X33810Y258303D01*
X33813Y258310D01*
X33821Y258325D01*
X33835Y258347D01*
X33850Y258376D01*
X33890Y258441D01*
X33915Y258474D01*
X33937Y258503D01*
X33944Y258511D01*
X33963Y258529D01*
X33992Y258558D01*
X34028Y258594D01*
X34079Y258634D01*
X34134Y258682D01*
X34199Y258729D01*
X34272Y258780D01*
X34956Y259213D01*
Y258798D01*
D02*
G37*
G36*
X61248Y234603D02*
X61281Y234599D01*
X61321Y234595D01*
X61361Y234592D01*
X61409Y234581D01*
X61507Y234559D01*
X61616Y234526D01*
X61671Y234504D01*
X61722Y234479D01*
X61773Y234446D01*
X61824Y234413D01*
X61827Y234410D01*
X61835Y234406D01*
X61849Y234395D01*
X61867Y234377D01*
X61885Y234359D01*
X61911Y234333D01*
X61936Y234304D01*
X61966Y234275D01*
X61995Y234239D01*
X62024Y234195D01*
X62057Y234151D01*
X62086Y234104D01*
X62111Y234049D01*
X62140Y233995D01*
X62162Y233936D01*
X62184Y233871D01*
X61856Y233794D01*
Y233798D01*
X61853Y233805D01*
X61845Y233820D01*
X61838Y233838D01*
X61831Y233860D01*
X61820Y233889D01*
X61791Y233947D01*
X61754Y234013D01*
X61711Y234078D01*
X61656Y234140D01*
X61598Y234195D01*
X61591Y234202D01*
X61569Y234217D01*
X61532Y234235D01*
X61485Y234260D01*
X61423Y234282D01*
X61354Y234304D01*
X61270Y234319D01*
X61179Y234322D01*
X61150D01*
X61132Y234319D01*
X61106D01*
X61077Y234315D01*
X61008Y234304D01*
X60932Y234290D01*
X60852Y234264D01*
X60768Y234228D01*
X60691Y234180D01*
X60688D01*
X60684Y234173D01*
X60659Y234155D01*
X60626Y234126D01*
X60586Y234082D01*
X60539Y234027D01*
X60495Y233965D01*
X60455Y233889D01*
X60419Y233805D01*
Y233802D01*
X60415Y233794D01*
X60411Y233784D01*
X60408Y233765D01*
X60400Y233744D01*
X60393Y233718D01*
X60382Y233656D01*
X60368Y233583D01*
X60353Y233503D01*
X60346Y233416D01*
X60342Y233321D01*
Y233318D01*
Y233307D01*
Y233289D01*
Y233267D01*
X60346Y233241D01*
Y233208D01*
X60349Y233172D01*
X60353Y233132D01*
X60364Y233045D01*
X60382Y232950D01*
X60404Y232855D01*
X60433Y232761D01*
Y232757D01*
X60437Y232750D01*
X60444Y232739D01*
X60451Y232721D01*
X60473Y232677D01*
X60506Y232626D01*
X60546Y232568D01*
X60597Y232506D01*
X60655Y232451D01*
X60724Y232400D01*
X60728D01*
X60735Y232397D01*
X60746Y232389D01*
X60761Y232382D01*
X60779Y232375D01*
X60801Y232364D01*
X60852Y232342D01*
X60917Y232320D01*
X60990Y232302D01*
X61070Y232288D01*
X61154Y232284D01*
X61179D01*
X61201Y232288D01*
X61227D01*
X61252Y232291D01*
X61318Y232306D01*
X61394Y232324D01*
X61471Y232353D01*
X61551Y232393D01*
X61591Y232415D01*
X61627Y232444D01*
X61631Y232448D01*
X61634Y232451D01*
X61645Y232462D01*
X61660Y232473D01*
X61674Y232491D01*
X61693Y232513D01*
X61714Y232535D01*
X61733Y232564D01*
X61754Y232597D01*
X61780Y232633D01*
X61802Y232670D01*
X61824Y232713D01*
X61842Y232761D01*
X61860Y232812D01*
X61878Y232866D01*
X61893Y232925D01*
X62228Y232841D01*
Y232837D01*
X62224Y232823D01*
X62217Y232801D01*
X62206Y232772D01*
X62195Y232739D01*
X62180Y232699D01*
X62162Y232655D01*
X62140Y232608D01*
X62089Y232506D01*
X62024Y232404D01*
X61984Y232353D01*
X61944Y232302D01*
X61900Y232258D01*
X61849Y232215D01*
X61845Y232211D01*
X61838Y232204D01*
X61820Y232196D01*
X61802Y232182D01*
X61773Y232164D01*
X61743Y232146D01*
X61703Y232127D01*
X61663Y232109D01*
X61616Y232087D01*
X61565Y232069D01*
X61511Y232051D01*
X61452Y232033D01*
X61390Y232018D01*
X61325Y232011D01*
X61256Y232004D01*
X61183Y232000D01*
X61143D01*
X61114Y232004D01*
X61081D01*
X61041Y232007D01*
X60997Y232014D01*
X60946Y232022D01*
X60841Y232040D01*
X60732Y232069D01*
X60622Y232109D01*
X60571Y232135D01*
X60520Y232164D01*
X60517Y232167D01*
X60510Y232171D01*
X60495Y232182D01*
X60480Y232196D01*
X60459Y232211D01*
X60433Y232233D01*
X60404Y232258D01*
X60375Y232288D01*
X60346Y232320D01*
X60313Y232353D01*
X60247Y232437D01*
X60186Y232535D01*
X60131Y232644D01*
Y232648D01*
X60124Y232659D01*
X60120Y232677D01*
X60109Y232699D01*
X60102Y232728D01*
X60091Y232764D01*
X60076Y232804D01*
X60066Y232848D01*
X60054Y232895D01*
X60040Y232950D01*
X60022Y233063D01*
X60007Y233190D01*
X60000Y233321D01*
Y233325D01*
Y233340D01*
Y233361D01*
X60004Y233387D01*
Y233423D01*
X60007Y233460D01*
X60011Y233507D01*
X60018Y233554D01*
X60036Y233660D01*
X60062Y233776D01*
X60098Y233893D01*
X60149Y234006D01*
X60153Y234009D01*
X60157Y234020D01*
X60164Y234035D01*
X60178Y234053D01*
X60193Y234078D01*
X60211Y234107D01*
X60258Y234173D01*
X60320Y234246D01*
X60393Y234319D01*
X60477Y234391D01*
X60575Y234453D01*
X60579Y234457D01*
X60590Y234461D01*
X60604Y234468D01*
X60622Y234479D01*
X60651Y234490D01*
X60681Y234501D01*
X60717Y234515D01*
X60757Y234530D01*
X60801Y234544D01*
X60848Y234559D01*
X60950Y234581D01*
X61067Y234599D01*
X61187Y234606D01*
X61223D01*
X61248Y234603D01*
D02*
G37*
G36*
X65365Y234570D02*
X65394Y234566D01*
X65431Y234562D01*
X65471Y234555D01*
X65511Y234548D01*
X65606Y234523D01*
X65700Y234486D01*
X65747Y234464D01*
X65795Y234439D01*
X65838Y234406D01*
X65878Y234370D01*
X65882Y234366D01*
X65890Y234362D01*
X65897Y234348D01*
X65911Y234333D01*
X65930Y234315D01*
X65948Y234290D01*
X65966Y234264D01*
X65988Y234231D01*
X66024Y234162D01*
X66061Y234075D01*
X66075Y234031D01*
X66082Y233980D01*
X66090Y233929D01*
X66093Y233875D01*
Y233867D01*
Y233849D01*
X66090Y233820D01*
X66086Y233780D01*
X66079Y233736D01*
X66064Y233685D01*
X66050Y233631D01*
X66028Y233576D01*
X66024Y233569D01*
X66017Y233551D01*
X66002Y233522D01*
X65980Y233481D01*
X65951Y233438D01*
X65915Y233383D01*
X65871Y233329D01*
X65820Y233267D01*
X65813Y233259D01*
X65795Y233238D01*
X65777Y233219D01*
X65758Y233201D01*
X65737Y233179D01*
X65707Y233150D01*
X65678Y233121D01*
X65642Y233088D01*
X65606Y233052D01*
X65562Y233012D01*
X65514Y232972D01*
X65464Y232925D01*
X65405Y232877D01*
X65347Y232826D01*
X65343Y232823D01*
X65336Y232815D01*
X65322Y232804D01*
X65303Y232790D01*
X65282Y232768D01*
X65256Y232746D01*
X65198Y232699D01*
X65136Y232644D01*
X65078Y232590D01*
X65027Y232542D01*
X65005Y232524D01*
X64987Y232506D01*
X64983Y232502D01*
X64972Y232491D01*
X64958Y232477D01*
X64939Y232455D01*
X64921Y232430D01*
X64899Y232404D01*
X64856Y232342D01*
X66097D01*
Y232044D01*
X64426D01*
Y232047D01*
Y232062D01*
Y232084D01*
X64430Y232113D01*
X64433Y232146D01*
X64441Y232182D01*
X64448Y232218D01*
X64463Y232258D01*
Y232262D01*
X64466Y232266D01*
X64473Y232288D01*
X64488Y232320D01*
X64510Y232364D01*
X64539Y232415D01*
X64575Y232473D01*
X64615Y232531D01*
X64666Y232593D01*
Y232597D01*
X64674Y232601D01*
X64692Y232622D01*
X64725Y232655D01*
X64772Y232702D01*
X64827Y232757D01*
X64896Y232823D01*
X64979Y232895D01*
X65070Y232972D01*
X65074Y232976D01*
X65089Y232986D01*
X65110Y233005D01*
X65136Y233026D01*
X65169Y233055D01*
X65209Y233088D01*
X65249Y233125D01*
X65296Y233165D01*
X65387Y233252D01*
X65478Y233340D01*
X65522Y233383D01*
X65562Y233427D01*
X65598Y233467D01*
X65627Y233507D01*
Y233511D01*
X65635Y233514D01*
X65642Y233525D01*
X65649Y233540D01*
X65675Y233580D01*
X65704Y233627D01*
X65729Y233685D01*
X65755Y233747D01*
X65769Y233816D01*
X65777Y233882D01*
Y233886D01*
Y233889D01*
X65773Y233911D01*
X65769Y233947D01*
X65758Y233987D01*
X65744Y234038D01*
X65718Y234089D01*
X65686Y234140D01*
X65642Y234191D01*
X65635Y234198D01*
X65617Y234213D01*
X65591Y234231D01*
X65551Y234257D01*
X65500Y234279D01*
X65442Y234300D01*
X65373Y234315D01*
X65296Y234319D01*
X65274D01*
X65260Y234315D01*
X65216Y234311D01*
X65165Y234300D01*
X65110Y234286D01*
X65049Y234260D01*
X64990Y234228D01*
X64936Y234184D01*
X64929Y234177D01*
X64914Y234158D01*
X64892Y234129D01*
X64870Y234086D01*
X64845Y234035D01*
X64823Y233969D01*
X64808Y233896D01*
X64801Y233813D01*
X64484Y233845D01*
Y233849D01*
X64488Y233860D01*
Y233878D01*
X64492Y233904D01*
X64499Y233933D01*
X64506Y233965D01*
X64517Y234006D01*
X64528Y234046D01*
X64557Y234133D01*
X64601Y234220D01*
X64626Y234264D01*
X64659Y234308D01*
X64692Y234348D01*
X64728Y234384D01*
X64732Y234388D01*
X64739Y234391D01*
X64750Y234402D01*
X64768Y234413D01*
X64790Y234428D01*
X64816Y234442D01*
X64845Y234461D01*
X64881Y234479D01*
X64921Y234497D01*
X64965Y234515D01*
X65012Y234530D01*
X65063Y234544D01*
X65118Y234555D01*
X65176Y234566D01*
X65238Y234570D01*
X65303Y234573D01*
X65340D01*
X65365Y234570D01*
D02*
G37*
G36*
X63676Y232044D02*
X63367D01*
Y234013D01*
X63363Y234009D01*
X63345Y233995D01*
X63323Y233973D01*
X63287Y233947D01*
X63247Y233915D01*
X63196Y233878D01*
X63138Y233838D01*
X63072Y233798D01*
X63068D01*
X63065Y233794D01*
X63043Y233780D01*
X63007Y233762D01*
X62963Y233740D01*
X62912Y233714D01*
X62857Y233689D01*
X62803Y233663D01*
X62748Y233642D01*
Y233940D01*
X62752D01*
X62759Y233947D01*
X62774Y233951D01*
X62792Y233962D01*
X62814Y233973D01*
X62839Y233987D01*
X62901Y234024D01*
X62974Y234064D01*
X63047Y234115D01*
X63123Y234173D01*
X63200Y234235D01*
X63203Y234239D01*
X63207Y234242D01*
X63218Y234253D01*
X63232Y234264D01*
X63265Y234300D01*
X63309Y234344D01*
X63352Y234395D01*
X63400Y234453D01*
X63440Y234511D01*
X63476Y234573D01*
X63676D01*
Y232044D01*
D02*
G37*
G36*
X64163Y266077D02*
X64192Y266073D01*
X64225Y266070D01*
X64265Y266062D01*
X64305Y266055D01*
X64399Y266033D01*
X64498Y265997D01*
X64549Y265975D01*
X64596Y265946D01*
X64647Y265917D01*
X64694Y265880D01*
X64698Y265877D01*
X64709Y265869D01*
X64723Y265855D01*
X64742Y265837D01*
X64763Y265811D01*
X64793Y265782D01*
X64818Y265745D01*
X64847Y265705D01*
X64876Y265662D01*
X64902Y265611D01*
X64927Y265556D01*
X64953Y265498D01*
X64971Y265436D01*
X64986Y265367D01*
X64996Y265294D01*
X65000Y265218D01*
Y265185D01*
X64996Y265160D01*
X64993Y265130D01*
X64989Y265098D01*
X64986Y265057D01*
X64974Y265018D01*
X64953Y264927D01*
X64920Y264836D01*
X64898Y264788D01*
X64873Y264741D01*
X64843Y264697D01*
X64811Y264653D01*
X64807Y264650D01*
X64803Y264643D01*
X64789Y264635D01*
X64774Y264621D01*
X64756Y264603D01*
X64734Y264584D01*
X64705Y264563D01*
X64672Y264544D01*
X64640Y264523D01*
X64600Y264501D01*
X64512Y264461D01*
X64410Y264428D01*
X64356Y264417D01*
X64297Y264410D01*
X64272Y264734D01*
X64276D01*
X64283D01*
X64294Y264737D01*
X64312Y264741D01*
X64352Y264752D01*
X64407Y264766D01*
X64461Y264788D01*
X64523Y264817D01*
X64578Y264854D01*
X64629Y264897D01*
X64632Y264905D01*
X64647Y264919D01*
X64665Y264948D01*
X64687Y264988D01*
X64709Y265032D01*
X64727Y265087D01*
X64742Y265148D01*
X64745Y265218D01*
Y265240D01*
X64742Y265254D01*
X64738Y265298D01*
X64723Y265349D01*
X64705Y265411D01*
X64676Y265473D01*
X64632Y265538D01*
X64607Y265567D01*
X64578Y265596D01*
X64574Y265600D01*
X64570Y265603D01*
X64560Y265611D01*
X64549Y265622D01*
X64509Y265647D01*
X64458Y265676D01*
X64396Y265702D01*
X64319Y265727D01*
X64228Y265745D01*
X64181Y265753D01*
X64130D01*
X64126D01*
X64119D01*
X64105D01*
X64086Y265749D01*
X64065D01*
X64039Y265745D01*
X63981Y265735D01*
X63912Y265716D01*
X63842Y265691D01*
X63777Y265654D01*
X63715Y265603D01*
X63712D01*
X63708Y265596D01*
X63690Y265578D01*
X63664Y265545D01*
X63635Y265502D01*
X63610Y265443D01*
X63584Y265378D01*
X63566Y265301D01*
X63559Y265258D01*
Y265189D01*
X63562Y265160D01*
X63566Y265123D01*
X63577Y265079D01*
X63588Y265036D01*
X63606Y264988D01*
X63628Y264941D01*
X63631Y264937D01*
X63639Y264923D01*
X63657Y264901D01*
X63675Y264872D01*
X63700Y264843D01*
X63733Y264814D01*
X63766Y264781D01*
X63806Y264755D01*
X63766Y264464D01*
X62470Y264708D01*
Y265960D01*
X62765D01*
Y264952D01*
X63446Y264817D01*
X63442Y264821D01*
X63438Y264828D01*
X63431Y264839D01*
X63420Y264857D01*
X63409Y264879D01*
X63395Y264905D01*
X63366Y264963D01*
X63336Y265036D01*
X63311Y265116D01*
X63293Y265203D01*
X63286Y265247D01*
Y265327D01*
X63289Y265349D01*
X63293Y265378D01*
X63297Y265411D01*
X63304Y265447D01*
X63315Y265487D01*
X63340Y265574D01*
X63358Y265622D01*
X63384Y265669D01*
X63409Y265716D01*
X63438Y265764D01*
X63475Y265807D01*
X63515Y265851D01*
X63519Y265855D01*
X63526Y265862D01*
X63537Y265873D01*
X63555Y265887D01*
X63580Y265906D01*
X63606Y265924D01*
X63639Y265946D01*
X63675Y265967D01*
X63715Y265986D01*
X63759Y266008D01*
X63810Y266026D01*
X63861Y266044D01*
X63915Y266059D01*
X63977Y266070D01*
X64039Y266077D01*
X64105Y266080D01*
X64108D01*
X64119D01*
X64137D01*
X64163Y266077D01*
D02*
G37*
G36*
X63988Y263977D02*
X64025D01*
X64068Y263973D01*
X64112Y263969D01*
X64210Y263958D01*
X64312Y263944D01*
X64410Y263922D01*
X64458Y263907D01*
X64501Y263893D01*
X64505D01*
X64512Y263889D01*
X64523Y263882D01*
X64538Y263875D01*
X64578Y263853D01*
X64629Y263820D01*
X64687Y263776D01*
X64745Y263725D01*
X64807Y263660D01*
X64862Y263580D01*
Y263576D01*
X64869Y263569D01*
X64873Y263558D01*
X64884Y263540D01*
X64894Y263518D01*
X64905Y263489D01*
X64916Y263460D01*
X64931Y263423D01*
X64945Y263383D01*
X64956Y263339D01*
X64967Y263292D01*
X64978Y263238D01*
X64986Y263183D01*
X64993Y263125D01*
X65000Y262994D01*
Y262961D01*
X64996Y262935D01*
Y262906D01*
X64993Y262870D01*
X64989Y262830D01*
X64986Y262790D01*
X64971Y262699D01*
X64949Y262601D01*
X64920Y262506D01*
X64880Y262415D01*
Y262411D01*
X64873Y262404D01*
X64865Y262393D01*
X64858Y262379D01*
X64829Y262338D01*
X64789Y262291D01*
X64738Y262236D01*
X64680Y262186D01*
X64607Y262135D01*
X64527Y262095D01*
X64523D01*
X64516Y262091D01*
X64501Y262087D01*
X64483Y262080D01*
X64461Y262073D01*
X64432Y262066D01*
X64399Y262055D01*
X64359Y262047D01*
X64316Y262040D01*
X64268Y262029D01*
X64217Y262022D01*
X64163Y262015D01*
X64101Y262007D01*
X64035Y262004D01*
X63966Y262000D01*
X63894D01*
X62437D01*
Y262335D01*
X63894D01*
X63897D01*
X63908D01*
X63926D01*
X63948D01*
X63974Y262338D01*
X64006D01*
X64075Y262342D01*
X64156Y262349D01*
X64236Y262360D01*
X64312Y262375D01*
X64345Y262382D01*
X64378Y262393D01*
X64385Y262397D01*
X64403Y262404D01*
X64429Y262422D01*
X64465Y262444D01*
X64501Y262470D01*
X64541Y262506D01*
X64581Y262550D01*
X64614Y262601D01*
X64618Y262608D01*
X64629Y262626D01*
X64640Y262659D01*
X64654Y262702D01*
X64672Y262753D01*
X64683Y262819D01*
X64694Y262888D01*
X64698Y262965D01*
Y263001D01*
X64694Y263023D01*
Y263055D01*
X64691Y263088D01*
X64676Y263168D01*
X64658Y263256D01*
X64629Y263339D01*
X64589Y263420D01*
X64563Y263456D01*
X64534Y263489D01*
X64530Y263492D01*
X64527Y263496D01*
X64516Y263503D01*
X64501Y263514D01*
X64480Y263525D01*
X64458Y263540D01*
X64425Y263554D01*
X64392Y263569D01*
X64352Y263583D01*
X64305Y263594D01*
X64250Y263609D01*
X64192Y263620D01*
X64126Y263631D01*
X64057Y263638D01*
X63977Y263645D01*
X63894D01*
X62437D01*
Y263980D01*
X63894D01*
X63897D01*
X63912D01*
X63930D01*
X63955D01*
X63988Y263977D01*
D02*
G37*
G36*
X19294Y261062D02*
X19319Y261059D01*
X19352Y261055D01*
X19388Y261048D01*
X19429Y261037D01*
X19512Y261011D01*
X19560Y260993D01*
X19603Y260967D01*
X19651Y260942D01*
X19694Y260913D01*
X19738Y260876D01*
X19782Y260837D01*
X19785Y260833D01*
X19793Y260826D01*
X19804Y260815D01*
X19814Y260796D01*
X19833Y260771D01*
X19851Y260746D01*
X19869Y260713D01*
X19891Y260676D01*
X19913Y260636D01*
X19931Y260589D01*
X19949Y260538D01*
X19967Y260487D01*
X19978Y260429D01*
X19989Y260367D01*
X19996Y260305D01*
X20000Y260236D01*
Y260199D01*
X19996Y260174D01*
X19993Y260141D01*
X19989Y260105D01*
X19982Y260065D01*
X19971Y260021D01*
X19945Y259923D01*
X19927Y259872D01*
X19909Y259825D01*
X19884Y259774D01*
X19854Y259723D01*
X19822Y259675D01*
X19782Y259632D01*
X19778Y259628D01*
X19771Y259621D01*
X19760Y259610D01*
X19742Y259595D01*
X19720Y259581D01*
X19694Y259559D01*
X19665Y259541D01*
X19629Y259519D01*
X19592Y259497D01*
X19549Y259479D01*
X19458Y259442D01*
X19403Y259428D01*
X19349Y259417D01*
X19290Y259410D01*
X19232Y259406D01*
X19228D01*
X19221D01*
X19207D01*
X19192Y259410D01*
X19170D01*
X19145Y259413D01*
X19086Y259421D01*
X19021Y259435D01*
X18955Y259457D01*
X18886Y259490D01*
X18821Y259530D01*
X18817D01*
X18813Y259537D01*
X18795Y259552D01*
X18766Y259581D01*
X18730Y259621D01*
X18693Y259672D01*
X18653Y259734D01*
X18620Y259803D01*
X18595Y259887D01*
Y259883D01*
X18591Y259879D01*
X18588Y259868D01*
X18580Y259854D01*
X18566Y259821D01*
X18544Y259777D01*
X18515Y259730D01*
X18478Y259683D01*
X18439Y259639D01*
X18395Y259599D01*
X18387Y259595D01*
X18373Y259584D01*
X18344Y259570D01*
X18307Y259555D01*
X18260Y259537D01*
X18205Y259523D01*
X18144Y259511D01*
X18078Y259508D01*
X18075D01*
X18067D01*
X18053D01*
X18031Y259511D01*
X18009Y259515D01*
X17980Y259519D01*
X17918Y259533D01*
X17845Y259555D01*
X17769Y259592D01*
X17729Y259613D01*
X17689Y259639D01*
X17652Y259672D01*
X17616Y259704D01*
X17612Y259708D01*
X17608Y259715D01*
X17598Y259726D01*
X17587Y259741D01*
X17572Y259759D01*
X17558Y259785D01*
X17539Y259814D01*
X17521Y259843D01*
X17503Y259879D01*
X17485Y259919D01*
X17470Y259963D01*
X17456Y260010D01*
X17434Y260112D01*
X17430Y260170D01*
X17427Y260229D01*
Y260261D01*
X17430Y260283D01*
X17434Y260312D01*
X17437Y260345D01*
X17441Y260382D01*
X17452Y260418D01*
X17474Y260505D01*
X17507Y260593D01*
X17528Y260636D01*
X17554Y260680D01*
X17587Y260720D01*
X17619Y260760D01*
X17623Y260764D01*
X17627Y260767D01*
X17638Y260778D01*
X17652Y260793D01*
X17674Y260807D01*
X17696Y260826D01*
X17751Y260862D01*
X17820Y260898D01*
X17900Y260931D01*
X17991Y260957D01*
X18038Y260960D01*
X18089Y260964D01*
X18093D01*
X18096D01*
X18118D01*
X18151Y260960D01*
X18191Y260953D01*
X18242Y260942D01*
X18293Y260924D01*
X18344Y260902D01*
X18395Y260869D01*
X18402Y260866D01*
X18417Y260851D01*
X18439Y260829D01*
X18468Y260800D01*
X18500Y260760D01*
X18533Y260713D01*
X18566Y260658D01*
X18595Y260593D01*
Y260596D01*
X18599Y260603D01*
X18602Y260614D01*
X18609Y260629D01*
X18628Y260673D01*
X18653Y260724D01*
X18690Y260778D01*
X18730Y260837D01*
X18781Y260891D01*
X18839Y260942D01*
X18843D01*
X18846Y260946D01*
X18868Y260960D01*
X18904Y260982D01*
X18952Y261004D01*
X19010Y261026D01*
X19079Y261048D01*
X19155Y261062D01*
X19239Y261066D01*
X19243D01*
X19254D01*
X19272D01*
X19294Y261062D01*
D02*
G37*
G36*
X19956Y258798D02*
X19432Y258467D01*
X19429D01*
X19421Y258460D01*
X19410Y258452D01*
X19396Y258441D01*
X19356Y258416D01*
X19305Y258383D01*
X19250Y258343D01*
X19192Y258303D01*
X19137Y258263D01*
X19086Y258227D01*
X19083Y258223D01*
X19068Y258212D01*
X19046Y258194D01*
X19021Y258168D01*
X18966Y258114D01*
X18941Y258085D01*
X18919Y258055D01*
X18915Y258052D01*
X18912Y258045D01*
X18904Y258030D01*
X18893Y258008D01*
X18883Y257986D01*
X18872Y257961D01*
X18853Y257903D01*
Y257899D01*
X18850Y257892D01*
Y257877D01*
X18846Y257859D01*
X18843Y257834D01*
Y257804D01*
X18839Y257764D01*
Y257335D01*
X19956D01*
Y257000D01*
X17437D01*
Y258168D01*
X17441Y258197D01*
Y258230D01*
X17445Y258307D01*
X17456Y258387D01*
X17467Y258474D01*
X17485Y258554D01*
X17496Y258594D01*
X17507Y258627D01*
Y258631D01*
X17510Y258634D01*
X17521Y258656D01*
X17536Y258689D01*
X17561Y258729D01*
X17594Y258773D01*
X17638Y258820D01*
X17689Y258864D01*
X17747Y258907D01*
X17751D01*
X17754Y258911D01*
X17776Y258926D01*
X17812Y258940D01*
X17860Y258962D01*
X17914Y258980D01*
X17980Y258998D01*
X18049Y259009D01*
X18125Y259013D01*
X18129D01*
X18136D01*
X18151D01*
X18169Y259009D01*
X18195D01*
X18220Y259006D01*
X18282Y258991D01*
X18355Y258969D01*
X18431Y258940D01*
X18508Y258896D01*
X18544Y258867D01*
X18580Y258838D01*
X18584Y258835D01*
X18588Y258831D01*
X18599Y258820D01*
X18609Y258805D01*
X18624Y258787D01*
X18639Y258765D01*
X18657Y258736D01*
X18679Y258707D01*
X18697Y258671D01*
X18715Y258631D01*
X18737Y258587D01*
X18755Y258540D01*
X18770Y258485D01*
X18788Y258431D01*
X18799Y258369D01*
X18810Y258303D01*
X18813Y258310D01*
X18821Y258325D01*
X18835Y258347D01*
X18850Y258376D01*
X18890Y258441D01*
X18915Y258474D01*
X18937Y258503D01*
X18944Y258511D01*
X18963Y258529D01*
X18992Y258558D01*
X19028Y258594D01*
X19079Y258634D01*
X19134Y258682D01*
X19199Y258729D01*
X19272Y258780D01*
X19956Y259213D01*
Y258798D01*
D02*
G37*
G36*
X243841Y121996D02*
X243870Y121993D01*
X243902Y121989D01*
X243942Y121985D01*
X243983Y121975D01*
X244074Y121953D01*
X244164Y121920D01*
X244212Y121898D01*
X244259Y121873D01*
X244303Y121844D01*
X244346Y121811D01*
X244350Y121807D01*
X244357Y121803D01*
X244365Y121789D01*
X244379Y121774D01*
X244397Y121756D01*
X244416Y121734D01*
X244438Y121705D01*
X244456Y121672D01*
X244478Y121640D01*
X244499Y121600D01*
X244539Y121512D01*
X244572Y121410D01*
X244583Y121356D01*
X244590Y121298D01*
X244266Y121272D01*
Y121276D01*
Y121283D01*
X244263Y121294D01*
X244259Y121312D01*
X244248Y121352D01*
X244234Y121407D01*
X244212Y121461D01*
X244183Y121523D01*
X244146Y121578D01*
X244103Y121629D01*
X244095Y121632D01*
X244081Y121647D01*
X244052Y121665D01*
X244012Y121687D01*
X243968Y121709D01*
X243913Y121727D01*
X243851Y121742D01*
X243782Y121745D01*
X243760D01*
X243746Y121742D01*
X243702Y121738D01*
X243651Y121723D01*
X243589Y121705D01*
X243528Y121676D01*
X243462Y121632D01*
X243433Y121607D01*
X243404Y121578D01*
X243400Y121574D01*
X243396Y121571D01*
X243389Y121560D01*
X243378Y121549D01*
X243353Y121509D01*
X243324Y121458D01*
X243298Y121396D01*
X243273Y121319D01*
X243254Y121228D01*
X243247Y121181D01*
Y121130D01*
Y121126D01*
Y121119D01*
Y121105D01*
X243251Y121086D01*
Y121065D01*
X243254Y121039D01*
X243265Y120981D01*
X243284Y120912D01*
X243309Y120843D01*
X243345Y120777D01*
X243396Y120715D01*
Y120712D01*
X243404Y120708D01*
X243422Y120690D01*
X243455Y120664D01*
X243498Y120635D01*
X243557Y120609D01*
X243622Y120584D01*
X243699Y120566D01*
X243742Y120559D01*
X243811D01*
X243841Y120562D01*
X243877Y120566D01*
X243921Y120577D01*
X243964Y120588D01*
X244012Y120606D01*
X244059Y120628D01*
X244063Y120631D01*
X244077Y120639D01*
X244099Y120657D01*
X244128Y120675D01*
X244157Y120701D01*
X244186Y120733D01*
X244219Y120766D01*
X244245Y120806D01*
X244536Y120766D01*
X244292Y119470D01*
X243040D01*
Y119765D01*
X244048D01*
X244183Y120446D01*
X244179Y120442D01*
X244172Y120439D01*
X244161Y120431D01*
X244143Y120420D01*
X244121Y120409D01*
X244095Y120395D01*
X244037Y120366D01*
X243964Y120337D01*
X243884Y120311D01*
X243797Y120293D01*
X243753Y120286D01*
X243673D01*
X243651Y120289D01*
X243622Y120293D01*
X243589Y120297D01*
X243553Y120304D01*
X243513Y120315D01*
X243426Y120340D01*
X243378Y120358D01*
X243331Y120384D01*
X243284Y120409D01*
X243236Y120439D01*
X243193Y120475D01*
X243149Y120515D01*
X243145Y120519D01*
X243138Y120526D01*
X243127Y120537D01*
X243112Y120555D01*
X243094Y120580D01*
X243076Y120606D01*
X243054Y120639D01*
X243032Y120675D01*
X243014Y120715D01*
X242992Y120759D01*
X242974Y120810D01*
X242956Y120861D01*
X242941Y120915D01*
X242931Y120977D01*
X242923Y121039D01*
X242920Y121105D01*
Y121108D01*
Y121119D01*
Y121137D01*
X242923Y121163D01*
X242927Y121192D01*
X242931Y121225D01*
X242938Y121265D01*
X242945Y121305D01*
X242967Y121399D01*
X243003Y121498D01*
X243025Y121549D01*
X243054Y121596D01*
X243083Y121647D01*
X243120Y121694D01*
X243123Y121698D01*
X243131Y121709D01*
X243145Y121723D01*
X243163Y121742D01*
X243189Y121763D01*
X243218Y121793D01*
X243254Y121818D01*
X243295Y121847D01*
X243338Y121876D01*
X243389Y121902D01*
X243444Y121927D01*
X243502Y121953D01*
X243564Y121971D01*
X243633Y121985D01*
X243706Y121996D01*
X243782Y122000D01*
X243815D01*
X243841Y121996D01*
D02*
G37*
G36*
X247000Y119438D02*
X245832D01*
X245802Y119441D01*
X245770D01*
X245693Y119445D01*
X245613Y119456D01*
X245526Y119467D01*
X245446Y119485D01*
X245406Y119496D01*
X245373Y119507D01*
X245369D01*
X245366Y119510D01*
X245344Y119521D01*
X245311Y119536D01*
X245271Y119561D01*
X245227Y119594D01*
X245180Y119638D01*
X245136Y119689D01*
X245093Y119747D01*
Y119750D01*
X245089Y119754D01*
X245075Y119776D01*
X245060Y119812D01*
X245038Y119860D01*
X245020Y119914D01*
X245002Y119980D01*
X244991Y120049D01*
X244987Y120125D01*
Y120129D01*
Y120136D01*
Y120151D01*
X244991Y120169D01*
Y120195D01*
X244994Y120220D01*
X245009Y120282D01*
X245031Y120355D01*
X245060Y120431D01*
X245104Y120508D01*
X245133Y120544D01*
X245162Y120580D01*
X245165Y120584D01*
X245169Y120588D01*
X245180Y120599D01*
X245195Y120609D01*
X245213Y120624D01*
X245235Y120639D01*
X245264Y120657D01*
X245293Y120679D01*
X245329Y120697D01*
X245369Y120715D01*
X245413Y120737D01*
X245460Y120755D01*
X245515Y120770D01*
X245569Y120788D01*
X245631Y120799D01*
X245697Y120810D01*
X245690Y120813D01*
X245675Y120821D01*
X245653Y120835D01*
X245624Y120850D01*
X245559Y120890D01*
X245526Y120915D01*
X245497Y120937D01*
X245489Y120944D01*
X245471Y120963D01*
X245442Y120992D01*
X245406Y121028D01*
X245366Y121079D01*
X245318Y121134D01*
X245271Y121199D01*
X245220Y121272D01*
X244787Y121956D01*
X245202D01*
X245533Y121432D01*
Y121429D01*
X245540Y121421D01*
X245548Y121410D01*
X245559Y121396D01*
X245584Y121356D01*
X245617Y121305D01*
X245657Y121250D01*
X245697Y121192D01*
X245737Y121137D01*
X245773Y121086D01*
X245777Y121083D01*
X245788Y121068D01*
X245806Y121046D01*
X245832Y121021D01*
X245886Y120966D01*
X245915Y120941D01*
X245944Y120919D01*
X245948Y120915D01*
X245955Y120912D01*
X245970Y120904D01*
X245992Y120894D01*
X246014Y120882D01*
X246039Y120872D01*
X246097Y120853D01*
X246101D01*
X246108Y120850D01*
X246123D01*
X246141Y120846D01*
X246166Y120843D01*
X246196D01*
X246236Y120839D01*
X246665D01*
Y121956D01*
X247000D01*
Y119438D01*
D02*
G37*
G36*
X24206Y146762D02*
X24203D01*
X24188D01*
X24166D01*
X24137Y146765D01*
X24104Y146769D01*
X24068Y146776D01*
X24032Y146783D01*
X23992Y146798D01*
X23988D01*
X23984Y146802D01*
X23963Y146809D01*
X23930Y146824D01*
X23886Y146845D01*
X23835Y146874D01*
X23777Y146911D01*
X23719Y146951D01*
X23657Y147002D01*
X23653D01*
X23649Y147009D01*
X23628Y147027D01*
X23595Y147060D01*
X23548Y147108D01*
X23493Y147162D01*
X23427Y147231D01*
X23355Y147315D01*
X23278Y147406D01*
X23275Y147410D01*
X23264Y147424D01*
X23245Y147446D01*
X23224Y147471D01*
X23194Y147504D01*
X23162Y147544D01*
X23125Y147584D01*
X23085Y147632D01*
X22998Y147723D01*
X22910Y147814D01*
X22867Y147857D01*
X22823Y147897D01*
X22783Y147934D01*
X22743Y147963D01*
X22739D01*
X22736Y147970D01*
X22725Y147977D01*
X22710Y147985D01*
X22670Y148010D01*
X22623Y148039D01*
X22565Y148065D01*
X22503Y148090D01*
X22434Y148105D01*
X22368Y148112D01*
X22365D01*
X22361D01*
X22339Y148108D01*
X22303Y148105D01*
X22263Y148094D01*
X22212Y148079D01*
X22161Y148054D01*
X22110Y148021D01*
X22059Y147977D01*
X22051Y147970D01*
X22037Y147952D01*
X22019Y147926D01*
X21993Y147887D01*
X21971Y147836D01*
X21949Y147777D01*
X21935Y147708D01*
X21931Y147632D01*
Y147610D01*
X21935Y147595D01*
X21939Y147552D01*
X21949Y147501D01*
X21964Y147446D01*
X21990Y147384D01*
X22022Y147326D01*
X22066Y147271D01*
X22073Y147264D01*
X22092Y147249D01*
X22121Y147228D01*
X22164Y147206D01*
X22215Y147180D01*
X22281Y147159D01*
X22354Y147144D01*
X22437Y147137D01*
X22405Y146820D01*
X22401D01*
X22390Y146824D01*
X22372D01*
X22346Y146827D01*
X22317Y146835D01*
X22284Y146842D01*
X22244Y146853D01*
X22204Y146864D01*
X22117Y146893D01*
X22030Y146936D01*
X21986Y146962D01*
X21942Y146995D01*
X21902Y147027D01*
X21866Y147064D01*
X21862Y147067D01*
X21858Y147075D01*
X21848Y147086D01*
X21837Y147104D01*
X21822Y147126D01*
X21808Y147151D01*
X21789Y147180D01*
X21771Y147217D01*
X21753Y147257D01*
X21735Y147300D01*
X21720Y147348D01*
X21706Y147399D01*
X21695Y147453D01*
X21684Y147512D01*
X21680Y147573D01*
X21677Y147639D01*
Y147675D01*
X21680Y147701D01*
X21684Y147730D01*
X21688Y147766D01*
X21695Y147806D01*
X21702Y147846D01*
X21727Y147941D01*
X21764Y148036D01*
X21786Y148083D01*
X21811Y148130D01*
X21844Y148174D01*
X21880Y148214D01*
X21884Y148218D01*
X21888Y148225D01*
X21902Y148232D01*
X21917Y148247D01*
X21935Y148265D01*
X21960Y148283D01*
X21986Y148301D01*
X22019Y148323D01*
X22088Y148360D01*
X22175Y148396D01*
X22219Y148411D01*
X22270Y148418D01*
X22321Y148425D01*
X22375Y148429D01*
X22383D01*
X22401D01*
X22430Y148425D01*
X22470Y148422D01*
X22514Y148414D01*
X22565Y148400D01*
X22619Y148385D01*
X22674Y148363D01*
X22681Y148360D01*
X22699Y148352D01*
X22728Y148338D01*
X22769Y148316D01*
X22812Y148287D01*
X22867Y148250D01*
X22921Y148207D01*
X22983Y148156D01*
X22991Y148149D01*
X23012Y148130D01*
X23031Y148112D01*
X23049Y148094D01*
X23071Y148072D01*
X23100Y148043D01*
X23129Y148014D01*
X23162Y147977D01*
X23198Y147941D01*
X23238Y147897D01*
X23278Y147850D01*
X23325Y147799D01*
X23373Y147741D01*
X23424Y147683D01*
X23427Y147679D01*
X23435Y147672D01*
X23446Y147657D01*
X23460Y147639D01*
X23482Y147617D01*
X23504Y147592D01*
X23551Y147533D01*
X23606Y147471D01*
X23660Y147413D01*
X23708Y147362D01*
X23726Y147341D01*
X23744Y147322D01*
X23748Y147319D01*
X23759Y147308D01*
X23773Y147293D01*
X23795Y147275D01*
X23821Y147257D01*
X23846Y147235D01*
X23908Y147191D01*
Y148433D01*
X24206D01*
Y146762D01*
D02*
G37*
G36*
X23486Y146383D02*
X23515D01*
X23584Y146376D01*
X23664Y146369D01*
X23748Y146354D01*
X23824Y146332D01*
X23897Y146307D01*
X23901D01*
X23904Y146303D01*
X23926Y146292D01*
X23955Y146274D01*
X23995Y146248D01*
X24035Y146212D01*
X24079Y146172D01*
X24123Y146121D01*
X24159Y146063D01*
X24163Y146055D01*
X24174Y146034D01*
X24188Y146001D01*
X24203Y145954D01*
X24221Y145895D01*
X24236Y145830D01*
X24246Y145757D01*
X24250Y145677D01*
Y145644D01*
X24246Y145622D01*
X24243Y145593D01*
X24239Y145564D01*
X24225Y145488D01*
X24203Y145408D01*
X24170Y145324D01*
X24148Y145280D01*
X24123Y145240D01*
X24093Y145204D01*
X24061Y145167D01*
X24057Y145164D01*
X24054Y145160D01*
X24039Y145153D01*
X24024Y145142D01*
X24006Y145127D01*
X23981Y145113D01*
X23952Y145098D01*
X23919Y145080D01*
X23882Y145065D01*
X23839Y145051D01*
X23795Y145036D01*
X23744Y145022D01*
X23689Y145015D01*
X23628Y145004D01*
X23566Y145000D01*
X23496D01*
X23453Y145302D01*
X23457D01*
X23464D01*
X23478D01*
X23500Y145306D01*
X23522Y145309D01*
X23548D01*
X23609Y145320D01*
X23675Y145331D01*
X23740Y145353D01*
X23799Y145375D01*
X23824Y145389D01*
X23846Y145408D01*
X23850Y145411D01*
X23861Y145426D01*
X23879Y145448D01*
X23897Y145477D01*
X23919Y145517D01*
X23933Y145561D01*
X23948Y145615D01*
X23952Y145673D01*
Y145695D01*
X23948Y145717D01*
X23944Y145750D01*
X23937Y145782D01*
X23930Y145819D01*
X23915Y145855D01*
X23897Y145892D01*
X23893Y145895D01*
X23886Y145906D01*
X23871Y145921D01*
X23857Y145943D01*
X23831Y145961D01*
X23806Y145983D01*
X23777Y146001D01*
X23740Y146016D01*
X23737D01*
X23722Y146023D01*
X23697Y146026D01*
X23664Y146034D01*
X23620Y146041D01*
X23566Y146045D01*
X23500Y146052D01*
X23424D01*
X21688D01*
Y146387D01*
X23405D01*
X23409D01*
X23420D01*
X23435D01*
X23457D01*
X23486Y146383D01*
D02*
G37*
G36*
X219062Y95242D02*
X219059Y95239D01*
X219051Y95231D01*
X219037Y95217D01*
X219022Y95195D01*
X219000Y95169D01*
X218971Y95140D01*
X218942Y95104D01*
X218909Y95060D01*
X218877Y95016D01*
X218836Y94965D01*
X218796Y94907D01*
X218756Y94849D01*
X218713Y94784D01*
X218669Y94714D01*
X218625Y94638D01*
X218582Y94561D01*
X218578Y94558D01*
X218571Y94543D01*
X218560Y94521D01*
X218542Y94489D01*
X218524Y94449D01*
X218502Y94405D01*
X218476Y94354D01*
X218451Y94296D01*
X218422Y94230D01*
X218389Y94165D01*
X218360Y94092D01*
X218331Y94016D01*
X218272Y93859D01*
X218218Y93691D01*
Y93688D01*
X218214Y93677D01*
X218210Y93659D01*
X218203Y93637D01*
X218196Y93608D01*
X218189Y93571D01*
X218178Y93531D01*
X218170Y93488D01*
X218160Y93437D01*
X218148Y93382D01*
X218130Y93266D01*
X218112Y93138D01*
X218101Y93000D01*
X217785D01*
Y93004D01*
Y93015D01*
Y93029D01*
X217788Y93051D01*
Y93080D01*
X217792Y93116D01*
X217795Y93156D01*
X217799Y93200D01*
X217806Y93251D01*
X217814Y93302D01*
X217825Y93364D01*
X217835Y93426D01*
X217846Y93491D01*
X217861Y93564D01*
X217897Y93713D01*
Y93717D01*
X217901Y93732D01*
X217908Y93753D01*
X217919Y93786D01*
X217930Y93823D01*
X217945Y93866D01*
X217959Y93917D01*
X217981Y93972D01*
X218003Y94034D01*
X218025Y94096D01*
X218079Y94234D01*
X218145Y94380D01*
X218218Y94525D01*
X218221Y94529D01*
X218229Y94543D01*
X218240Y94561D01*
X218254Y94591D01*
X218272Y94623D01*
X218298Y94663D01*
X218323Y94707D01*
X218352Y94754D01*
X218422Y94860D01*
X218494Y94969D01*
X218578Y95082D01*
X218665Y95188D01*
X217431D01*
Y95486D01*
X219062D01*
Y95242D01*
D02*
G37*
G36*
X216197Y95515D02*
X216230D01*
X216307Y95512D01*
X216387Y95501D01*
X216474Y95490D01*
X216554Y95472D01*
X216594Y95461D01*
X216627Y95450D01*
X216631D01*
X216634Y95446D01*
X216656Y95435D01*
X216689Y95421D01*
X216729Y95395D01*
X216773Y95362D01*
X216820Y95319D01*
X216864Y95268D01*
X216907Y95209D01*
Y95206D01*
X216911Y95202D01*
X216926Y95180D01*
X216940Y95144D01*
X216962Y95097D01*
X216980Y95042D01*
X216998Y94977D01*
X217009Y94907D01*
X217013Y94831D01*
Y94827D01*
Y94820D01*
Y94805D01*
X217009Y94787D01*
Y94762D01*
X217006Y94736D01*
X216991Y94674D01*
X216969Y94602D01*
X216940Y94525D01*
X216896Y94449D01*
X216867Y94412D01*
X216838Y94376D01*
X216834Y94372D01*
X216831Y94369D01*
X216820Y94358D01*
X216805Y94347D01*
X216787Y94332D01*
X216765Y94318D01*
X216736Y94299D01*
X216707Y94278D01*
X216671Y94259D01*
X216631Y94241D01*
X216587Y94219D01*
X216540Y94201D01*
X216485Y94187D01*
X216430Y94168D01*
X216369Y94157D01*
X216303Y94147D01*
X216310Y94143D01*
X216325Y94136D01*
X216347Y94121D01*
X216376Y94107D01*
X216441Y94067D01*
X216474Y94041D01*
X216503Y94019D01*
X216511Y94012D01*
X216529Y93994D01*
X216558Y93964D01*
X216594Y93928D01*
X216634Y93877D01*
X216682Y93823D01*
X216729Y93757D01*
X216780Y93684D01*
X217213Y93000D01*
X216798D01*
X216467Y93524D01*
Y93528D01*
X216460Y93535D01*
X216452Y93546D01*
X216441Y93560D01*
X216416Y93600D01*
X216383Y93651D01*
X216343Y93706D01*
X216303Y93764D01*
X216263Y93819D01*
X216227Y93870D01*
X216223Y93874D01*
X216212Y93888D01*
X216194Y93910D01*
X216168Y93935D01*
X216114Y93990D01*
X216085Y94016D01*
X216055Y94037D01*
X216052Y94041D01*
X216045Y94045D01*
X216030Y94052D01*
X216008Y94063D01*
X215986Y94074D01*
X215961Y94085D01*
X215903Y94103D01*
X215899D01*
X215892Y94107D01*
X215877D01*
X215859Y94110D01*
X215833Y94114D01*
X215804D01*
X215764Y94117D01*
X215335D01*
Y93000D01*
X215000D01*
Y95519D01*
X216168D01*
X216197Y95515D01*
D02*
G37*
G36*
X138766Y46085D02*
X138813D01*
X138868Y46082D01*
X138923Y46075D01*
X139046Y46064D01*
X139177Y46045D01*
X139301Y46020D01*
X139363Y46002D01*
X139418Y45983D01*
X139421D01*
X139428Y45980D01*
X139443Y45972D01*
X139465Y45965D01*
X139487Y45954D01*
X139516Y45940D01*
X139578Y45903D01*
X139647Y45860D01*
X139720Y45809D01*
X139789Y45743D01*
X139851Y45670D01*
Y45667D01*
X139858Y45660D01*
X139865Y45649D01*
X139873Y45634D01*
X139883Y45612D01*
X139898Y45590D01*
X139913Y45561D01*
X139924Y45532D01*
X139953Y45463D01*
X139978Y45379D01*
X139993Y45288D01*
X140000Y45186D01*
Y45157D01*
X139996Y45139D01*
Y45114D01*
X139993Y45084D01*
X139978Y45015D01*
X139960Y44939D01*
X139931Y44859D01*
X139891Y44779D01*
X139865Y44739D01*
X139836Y44702D01*
X139833Y44699D01*
X139829Y44695D01*
X139818Y44684D01*
X139807Y44673D01*
X139789Y44658D01*
X139767Y44640D01*
X139716Y44604D01*
X139651Y44567D01*
X139570Y44531D01*
X139479Y44502D01*
X139374Y44480D01*
X139348Y44779D01*
X139352D01*
X139359Y44782D01*
X139367D01*
X139381Y44786D01*
X139421Y44797D01*
X139465Y44811D01*
X139516Y44830D01*
X139567Y44855D01*
X139614Y44884D01*
X139654Y44921D01*
X139658Y44924D01*
X139669Y44939D01*
X139683Y44964D01*
X139698Y44993D01*
X139716Y45033D01*
X139731Y45081D01*
X139742Y45135D01*
X139745Y45194D01*
Y45219D01*
X139742Y45245D01*
X139738Y45277D01*
X139731Y45317D01*
X139720Y45357D01*
X139705Y45401D01*
X139683Y45441D01*
X139680Y45445D01*
X139672Y45459D01*
X139658Y45481D01*
X139636Y45503D01*
X139611Y45532D01*
X139581Y45561D01*
X139549Y45590D01*
X139509Y45619D01*
X139505Y45623D01*
X139487Y45630D01*
X139461Y45645D01*
X139428Y45660D01*
X139385Y45678D01*
X139334Y45696D01*
X139276Y45714D01*
X139210Y45732D01*
X139207D01*
X139203Y45736D01*
X139192D01*
X139177Y45740D01*
X139141Y45747D01*
X139094Y45758D01*
X139035Y45765D01*
X138974Y45772D01*
X138904Y45776D01*
X138832Y45780D01*
X138828D01*
X138817D01*
X138799D01*
X138770D01*
X138777Y45776D01*
X138795Y45761D01*
X138821Y45740D01*
X138857Y45714D01*
X138893Y45678D01*
X138934Y45634D01*
X138974Y45583D01*
X139010Y45525D01*
X139014Y45518D01*
X139024Y45496D01*
X139039Y45463D01*
X139054Y45423D01*
X139072Y45368D01*
X139086Y45310D01*
X139097Y45245D01*
X139101Y45175D01*
Y45146D01*
X139097Y45124D01*
X139094Y45095D01*
X139090Y45066D01*
X139083Y45030D01*
X139072Y44993D01*
X139046Y44910D01*
X139028Y44866D01*
X139006Y44822D01*
X138981Y44775D01*
X138948Y44731D01*
X138915Y44688D01*
X138875Y44648D01*
X138872Y44644D01*
X138864Y44637D01*
X138853Y44629D01*
X138835Y44615D01*
X138810Y44597D01*
X138784Y44578D01*
X138751Y44560D01*
X138715Y44542D01*
X138675Y44520D01*
X138631Y44502D01*
X138580Y44484D01*
X138530Y44466D01*
X138471Y44451D01*
X138409Y44444D01*
X138347Y44436D01*
X138278Y44433D01*
X138275D01*
X138260D01*
X138242D01*
X138216Y44436D01*
X138184Y44440D01*
X138144Y44444D01*
X138104Y44451D01*
X138056Y44462D01*
X137962Y44487D01*
X137911Y44506D01*
X137856Y44527D01*
X137805Y44553D01*
X137758Y44586D01*
X137707Y44618D01*
X137663Y44658D01*
X137660Y44662D01*
X137652Y44669D01*
X137641Y44680D01*
X137627Y44699D01*
X137609Y44720D01*
X137587Y44750D01*
X137568Y44779D01*
X137543Y44815D01*
X137521Y44851D01*
X137503Y44895D01*
X137463Y44993D01*
X137448Y45044D01*
X137437Y45103D01*
X137430Y45161D01*
X137426Y45223D01*
Y45248D01*
X137430Y45266D01*
Y45285D01*
X137434Y45310D01*
X137445Y45372D01*
X137459Y45441D01*
X137485Y45518D01*
X137518Y45594D01*
X137561Y45670D01*
Y45674D01*
X137568Y45678D01*
X137576Y45689D01*
X137587Y45703D01*
X137616Y45740D01*
X137656Y45787D01*
X137710Y45834D01*
X137776Y45889D01*
X137852Y45936D01*
X137940Y45980D01*
X137943D01*
X137951Y45983D01*
X137965Y45991D01*
X137984Y45998D01*
X138009Y46005D01*
X138042Y46016D01*
X138078Y46023D01*
X138118Y46034D01*
X138165Y46045D01*
X138220Y46056D01*
X138278Y46064D01*
X138340Y46071D01*
X138409Y46078D01*
X138482Y46085D01*
X138562Y46089D01*
X138646D01*
X138650D01*
X138668D01*
X138693D01*
X138726D01*
X138766Y46085D01*
D02*
G37*
G36*
X139177Y44145D02*
X139199Y44138D01*
X139228Y44127D01*
X139261Y44116D01*
X139301Y44102D01*
X139345Y44083D01*
X139392Y44061D01*
X139494Y44011D01*
X139596Y43945D01*
X139647Y43905D01*
X139698Y43865D01*
X139742Y43821D01*
X139785Y43770D01*
X139789Y43767D01*
X139796Y43759D01*
X139804Y43741D01*
X139818Y43723D01*
X139836Y43694D01*
X139854Y43665D01*
X139873Y43625D01*
X139891Y43585D01*
X139913Y43537D01*
X139931Y43486D01*
X139949Y43432D01*
X139967Y43374D01*
X139982Y43312D01*
X139989Y43246D01*
X139996Y43177D01*
X140000Y43104D01*
Y43064D01*
X139996Y43035D01*
Y43002D01*
X139993Y42962D01*
X139986Y42919D01*
X139978Y42868D01*
X139960Y42762D01*
X139931Y42653D01*
X139891Y42544D01*
X139865Y42493D01*
X139836Y42442D01*
X139833Y42438D01*
X139829Y42431D01*
X139818Y42416D01*
X139804Y42402D01*
X139789Y42380D01*
X139767Y42354D01*
X139742Y42325D01*
X139713Y42296D01*
X139680Y42267D01*
X139647Y42234D01*
X139563Y42169D01*
X139465Y42107D01*
X139356Y42052D01*
X139352D01*
X139341Y42045D01*
X139323Y42041D01*
X139301Y42030D01*
X139272Y42023D01*
X139236Y42012D01*
X139196Y41998D01*
X139152Y41987D01*
X139105Y41976D01*
X139050Y41961D01*
X138937Y41943D01*
X138810Y41928D01*
X138679Y41921D01*
X138675D01*
X138661D01*
X138639D01*
X138613Y41925D01*
X138577D01*
X138540Y41928D01*
X138493Y41932D01*
X138446Y41939D01*
X138340Y41958D01*
X138224Y41983D01*
X138107Y42020D01*
X137994Y42070D01*
X137991Y42074D01*
X137980Y42078D01*
X137965Y42085D01*
X137947Y42100D01*
X137922Y42114D01*
X137892Y42132D01*
X137827Y42180D01*
X137754Y42241D01*
X137681Y42314D01*
X137609Y42398D01*
X137547Y42496D01*
X137543Y42500D01*
X137539Y42511D01*
X137532Y42526D01*
X137521Y42544D01*
X137510Y42573D01*
X137499Y42602D01*
X137485Y42638D01*
X137470Y42678D01*
X137456Y42722D01*
X137441Y42769D01*
X137419Y42871D01*
X137401Y42988D01*
X137394Y43108D01*
Y43144D01*
X137397Y43170D01*
X137401Y43202D01*
X137405Y43242D01*
X137408Y43283D01*
X137419Y43330D01*
X137441Y43428D01*
X137474Y43537D01*
X137496Y43592D01*
X137521Y43643D01*
X137554Y43694D01*
X137587Y43745D01*
X137590Y43749D01*
X137594Y43756D01*
X137605Y43770D01*
X137623Y43788D01*
X137641Y43807D01*
X137667Y43832D01*
X137696Y43858D01*
X137725Y43887D01*
X137761Y43916D01*
X137805Y43945D01*
X137849Y43978D01*
X137896Y44007D01*
X137951Y44032D01*
X138005Y44061D01*
X138064Y44083D01*
X138129Y44105D01*
X138206Y43778D01*
X138202D01*
X138195Y43774D01*
X138180Y43767D01*
X138162Y43759D01*
X138140Y43752D01*
X138111Y43741D01*
X138053Y43712D01*
X137987Y43676D01*
X137922Y43632D01*
X137860Y43577D01*
X137805Y43519D01*
X137798Y43512D01*
X137783Y43490D01*
X137765Y43454D01*
X137740Y43406D01*
X137718Y43345D01*
X137696Y43275D01*
X137681Y43192D01*
X137678Y43101D01*
Y43071D01*
X137681Y43053D01*
Y43028D01*
X137685Y42999D01*
X137696Y42930D01*
X137710Y42853D01*
X137736Y42773D01*
X137772Y42689D01*
X137820Y42613D01*
Y42609D01*
X137827Y42606D01*
X137845Y42580D01*
X137874Y42547D01*
X137918Y42507D01*
X137973Y42460D01*
X138034Y42416D01*
X138111Y42376D01*
X138195Y42340D01*
X138198D01*
X138206Y42336D01*
X138216Y42333D01*
X138235Y42329D01*
X138257Y42322D01*
X138282Y42314D01*
X138344Y42303D01*
X138417Y42289D01*
X138497Y42274D01*
X138584Y42267D01*
X138679Y42263D01*
X138682D01*
X138693D01*
X138712D01*
X138733D01*
X138759Y42267D01*
X138792D01*
X138828Y42271D01*
X138868Y42274D01*
X138955Y42285D01*
X139050Y42303D01*
X139145Y42325D01*
X139239Y42354D01*
X139243D01*
X139250Y42358D01*
X139261Y42365D01*
X139279Y42373D01*
X139323Y42394D01*
X139374Y42427D01*
X139432Y42467D01*
X139494Y42518D01*
X139549Y42576D01*
X139600Y42646D01*
Y42649D01*
X139603Y42656D01*
X139611Y42667D01*
X139618Y42682D01*
X139625Y42700D01*
X139636Y42722D01*
X139658Y42773D01*
X139680Y42838D01*
X139698Y42911D01*
X139713Y42991D01*
X139716Y43075D01*
Y43101D01*
X139713Y43122D01*
Y43148D01*
X139709Y43173D01*
X139694Y43239D01*
X139676Y43315D01*
X139647Y43392D01*
X139607Y43472D01*
X139585Y43512D01*
X139556Y43548D01*
X139552Y43552D01*
X139549Y43556D01*
X139538Y43567D01*
X139527Y43581D01*
X139509Y43596D01*
X139487Y43614D01*
X139465Y43636D01*
X139436Y43654D01*
X139403Y43676D01*
X139367Y43701D01*
X139330Y43723D01*
X139287Y43745D01*
X139239Y43763D01*
X139188Y43781D01*
X139134Y43799D01*
X139076Y43814D01*
X139159Y44149D01*
X139163D01*
X139177Y44145D01*
D02*
G37*
G36*
X137828Y79190D02*
X137872D01*
X137919Y79187D01*
X137970Y79183D01*
X138086Y79172D01*
X138207Y79154D01*
X138323Y79132D01*
X138378Y79117D01*
X138432Y79099D01*
X138436D01*
X138443Y79096D01*
X138458Y79088D01*
X138476Y79081D01*
X138501Y79074D01*
X138527Y79059D01*
X138589Y79030D01*
X138654Y78994D01*
X138727Y78946D01*
X138793Y78892D01*
X138854Y78826D01*
Y78823D01*
X138862Y78819D01*
X138869Y78808D01*
X138876Y78794D01*
X138887Y78775D01*
X138902Y78757D01*
X138927Y78702D01*
X138953Y78637D01*
X138978Y78561D01*
X138993Y78470D01*
X139000Y78371D01*
Y78335D01*
X138996Y78309D01*
X138993Y78280D01*
X138986Y78244D01*
X138978Y78204D01*
X138967Y78160D01*
X138953Y78116D01*
X138938Y78069D01*
X138916Y78022D01*
X138891Y77974D01*
X138862Y77927D01*
X138825Y77880D01*
X138785Y77836D01*
X138742Y77796D01*
X138738Y77793D01*
X138727Y77785D01*
X138709Y77774D01*
X138680Y77756D01*
X138647Y77738D01*
X138603Y77720D01*
X138552Y77694D01*
X138494Y77672D01*
X138428Y77650D01*
X138352Y77629D01*
X138268Y77607D01*
X138174Y77589D01*
X138072Y77570D01*
X137963Y77560D01*
X137843Y77552D01*
X137715Y77549D01*
X137712D01*
X137697D01*
X137671D01*
X137642D01*
X137602Y77552D01*
X137559D01*
X137511Y77556D01*
X137457Y77560D01*
X137344Y77570D01*
X137224Y77589D01*
X137104Y77610D01*
X137049Y77625D01*
X136994Y77640D01*
X136991D01*
X136984Y77643D01*
X136969Y77650D01*
X136951Y77658D01*
X136925Y77665D01*
X136900Y77680D01*
X136838Y77709D01*
X136772Y77745D01*
X136703Y77793D01*
X136634Y77847D01*
X136576Y77913D01*
Y77916D01*
X136568Y77920D01*
X136561Y77931D01*
X136554Y77945D01*
X136539Y77964D01*
X136529Y77985D01*
X136499Y78040D01*
X136474Y78105D01*
X136448Y78182D01*
X136434Y78273D01*
X136426Y78371D01*
Y78404D01*
X136430Y78444D01*
X136437Y78491D01*
X136448Y78546D01*
X136463Y78604D01*
X136481Y78666D01*
X136510Y78724D01*
Y78728D01*
X136514Y78732D01*
X136525Y78750D01*
X136543Y78779D01*
X136568Y78815D01*
X136605Y78855D01*
X136645Y78899D01*
X136692Y78939D01*
X136747Y78979D01*
X136754Y78983D01*
X136772Y78997D01*
X136805Y79012D01*
X136852Y79037D01*
X136907Y79059D01*
X136969Y79088D01*
X137042Y79114D01*
X137122Y79136D01*
X137125D01*
X137133Y79139D01*
X137144Y79143D01*
X137162Y79147D01*
X137184Y79150D01*
X137209Y79154D01*
X137242Y79161D01*
X137278Y79165D01*
X137318Y79172D01*
X137362Y79176D01*
X137413Y79179D01*
X137464Y79187D01*
X137522Y79190D01*
X137580D01*
X137646Y79194D01*
X137715D01*
X137719D01*
X137733D01*
X137759D01*
X137788D01*
X137828Y79190D01*
D02*
G37*
G36*
X138956Y76446D02*
X136987D01*
X136991Y76442D01*
X137005Y76424D01*
X137027Y76402D01*
X137053Y76366D01*
X137085Y76326D01*
X137122Y76275D01*
X137162Y76216D01*
X137202Y76151D01*
Y76147D01*
X137206Y76144D01*
X137220Y76122D01*
X137238Y76085D01*
X137260Y76042D01*
X137286Y75991D01*
X137311Y75936D01*
X137337Y75881D01*
X137358Y75827D01*
X137060D01*
Y75831D01*
X137053Y75838D01*
X137049Y75852D01*
X137038Y75871D01*
X137027Y75892D01*
X137013Y75918D01*
X136976Y75980D01*
X136936Y76053D01*
X136885Y76125D01*
X136827Y76202D01*
X136765Y76278D01*
X136761Y76282D01*
X136758Y76285D01*
X136747Y76297D01*
X136736Y76311D01*
X136699Y76344D01*
X136656Y76388D01*
X136605Y76431D01*
X136547Y76478D01*
X136488Y76518D01*
X136426Y76555D01*
Y76755D01*
X138956D01*
Y76446D01*
D02*
G37*
G36*
X138177Y75303D02*
X138199Y75296D01*
X138228Y75284D01*
X138261Y75274D01*
X138301Y75259D01*
X138345Y75241D01*
X138392Y75219D01*
X138494Y75168D01*
X138596Y75103D01*
X138647Y75063D01*
X138698Y75023D01*
X138742Y74979D01*
X138785Y74928D01*
X138789Y74924D01*
X138796Y74917D01*
X138804Y74899D01*
X138818Y74880D01*
X138836Y74851D01*
X138854Y74822D01*
X138873Y74782D01*
X138891Y74742D01*
X138913Y74695D01*
X138931Y74644D01*
X138949Y74589D01*
X138967Y74531D01*
X138982Y74469D01*
X138989Y74404D01*
X138996Y74335D01*
X139000Y74262D01*
Y74222D01*
X138996Y74193D01*
Y74160D01*
X138993Y74120D01*
X138986Y74076D01*
X138978Y74025D01*
X138960Y73919D01*
X138931Y73810D01*
X138891Y73701D01*
X138865Y73650D01*
X138836Y73599D01*
X138833Y73596D01*
X138829Y73588D01*
X138818Y73574D01*
X138804Y73559D01*
X138789Y73537D01*
X138767Y73512D01*
X138742Y73483D01*
X138713Y73454D01*
X138680Y73425D01*
X138647Y73392D01*
X138563Y73326D01*
X138465Y73264D01*
X138356Y73210D01*
X138352D01*
X138341Y73202D01*
X138323Y73199D01*
X138301Y73188D01*
X138272Y73181D01*
X138236Y73170D01*
X138196Y73155D01*
X138152Y73144D01*
X138105Y73133D01*
X138050Y73119D01*
X137937Y73101D01*
X137810Y73086D01*
X137679Y73079D01*
X137675D01*
X137661D01*
X137639D01*
X137613Y73082D01*
X137577D01*
X137540Y73086D01*
X137493Y73090D01*
X137446Y73097D01*
X137340Y73115D01*
X137224Y73141D01*
X137107Y73177D01*
X136994Y73228D01*
X136991Y73232D01*
X136980Y73235D01*
X136965Y73242D01*
X136947Y73257D01*
X136922Y73272D01*
X136892Y73290D01*
X136827Y73337D01*
X136754Y73399D01*
X136681Y73472D01*
X136609Y73555D01*
X136547Y73654D01*
X136543Y73657D01*
X136539Y73668D01*
X136532Y73683D01*
X136521Y73701D01*
X136510Y73730D01*
X136499Y73759D01*
X136485Y73796D01*
X136470Y73836D01*
X136456Y73879D01*
X136441Y73927D01*
X136419Y74029D01*
X136401Y74145D01*
X136394Y74265D01*
Y74302D01*
X136397Y74327D01*
X136401Y74360D01*
X136405Y74400D01*
X136408Y74440D01*
X136419Y74487D01*
X136441Y74586D01*
X136474Y74695D01*
X136496Y74749D01*
X136521Y74800D01*
X136554Y74851D01*
X136587Y74902D01*
X136590Y74906D01*
X136594Y74913D01*
X136605Y74928D01*
X136623Y74946D01*
X136641Y74964D01*
X136667Y74990D01*
X136696Y75015D01*
X136725Y75044D01*
X136761Y75073D01*
X136805Y75103D01*
X136849Y75135D01*
X136896Y75164D01*
X136951Y75190D01*
X137005Y75219D01*
X137064Y75241D01*
X137129Y75263D01*
X137206Y74935D01*
X137202D01*
X137195Y74931D01*
X137180Y74924D01*
X137162Y74917D01*
X137140Y74910D01*
X137111Y74899D01*
X137053Y74870D01*
X136987Y74833D01*
X136922Y74790D01*
X136860Y74735D01*
X136805Y74677D01*
X136798Y74669D01*
X136783Y74647D01*
X136765Y74611D01*
X136740Y74564D01*
X136718Y74502D01*
X136696Y74433D01*
X136681Y74349D01*
X136678Y74258D01*
Y74229D01*
X136681Y74211D01*
Y74185D01*
X136685Y74156D01*
X136696Y74087D01*
X136711Y74010D01*
X136736Y73930D01*
X136772Y73847D01*
X136820Y73770D01*
Y73767D01*
X136827Y73763D01*
X136845Y73738D01*
X136874Y73705D01*
X136918Y73665D01*
X136973Y73617D01*
X137034Y73574D01*
X137111Y73534D01*
X137195Y73497D01*
X137198D01*
X137206Y73494D01*
X137216Y73490D01*
X137235Y73486D01*
X137257Y73479D01*
X137282Y73472D01*
X137344Y73461D01*
X137417Y73446D01*
X137497Y73432D01*
X137584Y73425D01*
X137679Y73421D01*
X137682D01*
X137693D01*
X137712D01*
X137733D01*
X137759Y73425D01*
X137792D01*
X137828Y73428D01*
X137868Y73432D01*
X137955Y73443D01*
X138050Y73461D01*
X138145Y73483D01*
X138239Y73512D01*
X138243D01*
X138250Y73515D01*
X138261Y73523D01*
X138279Y73530D01*
X138323Y73552D01*
X138374Y73585D01*
X138432Y73625D01*
X138494Y73676D01*
X138549Y73734D01*
X138600Y73803D01*
Y73807D01*
X138603Y73814D01*
X138610Y73825D01*
X138618Y73839D01*
X138625Y73858D01*
X138636Y73879D01*
X138658Y73930D01*
X138680Y73996D01*
X138698Y74069D01*
X138713Y74149D01*
X138716Y74233D01*
Y74258D01*
X138713Y74280D01*
Y74305D01*
X138709Y74331D01*
X138694Y74396D01*
X138676Y74473D01*
X138647Y74549D01*
X138607Y74629D01*
X138585Y74669D01*
X138556Y74706D01*
X138552Y74709D01*
X138549Y74713D01*
X138538Y74724D01*
X138527Y74739D01*
X138509Y74753D01*
X138487Y74771D01*
X138465Y74793D01*
X138436Y74811D01*
X138403Y74833D01*
X138367Y74859D01*
X138330Y74880D01*
X138287Y74902D01*
X138239Y74920D01*
X138188Y74939D01*
X138134Y74957D01*
X138075Y74971D01*
X138159Y75306D01*
X138163D01*
X138177Y75303D01*
D02*
G37*
G36*
X81387Y296918D02*
X81423D01*
X81460Y296914D01*
X81507Y296910D01*
X81554Y296903D01*
X81660Y296885D01*
X81776Y296859D01*
X81893Y296823D01*
X82006Y296772D01*
X82009Y296768D01*
X82020Y296765D01*
X82035Y296758D01*
X82053Y296743D01*
X82078Y296728D01*
X82108Y296710D01*
X82173Y296663D01*
X82246Y296601D01*
X82319Y296528D01*
X82391Y296445D01*
X82453Y296346D01*
X82457Y296342D01*
X82461Y296332D01*
X82468Y296317D01*
X82479Y296299D01*
X82490Y296270D01*
X82501Y296241D01*
X82515Y296204D01*
X82530Y296164D01*
X82544Y296121D01*
X82559Y296073D01*
X82581Y295971D01*
X82599Y295855D01*
X82606Y295735D01*
Y295698D01*
X82603Y295673D01*
X82599Y295640D01*
X82595Y295600D01*
X82592Y295560D01*
X82581Y295513D01*
X82559Y295414D01*
X82526Y295305D01*
X82504Y295251D01*
X82479Y295200D01*
X82446Y295149D01*
X82413Y295098D01*
X82410Y295094D01*
X82406Y295087D01*
X82395Y295072D01*
X82377Y295054D01*
X82359Y295036D01*
X82333Y295010D01*
X82304Y294985D01*
X82275Y294956D01*
X82239Y294927D01*
X82195Y294897D01*
X82151Y294865D01*
X82104Y294836D01*
X82049Y294810D01*
X81995Y294781D01*
X81936Y294759D01*
X81871Y294737D01*
X81795Y295065D01*
X81798D01*
X81805Y295069D01*
X81820Y295076D01*
X81838Y295083D01*
X81860Y295090D01*
X81889Y295101D01*
X81947Y295130D01*
X82013Y295167D01*
X82078Y295211D01*
X82140Y295265D01*
X82195Y295323D01*
X82202Y295331D01*
X82217Y295352D01*
X82235Y295389D01*
X82260Y295436D01*
X82282Y295498D01*
X82304Y295567D01*
X82319Y295651D01*
X82322Y295742D01*
Y295771D01*
X82319Y295789D01*
Y295815D01*
X82315Y295844D01*
X82304Y295913D01*
X82289Y295989D01*
X82264Y296070D01*
X82228Y296153D01*
X82180Y296230D01*
Y296233D01*
X82173Y296237D01*
X82155Y296262D01*
X82126Y296295D01*
X82082Y296335D01*
X82027Y296383D01*
X81966Y296426D01*
X81889Y296466D01*
X81805Y296503D01*
X81802D01*
X81795Y296506D01*
X81784Y296510D01*
X81765Y296514D01*
X81744Y296521D01*
X81718Y296528D01*
X81656Y296539D01*
X81583Y296554D01*
X81503Y296568D01*
X81416Y296575D01*
X81321Y296579D01*
X81318D01*
X81307D01*
X81288D01*
X81267D01*
X81241Y296575D01*
X81208D01*
X81172Y296572D01*
X81132Y296568D01*
X81045Y296557D01*
X80950Y296539D01*
X80855Y296517D01*
X80761Y296488D01*
X80757D01*
X80750Y296484D01*
X80739Y296477D01*
X80721Y296470D01*
X80677Y296448D01*
X80626Y296415D01*
X80568Y296375D01*
X80506Y296324D01*
X80451Y296266D01*
X80400Y296197D01*
Y296193D01*
X80397Y296186D01*
X80389Y296175D01*
X80382Y296161D01*
X80375Y296142D01*
X80364Y296121D01*
X80342Y296070D01*
X80320Y296004D01*
X80302Y295931D01*
X80287Y295851D01*
X80284Y295767D01*
Y295742D01*
X80287Y295720D01*
Y295695D01*
X80291Y295669D01*
X80306Y295604D01*
X80324Y295527D01*
X80353Y295451D01*
X80393Y295371D01*
X80415Y295331D01*
X80444Y295294D01*
X80448Y295291D01*
X80451Y295287D01*
X80462Y295276D01*
X80473Y295262D01*
X80491Y295247D01*
X80513Y295229D01*
X80535Y295207D01*
X80564Y295189D01*
X80597Y295167D01*
X80633Y295141D01*
X80670Y295120D01*
X80713Y295098D01*
X80761Y295079D01*
X80812Y295061D01*
X80866Y295043D01*
X80924Y295028D01*
X80841Y294694D01*
X80837D01*
X80823Y294697D01*
X80801Y294705D01*
X80772Y294715D01*
X80739Y294726D01*
X80699Y294741D01*
X80655Y294759D01*
X80608Y294781D01*
X80506Y294832D01*
X80404Y294897D01*
X80353Y294937D01*
X80302Y294977D01*
X80258Y295021D01*
X80215Y295072D01*
X80211Y295076D01*
X80204Y295083D01*
X80196Y295101D01*
X80182Y295120D01*
X80164Y295149D01*
X80146Y295178D01*
X80127Y295218D01*
X80109Y295258D01*
X80087Y295305D01*
X80069Y295356D01*
X80051Y295411D01*
X80033Y295469D01*
X80018Y295531D01*
X80011Y295596D01*
X80004Y295666D01*
X80000Y295738D01*
Y295778D01*
X80004Y295808D01*
Y295840D01*
X80007Y295880D01*
X80014Y295924D01*
X80022Y295975D01*
X80040Y296080D01*
X80069Y296190D01*
X80109Y296299D01*
X80135Y296350D01*
X80164Y296401D01*
X80167Y296404D01*
X80171Y296412D01*
X80182Y296426D01*
X80196Y296441D01*
X80211Y296463D01*
X80233Y296488D01*
X80258Y296517D01*
X80287Y296546D01*
X80320Y296575D01*
X80353Y296608D01*
X80437Y296674D01*
X80535Y296736D01*
X80644Y296790D01*
X80648D01*
X80659Y296797D01*
X80677Y296801D01*
X80699Y296812D01*
X80728Y296819D01*
X80764Y296830D01*
X80804Y296845D01*
X80848Y296856D01*
X80895Y296867D01*
X80950Y296881D01*
X81063Y296899D01*
X81190Y296914D01*
X81321Y296921D01*
X81325D01*
X81340D01*
X81361D01*
X81387Y296918D01*
D02*
G37*
G36*
X81940Y294169D02*
X81947Y294162D01*
X81951Y294148D01*
X81962Y294129D01*
X81973Y294108D01*
X81987Y294082D01*
X82024Y294020D01*
X82064Y293947D01*
X82115Y293875D01*
X82173Y293798D01*
X82235Y293722D01*
X82239Y293718D01*
X82242Y293714D01*
X82253Y293704D01*
X82264Y293689D01*
X82300Y293656D01*
X82344Y293613D01*
X82395Y293569D01*
X82453Y293521D01*
X82512Y293481D01*
X82573Y293445D01*
Y293245D01*
X80044D01*
Y293554D01*
X82013D01*
X82009Y293558D01*
X81995Y293576D01*
X81973Y293598D01*
X81947Y293634D01*
X81915Y293674D01*
X81878Y293725D01*
X81838Y293784D01*
X81798Y293849D01*
Y293853D01*
X81795Y293856D01*
X81780Y293878D01*
X81762Y293915D01*
X81740Y293958D01*
X81714Y294009D01*
X81689Y294064D01*
X81663Y294118D01*
X81642Y294173D01*
X81940D01*
Y294169D01*
D02*
G37*
G36*
Y292211D02*
X81947Y292204D01*
X81951Y292189D01*
X81962Y292171D01*
X81973Y292149D01*
X81987Y292124D01*
X82024Y292062D01*
X82064Y291989D01*
X82115Y291916D01*
X82173Y291840D01*
X82235Y291763D01*
X82239Y291760D01*
X82242Y291756D01*
X82253Y291745D01*
X82264Y291731D01*
X82300Y291698D01*
X82344Y291654D01*
X82395Y291611D01*
X82453Y291563D01*
X82512Y291523D01*
X82573Y291487D01*
Y291287D01*
X80044D01*
Y291596D01*
X82013D01*
X82009Y291600D01*
X81995Y291618D01*
X81973Y291640D01*
X81947Y291676D01*
X81915Y291716D01*
X81878Y291767D01*
X81838Y291825D01*
X81798Y291891D01*
Y291895D01*
X81795Y291898D01*
X81780Y291920D01*
X81762Y291956D01*
X81740Y292000D01*
X81714Y292051D01*
X81689Y292106D01*
X81663Y292160D01*
X81642Y292215D01*
X81940D01*
Y292211D01*
D02*
G37*
G36*
X102268Y200040D02*
X102297Y200036D01*
X102330Y200029D01*
X102367Y200022D01*
X102407Y200015D01*
X102494Y199985D01*
X102541Y199964D01*
X102585Y199942D01*
X102632Y199913D01*
X102680Y199880D01*
X102727Y199844D01*
X102771Y199800D01*
X102774Y199796D01*
X102782Y199789D01*
X102793Y199774D01*
X102807Y199756D01*
X102825Y199734D01*
X102843Y199705D01*
X102865Y199672D01*
X102884Y199632D01*
X102905Y199592D01*
X102927Y199545D01*
X102945Y199498D01*
X102964Y199443D01*
X102978Y199385D01*
X102989Y199323D01*
X102996Y199261D01*
X103000Y199192D01*
Y199159D01*
X102996Y199137D01*
X102993Y199108D01*
X102989Y199075D01*
X102982Y199039D01*
X102974Y198999D01*
X102953Y198912D01*
X102916Y198821D01*
X102894Y198773D01*
X102869Y198730D01*
X102836Y198686D01*
X102804Y198642D01*
X102800Y198639D01*
X102793Y198631D01*
X102782Y198620D01*
X102767Y198609D01*
X102749Y198591D01*
X102723Y198573D01*
X102698Y198551D01*
X102665Y198529D01*
X102629Y198508D01*
X102592Y198486D01*
X102505Y198446D01*
X102403Y198413D01*
X102348Y198402D01*
X102290Y198395D01*
X102250Y198704D01*
X102254D01*
X102261Y198708D01*
X102276Y198711D01*
X102294Y198715D01*
X102316Y198719D01*
X102341Y198726D01*
X102396Y198744D01*
X102461Y198770D01*
X102523Y198802D01*
X102581Y198839D01*
X102632Y198882D01*
X102636Y198890D01*
X102651Y198904D01*
X102669Y198933D01*
X102687Y198970D01*
X102709Y199014D01*
X102727Y199068D01*
X102742Y199130D01*
X102745Y199196D01*
Y199217D01*
X102742Y199232D01*
X102738Y199272D01*
X102727Y199323D01*
X102709Y199381D01*
X102683Y199443D01*
X102647Y199505D01*
X102596Y199563D01*
X102589Y199571D01*
X102567Y199589D01*
X102534Y199610D01*
X102490Y199640D01*
X102436Y199669D01*
X102374Y199691D01*
X102301Y199709D01*
X102221Y199716D01*
X102217D01*
X102210D01*
X102199D01*
X102185Y199712D01*
X102145Y199709D01*
X102097Y199698D01*
X102039Y199683D01*
X101981Y199658D01*
X101923Y199621D01*
X101868Y199574D01*
X101861Y199567D01*
X101846Y199549D01*
X101824Y199520D01*
X101799Y199479D01*
X101773Y199428D01*
X101751Y199367D01*
X101737Y199297D01*
X101730Y199221D01*
Y199188D01*
X101733Y199163D01*
X101737Y199130D01*
X101744Y199094D01*
X101751Y199050D01*
X101762Y199003D01*
X101489Y199039D01*
Y199057D01*
X101493Y199072D01*
Y199119D01*
X101486Y199159D01*
X101479Y199206D01*
X101468Y199261D01*
X101449Y199323D01*
X101424Y199381D01*
X101391Y199443D01*
Y199447D01*
X101388Y199450D01*
X101373Y199469D01*
X101347Y199494D01*
X101315Y199523D01*
X101267Y199552D01*
X101213Y199578D01*
X101151Y199596D01*
X101114Y199603D01*
X101075D01*
X101071D01*
X101067D01*
X101045D01*
X101016Y199596D01*
X100976Y199589D01*
X100933Y199574D01*
X100885Y199556D01*
X100838Y199527D01*
X100794Y199487D01*
X100791Y199483D01*
X100776Y199465D01*
X100758Y199440D01*
X100736Y199407D01*
X100718Y199363D01*
X100699Y199312D01*
X100685Y199254D01*
X100681Y199188D01*
Y199159D01*
X100689Y199126D01*
X100696Y199083D01*
X100710Y199035D01*
X100729Y198988D01*
X100758Y198937D01*
X100794Y198890D01*
X100798Y198886D01*
X100816Y198872D01*
X100841Y198850D01*
X100878Y198824D01*
X100925Y198799D01*
X100984Y198773D01*
X101053Y198751D01*
X101133Y198737D01*
X101078Y198427D01*
X101075D01*
X101064Y198431D01*
X101049Y198435D01*
X101027Y198438D01*
X101002Y198446D01*
X100973Y198457D01*
X100903Y198478D01*
X100823Y198515D01*
X100743Y198559D01*
X100667Y198613D01*
X100598Y198682D01*
X100594Y198686D01*
X100590Y198693D01*
X100583Y198704D01*
X100572Y198719D01*
X100558Y198737D01*
X100543Y198762D01*
X100529Y198788D01*
X100510Y198821D01*
X100481Y198893D01*
X100452Y198977D01*
X100434Y199075D01*
X100426Y199126D01*
Y199217D01*
X100430Y199257D01*
X100437Y199305D01*
X100448Y199363D01*
X100467Y199428D01*
X100488Y199494D01*
X100518Y199560D01*
Y199563D01*
X100521Y199567D01*
X100532Y199589D01*
X100554Y199621D01*
X100579Y199658D01*
X100616Y199701D01*
X100656Y199745D01*
X100703Y199789D01*
X100758Y199825D01*
X100765Y199829D01*
X100783Y199840D01*
X100816Y199854D01*
X100856Y199873D01*
X100903Y199891D01*
X100958Y199905D01*
X101020Y199916D01*
X101082Y199920D01*
X101089D01*
X101111D01*
X101140Y199916D01*
X101180Y199909D01*
X101227Y199898D01*
X101278Y199880D01*
X101329Y199858D01*
X101380Y199829D01*
X101388Y199825D01*
X101402Y199814D01*
X101427Y199793D01*
X101457Y199763D01*
X101489Y199727D01*
X101526Y199683D01*
X101559Y199632D01*
X101591Y199571D01*
Y199574D01*
X101595Y199581D01*
X101599Y199592D01*
X101602Y199607D01*
X101617Y199647D01*
X101639Y199698D01*
X101668Y199756D01*
X101704Y199814D01*
X101751Y199869D01*
X101806Y199920D01*
X101813Y199924D01*
X101835Y199938D01*
X101872Y199960D01*
X101919Y199982D01*
X101977Y200004D01*
X102046Y200026D01*
X102126Y200040D01*
X102214Y200044D01*
X102217D01*
X102228D01*
X102247D01*
X102268Y200040D01*
D02*
G37*
G36*
X102956Y197288D02*
X100987D01*
X100991Y197285D01*
X101005Y197266D01*
X101027Y197245D01*
X101053Y197208D01*
X101085Y197168D01*
X101122Y197117D01*
X101162Y197059D01*
X101202Y196993D01*
Y196990D01*
X101206Y196986D01*
X101220Y196964D01*
X101238Y196928D01*
X101260Y196884D01*
X101286Y196833D01*
X101311Y196779D01*
X101337Y196724D01*
X101358Y196669D01*
X101060D01*
Y196673D01*
X101053Y196680D01*
X101049Y196695D01*
X101038Y196713D01*
X101027Y196735D01*
X101013Y196760D01*
X100976Y196822D01*
X100936Y196895D01*
X100885Y196968D01*
X100827Y197044D01*
X100765Y197121D01*
X100761Y197124D01*
X100758Y197128D01*
X100747Y197139D01*
X100736Y197153D01*
X100699Y197186D01*
X100656Y197230D01*
X100605Y197274D01*
X100547Y197321D01*
X100488Y197361D01*
X100426Y197397D01*
Y197598D01*
X102956D01*
Y197288D01*
D02*
G37*
G36*
X102177Y196145D02*
X102199Y196138D01*
X102228Y196127D01*
X102261Y196116D01*
X102301Y196102D01*
X102345Y196083D01*
X102392Y196062D01*
X102494Y196011D01*
X102596Y195945D01*
X102647Y195905D01*
X102698Y195865D01*
X102742Y195821D01*
X102785Y195770D01*
X102789Y195767D01*
X102796Y195759D01*
X102804Y195741D01*
X102818Y195723D01*
X102836Y195694D01*
X102854Y195665D01*
X102873Y195625D01*
X102891Y195585D01*
X102913Y195537D01*
X102931Y195486D01*
X102949Y195432D01*
X102967Y195374D01*
X102982Y195312D01*
X102989Y195246D01*
X102996Y195177D01*
X103000Y195104D01*
Y195064D01*
X102996Y195035D01*
Y195002D01*
X102993Y194962D01*
X102986Y194919D01*
X102978Y194868D01*
X102960Y194762D01*
X102931Y194653D01*
X102891Y194544D01*
X102865Y194493D01*
X102836Y194442D01*
X102833Y194438D01*
X102829Y194431D01*
X102818Y194416D01*
X102804Y194402D01*
X102789Y194380D01*
X102767Y194354D01*
X102742Y194325D01*
X102713Y194296D01*
X102680Y194267D01*
X102647Y194234D01*
X102563Y194169D01*
X102465Y194107D01*
X102356Y194052D01*
X102352D01*
X102341Y194045D01*
X102323Y194041D01*
X102301Y194030D01*
X102272Y194023D01*
X102236Y194012D01*
X102196Y193998D01*
X102152Y193987D01*
X102105Y193976D01*
X102050Y193961D01*
X101937Y193943D01*
X101810Y193929D01*
X101679Y193921D01*
X101675D01*
X101661D01*
X101639D01*
X101613Y193925D01*
X101577D01*
X101540Y193929D01*
X101493Y193932D01*
X101446Y193939D01*
X101340Y193958D01*
X101224Y193983D01*
X101107Y194019D01*
X100994Y194070D01*
X100991Y194074D01*
X100980Y194078D01*
X100965Y194085D01*
X100947Y194100D01*
X100922Y194114D01*
X100892Y194132D01*
X100827Y194180D01*
X100754Y194241D01*
X100681Y194314D01*
X100609Y194398D01*
X100547Y194496D01*
X100543Y194500D01*
X100539Y194511D01*
X100532Y194526D01*
X100521Y194544D01*
X100510Y194573D01*
X100499Y194602D01*
X100485Y194638D01*
X100470Y194678D01*
X100456Y194722D01*
X100441Y194769D01*
X100419Y194871D01*
X100401Y194988D01*
X100394Y195108D01*
Y195144D01*
X100397Y195170D01*
X100401Y195203D01*
X100405Y195243D01*
X100408Y195283D01*
X100419Y195330D01*
X100441Y195428D01*
X100474Y195537D01*
X100496Y195592D01*
X100521Y195643D01*
X100554Y195694D01*
X100587Y195745D01*
X100590Y195748D01*
X100594Y195756D01*
X100605Y195770D01*
X100623Y195789D01*
X100641Y195807D01*
X100667Y195832D01*
X100696Y195858D01*
X100725Y195887D01*
X100761Y195916D01*
X100805Y195945D01*
X100849Y195978D01*
X100896Y196007D01*
X100951Y196032D01*
X101005Y196062D01*
X101064Y196083D01*
X101129Y196105D01*
X101206Y195778D01*
X101202D01*
X101195Y195774D01*
X101180Y195767D01*
X101162Y195759D01*
X101140Y195752D01*
X101111Y195741D01*
X101053Y195712D01*
X100987Y195676D01*
X100922Y195632D01*
X100860Y195577D01*
X100805Y195519D01*
X100798Y195512D01*
X100783Y195490D01*
X100765Y195454D01*
X100740Y195406D01*
X100718Y195344D01*
X100696Y195275D01*
X100681Y195192D01*
X100678Y195101D01*
Y195071D01*
X100681Y195053D01*
Y195028D01*
X100685Y194999D01*
X100696Y194930D01*
X100710Y194853D01*
X100736Y194773D01*
X100772Y194689D01*
X100820Y194613D01*
Y194609D01*
X100827Y194606D01*
X100845Y194580D01*
X100874Y194547D01*
X100918Y194507D01*
X100973Y194460D01*
X101034Y194416D01*
X101111Y194376D01*
X101195Y194340D01*
X101198D01*
X101206Y194336D01*
X101216Y194333D01*
X101235Y194329D01*
X101257Y194322D01*
X101282Y194314D01*
X101344Y194303D01*
X101417Y194289D01*
X101497Y194274D01*
X101584Y194267D01*
X101679Y194263D01*
X101682D01*
X101693D01*
X101711D01*
X101733D01*
X101759Y194267D01*
X101792D01*
X101828Y194271D01*
X101868Y194274D01*
X101955Y194285D01*
X102050Y194303D01*
X102145Y194325D01*
X102239Y194354D01*
X102243D01*
X102250Y194358D01*
X102261Y194365D01*
X102279Y194373D01*
X102323Y194394D01*
X102374Y194427D01*
X102432Y194467D01*
X102494Y194518D01*
X102549Y194576D01*
X102600Y194646D01*
Y194649D01*
X102603Y194657D01*
X102611Y194667D01*
X102618Y194682D01*
X102625Y194700D01*
X102636Y194722D01*
X102658Y194773D01*
X102680Y194839D01*
X102698Y194911D01*
X102713Y194991D01*
X102716Y195075D01*
Y195101D01*
X102713Y195122D01*
Y195148D01*
X102709Y195173D01*
X102694Y195239D01*
X102676Y195315D01*
X102647Y195392D01*
X102607Y195472D01*
X102585Y195512D01*
X102556Y195548D01*
X102552Y195552D01*
X102549Y195556D01*
X102538Y195566D01*
X102527Y195581D01*
X102509Y195596D01*
X102487Y195614D01*
X102465Y195636D01*
X102436Y195654D01*
X102403Y195676D01*
X102367Y195701D01*
X102330Y195723D01*
X102287Y195745D01*
X102239Y195763D01*
X102188Y195781D01*
X102134Y195800D01*
X102076Y195814D01*
X102159Y196149D01*
X102163D01*
X102177Y196145D01*
D02*
G37*
%LPC*%
G36*
X80220Y78665D02*
X78298D01*
Y78068D01*
X78302Y78043D01*
X78306Y77988D01*
X78309Y77926D01*
X78317Y77861D01*
X78328Y77795D01*
X78342Y77741D01*
X78346Y77733D01*
X78349Y77715D01*
X78360Y77690D01*
X78375Y77657D01*
X78397Y77621D01*
X78419Y77584D01*
X78444Y77548D01*
X78473Y77511D01*
X78480Y77508D01*
X78495Y77493D01*
X78521Y77471D01*
X78557Y77446D01*
X78604Y77417D01*
X78659Y77384D01*
X78721Y77355D01*
X78790Y77329D01*
X78794D01*
X78801Y77326D01*
X78812Y77322D01*
X78826Y77318D01*
X78844Y77315D01*
X78870Y77307D01*
X78895Y77300D01*
X78925Y77293D01*
X78997Y77282D01*
X79081Y77271D01*
X79176Y77264D01*
X79278Y77260D01*
X79281D01*
X79296D01*
X79314D01*
X79343Y77264D01*
X79376D01*
X79412Y77267D01*
X79456Y77271D01*
X79500Y77275D01*
X79598Y77293D01*
X79700Y77315D01*
X79795Y77347D01*
X79842Y77369D01*
X79882Y77391D01*
X79886D01*
X79893Y77398D01*
X79904Y77406D01*
X79918Y77413D01*
X79955Y77442D01*
X79998Y77478D01*
X80046Y77526D01*
X80093Y77580D01*
X80133Y77642D01*
X80166Y77708D01*
X80169Y77715D01*
X80173Y77733D01*
X80184Y77766D01*
X80195Y77813D01*
X80202Y77872D01*
X80213Y77944D01*
X80217Y77988D01*
Y78035D01*
X80220Y78083D01*
Y78665D01*
D02*
G37*
G36*
X103068Y134381D02*
X101940D01*
X103068Y133588D01*
Y134381D01*
D02*
G37*
G36*
X209665Y272595D02*
X208915D01*
X208872Y272591D01*
X208821Y272588D01*
X208762Y272584D01*
X208704Y272577D01*
X208646Y272566D01*
X208595Y272551D01*
X208588Y272548D01*
X208573Y272540D01*
X208551Y272530D01*
X208522Y272515D01*
X208489Y272493D01*
X208457Y272468D01*
X208424Y272435D01*
X208398Y272398D01*
X208395Y272395D01*
X208387Y272380D01*
X208377Y272358D01*
X208362Y272329D01*
X208351Y272297D01*
X208340Y272260D01*
X208333Y272216D01*
X208329Y272173D01*
Y272169D01*
Y272165D01*
X208333Y272144D01*
X208336Y272111D01*
X208344Y272067D01*
X208362Y272024D01*
X208384Y271973D01*
X208417Y271925D01*
X208460Y271878D01*
X208468Y271874D01*
X208486Y271860D01*
X208515Y271842D01*
X208562Y271820D01*
X208617Y271798D01*
X208690Y271780D01*
X208773Y271765D01*
X208872Y271761D01*
X209665D01*
Y272595D01*
D02*
G37*
G36*
X132220Y273665D02*
X130298D01*
Y273068D01*
X130302Y273043D01*
X130306Y272988D01*
X130309Y272926D01*
X130317Y272861D01*
X130327Y272795D01*
X130342Y272741D01*
X130346Y272733D01*
X130349Y272715D01*
X130360Y272690D01*
X130375Y272657D01*
X130397Y272621D01*
X130419Y272584D01*
X130444Y272548D01*
X130473Y272511D01*
X130480Y272508D01*
X130495Y272493D01*
X130520Y272471D01*
X130557Y272446D01*
X130604Y272417D01*
X130659Y272384D01*
X130721Y272355D01*
X130790Y272329D01*
X130793D01*
X130801Y272326D01*
X130812Y272322D01*
X130826Y272318D01*
X130844Y272315D01*
X130870Y272307D01*
X130895Y272300D01*
X130924Y272293D01*
X130997Y272282D01*
X131081Y272271D01*
X131176Y272264D01*
X131278Y272260D01*
X131281D01*
X131296D01*
X131314D01*
X131343Y272264D01*
X131376D01*
X131412Y272267D01*
X131456Y272271D01*
X131500Y272275D01*
X131598Y272293D01*
X131700Y272315D01*
X131795Y272347D01*
X131842Y272369D01*
X131882Y272391D01*
X131886D01*
X131893Y272398D01*
X131904Y272406D01*
X131918Y272413D01*
X131955Y272442D01*
X131998Y272479D01*
X132046Y272526D01*
X132093Y272580D01*
X132133Y272642D01*
X132166Y272708D01*
X132169Y272715D01*
X132173Y272733D01*
X132184Y272766D01*
X132195Y272813D01*
X132202Y272872D01*
X132213Y272944D01*
X132217Y272988D01*
Y273035D01*
X132220Y273083D01*
Y273665D01*
D02*
G37*
G36*
X51929Y293995D02*
X51925D01*
X51922D01*
X51900Y293991D01*
X51867Y293987D01*
X51827Y293980D01*
X51780Y293966D01*
X51733Y293947D01*
X51682Y293918D01*
X51638Y293882D01*
X51634Y293878D01*
X51620Y293860D01*
X51601Y293835D01*
X51583Y293802D01*
X51561Y293758D01*
X51543Y293707D01*
X51529Y293649D01*
X51525Y293583D01*
Y293576D01*
X51529Y293554D01*
X51532Y293521D01*
X51540Y293478D01*
X51554Y293430D01*
X51572Y293383D01*
X51601Y293332D01*
X51638Y293289D01*
X51642Y293285D01*
X51660Y293270D01*
X51682Y293252D01*
X51714Y293230D01*
X51754Y293209D01*
X51802Y293190D01*
X51856Y293176D01*
X51915Y293172D01*
X51918D01*
X51922D01*
X51944D01*
X51977Y293179D01*
X52017Y293187D01*
X52060Y293201D01*
X52108Y293223D01*
X52155Y293252D01*
X52202Y293292D01*
X52206Y293296D01*
X52220Y293314D01*
X52239Y293339D01*
X52260Y293372D01*
X52282Y293416D01*
X52300Y293463D01*
X52315Y293521D01*
X52319Y293583D01*
Y293613D01*
X52311Y293645D01*
X52304Y293689D01*
X52289Y293736D01*
X52271Y293787D01*
X52242Y293835D01*
X52202Y293882D01*
X52198Y293885D01*
X52184Y293900D01*
X52158Y293918D01*
X52126Y293936D01*
X52086Y293958D01*
X52038Y293976D01*
X51987Y293991D01*
X51929Y293995D01*
D02*
G37*
G36*
X50768Y294097D02*
X50761D01*
X50746D01*
X50721Y294093D01*
X50688Y294089D01*
X50648Y294082D01*
X50604Y294071D01*
X50560Y294057D01*
X50513Y294038D01*
X50510Y294035D01*
X50491Y294027D01*
X50469Y294013D01*
X50444Y293991D01*
X50411Y293966D01*
X50379Y293933D01*
X50349Y293897D01*
X50320Y293853D01*
X50317Y293846D01*
X50309Y293831D01*
X50298Y293806D01*
X50287Y293773D01*
X50277Y293733D01*
X50266Y293685D01*
X50258Y293634D01*
X50255Y293583D01*
Y293562D01*
X50258Y293547D01*
X50262Y293503D01*
X50273Y293452D01*
X50291Y293394D01*
X50313Y293332D01*
X50349Y293274D01*
X50397Y293216D01*
X50404Y293209D01*
X50422Y293194D01*
X50455Y293168D01*
X50495Y293143D01*
X50546Y293117D01*
X50608Y293092D01*
X50681Y293077D01*
X50757Y293070D01*
X50761D01*
X50768D01*
X50779D01*
X50793Y293074D01*
X50833Y293077D01*
X50888Y293088D01*
X50943Y293107D01*
X51005Y293132D01*
X51066Y293168D01*
X51125Y293219D01*
X51132Y293227D01*
X51147Y293245D01*
X51172Y293278D01*
X51201Y293321D01*
X51227Y293376D01*
X51252Y293441D01*
X51267Y293514D01*
X51274Y293594D01*
Y293616D01*
X51270Y293631D01*
X51267Y293671D01*
X51256Y293722D01*
X51237Y293780D01*
X51212Y293838D01*
X51176Y293900D01*
X51128Y293955D01*
X51121Y293962D01*
X51103Y293976D01*
X51070Y293998D01*
X51030Y294024D01*
X50976Y294053D01*
X50914Y294075D01*
X50844Y294089D01*
X50768Y294097D01*
D02*
G37*
G36*
X254292Y92068D02*
X253498D01*
Y90940D01*
X254292Y92068D01*
D02*
G37*
G36*
X170282Y58665D02*
X169449D01*
Y57915D01*
X169452Y57872D01*
X169456Y57821D01*
X169460Y57762D01*
X169467Y57704D01*
X169478Y57646D01*
X169492Y57595D01*
X169496Y57588D01*
X169503Y57573D01*
X169514Y57551D01*
X169529Y57522D01*
X169551Y57489D01*
X169576Y57457D01*
X169609Y57424D01*
X169645Y57398D01*
X169649Y57395D01*
X169663Y57388D01*
X169685Y57377D01*
X169714Y57362D01*
X169747Y57351D01*
X169783Y57340D01*
X169827Y57333D01*
X169871Y57329D01*
X169875D01*
X169878D01*
X169900Y57333D01*
X169933Y57336D01*
X169976Y57344D01*
X170020Y57362D01*
X170071Y57384D01*
X170118Y57417D01*
X170166Y57460D01*
X170169Y57468D01*
X170184Y57486D01*
X170202Y57515D01*
X170224Y57562D01*
X170246Y57617D01*
X170264Y57690D01*
X170279Y57773D01*
X170282Y57872D01*
Y58665D01*
D02*
G37*
G36*
X250400Y110017D02*
X249606Y108888D01*
X250400D01*
Y110017D01*
D02*
G37*
G36*
X248128Y110239D02*
X247335D01*
Y109405D01*
X248085D01*
X248128Y109409D01*
X248179Y109412D01*
X248238Y109416D01*
X248296Y109423D01*
X248354Y109434D01*
X248405Y109449D01*
X248412Y109452D01*
X248427Y109460D01*
X248449Y109470D01*
X248478Y109485D01*
X248511Y109507D01*
X248543Y109532D01*
X248576Y109565D01*
X248602Y109601D01*
X248605Y109605D01*
X248612Y109620D01*
X248623Y109642D01*
X248638Y109671D01*
X248649Y109704D01*
X248660Y109740D01*
X248667Y109783D01*
X248671Y109827D01*
Y109831D01*
Y109835D01*
X248667Y109856D01*
X248663Y109889D01*
X248656Y109933D01*
X248638Y109976D01*
X248616Y110027D01*
X248583Y110075D01*
X248540Y110122D01*
X248532Y110126D01*
X248514Y110140D01*
X248485Y110159D01*
X248438Y110180D01*
X248383Y110202D01*
X248310Y110220D01*
X248227Y110235D01*
X248128Y110239D01*
D02*
G37*
G36*
X238633Y20745D02*
X238615D01*
X238600Y20742D01*
X238564Y20738D01*
X238517Y20727D01*
X238466Y20705D01*
X238407Y20680D01*
X238349Y20640D01*
X238320Y20618D01*
X238295Y20589D01*
Y20585D01*
X238287Y20581D01*
X238273Y20560D01*
X238251Y20523D01*
X238222Y20476D01*
X238196Y20414D01*
X238174Y20341D01*
X238160Y20257D01*
X238153Y20159D01*
Y20155D01*
Y20148D01*
Y20134D01*
X238156Y20116D01*
Y20094D01*
X238160Y20068D01*
X238171Y20010D01*
X238185Y19944D01*
X238211Y19875D01*
X238247Y19810D01*
X238295Y19748D01*
X238302Y19741D01*
X238320Y19722D01*
X238349Y19701D01*
X238389Y19671D01*
X238440Y19642D01*
X238498Y19621D01*
X238567Y19602D01*
X238644Y19595D01*
X238666D01*
X238680Y19599D01*
X238717Y19602D01*
X238768Y19613D01*
X238822Y19631D01*
X238884Y19660D01*
X238942Y19697D01*
X239001Y19748D01*
X239008Y19755D01*
X239022Y19773D01*
X239048Y19806D01*
X239073Y19853D01*
X239099Y19908D01*
X239124Y19977D01*
X239139Y20054D01*
X239146Y20141D01*
Y20148D01*
Y20166D01*
X239143Y20199D01*
X239139Y20239D01*
X239132Y20287D01*
X239117Y20337D01*
X239103Y20392D01*
X239081Y20447D01*
X239077Y20454D01*
X239066Y20472D01*
X239052Y20498D01*
X239030Y20530D01*
X239004Y20563D01*
X238971Y20603D01*
X238935Y20636D01*
X238892Y20669D01*
X238884Y20672D01*
X238870Y20680D01*
X238844Y20694D01*
X238811Y20705D01*
X238775Y20720D01*
X238731Y20734D01*
X238684Y20742D01*
X238633Y20745D01*
D02*
G37*
G36*
X180173Y60671D02*
X180169D01*
X180166D01*
X180144Y60667D01*
X180111Y60663D01*
X180067Y60656D01*
X180024Y60638D01*
X179973Y60616D01*
X179925Y60583D01*
X179878Y60540D01*
X179874Y60532D01*
X179860Y60514D01*
X179841Y60485D01*
X179820Y60438D01*
X179798Y60383D01*
X179780Y60310D01*
X179765Y60227D01*
X179761Y60128D01*
Y59335D01*
X180595D01*
Y60085D01*
X180591Y60128D01*
X180588Y60179D01*
X180584Y60237D01*
X180577Y60296D01*
X180566Y60354D01*
X180551Y60405D01*
X180548Y60412D01*
X180540Y60427D01*
X180529Y60449D01*
X180515Y60478D01*
X180493Y60511D01*
X180468Y60543D01*
X180435Y60576D01*
X180398Y60602D01*
X180395Y60605D01*
X180380Y60612D01*
X180358Y60623D01*
X180329Y60638D01*
X180297Y60649D01*
X180260Y60660D01*
X180216Y60667D01*
X180173Y60671D01*
D02*
G37*
G36*
X33264Y260724D02*
X33260D01*
X33253D01*
X33238D01*
X33220Y260720D01*
X33195D01*
X33169Y260716D01*
X33111Y260705D01*
X33042Y260691D01*
X32969Y260665D01*
X32900Y260629D01*
X32838Y260582D01*
X32834D01*
X32831Y260574D01*
X32812Y260556D01*
X32787Y260527D01*
X32758Y260487D01*
X32732Y260436D01*
X32707Y260378D01*
X32689Y260312D01*
X32681Y260276D01*
Y260218D01*
X32685Y260203D01*
X32689Y260163D01*
X32703Y260116D01*
X32721Y260057D01*
X32754Y259996D01*
X32794Y259934D01*
X32823Y259905D01*
X32852Y259876D01*
X32856D01*
X32860Y259868D01*
X32871Y259861D01*
X32882Y259854D01*
X32918Y259828D01*
X32969Y259803D01*
X33031Y259774D01*
X33107Y259748D01*
X33195Y259734D01*
X33289Y259726D01*
X33293D01*
X33300D01*
X33311D01*
X33329Y259730D01*
X33351D01*
X33373Y259734D01*
X33428Y259745D01*
X33489Y259763D01*
X33555Y259785D01*
X33621Y259821D01*
X33679Y259868D01*
X33686Y259876D01*
X33700Y259894D01*
X33726Y259927D01*
X33751Y259967D01*
X33781Y260021D01*
X33806Y260083D01*
X33821Y260152D01*
X33828Y260229D01*
Y260250D01*
X33824Y260265D01*
X33821Y260305D01*
X33810Y260352D01*
X33792Y260411D01*
X33766Y260469D01*
X33730Y260527D01*
X33679Y260582D01*
X33671Y260589D01*
X33650Y260603D01*
X33617Y260625D01*
X33569Y260654D01*
X33511Y260680D01*
X33442Y260702D01*
X33358Y260716D01*
X33264Y260724D01*
D02*
G37*
G36*
X33129Y258671D02*
X33125D01*
X33122D01*
X33100Y258667D01*
X33067Y258663D01*
X33024Y258656D01*
X32980Y258638D01*
X32929Y258616D01*
X32882Y258583D01*
X32834Y258540D01*
X32831Y258532D01*
X32816Y258514D01*
X32798Y258485D01*
X32776Y258438D01*
X32754Y258383D01*
X32736Y258310D01*
X32721Y258227D01*
X32718Y258128D01*
Y257335D01*
X33551D01*
Y258085D01*
X33548Y258128D01*
X33544Y258179D01*
X33540Y258238D01*
X33533Y258296D01*
X33522Y258354D01*
X33508Y258405D01*
X33504Y258412D01*
X33497Y258427D01*
X33486Y258449D01*
X33471Y258478D01*
X33449Y258511D01*
X33424Y258543D01*
X33391Y258576D01*
X33355Y258601D01*
X33351Y258605D01*
X33336Y258612D01*
X33315Y258623D01*
X33286Y258638D01*
X33253Y258649D01*
X33216Y258660D01*
X33173Y258667D01*
X33129Y258671D01*
D02*
G37*
G36*
X18085Y260647D02*
X18082D01*
X18078D01*
X18056D01*
X18023Y260640D01*
X17984Y260633D01*
X17940Y260618D01*
X17892Y260596D01*
X17845Y260567D01*
X17798Y260527D01*
X17794Y260524D01*
X17780Y260505D01*
X17761Y260480D01*
X17740Y260447D01*
X17718Y260403D01*
X17699Y260356D01*
X17685Y260298D01*
X17681Y260236D01*
Y260207D01*
X17689Y260174D01*
X17696Y260130D01*
X17710Y260083D01*
X17729Y260032D01*
X17758Y259985D01*
X17798Y259937D01*
X17801Y259934D01*
X17816Y259919D01*
X17842Y259901D01*
X17874Y259883D01*
X17914Y259861D01*
X17962Y259843D01*
X18013Y259828D01*
X18071Y259825D01*
X18075D01*
X18078D01*
X18100Y259828D01*
X18133Y259832D01*
X18173Y259839D01*
X18220Y259854D01*
X18267Y259872D01*
X18318Y259901D01*
X18362Y259937D01*
X18366Y259941D01*
X18380Y259959D01*
X18398Y259985D01*
X18417Y260017D01*
X18439Y260061D01*
X18457Y260112D01*
X18471Y260170D01*
X18475Y260236D01*
Y260243D01*
X18471Y260265D01*
X18468Y260298D01*
X18460Y260342D01*
X18446Y260389D01*
X18428Y260436D01*
X18398Y260487D01*
X18362Y260531D01*
X18358Y260534D01*
X18340Y260549D01*
X18318Y260567D01*
X18286Y260589D01*
X18246Y260611D01*
X18198Y260629D01*
X18144Y260644D01*
X18085Y260647D01*
D02*
G37*
G36*
X19243Y260749D02*
X19239D01*
X19232D01*
X19221D01*
X19207Y260746D01*
X19166Y260742D01*
X19112Y260731D01*
X19057Y260713D01*
X18995Y260687D01*
X18934Y260651D01*
X18875Y260600D01*
X18868Y260593D01*
X18853Y260574D01*
X18828Y260542D01*
X18799Y260498D01*
X18773Y260443D01*
X18748Y260378D01*
X18733Y260305D01*
X18726Y260225D01*
Y260203D01*
X18730Y260189D01*
X18733Y260149D01*
X18744Y260098D01*
X18762Y260039D01*
X18788Y259981D01*
X18824Y259919D01*
X18872Y259865D01*
X18879Y259857D01*
X18897Y259843D01*
X18930Y259821D01*
X18970Y259795D01*
X19025Y259766D01*
X19086Y259745D01*
X19155Y259730D01*
X19232Y259723D01*
X19239D01*
X19254D01*
X19279Y259726D01*
X19312Y259730D01*
X19352Y259737D01*
X19396Y259748D01*
X19440Y259763D01*
X19487Y259781D01*
X19490Y259785D01*
X19509Y259792D01*
X19531Y259806D01*
X19556Y259828D01*
X19589Y259854D01*
X19622Y259887D01*
X19651Y259923D01*
X19680Y259967D01*
X19683Y259974D01*
X19691Y259988D01*
X19702Y260014D01*
X19713Y260047D01*
X19723Y260087D01*
X19734Y260134D01*
X19742Y260185D01*
X19745Y260236D01*
Y260258D01*
X19742Y260272D01*
X19738Y260316D01*
X19727Y260367D01*
X19709Y260425D01*
X19687Y260487D01*
X19651Y260545D01*
X19603Y260603D01*
X19596Y260611D01*
X19578Y260625D01*
X19545Y260651D01*
X19505Y260676D01*
X19454Y260702D01*
X19392Y260727D01*
X19319Y260742D01*
X19243Y260749D01*
D02*
G37*
G36*
X18129Y258671D02*
X18125D01*
X18122D01*
X18100Y258667D01*
X18067Y258663D01*
X18023Y258656D01*
X17980Y258638D01*
X17929Y258616D01*
X17882Y258583D01*
X17834Y258540D01*
X17831Y258532D01*
X17816Y258514D01*
X17798Y258485D01*
X17776Y258438D01*
X17754Y258383D01*
X17736Y258310D01*
X17721Y258227D01*
X17718Y258128D01*
Y257335D01*
X18551D01*
Y258085D01*
X18548Y258128D01*
X18544Y258179D01*
X18540Y258238D01*
X18533Y258296D01*
X18522Y258354D01*
X18508Y258405D01*
X18504Y258412D01*
X18497Y258427D01*
X18486Y258449D01*
X18471Y258478D01*
X18449Y258511D01*
X18424Y258543D01*
X18391Y258576D01*
X18355Y258601D01*
X18351Y258605D01*
X18337Y258612D01*
X18315Y258623D01*
X18286Y258638D01*
X18253Y258649D01*
X18216Y258660D01*
X18173Y258667D01*
X18129Y258671D01*
D02*
G37*
G36*
X246665Y120551D02*
X245915D01*
X245872Y120548D01*
X245821Y120544D01*
X245762Y120540D01*
X245704Y120533D01*
X245646Y120522D01*
X245595Y120508D01*
X245588Y120504D01*
X245573Y120497D01*
X245551Y120486D01*
X245522Y120471D01*
X245489Y120449D01*
X245457Y120424D01*
X245424Y120391D01*
X245398Y120355D01*
X245395Y120351D01*
X245388Y120337D01*
X245377Y120315D01*
X245362Y120286D01*
X245351Y120253D01*
X245340Y120216D01*
X245333Y120173D01*
X245329Y120129D01*
Y120125D01*
Y120122D01*
X245333Y120100D01*
X245337Y120067D01*
X245344Y120024D01*
X245362Y119980D01*
X245384Y119929D01*
X245417Y119881D01*
X245460Y119834D01*
X245468Y119831D01*
X245486Y119816D01*
X245515Y119798D01*
X245562Y119776D01*
X245617Y119754D01*
X245690Y119736D01*
X245773Y119721D01*
X245872Y119718D01*
X246665D01*
Y120551D01*
D02*
G37*
G36*
X216128Y95239D02*
X215335D01*
Y94405D01*
X216085D01*
X216128Y94409D01*
X216179Y94412D01*
X216238Y94416D01*
X216296Y94423D01*
X216354Y94434D01*
X216405Y94449D01*
X216412Y94452D01*
X216427Y94460D01*
X216449Y94471D01*
X216478Y94485D01*
X216511Y94507D01*
X216543Y94532D01*
X216576Y94565D01*
X216601Y94602D01*
X216605Y94605D01*
X216613Y94620D01*
X216623Y94642D01*
X216638Y94671D01*
X216649Y94704D01*
X216660Y94740D01*
X216667Y94784D01*
X216671Y94827D01*
Y94831D01*
Y94835D01*
X216667Y94856D01*
X216663Y94889D01*
X216656Y94933D01*
X216638Y94977D01*
X216616Y95027D01*
X216583Y95075D01*
X216540Y95122D01*
X216532Y95126D01*
X216514Y95140D01*
X216485Y95158D01*
X216438Y95180D01*
X216383Y95202D01*
X216310Y95220D01*
X216227Y95235D01*
X216128Y95239D01*
D02*
G37*
G36*
X138264Y45747D02*
X138260D01*
X138253D01*
X138238D01*
X138220Y45743D01*
X138195D01*
X138169Y45740D01*
X138111Y45729D01*
X138042Y45714D01*
X137969Y45689D01*
X137900Y45652D01*
X137838Y45605D01*
X137834D01*
X137831Y45598D01*
X137812Y45579D01*
X137787Y45550D01*
X137758Y45510D01*
X137732Y45459D01*
X137707Y45401D01*
X137689Y45336D01*
X137681Y45299D01*
Y45241D01*
X137685Y45226D01*
X137689Y45186D01*
X137703Y45139D01*
X137721Y45081D01*
X137754Y45019D01*
X137794Y44957D01*
X137823Y44928D01*
X137852Y44899D01*
X137856D01*
X137860Y44891D01*
X137871Y44884D01*
X137882Y44877D01*
X137918Y44851D01*
X137969Y44826D01*
X138031Y44797D01*
X138107Y44771D01*
X138195Y44757D01*
X138289Y44750D01*
X138293D01*
X138300D01*
X138311D01*
X138329Y44753D01*
X138351D01*
X138373Y44757D01*
X138427Y44768D01*
X138489Y44786D01*
X138555Y44808D01*
X138620Y44844D01*
X138679Y44891D01*
X138686Y44899D01*
X138700Y44917D01*
X138726Y44950D01*
X138751Y44990D01*
X138781Y45044D01*
X138806Y45106D01*
X138821Y45175D01*
X138828Y45252D01*
Y45274D01*
X138824Y45288D01*
X138821Y45328D01*
X138810Y45376D01*
X138792Y45434D01*
X138766Y45492D01*
X138730Y45550D01*
X138679Y45605D01*
X138671Y45612D01*
X138650Y45627D01*
X138617Y45649D01*
X138569Y45678D01*
X138511Y45703D01*
X138442Y45725D01*
X138358Y45740D01*
X138264Y45747D01*
D02*
G37*
G36*
X137828Y78877D02*
X137715D01*
X137712D01*
X137708D01*
X137690D01*
X137657D01*
X137613Y78874D01*
X137566D01*
X137508Y78870D01*
X137446Y78866D01*
X137377Y78859D01*
X137238Y78841D01*
X137169Y78830D01*
X137104Y78815D01*
X137042Y78801D01*
X136984Y78779D01*
X136933Y78757D01*
X136889Y78732D01*
X136885D01*
X136881Y78724D01*
X136871Y78717D01*
X136856Y78706D01*
X136823Y78673D01*
X136783Y78633D01*
X136747Y78579D01*
X136714Y78517D01*
X136699Y78484D01*
X136689Y78448D01*
X136685Y78408D01*
X136681Y78368D01*
Y78346D01*
X136685Y78331D01*
X136692Y78291D01*
X136703Y78244D01*
X136725Y78189D01*
X136758Y78131D01*
X136780Y78102D01*
X136802Y78073D01*
X136831Y78047D01*
X136863Y78022D01*
X136867D01*
X136874Y78014D01*
X136889Y78007D01*
X136907Y77996D01*
X136936Y77985D01*
X136969Y77971D01*
X137009Y77960D01*
X137056Y77945D01*
X137111Y77931D01*
X137173Y77916D01*
X137242Y77902D01*
X137318Y77891D01*
X137406Y77880D01*
X137500Y77873D01*
X137602Y77869D01*
X137715Y77865D01*
X137722D01*
X137741D01*
X137773D01*
X137817Y77869D01*
X137864D01*
X137923Y77873D01*
X137985Y77876D01*
X138050Y77883D01*
X138192Y77902D01*
X138261Y77913D01*
X138327Y77927D01*
X138389Y77942D01*
X138447Y77964D01*
X138498Y77985D01*
X138541Y78011D01*
X138545D01*
X138549Y78018D01*
X138574Y78036D01*
X138607Y78069D01*
X138643Y78109D01*
X138680Y78164D01*
X138713Y78226D01*
X138738Y78295D01*
X138742Y78331D01*
X138745Y78371D01*
Y78393D01*
X138742Y78408D01*
X138734Y78444D01*
X138720Y78495D01*
X138694Y78550D01*
X138658Y78611D01*
X138636Y78641D01*
X138607Y78670D01*
X138578Y78699D01*
X138541Y78728D01*
X138538D01*
X138531Y78735D01*
X138520Y78742D01*
X138501Y78750D01*
X138476Y78764D01*
X138443Y78775D01*
X138407Y78790D01*
X138363Y78804D01*
X138308Y78815D01*
X138250Y78830D01*
X138181Y78844D01*
X138108Y78855D01*
X138021Y78863D01*
X137930Y78870D01*
X137828Y78877D01*
D02*
G37*
%LPD*%
D12*
X88827Y33055D02*
Y124945D01*
X67173Y33055D02*
X88827D01*
X67173D02*
Y124945D01*
X88827D01*
X187461Y268488D02*
X232539D01*
X187461D02*
Y279512D01*
X232539D01*
Y268488D02*
Y279512D01*
X140827Y228055D02*
Y319945D01*
X119173Y228055D02*
X140827D01*
X119173D02*
Y319945D01*
X140827D01*
X228606Y82484D02*
X269394D01*
X228606Y45516D02*
Y82484D01*
Y45516D02*
X269394D01*
Y82484D01*
X269598Y87488D02*
Y98512D01*
X244402D02*
X269598D01*
X244402Y87488D02*
Y98512D01*
Y87488D02*
X269598D01*
X229402Y29488D02*
Y40512D01*
Y29488D02*
X254598D01*
Y40512D01*
X229402D02*
X254598D01*
X162488Y81539D02*
X173512D01*
X162488Y36461D02*
Y81539D01*
Y36461D02*
X173512D01*
Y81539D01*
X224461Y102488D02*
Y113512D01*
Y102488D02*
X269539D01*
Y113512D01*
X224461D02*
X269539D01*
X254598Y15488D02*
Y26512D01*
X229402D02*
X254598D01*
X229402Y15488D02*
Y26512D01*
Y15488D02*
X254598D01*
X176488Y36461D02*
X187512D01*
Y81539D01*
X176488D02*
X187512D01*
X176488Y36461D02*
Y81539D01*
X29488Y234461D02*
X40512D01*
Y279539D01*
X29488D02*
X40512D01*
X29488Y234461D02*
Y279539D01*
X47402Y226488D02*
Y237512D01*
Y226488D02*
X72598D01*
Y237512D01*
X47402D02*
X72598D01*
X44606Y243516D02*
X85394D01*
Y280484D01*
X44606D02*
X85394D01*
X44606Y243516D02*
Y280484D01*
X14488Y234461D02*
X25512D01*
Y279539D01*
X14488D02*
X25512D01*
X14488Y234461D02*
Y279539D01*
X269539Y116488D02*
Y127512D01*
X224461D02*
X269539D01*
X224461Y116488D02*
Y127512D01*
Y116488D02*
X269539D01*
X5856Y88606D02*
X42644D01*
Y201394D01*
X5856D02*
X42644D01*
X5856Y88606D02*
Y201394D01*
X192461Y87488D02*
Y98512D01*
Y87488D02*
X237539D01*
Y98512D01*
X192461D02*
X237539D01*
M02*
