M48
;Layer_Color=9474304
;FILE_FORMAT=2:5
INCH,LZ
;TYPE=PLATED
T1F00S00C0.02362
T2F00S00C0.02756
T3F00S00C0.02953
T4F00S00C0.03346
T5F00S00C0.03543
T6F00S00C0.03937
T7F00S00C0.04016
T8F00S00C0.04528
T9F00S00C0.05709
%
T01
X0061079Y0044
X0070921
T02
X0036Y0032157
Y0051842
X0204157Y0052
Y0024
Y001
X0223843
Y0024
Y0052
X0240158Y0159
X0259842
X020234Y0114
X0182655
X0144Y0100685
Y0081
X0145843Y0058
X0126157
X0075606Y0134079
X0066158Y0164
X0085843
X0055921Y0134079
X0055843Y0197
X0036158
T03
X016237Y0027
Y0037
Y0047
X019363
Y0037
Y0027
Y0057
X016237
X0055921Y015
Y016
Y017
Y018
X0024661
Y017
Y016
Y015
T04
X0111284Y0032
Y0045
X0146716
Y0032
X0204283Y0036
X0239717
X0218498Y0128
X0183064
X0197716Y0084
Y0072
X0162284
Y0084
X0101716Y015
X0101433Y018
X0066
X0066284Y015
T05
X023Y0078
Y0088
Y0098
Y0108
Y0118
Y0128
Y0138
X026
Y0128
Y0118
Y0108
Y0098
Y0088
Y0078
X0128Y0081
X0118
X0108
X0098
X0088
X0078
X0068
X0058
Y0111
X0068
X0078
X0088
X0098
X0108
X0118
X0128
X004375Y0108
Y0098
Y0088
Y0118
X001225
Y0108
Y0098
Y0088
T06
X0044Y0014
X0054
X0064
T07
X0014Y0012
Y0022
Y0032
Y0042
Y0052
T08
X0110284Y0018
X0145717
X0219717Y0142
X0184283
T09
X0227221Y0162
X014478
M30
