G04*
G04 #@! TF.GenerationSoftware,Altium Limited,Altium Designer,21.2.1 (34)*
G04*
G04 Layer_Color=16711935*
%FSLAX25Y25*%
%MOIN*%
G70*
G04*
G04 #@! TF.SameCoordinates,3CCBA5C7-3EF3-4D3C-93EB-A50EB93EC52C*
G04*
G04*
G04 #@! TF.FilePolarity,Positive*
G04*
G01*
G75*
%ADD12C,0.00787*%
G36*
X43567Y167570D02*
X43615Y167562D01*
X43673Y167552D01*
X43738Y167533D01*
X43804Y167512D01*
X43869Y167482D01*
X43873D01*
X43877Y167479D01*
X43898Y167468D01*
X43931Y167446D01*
X43968Y167421D01*
X44011Y167384D01*
X44055Y167344D01*
X44099Y167297D01*
X44135Y167242D01*
X44139Y167235D01*
X44150Y167217D01*
X44164Y167184D01*
X44183Y167144D01*
X44201Y167097D01*
X44215Y167042D01*
X44226Y166980D01*
X44230Y166918D01*
Y166911D01*
Y166889D01*
X44226Y166860D01*
X44219Y166820D01*
X44208Y166773D01*
X44190Y166722D01*
X44168Y166671D01*
X44139Y166620D01*
X44135Y166613D01*
X44124Y166598D01*
X44102Y166572D01*
X44073Y166543D01*
X44037Y166510D01*
X43993Y166474D01*
X43942Y166441D01*
X43880Y166409D01*
X43884D01*
X43891Y166405D01*
X43902Y166401D01*
X43917Y166398D01*
X43957Y166383D01*
X44008Y166361D01*
X44066Y166332D01*
X44124Y166296D01*
X44179Y166249D01*
X44230Y166194D01*
X44233Y166187D01*
X44248Y166165D01*
X44270Y166128D01*
X44292Y166081D01*
X44313Y166023D01*
X44335Y165954D01*
X44350Y165874D01*
X44354Y165786D01*
Y165782D01*
Y165772D01*
Y165753D01*
X44350Y165732D01*
X44346Y165702D01*
X44339Y165670D01*
X44332Y165633D01*
X44324Y165593D01*
X44295Y165506D01*
X44273Y165459D01*
X44252Y165415D01*
X44223Y165368D01*
X44190Y165320D01*
X44153Y165273D01*
X44110Y165229D01*
X44106Y165226D01*
X44099Y165218D01*
X44084Y165207D01*
X44066Y165193D01*
X44044Y165175D01*
X44015Y165156D01*
X43982Y165135D01*
X43942Y165116D01*
X43902Y165095D01*
X43855Y165073D01*
X43808Y165055D01*
X43753Y165036D01*
X43695Y165022D01*
X43633Y165011D01*
X43571Y165004D01*
X43502Y165000D01*
X43469D01*
X43447Y165004D01*
X43418Y165007D01*
X43385Y165011D01*
X43349Y165018D01*
X43309Y165025D01*
X43222Y165047D01*
X43130Y165084D01*
X43083Y165105D01*
X43040Y165131D01*
X42996Y165164D01*
X42952Y165197D01*
X42948Y165200D01*
X42941Y165207D01*
X42930Y165218D01*
X42919Y165233D01*
X42901Y165251D01*
X42883Y165277D01*
X42861Y165302D01*
X42839Y165335D01*
X42818Y165371D01*
X42796Y165408D01*
X42756Y165495D01*
X42723Y165597D01*
X42712Y165652D01*
X42705Y165710D01*
X43014Y165750D01*
Y165746D01*
X43018Y165739D01*
X43021Y165724D01*
X43025Y165706D01*
X43029Y165684D01*
X43036Y165659D01*
X43054Y165604D01*
X43080Y165539D01*
X43112Y165477D01*
X43149Y165419D01*
X43192Y165368D01*
X43200Y165364D01*
X43214Y165349D01*
X43243Y165331D01*
X43280Y165313D01*
X43323Y165291D01*
X43378Y165273D01*
X43440Y165258D01*
X43505Y165255D01*
X43527D01*
X43542Y165258D01*
X43582Y165262D01*
X43633Y165273D01*
X43691Y165291D01*
X43753Y165317D01*
X43815Y165353D01*
X43873Y165404D01*
X43880Y165411D01*
X43898Y165433D01*
X43920Y165466D01*
X43949Y165509D01*
X43979Y165564D01*
X44001Y165626D01*
X44019Y165699D01*
X44026Y165779D01*
Y165782D01*
Y165790D01*
Y165801D01*
X44022Y165815D01*
X44019Y165855D01*
X44008Y165903D01*
X43993Y165961D01*
X43968Y166019D01*
X43931Y166077D01*
X43884Y166132D01*
X43877Y166139D01*
X43859Y166154D01*
X43829Y166176D01*
X43789Y166201D01*
X43738Y166227D01*
X43676Y166249D01*
X43607Y166263D01*
X43531Y166270D01*
X43498D01*
X43473Y166267D01*
X43440Y166263D01*
X43404Y166256D01*
X43360Y166249D01*
X43312Y166238D01*
X43349Y166510D01*
X43367D01*
X43382Y166507D01*
X43429D01*
X43469Y166514D01*
X43516Y166522D01*
X43571Y166532D01*
X43633Y166551D01*
X43691Y166576D01*
X43753Y166609D01*
X43757D01*
X43760Y166613D01*
X43778Y166627D01*
X43804Y166653D01*
X43833Y166685D01*
X43862Y166733D01*
X43888Y166787D01*
X43906Y166849D01*
X43913Y166885D01*
Y166926D01*
Y166929D01*
Y166933D01*
Y166955D01*
X43906Y166984D01*
X43898Y167024D01*
X43884Y167068D01*
X43866Y167115D01*
X43837Y167162D01*
X43797Y167206D01*
X43793Y167209D01*
X43775Y167224D01*
X43749Y167242D01*
X43716Y167264D01*
X43673Y167282D01*
X43622Y167300D01*
X43564Y167315D01*
X43498Y167319D01*
X43469D01*
X43436Y167311D01*
X43393Y167304D01*
X43345Y167289D01*
X43298Y167271D01*
X43247Y167242D01*
X43200Y167206D01*
X43196Y167202D01*
X43181Y167184D01*
X43160Y167158D01*
X43134Y167122D01*
X43109Y167075D01*
X43083Y167016D01*
X43061Y166947D01*
X43047Y166867D01*
X42737Y166922D01*
Y166926D01*
X42741Y166936D01*
X42745Y166951D01*
X42748Y166973D01*
X42756Y166998D01*
X42766Y167027D01*
X42788Y167097D01*
X42825Y167177D01*
X42868Y167257D01*
X42923Y167333D01*
X42992Y167402D01*
X42996Y167406D01*
X43003Y167410D01*
X43014Y167417D01*
X43029Y167428D01*
X43047Y167442D01*
X43072Y167457D01*
X43098Y167472D01*
X43130Y167490D01*
X43203Y167519D01*
X43287Y167548D01*
X43385Y167566D01*
X43436Y167573D01*
X43527D01*
X43567Y167570D01*
D02*
G37*
G36*
X42271Y166106D02*
Y166103D01*
Y166088D01*
Y166070D01*
Y166045D01*
X42268Y166012D01*
Y165975D01*
X42264Y165932D01*
X42261Y165888D01*
X42250Y165790D01*
X42235Y165688D01*
X42213Y165590D01*
X42199Y165542D01*
X42184Y165499D01*
Y165495D01*
X42180Y165488D01*
X42173Y165477D01*
X42166Y165462D01*
X42144Y165422D01*
X42111Y165371D01*
X42068Y165313D01*
X42017Y165255D01*
X41951Y165193D01*
X41871Y165138D01*
X41867D01*
X41860Y165131D01*
X41849Y165127D01*
X41831Y165116D01*
X41809Y165105D01*
X41780Y165095D01*
X41751Y165084D01*
X41715Y165069D01*
X41675Y165055D01*
X41631Y165044D01*
X41583Y165033D01*
X41529Y165022D01*
X41474Y165015D01*
X41416Y165007D01*
X41285Y165000D01*
X41252D01*
X41227Y165004D01*
X41198D01*
X41161Y165007D01*
X41121Y165011D01*
X41081Y165015D01*
X40990Y165029D01*
X40892Y165051D01*
X40797Y165080D01*
X40706Y165120D01*
X40703D01*
X40695Y165127D01*
X40684Y165135D01*
X40670Y165142D01*
X40630Y165171D01*
X40582Y165211D01*
X40528Y165262D01*
X40477Y165320D01*
X40426Y165393D01*
X40386Y165473D01*
Y165477D01*
X40382Y165484D01*
X40379Y165499D01*
X40371Y165517D01*
X40364Y165539D01*
X40357Y165568D01*
X40346Y165601D01*
X40339Y165641D01*
X40331Y165684D01*
X40320Y165732D01*
X40313Y165782D01*
X40306Y165837D01*
X40299Y165899D01*
X40295Y165965D01*
X40291Y166034D01*
Y166106D01*
Y167562D01*
X40626D01*
Y166106D01*
Y166103D01*
Y166092D01*
Y166074D01*
Y166052D01*
X40630Y166026D01*
Y165994D01*
X40633Y165925D01*
X40641Y165844D01*
X40652Y165764D01*
X40666Y165688D01*
X40674Y165655D01*
X40684Y165622D01*
X40688Y165615D01*
X40695Y165597D01*
X40714Y165571D01*
X40735Y165535D01*
X40761Y165499D01*
X40797Y165459D01*
X40841Y165419D01*
X40892Y165386D01*
X40899Y165382D01*
X40917Y165371D01*
X40950Y165360D01*
X40994Y165346D01*
X41045Y165328D01*
X41110Y165317D01*
X41179Y165306D01*
X41256Y165302D01*
X41292D01*
X41314Y165306D01*
X41347D01*
X41380Y165309D01*
X41460Y165324D01*
X41547Y165342D01*
X41631Y165371D01*
X41711Y165411D01*
X41747Y165437D01*
X41780Y165466D01*
X41784Y165470D01*
X41787Y165473D01*
X41795Y165484D01*
X41805Y165499D01*
X41816Y165521D01*
X41831Y165542D01*
X41846Y165575D01*
X41860Y165608D01*
X41875Y165648D01*
X41886Y165695D01*
X41900Y165750D01*
X41911Y165808D01*
X41922Y165874D01*
X41929Y165943D01*
X41937Y166023D01*
Y166106D01*
Y167562D01*
X42271D01*
Y166106D01*
D02*
G37*
G36*
X77249Y166603D02*
X77281Y166599D01*
X77321Y166595D01*
X77361Y166592D01*
X77409Y166581D01*
X77507Y166559D01*
X77616Y166526D01*
X77671Y166504D01*
X77722Y166479D01*
X77773Y166446D01*
X77824Y166413D01*
X77827Y166410D01*
X77834Y166406D01*
X77849Y166395D01*
X77867Y166377D01*
X77886Y166359D01*
X77911Y166333D01*
X77936Y166304D01*
X77965Y166275D01*
X77995Y166239D01*
X78024Y166195D01*
X78057Y166151D01*
X78086Y166104D01*
X78111Y166049D01*
X78140Y165995D01*
X78162Y165936D01*
X78184Y165871D01*
X77856Y165795D01*
Y165798D01*
X77853Y165805D01*
X77845Y165820D01*
X77838Y165838D01*
X77831Y165860D01*
X77820Y165889D01*
X77791Y165947D01*
X77754Y166013D01*
X77711Y166078D01*
X77656Y166140D01*
X77598Y166195D01*
X77591Y166202D01*
X77569Y166217D01*
X77532Y166235D01*
X77485Y166260D01*
X77423Y166282D01*
X77354Y166304D01*
X77270Y166319D01*
X77179Y166322D01*
X77150D01*
X77132Y166319D01*
X77106D01*
X77077Y166315D01*
X77008Y166304D01*
X76932Y166289D01*
X76852Y166264D01*
X76768Y166228D01*
X76692Y166180D01*
X76688D01*
X76684Y166173D01*
X76659Y166155D01*
X76626Y166126D01*
X76586Y166082D01*
X76539Y166027D01*
X76495Y165966D01*
X76455Y165889D01*
X76419Y165805D01*
Y165802D01*
X76415Y165795D01*
X76411Y165784D01*
X76408Y165765D01*
X76400Y165744D01*
X76393Y165718D01*
X76382Y165656D01*
X76368Y165583D01*
X76353Y165503D01*
X76346Y165416D01*
X76342Y165321D01*
Y165318D01*
Y165307D01*
Y165288D01*
Y165267D01*
X76346Y165241D01*
Y165208D01*
X76349Y165172D01*
X76353Y165132D01*
X76364Y165045D01*
X76382Y164950D01*
X76404Y164855D01*
X76433Y164761D01*
Y164757D01*
X76437Y164750D01*
X76444Y164739D01*
X76451Y164721D01*
X76473Y164677D01*
X76506Y164626D01*
X76546Y164568D01*
X76597Y164506D01*
X76655Y164451D01*
X76724Y164400D01*
X76728D01*
X76735Y164397D01*
X76746Y164389D01*
X76761Y164382D01*
X76779Y164375D01*
X76801Y164364D01*
X76852Y164342D01*
X76917Y164320D01*
X76990Y164302D01*
X77070Y164287D01*
X77154Y164284D01*
X77179D01*
X77201Y164287D01*
X77227D01*
X77252Y164291D01*
X77318Y164306D01*
X77394Y164324D01*
X77470Y164353D01*
X77551Y164393D01*
X77591Y164415D01*
X77627Y164444D01*
X77631Y164448D01*
X77634Y164451D01*
X77645Y164462D01*
X77660Y164473D01*
X77674Y164491D01*
X77693Y164513D01*
X77714Y164535D01*
X77733Y164564D01*
X77754Y164597D01*
X77780Y164633D01*
X77802Y164670D01*
X77824Y164713D01*
X77842Y164761D01*
X77860Y164812D01*
X77878Y164866D01*
X77893Y164925D01*
X78228Y164841D01*
Y164837D01*
X78224Y164823D01*
X78217Y164801D01*
X78206Y164772D01*
X78195Y164739D01*
X78180Y164699D01*
X78162Y164655D01*
X78140Y164608D01*
X78089Y164506D01*
X78024Y164404D01*
X77984Y164353D01*
X77944Y164302D01*
X77900Y164258D01*
X77849Y164215D01*
X77845Y164211D01*
X77838Y164204D01*
X77820Y164197D01*
X77802Y164182D01*
X77773Y164164D01*
X77744Y164146D01*
X77703Y164127D01*
X77663Y164109D01*
X77616Y164087D01*
X77565Y164069D01*
X77511Y164051D01*
X77452Y164033D01*
X77390Y164018D01*
X77325Y164011D01*
X77256Y164004D01*
X77183Y164000D01*
X77143D01*
X77114Y164004D01*
X77081D01*
X77041Y164007D01*
X76997Y164014D01*
X76946Y164022D01*
X76841Y164040D01*
X76732Y164069D01*
X76622Y164109D01*
X76571Y164135D01*
X76521Y164164D01*
X76517Y164167D01*
X76510Y164171D01*
X76495Y164182D01*
X76480Y164197D01*
X76459Y164211D01*
X76433Y164233D01*
X76404Y164258D01*
X76375Y164287D01*
X76346Y164320D01*
X76313Y164353D01*
X76248Y164437D01*
X76186Y164535D01*
X76131Y164644D01*
Y164648D01*
X76124Y164659D01*
X76120Y164677D01*
X76109Y164699D01*
X76102Y164728D01*
X76091Y164764D01*
X76076Y164804D01*
X76065Y164848D01*
X76055Y164895D01*
X76040Y164950D01*
X76022Y165063D01*
X76007Y165190D01*
X76000Y165321D01*
Y165325D01*
Y165340D01*
Y165361D01*
X76004Y165387D01*
Y165423D01*
X76007Y165460D01*
X76011Y165507D01*
X76018Y165554D01*
X76036Y165660D01*
X76062Y165776D01*
X76098Y165893D01*
X76149Y166006D01*
X76153Y166009D01*
X76157Y166020D01*
X76164Y166035D01*
X76178Y166053D01*
X76193Y166078D01*
X76211Y166107D01*
X76258Y166173D01*
X76320Y166246D01*
X76393Y166319D01*
X76477Y166391D01*
X76575Y166453D01*
X76579Y166457D01*
X76590Y166461D01*
X76604Y166468D01*
X76622Y166479D01*
X76652Y166490D01*
X76681Y166501D01*
X76717Y166515D01*
X76757Y166530D01*
X76801Y166544D01*
X76848Y166559D01*
X76950Y166581D01*
X77066Y166599D01*
X77187Y166606D01*
X77223D01*
X77249Y166603D01*
D02*
G37*
G36*
X79345Y166570D02*
X79363D01*
X79389Y166566D01*
X79451Y166555D01*
X79520Y166541D01*
X79596Y166515D01*
X79673Y166482D01*
X79749Y166439D01*
X79753D01*
X79756Y166431D01*
X79767Y166424D01*
X79782Y166413D01*
X79818Y166384D01*
X79866Y166344D01*
X79913Y166289D01*
X79968Y166224D01*
X80015Y166148D01*
X80059Y166060D01*
Y166057D01*
X80062Y166049D01*
X80070Y166035D01*
X80077Y166016D01*
X80084Y165991D01*
X80095Y165958D01*
X80102Y165922D01*
X80113Y165882D01*
X80124Y165834D01*
X80135Y165780D01*
X80142Y165722D01*
X80150Y165660D01*
X80157Y165591D01*
X80164Y165518D01*
X80168Y165438D01*
Y165354D01*
Y165350D01*
Y165332D01*
Y165307D01*
Y165274D01*
X80164Y165234D01*
Y165187D01*
X80160Y165132D01*
X80153Y165077D01*
X80142Y164954D01*
X80124Y164823D01*
X80099Y164699D01*
X80080Y164637D01*
X80062Y164582D01*
Y164579D01*
X80059Y164571D01*
X80051Y164557D01*
X80044Y164535D01*
X80033Y164513D01*
X80019Y164484D01*
X79982Y164422D01*
X79938Y164353D01*
X79887Y164280D01*
X79822Y164211D01*
X79749Y164149D01*
X79746D01*
X79738Y164142D01*
X79727Y164135D01*
X79713Y164127D01*
X79691Y164116D01*
X79669Y164102D01*
X79640Y164087D01*
X79611Y164076D01*
X79542Y164047D01*
X79458Y164022D01*
X79367Y164007D01*
X79265Y164000D01*
X79236D01*
X79218Y164004D01*
X79192D01*
X79163Y164007D01*
X79094Y164022D01*
X79018Y164040D01*
X78937Y164069D01*
X78857Y164109D01*
X78817Y164135D01*
X78781Y164164D01*
X78777Y164167D01*
X78774Y164171D01*
X78763Y164182D01*
X78752Y164193D01*
X78737Y164211D01*
X78719Y164233D01*
X78683Y164284D01*
X78646Y164349D01*
X78610Y164429D01*
X78581Y164521D01*
X78559Y164626D01*
X78857Y164652D01*
Y164648D01*
X78861Y164641D01*
Y164633D01*
X78865Y164619D01*
X78875Y164579D01*
X78890Y164535D01*
X78908Y164484D01*
X78934Y164433D01*
X78963Y164386D01*
X78999Y164346D01*
X79003Y164342D01*
X79018Y164331D01*
X79043Y164317D01*
X79072Y164302D01*
X79112Y164284D01*
X79159Y164269D01*
X79214Y164258D01*
X79272Y164255D01*
X79298D01*
X79323Y164258D01*
X79356Y164262D01*
X79396Y164269D01*
X79436Y164280D01*
X79480Y164295D01*
X79520Y164317D01*
X79523Y164320D01*
X79538Y164328D01*
X79560Y164342D01*
X79582Y164364D01*
X79611Y164389D01*
X79640Y164419D01*
X79669Y164451D01*
X79698Y164491D01*
X79702Y164495D01*
X79709Y164513D01*
X79724Y164539D01*
X79738Y164571D01*
X79756Y164615D01*
X79775Y164666D01*
X79793Y164724D01*
X79811Y164790D01*
Y164794D01*
X79815Y164797D01*
Y164808D01*
X79818Y164823D01*
X79826Y164859D01*
X79836Y164906D01*
X79844Y164965D01*
X79851Y165026D01*
X79855Y165096D01*
X79858Y165168D01*
Y165172D01*
Y165183D01*
Y165201D01*
Y165230D01*
X79855Y165223D01*
X79840Y165205D01*
X79818Y165179D01*
X79793Y165143D01*
X79756Y165106D01*
X79713Y165067D01*
X79662Y165026D01*
X79603Y164990D01*
X79596Y164986D01*
X79574Y164976D01*
X79542Y164961D01*
X79502Y164946D01*
X79447Y164928D01*
X79389Y164914D01*
X79323Y164903D01*
X79254Y164899D01*
X79225D01*
X79203Y164903D01*
X79174Y164906D01*
X79145Y164910D01*
X79109Y164917D01*
X79072Y164928D01*
X78988Y164954D01*
X78945Y164972D01*
X78901Y164994D01*
X78854Y165019D01*
X78810Y165052D01*
X78766Y165085D01*
X78726Y165125D01*
X78723Y165128D01*
X78715Y165136D01*
X78708Y165147D01*
X78694Y165165D01*
X78675Y165190D01*
X78657Y165216D01*
X78639Y165249D01*
X78621Y165285D01*
X78599Y165325D01*
X78581Y165369D01*
X78562Y165420D01*
X78544Y165471D01*
X78530Y165529D01*
X78522Y165591D01*
X78515Y165653D01*
X78512Y165722D01*
Y165725D01*
Y165740D01*
Y165758D01*
X78515Y165784D01*
X78519Y165816D01*
X78522Y165856D01*
X78530Y165896D01*
X78541Y165944D01*
X78566Y166038D01*
X78584Y166089D01*
X78606Y166144D01*
X78632Y166195D01*
X78664Y166242D01*
X78697Y166293D01*
X78737Y166337D01*
X78741Y166340D01*
X78748Y166348D01*
X78759Y166359D01*
X78777Y166373D01*
X78799Y166391D01*
X78828Y166413D01*
X78857Y166431D01*
X78894Y166457D01*
X78930Y166479D01*
X78974Y166497D01*
X79072Y166537D01*
X79123Y166552D01*
X79181Y166562D01*
X79239Y166570D01*
X79301Y166573D01*
X79327D01*
X79345Y166570D01*
D02*
G37*
G36*
X28881Y102687D02*
X28877D01*
X28874D01*
X28863Y102683D01*
X28848D01*
X28815Y102676D01*
X28768Y102665D01*
X28721Y102651D01*
X28666Y102636D01*
X28615Y102611D01*
X28568Y102585D01*
X28564Y102581D01*
X28550Y102570D01*
X28524Y102552D01*
X28499Y102523D01*
X28466Y102487D01*
X28433Y102447D01*
X28400Y102392D01*
X28371Y102334D01*
Y102330D01*
X28368Y102327D01*
X28364Y102316D01*
X28360Y102305D01*
X28349Y102268D01*
X28335Y102221D01*
X28320Y102163D01*
X28309Y102097D01*
X28302Y102024D01*
X28298Y101944D01*
Y101912D01*
X28302Y101875D01*
X28306Y101832D01*
X28313Y101781D01*
X28320Y101722D01*
X28335Y101664D01*
X28353Y101610D01*
X28357Y101602D01*
X28364Y101584D01*
X28378Y101559D01*
X28393Y101526D01*
X28418Y101493D01*
X28444Y101457D01*
X28473Y101420D01*
X28510Y101391D01*
X28513Y101388D01*
X28528Y101380D01*
X28546Y101369D01*
X28575Y101355D01*
X28604Y101340D01*
X28641Y101329D01*
X28681Y101322D01*
X28724Y101318D01*
X28728D01*
X28746D01*
X28768Y101322D01*
X28797Y101326D01*
X28826Y101337D01*
X28863Y101347D01*
X28899Y101366D01*
X28932Y101391D01*
X28935Y101395D01*
X28946Y101406D01*
X28961Y101420D01*
X28983Y101446D01*
X29005Y101475D01*
X29030Y101515D01*
X29056Y101562D01*
X29077Y101617D01*
X29081Y101620D01*
X29085Y101639D01*
X29096Y101668D01*
X29099Y101686D01*
X29107Y101711D01*
X29117Y101737D01*
X29125Y101770D01*
X29136Y101806D01*
X29147Y101850D01*
X29158Y101893D01*
X29172Y101944D01*
X29187Y102003D01*
X29201Y102065D01*
Y102068D01*
X29205Y102079D01*
X29208Y102097D01*
X29216Y102119D01*
X29223Y102148D01*
X29230Y102181D01*
X29252Y102254D01*
X29278Y102334D01*
X29303Y102418D01*
X29329Y102490D01*
X29343Y102523D01*
X29358Y102552D01*
Y102556D01*
X29361Y102560D01*
X29376Y102581D01*
X29394Y102614D01*
X29423Y102651D01*
X29456Y102694D01*
X29496Y102738D01*
X29543Y102782D01*
X29594Y102818D01*
X29601Y102822D01*
X29620Y102833D01*
X29649Y102847D01*
X29685Y102862D01*
X29733Y102876D01*
X29787Y102891D01*
X29845Y102902D01*
X29907Y102905D01*
X29911D01*
X29915D01*
X29926D01*
X29940D01*
X29976Y102898D01*
X30024Y102891D01*
X30078Y102880D01*
X30140Y102862D01*
X30202Y102836D01*
X30264Y102800D01*
X30268D01*
X30271Y102796D01*
X30293Y102778D01*
X30322Y102752D01*
X30359Y102720D01*
X30399Y102676D01*
X30442Y102621D01*
X30482Y102556D01*
X30519Y102483D01*
Y102480D01*
X30523Y102472D01*
X30526Y102461D01*
X30533Y102447D01*
X30541Y102428D01*
X30548Y102403D01*
X30562Y102348D01*
X30577Y102279D01*
X30592Y102199D01*
X30603Y102115D01*
X30606Y102021D01*
Y101974D01*
X30603Y101948D01*
Y101923D01*
X30595Y101853D01*
X30584Y101777D01*
X30566Y101697D01*
X30544Y101610D01*
X30515Y101530D01*
Y101526D01*
X30512Y101519D01*
X30504Y101508D01*
X30497Y101493D01*
X30479Y101457D01*
X30446Y101409D01*
X30410Y101355D01*
X30362Y101300D01*
X30308Y101249D01*
X30246Y101202D01*
X30242D01*
X30239Y101198D01*
X30228Y101191D01*
X30217Y101184D01*
X30180Y101165D01*
X30133Y101144D01*
X30075Y101118D01*
X30006Y101100D01*
X29933Y101082D01*
X29853Y101075D01*
X29827Y101395D01*
X29831D01*
X29838D01*
X29849Y101398D01*
X29867Y101402D01*
X29907Y101413D01*
X29962Y101427D01*
X30020Y101449D01*
X30078Y101482D01*
X30133Y101522D01*
X30184Y101573D01*
X30188Y101580D01*
X30202Y101599D01*
X30224Y101635D01*
X30246Y101682D01*
X30268Y101744D01*
X30290Y101817D01*
X30304Y101908D01*
X30308Y102010D01*
Y102061D01*
X30304Y102083D01*
X30300Y102112D01*
X30293Y102177D01*
X30279Y102250D01*
X30260Y102323D01*
X30231Y102392D01*
X30213Y102421D01*
X30195Y102450D01*
X30191Y102458D01*
X30177Y102472D01*
X30151Y102494D01*
X30122Y102516D01*
X30082Y102541D01*
X30038Y102563D01*
X29987Y102578D01*
X29929Y102585D01*
X29922D01*
X29907D01*
X29882Y102581D01*
X29853Y102574D01*
X29816Y102563D01*
X29780Y102545D01*
X29743Y102523D01*
X29707Y102490D01*
X29704Y102487D01*
X29693Y102469D01*
X29682Y102454D01*
X29674Y102439D01*
X29663Y102418D01*
X29649Y102392D01*
X29638Y102359D01*
X29623Y102323D01*
X29609Y102283D01*
X29591Y102236D01*
X29576Y102185D01*
X29558Y102126D01*
X29543Y102061D01*
X29525Y101988D01*
Y101985D01*
X29522Y101970D01*
X29518Y101948D01*
X29511Y101923D01*
X29503Y101890D01*
X29492Y101850D01*
X29481Y101810D01*
X29471Y101766D01*
X29445Y101671D01*
X29419Y101580D01*
X29405Y101537D01*
X29390Y101497D01*
X29379Y101460D01*
X29365Y101431D01*
Y101427D01*
X29361Y101420D01*
X29354Y101409D01*
X29347Y101395D01*
X29325Y101355D01*
X29296Y101307D01*
X29256Y101253D01*
X29212Y101198D01*
X29161Y101147D01*
X29107Y101104D01*
X29099Y101100D01*
X29081Y101085D01*
X29048Y101071D01*
X29005Y101049D01*
X28954Y101031D01*
X28892Y101013D01*
X28823Y101002D01*
X28750Y100998D01*
X28746D01*
X28743D01*
X28732D01*
X28717D01*
X28677Y101005D01*
X28626Y101013D01*
X28568Y101027D01*
X28506Y101045D01*
X28440Y101075D01*
X28371Y101114D01*
X28368D01*
X28364Y101118D01*
X28342Y101136D01*
X28309Y101162D01*
X28273Y101198D01*
X28229Y101246D01*
X28182Y101304D01*
X28138Y101369D01*
X28098Y101446D01*
Y101449D01*
X28095Y101457D01*
X28091Y101468D01*
X28084Y101482D01*
X28076Y101504D01*
X28065Y101530D01*
X28051Y101588D01*
X28033Y101657D01*
X28014Y101741D01*
X28004Y101832D01*
X28000Y101930D01*
Y101988D01*
X28004Y102017D01*
Y102050D01*
X28007Y102086D01*
X28011Y102130D01*
X28025Y102221D01*
X28040Y102316D01*
X28065Y102410D01*
X28098Y102501D01*
Y102505D01*
X28102Y102512D01*
X28109Y102523D01*
X28116Y102538D01*
X28138Y102581D01*
X28171Y102632D01*
X28215Y102691D01*
X28266Y102752D01*
X28328Y102811D01*
X28397Y102865D01*
X28400D01*
X28408Y102873D01*
X28418Y102876D01*
X28433Y102887D01*
X28451Y102894D01*
X28473Y102905D01*
X28528Y102931D01*
X28597Y102956D01*
X28673Y102978D01*
X28761Y102993D01*
X28852Y103000D01*
X28881Y102687D01*
D02*
G37*
G36*
X30562Y100426D02*
X28910Y100052D01*
X28906D01*
X28899Y100048D01*
X28885Y100044D01*
X28866Y100041D01*
X28841Y100037D01*
X28815Y100030D01*
X28782Y100022D01*
X28746Y100015D01*
X28670Y99997D01*
X28582Y99979D01*
X28488Y99961D01*
X28393Y99942D01*
X28397D01*
X28411Y99939D01*
X28429Y99932D01*
X28459Y99928D01*
X28488Y99921D01*
X28524Y99910D01*
X28604Y99892D01*
X28684Y99870D01*
X28724Y99862D01*
X28761Y99851D01*
X28793Y99844D01*
X28823Y99837D01*
X28844Y99830D01*
X28859Y99826D01*
X30562Y99349D01*
Y98945D01*
X29285Y98588D01*
X29281D01*
X29263Y98581D01*
X29237Y98574D01*
X29205Y98567D01*
X29161Y98556D01*
X29114Y98541D01*
X29059Y98527D01*
X28997Y98512D01*
X28928Y98494D01*
X28859Y98479D01*
X28710Y98446D01*
X28553Y98414D01*
X28393Y98388D01*
X28397D01*
X28404Y98384D01*
X28418D01*
X28437Y98377D01*
X28459Y98374D01*
X28484Y98366D01*
X28517Y98363D01*
X28553Y98352D01*
X28633Y98334D01*
X28728Y98312D01*
X28830Y98290D01*
X28943Y98261D01*
X30562Y97868D01*
Y97529D01*
X28044Y98221D01*
Y98548D01*
X29962Y99076D01*
X29966D01*
X29973Y99080D01*
X29984Y99083D01*
X30002Y99087D01*
X30042Y99098D01*
X30089Y99109D01*
X30140Y99123D01*
X30188Y99138D01*
X30228Y99149D01*
X30246Y99152D01*
X30257Y99156D01*
X30253D01*
X30250Y99160D01*
X30228Y99164D01*
X30195Y99171D01*
X30155Y99182D01*
X30111Y99193D01*
X30060Y99207D01*
X30009Y99218D01*
X29962Y99233D01*
X28044Y99764D01*
Y100113D01*
X30562Y100772D01*
Y100426D01*
D02*
G37*
G36*
X29940Y97103D02*
X29947Y97096D01*
X29951Y97081D01*
X29962Y97063D01*
X29973Y97041D01*
X29987Y97016D01*
X30024Y96954D01*
X30064Y96881D01*
X30115Y96808D01*
X30173Y96732D01*
X30235Y96655D01*
X30239Y96652D01*
X30242Y96648D01*
X30253Y96637D01*
X30264Y96623D01*
X30300Y96590D01*
X30344Y96546D01*
X30395Y96503D01*
X30453Y96455D01*
X30512Y96415D01*
X30573Y96379D01*
Y96179D01*
X28044D01*
Y96488D01*
X30013D01*
X30009Y96492D01*
X29995Y96510D01*
X29973Y96532D01*
X29947Y96568D01*
X29915Y96608D01*
X29878Y96659D01*
X29838Y96717D01*
X29798Y96783D01*
Y96786D01*
X29794Y96790D01*
X29780Y96812D01*
X29762Y96848D01*
X29740Y96892D01*
X29714Y96943D01*
X29689Y96998D01*
X29663Y97052D01*
X29642Y97107D01*
X29940D01*
Y97103D01*
D02*
G37*
G36*
X44886Y196996D02*
X44919D01*
X44959Y196993D01*
X45003Y196985D01*
X45054Y196978D01*
X45159Y196960D01*
X45268Y196931D01*
X45378Y196891D01*
X45429Y196865D01*
X45480Y196836D01*
X45483Y196833D01*
X45490Y196829D01*
X45505Y196818D01*
X45520Y196803D01*
X45541Y196789D01*
X45567Y196767D01*
X45596Y196742D01*
X45625Y196713D01*
X45654Y196680D01*
X45687Y196647D01*
X45753Y196563D01*
X45814Y196465D01*
X45869Y196356D01*
Y196352D01*
X45876Y196341D01*
X45880Y196323D01*
X45891Y196301D01*
X45898Y196272D01*
X45909Y196236D01*
X45924Y196196D01*
X45935Y196152D01*
X45945Y196105D01*
X45960Y196050D01*
X45978Y195937D01*
X45993Y195810D01*
X46000Y195679D01*
Y195675D01*
Y195660D01*
Y195639D01*
X45996Y195613D01*
Y195577D01*
X45993Y195540D01*
X45989Y195493D01*
X45982Y195446D01*
X45964Y195340D01*
X45938Y195224D01*
X45902Y195107D01*
X45851Y194994D01*
X45847Y194991D01*
X45843Y194980D01*
X45836Y194965D01*
X45822Y194947D01*
X45807Y194922D01*
X45789Y194893D01*
X45742Y194827D01*
X45680Y194754D01*
X45607Y194681D01*
X45523Y194608D01*
X45425Y194547D01*
X45421Y194543D01*
X45410Y194539D01*
X45396Y194532D01*
X45378Y194521D01*
X45349Y194510D01*
X45319Y194499D01*
X45283Y194485D01*
X45243Y194470D01*
X45199Y194456D01*
X45152Y194441D01*
X45050Y194419D01*
X44934Y194401D01*
X44813Y194394D01*
X44777D01*
X44752Y194397D01*
X44719Y194401D01*
X44679Y194405D01*
X44639Y194408D01*
X44591Y194419D01*
X44493Y194441D01*
X44384Y194474D01*
X44329Y194496D01*
X44278Y194521D01*
X44227Y194554D01*
X44176Y194587D01*
X44173Y194590D01*
X44166Y194594D01*
X44151Y194605D01*
X44133Y194623D01*
X44115Y194641D01*
X44089Y194667D01*
X44063Y194696D01*
X44034Y194725D01*
X44005Y194761D01*
X43976Y194805D01*
X43943Y194849D01*
X43914Y194896D01*
X43889Y194951D01*
X43860Y195005D01*
X43838Y195064D01*
X43816Y195129D01*
X44144Y195205D01*
Y195202D01*
X44147Y195195D01*
X44155Y195180D01*
X44162Y195162D01*
X44169Y195140D01*
X44180Y195111D01*
X44209Y195053D01*
X44245Y194987D01*
X44289Y194922D01*
X44344Y194860D01*
X44402Y194805D01*
X44409Y194798D01*
X44431Y194783D01*
X44468Y194765D01*
X44515Y194740D01*
X44577Y194718D01*
X44646Y194696D01*
X44730Y194681D01*
X44821Y194678D01*
X44850D01*
X44868Y194681D01*
X44894D01*
X44923Y194685D01*
X44992Y194696D01*
X45068Y194711D01*
X45148Y194736D01*
X45232Y194772D01*
X45308Y194820D01*
X45312D01*
X45316Y194827D01*
X45341Y194845D01*
X45374Y194874D01*
X45414Y194918D01*
X45461Y194973D01*
X45505Y195034D01*
X45545Y195111D01*
X45581Y195195D01*
Y195198D01*
X45585Y195205D01*
X45589Y195216D01*
X45592Y195235D01*
X45600Y195256D01*
X45607Y195282D01*
X45618Y195344D01*
X45632Y195417D01*
X45647Y195497D01*
X45654Y195584D01*
X45658Y195679D01*
Y195682D01*
Y195693D01*
Y195712D01*
Y195733D01*
X45654Y195759D01*
Y195792D01*
X45651Y195828D01*
X45647Y195868D01*
X45636Y195955D01*
X45618Y196050D01*
X45596Y196145D01*
X45567Y196239D01*
Y196243D01*
X45563Y196250D01*
X45556Y196261D01*
X45549Y196279D01*
X45527Y196323D01*
X45494Y196374D01*
X45454Y196432D01*
X45403Y196494D01*
X45345Y196549D01*
X45276Y196600D01*
X45272D01*
X45265Y196603D01*
X45254Y196610D01*
X45239Y196618D01*
X45221Y196625D01*
X45199Y196636D01*
X45148Y196658D01*
X45083Y196680D01*
X45010Y196698D01*
X44930Y196713D01*
X44846Y196716D01*
X44821D01*
X44799Y196713D01*
X44773D01*
X44748Y196709D01*
X44682Y196694D01*
X44606Y196676D01*
X44530Y196647D01*
X44449Y196607D01*
X44409Y196585D01*
X44373Y196556D01*
X44369Y196552D01*
X44366Y196549D01*
X44355Y196538D01*
X44340Y196527D01*
X44326Y196509D01*
X44307Y196487D01*
X44286Y196465D01*
X44267Y196436D01*
X44245Y196403D01*
X44220Y196367D01*
X44198Y196330D01*
X44176Y196287D01*
X44158Y196239D01*
X44140Y196188D01*
X44122Y196134D01*
X44107Y196075D01*
X43772Y196159D01*
Y196163D01*
X43776Y196177D01*
X43783Y196199D01*
X43794Y196228D01*
X43805Y196261D01*
X43820Y196301D01*
X43838Y196345D01*
X43860Y196392D01*
X43911Y196494D01*
X43976Y196596D01*
X44016Y196647D01*
X44056Y196698D01*
X44100Y196742D01*
X44151Y196785D01*
X44155Y196789D01*
X44162Y196796D01*
X44180Y196803D01*
X44198Y196818D01*
X44227Y196836D01*
X44256Y196854D01*
X44297Y196873D01*
X44337Y196891D01*
X44384Y196913D01*
X44435Y196931D01*
X44489Y196949D01*
X44548Y196967D01*
X44610Y196982D01*
X44675Y196989D01*
X44744Y196996D01*
X44817Y197000D01*
X44857D01*
X44886Y196996D01*
D02*
G37*
G36*
X43113Y196953D02*
Y196942D01*
Y196927D01*
X43110Y196905D01*
Y196876D01*
X43106Y196840D01*
X43103Y196800D01*
X43099Y196756D01*
X43092Y196705D01*
X43084Y196654D01*
X43073Y196592D01*
X43062Y196530D01*
X43052Y196465D01*
X43037Y196392D01*
X43001Y196243D01*
Y196239D01*
X42997Y196225D01*
X42990Y196203D01*
X42979Y196170D01*
X42968Y196134D01*
X42953Y196090D01*
X42939Y196039D01*
X42917Y195984D01*
X42895Y195923D01*
X42873Y195861D01*
X42819Y195722D01*
X42753Y195577D01*
X42680Y195431D01*
X42677Y195428D01*
X42669Y195413D01*
X42658Y195395D01*
X42644Y195366D01*
X42626Y195333D01*
X42600Y195293D01*
X42575Y195249D01*
X42546Y195202D01*
X42476Y195096D01*
X42404Y194987D01*
X42320Y194874D01*
X42233Y194769D01*
X43467D01*
Y194470D01*
X41836D01*
Y194714D01*
X41840Y194718D01*
X41847Y194725D01*
X41861Y194740D01*
X41876Y194761D01*
X41898Y194787D01*
X41927Y194816D01*
X41956Y194852D01*
X41989Y194896D01*
X42022Y194940D01*
X42061Y194991D01*
X42102Y195049D01*
X42142Y195107D01*
X42185Y195173D01*
X42229Y195242D01*
X42273Y195318D01*
X42316Y195395D01*
X42320Y195398D01*
X42327Y195413D01*
X42338Y195435D01*
X42356Y195468D01*
X42375Y195508D01*
X42396Y195551D01*
X42422Y195602D01*
X42447Y195660D01*
X42476Y195726D01*
X42509Y195792D01*
X42538Y195864D01*
X42568Y195941D01*
X42626Y196097D01*
X42680Y196265D01*
Y196268D01*
X42684Y196279D01*
X42688Y196298D01*
X42695Y196319D01*
X42702Y196349D01*
X42709Y196385D01*
X42720Y196425D01*
X42728Y196469D01*
X42739Y196520D01*
X42750Y196574D01*
X42768Y196691D01*
X42786Y196818D01*
X42797Y196956D01*
X43113D01*
Y196953D01*
D02*
G37*
G36*
X143956Y96168D02*
X141987D01*
X141991Y96164D01*
X142005Y96146D01*
X142027Y96124D01*
X142053Y96088D01*
X142085Y96048D01*
X142122Y95997D01*
X142162Y95938D01*
X142202Y95873D01*
Y95869D01*
X142206Y95866D01*
X142220Y95844D01*
X142238Y95807D01*
X142260Y95764D01*
X142286Y95713D01*
X142311Y95658D01*
X142337Y95604D01*
X142358Y95549D01*
X142060D01*
Y95553D01*
X142053Y95560D01*
X142049Y95574D01*
X142038Y95593D01*
X142027Y95614D01*
X142013Y95640D01*
X141976Y95702D01*
X141936Y95775D01*
X141885Y95847D01*
X141827Y95924D01*
X141765Y96000D01*
X141761Y96004D01*
X141758Y96008D01*
X141747Y96019D01*
X141736Y96033D01*
X141700Y96066D01*
X141656Y96110D01*
X141605Y96153D01*
X141547Y96201D01*
X141488Y96241D01*
X141427Y96277D01*
Y96477D01*
X143956D01*
Y96168D01*
D02*
G37*
G36*
Y94209D02*
X141987D01*
X141991Y94206D01*
X142005Y94188D01*
X142027Y94166D01*
X142053Y94129D01*
X142085Y94089D01*
X142122Y94038D01*
X142162Y93980D01*
X142202Y93915D01*
Y93911D01*
X142206Y93907D01*
X142220Y93885D01*
X142238Y93849D01*
X142260Y93805D01*
X142286Y93755D01*
X142311Y93700D01*
X142337Y93645D01*
X142358Y93591D01*
X142060D01*
Y93594D01*
X142053Y93602D01*
X142049Y93616D01*
X142038Y93634D01*
X142027Y93656D01*
X142013Y93682D01*
X141976Y93744D01*
X141936Y93816D01*
X141885Y93889D01*
X141827Y93966D01*
X141765Y94042D01*
X141761Y94046D01*
X141758Y94049D01*
X141747Y94060D01*
X141736Y94075D01*
X141700Y94108D01*
X141656Y94151D01*
X141605Y94195D01*
X141547Y94242D01*
X141488Y94282D01*
X141427Y94319D01*
Y94519D01*
X143956D01*
Y94209D01*
D02*
G37*
G36*
X143177Y93067D02*
X143199Y93059D01*
X143228Y93048D01*
X143261Y93037D01*
X143301Y93023D01*
X143345Y93005D01*
X143392Y92983D01*
X143494Y92932D01*
X143596Y92866D01*
X143647Y92826D01*
X143698Y92786D01*
X143742Y92743D01*
X143785Y92692D01*
X143789Y92688D01*
X143796Y92681D01*
X143804Y92663D01*
X143818Y92644D01*
X143836Y92615D01*
X143854Y92586D01*
X143873Y92546D01*
X143891Y92506D01*
X143913Y92459D01*
X143931Y92408D01*
X143949Y92353D01*
X143967Y92295D01*
X143982Y92233D01*
X143989Y92167D01*
X143996Y92098D01*
X144000Y92026D01*
Y91985D01*
X143996Y91956D01*
Y91924D01*
X143993Y91883D01*
X143985Y91840D01*
X143978Y91789D01*
X143960Y91683D01*
X143931Y91574D01*
X143891Y91465D01*
X143865Y91414D01*
X143836Y91363D01*
X143833Y91359D01*
X143829Y91352D01*
X143818Y91338D01*
X143804Y91323D01*
X143789Y91301D01*
X143767Y91276D01*
X143742Y91246D01*
X143712Y91217D01*
X143680Y91188D01*
X143647Y91155D01*
X143563Y91090D01*
X143465Y91028D01*
X143356Y90974D01*
X143352D01*
X143341Y90966D01*
X143323Y90963D01*
X143301Y90952D01*
X143272Y90944D01*
X143236Y90934D01*
X143196Y90919D01*
X143152Y90908D01*
X143105Y90897D01*
X143050Y90882D01*
X142937Y90864D01*
X142810Y90850D01*
X142679Y90842D01*
X142675D01*
X142660D01*
X142639D01*
X142613Y90846D01*
X142577D01*
X142540Y90850D01*
X142493Y90853D01*
X142446Y90861D01*
X142340Y90879D01*
X142224Y90904D01*
X142107Y90941D01*
X141994Y90992D01*
X141991Y90995D01*
X141980Y90999D01*
X141965Y91006D01*
X141947Y91021D01*
X141922Y91035D01*
X141893Y91054D01*
X141827Y91101D01*
X141754Y91163D01*
X141681Y91236D01*
X141609Y91319D01*
X141547Y91418D01*
X141543Y91421D01*
X141539Y91432D01*
X141532Y91447D01*
X141521Y91465D01*
X141510Y91494D01*
X141499Y91523D01*
X141485Y91560D01*
X141470Y91600D01*
X141456Y91643D01*
X141441Y91691D01*
X141419Y91793D01*
X141401Y91909D01*
X141394Y92029D01*
Y92066D01*
X141397Y92091D01*
X141401Y92124D01*
X141405Y92164D01*
X141408Y92204D01*
X141419Y92251D01*
X141441Y92349D01*
X141474Y92459D01*
X141496Y92513D01*
X141521Y92564D01*
X141554Y92615D01*
X141587Y92666D01*
X141590Y92670D01*
X141594Y92677D01*
X141605Y92692D01*
X141623Y92710D01*
X141641Y92728D01*
X141667Y92753D01*
X141696Y92779D01*
X141725Y92808D01*
X141761Y92837D01*
X141805Y92866D01*
X141849Y92899D01*
X141896Y92928D01*
X141951Y92954D01*
X142005Y92983D01*
X142064Y93005D01*
X142129Y93027D01*
X142206Y92699D01*
X142202D01*
X142195Y92695D01*
X142180Y92688D01*
X142162Y92681D01*
X142140Y92673D01*
X142111Y92663D01*
X142053Y92633D01*
X141987Y92597D01*
X141922Y92553D01*
X141860Y92499D01*
X141805Y92440D01*
X141798Y92433D01*
X141783Y92411D01*
X141765Y92375D01*
X141740Y92328D01*
X141718Y92266D01*
X141696Y92197D01*
X141681Y92113D01*
X141678Y92022D01*
Y91993D01*
X141681Y91975D01*
Y91949D01*
X141685Y91920D01*
X141696Y91851D01*
X141710Y91774D01*
X141736Y91694D01*
X141772Y91610D01*
X141820Y91534D01*
Y91530D01*
X141827Y91527D01*
X141845Y91501D01*
X141874Y91469D01*
X141918Y91429D01*
X141973Y91381D01*
X142034Y91338D01*
X142111Y91298D01*
X142195Y91261D01*
X142198D01*
X142206Y91257D01*
X142216Y91254D01*
X142235Y91250D01*
X142256Y91243D01*
X142282Y91236D01*
X142344Y91225D01*
X142417Y91210D01*
X142497Y91196D01*
X142584Y91188D01*
X142679Y91185D01*
X142682D01*
X142693D01*
X142711D01*
X142733D01*
X142759Y91188D01*
X142792D01*
X142828Y91192D01*
X142868Y91196D01*
X142955Y91207D01*
X143050Y91225D01*
X143145Y91246D01*
X143239Y91276D01*
X143243D01*
X143250Y91279D01*
X143261Y91286D01*
X143279Y91294D01*
X143323Y91316D01*
X143374Y91348D01*
X143432Y91388D01*
X143494Y91439D01*
X143549Y91498D01*
X143600Y91567D01*
Y91571D01*
X143603Y91578D01*
X143611Y91589D01*
X143618Y91603D01*
X143625Y91621D01*
X143636Y91643D01*
X143658Y91694D01*
X143680Y91760D01*
X143698Y91833D01*
X143712Y91913D01*
X143716Y91996D01*
Y92022D01*
X143712Y92044D01*
Y92069D01*
X143709Y92095D01*
X143694Y92160D01*
X143676Y92237D01*
X143647Y92313D01*
X143607Y92393D01*
X143585Y92433D01*
X143556Y92470D01*
X143552Y92473D01*
X143549Y92477D01*
X143538Y92488D01*
X143527Y92502D01*
X143509Y92517D01*
X143487Y92535D01*
X143465Y92557D01*
X143436Y92575D01*
X143403Y92597D01*
X143367Y92622D01*
X143330Y92644D01*
X143287Y92666D01*
X143239Y92684D01*
X143188Y92703D01*
X143134Y92721D01*
X143076Y92735D01*
X143159Y93070D01*
X143163D01*
X143177Y93067D01*
D02*
G37*
G36*
X67012Y136681D02*
X67045Y136678D01*
X67085Y136674D01*
X67125Y136670D01*
X67172Y136659D01*
X67271Y136638D01*
X67380Y136605D01*
X67435Y136583D01*
X67485Y136557D01*
X67536Y136525D01*
X67587Y136492D01*
X67591Y136488D01*
X67598Y136485D01*
X67613Y136474D01*
X67631Y136456D01*
X67649Y136437D01*
X67675Y136412D01*
X67700Y136383D01*
X67729Y136354D01*
X67759Y136317D01*
X67788Y136274D01*
X67820Y136230D01*
X67849Y136183D01*
X67875Y136128D01*
X67904Y136073D01*
X67926Y136015D01*
X67948Y135950D01*
X67620Y135873D01*
Y135877D01*
X67616Y135884D01*
X67609Y135899D01*
X67602Y135917D01*
X67595Y135939D01*
X67584Y135968D01*
X67555Y136026D01*
X67518Y136092D01*
X67475Y136157D01*
X67420Y136219D01*
X67362Y136274D01*
X67354Y136281D01*
X67333Y136295D01*
X67296Y136314D01*
X67249Y136339D01*
X67187Y136361D01*
X67118Y136383D01*
X67034Y136397D01*
X66943Y136401D01*
X66914D01*
X66896Y136397D01*
X66870D01*
X66841Y136394D01*
X66772Y136383D01*
X66696Y136368D01*
X66615Y136343D01*
X66532Y136306D01*
X66455Y136259D01*
X66452D01*
X66448Y136252D01*
X66423Y136234D01*
X66390Y136204D01*
X66350Y136161D01*
X66302Y136106D01*
X66259Y136044D01*
X66219Y135968D01*
X66182Y135884D01*
Y135880D01*
X66179Y135873D01*
X66175Y135862D01*
X66171Y135844D01*
X66164Y135822D01*
X66157Y135797D01*
X66146Y135735D01*
X66131Y135662D01*
X66117Y135582D01*
X66110Y135495D01*
X66106Y135400D01*
Y135396D01*
Y135385D01*
Y135367D01*
Y135345D01*
X66110Y135320D01*
Y135287D01*
X66113Y135251D01*
X66117Y135211D01*
X66128Y135123D01*
X66146Y135029D01*
X66168Y134934D01*
X66197Y134839D01*
Y134836D01*
X66201Y134828D01*
X66208Y134818D01*
X66215Y134799D01*
X66237Y134756D01*
X66270Y134705D01*
X66310Y134646D01*
X66361Y134585D01*
X66419Y134530D01*
X66488Y134479D01*
X66492D01*
X66499Y134476D01*
X66510Y134468D01*
X66524Y134461D01*
X66543Y134454D01*
X66565Y134443D01*
X66615Y134421D01*
X66681Y134399D01*
X66754Y134381D01*
X66834Y134366D01*
X66918Y134363D01*
X66943D01*
X66965Y134366D01*
X66990D01*
X67016Y134370D01*
X67081Y134384D01*
X67158Y134403D01*
X67234Y134432D01*
X67314Y134472D01*
X67354Y134494D01*
X67391Y134523D01*
X67394Y134526D01*
X67398Y134530D01*
X67409Y134541D01*
X67424Y134552D01*
X67438Y134570D01*
X67456Y134592D01*
X67478Y134614D01*
X67496Y134643D01*
X67518Y134676D01*
X67544Y134712D01*
X67566Y134748D01*
X67587Y134792D01*
X67606Y134839D01*
X67624Y134890D01*
X67642Y134945D01*
X67656Y135003D01*
X67991Y134920D01*
Y134916D01*
X67988Y134901D01*
X67980Y134880D01*
X67970Y134850D01*
X67959Y134818D01*
X67944Y134778D01*
X67926Y134734D01*
X67904Y134687D01*
X67853Y134585D01*
X67788Y134483D01*
X67747Y134432D01*
X67708Y134381D01*
X67664Y134337D01*
X67613Y134293D01*
X67609Y134290D01*
X67602Y134283D01*
X67584Y134275D01*
X67566Y134261D01*
X67536Y134242D01*
X67507Y134224D01*
X67467Y134206D01*
X67427Y134188D01*
X67380Y134166D01*
X67329Y134148D01*
X67274Y134130D01*
X67216Y134111D01*
X67154Y134097D01*
X67089Y134090D01*
X67019Y134082D01*
X66947Y134079D01*
X66907D01*
X66878Y134082D01*
X66845D01*
X66805Y134086D01*
X66761Y134093D01*
X66710Y134100D01*
X66605Y134119D01*
X66495Y134148D01*
X66386Y134188D01*
X66335Y134213D01*
X66284Y134242D01*
X66281Y134246D01*
X66273Y134250D01*
X66259Y134261D01*
X66244Y134275D01*
X66222Y134290D01*
X66197Y134312D01*
X66168Y134337D01*
X66139Y134366D01*
X66110Y134399D01*
X66077Y134432D01*
X66011Y134516D01*
X65949Y134614D01*
X65895Y134723D01*
Y134727D01*
X65887Y134738D01*
X65884Y134756D01*
X65873Y134778D01*
X65866Y134807D01*
X65855Y134843D01*
X65840Y134883D01*
X65829Y134927D01*
X65818Y134974D01*
X65804Y135029D01*
X65786Y135142D01*
X65771Y135269D01*
X65764Y135400D01*
Y135404D01*
Y135418D01*
Y135440D01*
X65767Y135466D01*
Y135502D01*
X65771Y135538D01*
X65775Y135586D01*
X65782Y135633D01*
X65800Y135739D01*
X65826Y135855D01*
X65862Y135971D01*
X65913Y136084D01*
X65917Y136088D01*
X65920Y136099D01*
X65927Y136113D01*
X65942Y136132D01*
X65957Y136157D01*
X65975Y136186D01*
X66022Y136252D01*
X66084Y136325D01*
X66157Y136397D01*
X66241Y136470D01*
X66339Y136532D01*
X66343Y136536D01*
X66353Y136539D01*
X66368Y136547D01*
X66386Y136557D01*
X66415Y136568D01*
X66444Y136579D01*
X66481Y136594D01*
X66521Y136609D01*
X66565Y136623D01*
X66612Y136638D01*
X66714Y136659D01*
X66830Y136678D01*
X66950Y136685D01*
X66987D01*
X67012Y136681D01*
D02*
G37*
G36*
X69149Y136648D02*
X69178Y136645D01*
X69211Y136641D01*
X69247Y136638D01*
X69284Y136627D01*
X69371Y136605D01*
X69458Y136572D01*
X69502Y136550D01*
X69546Y136525D01*
X69586Y136492D01*
X69626Y136459D01*
X69629Y136456D01*
X69633Y136452D01*
X69644Y136441D01*
X69658Y136426D01*
X69673Y136405D01*
X69691Y136383D01*
X69728Y136328D01*
X69764Y136259D01*
X69797Y136179D01*
X69822Y136088D01*
X69826Y136041D01*
X69830Y135990D01*
Y135986D01*
Y135982D01*
Y135961D01*
X69826Y135928D01*
X69819Y135888D01*
X69808Y135837D01*
X69790Y135786D01*
X69768Y135735D01*
X69735Y135684D01*
X69731Y135677D01*
X69717Y135662D01*
X69695Y135640D01*
X69666Y135611D01*
X69626Y135578D01*
X69578Y135546D01*
X69524Y135513D01*
X69458Y135484D01*
X69462D01*
X69469Y135480D01*
X69480Y135476D01*
X69495Y135469D01*
X69538Y135451D01*
X69589Y135425D01*
X69644Y135389D01*
X69702Y135349D01*
X69757Y135298D01*
X69808Y135240D01*
Y135236D01*
X69811Y135233D01*
X69826Y135211D01*
X69848Y135174D01*
X69870Y135127D01*
X69892Y135069D01*
X69913Y135000D01*
X69928Y134923D01*
X69932Y134839D01*
Y134836D01*
Y134825D01*
Y134807D01*
X69928Y134785D01*
X69924Y134759D01*
X69921Y134727D01*
X69913Y134690D01*
X69902Y134650D01*
X69877Y134566D01*
X69859Y134519D01*
X69833Y134476D01*
X69808Y134428D01*
X69779Y134384D01*
X69742Y134341D01*
X69702Y134297D01*
X69699Y134293D01*
X69691Y134286D01*
X69680Y134275D01*
X69662Y134264D01*
X69637Y134246D01*
X69611Y134228D01*
X69578Y134210D01*
X69542Y134188D01*
X69502Y134166D01*
X69455Y134148D01*
X69404Y134130D01*
X69353Y134111D01*
X69295Y134100D01*
X69233Y134090D01*
X69171Y134082D01*
X69102Y134079D01*
X69065D01*
X69040Y134082D01*
X69007Y134086D01*
X68971Y134090D01*
X68931Y134097D01*
X68887Y134108D01*
X68789Y134133D01*
X68738Y134151D01*
X68690Y134170D01*
X68639Y134195D01*
X68588Y134224D01*
X68541Y134257D01*
X68497Y134297D01*
X68494Y134301D01*
X68486Y134308D01*
X68476Y134319D01*
X68461Y134337D01*
X68446Y134359D01*
X68425Y134384D01*
X68406Y134414D01*
X68384Y134450D01*
X68363Y134486D01*
X68344Y134530D01*
X68308Y134621D01*
X68293Y134676D01*
X68283Y134730D01*
X68275Y134789D01*
X68272Y134847D01*
Y134850D01*
Y134858D01*
Y134872D01*
X68275Y134887D01*
Y134909D01*
X68279Y134934D01*
X68286Y134992D01*
X68301Y135058D01*
X68323Y135123D01*
X68355Y135193D01*
X68396Y135258D01*
Y135262D01*
X68403Y135265D01*
X68417Y135284D01*
X68446Y135313D01*
X68486Y135349D01*
X68537Y135385D01*
X68599Y135425D01*
X68668Y135458D01*
X68752Y135484D01*
X68748D01*
X68745Y135487D01*
X68734Y135491D01*
X68719Y135498D01*
X68687Y135513D01*
X68643Y135535D01*
X68596Y135564D01*
X68548Y135600D01*
X68505Y135640D01*
X68465Y135684D01*
X68461Y135691D01*
X68450Y135706D01*
X68436Y135735D01*
X68421Y135771D01*
X68403Y135819D01*
X68388Y135873D01*
X68377Y135935D01*
X68374Y136001D01*
Y136004D01*
Y136012D01*
Y136026D01*
X68377Y136048D01*
X68381Y136070D01*
X68384Y136099D01*
X68399Y136161D01*
X68421Y136234D01*
X68457Y136310D01*
X68479Y136350D01*
X68505Y136390D01*
X68537Y136426D01*
X68570Y136463D01*
X68574Y136467D01*
X68581Y136470D01*
X68592Y136481D01*
X68607Y136492D01*
X68625Y136507D01*
X68650Y136521D01*
X68679Y136539D01*
X68708Y136557D01*
X68745Y136576D01*
X68785Y136594D01*
X68829Y136609D01*
X68876Y136623D01*
X68978Y136645D01*
X69036Y136648D01*
X69094Y136652D01*
X69127D01*
X69149Y136648D01*
D02*
G37*
G36*
X179980Y43106D02*
Y43103D01*
Y43088D01*
Y43070D01*
Y43045D01*
X179976Y43012D01*
Y42976D01*
X179973Y42932D01*
X179969Y42888D01*
X179958Y42790D01*
X179944Y42688D01*
X179922Y42590D01*
X179907Y42542D01*
X179893Y42499D01*
Y42495D01*
X179889Y42488D01*
X179882Y42477D01*
X179875Y42462D01*
X179853Y42422D01*
X179820Y42371D01*
X179776Y42313D01*
X179725Y42255D01*
X179660Y42193D01*
X179580Y42138D01*
X179576D01*
X179569Y42131D01*
X179558Y42127D01*
X179540Y42116D01*
X179518Y42105D01*
X179489Y42095D01*
X179460Y42084D01*
X179423Y42069D01*
X179383Y42055D01*
X179340Y42044D01*
X179292Y42033D01*
X179238Y42022D01*
X179183Y42015D01*
X179125Y42007D01*
X178994Y42000D01*
X178961D01*
X178935Y42004D01*
X178906D01*
X178870Y42007D01*
X178830Y42011D01*
X178790Y42015D01*
X178699Y42029D01*
X178601Y42051D01*
X178506Y42080D01*
X178415Y42120D01*
X178411D01*
X178404Y42127D01*
X178393Y42135D01*
X178378Y42142D01*
X178339Y42171D01*
X178291Y42211D01*
X178237Y42262D01*
X178186Y42320D01*
X178135Y42393D01*
X178095Y42473D01*
Y42477D01*
X178091Y42484D01*
X178087Y42499D01*
X178080Y42517D01*
X178073Y42539D01*
X178066Y42568D01*
X178054Y42601D01*
X178047Y42641D01*
X178040Y42684D01*
X178029Y42732D01*
X178022Y42783D01*
X178015Y42837D01*
X178007Y42899D01*
X178004Y42965D01*
X178000Y43034D01*
Y43106D01*
Y44563D01*
X178335D01*
Y43106D01*
Y43103D01*
Y43092D01*
Y43074D01*
Y43052D01*
X178339Y43026D01*
Y42994D01*
X178342Y42924D01*
X178349Y42844D01*
X178360Y42764D01*
X178375Y42688D01*
X178382Y42655D01*
X178393Y42622D01*
X178397Y42615D01*
X178404Y42597D01*
X178422Y42571D01*
X178444Y42535D01*
X178470Y42499D01*
X178506Y42459D01*
X178550Y42419D01*
X178601Y42386D01*
X178608Y42382D01*
X178626Y42371D01*
X178659Y42360D01*
X178702Y42346D01*
X178753Y42328D01*
X178819Y42317D01*
X178888Y42306D01*
X178965Y42302D01*
X179001D01*
X179023Y42306D01*
X179056D01*
X179088Y42309D01*
X179168Y42324D01*
X179256Y42342D01*
X179340Y42371D01*
X179420Y42411D01*
X179456Y42437D01*
X179489Y42466D01*
X179492Y42469D01*
X179496Y42473D01*
X179503Y42484D01*
X179514Y42499D01*
X179525Y42520D01*
X179540Y42542D01*
X179554Y42575D01*
X179569Y42608D01*
X179583Y42648D01*
X179594Y42695D01*
X179609Y42750D01*
X179620Y42808D01*
X179631Y42874D01*
X179638Y42943D01*
X179645Y43023D01*
Y43106D01*
Y44563D01*
X179980D01*
Y43106D01*
D02*
G37*
G36*
X181305Y44570D02*
X181334Y44566D01*
X181371Y44563D01*
X181411Y44555D01*
X181451Y44548D01*
X181545Y44523D01*
X181640Y44486D01*
X181687Y44464D01*
X181735Y44439D01*
X181778Y44406D01*
X181818Y44370D01*
X181822Y44366D01*
X181829Y44362D01*
X181836Y44348D01*
X181851Y44333D01*
X181869Y44315D01*
X181887Y44289D01*
X181906Y44264D01*
X181928Y44231D01*
X181964Y44162D01*
X182000Y44075D01*
X182015Y44031D01*
X182022Y43980D01*
X182029Y43929D01*
X182033Y43874D01*
Y43867D01*
Y43849D01*
X182029Y43820D01*
X182026Y43780D01*
X182018Y43736D01*
X182004Y43685D01*
X181989Y43631D01*
X181968Y43576D01*
X181964Y43569D01*
X181957Y43551D01*
X181942Y43521D01*
X181920Y43481D01*
X181891Y43438D01*
X181855Y43383D01*
X181811Y43329D01*
X181760Y43267D01*
X181753Y43259D01*
X181735Y43238D01*
X181716Y43219D01*
X181698Y43201D01*
X181676Y43179D01*
X181647Y43150D01*
X181618Y43121D01*
X181582Y43088D01*
X181545Y43052D01*
X181502Y43012D01*
X181454Y42972D01*
X181403Y42924D01*
X181345Y42877D01*
X181287Y42826D01*
X181283Y42823D01*
X181276Y42815D01*
X181261Y42804D01*
X181243Y42790D01*
X181221Y42768D01*
X181196Y42746D01*
X181138Y42699D01*
X181076Y42644D01*
X181017Y42590D01*
X180967Y42542D01*
X180945Y42524D01*
X180927Y42506D01*
X180923Y42502D01*
X180912Y42491D01*
X180897Y42477D01*
X180879Y42455D01*
X180861Y42430D01*
X180839Y42404D01*
X180796Y42342D01*
X182037D01*
Y42044D01*
X180366D01*
Y42047D01*
Y42062D01*
Y42084D01*
X180370Y42113D01*
X180373Y42145D01*
X180380Y42182D01*
X180388Y42218D01*
X180402Y42258D01*
Y42262D01*
X180406Y42266D01*
X180413Y42287D01*
X180428Y42320D01*
X180450Y42364D01*
X180479Y42415D01*
X180515Y42473D01*
X180555Y42531D01*
X180606Y42593D01*
Y42597D01*
X180614Y42601D01*
X180632Y42622D01*
X180664Y42655D01*
X180712Y42702D01*
X180766Y42757D01*
X180835Y42823D01*
X180919Y42895D01*
X181010Y42972D01*
X181014Y42976D01*
X181028Y42986D01*
X181050Y43005D01*
X181076Y43026D01*
X181108Y43055D01*
X181149Y43088D01*
X181189Y43125D01*
X181236Y43165D01*
X181327Y43252D01*
X181418Y43339D01*
X181462Y43383D01*
X181502Y43427D01*
X181538Y43467D01*
X181567Y43507D01*
Y43511D01*
X181574Y43514D01*
X181582Y43525D01*
X181589Y43540D01*
X181614Y43580D01*
X181644Y43627D01*
X181669Y43685D01*
X181695Y43747D01*
X181709Y43816D01*
X181716Y43882D01*
Y43885D01*
Y43889D01*
X181713Y43911D01*
X181709Y43947D01*
X181698Y43987D01*
X181684Y44038D01*
X181658Y44089D01*
X181625Y44140D01*
X181582Y44191D01*
X181574Y44199D01*
X181556Y44213D01*
X181531Y44231D01*
X181491Y44257D01*
X181440Y44279D01*
X181381Y44300D01*
X181312Y44315D01*
X181236Y44319D01*
X181214D01*
X181200Y44315D01*
X181156Y44311D01*
X181105Y44300D01*
X181050Y44286D01*
X180988Y44260D01*
X180930Y44228D01*
X180876Y44184D01*
X180868Y44177D01*
X180854Y44159D01*
X180832Y44129D01*
X180810Y44086D01*
X180784Y44035D01*
X180763Y43969D01*
X180748Y43896D01*
X180741Y43813D01*
X180424Y43845D01*
Y43849D01*
X180428Y43860D01*
Y43878D01*
X180431Y43904D01*
X180439Y43933D01*
X180446Y43966D01*
X180457Y44006D01*
X180468Y44046D01*
X180497Y44133D01*
X180541Y44220D01*
X180566Y44264D01*
X180599Y44308D01*
X180632Y44348D01*
X180668Y44384D01*
X180672Y44388D01*
X180679Y44391D01*
X180690Y44402D01*
X180708Y44413D01*
X180730Y44428D01*
X180755Y44442D01*
X180784Y44461D01*
X180821Y44479D01*
X180861Y44497D01*
X180905Y44515D01*
X180952Y44530D01*
X181003Y44544D01*
X181058Y44555D01*
X181116Y44566D01*
X181178Y44570D01*
X181243Y44573D01*
X181280D01*
X181305Y44570D01*
D02*
G37*
G36*
X137249Y60602D02*
X137281Y60599D01*
X137321Y60595D01*
X137361Y60592D01*
X137409Y60581D01*
X137507Y60559D01*
X137616Y60526D01*
X137671Y60504D01*
X137722Y60479D01*
X137773Y60446D01*
X137824Y60413D01*
X137827Y60410D01*
X137835Y60406D01*
X137849Y60395D01*
X137867Y60377D01*
X137885Y60359D01*
X137911Y60333D01*
X137936Y60304D01*
X137966Y60275D01*
X137995Y60238D01*
X138024Y60195D01*
X138057Y60151D01*
X138086Y60104D01*
X138111Y60049D01*
X138140Y59995D01*
X138162Y59936D01*
X138184Y59871D01*
X137856Y59794D01*
Y59798D01*
X137853Y59805D01*
X137845Y59820D01*
X137838Y59838D01*
X137831Y59860D01*
X137820Y59889D01*
X137791Y59947D01*
X137754Y60013D01*
X137711Y60078D01*
X137656Y60140D01*
X137598Y60195D01*
X137591Y60202D01*
X137569Y60217D01*
X137532Y60235D01*
X137485Y60260D01*
X137423Y60282D01*
X137354Y60304D01*
X137270Y60319D01*
X137179Y60322D01*
X137150D01*
X137132Y60319D01*
X137107D01*
X137077Y60315D01*
X137008Y60304D01*
X136932Y60290D01*
X136852Y60264D01*
X136768Y60228D01*
X136692Y60180D01*
X136688D01*
X136684Y60173D01*
X136659Y60155D01*
X136626Y60126D01*
X136586Y60082D01*
X136539Y60027D01*
X136495Y59965D01*
X136455Y59889D01*
X136419Y59805D01*
Y59802D01*
X136415Y59794D01*
X136411Y59784D01*
X136408Y59765D01*
X136400Y59743D01*
X136393Y59718D01*
X136382Y59656D01*
X136368Y59583D01*
X136353Y59503D01*
X136346Y59416D01*
X136342Y59321D01*
Y59318D01*
Y59307D01*
Y59289D01*
Y59267D01*
X136346Y59241D01*
Y59208D01*
X136349Y59172D01*
X136353Y59132D01*
X136364Y59045D01*
X136382Y58950D01*
X136404Y58855D01*
X136433Y58761D01*
Y58757D01*
X136437Y58750D01*
X136444Y58739D01*
X136451Y58721D01*
X136473Y58677D01*
X136506Y58626D01*
X136546Y58568D01*
X136597Y58506D01*
X136655Y58451D01*
X136724Y58400D01*
X136728D01*
X136735Y58397D01*
X136746Y58389D01*
X136761Y58382D01*
X136779Y58375D01*
X136801Y58364D01*
X136852Y58342D01*
X136917Y58320D01*
X136990Y58302D01*
X137070Y58288D01*
X137154Y58284D01*
X137179D01*
X137201Y58288D01*
X137227D01*
X137252Y58291D01*
X137318Y58306D01*
X137394Y58324D01*
X137470Y58353D01*
X137551Y58393D01*
X137591Y58415D01*
X137627Y58444D01*
X137631Y58448D01*
X137634Y58451D01*
X137645Y58462D01*
X137660Y58473D01*
X137674Y58491D01*
X137693Y58513D01*
X137714Y58535D01*
X137733Y58564D01*
X137754Y58597D01*
X137780Y58633D01*
X137802Y58670D01*
X137824Y58713D01*
X137842Y58761D01*
X137860Y58812D01*
X137878Y58866D01*
X137893Y58925D01*
X138228Y58841D01*
Y58837D01*
X138224Y58823D01*
X138217Y58801D01*
X138206Y58772D01*
X138195Y58739D01*
X138180Y58699D01*
X138162Y58655D01*
X138140Y58608D01*
X138089Y58506D01*
X138024Y58404D01*
X137984Y58353D01*
X137944Y58302D01*
X137900Y58258D01*
X137849Y58215D01*
X137845Y58211D01*
X137838Y58204D01*
X137820Y58197D01*
X137802Y58182D01*
X137773Y58164D01*
X137743Y58146D01*
X137704Y58127D01*
X137663Y58109D01*
X137616Y58087D01*
X137565Y58069D01*
X137511Y58051D01*
X137452Y58033D01*
X137390Y58018D01*
X137325Y58011D01*
X137256Y58004D01*
X137183Y58000D01*
X137143D01*
X137114Y58004D01*
X137081D01*
X137041Y58007D01*
X136997Y58015D01*
X136946Y58022D01*
X136841Y58040D01*
X136732Y58069D01*
X136622Y58109D01*
X136571Y58135D01*
X136521Y58164D01*
X136517Y58167D01*
X136510Y58171D01*
X136495Y58182D01*
X136480Y58197D01*
X136459Y58211D01*
X136433Y58233D01*
X136404Y58258D01*
X136375Y58288D01*
X136346Y58320D01*
X136313Y58353D01*
X136248Y58437D01*
X136186Y58535D01*
X136131Y58644D01*
Y58648D01*
X136124Y58659D01*
X136120Y58677D01*
X136109Y58699D01*
X136102Y58728D01*
X136091Y58764D01*
X136076Y58804D01*
X136065Y58848D01*
X136055Y58895D01*
X136040Y58950D01*
X136022Y59063D01*
X136007Y59190D01*
X136000Y59321D01*
Y59325D01*
Y59339D01*
Y59361D01*
X136004Y59387D01*
Y59423D01*
X136007Y59460D01*
X136011Y59507D01*
X136018Y59554D01*
X136036Y59660D01*
X136062Y59776D01*
X136098Y59893D01*
X136149Y60006D01*
X136153Y60009D01*
X136156Y60020D01*
X136164Y60035D01*
X136178Y60053D01*
X136193Y60078D01*
X136211Y60107D01*
X136258Y60173D01*
X136320Y60246D01*
X136393Y60319D01*
X136477Y60391D01*
X136575Y60453D01*
X136579Y60457D01*
X136590Y60461D01*
X136604Y60468D01*
X136622Y60479D01*
X136652Y60490D01*
X136681Y60501D01*
X136717Y60515D01*
X136757Y60530D01*
X136801Y60544D01*
X136848Y60559D01*
X136950Y60581D01*
X137066Y60599D01*
X137187Y60606D01*
X137223D01*
X137249Y60602D01*
D02*
G37*
G36*
X139811Y58932D02*
X140153D01*
Y58648D01*
X139811D01*
Y58044D01*
X139502D01*
Y58648D01*
X138406D01*
Y58932D01*
X139560Y60562D01*
X139811D01*
Y58932D01*
D02*
G37*
G36*
X217454Y12570D02*
X217480D01*
X217509Y12566D01*
X217578Y12552D01*
X217654Y12533D01*
X217735Y12504D01*
X217815Y12461D01*
X217855Y12435D01*
X217891Y12406D01*
X217895Y12402D01*
X217898Y12399D01*
X217909Y12388D01*
X217920Y12377D01*
X217938Y12359D01*
X217953Y12337D01*
X217993Y12286D01*
X218033Y12220D01*
X218070Y12140D01*
X218102Y12049D01*
X218124Y11947D01*
X217815Y11922D01*
Y11925D01*
X217811Y11929D01*
X217807Y11951D01*
X217796Y11984D01*
X217782Y12024D01*
X217767Y12067D01*
X217745Y12111D01*
X217720Y12151D01*
X217694Y12184D01*
X217687Y12191D01*
X217673Y12206D01*
X217647Y12228D01*
X217611Y12253D01*
X217564Y12275D01*
X217513Y12297D01*
X217451Y12311D01*
X217385Y12319D01*
X217360D01*
X217331Y12315D01*
X217298Y12308D01*
X217254Y12297D01*
X217210Y12282D01*
X217167Y12264D01*
X217123Y12235D01*
X217116Y12231D01*
X217098Y12217D01*
X217072Y12191D01*
X217039Y12155D01*
X217003Y12111D01*
X216963Y12060D01*
X216927Y11995D01*
X216890Y11922D01*
Y11918D01*
X216886Y11911D01*
X216883Y11900D01*
X216876Y11885D01*
X216872Y11864D01*
X216865Y11838D01*
X216857Y11809D01*
X216850Y11773D01*
X216839Y11733D01*
X216832Y11689D01*
X216825Y11642D01*
X216821Y11591D01*
X216814Y11532D01*
X216810Y11474D01*
X216806Y11409D01*
Y11343D01*
X216810Y11347D01*
X216825Y11369D01*
X216850Y11398D01*
X216883Y11434D01*
X216919Y11478D01*
X216967Y11518D01*
X217018Y11558D01*
X217076Y11594D01*
X217079D01*
X217083Y11598D01*
X217105Y11609D01*
X217138Y11620D01*
X217181Y11638D01*
X217232Y11653D01*
X217290Y11663D01*
X217352Y11674D01*
X217418Y11678D01*
X217447D01*
X217469Y11674D01*
X217498Y11671D01*
X217527Y11667D01*
X217564Y11660D01*
X217600Y11649D01*
X217684Y11623D01*
X217727Y11605D01*
X217771Y11580D01*
X217815Y11554D01*
X217862Y11525D01*
X217906Y11489D01*
X217946Y11449D01*
X217949Y11445D01*
X217957Y11438D01*
X217968Y11427D01*
X217979Y11409D01*
X217997Y11383D01*
X218015Y11358D01*
X218033Y11325D01*
X218055Y11288D01*
X218077Y11248D01*
X218095Y11205D01*
X218113Y11154D01*
X218131Y11103D01*
X218142Y11048D01*
X218153Y10986D01*
X218161Y10925D01*
X218164Y10859D01*
Y10855D01*
Y10848D01*
Y10837D01*
Y10819D01*
X218161Y10797D01*
Y10775D01*
X218149Y10717D01*
X218139Y10648D01*
X218120Y10575D01*
X218095Y10495D01*
X218059Y10419D01*
Y10415D01*
X218055Y10411D01*
X218048Y10400D01*
X218040Y10386D01*
X218019Y10349D01*
X217986Y10302D01*
X217946Y10251D01*
X217898Y10200D01*
X217840Y10149D01*
X217778Y10106D01*
X217775D01*
X217771Y10102D01*
X217760Y10095D01*
X217745Y10091D01*
X217709Y10073D01*
X217662Y10055D01*
X217600Y10033D01*
X217531Y10018D01*
X217454Y10004D01*
X217371Y10000D01*
X217352D01*
X217334Y10004D01*
X217305D01*
X217272Y10007D01*
X217236Y10014D01*
X217192Y10025D01*
X217148Y10036D01*
X217098Y10051D01*
X217047Y10069D01*
X216996Y10091D01*
X216941Y10120D01*
X216890Y10153D01*
X216839Y10189D01*
X216788Y10233D01*
X216741Y10284D01*
X216737Y10288D01*
X216730Y10298D01*
X216719Y10313D01*
X216705Y10339D01*
X216683Y10371D01*
X216664Y10408D01*
X216643Y10455D01*
X216621Y10506D01*
X216595Y10568D01*
X216573Y10637D01*
X216555Y10713D01*
X216537Y10797D01*
X216519Y10892D01*
X216508Y10994D01*
X216501Y11103D01*
X216497Y11219D01*
Y11223D01*
Y11227D01*
Y11238D01*
Y11252D01*
X216501Y11288D01*
Y11339D01*
X216504Y11398D01*
X216512Y11467D01*
X216519Y11543D01*
X216530Y11627D01*
X216544Y11711D01*
X216563Y11802D01*
X216584Y11889D01*
X216610Y11976D01*
X216643Y12060D01*
X216679Y12140D01*
X216719Y12217D01*
X216766Y12282D01*
X216770Y12286D01*
X216777Y12293D01*
X216792Y12308D01*
X216810Y12330D01*
X216832Y12351D01*
X216861Y12373D01*
X216897Y12402D01*
X216934Y12428D01*
X216978Y12453D01*
X217025Y12482D01*
X217079Y12504D01*
X217134Y12530D01*
X217196Y12548D01*
X217261Y12562D01*
X217331Y12570D01*
X217403Y12573D01*
X217432D01*
X217454Y12570D01*
D02*
G37*
G36*
X215248Y12603D02*
X215281Y12599D01*
X215321Y12595D01*
X215361Y12592D01*
X215409Y12581D01*
X215507Y12559D01*
X215616Y12526D01*
X215671Y12504D01*
X215722Y12479D01*
X215773Y12446D01*
X215824Y12413D01*
X215827Y12410D01*
X215834Y12406D01*
X215849Y12395D01*
X215867Y12377D01*
X215885Y12359D01*
X215911Y12333D01*
X215936Y12304D01*
X215966Y12275D01*
X215995Y12239D01*
X216024Y12195D01*
X216057Y12151D01*
X216086Y12104D01*
X216111Y12049D01*
X216140Y11995D01*
X216162Y11936D01*
X216184Y11871D01*
X215856Y11795D01*
Y11798D01*
X215853Y11805D01*
X215845Y11820D01*
X215838Y11838D01*
X215831Y11860D01*
X215820Y11889D01*
X215791Y11947D01*
X215754Y12013D01*
X215711Y12078D01*
X215656Y12140D01*
X215598Y12195D01*
X215591Y12202D01*
X215569Y12217D01*
X215532Y12235D01*
X215485Y12260D01*
X215423Y12282D01*
X215354Y12304D01*
X215270Y12319D01*
X215179Y12322D01*
X215150D01*
X215132Y12319D01*
X215107D01*
X215077Y12315D01*
X215008Y12304D01*
X214932Y12290D01*
X214852Y12264D01*
X214768Y12228D01*
X214692Y12180D01*
X214688D01*
X214684Y12173D01*
X214659Y12155D01*
X214626Y12126D01*
X214586Y12082D01*
X214539Y12027D01*
X214495Y11966D01*
X214455Y11889D01*
X214419Y11805D01*
Y11802D01*
X214415Y11795D01*
X214411Y11784D01*
X214408Y11765D01*
X214400Y11744D01*
X214393Y11718D01*
X214382Y11656D01*
X214368Y11583D01*
X214353Y11503D01*
X214346Y11416D01*
X214342Y11321D01*
Y11318D01*
Y11307D01*
Y11288D01*
Y11267D01*
X214346Y11241D01*
Y11208D01*
X214349Y11172D01*
X214353Y11132D01*
X214364Y11045D01*
X214382Y10950D01*
X214404Y10855D01*
X214433Y10761D01*
Y10757D01*
X214437Y10750D01*
X214444Y10739D01*
X214451Y10721D01*
X214473Y10677D01*
X214506Y10626D01*
X214546Y10568D01*
X214597Y10506D01*
X214655Y10451D01*
X214724Y10400D01*
X214728D01*
X214735Y10397D01*
X214746Y10389D01*
X214761Y10382D01*
X214779Y10375D01*
X214801Y10364D01*
X214852Y10342D01*
X214917Y10320D01*
X214990Y10302D01*
X215070Y10288D01*
X215154Y10284D01*
X215179D01*
X215201Y10288D01*
X215227D01*
X215252Y10291D01*
X215318Y10306D01*
X215394Y10324D01*
X215471Y10353D01*
X215551Y10393D01*
X215591Y10415D01*
X215627Y10444D01*
X215631Y10448D01*
X215634Y10451D01*
X215645Y10462D01*
X215660Y10473D01*
X215674Y10491D01*
X215692Y10513D01*
X215714Y10535D01*
X215733Y10564D01*
X215754Y10597D01*
X215780Y10633D01*
X215802Y10670D01*
X215824Y10713D01*
X215842Y10761D01*
X215860Y10812D01*
X215878Y10866D01*
X215893Y10925D01*
X216228Y10841D01*
Y10837D01*
X216224Y10823D01*
X216217Y10801D01*
X216206Y10772D01*
X216195Y10739D01*
X216180Y10699D01*
X216162Y10655D01*
X216140Y10608D01*
X216089Y10506D01*
X216024Y10404D01*
X215984Y10353D01*
X215944Y10302D01*
X215900Y10258D01*
X215849Y10215D01*
X215845Y10211D01*
X215838Y10204D01*
X215820Y10197D01*
X215802Y10182D01*
X215773Y10164D01*
X215743Y10146D01*
X215704Y10127D01*
X215663Y10109D01*
X215616Y10087D01*
X215565Y10069D01*
X215511Y10051D01*
X215452Y10033D01*
X215390Y10018D01*
X215325Y10011D01*
X215256Y10004D01*
X215183Y10000D01*
X215143D01*
X215114Y10004D01*
X215081D01*
X215041Y10007D01*
X214997Y10014D01*
X214946Y10022D01*
X214841Y10040D01*
X214732Y10069D01*
X214622Y10109D01*
X214571Y10135D01*
X214521Y10164D01*
X214517Y10167D01*
X214510Y10171D01*
X214495Y10182D01*
X214480Y10197D01*
X214459Y10211D01*
X214433Y10233D01*
X214404Y10258D01*
X214375Y10288D01*
X214346Y10320D01*
X214313Y10353D01*
X214247Y10437D01*
X214186Y10535D01*
X214131Y10644D01*
Y10648D01*
X214124Y10659D01*
X214120Y10677D01*
X214109Y10699D01*
X214102Y10728D01*
X214091Y10764D01*
X214076Y10804D01*
X214066Y10848D01*
X214055Y10895D01*
X214040Y10950D01*
X214022Y11063D01*
X214007Y11190D01*
X214000Y11321D01*
Y11325D01*
Y11339D01*
Y11361D01*
X214004Y11387D01*
Y11423D01*
X214007Y11460D01*
X214011Y11507D01*
X214018Y11554D01*
X214036Y11660D01*
X214062Y11776D01*
X214098Y11893D01*
X214149Y12006D01*
X214153Y12009D01*
X214157Y12020D01*
X214164Y12035D01*
X214178Y12053D01*
X214193Y12078D01*
X214211Y12107D01*
X214258Y12173D01*
X214320Y12246D01*
X214393Y12319D01*
X214477Y12391D01*
X214575Y12453D01*
X214579Y12457D01*
X214590Y12461D01*
X214604Y12468D01*
X214622Y12479D01*
X214651Y12490D01*
X214681Y12501D01*
X214717Y12515D01*
X214757Y12530D01*
X214801Y12544D01*
X214848Y12559D01*
X214950Y12581D01*
X215067Y12599D01*
X215187Y12606D01*
X215223D01*
X215248Y12603D01*
D02*
G37*
G36*
Y26603D02*
X215281Y26599D01*
X215321Y26595D01*
X215361Y26592D01*
X215409Y26581D01*
X215507Y26559D01*
X215616Y26526D01*
X215671Y26504D01*
X215722Y26479D01*
X215773Y26446D01*
X215824Y26413D01*
X215827Y26410D01*
X215834Y26406D01*
X215849Y26395D01*
X215867Y26377D01*
X215885Y26359D01*
X215911Y26333D01*
X215936Y26304D01*
X215966Y26275D01*
X215995Y26239D01*
X216024Y26195D01*
X216057Y26151D01*
X216086Y26104D01*
X216111Y26049D01*
X216140Y25995D01*
X216162Y25936D01*
X216184Y25871D01*
X215856Y25795D01*
Y25798D01*
X215853Y25805D01*
X215845Y25820D01*
X215838Y25838D01*
X215831Y25860D01*
X215820Y25889D01*
X215791Y25947D01*
X215754Y26013D01*
X215711Y26078D01*
X215656Y26140D01*
X215598Y26195D01*
X215591Y26202D01*
X215569Y26217D01*
X215532Y26235D01*
X215485Y26260D01*
X215423Y26282D01*
X215354Y26304D01*
X215270Y26319D01*
X215179Y26322D01*
X215150D01*
X215132Y26319D01*
X215107D01*
X215077Y26315D01*
X215008Y26304D01*
X214932Y26289D01*
X214852Y26264D01*
X214768Y26228D01*
X214692Y26180D01*
X214688D01*
X214684Y26173D01*
X214659Y26155D01*
X214626Y26126D01*
X214586Y26082D01*
X214539Y26027D01*
X214495Y25966D01*
X214455Y25889D01*
X214419Y25805D01*
Y25802D01*
X214415Y25795D01*
X214411Y25784D01*
X214408Y25765D01*
X214400Y25743D01*
X214393Y25718D01*
X214382Y25656D01*
X214368Y25583D01*
X214353Y25503D01*
X214346Y25416D01*
X214342Y25321D01*
Y25318D01*
Y25307D01*
Y25289D01*
Y25267D01*
X214346Y25241D01*
Y25208D01*
X214349Y25172D01*
X214353Y25132D01*
X214364Y25045D01*
X214382Y24950D01*
X214404Y24855D01*
X214433Y24761D01*
Y24757D01*
X214437Y24750D01*
X214444Y24739D01*
X214451Y24721D01*
X214473Y24677D01*
X214506Y24626D01*
X214546Y24568D01*
X214597Y24506D01*
X214655Y24451D01*
X214724Y24400D01*
X214728D01*
X214735Y24397D01*
X214746Y24389D01*
X214761Y24382D01*
X214779Y24375D01*
X214801Y24364D01*
X214852Y24342D01*
X214917Y24320D01*
X214990Y24302D01*
X215070Y24287D01*
X215154Y24284D01*
X215179D01*
X215201Y24287D01*
X215227D01*
X215252Y24291D01*
X215318Y24306D01*
X215394Y24324D01*
X215471Y24353D01*
X215551Y24393D01*
X215591Y24415D01*
X215627Y24444D01*
X215631Y24448D01*
X215634Y24451D01*
X215645Y24462D01*
X215660Y24473D01*
X215674Y24491D01*
X215692Y24513D01*
X215714Y24535D01*
X215733Y24564D01*
X215754Y24597D01*
X215780Y24633D01*
X215802Y24670D01*
X215824Y24713D01*
X215842Y24761D01*
X215860Y24812D01*
X215878Y24866D01*
X215893Y24925D01*
X216228Y24841D01*
Y24837D01*
X216224Y24823D01*
X216217Y24801D01*
X216206Y24772D01*
X216195Y24739D01*
X216180Y24699D01*
X216162Y24655D01*
X216140Y24608D01*
X216089Y24506D01*
X216024Y24404D01*
X215984Y24353D01*
X215944Y24302D01*
X215900Y24258D01*
X215849Y24215D01*
X215845Y24211D01*
X215838Y24204D01*
X215820Y24196D01*
X215802Y24182D01*
X215773Y24164D01*
X215743Y24146D01*
X215704Y24127D01*
X215663Y24109D01*
X215616Y24087D01*
X215565Y24069D01*
X215511Y24051D01*
X215452Y24033D01*
X215390Y24018D01*
X215325Y24011D01*
X215256Y24004D01*
X215183Y24000D01*
X215143D01*
X215114Y24004D01*
X215081D01*
X215041Y24007D01*
X214997Y24014D01*
X214946Y24022D01*
X214841Y24040D01*
X214732Y24069D01*
X214622Y24109D01*
X214571Y24135D01*
X214521Y24164D01*
X214517Y24167D01*
X214510Y24171D01*
X214495Y24182D01*
X214480Y24196D01*
X214459Y24211D01*
X214433Y24233D01*
X214404Y24258D01*
X214375Y24287D01*
X214346Y24320D01*
X214313Y24353D01*
X214247Y24437D01*
X214186Y24535D01*
X214131Y24644D01*
Y24648D01*
X214124Y24659D01*
X214120Y24677D01*
X214109Y24699D01*
X214102Y24728D01*
X214091Y24764D01*
X214076Y24804D01*
X214066Y24848D01*
X214055Y24895D01*
X214040Y24950D01*
X214022Y25063D01*
X214007Y25190D01*
X214000Y25321D01*
Y25325D01*
Y25339D01*
Y25361D01*
X214004Y25387D01*
Y25423D01*
X214007Y25460D01*
X214011Y25507D01*
X214018Y25554D01*
X214036Y25660D01*
X214062Y25776D01*
X214098Y25893D01*
X214149Y26006D01*
X214153Y26009D01*
X214157Y26020D01*
X214164Y26035D01*
X214178Y26053D01*
X214193Y26078D01*
X214211Y26107D01*
X214258Y26173D01*
X214320Y26246D01*
X214393Y26319D01*
X214477Y26391D01*
X214575Y26453D01*
X214579Y26457D01*
X214590Y26461D01*
X214604Y26468D01*
X214622Y26479D01*
X214651Y26490D01*
X214681Y26501D01*
X214717Y26515D01*
X214757Y26530D01*
X214801Y26544D01*
X214848Y26559D01*
X214950Y26581D01*
X215067Y26599D01*
X215187Y26606D01*
X215223D01*
X215248Y26603D01*
D02*
G37*
G36*
X218062Y26235D02*
X217054D01*
X216919Y25554D01*
X216923Y25558D01*
X216930Y25561D01*
X216941Y25569D01*
X216959Y25580D01*
X216981Y25591D01*
X217007Y25605D01*
X217065Y25634D01*
X217138Y25663D01*
X217218Y25689D01*
X217305Y25707D01*
X217349Y25714D01*
X217429D01*
X217451Y25711D01*
X217480Y25707D01*
X217513Y25703D01*
X217549Y25696D01*
X217589Y25685D01*
X217676Y25660D01*
X217724Y25642D01*
X217771Y25616D01*
X217818Y25591D01*
X217866Y25561D01*
X217909Y25525D01*
X217953Y25485D01*
X217957Y25481D01*
X217964Y25474D01*
X217975Y25463D01*
X217989Y25445D01*
X218008Y25420D01*
X218026Y25394D01*
X218048Y25361D01*
X218070Y25325D01*
X218088Y25285D01*
X218109Y25241D01*
X218128Y25190D01*
X218146Y25139D01*
X218161Y25085D01*
X218171Y25023D01*
X218179Y24961D01*
X218182Y24895D01*
Y24892D01*
Y24881D01*
Y24863D01*
X218179Y24837D01*
X218175Y24808D01*
X218171Y24775D01*
X218164Y24735D01*
X218157Y24695D01*
X218135Y24601D01*
X218099Y24502D01*
X218077Y24451D01*
X218048Y24404D01*
X218019Y24353D01*
X217982Y24306D01*
X217979Y24302D01*
X217971Y24291D01*
X217957Y24277D01*
X217938Y24258D01*
X217913Y24237D01*
X217884Y24207D01*
X217847Y24182D01*
X217807Y24153D01*
X217764Y24124D01*
X217713Y24098D01*
X217658Y24073D01*
X217600Y24047D01*
X217538Y24029D01*
X217469Y24014D01*
X217396Y24004D01*
X217320Y24000D01*
X217287D01*
X217261Y24004D01*
X217232Y24007D01*
X217199Y24011D01*
X217160Y24014D01*
X217119Y24025D01*
X217028Y24047D01*
X216937Y24080D01*
X216890Y24102D01*
X216843Y24127D01*
X216799Y24157D01*
X216755Y24189D01*
X216752Y24193D01*
X216744Y24196D01*
X216737Y24211D01*
X216723Y24226D01*
X216705Y24244D01*
X216686Y24266D01*
X216664Y24295D01*
X216646Y24328D01*
X216624Y24360D01*
X216603Y24400D01*
X216563Y24488D01*
X216530Y24590D01*
X216519Y24644D01*
X216512Y24702D01*
X216835Y24728D01*
Y24724D01*
Y24717D01*
X216839Y24706D01*
X216843Y24688D01*
X216854Y24648D01*
X216868Y24593D01*
X216890Y24539D01*
X216919Y24477D01*
X216956Y24422D01*
X216999Y24371D01*
X217007Y24368D01*
X217021Y24353D01*
X217050Y24335D01*
X217090Y24313D01*
X217134Y24291D01*
X217189Y24273D01*
X217250Y24258D01*
X217320Y24255D01*
X217341D01*
X217356Y24258D01*
X217400Y24262D01*
X217451Y24277D01*
X217513Y24295D01*
X217574Y24324D01*
X217640Y24368D01*
X217669Y24393D01*
X217698Y24422D01*
X217702Y24426D01*
X217705Y24430D01*
X217713Y24440D01*
X217724Y24451D01*
X217749Y24491D01*
X217778Y24542D01*
X217804Y24604D01*
X217829Y24681D01*
X217847Y24772D01*
X217855Y24819D01*
Y24870D01*
Y24874D01*
Y24881D01*
Y24895D01*
X217851Y24914D01*
Y24935D01*
X217847Y24961D01*
X217836Y25019D01*
X217818Y25088D01*
X217793Y25157D01*
X217756Y25223D01*
X217705Y25285D01*
Y25289D01*
X217698Y25292D01*
X217680Y25310D01*
X217647Y25336D01*
X217603Y25365D01*
X217545Y25390D01*
X217480Y25416D01*
X217403Y25434D01*
X217360Y25441D01*
X217290D01*
X217261Y25438D01*
X217225Y25434D01*
X217181Y25423D01*
X217138Y25412D01*
X217090Y25394D01*
X217043Y25372D01*
X217039Y25369D01*
X217025Y25361D01*
X217003Y25343D01*
X216974Y25325D01*
X216945Y25299D01*
X216916Y25267D01*
X216883Y25234D01*
X216857Y25194D01*
X216566Y25234D01*
X216810Y26530D01*
X218062D01*
Y26235D01*
D02*
G37*
G36*
X215248Y54602D02*
X215281Y54599D01*
X215321Y54595D01*
X215361Y54592D01*
X215409Y54581D01*
X215507Y54559D01*
X215616Y54526D01*
X215671Y54504D01*
X215722Y54479D01*
X215773Y54446D01*
X215824Y54413D01*
X215827Y54410D01*
X215834Y54406D01*
X215849Y54395D01*
X215867Y54377D01*
X215885Y54359D01*
X215911Y54333D01*
X215936Y54304D01*
X215966Y54275D01*
X215995Y54238D01*
X216024Y54195D01*
X216057Y54151D01*
X216086Y54104D01*
X216111Y54049D01*
X216140Y53995D01*
X216162Y53936D01*
X216184Y53871D01*
X215856Y53794D01*
Y53798D01*
X215853Y53805D01*
X215845Y53820D01*
X215838Y53838D01*
X215831Y53860D01*
X215820Y53889D01*
X215791Y53947D01*
X215754Y54013D01*
X215711Y54078D01*
X215656Y54140D01*
X215598Y54195D01*
X215591Y54202D01*
X215569Y54217D01*
X215532Y54235D01*
X215485Y54260D01*
X215423Y54282D01*
X215354Y54304D01*
X215270Y54319D01*
X215179Y54322D01*
X215150D01*
X215132Y54319D01*
X215107D01*
X215077Y54315D01*
X215008Y54304D01*
X214932Y54290D01*
X214852Y54264D01*
X214768Y54228D01*
X214692Y54180D01*
X214688D01*
X214684Y54173D01*
X214659Y54155D01*
X214626Y54126D01*
X214586Y54082D01*
X214539Y54027D01*
X214495Y53966D01*
X214455Y53889D01*
X214419Y53805D01*
Y53802D01*
X214415Y53794D01*
X214411Y53784D01*
X214408Y53765D01*
X214400Y53743D01*
X214393Y53718D01*
X214382Y53656D01*
X214368Y53583D01*
X214353Y53503D01*
X214346Y53416D01*
X214342Y53321D01*
Y53318D01*
Y53307D01*
Y53289D01*
Y53267D01*
X214346Y53241D01*
Y53208D01*
X214349Y53172D01*
X214353Y53132D01*
X214364Y53045D01*
X214382Y52950D01*
X214404Y52855D01*
X214433Y52761D01*
Y52757D01*
X214437Y52750D01*
X214444Y52739D01*
X214451Y52721D01*
X214473Y52677D01*
X214506Y52626D01*
X214546Y52568D01*
X214597Y52506D01*
X214655Y52451D01*
X214724Y52400D01*
X214728D01*
X214735Y52397D01*
X214746Y52389D01*
X214761Y52382D01*
X214779Y52375D01*
X214801Y52364D01*
X214852Y52342D01*
X214917Y52320D01*
X214990Y52302D01*
X215070Y52288D01*
X215154Y52284D01*
X215179D01*
X215201Y52288D01*
X215227D01*
X215252Y52291D01*
X215318Y52306D01*
X215394Y52324D01*
X215471Y52353D01*
X215551Y52393D01*
X215591Y52415D01*
X215627Y52444D01*
X215631Y52448D01*
X215634Y52451D01*
X215645Y52462D01*
X215660Y52473D01*
X215674Y52491D01*
X215692Y52513D01*
X215714Y52535D01*
X215733Y52564D01*
X215754Y52597D01*
X215780Y52633D01*
X215802Y52670D01*
X215824Y52713D01*
X215842Y52761D01*
X215860Y52812D01*
X215878Y52866D01*
X215893Y52925D01*
X216228Y52841D01*
Y52837D01*
X216224Y52823D01*
X216217Y52801D01*
X216206Y52772D01*
X216195Y52739D01*
X216180Y52699D01*
X216162Y52655D01*
X216140Y52608D01*
X216089Y52506D01*
X216024Y52404D01*
X215984Y52353D01*
X215944Y52302D01*
X215900Y52258D01*
X215849Y52215D01*
X215845Y52211D01*
X215838Y52204D01*
X215820Y52197D01*
X215802Y52182D01*
X215773Y52164D01*
X215743Y52146D01*
X215704Y52127D01*
X215663Y52109D01*
X215616Y52087D01*
X215565Y52069D01*
X215511Y52051D01*
X215452Y52033D01*
X215390Y52018D01*
X215325Y52011D01*
X215256Y52004D01*
X215183Y52000D01*
X215143D01*
X215114Y52004D01*
X215081D01*
X215041Y52007D01*
X214997Y52014D01*
X214946Y52022D01*
X214841Y52040D01*
X214732Y52069D01*
X214622Y52109D01*
X214571Y52135D01*
X214521Y52164D01*
X214517Y52167D01*
X214510Y52171D01*
X214495Y52182D01*
X214480Y52197D01*
X214459Y52211D01*
X214433Y52233D01*
X214404Y52258D01*
X214375Y52288D01*
X214346Y52320D01*
X214313Y52353D01*
X214247Y52437D01*
X214186Y52535D01*
X214131Y52644D01*
Y52648D01*
X214124Y52659D01*
X214120Y52677D01*
X214109Y52699D01*
X214102Y52728D01*
X214091Y52764D01*
X214076Y52804D01*
X214066Y52848D01*
X214055Y52895D01*
X214040Y52950D01*
X214022Y53063D01*
X214007Y53190D01*
X214000Y53321D01*
Y53325D01*
Y53339D01*
Y53361D01*
X214004Y53387D01*
Y53423D01*
X214007Y53460D01*
X214011Y53507D01*
X214018Y53554D01*
X214036Y53660D01*
X214062Y53776D01*
X214098Y53893D01*
X214149Y54006D01*
X214153Y54009D01*
X214157Y54020D01*
X214164Y54035D01*
X214178Y54053D01*
X214193Y54078D01*
X214211Y54107D01*
X214258Y54173D01*
X214320Y54246D01*
X214393Y54319D01*
X214477Y54391D01*
X214575Y54453D01*
X214579Y54457D01*
X214590Y54461D01*
X214604Y54468D01*
X214622Y54479D01*
X214651Y54490D01*
X214681Y54501D01*
X214717Y54515D01*
X214757Y54530D01*
X214801Y54544D01*
X214848Y54559D01*
X214950Y54581D01*
X215067Y54599D01*
X215187Y54606D01*
X215223D01*
X215248Y54602D01*
D02*
G37*
G36*
X217378Y54570D02*
X217425Y54562D01*
X217483Y54552D01*
X217549Y54533D01*
X217615Y54511D01*
X217680Y54482D01*
X217684D01*
X217687Y54479D01*
X217709Y54468D01*
X217742Y54446D01*
X217778Y54421D01*
X217822Y54384D01*
X217866Y54344D01*
X217909Y54297D01*
X217946Y54242D01*
X217949Y54235D01*
X217960Y54217D01*
X217975Y54184D01*
X217993Y54144D01*
X218011Y54097D01*
X218026Y54042D01*
X218037Y53980D01*
X218040Y53918D01*
Y53911D01*
Y53889D01*
X218037Y53860D01*
X218029Y53820D01*
X218019Y53773D01*
X218000Y53722D01*
X217979Y53671D01*
X217949Y53620D01*
X217946Y53613D01*
X217935Y53598D01*
X217913Y53572D01*
X217884Y53543D01*
X217847Y53511D01*
X217804Y53474D01*
X217753Y53441D01*
X217691Y53409D01*
X217694D01*
X217702Y53405D01*
X217713Y53401D01*
X217727Y53398D01*
X217767Y53383D01*
X217818Y53361D01*
X217877Y53332D01*
X217935Y53296D01*
X217989Y53249D01*
X218040Y53194D01*
X218044Y53187D01*
X218059Y53165D01*
X218080Y53128D01*
X218102Y53081D01*
X218124Y53023D01*
X218146Y52954D01*
X218161Y52874D01*
X218164Y52786D01*
Y52783D01*
Y52772D01*
Y52753D01*
X218161Y52732D01*
X218157Y52702D01*
X218149Y52670D01*
X218142Y52633D01*
X218135Y52593D01*
X218106Y52506D01*
X218084Y52459D01*
X218062Y52415D01*
X218033Y52368D01*
X218000Y52320D01*
X217964Y52273D01*
X217920Y52229D01*
X217917Y52226D01*
X217909Y52218D01*
X217895Y52207D01*
X217877Y52193D01*
X217855Y52175D01*
X217826Y52157D01*
X217793Y52135D01*
X217753Y52116D01*
X217713Y52095D01*
X217665Y52073D01*
X217618Y52055D01*
X217564Y52036D01*
X217505Y52022D01*
X217443Y52011D01*
X217382Y52004D01*
X217312Y52000D01*
X217280D01*
X217258Y52004D01*
X217229Y52007D01*
X217196Y52011D01*
X217160Y52018D01*
X217119Y52025D01*
X217032Y52047D01*
X216941Y52084D01*
X216894Y52105D01*
X216850Y52131D01*
X216806Y52164D01*
X216763Y52197D01*
X216759Y52200D01*
X216752Y52207D01*
X216741Y52218D01*
X216730Y52233D01*
X216712Y52251D01*
X216694Y52277D01*
X216672Y52302D01*
X216650Y52335D01*
X216628Y52371D01*
X216606Y52408D01*
X216566Y52495D01*
X216533Y52597D01*
X216523Y52652D01*
X216515Y52710D01*
X216825Y52750D01*
Y52746D01*
X216828Y52739D01*
X216832Y52724D01*
X216835Y52706D01*
X216839Y52684D01*
X216846Y52659D01*
X216865Y52604D01*
X216890Y52539D01*
X216923Y52477D01*
X216959Y52419D01*
X217003Y52368D01*
X217010Y52364D01*
X217025Y52349D01*
X217054Y52331D01*
X217090Y52313D01*
X217134Y52291D01*
X217189Y52273D01*
X217250Y52258D01*
X217316Y52255D01*
X217338D01*
X217352Y52258D01*
X217392Y52262D01*
X217443Y52273D01*
X217502Y52291D01*
X217564Y52317D01*
X217625Y52353D01*
X217684Y52404D01*
X217691Y52411D01*
X217709Y52433D01*
X217731Y52466D01*
X217760Y52510D01*
X217789Y52564D01*
X217811Y52626D01*
X217829Y52699D01*
X217836Y52779D01*
Y52783D01*
Y52790D01*
Y52801D01*
X217833Y52815D01*
X217829Y52855D01*
X217818Y52903D01*
X217804Y52961D01*
X217778Y53019D01*
X217742Y53077D01*
X217694Y53132D01*
X217687Y53139D01*
X217669Y53154D01*
X217640Y53176D01*
X217600Y53201D01*
X217549Y53227D01*
X217487Y53249D01*
X217418Y53263D01*
X217341Y53270D01*
X217309D01*
X217283Y53267D01*
X217250Y53263D01*
X217214Y53256D01*
X217170Y53249D01*
X217123Y53237D01*
X217160Y53511D01*
X217178D01*
X217192Y53507D01*
X217240D01*
X217280Y53514D01*
X217327Y53522D01*
X217382Y53532D01*
X217443Y53551D01*
X217502Y53576D01*
X217564Y53609D01*
X217567D01*
X217571Y53613D01*
X217589Y53627D01*
X217615Y53653D01*
X217644Y53685D01*
X217673Y53733D01*
X217698Y53787D01*
X217716Y53849D01*
X217724Y53886D01*
Y53926D01*
Y53929D01*
Y53933D01*
Y53955D01*
X217716Y53984D01*
X217709Y54024D01*
X217694Y54067D01*
X217676Y54115D01*
X217647Y54162D01*
X217607Y54206D01*
X217603Y54209D01*
X217585Y54224D01*
X217560Y54242D01*
X217527Y54264D01*
X217483Y54282D01*
X217432Y54300D01*
X217374Y54315D01*
X217309Y54319D01*
X217280D01*
X217247Y54311D01*
X217203Y54304D01*
X217156Y54290D01*
X217108Y54271D01*
X217057Y54242D01*
X217010Y54206D01*
X217007Y54202D01*
X216992Y54184D01*
X216970Y54159D01*
X216945Y54122D01*
X216919Y54075D01*
X216894Y54017D01*
X216872Y53947D01*
X216857Y53867D01*
X216548Y53922D01*
Y53926D01*
X216552Y53936D01*
X216555Y53951D01*
X216559Y53973D01*
X216566Y53998D01*
X216577Y54027D01*
X216599Y54097D01*
X216635Y54177D01*
X216679Y54257D01*
X216734Y54333D01*
X216803Y54402D01*
X216806Y54406D01*
X216814Y54410D01*
X216825Y54417D01*
X216839Y54428D01*
X216857Y54442D01*
X216883Y54457D01*
X216908Y54471D01*
X216941Y54490D01*
X217014Y54519D01*
X217098Y54548D01*
X217196Y54566D01*
X217247Y54573D01*
X217338D01*
X217378Y54570D01*
D02*
G37*
G36*
X191384Y113996D02*
X191417D01*
X191457Y113993D01*
X191500Y113986D01*
X191551Y113978D01*
X191657Y113960D01*
X191766Y113931D01*
X191875Y113891D01*
X191926Y113865D01*
X191977Y113836D01*
X191981Y113833D01*
X191988Y113829D01*
X192003Y113818D01*
X192017Y113804D01*
X192039Y113789D01*
X192064Y113767D01*
X192094Y113742D01*
X192123Y113713D01*
X192152Y113680D01*
X192185Y113647D01*
X192250Y113563D01*
X192312Y113465D01*
X192367Y113356D01*
Y113352D01*
X192374Y113341D01*
X192377Y113323D01*
X192388Y113301D01*
X192396Y113272D01*
X192407Y113236D01*
X192421Y113196D01*
X192432Y113152D01*
X192443Y113105D01*
X192458Y113050D01*
X192476Y112937D01*
X192490Y112810D01*
X192498Y112679D01*
Y112675D01*
Y112661D01*
Y112639D01*
X192494Y112613D01*
Y112577D01*
X192490Y112540D01*
X192487Y112493D01*
X192479Y112446D01*
X192461Y112340D01*
X192436Y112224D01*
X192399Y112107D01*
X192348Y111994D01*
X192345Y111991D01*
X192341Y111980D01*
X192334Y111965D01*
X192319Y111947D01*
X192305Y111922D01*
X192287Y111892D01*
X192239Y111827D01*
X192177Y111754D01*
X192104Y111681D01*
X192021Y111609D01*
X191922Y111547D01*
X191919Y111543D01*
X191908Y111539D01*
X191893Y111532D01*
X191875Y111521D01*
X191846Y111510D01*
X191817Y111499D01*
X191780Y111485D01*
X191741Y111470D01*
X191697Y111456D01*
X191649Y111441D01*
X191548Y111419D01*
X191431Y111401D01*
X191311Y111394D01*
X191275D01*
X191249Y111397D01*
X191216Y111401D01*
X191176Y111405D01*
X191136Y111408D01*
X191089Y111419D01*
X190991Y111441D01*
X190882Y111474D01*
X190827Y111496D01*
X190776Y111521D01*
X190725Y111554D01*
X190674Y111587D01*
X190670Y111590D01*
X190663Y111594D01*
X190648Y111605D01*
X190630Y111623D01*
X190612Y111641D01*
X190587Y111667D01*
X190561Y111696D01*
X190532Y111725D01*
X190503Y111761D01*
X190474Y111805D01*
X190441Y111849D01*
X190412Y111896D01*
X190386Y111951D01*
X190357Y112005D01*
X190336Y112064D01*
X190314Y112129D01*
X190641Y112206D01*
Y112202D01*
X190645Y112195D01*
X190652Y112180D01*
X190659Y112162D01*
X190667Y112140D01*
X190678Y112111D01*
X190707Y112053D01*
X190743Y111987D01*
X190787Y111922D01*
X190841Y111860D01*
X190900Y111805D01*
X190907Y111798D01*
X190929Y111783D01*
X190965Y111765D01*
X191013Y111740D01*
X191074Y111718D01*
X191144Y111696D01*
X191227Y111681D01*
X191318Y111678D01*
X191347D01*
X191366Y111681D01*
X191391D01*
X191420Y111685D01*
X191489Y111696D01*
X191566Y111711D01*
X191646Y111736D01*
X191730Y111772D01*
X191806Y111820D01*
X191810D01*
X191813Y111827D01*
X191839Y111845D01*
X191872Y111874D01*
X191912Y111918D01*
X191959Y111973D01*
X192003Y112034D01*
X192043Y112111D01*
X192079Y112195D01*
Y112198D01*
X192083Y112206D01*
X192086Y112216D01*
X192090Y112235D01*
X192097Y112257D01*
X192104Y112282D01*
X192115Y112344D01*
X192130Y112417D01*
X192145Y112497D01*
X192152Y112584D01*
X192156Y112679D01*
Y112682D01*
Y112693D01*
Y112712D01*
Y112733D01*
X192152Y112759D01*
Y112792D01*
X192148Y112828D01*
X192145Y112868D01*
X192134Y112955D01*
X192115Y113050D01*
X192094Y113145D01*
X192064Y113239D01*
Y113243D01*
X192061Y113250D01*
X192053Y113261D01*
X192046Y113279D01*
X192024Y113323D01*
X191992Y113374D01*
X191952Y113432D01*
X191901Y113494D01*
X191842Y113549D01*
X191773Y113600D01*
X191770D01*
X191762Y113603D01*
X191751Y113610D01*
X191737Y113618D01*
X191719Y113625D01*
X191697Y113636D01*
X191646Y113658D01*
X191580Y113680D01*
X191507Y113698D01*
X191428Y113713D01*
X191344Y113716D01*
X191318D01*
X191296Y113713D01*
X191271D01*
X191245Y113709D01*
X191180Y113694D01*
X191103Y113676D01*
X191027Y113647D01*
X190947Y113607D01*
X190907Y113585D01*
X190870Y113556D01*
X190867Y113552D01*
X190863Y113549D01*
X190852Y113538D01*
X190838Y113527D01*
X190823Y113509D01*
X190805Y113487D01*
X190783Y113465D01*
X190765Y113436D01*
X190743Y113403D01*
X190718Y113367D01*
X190696Y113330D01*
X190674Y113287D01*
X190656Y113239D01*
X190638Y113188D01*
X190619Y113134D01*
X190605Y113075D01*
X190270Y113159D01*
Y113163D01*
X190274Y113177D01*
X190281Y113199D01*
X190292Y113228D01*
X190303Y113261D01*
X190317Y113301D01*
X190336Y113345D01*
X190357Y113392D01*
X190408Y113494D01*
X190474Y113596D01*
X190514Y113647D01*
X190554Y113698D01*
X190597Y113742D01*
X190648Y113785D01*
X190652Y113789D01*
X190659Y113796D01*
X190678Y113804D01*
X190696Y113818D01*
X190725Y113836D01*
X190754Y113854D01*
X190794Y113873D01*
X190834Y113891D01*
X190882Y113913D01*
X190932Y113931D01*
X190987Y113949D01*
X191045Y113967D01*
X191107Y113982D01*
X191173Y113989D01*
X191242Y113996D01*
X191315Y114000D01*
X191355D01*
X191384Y113996D01*
D02*
G37*
G36*
X189131Y111987D02*
X189134Y111991D01*
X189153Y112005D01*
X189174Y112027D01*
X189211Y112053D01*
X189251Y112085D01*
X189302Y112122D01*
X189360Y112162D01*
X189426Y112202D01*
X189429D01*
X189433Y112206D01*
X189455Y112220D01*
X189491Y112238D01*
X189535Y112260D01*
X189586Y112286D01*
X189640Y112311D01*
X189695Y112337D01*
X189749Y112358D01*
Y112060D01*
X189746D01*
X189739Y112053D01*
X189724Y112049D01*
X189706Y112038D01*
X189684Y112027D01*
X189658Y112013D01*
X189596Y111976D01*
X189524Y111936D01*
X189451Y111885D01*
X189374Y111827D01*
X189298Y111765D01*
X189294Y111761D01*
X189291Y111758D01*
X189280Y111747D01*
X189265Y111736D01*
X189233Y111699D01*
X189189Y111656D01*
X189145Y111605D01*
X189098Y111547D01*
X189058Y111488D01*
X189021Y111426D01*
X188821D01*
Y113956D01*
X189131D01*
Y111987D01*
D02*
G37*
G36*
X188071Y113953D02*
Y113938D01*
Y113916D01*
X188068Y113887D01*
X188064Y113854D01*
X188057Y113818D01*
X188049Y113782D01*
X188035Y113742D01*
Y113738D01*
X188031Y113734D01*
X188024Y113713D01*
X188010Y113680D01*
X187988Y113636D01*
X187959Y113585D01*
X187922Y113527D01*
X187882Y113469D01*
X187831Y113407D01*
Y113403D01*
X187824Y113399D01*
X187806Y113378D01*
X187773Y113345D01*
X187726Y113297D01*
X187671Y113243D01*
X187602Y113177D01*
X187518Y113105D01*
X187427Y113028D01*
X187424Y113024D01*
X187409Y113014D01*
X187387Y112995D01*
X187362Y112974D01*
X187329Y112944D01*
X187289Y112912D01*
X187249Y112875D01*
X187201Y112835D01*
X187110Y112748D01*
X187019Y112661D01*
X186976Y112617D01*
X186936Y112573D01*
X186899Y112533D01*
X186870Y112493D01*
Y112489D01*
X186863Y112486D01*
X186856Y112475D01*
X186848Y112460D01*
X186823Y112420D01*
X186794Y112373D01*
X186768Y112315D01*
X186743Y112253D01*
X186728Y112184D01*
X186721Y112118D01*
Y112115D01*
Y112111D01*
X186725Y112089D01*
X186728Y112053D01*
X186739Y112013D01*
X186754Y111962D01*
X186779Y111911D01*
X186812Y111860D01*
X186856Y111809D01*
X186863Y111802D01*
X186881Y111787D01*
X186907Y111769D01*
X186947Y111743D01*
X186998Y111721D01*
X187056Y111699D01*
X187125Y111685D01*
X187201Y111681D01*
X187223D01*
X187238Y111685D01*
X187282Y111689D01*
X187332Y111699D01*
X187387Y111714D01*
X187449Y111740D01*
X187507Y111772D01*
X187562Y111816D01*
X187569Y111823D01*
X187584Y111841D01*
X187606Y111871D01*
X187627Y111914D01*
X187653Y111965D01*
X187675Y112031D01*
X187689Y112104D01*
X187697Y112187D01*
X188013Y112154D01*
Y112151D01*
X188010Y112140D01*
Y112122D01*
X188006Y112096D01*
X187999Y112067D01*
X187991Y112034D01*
X187980Y111994D01*
X187970Y111954D01*
X187940Y111867D01*
X187897Y111780D01*
X187871Y111736D01*
X187838Y111692D01*
X187806Y111652D01*
X187769Y111616D01*
X187766Y111612D01*
X187758Y111609D01*
X187747Y111598D01*
X187729Y111587D01*
X187707Y111572D01*
X187682Y111558D01*
X187653Y111539D01*
X187616Y111521D01*
X187576Y111503D01*
X187533Y111485D01*
X187485Y111470D01*
X187434Y111456D01*
X187380Y111445D01*
X187321Y111434D01*
X187260Y111430D01*
X187194Y111426D01*
X187158D01*
X187132Y111430D01*
X187103Y111434D01*
X187067Y111437D01*
X187027Y111445D01*
X186987Y111452D01*
X186892Y111477D01*
X186797Y111514D01*
X186750Y111536D01*
X186703Y111561D01*
X186659Y111594D01*
X186619Y111630D01*
X186615Y111634D01*
X186608Y111638D01*
X186601Y111652D01*
X186586Y111667D01*
X186568Y111685D01*
X186550Y111711D01*
X186532Y111736D01*
X186510Y111769D01*
X186473Y111838D01*
X186437Y111925D01*
X186423Y111969D01*
X186415Y112020D01*
X186408Y112071D01*
X186404Y112125D01*
Y112133D01*
Y112151D01*
X186408Y112180D01*
X186411Y112220D01*
X186419Y112264D01*
X186433Y112315D01*
X186448Y112369D01*
X186470Y112424D01*
X186473Y112431D01*
X186481Y112449D01*
X186495Y112478D01*
X186517Y112519D01*
X186546Y112562D01*
X186583Y112617D01*
X186626Y112671D01*
X186677Y112733D01*
X186685Y112741D01*
X186703Y112762D01*
X186721Y112781D01*
X186739Y112799D01*
X186761Y112821D01*
X186790Y112850D01*
X186819Y112879D01*
X186856Y112912D01*
X186892Y112948D01*
X186936Y112988D01*
X186983Y113028D01*
X187034Y113075D01*
X187092Y113123D01*
X187151Y113174D01*
X187154Y113177D01*
X187161Y113185D01*
X187176Y113196D01*
X187194Y113210D01*
X187216Y113232D01*
X187241Y113254D01*
X187300Y113301D01*
X187362Y113356D01*
X187420Y113410D01*
X187471Y113458D01*
X187493Y113476D01*
X187511Y113494D01*
X187514Y113498D01*
X187525Y113509D01*
X187540Y113523D01*
X187558Y113545D01*
X187576Y113570D01*
X187598Y113596D01*
X187642Y113658D01*
X186401D01*
Y113956D01*
X188071D01*
Y113953D01*
D02*
G37*
G36*
X248886Y158996D02*
X248919D01*
X248959Y158993D01*
X249003Y158985D01*
X249054Y158978D01*
X249159Y158960D01*
X249268Y158931D01*
X249378Y158891D01*
X249429Y158865D01*
X249480Y158836D01*
X249483Y158833D01*
X249490Y158829D01*
X249505Y158818D01*
X249519Y158803D01*
X249541Y158789D01*
X249567Y158767D01*
X249596Y158742D01*
X249625Y158712D01*
X249654Y158680D01*
X249687Y158647D01*
X249752Y158563D01*
X249814Y158465D01*
X249869Y158356D01*
Y158352D01*
X249876Y158341D01*
X249880Y158323D01*
X249891Y158301D01*
X249898Y158272D01*
X249909Y158236D01*
X249924Y158196D01*
X249935Y158152D01*
X249945Y158105D01*
X249960Y158050D01*
X249978Y157937D01*
X249993Y157810D01*
X250000Y157679D01*
Y157675D01*
Y157660D01*
Y157639D01*
X249996Y157613D01*
Y157577D01*
X249993Y157540D01*
X249989Y157493D01*
X249982Y157446D01*
X249964Y157340D01*
X249938Y157224D01*
X249902Y157107D01*
X249851Y156994D01*
X249847Y156991D01*
X249844Y156980D01*
X249836Y156965D01*
X249822Y156947D01*
X249807Y156922D01*
X249789Y156893D01*
X249742Y156827D01*
X249680Y156754D01*
X249607Y156681D01*
X249523Y156608D01*
X249425Y156547D01*
X249421Y156543D01*
X249410Y156539D01*
X249396Y156532D01*
X249378Y156521D01*
X249348Y156510D01*
X249319Y156499D01*
X249283Y156485D01*
X249243Y156470D01*
X249199Y156456D01*
X249152Y156441D01*
X249050Y156419D01*
X248934Y156401D01*
X248813Y156394D01*
X248777D01*
X248751Y156397D01*
X248719Y156401D01*
X248679Y156405D01*
X248639Y156408D01*
X248591Y156419D01*
X248493Y156441D01*
X248384Y156474D01*
X248329Y156496D01*
X248278Y156521D01*
X248227Y156554D01*
X248176Y156587D01*
X248173Y156590D01*
X248165Y156594D01*
X248151Y156605D01*
X248133Y156623D01*
X248114Y156641D01*
X248089Y156667D01*
X248063Y156696D01*
X248034Y156725D01*
X248005Y156761D01*
X247976Y156805D01*
X247943Y156849D01*
X247914Y156896D01*
X247889Y156951D01*
X247860Y157005D01*
X247838Y157064D01*
X247816Y157129D01*
X248144Y157205D01*
Y157202D01*
X248147Y157195D01*
X248155Y157180D01*
X248162Y157162D01*
X248169Y157140D01*
X248180Y157111D01*
X248209Y157053D01*
X248246Y156987D01*
X248289Y156922D01*
X248344Y156860D01*
X248402Y156805D01*
X248409Y156798D01*
X248431Y156783D01*
X248468Y156765D01*
X248515Y156740D01*
X248577Y156718D01*
X248646Y156696D01*
X248730Y156681D01*
X248821Y156678D01*
X248850D01*
X248868Y156681D01*
X248893D01*
X248923Y156685D01*
X248992Y156696D01*
X249068Y156711D01*
X249148Y156736D01*
X249232Y156772D01*
X249308Y156820D01*
X249312D01*
X249316Y156827D01*
X249341Y156845D01*
X249374Y156874D01*
X249414Y156918D01*
X249461Y156973D01*
X249505Y157034D01*
X249545Y157111D01*
X249581Y157195D01*
Y157198D01*
X249585Y157205D01*
X249589Y157216D01*
X249592Y157235D01*
X249600Y157256D01*
X249607Y157282D01*
X249618Y157344D01*
X249632Y157417D01*
X249647Y157497D01*
X249654Y157584D01*
X249658Y157679D01*
Y157682D01*
Y157693D01*
Y157712D01*
Y157733D01*
X249654Y157759D01*
Y157792D01*
X249651Y157828D01*
X249647Y157868D01*
X249636Y157955D01*
X249618Y158050D01*
X249596Y158145D01*
X249567Y158239D01*
Y158243D01*
X249563Y158250D01*
X249556Y158261D01*
X249549Y158279D01*
X249527Y158323D01*
X249494Y158374D01*
X249454Y158432D01*
X249403Y158494D01*
X249345Y158549D01*
X249276Y158600D01*
X249272D01*
X249265Y158603D01*
X249254Y158610D01*
X249239Y158618D01*
X249221Y158625D01*
X249199Y158636D01*
X249148Y158658D01*
X249083Y158680D01*
X249010Y158698D01*
X248930Y158712D01*
X248846Y158716D01*
X248821D01*
X248799Y158712D01*
X248773D01*
X248748Y158709D01*
X248682Y158694D01*
X248606Y158676D01*
X248530Y158647D01*
X248449Y158607D01*
X248409Y158585D01*
X248373Y158556D01*
X248369Y158552D01*
X248366Y158549D01*
X248355Y158538D01*
X248340Y158527D01*
X248326Y158509D01*
X248307Y158487D01*
X248286Y158465D01*
X248267Y158436D01*
X248246Y158403D01*
X248220Y158367D01*
X248198Y158330D01*
X248176Y158287D01*
X248158Y158239D01*
X248140Y158188D01*
X248122Y158134D01*
X248107Y158075D01*
X247772Y158159D01*
Y158163D01*
X247776Y158177D01*
X247783Y158199D01*
X247794Y158228D01*
X247805Y158261D01*
X247820Y158301D01*
X247838Y158345D01*
X247860Y158392D01*
X247911Y158494D01*
X247976Y158596D01*
X248016Y158647D01*
X248056Y158698D01*
X248100Y158742D01*
X248151Y158785D01*
X248155Y158789D01*
X248162Y158796D01*
X248180Y158803D01*
X248198Y158818D01*
X248227Y158836D01*
X248256Y158854D01*
X248296Y158873D01*
X248337Y158891D01*
X248384Y158913D01*
X248435Y158931D01*
X248489Y158949D01*
X248548Y158967D01*
X248609Y158982D01*
X248675Y158989D01*
X248744Y158996D01*
X248817Y159000D01*
X248857D01*
X248886Y158996D01*
D02*
G37*
G36*
X246633Y156987D02*
X246637Y156991D01*
X246655Y157005D01*
X246677Y157027D01*
X246713Y157053D01*
X246753Y157085D01*
X246804Y157122D01*
X246862Y157162D01*
X246928Y157202D01*
X246932D01*
X246935Y157205D01*
X246957Y157220D01*
X246993Y157238D01*
X247037Y157260D01*
X247088Y157286D01*
X247143Y157311D01*
X247197Y157337D01*
X247252Y157358D01*
Y157060D01*
X247248D01*
X247241Y157053D01*
X247226Y157049D01*
X247208Y157038D01*
X247186Y157027D01*
X247161Y157013D01*
X247099Y156976D01*
X247026Y156936D01*
X246953Y156885D01*
X246877Y156827D01*
X246800Y156765D01*
X246797Y156761D01*
X246793Y156758D01*
X246782Y156747D01*
X246768Y156736D01*
X246735Y156700D01*
X246691Y156656D01*
X246648Y156605D01*
X246600Y156547D01*
X246560Y156488D01*
X246524Y156427D01*
X246324D01*
Y158956D01*
X246633D01*
Y156987D01*
D02*
G37*
G36*
X244769Y158996D02*
X244798Y158993D01*
X244835Y158985D01*
X244875Y158978D01*
X244919Y158967D01*
X244962Y158953D01*
X245010Y158938D01*
X245057Y158916D01*
X245104Y158891D01*
X245151Y158862D01*
X245199Y158825D01*
X245243Y158785D01*
X245283Y158742D01*
X245286Y158738D01*
X245293Y158727D01*
X245304Y158709D01*
X245323Y158680D01*
X245341Y158647D01*
X245359Y158603D01*
X245385Y158552D01*
X245406Y158494D01*
X245428Y158429D01*
X245450Y158352D01*
X245472Y158268D01*
X245490Y158174D01*
X245508Y158072D01*
X245519Y157963D01*
X245527Y157843D01*
X245530Y157715D01*
Y157712D01*
Y157697D01*
Y157671D01*
Y157642D01*
X245527Y157602D01*
Y157559D01*
X245523Y157511D01*
X245519Y157457D01*
X245508Y157344D01*
X245490Y157224D01*
X245468Y157104D01*
X245454Y157049D01*
X245439Y156994D01*
Y156991D01*
X245436Y156983D01*
X245428Y156969D01*
X245421Y156951D01*
X245414Y156925D01*
X245399Y156900D01*
X245370Y156838D01*
X245334Y156772D01*
X245286Y156703D01*
X245232Y156634D01*
X245166Y156576D01*
X245163D01*
X245159Y156569D01*
X245148Y156561D01*
X245133Y156554D01*
X245115Y156539D01*
X245093Y156528D01*
X245039Y156499D01*
X244973Y156474D01*
X244897Y156448D01*
X244806Y156434D01*
X244707Y156427D01*
X244675D01*
X244635Y156430D01*
X244587Y156438D01*
X244533Y156448D01*
X244475Y156463D01*
X244413Y156481D01*
X244354Y156510D01*
X244351D01*
X244347Y156514D01*
X244329Y156525D01*
X244300Y156543D01*
X244263Y156569D01*
X244223Y156605D01*
X244180Y156645D01*
X244140Y156692D01*
X244100Y156747D01*
X244096Y156754D01*
X244081Y156772D01*
X244067Y156805D01*
X244041Y156852D01*
X244020Y156907D01*
X243990Y156969D01*
X243965Y157042D01*
X243943Y157122D01*
Y157125D01*
X243939Y157133D01*
X243936Y157144D01*
X243932Y157162D01*
X243929Y157184D01*
X243925Y157209D01*
X243918Y157242D01*
X243914Y157278D01*
X243907Y157318D01*
X243903Y157362D01*
X243899Y157413D01*
X243892Y157464D01*
X243888Y157522D01*
Y157580D01*
X243885Y157646D01*
Y157715D01*
Y157719D01*
Y157733D01*
Y157759D01*
Y157788D01*
X243888Y157828D01*
Y157872D01*
X243892Y157919D01*
X243896Y157970D01*
X243907Y158086D01*
X243925Y158206D01*
X243947Y158323D01*
X243961Y158378D01*
X243980Y158432D01*
Y158436D01*
X243983Y158443D01*
X243990Y158458D01*
X243998Y158476D01*
X244005Y158501D01*
X244020Y158527D01*
X244049Y158589D01*
X244085Y158654D01*
X244132Y158727D01*
X244187Y158793D01*
X244252Y158854D01*
X244256D01*
X244260Y158862D01*
X244271Y158869D01*
X244285Y158876D01*
X244303Y158887D01*
X244322Y158902D01*
X244376Y158927D01*
X244442Y158953D01*
X244518Y158978D01*
X244609Y158993D01*
X244707Y159000D01*
X244744D01*
X244769Y158996D01*
D02*
G37*
G36*
X67248Y46603D02*
X67281Y46599D01*
X67321Y46595D01*
X67361Y46592D01*
X67409Y46581D01*
X67507Y46559D01*
X67616Y46526D01*
X67671Y46504D01*
X67722Y46479D01*
X67773Y46446D01*
X67824Y46413D01*
X67827Y46410D01*
X67835Y46406D01*
X67849Y46395D01*
X67867Y46377D01*
X67886Y46359D01*
X67911Y46333D01*
X67936Y46304D01*
X67966Y46275D01*
X67995Y46238D01*
X68024Y46195D01*
X68057Y46151D01*
X68086Y46104D01*
X68111Y46049D01*
X68140Y45995D01*
X68162Y45936D01*
X68184Y45871D01*
X67856Y45794D01*
Y45798D01*
X67853Y45805D01*
X67845Y45820D01*
X67838Y45838D01*
X67831Y45860D01*
X67820Y45889D01*
X67791Y45947D01*
X67754Y46013D01*
X67711Y46078D01*
X67656Y46140D01*
X67598Y46195D01*
X67591Y46202D01*
X67569Y46217D01*
X67532Y46235D01*
X67485Y46260D01*
X67423Y46282D01*
X67354Y46304D01*
X67270Y46319D01*
X67179Y46322D01*
X67150D01*
X67132Y46319D01*
X67106D01*
X67077Y46315D01*
X67008Y46304D01*
X66932Y46290D01*
X66852Y46264D01*
X66768Y46228D01*
X66691Y46180D01*
X66688D01*
X66684Y46173D01*
X66659Y46155D01*
X66626Y46126D01*
X66586Y46082D01*
X66539Y46027D01*
X66495Y45966D01*
X66455Y45889D01*
X66419Y45805D01*
Y45802D01*
X66415Y45794D01*
X66411Y45784D01*
X66408Y45765D01*
X66400Y45744D01*
X66393Y45718D01*
X66382Y45656D01*
X66368Y45583D01*
X66353Y45503D01*
X66346Y45416D01*
X66342Y45321D01*
Y45318D01*
Y45307D01*
Y45289D01*
Y45267D01*
X66346Y45241D01*
Y45208D01*
X66349Y45172D01*
X66353Y45132D01*
X66364Y45045D01*
X66382Y44950D01*
X66404Y44855D01*
X66433Y44761D01*
Y44757D01*
X66437Y44750D01*
X66444Y44739D01*
X66451Y44721D01*
X66473Y44677D01*
X66506Y44626D01*
X66546Y44568D01*
X66597Y44506D01*
X66655Y44451D01*
X66724Y44400D01*
X66728D01*
X66735Y44397D01*
X66746Y44389D01*
X66761Y44382D01*
X66779Y44375D01*
X66801Y44364D01*
X66852Y44342D01*
X66917Y44320D01*
X66990Y44302D01*
X67070Y44287D01*
X67154Y44284D01*
X67179D01*
X67201Y44287D01*
X67227D01*
X67252Y44291D01*
X67318Y44306D01*
X67394Y44324D01*
X67471Y44353D01*
X67551Y44393D01*
X67591Y44415D01*
X67627Y44444D01*
X67631Y44448D01*
X67634Y44451D01*
X67645Y44462D01*
X67660Y44473D01*
X67674Y44491D01*
X67693Y44513D01*
X67714Y44535D01*
X67733Y44564D01*
X67754Y44597D01*
X67780Y44633D01*
X67802Y44670D01*
X67824Y44713D01*
X67842Y44761D01*
X67860Y44812D01*
X67878Y44866D01*
X67893Y44925D01*
X68228Y44841D01*
Y44837D01*
X68224Y44823D01*
X68217Y44801D01*
X68206Y44772D01*
X68195Y44739D01*
X68180Y44699D01*
X68162Y44655D01*
X68140Y44608D01*
X68089Y44506D01*
X68024Y44404D01*
X67984Y44353D01*
X67944Y44302D01*
X67900Y44258D01*
X67849Y44215D01*
X67845Y44211D01*
X67838Y44204D01*
X67820Y44197D01*
X67802Y44182D01*
X67773Y44164D01*
X67743Y44146D01*
X67703Y44127D01*
X67663Y44109D01*
X67616Y44087D01*
X67565Y44069D01*
X67511Y44051D01*
X67452Y44033D01*
X67390Y44018D01*
X67325Y44011D01*
X67256Y44004D01*
X67183Y44000D01*
X67143D01*
X67114Y44004D01*
X67081D01*
X67041Y44007D01*
X66997Y44014D01*
X66946Y44022D01*
X66841Y44040D01*
X66732Y44069D01*
X66622Y44109D01*
X66571Y44135D01*
X66521Y44164D01*
X66517Y44167D01*
X66510Y44171D01*
X66495Y44182D01*
X66480Y44197D01*
X66459Y44211D01*
X66433Y44233D01*
X66404Y44258D01*
X66375Y44287D01*
X66346Y44320D01*
X66313Y44353D01*
X66247Y44437D01*
X66186Y44535D01*
X66131Y44644D01*
Y44648D01*
X66124Y44659D01*
X66120Y44677D01*
X66109Y44699D01*
X66102Y44728D01*
X66091Y44764D01*
X66076Y44804D01*
X66066Y44848D01*
X66054Y44895D01*
X66040Y44950D01*
X66022Y45063D01*
X66007Y45190D01*
X66000Y45321D01*
Y45325D01*
Y45340D01*
Y45361D01*
X66004Y45387D01*
Y45423D01*
X66007Y45460D01*
X66011Y45507D01*
X66018Y45554D01*
X66036Y45660D01*
X66062Y45776D01*
X66098Y45893D01*
X66149Y46006D01*
X66153Y46009D01*
X66157Y46020D01*
X66164Y46035D01*
X66178Y46053D01*
X66193Y46078D01*
X66211Y46108D01*
X66258Y46173D01*
X66320Y46246D01*
X66393Y46319D01*
X66477Y46391D01*
X66575Y46453D01*
X66579Y46457D01*
X66590Y46461D01*
X66604Y46468D01*
X66622Y46479D01*
X66651Y46490D01*
X66681Y46501D01*
X66717Y46515D01*
X66757Y46530D01*
X66801Y46544D01*
X66848Y46559D01*
X66950Y46581D01*
X67067Y46599D01*
X67187Y46606D01*
X67223D01*
X67248Y46603D01*
D02*
G37*
G36*
X69407Y46570D02*
X69436Y46566D01*
X69472Y46562D01*
X69512Y46555D01*
X69553Y46548D01*
X69647Y46523D01*
X69742Y46486D01*
X69789Y46464D01*
X69836Y46439D01*
X69880Y46406D01*
X69920Y46370D01*
X69924Y46366D01*
X69931Y46362D01*
X69938Y46348D01*
X69953Y46333D01*
X69971Y46315D01*
X69989Y46290D01*
X70008Y46264D01*
X70029Y46231D01*
X70066Y46162D01*
X70102Y46075D01*
X70117Y46031D01*
X70124Y45980D01*
X70131Y45929D01*
X70135Y45875D01*
Y45867D01*
Y45849D01*
X70131Y45820D01*
X70128Y45780D01*
X70120Y45736D01*
X70106Y45685D01*
X70091Y45631D01*
X70069Y45576D01*
X70066Y45569D01*
X70059Y45551D01*
X70044Y45522D01*
X70022Y45481D01*
X69993Y45438D01*
X69957Y45383D01*
X69913Y45329D01*
X69862Y45267D01*
X69855Y45259D01*
X69836Y45237D01*
X69818Y45219D01*
X69800Y45201D01*
X69778Y45179D01*
X69749Y45150D01*
X69720Y45121D01*
X69684Y45088D01*
X69647Y45052D01*
X69604Y45012D01*
X69556Y44972D01*
X69505Y44925D01*
X69447Y44877D01*
X69389Y44826D01*
X69385Y44823D01*
X69378Y44815D01*
X69363Y44804D01*
X69345Y44790D01*
X69323Y44768D01*
X69298Y44746D01*
X69239Y44699D01*
X69178Y44644D01*
X69119Y44590D01*
X69068Y44542D01*
X69047Y44524D01*
X69028Y44506D01*
X69025Y44502D01*
X69014Y44491D01*
X68999Y44477D01*
X68981Y44455D01*
X68963Y44429D01*
X68941Y44404D01*
X68897Y44342D01*
X70139D01*
Y44044D01*
X68468D01*
Y44047D01*
Y44062D01*
Y44084D01*
X68471Y44113D01*
X68475Y44146D01*
X68482Y44182D01*
X68490Y44218D01*
X68504Y44258D01*
Y44262D01*
X68508Y44266D01*
X68515Y44287D01*
X68530Y44320D01*
X68552Y44364D01*
X68581Y44415D01*
X68617Y44473D01*
X68657Y44531D01*
X68708Y44593D01*
Y44597D01*
X68715Y44600D01*
X68734Y44622D01*
X68766Y44655D01*
X68814Y44703D01*
X68868Y44757D01*
X68937Y44823D01*
X69021Y44895D01*
X69112Y44972D01*
X69116Y44976D01*
X69130Y44986D01*
X69152Y45005D01*
X69178Y45026D01*
X69210Y45055D01*
X69251Y45088D01*
X69291Y45125D01*
X69338Y45165D01*
X69429Y45252D01*
X69520Y45340D01*
X69564Y45383D01*
X69604Y45427D01*
X69640Y45467D01*
X69669Y45507D01*
Y45511D01*
X69676Y45514D01*
X69684Y45525D01*
X69691Y45540D01*
X69716Y45580D01*
X69745Y45627D01*
X69771Y45685D01*
X69797Y45747D01*
X69811Y45816D01*
X69818Y45882D01*
Y45886D01*
Y45889D01*
X69815Y45911D01*
X69811Y45947D01*
X69800Y45987D01*
X69786Y46038D01*
X69760Y46089D01*
X69727Y46140D01*
X69684Y46191D01*
X69676Y46198D01*
X69658Y46213D01*
X69633Y46231D01*
X69593Y46257D01*
X69542Y46279D01*
X69483Y46300D01*
X69414Y46315D01*
X69338Y46319D01*
X69316D01*
X69301Y46315D01*
X69258Y46311D01*
X69207Y46300D01*
X69152Y46286D01*
X69090Y46260D01*
X69032Y46228D01*
X68977Y46184D01*
X68970Y46177D01*
X68956Y46158D01*
X68934Y46129D01*
X68912Y46086D01*
X68887Y46035D01*
X68865Y45969D01*
X68850Y45896D01*
X68843Y45813D01*
X68526Y45845D01*
Y45849D01*
X68530Y45860D01*
Y45878D01*
X68533Y45904D01*
X68541Y45933D01*
X68548Y45966D01*
X68559Y46006D01*
X68570Y46046D01*
X68599Y46133D01*
X68643Y46220D01*
X68668Y46264D01*
X68701Y46308D01*
X68734Y46348D01*
X68770Y46384D01*
X68774Y46388D01*
X68781Y46391D01*
X68792Y46402D01*
X68810Y46413D01*
X68832Y46428D01*
X68857Y46442D01*
X68887Y46461D01*
X68923Y46479D01*
X68963Y46497D01*
X69007Y46515D01*
X69054Y46530D01*
X69105Y46544D01*
X69160Y46555D01*
X69218Y46566D01*
X69280Y46570D01*
X69345Y46573D01*
X69381D01*
X69407Y46570D01*
D02*
G37*
G36*
X35956Y45367D02*
X33987D01*
X33991Y45363D01*
X34005Y45345D01*
X34027Y45323D01*
X34053Y45287D01*
X34085Y45247D01*
X34122Y45196D01*
X34162Y45138D01*
X34202Y45072D01*
Y45068D01*
X34205Y45065D01*
X34220Y45043D01*
X34238Y45007D01*
X34260Y44963D01*
X34286Y44912D01*
X34311Y44857D01*
X34337Y44803D01*
X34358Y44748D01*
X34060D01*
Y44752D01*
X34053Y44759D01*
X34049Y44774D01*
X34038Y44792D01*
X34027Y44814D01*
X34013Y44839D01*
X33976Y44901D01*
X33936Y44974D01*
X33885Y45047D01*
X33827Y45123D01*
X33765Y45199D01*
X33761Y45203D01*
X33758Y45207D01*
X33747Y45218D01*
X33736Y45232D01*
X33700Y45265D01*
X33656Y45309D01*
X33605Y45352D01*
X33547Y45400D01*
X33488Y45440D01*
X33426Y45476D01*
Y45676D01*
X35956D01*
Y45367D01*
D02*
G37*
G36*
X35177Y44224D02*
X35199Y44217D01*
X35228Y44206D01*
X35261Y44195D01*
X35301Y44180D01*
X35345Y44162D01*
X35392Y44140D01*
X35494Y44089D01*
X35596Y44024D01*
X35647Y43984D01*
X35698Y43944D01*
X35742Y43900D01*
X35785Y43849D01*
X35789Y43845D01*
X35796Y43838D01*
X35803Y43820D01*
X35818Y43802D01*
X35836Y43773D01*
X35854Y43744D01*
X35873Y43703D01*
X35891Y43663D01*
X35913Y43616D01*
X35931Y43565D01*
X35949Y43511D01*
X35967Y43452D01*
X35982Y43390D01*
X35989Y43325D01*
X35996Y43256D01*
X36000Y43183D01*
Y43143D01*
X35996Y43114D01*
Y43081D01*
X35993Y43041D01*
X35985Y42997D01*
X35978Y42946D01*
X35960Y42841D01*
X35931Y42732D01*
X35891Y42622D01*
X35865Y42571D01*
X35836Y42520D01*
X35833Y42517D01*
X35829Y42510D01*
X35818Y42495D01*
X35803Y42480D01*
X35789Y42459D01*
X35767Y42433D01*
X35742Y42404D01*
X35713Y42375D01*
X35680Y42346D01*
X35647Y42313D01*
X35563Y42248D01*
X35465Y42186D01*
X35356Y42131D01*
X35352D01*
X35341Y42124D01*
X35323Y42120D01*
X35301Y42109D01*
X35272Y42102D01*
X35236Y42091D01*
X35196Y42076D01*
X35152Y42066D01*
X35105Y42055D01*
X35050Y42040D01*
X34937Y42022D01*
X34810Y42007D01*
X34679Y42000D01*
X34675D01*
X34661D01*
X34639D01*
X34613Y42004D01*
X34577D01*
X34540Y42007D01*
X34493Y42011D01*
X34446Y42018D01*
X34340Y42036D01*
X34224Y42062D01*
X34107Y42098D01*
X33994Y42149D01*
X33991Y42153D01*
X33980Y42156D01*
X33965Y42164D01*
X33947Y42178D01*
X33922Y42193D01*
X33893Y42211D01*
X33827Y42258D01*
X33754Y42320D01*
X33681Y42393D01*
X33609Y42477D01*
X33547Y42575D01*
X33543Y42579D01*
X33539Y42590D01*
X33532Y42604D01*
X33521Y42622D01*
X33510Y42652D01*
X33499Y42681D01*
X33485Y42717D01*
X33470Y42757D01*
X33456Y42801D01*
X33441Y42848D01*
X33419Y42950D01*
X33401Y43066D01*
X33394Y43187D01*
Y43223D01*
X33397Y43249D01*
X33401Y43281D01*
X33405Y43321D01*
X33408Y43361D01*
X33419Y43409D01*
X33441Y43507D01*
X33474Y43616D01*
X33496Y43671D01*
X33521Y43722D01*
X33554Y43773D01*
X33587Y43824D01*
X33590Y43827D01*
X33594Y43834D01*
X33605Y43849D01*
X33623Y43867D01*
X33641Y43885D01*
X33667Y43911D01*
X33696Y43936D01*
X33725Y43966D01*
X33761Y43995D01*
X33805Y44024D01*
X33849Y44056D01*
X33896Y44086D01*
X33951Y44111D01*
X34005Y44140D01*
X34064Y44162D01*
X34129Y44184D01*
X34205Y43856D01*
X34202D01*
X34195Y43853D01*
X34180Y43845D01*
X34162Y43838D01*
X34140Y43831D01*
X34111Y43820D01*
X34053Y43791D01*
X33987Y43754D01*
X33922Y43711D01*
X33860Y43656D01*
X33805Y43598D01*
X33798Y43591D01*
X33783Y43569D01*
X33765Y43532D01*
X33740Y43485D01*
X33718Y43423D01*
X33696Y43354D01*
X33681Y43270D01*
X33678Y43179D01*
Y43150D01*
X33681Y43132D01*
Y43106D01*
X33685Y43077D01*
X33696Y43008D01*
X33711Y42932D01*
X33736Y42852D01*
X33772Y42768D01*
X33820Y42692D01*
Y42688D01*
X33827Y42684D01*
X33845Y42659D01*
X33874Y42626D01*
X33918Y42586D01*
X33973Y42539D01*
X34034Y42495D01*
X34111Y42455D01*
X34195Y42419D01*
X34198D01*
X34205Y42415D01*
X34216Y42411D01*
X34235Y42408D01*
X34257Y42400D01*
X34282Y42393D01*
X34344Y42382D01*
X34417Y42368D01*
X34497Y42353D01*
X34584Y42346D01*
X34679Y42342D01*
X34682D01*
X34693D01*
X34712D01*
X34733D01*
X34759Y42346D01*
X34792D01*
X34828Y42349D01*
X34868Y42353D01*
X34955Y42364D01*
X35050Y42382D01*
X35145Y42404D01*
X35239Y42433D01*
X35243D01*
X35250Y42437D01*
X35261Y42444D01*
X35279Y42451D01*
X35323Y42473D01*
X35374Y42506D01*
X35432Y42546D01*
X35494Y42597D01*
X35549Y42655D01*
X35600Y42724D01*
Y42728D01*
X35603Y42735D01*
X35611Y42746D01*
X35618Y42761D01*
X35625Y42779D01*
X35636Y42801D01*
X35658Y42852D01*
X35680Y42917D01*
X35698Y42990D01*
X35713Y43070D01*
X35716Y43154D01*
Y43179D01*
X35713Y43201D01*
Y43227D01*
X35709Y43252D01*
X35694Y43318D01*
X35676Y43394D01*
X35647Y43470D01*
X35607Y43551D01*
X35585Y43591D01*
X35556Y43627D01*
X35552Y43631D01*
X35549Y43634D01*
X35538Y43645D01*
X35527Y43660D01*
X35509Y43674D01*
X35487Y43692D01*
X35465Y43714D01*
X35436Y43733D01*
X35403Y43754D01*
X35367Y43780D01*
X35330Y43802D01*
X35287Y43824D01*
X35239Y43842D01*
X35188Y43860D01*
X35134Y43878D01*
X35076Y43893D01*
X35159Y44228D01*
X35163D01*
X35177Y44224D01*
D02*
G37*
G36*
X186000Y159481D02*
X185032D01*
X184966Y159485D01*
X184894Y159488D01*
X184821Y159496D01*
X184748Y159507D01*
X184686Y159518D01*
X184682D01*
X184675Y159521D01*
X184664D01*
X184650Y159529D01*
X184609Y159539D01*
X184559Y159558D01*
X184500Y159583D01*
X184439Y159616D01*
X184377Y159652D01*
X184318Y159699D01*
X184315Y159703D01*
X184311Y159707D01*
X184300Y159718D01*
X184286Y159729D01*
X184249Y159765D01*
X184205Y159816D01*
X184158Y159878D01*
X184107Y159951D01*
X184060Y160034D01*
X184020Y160129D01*
Y160133D01*
X184016Y160140D01*
X184009Y160154D01*
X184005Y160176D01*
X183994Y160202D01*
X183987Y160231D01*
X183980Y160264D01*
X183969Y160304D01*
X183958Y160344D01*
X183951Y160391D01*
X183932Y160493D01*
X183922Y160606D01*
X183918Y160730D01*
Y160733D01*
Y160741D01*
Y160759D01*
Y160777D01*
X183922Y160802D01*
Y160832D01*
X183925Y160901D01*
X183936Y160981D01*
X183947Y161065D01*
X183965Y161152D01*
X183987Y161239D01*
Y161243D01*
X183991Y161250D01*
X183994Y161261D01*
X183998Y161276D01*
X184013Y161316D01*
X184034Y161367D01*
X184056Y161425D01*
X184085Y161483D01*
X184122Y161545D01*
X184158Y161603D01*
X184162Y161610D01*
X184176Y161629D01*
X184198Y161654D01*
X184227Y161687D01*
X184260Y161723D01*
X184300Y161760D01*
X184340Y161800D01*
X184388Y161833D01*
X184395Y161836D01*
X184409Y161847D01*
X184435Y161862D01*
X184471Y161880D01*
X184515Y161902D01*
X184566Y161920D01*
X184624Y161942D01*
X184690Y161960D01*
X184697D01*
X184708Y161964D01*
X184719Y161967D01*
X184755Y161971D01*
X184806Y161978D01*
X184864Y161986D01*
X184933Y161993D01*
X185010Y161996D01*
X185094Y162000D01*
X186000D01*
Y159481D01*
D02*
G37*
G36*
X183630Y161996D02*
Y161982D01*
Y161960D01*
X183627Y161931D01*
X183623Y161898D01*
X183616Y161862D01*
X183608Y161825D01*
X183594Y161785D01*
Y161782D01*
X183590Y161778D01*
X183583Y161756D01*
X183569Y161723D01*
X183547Y161680D01*
X183518Y161629D01*
X183481Y161571D01*
X183441Y161512D01*
X183390Y161450D01*
Y161447D01*
X183383Y161443D01*
X183365Y161421D01*
X183332Y161389D01*
X183285Y161341D01*
X183230Y161287D01*
X183161Y161221D01*
X183077Y161148D01*
X182986Y161072D01*
X182983Y161068D01*
X182968Y161057D01*
X182946Y161039D01*
X182921Y161017D01*
X182888Y160988D01*
X182848Y160955D01*
X182808Y160919D01*
X182760Y160879D01*
X182669Y160792D01*
X182578Y160704D01*
X182535Y160661D01*
X182495Y160617D01*
X182458Y160577D01*
X182429Y160537D01*
Y160533D01*
X182422Y160529D01*
X182415Y160519D01*
X182407Y160504D01*
X182382Y160464D01*
X182353Y160417D01*
X182327Y160358D01*
X182302Y160296D01*
X182287Y160227D01*
X182280Y160162D01*
Y160158D01*
Y160154D01*
X182284Y160133D01*
X182287Y160096D01*
X182298Y160056D01*
X182313Y160005D01*
X182338Y159954D01*
X182371Y159903D01*
X182415Y159852D01*
X182422Y159845D01*
X182440Y159831D01*
X182466Y159812D01*
X182506Y159787D01*
X182557Y159765D01*
X182615Y159743D01*
X182684Y159729D01*
X182760Y159725D01*
X182782D01*
X182797Y159729D01*
X182841Y159732D01*
X182891Y159743D01*
X182946Y159758D01*
X183008Y159783D01*
X183066Y159816D01*
X183121Y159860D01*
X183128Y159867D01*
X183143Y159885D01*
X183165Y159914D01*
X183186Y159958D01*
X183212Y160009D01*
X183234Y160074D01*
X183248Y160147D01*
X183256Y160231D01*
X183572Y160198D01*
Y160195D01*
X183569Y160184D01*
Y160166D01*
X183565Y160140D01*
X183558Y160111D01*
X183550Y160078D01*
X183539Y160038D01*
X183528Y159998D01*
X183499Y159911D01*
X183456Y159823D01*
X183430Y159780D01*
X183397Y159736D01*
X183365Y159696D01*
X183328Y159660D01*
X183325Y159656D01*
X183317Y159652D01*
X183306Y159641D01*
X183288Y159630D01*
X183266Y159616D01*
X183241Y159601D01*
X183212Y159583D01*
X183175Y159565D01*
X183135Y159547D01*
X183092Y159529D01*
X183044Y159514D01*
X182993Y159499D01*
X182939Y159488D01*
X182880Y159477D01*
X182819Y159474D01*
X182753Y159470D01*
X182717D01*
X182691Y159474D01*
X182662Y159477D01*
X182626Y159481D01*
X182586Y159488D01*
X182546Y159496D01*
X182451Y159521D01*
X182356Y159558D01*
X182309Y159579D01*
X182262Y159605D01*
X182218Y159638D01*
X182178Y159674D01*
X182174Y159678D01*
X182167Y159681D01*
X182160Y159696D01*
X182145Y159711D01*
X182127Y159729D01*
X182109Y159754D01*
X182091Y159780D01*
X182069Y159812D01*
X182032Y159881D01*
X181996Y159969D01*
X181982Y160013D01*
X181974Y160064D01*
X181967Y160115D01*
X181963Y160169D01*
Y160176D01*
Y160195D01*
X181967Y160224D01*
X181971Y160264D01*
X181978Y160307D01*
X181992Y160358D01*
X182007Y160413D01*
X182029Y160468D01*
X182032Y160475D01*
X182040Y160493D01*
X182054Y160522D01*
X182076Y160562D01*
X182105Y160606D01*
X182142Y160661D01*
X182185Y160715D01*
X182236Y160777D01*
X182244Y160784D01*
X182262Y160806D01*
X182280Y160824D01*
X182298Y160843D01*
X182320Y160864D01*
X182349Y160893D01*
X182378Y160923D01*
X182415Y160955D01*
X182451Y160992D01*
X182495Y161032D01*
X182542Y161072D01*
X182593Y161119D01*
X182651Y161167D01*
X182710Y161217D01*
X182713Y161221D01*
X182720Y161228D01*
X182735Y161239D01*
X182753Y161254D01*
X182775Y161276D01*
X182800Y161298D01*
X182859Y161345D01*
X182921Y161399D01*
X182979Y161454D01*
X183030Y161501D01*
X183052Y161520D01*
X183070Y161538D01*
X183073Y161541D01*
X183084Y161552D01*
X183099Y161567D01*
X183117Y161589D01*
X183135Y161614D01*
X183157Y161640D01*
X183201Y161702D01*
X181960D01*
Y162000D01*
X183630D01*
Y161996D01*
D02*
G37*
%LPC*%
G36*
X79378Y166319D02*
X79320D01*
X79305Y166315D01*
X79265Y166311D01*
X79218Y166297D01*
X79159Y166279D01*
X79098Y166246D01*
X79036Y166206D01*
X79007Y166177D01*
X78978Y166148D01*
Y166144D01*
X78970Y166140D01*
X78963Y166129D01*
X78956Y166118D01*
X78930Y166082D01*
X78905Y166031D01*
X78875Y165969D01*
X78850Y165893D01*
X78835Y165805D01*
X78828Y165711D01*
Y165707D01*
Y165700D01*
Y165689D01*
X78832Y165671D01*
Y165649D01*
X78835Y165627D01*
X78846Y165572D01*
X78865Y165510D01*
X78886Y165445D01*
X78923Y165380D01*
X78970Y165321D01*
X78978Y165314D01*
X78996Y165299D01*
X79028Y165274D01*
X79068Y165249D01*
X79123Y165219D01*
X79185Y165194D01*
X79254Y165179D01*
X79331Y165172D01*
X79352D01*
X79367Y165176D01*
X79407Y165179D01*
X79454Y165190D01*
X79513Y165208D01*
X79571Y165234D01*
X79629Y165270D01*
X79684Y165321D01*
X79691Y165329D01*
X79706Y165350D01*
X79727Y165383D01*
X79756Y165430D01*
X79782Y165489D01*
X79804Y165558D01*
X79818Y165642D01*
X79826Y165736D01*
Y165740D01*
Y165747D01*
Y165762D01*
X79822Y165780D01*
Y165805D01*
X79818Y165831D01*
X79807Y165889D01*
X79793Y165958D01*
X79767Y166031D01*
X79731Y166100D01*
X79684Y166162D01*
Y166166D01*
X79676Y166169D01*
X79658Y166188D01*
X79629Y166213D01*
X79589Y166242D01*
X79538Y166268D01*
X79480Y166293D01*
X79414Y166311D01*
X79378Y166319D01*
D02*
G37*
G36*
X69102Y136397D02*
X69073D01*
X69040Y136390D01*
X68996Y136383D01*
X68949Y136368D01*
X68898Y136350D01*
X68850Y136321D01*
X68803Y136281D01*
X68800Y136277D01*
X68785Y136263D01*
X68767Y136237D01*
X68748Y136204D01*
X68727Y136164D01*
X68708Y136117D01*
X68694Y136066D01*
X68690Y136008D01*
Y136004D01*
Y136001D01*
X68694Y135979D01*
X68698Y135946D01*
X68705Y135906D01*
X68719Y135859D01*
X68738Y135811D01*
X68767Y135760D01*
X68803Y135717D01*
X68807Y135713D01*
X68825Y135698D01*
X68850Y135680D01*
X68883Y135662D01*
X68927Y135640D01*
X68978Y135622D01*
X69036Y135608D01*
X69102Y135604D01*
X69109D01*
X69131Y135608D01*
X69164Y135611D01*
X69207Y135618D01*
X69254Y135633D01*
X69302Y135651D01*
X69353Y135680D01*
X69397Y135717D01*
X69400Y135720D01*
X69415Y135739D01*
X69433Y135760D01*
X69455Y135793D01*
X69476Y135833D01*
X69495Y135880D01*
X69509Y135935D01*
X69513Y135993D01*
Y135997D01*
Y136001D01*
Y136022D01*
X69506Y136055D01*
X69498Y136095D01*
X69484Y136139D01*
X69462Y136186D01*
X69433Y136234D01*
X69393Y136281D01*
X69389Y136284D01*
X69371Y136299D01*
X69345Y136317D01*
X69313Y136339D01*
X69269Y136361D01*
X69222Y136379D01*
X69164Y136394D01*
X69102Y136397D01*
D02*
G37*
G36*
X69091Y135353D02*
X69069D01*
X69054Y135349D01*
X69014Y135345D01*
X68963Y135335D01*
X68905Y135316D01*
X68847Y135291D01*
X68785Y135254D01*
X68730Y135207D01*
X68723Y135200D01*
X68708Y135182D01*
X68687Y135149D01*
X68661Y135109D01*
X68632Y135054D01*
X68610Y134992D01*
X68596Y134923D01*
X68588Y134847D01*
Y134839D01*
Y134825D01*
X68592Y134799D01*
X68596Y134767D01*
X68603Y134727D01*
X68614Y134683D01*
X68628Y134639D01*
X68647Y134592D01*
X68650Y134588D01*
X68657Y134570D01*
X68672Y134548D01*
X68694Y134523D01*
X68719Y134490D01*
X68752Y134457D01*
X68789Y134428D01*
X68832Y134399D01*
X68840Y134395D01*
X68854Y134388D01*
X68880Y134377D01*
X68912Y134366D01*
X68952Y134355D01*
X69000Y134344D01*
X69051Y134337D01*
X69102Y134334D01*
X69124D01*
X69138Y134337D01*
X69182Y134341D01*
X69233Y134352D01*
X69291Y134370D01*
X69353Y134392D01*
X69411Y134428D01*
X69469Y134476D01*
X69476Y134483D01*
X69491Y134501D01*
X69517Y134534D01*
X69542Y134574D01*
X69568Y134625D01*
X69593Y134687D01*
X69608Y134759D01*
X69615Y134836D01*
Y134839D01*
Y134847D01*
Y134858D01*
X69611Y134872D01*
X69608Y134912D01*
X69597Y134967D01*
X69578Y135021D01*
X69553Y135083D01*
X69517Y135145D01*
X69466Y135203D01*
X69458Y135211D01*
X69440Y135225D01*
X69407Y135251D01*
X69364Y135280D01*
X69309Y135305D01*
X69244Y135331D01*
X69171Y135345D01*
X69091Y135353D01*
D02*
G37*
G36*
X139502Y60060D02*
X138708Y58932D01*
X139502D01*
Y60060D01*
D02*
G37*
G36*
X217356Y11405D02*
X217334D01*
X217320Y11401D01*
X217283Y11398D01*
X217232Y11387D01*
X217178Y11369D01*
X217116Y11339D01*
X217057Y11303D01*
X216999Y11252D01*
X216992Y11245D01*
X216978Y11227D01*
X216952Y11194D01*
X216927Y11147D01*
X216901Y11092D01*
X216876Y11023D01*
X216861Y10946D01*
X216854Y10859D01*
Y10852D01*
Y10834D01*
X216857Y10801D01*
X216861Y10761D01*
X216868Y10713D01*
X216883Y10662D01*
X216897Y10608D01*
X216919Y10553D01*
X216923Y10546D01*
X216934Y10528D01*
X216948Y10502D01*
X216970Y10469D01*
X216996Y10437D01*
X217028Y10397D01*
X217065Y10364D01*
X217108Y10331D01*
X217116Y10328D01*
X217130Y10320D01*
X217156Y10306D01*
X217189Y10295D01*
X217225Y10280D01*
X217269Y10266D01*
X217316Y10258D01*
X217367Y10255D01*
X217385D01*
X217400Y10258D01*
X217436Y10262D01*
X217483Y10273D01*
X217534Y10295D01*
X217593Y10320D01*
X217651Y10360D01*
X217680Y10382D01*
X217705Y10411D01*
Y10415D01*
X217713Y10419D01*
X217727Y10440D01*
X217749Y10477D01*
X217778Y10524D01*
X217804Y10586D01*
X217826Y10659D01*
X217840Y10742D01*
X217847Y10841D01*
Y10844D01*
Y10852D01*
Y10866D01*
X217844Y10885D01*
Y10906D01*
X217840Y10932D01*
X217829Y10990D01*
X217815Y11056D01*
X217789Y11125D01*
X217753Y11190D01*
X217705Y11252D01*
X217698Y11259D01*
X217680Y11278D01*
X217651Y11299D01*
X217611Y11328D01*
X217560Y11358D01*
X217502Y11379D01*
X217432Y11398D01*
X217356Y11405D01*
D02*
G37*
G36*
X244707Y158745D02*
X244686D01*
X244671Y158742D01*
X244635Y158734D01*
X244584Y158720D01*
X244529Y158694D01*
X244467Y158658D01*
X244438Y158636D01*
X244409Y158607D01*
X244380Y158578D01*
X244351Y158541D01*
Y158538D01*
X244343Y158530D01*
X244336Y158520D01*
X244329Y158501D01*
X244314Y158476D01*
X244303Y158443D01*
X244289Y158407D01*
X244274Y158363D01*
X244263Y158308D01*
X244249Y158250D01*
X244234Y158181D01*
X244223Y158108D01*
X244216Y158021D01*
X244209Y157930D01*
X244201Y157828D01*
Y157715D01*
Y157712D01*
Y157708D01*
Y157690D01*
Y157657D01*
X244205Y157613D01*
Y157566D01*
X244209Y157508D01*
X244212Y157446D01*
X244220Y157377D01*
X244238Y157238D01*
X244249Y157169D01*
X244263Y157104D01*
X244278Y157042D01*
X244300Y156983D01*
X244322Y156932D01*
X244347Y156889D01*
Y156885D01*
X244354Y156881D01*
X244362Y156871D01*
X244373Y156856D01*
X244405Y156823D01*
X244445Y156783D01*
X244500Y156747D01*
X244562Y156714D01*
X244595Y156700D01*
X244631Y156689D01*
X244671Y156685D01*
X244711Y156681D01*
X244733D01*
X244747Y156685D01*
X244788Y156692D01*
X244835Y156703D01*
X244889Y156725D01*
X244948Y156758D01*
X244977Y156780D01*
X245006Y156801D01*
X245031Y156831D01*
X245057Y156863D01*
Y156867D01*
X245064Y156874D01*
X245072Y156889D01*
X245082Y156907D01*
X245093Y156936D01*
X245108Y156969D01*
X245119Y157009D01*
X245133Y157056D01*
X245148Y157111D01*
X245163Y157173D01*
X245177Y157242D01*
X245188Y157318D01*
X245199Y157406D01*
X245206Y157500D01*
X245210Y157602D01*
X245213Y157715D01*
Y157722D01*
Y157741D01*
Y157773D01*
X245210Y157817D01*
Y157864D01*
X245206Y157923D01*
X245202Y157984D01*
X245195Y158050D01*
X245177Y158192D01*
X245166Y158261D01*
X245151Y158327D01*
X245137Y158388D01*
X245115Y158447D01*
X245093Y158498D01*
X245068Y158541D01*
Y158545D01*
X245061Y158549D01*
X245042Y158574D01*
X245010Y158607D01*
X244970Y158643D01*
X244915Y158680D01*
X244853Y158712D01*
X244784Y158738D01*
X244747Y158742D01*
X244707Y158745D01*
D02*
G37*
G36*
X185665Y161702D02*
X185068D01*
X185043Y161698D01*
X184988Y161694D01*
X184926Y161691D01*
X184861Y161683D01*
X184795Y161672D01*
X184741Y161658D01*
X184733Y161654D01*
X184715Y161651D01*
X184690Y161640D01*
X184657Y161625D01*
X184620Y161603D01*
X184584Y161581D01*
X184548Y161556D01*
X184511Y161527D01*
X184508Y161520D01*
X184493Y161505D01*
X184471Y161479D01*
X184446Y161443D01*
X184417Y161396D01*
X184384Y161341D01*
X184355Y161279D01*
X184329Y161210D01*
Y161206D01*
X184326Y161199D01*
X184322Y161188D01*
X184318Y161174D01*
X184315Y161155D01*
X184307Y161130D01*
X184300Y161105D01*
X184293Y161075D01*
X184282Y161003D01*
X184271Y160919D01*
X184264Y160824D01*
X184260Y160722D01*
Y160719D01*
Y160704D01*
Y160686D01*
X184264Y160657D01*
Y160624D01*
X184267Y160588D01*
X184271Y160544D01*
X184275Y160500D01*
X184293Y160402D01*
X184315Y160300D01*
X184347Y160205D01*
X184369Y160158D01*
X184391Y160118D01*
Y160115D01*
X184398Y160107D01*
X184406Y160096D01*
X184413Y160082D01*
X184442Y160045D01*
X184478Y160002D01*
X184526Y159954D01*
X184580Y159907D01*
X184642Y159867D01*
X184708Y159834D01*
X184715Y159831D01*
X184733Y159827D01*
X184766Y159816D01*
X184813Y159805D01*
X184872Y159798D01*
X184944Y159787D01*
X184988Y159783D01*
X185035D01*
X185083Y159780D01*
X185665D01*
Y161702D01*
D02*
G37*
%LPD*%
D12*
X21807Y144606D02*
Y185394D01*
Y144606D02*
X58776D01*
Y185394D01*
X21807D02*
X58776D01*
X63402Y158685D02*
Y169315D01*
Y158685D02*
X88598D01*
Y169315D01*
X63402D02*
X88598D01*
X7606Y128394D02*
X48394D01*
X7606Y77606D02*
Y128394D01*
Y77606D02*
X48394D01*
Y128394D01*
X58598Y188732D02*
Y205268D01*
X33402D02*
X58598D01*
X33402Y188732D02*
Y205268D01*
Y188732D02*
X58598D01*
X135732Y78244D02*
X152268D01*
Y103441D01*
X135732D02*
X152268D01*
X135732Y78244D02*
Y103441D01*
X53165Y125811D02*
Y142347D01*
Y125811D02*
X78362D01*
Y142347D01*
X53165D02*
X78362D01*
X159516Y21606D02*
Y62394D01*
Y21606D02*
X196484D01*
Y62394D01*
X159516D02*
X196484D01*
X123402Y52685D02*
Y63315D01*
Y52685D02*
X148598D01*
Y63315D01*
X123402D02*
X148598D01*
X201402Y4685D02*
Y15315D01*
Y4685D02*
X226598D01*
Y15315D01*
X201402D02*
X226598D01*
X201402Y18685D02*
Y29315D01*
Y18685D02*
X226598D01*
Y29315D01*
X201402D02*
X226598D01*
X201402Y43732D02*
Y60268D01*
Y43732D02*
X226598D01*
Y60268D01*
X201402D02*
X226598D01*
X205096Y108685D02*
Y119315D01*
X179899D02*
X205096D01*
X179899Y108685D02*
Y119315D01*
Y108685D02*
X205096D01*
X262598Y150732D02*
Y167268D01*
X237402D02*
X262598D01*
X237402Y150732D02*
Y167268D01*
Y150732D02*
X262598D01*
X27732Y29402D02*
X44268D01*
Y54598D01*
X27732D02*
X44268D01*
X27732Y29402D02*
Y54598D01*
X231945Y151173D02*
Y172827D01*
X140055D02*
X231945D01*
X140055Y151173D02*
Y172827D01*
Y151173D02*
X231945D01*
M02*
