G04*
G04 #@! TF.GenerationSoftware,Altium Limited,Altium Designer,21.2.1 (34)*
G04*
G04 Layer_Color=16711935*
%FSLAX25Y25*%
%MOIN*%
G70*
G04*
G04 #@! TF.SameCoordinates,3CCBA5C7-3EF3-4D3C-93EB-A50EB93EC52C*
G04*
G04*
G04 #@! TF.FilePolarity,Positive*
G04*
G01*
G75*
%ADD48C,0.00394*%
D48*
X130205Y105449D02*
G03*
X130205Y105449I-1969J0D01*
G01*
X237520Y143236D02*
G03*
X237520Y143236I-1969J0D01*
G01*
X54220Y83008D02*
Y108992D01*
X131780Y83008D02*
Y108992D01*
X54220Y83008D02*
X131780D01*
X54220Y108992D02*
X131780D01*
X71598Y145276D02*
Y154724D01*
X96402D01*
X71598Y145276D02*
X96402D01*
Y154724D01*
X96118Y175276D02*
Y184724D01*
X71315Y175276D02*
X96118D01*
X71315Y184724D02*
X96118D01*
X71315Y175276D02*
Y184724D01*
X192402Y79276D02*
Y88724D01*
X167598Y79276D02*
X192402D01*
X167598Y88724D02*
X192402D01*
X167598Y79276D02*
Y88724D01*
Y67276D02*
Y76724D01*
X192402D01*
X167598Y67276D02*
X192402D01*
Y76724D01*
X209598Y31276D02*
Y40724D01*
X234402D01*
X209598Y31276D02*
X234402D01*
Y40724D01*
X138236Y12646D02*
Y23354D01*
X117764D02*
X138236D01*
X117764Y12646D02*
X138236D01*
X117764D02*
Y23354D01*
X141402Y40276D02*
Y49724D01*
X116598Y40276D02*
X141402D01*
X116598Y49724D02*
X141402D01*
X116598Y40276D02*
Y49724D01*
Y27276D02*
Y36724D01*
X141402D01*
X116598Y27276D02*
X141402D01*
Y36724D01*
X232008Y69221D02*
X257992D01*
X232008Y146780D02*
X257992D01*
Y69221D02*
Y146780D01*
X232008Y69221D02*
Y146780D01*
X33921Y19158D02*
X74079D01*
Y5968D02*
Y24472D01*
X33921Y5968D02*
Y24472D01*
X74079D01*
X33921Y5968D02*
X74079D01*
X212236Y136646D02*
Y147354D01*
X191764D02*
X212236D01*
X191764Y136646D02*
X212236D01*
X191764D02*
Y147354D01*
X188380Y123276D02*
Y132724D01*
X213183D01*
X188380Y123276D02*
X213183D01*
Y132724D01*
X9000Y57748D02*
X19000D01*
Y6252D02*
Y57748D01*
X9000Y6252D02*
X19000D01*
X9000D02*
Y57748D01*
M02*
