G04*
G04 #@! TF.GenerationSoftware,Altium Limited,Altium Designer,21.2.1 (34)*
G04*
G04 Layer_Physical_Order=2*
G04 Layer_Color=16711680*
%FSLAX25Y25*%
%MOIN*%
G70*
G04*
G04 #@! TF.SameCoordinates,3CCBA5C7-3EF3-4D3C-93EB-A50EB93EC52C*
G04*
G04*
G04 #@! TF.FilePolarity,Positive*
G04*
G01*
G75*
%ADD18C,0.04921*%
%ADD19R,0.04921X0.04921*%
%ADD22C,0.04724*%
%ADD23R,0.04724X0.04724*%
%ADD24C,0.05512*%
%ADD25R,0.05512X0.05512*%
%ADD26R,0.04724X0.04724*%
%ADD31C,0.04331*%
%ADD32R,0.04331X0.04331*%
%ADD33C,0.08661*%
%ADD34R,0.08661X0.08661*%
%ADD37C,0.01500*%
%ADD38C,0.05906*%
%ADD39R,0.05906X0.05906*%
%ADD40R,0.05315X0.05315*%
%ADD41C,0.05315*%
%ADD42C,0.06496*%
%ADD43R,0.05906X0.05906*%
%ADD44C,0.06299*%
%ADD45R,0.06299X0.06299*%
%ADD46R,0.06102X0.06102*%
%ADD47C,0.06102*%
G36*
X273471Y1529D02*
X1529D01*
Y213471D01*
X273471D01*
Y1529D01*
D02*
G37*
%LPC*%
G36*
X59205Y200362D02*
X52480D01*
Y193638D01*
X59205D01*
Y200362D01*
D02*
G37*
G36*
X56377Y183461D02*
X55466D01*
X54585Y183225D01*
X53796Y182769D01*
X53152Y182125D01*
X52697Y181336D01*
X52461Y180456D01*
Y179544D01*
X52697Y178664D01*
X53152Y177875D01*
X53796Y177231D01*
X54585Y176775D01*
X55466Y176539D01*
X56377D01*
X57257Y176775D01*
X58046Y177231D01*
X58690Y177875D01*
X59146Y178664D01*
X59382Y179544D01*
Y180456D01*
X59146Y181336D01*
X58690Y182125D01*
X58046Y182769D01*
X57257Y183225D01*
X56377Y183461D01*
D02*
G37*
G36*
X105091Y183658D02*
X97776D01*
Y176342D01*
X105091D01*
Y183658D01*
D02*
G37*
G36*
X66482D02*
X65518D01*
X64588Y183408D01*
X63754Y182927D01*
X63073Y182246D01*
X62592Y181412D01*
X62343Y180482D01*
Y179518D01*
X62592Y178588D01*
X63073Y177754D01*
X63754Y177073D01*
X64588Y176592D01*
X65518Y176342D01*
X66482D01*
X67412Y176592D01*
X68246Y177073D01*
X68927Y177754D01*
X69408Y178588D01*
X69657Y179518D01*
Y180482D01*
X69408Y181412D01*
X68927Y182246D01*
X68246Y182927D01*
X67412Y183408D01*
X66482Y183658D01*
D02*
G37*
G36*
X56377Y173461D02*
X55466D01*
X54585Y173225D01*
X53796Y172769D01*
X53152Y172125D01*
X52697Y171336D01*
X52461Y170456D01*
Y169544D01*
X52697Y168664D01*
X53152Y167875D01*
X53796Y167231D01*
X54585Y166775D01*
X55466Y166539D01*
X56377D01*
X57257Y166775D01*
X58046Y167231D01*
X58690Y167875D01*
X59146Y168664D01*
X59382Y169544D01*
Y170456D01*
X59146Y171336D01*
X58690Y172125D01*
X58046Y172769D01*
X57257Y173225D01*
X56377Y173461D01*
D02*
G37*
G36*
X25117D02*
X24206D01*
X23326Y173225D01*
X22536Y172769D01*
X21892Y172125D01*
X21437Y171336D01*
X21201Y170456D01*
Y169544D01*
X21437Y168664D01*
X21892Y167875D01*
X22536Y167231D01*
X23326Y166775D01*
X24206Y166539D01*
X25117D01*
X25997Y166775D01*
X26786Y167231D01*
X27431Y167875D01*
X27886Y168664D01*
X28122Y169544D01*
Y170456D01*
X27886Y171336D01*
X27431Y172125D01*
X26786Y172769D01*
X25997Y173225D01*
X25117Y173461D01*
D02*
G37*
G36*
X69520Y167362D02*
X62795D01*
Y160638D01*
X69520D01*
Y167362D01*
D02*
G37*
G36*
X232551Y167331D02*
X221890D01*
Y156669D01*
X232551D01*
Y167331D01*
D02*
G37*
G36*
X145481D02*
X144078D01*
X142722Y166967D01*
X141506Y166266D01*
X140514Y165273D01*
X139812Y164058D01*
X139449Y162702D01*
Y161298D01*
X139812Y159942D01*
X140034Y159558D01*
X124261Y143784D01*
X46000D01*
X45317Y143649D01*
X44738Y143262D01*
X27679Y126202D01*
X27292Y125623D01*
X27156Y124940D01*
Y67679D01*
X15318Y55841D01*
X14533Y56051D01*
X13467D01*
X12436Y55775D01*
X11513Y55242D01*
X10758Y54488D01*
X10225Y53564D01*
X9949Y52533D01*
Y51467D01*
X10225Y50436D01*
X10758Y49512D01*
X11513Y48758D01*
X12436Y48225D01*
X13467Y47949D01*
X14533D01*
X15564Y48225D01*
X16488Y48758D01*
X17242Y49512D01*
X17775Y50436D01*
X18051Y51467D01*
Y52533D01*
X17841Y53318D01*
X30202Y65679D01*
X30202Y65679D01*
X30589Y66258D01*
X30725Y66940D01*
Y124201D01*
X46739Y140216D01*
X125000D01*
X125683Y140351D01*
X126262Y140738D01*
X142617Y157093D01*
X142722Y157033D01*
X144078Y156669D01*
X145481D01*
X146837Y157033D01*
X148053Y157734D01*
X149045Y158727D01*
X149747Y159942D01*
X150110Y161298D01*
Y162702D01*
X149747Y164058D01*
X149045Y165273D01*
X148053Y166266D01*
X146837Y166967D01*
X145481Y167331D01*
D02*
G37*
G36*
X56377Y163461D02*
X55466D01*
X54585Y163225D01*
X53796Y162769D01*
X53152Y162125D01*
X52697Y161336D01*
X52461Y160456D01*
Y159544D01*
X52697Y158664D01*
X53152Y157875D01*
X53796Y157231D01*
X54585Y156775D01*
X55466Y156539D01*
X56377D01*
X57257Y156775D01*
X58046Y157231D01*
X58690Y157875D01*
X59146Y158664D01*
X59382Y159544D01*
Y160456D01*
X59146Y161336D01*
X58690Y162125D01*
X58046Y162769D01*
X57257Y163225D01*
X56377Y163461D01*
D02*
G37*
G36*
X25117D02*
X24206D01*
X23326Y163225D01*
X22536Y162769D01*
X21892Y162125D01*
X21437Y161336D01*
X21201Y160456D01*
Y159544D01*
X21437Y158664D01*
X21892Y157875D01*
X22536Y157231D01*
X23326Y156775D01*
X24206Y156539D01*
X25117D01*
X25997Y156775D01*
X26786Y157231D01*
X27431Y157875D01*
X27886Y158664D01*
X28122Y159544D01*
Y160456D01*
X27886Y161336D01*
X27431Y162125D01*
X26786Y162769D01*
X25997Y163225D01*
X25117Y163461D01*
D02*
G37*
G36*
X263205Y162362D02*
X256480D01*
Y155638D01*
X263205D01*
Y162362D01*
D02*
G37*
G36*
X56377Y153461D02*
X55466D01*
X54585Y153225D01*
X53796Y152769D01*
X53152Y152125D01*
X52697Y151336D01*
X52461Y150456D01*
Y149544D01*
X52697Y148664D01*
X53152Y147875D01*
X53796Y147231D01*
X54585Y146775D01*
X55466Y146539D01*
X56377D01*
X57257Y146775D01*
X58046Y147231D01*
X58690Y147875D01*
X59146Y148664D01*
X59382Y149544D01*
Y150456D01*
X59146Y151336D01*
X58690Y152125D01*
X58046Y152769D01*
X57257Y153225D01*
X56377Y153461D01*
D02*
G37*
G36*
X25117D02*
X24206D01*
X23326Y153225D01*
X22536Y152769D01*
X21892Y152125D01*
X21437Y151336D01*
X21201Y150456D01*
Y149544D01*
X21437Y148664D01*
X21892Y147875D01*
X22536Y147231D01*
X23326Y146775D01*
X24206Y146539D01*
X25117D01*
X25997Y146775D01*
X26786Y147231D01*
X27431Y147875D01*
X27886Y148664D01*
X28122Y149544D01*
Y150456D01*
X27886Y151336D01*
X27431Y152125D01*
X26786Y152769D01*
X25997Y153225D01*
X25117Y153461D01*
D02*
G37*
G36*
X102198Y153657D02*
X101235D01*
X100305Y153408D01*
X99471Y152927D01*
X98790Y152246D01*
X98308Y151412D01*
X98059Y150481D01*
Y149519D01*
X98308Y148588D01*
X98790Y147754D01*
X99471Y147073D01*
X100305Y146592D01*
X101235Y146343D01*
X102198D01*
X103128Y146592D01*
X103962Y147073D01*
X104643Y147754D01*
X105125Y148588D01*
X105374Y149519D01*
Y150481D01*
X105125Y151412D01*
X104643Y152246D01*
X103962Y152927D01*
X103128Y153408D01*
X102198Y153657D01*
D02*
G37*
G36*
X69941D02*
X62626D01*
Y146343D01*
X69941D01*
Y153657D01*
D02*
G37*
G36*
X220276Y146248D02*
X219157D01*
X218077Y145958D01*
X217108Y145399D01*
X216317Y144608D01*
X215758Y143640D01*
X215469Y142559D01*
Y141441D01*
X215758Y140360D01*
X216317Y139392D01*
X217108Y138601D01*
X218077Y138041D01*
X219157Y137752D01*
X220276D01*
X221356Y138041D01*
X222325Y138601D01*
X223116Y139392D01*
X223675Y140360D01*
X223965Y141441D01*
Y142559D01*
X223675Y143640D01*
X223116Y144608D01*
X222325Y145399D01*
X221356Y145958D01*
X220276Y146248D01*
D02*
G37*
G36*
X260520Y141953D02*
X259480D01*
X258474Y141683D01*
X257573Y141163D01*
X256837Y140427D01*
X256317Y139526D01*
X256047Y138520D01*
Y137480D01*
X256317Y136474D01*
X256837Y135573D01*
X257573Y134837D01*
X258474Y134317D01*
X259480Y134047D01*
X260520D01*
X261526Y134317D01*
X262427Y134837D01*
X263163Y135573D01*
X263683Y136474D01*
X263953Y137480D01*
Y138520D01*
X263683Y139526D01*
X263163Y140427D01*
X262427Y141163D01*
X261526Y141683D01*
X260520Y141953D01*
D02*
G37*
G36*
X233953D02*
X226047D01*
Y134047D01*
X233953D01*
Y141953D01*
D02*
G37*
G36*
X59284Y137441D02*
X52559D01*
Y130717D01*
X59284D01*
Y137441D01*
D02*
G37*
G36*
X218979Y131658D02*
X218016D01*
X217086Y131408D01*
X216252Y130927D01*
X215571Y130246D01*
X215089Y129412D01*
X214840Y128481D01*
Y127518D01*
X215089Y126588D01*
X215571Y125754D01*
X216252Y125073D01*
X217086Y124592D01*
X218016Y124343D01*
X218979D01*
X219909Y124592D01*
X220743Y125073D01*
X221424Y125754D01*
X221906Y126588D01*
X222155Y127518D01*
Y128481D01*
X221906Y129412D01*
X221424Y130246D01*
X220743Y130927D01*
X219909Y131408D01*
X218979Y131658D01*
D02*
G37*
G36*
X230520Y131953D02*
X229480D01*
X228474Y131683D01*
X227573Y131163D01*
X226837Y130427D01*
X226317Y129526D01*
X226047Y128520D01*
Y127480D01*
X226239Y126763D01*
X195261Y95784D01*
X121000D01*
X121000Y95784D01*
X120317Y95648D01*
X120028Y95455D01*
X119738Y95262D01*
X119738Y95262D01*
X109237Y84761D01*
X108520Y84953D01*
X107480D01*
X106474Y84683D01*
X105573Y84163D01*
X104837Y83427D01*
X104317Y82526D01*
X104047Y81520D01*
Y80480D01*
X104317Y79474D01*
X104837Y78573D01*
X105573Y77837D01*
X106474Y77317D01*
X107480Y77047D01*
X108520D01*
X109526Y77317D01*
X110427Y77837D01*
X111163Y78573D01*
X111683Y79474D01*
X111953Y80480D01*
Y81520D01*
X111761Y82237D01*
X121739Y92216D01*
X196000D01*
X196683Y92352D01*
X197262Y92738D01*
X228763Y124239D01*
X229480Y124047D01*
X230520D01*
X231526Y124317D01*
X232427Y124837D01*
X233163Y125573D01*
X233683Y126474D01*
X233953Y127480D01*
Y128520D01*
X233683Y129526D01*
X233163Y130427D01*
X232427Y131163D01*
X231526Y131683D01*
X230520Y131953D01*
D02*
G37*
G36*
X44245Y121756D02*
X43255D01*
X42300Y121500D01*
X41444Y121005D01*
X40745Y120306D01*
X40250Y119450D01*
X39994Y118494D01*
Y117506D01*
X40250Y116550D01*
X40745Y115694D01*
X41444Y114995D01*
X42300Y114500D01*
X43255Y114244D01*
X44245D01*
X45200Y114500D01*
X46056Y114995D01*
X46755Y115694D01*
X47250Y116550D01*
X47506Y117506D01*
Y118494D01*
X47250Y119450D01*
X46755Y120306D01*
X46056Y121005D01*
X45200Y121500D01*
X44245Y121756D01*
D02*
G37*
G36*
X16006D02*
X8494D01*
Y114244D01*
X16006D01*
Y121756D01*
D02*
G37*
G36*
X260520Y121953D02*
X259480D01*
X258474Y121683D01*
X257573Y121163D01*
X256837Y120427D01*
X256317Y119526D01*
X256047Y118520D01*
Y117480D01*
X256317Y116474D01*
X256837Y115573D01*
X257573Y114837D01*
X258474Y114317D01*
X259480Y114047D01*
X260520D01*
X261526Y114317D01*
X262427Y114837D01*
X263163Y115573D01*
X263683Y116474D01*
X263953Y117480D01*
Y118520D01*
X263683Y119526D01*
X263163Y120427D01*
X262427Y121163D01*
X261526Y121683D01*
X260520Y121953D01*
D02*
G37*
G36*
X205702Y117362D02*
X198978D01*
Y110638D01*
X205702D01*
Y117362D01*
D02*
G37*
G36*
X131953Y114953D02*
X124047D01*
Y107047D01*
X131953D01*
Y114953D01*
D02*
G37*
G36*
X118520D02*
X117480D01*
X116474Y114683D01*
X115573Y114163D01*
X114837Y113427D01*
X114317Y112526D01*
X114047Y111520D01*
Y110480D01*
X114317Y109474D01*
X114837Y108573D01*
X115573Y107837D01*
X116474Y107317D01*
X117480Y107047D01*
X118520D01*
X119526Y107317D01*
X120427Y107837D01*
X121163Y108573D01*
X121683Y109474D01*
X121953Y110480D01*
Y111520D01*
X121683Y112526D01*
X121163Y113427D01*
X120427Y114163D01*
X119526Y114683D01*
X118520Y114953D01*
D02*
G37*
G36*
X108520D02*
X107480D01*
X106474Y114683D01*
X105573Y114163D01*
X104837Y113427D01*
X104317Y112526D01*
X104047Y111520D01*
Y110480D01*
X104317Y109474D01*
X104837Y108573D01*
X105573Y107837D01*
X106474Y107317D01*
X107480Y107047D01*
X108520D01*
X109526Y107317D01*
X110427Y107837D01*
X111163Y108573D01*
X111683Y109474D01*
X111953Y110480D01*
Y111520D01*
X111683Y112526D01*
X111163Y113427D01*
X110427Y114163D01*
X109526Y114683D01*
X108520Y114953D01*
D02*
G37*
G36*
X98520D02*
X97480D01*
X96474Y114683D01*
X95573Y114163D01*
X94837Y113427D01*
X94317Y112526D01*
X94047Y111520D01*
Y110480D01*
X94317Y109474D01*
X94837Y108573D01*
X95573Y107837D01*
X96474Y107317D01*
X97480Y107047D01*
X98520D01*
X99526Y107317D01*
X100427Y107837D01*
X101163Y108573D01*
X101683Y109474D01*
X101953Y110480D01*
Y111520D01*
X101683Y112526D01*
X101163Y113427D01*
X100427Y114163D01*
X99526Y114683D01*
X98520Y114953D01*
D02*
G37*
G36*
X88520D02*
X87480D01*
X86474Y114683D01*
X85573Y114163D01*
X84837Y113427D01*
X84317Y112526D01*
X84047Y111520D01*
Y110480D01*
X84317Y109474D01*
X84837Y108573D01*
X85573Y107837D01*
X86474Y107317D01*
X87480Y107047D01*
X88520D01*
X89526Y107317D01*
X90427Y107837D01*
X91163Y108573D01*
X91683Y109474D01*
X91953Y110480D01*
Y111520D01*
X91683Y112526D01*
X91163Y113427D01*
X90427Y114163D01*
X89526Y114683D01*
X88520Y114953D01*
D02*
G37*
G36*
X78520D02*
X77480D01*
X76474Y114683D01*
X75573Y114163D01*
X74837Y113427D01*
X74317Y112526D01*
X74047Y111520D01*
Y110480D01*
X74317Y109474D01*
X74837Y108573D01*
X75573Y107837D01*
X76474Y107317D01*
X77480Y107047D01*
X78520D01*
X79526Y107317D01*
X80427Y107837D01*
X81163Y108573D01*
X81683Y109474D01*
X81953Y110480D01*
Y111520D01*
X81683Y112526D01*
X81163Y113427D01*
X80427Y114163D01*
X79526Y114683D01*
X78520Y114953D01*
D02*
G37*
G36*
X68520D02*
X67480D01*
X66474Y114683D01*
X65573Y114163D01*
X64837Y113427D01*
X64317Y112526D01*
X64047Y111520D01*
Y110480D01*
X64317Y109474D01*
X64837Y108573D01*
X65573Y107837D01*
X66474Y107317D01*
X67480Y107047D01*
X68520D01*
X69526Y107317D01*
X70427Y107837D01*
X71163Y108573D01*
X71683Y109474D01*
X71953Y110480D01*
Y111520D01*
X71683Y112526D01*
X71163Y113427D01*
X70427Y114163D01*
X69526Y114683D01*
X68520Y114953D01*
D02*
G37*
G36*
X12744Y111756D02*
X11755D01*
X10800Y111500D01*
X9944Y111005D01*
X9245Y110306D01*
X8750Y109450D01*
X8494Y108494D01*
Y107506D01*
X8750Y106550D01*
X9245Y105694D01*
X9944Y104994D01*
X10800Y104500D01*
X11755Y104244D01*
X12744D01*
X13700Y104500D01*
X14556Y104994D01*
X15256Y105694D01*
X15750Y106550D01*
X16006Y107506D01*
Y108494D01*
X15750Y109450D01*
X15256Y110306D01*
X14556Y111005D01*
X13700Y111500D01*
X12744Y111756D01*
D02*
G37*
G36*
X230520Y111953D02*
X229480D01*
X228474Y111683D01*
X227573Y111163D01*
X226837Y110427D01*
X226317Y109526D01*
X226047Y108520D01*
Y107480D01*
X226317Y106474D01*
X226837Y105573D01*
X227573Y104837D01*
X228474Y104317D01*
X229480Y104047D01*
X230520D01*
X231526Y104317D01*
X232427Y104837D01*
X233163Y105573D01*
X233683Y106474D01*
X233953Y107480D01*
Y108520D01*
X233683Y109526D01*
X233163Y110427D01*
X232427Y111163D01*
X231526Y111683D01*
X230520Y111953D01*
D02*
G37*
G36*
X44245Y101756D02*
X43255D01*
X42300Y101500D01*
X41444Y101005D01*
X40745Y100306D01*
X40250Y99450D01*
X39994Y98494D01*
Y97505D01*
X40250Y96550D01*
X40745Y95694D01*
X41444Y94994D01*
X42300Y94500D01*
X43255Y94244D01*
X44245D01*
X45200Y94500D01*
X46056Y94994D01*
X46755Y95694D01*
X47250Y96550D01*
X47506Y97505D01*
Y98494D01*
X47250Y99450D01*
X46755Y100306D01*
X46056Y101005D01*
X45200Y101500D01*
X44245Y101756D01*
D02*
G37*
G36*
X12744D02*
X11755D01*
X10800Y101500D01*
X9944Y101005D01*
X9245Y100306D01*
X8750Y99450D01*
X8494Y98494D01*
Y97505D01*
X8750Y96550D01*
X9245Y95694D01*
X9944Y94994D01*
X10800Y94500D01*
X11755Y94244D01*
X12744D01*
X13700Y94500D01*
X14556Y94994D01*
X15256Y95694D01*
X15750Y96550D01*
X16006Y97505D01*
Y98494D01*
X15750Y99450D01*
X15256Y100306D01*
X14556Y101005D01*
X13700Y101500D01*
X12744Y101756D01*
D02*
G37*
G36*
X260520Y101953D02*
X259480D01*
X258474Y101683D01*
X257573Y101163D01*
X256837Y100427D01*
X256317Y99526D01*
X256047Y98520D01*
Y97480D01*
X256317Y96474D01*
X256837Y95573D01*
X257573Y94837D01*
X258474Y94317D01*
X259480Y94047D01*
X260520D01*
X261526Y94317D01*
X262427Y94837D01*
X263163Y95573D01*
X263683Y96474D01*
X263953Y97480D01*
Y98520D01*
X263683Y99526D01*
X263163Y100427D01*
X262427Y101163D01*
X261526Y101683D01*
X260520Y101953D01*
D02*
G37*
G36*
X201374Y87657D02*
X198216D01*
Y84500D01*
X201374D01*
Y87657D01*
D02*
G37*
G36*
X197216D02*
X194059D01*
Y84500D01*
X197216D01*
Y87657D01*
D02*
G37*
G36*
X44245Y91756D02*
X43255D01*
X42300Y91500D01*
X41444Y91005D01*
X40745Y90306D01*
X40250Y89450D01*
X39994Y88494D01*
Y87506D01*
X40250Y86550D01*
X40745Y85694D01*
X41444Y84995D01*
X42300Y84500D01*
X43255Y84244D01*
X44245D01*
X45200Y84500D01*
X46056Y84995D01*
X46755Y85694D01*
X47250Y86550D01*
X47506Y87506D01*
Y88494D01*
X47250Y89450D01*
X46755Y90306D01*
X46056Y91005D01*
X45200Y91500D01*
X44245Y91756D01*
D02*
G37*
G36*
X12744D02*
X11755D01*
X10800Y91500D01*
X9944Y91005D01*
X9245Y90306D01*
X8750Y89450D01*
X8494Y88494D01*
Y87506D01*
X8750Y86550D01*
X9245Y85694D01*
X9944Y84995D01*
X10800Y84500D01*
X11755Y84244D01*
X12744D01*
X13700Y84500D01*
X14556Y84995D01*
X15256Y85694D01*
X15750Y86550D01*
X16006Y87506D01*
Y88494D01*
X15750Y89450D01*
X15256Y90306D01*
X14556Y91005D01*
X13700Y91500D01*
X12744Y91756D01*
D02*
G37*
G36*
X230520Y91953D02*
X229480D01*
X228474Y91683D01*
X227573Y91163D01*
X226837Y90427D01*
X226317Y89526D01*
X226047Y88520D01*
Y87480D01*
X226317Y86474D01*
X226837Y85573D01*
X227573Y84837D01*
X228474Y84317D01*
X229480Y84047D01*
X230520D01*
X231526Y84317D01*
X232427Y84837D01*
X233163Y85573D01*
X233683Y86474D01*
X233953Y87480D01*
Y88520D01*
X233683Y89526D01*
X233163Y90427D01*
X232427Y91163D01*
X231526Y91683D01*
X230520Y91953D01*
D02*
G37*
G36*
X201374Y83500D02*
X198216D01*
Y80343D01*
X201374D01*
Y83500D01*
D02*
G37*
G36*
X197216D02*
X194059D01*
Y80343D01*
X197216D01*
Y83500D01*
D02*
G37*
G36*
X162765Y87657D02*
X161802D01*
X160872Y87408D01*
X160038Y86927D01*
X159357Y86246D01*
X158875Y85412D01*
X158626Y84482D01*
Y83518D01*
X158875Y82588D01*
X159357Y81754D01*
X160038Y81073D01*
X160872Y80592D01*
X161802Y80343D01*
X162765D01*
X163695Y80592D01*
X164529Y81073D01*
X165210Y81754D01*
X165692Y82588D01*
X165941Y83518D01*
Y84482D01*
X165692Y85412D01*
X165210Y86246D01*
X164529Y86927D01*
X163695Y87408D01*
X162765Y87657D01*
D02*
G37*
G36*
X147362Y84362D02*
X140638D01*
Y77638D01*
X147362D01*
Y84362D01*
D02*
G37*
G36*
X128520Y84953D02*
X127480D01*
X126474Y84683D01*
X125573Y84163D01*
X124837Y83427D01*
X124317Y82526D01*
X124047Y81520D01*
Y80480D01*
X124317Y79474D01*
X124837Y78573D01*
X125573Y77837D01*
X126474Y77317D01*
X127480Y77047D01*
X128520D01*
X129526Y77317D01*
X130427Y77837D01*
X131163Y78573D01*
X131683Y79474D01*
X131953Y80480D01*
Y81520D01*
X131683Y82526D01*
X131163Y83427D01*
X130427Y84163D01*
X129526Y84683D01*
X128520Y84953D01*
D02*
G37*
G36*
X118520D02*
X117480D01*
X116474Y84683D01*
X115573Y84163D01*
X114837Y83427D01*
X114317Y82526D01*
X114047Y81520D01*
Y80480D01*
X114317Y79474D01*
X114837Y78573D01*
X115573Y77837D01*
X116474Y77317D01*
X117480Y77047D01*
X118520D01*
X119526Y77317D01*
X120427Y77837D01*
X121163Y78573D01*
X121683Y79474D01*
X121953Y80480D01*
Y81520D01*
X121683Y82526D01*
X121163Y83427D01*
X120427Y84163D01*
X119526Y84683D01*
X118520Y84953D01*
D02*
G37*
G36*
X88520D02*
X87480D01*
X86474Y84683D01*
X85573Y84163D01*
X84837Y83427D01*
X84317Y82526D01*
X84047Y81520D01*
Y80480D01*
X84317Y79474D01*
X84837Y78573D01*
X85573Y77837D01*
X86474Y77317D01*
X87480Y77047D01*
X88520D01*
X89526Y77317D01*
X90427Y77837D01*
X91163Y78573D01*
X91683Y79474D01*
X91953Y80480D01*
Y81520D01*
X91683Y82526D01*
X91163Y83427D01*
X90427Y84163D01*
X89526Y84683D01*
X88520Y84953D01*
D02*
G37*
G36*
X78520D02*
X77480D01*
X76474Y84683D01*
X75573Y84163D01*
X74837Y83427D01*
X74317Y82526D01*
X74047Y81520D01*
Y80480D01*
X74317Y79474D01*
X74837Y78573D01*
X75573Y77837D01*
X76474Y77317D01*
X77480Y77047D01*
X78520D01*
X79526Y77317D01*
X80427Y77837D01*
X81163Y78573D01*
X81683Y79474D01*
X81953Y80480D01*
Y81520D01*
X81683Y82526D01*
X81163Y83427D01*
X80427Y84163D01*
X79526Y84683D01*
X78520Y84953D01*
D02*
G37*
G36*
X68520D02*
X67480D01*
X66474Y84683D01*
X65573Y84163D01*
X64837Y83427D01*
X64317Y82526D01*
X64047Y81520D01*
Y80480D01*
X64317Y79474D01*
X64837Y78573D01*
X65573Y77837D01*
X66474Y77317D01*
X67480Y77047D01*
X68520D01*
X69526Y77317D01*
X70427Y77837D01*
X71163Y78573D01*
X71683Y79474D01*
X71953Y80480D01*
Y81520D01*
X71683Y82526D01*
X71163Y83427D01*
X70427Y84163D01*
X69526Y84683D01*
X68520Y84953D01*
D02*
G37*
G36*
X58520D02*
X57480D01*
X56474Y84683D01*
X55573Y84163D01*
X54837Y83427D01*
X54317Y82526D01*
X54047Y81520D01*
Y80480D01*
X54317Y79474D01*
X54837Y78573D01*
X55573Y77837D01*
X56474Y77317D01*
X57480Y77047D01*
X58520D01*
X59526Y77317D01*
X60427Y77837D01*
X61163Y78573D01*
X61683Y79474D01*
X61953Y80480D01*
Y81520D01*
X61683Y82526D01*
X61163Y83427D01*
X60427Y84163D01*
X59526Y84683D01*
X58520Y84953D01*
D02*
G37*
G36*
X260520Y81953D02*
X259480D01*
X258474Y81683D01*
X257573Y81163D01*
X256837Y80427D01*
X256317Y79526D01*
X256047Y78520D01*
Y77480D01*
X256317Y76474D01*
X256837Y75573D01*
X257573Y74837D01*
X258474Y74317D01*
X259480Y74047D01*
X260520D01*
X261526Y74317D01*
X262427Y74837D01*
X263163Y75573D01*
X263683Y76474D01*
X263953Y77480D01*
Y78520D01*
X263683Y79526D01*
X263163Y80427D01*
X262427Y81163D01*
X261526Y81683D01*
X260520Y81953D01*
D02*
G37*
G36*
X198198Y75657D02*
X197235D01*
X196305Y75408D01*
X195471Y74927D01*
X194790Y74246D01*
X194308Y73412D01*
X194059Y72482D01*
Y71518D01*
X194308Y70588D01*
X194790Y69754D01*
X195471Y69073D01*
X196305Y68592D01*
X197235Y68343D01*
X198198D01*
X199128Y68592D01*
X199962Y69073D01*
X200643Y69754D01*
X201125Y70588D01*
X201374Y71518D01*
Y72482D01*
X201125Y73412D01*
X200643Y74246D01*
X199962Y74927D01*
X199128Y75408D01*
X198198Y75657D01*
D02*
G37*
G36*
X165941D02*
X158626D01*
Y68343D01*
X165941D01*
Y75657D01*
D02*
G37*
G36*
X146285Y61362D02*
X145400D01*
X144545Y61133D01*
X143778Y60690D01*
X143152Y60064D01*
X142709Y59298D01*
X142480Y58443D01*
Y57557D01*
X142709Y56702D01*
X143152Y55936D01*
X143778Y55310D01*
X144545Y54867D01*
X145400Y54638D01*
X146285D01*
X147140Y54867D01*
X147907Y55310D01*
X148533Y55936D01*
X148976Y56702D01*
X149205Y57557D01*
Y58443D01*
X148976Y59298D01*
X148533Y60064D01*
X147907Y60690D01*
X147140Y61133D01*
X146285Y61362D01*
D02*
G37*
G36*
X129520D02*
X122795D01*
Y54638D01*
X129520D01*
Y61362D01*
D02*
G37*
G36*
X194086Y60461D02*
X193174D01*
X192294Y60225D01*
X191505Y59769D01*
X190861Y59125D01*
X190405Y58336D01*
X190169Y57456D01*
Y56544D01*
X190405Y55664D01*
X190861Y54875D01*
X191505Y54231D01*
X192294Y53775D01*
X193174Y53539D01*
X194086D01*
X194966Y53775D01*
X195755Y54231D01*
X196399Y54875D01*
X196855Y55664D01*
X197091Y56544D01*
Y57456D01*
X196855Y58336D01*
X196399Y59125D01*
X195755Y59769D01*
X194966Y60225D01*
X194086Y60461D01*
D02*
G37*
G36*
X207520Y55362D02*
X200795D01*
Y48638D01*
X207520D01*
Y55362D01*
D02*
G37*
G36*
X194086Y50461D02*
X193174D01*
X192294Y50225D01*
X191505Y49769D01*
X190861Y49125D01*
X190405Y48336D01*
X190169Y47456D01*
Y46544D01*
X190405Y45664D01*
X190861Y44875D01*
X191505Y44231D01*
X192294Y43775D01*
X193174Y43539D01*
X194086D01*
X194966Y43775D01*
X195755Y44231D01*
X196399Y44875D01*
X196855Y45664D01*
X197091Y46544D01*
Y47456D01*
X196855Y48336D01*
X196399Y49125D01*
X195755Y49769D01*
X194966Y50225D01*
X194086Y50461D01*
D02*
G37*
G36*
X162826D02*
X161915D01*
X161034Y50225D01*
X160245Y49769D01*
X159601Y49125D01*
X159145Y48336D01*
X158909Y47456D01*
Y46544D01*
X159145Y45664D01*
X159601Y44875D01*
X160245Y44231D01*
X161034Y43775D01*
X161915Y43539D01*
X162826D01*
X163706Y43775D01*
X164495Y44231D01*
X165139Y44875D01*
X165595Y45664D01*
X165831Y46544D01*
Y47456D01*
X165595Y48336D01*
X165139Y49125D01*
X164495Y49769D01*
X163706Y50225D01*
X162826Y50461D01*
D02*
G37*
G36*
X150374Y48658D02*
X143059D01*
Y41342D01*
X150374D01*
Y48658D01*
D02*
G37*
G36*
X44245Y111756D02*
X43255D01*
X42300Y111500D01*
X41444Y111005D01*
X40745Y110306D01*
X40250Y109450D01*
X39994Y108494D01*
Y107506D01*
X40250Y106550D01*
X40745Y105694D01*
X41444Y104994D01*
X42300Y104500D01*
X43255Y104244D01*
X44245D01*
X44827Y104400D01*
X48501Y100726D01*
Y77715D01*
X48636Y77032D01*
X49023Y76454D01*
X81738Y43738D01*
X81738Y43738D01*
X82028Y43545D01*
X82317Y43352D01*
X83000Y43216D01*
X83000Y43216D01*
X108090D01*
X108357Y42754D01*
X109038Y42073D01*
X109872Y41592D01*
X110802Y41342D01*
X111765D01*
X112695Y41592D01*
X113529Y42073D01*
X114210Y42754D01*
X114692Y43588D01*
X114941Y44519D01*
Y45482D01*
X114692Y46412D01*
X114210Y47246D01*
X113529Y47927D01*
X112695Y48408D01*
X111765Y48658D01*
X110802D01*
X109872Y48408D01*
X109038Y47927D01*
X108357Y47246D01*
X108090Y46784D01*
X83739D01*
X52069Y78454D01*
Y101465D01*
X51933Y102148D01*
X51547Y102727D01*
X51547Y102727D01*
X47350Y106923D01*
X47506Y107506D01*
Y108494D01*
X47250Y109450D01*
X46755Y110306D01*
X46056Y111005D01*
X45200Y111500D01*
X44245Y111756D01*
D02*
G37*
G36*
X71338Y47165D02*
X70504D01*
X69700Y46950D01*
X68978Y46533D01*
X68388Y45944D01*
X67972Y45222D01*
X67756Y44417D01*
Y43583D01*
X67972Y42778D01*
X68388Y42056D01*
X68978Y41467D01*
X69700Y41050D01*
X70504Y40835D01*
X71338D01*
X72143Y41050D01*
X72865Y41467D01*
X73454Y42056D01*
X73871Y42778D01*
X74087Y43583D01*
Y44417D01*
X73871Y45222D01*
X73454Y45944D01*
X72865Y46533D01*
X72143Y46950D01*
X71338Y47165D01*
D02*
G37*
G36*
X194086Y40461D02*
X193174D01*
X192294Y40225D01*
X191505Y39769D01*
X190861Y39125D01*
X190405Y38336D01*
X190169Y37456D01*
Y36544D01*
X190405Y35664D01*
X190861Y34875D01*
X191505Y34231D01*
X192294Y33775D01*
X193174Y33539D01*
X194086D01*
X194966Y33775D01*
X195755Y34231D01*
X196399Y34875D01*
X196855Y35664D01*
X197091Y36544D01*
Y37456D01*
X196855Y38336D01*
X196399Y39125D01*
X195755Y39769D01*
X194966Y40225D01*
X194086Y40461D01*
D02*
G37*
G36*
X162826D02*
X161915D01*
X161034Y40225D01*
X160245Y39769D01*
X159601Y39125D01*
X159145Y38336D01*
X158909Y37456D01*
Y36544D01*
X159145Y35664D01*
X159601Y34875D01*
X160245Y34231D01*
X161034Y33775D01*
X161915Y33539D01*
X162826D01*
X163706Y33775D01*
X164495Y34231D01*
X165139Y34875D01*
X165595Y35664D01*
X165831Y36544D01*
Y37456D01*
X165595Y38336D01*
X165139Y39125D01*
X164495Y39769D01*
X163706Y40225D01*
X162826Y40461D01*
D02*
G37*
G36*
X240198Y39658D02*
X239235D01*
X238305Y39408D01*
X237471Y38927D01*
X236790Y38246D01*
X236308Y37412D01*
X236059Y36481D01*
Y35519D01*
X236308Y34588D01*
X236790Y33754D01*
X237471Y33073D01*
X238305Y32592D01*
X239235Y32342D01*
X240198D01*
X241128Y32592D01*
X241962Y33073D01*
X242643Y33754D01*
X243125Y34588D01*
X243374Y35519D01*
Y36481D01*
X243125Y37412D01*
X242643Y38246D01*
X241962Y38927D01*
X241128Y39408D01*
X240198Y39658D01*
D02*
G37*
G36*
X207941D02*
X200626D01*
Y32342D01*
X207941D01*
Y39658D01*
D02*
G37*
G36*
X39362Y35520D02*
X32638D01*
Y28795D01*
X39362D01*
Y35520D01*
D02*
G37*
G36*
X147198Y35658D02*
X146235D01*
X145305Y35408D01*
X144471Y34927D01*
X143790Y34246D01*
X143308Y33412D01*
X143059Y32482D01*
Y31519D01*
X143308Y30588D01*
X143790Y29754D01*
X144471Y29073D01*
X145305Y28592D01*
X146235Y28343D01*
X147198D01*
X148128Y28592D01*
X148962Y29073D01*
X149643Y29754D01*
X150125Y30588D01*
X150374Y31519D01*
Y32482D01*
X150125Y33412D01*
X149643Y34246D01*
X148962Y34927D01*
X148128Y35408D01*
X147198Y35658D01*
D02*
G37*
G36*
X14533Y46051D02*
X13467D01*
X12436Y45775D01*
X11513Y45242D01*
X10758Y44488D01*
X10225Y43564D01*
X9949Y42533D01*
Y41467D01*
X10225Y40436D01*
X10758Y39513D01*
X11513Y38758D01*
X12436Y38225D01*
X13467Y37949D01*
X14533D01*
X15564Y38225D01*
X16488Y38758D01*
X17242Y39513D01*
X17648Y40216D01*
X43261D01*
X52738Y30738D01*
X52738Y30738D01*
X53317Y30351D01*
X54000Y30216D01*
X54000Y30216D01*
X107626D01*
Y28343D01*
X114941D01*
Y35658D01*
X107626D01*
Y33784D01*
X54739D01*
X45262Y43262D01*
X44683Y43648D01*
X44000Y43784D01*
X17648D01*
X17242Y44488D01*
X16488Y45242D01*
X15564Y45775D01*
X14533Y46051D01*
D02*
G37*
G36*
X194086Y30461D02*
X193174D01*
X192294Y30225D01*
X191505Y29769D01*
X190861Y29125D01*
X190405Y28336D01*
X190169Y27456D01*
Y26544D01*
X190405Y25664D01*
X190861Y24875D01*
X191505Y24231D01*
X192294Y23775D01*
X193174Y23539D01*
X194086D01*
X194966Y23775D01*
X195755Y24231D01*
X196399Y24875D01*
X196855Y25664D01*
X197091Y26544D01*
Y27456D01*
X196855Y28336D01*
X196399Y29125D01*
X195755Y29769D01*
X194966Y30225D01*
X194086Y30461D01*
D02*
G37*
G36*
X162826D02*
X161915D01*
X161034Y30225D01*
X160245Y29769D01*
X159601Y29125D01*
X159145Y28336D01*
X158909Y27456D01*
Y26544D01*
X159145Y25664D01*
X159601Y24875D01*
X160245Y24231D01*
X161034Y23775D01*
X161915Y23539D01*
X162826D01*
X163706Y23775D01*
X164495Y24231D01*
X165139Y24875D01*
X165595Y25664D01*
X165831Y26544D01*
Y27456D01*
X165595Y28336D01*
X165139Y29125D01*
X164495Y29769D01*
X163706Y30225D01*
X162826Y30461D01*
D02*
G37*
G36*
X207520Y27362D02*
X200795D01*
Y20638D01*
X207520D01*
Y27362D01*
D02*
G37*
G36*
X146276Y22248D02*
X145157D01*
X144077Y21959D01*
X143108Y21399D01*
X142317Y20608D01*
X141758Y19640D01*
X141469Y18559D01*
Y17441D01*
X141758Y16360D01*
X142317Y15392D01*
X143108Y14601D01*
X144077Y14041D01*
X145157Y13752D01*
X146276D01*
X147356Y14041D01*
X148325Y14601D01*
X149116Y15392D01*
X149675Y16360D01*
X149965Y17441D01*
Y18559D01*
X149675Y19640D01*
X149116Y20608D01*
X148325Y21399D01*
X147356Y21959D01*
X146276Y22248D01*
D02*
G37*
G36*
X64546Y18150D02*
X63454D01*
X62398Y17867D01*
X61452Y17321D01*
X60680Y16548D01*
X60133Y15602D01*
X59850Y14546D01*
Y13454D01*
X60133Y12398D01*
X60680Y11452D01*
X61452Y10679D01*
X62398Y10133D01*
X63454Y9850D01*
X64546D01*
X65602Y10133D01*
X66548Y10679D01*
X67321Y11452D01*
X67867Y12398D01*
X68150Y13454D01*
Y14546D01*
X67867Y15602D01*
X67321Y16548D01*
X66548Y17321D01*
X65602Y17867D01*
X64546Y18150D01*
D02*
G37*
G36*
X48150D02*
X39850D01*
Y9850D01*
X48150D01*
Y18150D01*
D02*
G37*
G36*
X18051Y16051D02*
X9949D01*
Y7949D01*
X18051D01*
Y16051D01*
D02*
G37*
G36*
X207520Y13362D02*
X200795D01*
Y6638D01*
X207520D01*
Y13362D01*
D02*
G37*
%LPD*%
D18*
X55921Y180000D02*
D03*
Y170000D02*
D03*
Y160000D02*
D03*
Y150000D02*
D03*
X24661D02*
D03*
Y160000D02*
D03*
Y170000D02*
D03*
X193630Y57000D02*
D03*
Y47000D02*
D03*
Y37000D02*
D03*
Y27000D02*
D03*
X162370D02*
D03*
Y37000D02*
D03*
Y47000D02*
D03*
D19*
X24661Y180000D02*
D03*
X162370Y57000D02*
D03*
D22*
X85843Y164000D02*
D03*
X36158Y197000D02*
D03*
X144000Y100685D02*
D03*
X75606Y134079D02*
D03*
X145843Y58000D02*
D03*
X223843Y10000D02*
D03*
Y24000D02*
D03*
Y52000D02*
D03*
X182655Y114000D02*
D03*
X240158Y159000D02*
D03*
X36000Y51842D02*
D03*
D23*
X66158Y164000D02*
D03*
X55843Y197000D02*
D03*
X55921Y134079D02*
D03*
X126157Y58000D02*
D03*
X204157Y10000D02*
D03*
Y24000D02*
D03*
Y52000D02*
D03*
X202340Y114000D02*
D03*
X259842Y159000D02*
D03*
D24*
X12250Y88000D02*
D03*
Y98000D02*
D03*
Y108000D02*
D03*
X43750Y88000D02*
D03*
Y98000D02*
D03*
Y108000D02*
D03*
Y118000D02*
D03*
D25*
X12250D02*
D03*
D26*
X144000Y81000D02*
D03*
X36000Y32157D02*
D03*
D31*
X70921Y44000D02*
D03*
D32*
X61079D02*
D03*
D33*
X144780Y162000D02*
D03*
D34*
X227221D02*
D03*
D37*
X83000Y45000D02*
X111284D01*
X50285Y77715D02*
Y101465D01*
Y77715D02*
X83000Y45000D01*
X125000Y142000D02*
X144780Y161779D01*
Y162000D01*
X28940Y124940D02*
X46000Y142000D01*
X125000D01*
X14000Y52000D02*
X28940Y66940D01*
Y124940D01*
X44000Y42000D02*
X54000Y32000D01*
X14000Y42000D02*
X44000D01*
X54000Y32000D02*
X111284D01*
X43750Y108000D02*
X50285Y101465D01*
X196000Y94000D02*
X230000Y128000D01*
X121000Y94000D02*
X196000D01*
X108000Y81000D02*
X121000Y94000D01*
D38*
X58000Y81000D02*
D03*
X68000D02*
D03*
X78000D02*
D03*
X88000D02*
D03*
X98000D02*
D03*
X108000D02*
D03*
X118000D02*
D03*
X128000D02*
D03*
X58000Y111000D02*
D03*
X68000D02*
D03*
X78000D02*
D03*
X88000D02*
D03*
X98000D02*
D03*
X108000D02*
D03*
X118000D02*
D03*
X260000Y78000D02*
D03*
Y88000D02*
D03*
Y98000D02*
D03*
Y108000D02*
D03*
Y118000D02*
D03*
Y128000D02*
D03*
Y138000D02*
D03*
X230000Y78000D02*
D03*
Y88000D02*
D03*
Y98000D02*
D03*
Y108000D02*
D03*
Y118000D02*
D03*
Y128000D02*
D03*
D39*
X128000Y111000D02*
D03*
D40*
X66284Y150000D02*
D03*
X101433Y180000D02*
D03*
X197716Y84000D02*
D03*
X162284Y72000D02*
D03*
X204283Y36000D02*
D03*
X146716Y45000D02*
D03*
X111284Y32000D02*
D03*
X183064Y128000D02*
D03*
D41*
X101716Y150000D02*
D03*
X66000Y180000D02*
D03*
X162284Y84000D02*
D03*
X197716Y72000D02*
D03*
X239717Y36000D02*
D03*
X111284Y45000D02*
D03*
X146716Y32000D02*
D03*
X218498Y128000D02*
D03*
D42*
X110284Y18000D02*
D03*
X145717D02*
D03*
X184283Y142000D02*
D03*
X219717D02*
D03*
D43*
X230000Y138000D02*
D03*
D44*
X64000Y14000D02*
D03*
X54000D02*
D03*
D45*
X44000D02*
D03*
D46*
X14000Y12000D02*
D03*
D47*
Y22000D02*
D03*
Y32000D02*
D03*
Y42000D02*
D03*
Y52000D02*
D03*
M02*
