G04*
G04 #@! TF.GenerationSoftware,Altium Limited,Altium Designer,21.2.1 (34)*
G04*
G04 Layer_Color=32768*
%FSLAX25Y25*%
%MOIN*%
G70*
G04*
G04 #@! TF.SameCoordinates,80AB4F38-7A27-461E-8C37-B356CBF0BF54*
G04*
G04*
G04 #@! TF.FilePolarity,Positive*
G04*
G01*
G75*
%ADD12C,0.00787*%
D12*
X104000Y142701D02*
G03*
X104000Y115142I0J-13780D01*
G01*
D02*
G03*
X104000Y142701I0J13780D01*
G01*
X160000Y243701D02*
G03*
X160000Y216142I0J-13780D01*
G01*
D02*
G03*
X160000Y243701I0J13780D01*
G01*
Y333780D02*
G03*
X160000Y306221I0J-13780D01*
G01*
D02*
G03*
X160000Y333780I0J13780D01*
G01*
Y288779D02*
G03*
X160000Y261221I0J-13780D01*
G01*
D02*
G03*
X160000Y288779I0J13780D01*
G01*
X50000Y283142D02*
G03*
X50000Y310701I0J13780D01*
G01*
D02*
G03*
X50000Y283142I0J-13780D01*
G01*
X209000Y57142D02*
G03*
X209000Y84701I0J13780D01*
G01*
D02*
G03*
X209000Y57142I0J-13780D01*
G01*
X140000Y28142D02*
G03*
X140000Y55701I0J13780D01*
G01*
D02*
G03*
X140000Y28142I0J-13780D01*
G01*
X139000Y59299D02*
G03*
X139000Y86858I0J13780D01*
G01*
D02*
G03*
X139000Y59299I0J-13780D01*
G01*
X80000Y310701D02*
G03*
X80000Y283142I0J-13780D01*
G01*
D02*
G03*
X80000Y310701I0J13780D01*
G01*
X103000Y180142D02*
G03*
X103000Y207701I0J13780D01*
G01*
D02*
G03*
X103000Y180142I0J-13780D01*
G01*
X88827Y33055D02*
Y124945D01*
X67173Y33055D02*
X88827D01*
X67173D02*
Y124945D01*
X88827D01*
X187461Y268488D02*
X232539D01*
X187461D02*
Y279512D01*
X232539D01*
Y268488D02*
Y279512D01*
X140827Y228055D02*
Y319945D01*
X119173Y228055D02*
X140827D01*
X119173D02*
Y319945D01*
X140827D01*
X228606Y82484D02*
X269394D01*
X228606Y45516D02*
Y82484D01*
Y45516D02*
X269394D01*
Y82484D01*
X269598Y87488D02*
Y98512D01*
X244402D02*
X269598D01*
X244402Y87488D02*
Y98512D01*
Y87488D02*
X269598D01*
X229402Y29488D02*
Y40512D01*
Y29488D02*
X254598D01*
Y40512D01*
X229402D02*
X254598D01*
X162488Y81539D02*
X173512D01*
X162488Y36461D02*
Y81539D01*
Y36461D02*
X173512D01*
Y81539D01*
X224461Y102488D02*
Y113512D01*
Y102488D02*
X269539D01*
Y113512D01*
X224461D02*
X269539D01*
X254598Y15488D02*
Y26512D01*
X229402D02*
X254598D01*
X229402Y15488D02*
Y26512D01*
Y15488D02*
X254598D01*
X176488Y36461D02*
X187512D01*
Y81539D01*
X176488D02*
X187512D01*
X176488Y36461D02*
Y81539D01*
X29488Y234461D02*
X40512D01*
Y279539D01*
X29488D02*
X40512D01*
X29488Y234461D02*
Y279539D01*
X47402Y226488D02*
Y237512D01*
Y226488D02*
X72598D01*
Y237512D01*
X47402D02*
X72598D01*
X44606Y243516D02*
X85394D01*
Y280484D01*
X44606D02*
X85394D01*
X44606Y243516D02*
Y280484D01*
X14488Y234461D02*
X25512D01*
Y279539D01*
X14488D02*
X25512D01*
X14488Y234461D02*
Y279539D01*
X269539Y116488D02*
Y127512D01*
X224461D02*
X269539D01*
X224461Y116488D02*
Y127512D01*
Y116488D02*
X269539D01*
X5856Y88606D02*
X42644D01*
Y201394D01*
X5856D02*
X42644D01*
X5856Y88606D02*
Y201394D01*
X192461Y87488D02*
Y98512D01*
Y87488D02*
X237539D01*
Y98512D01*
X192461D02*
X237539D01*
M02*
