G04*
G04 #@! TF.GenerationSoftware,Altium Limited,Altium Designer,21.2.1 (34)*
G04*
G04 Layer_Color=16711935*
%FSLAX25Y25*%
%MOIN*%
G70*
G04*
G04 #@! TF.SameCoordinates,3CCBA5C7-3EF3-4D3C-93EB-A50EB93EC52C*
G04*
G04*
G04 #@! TF.FilePolarity,Negative*
G04*
G01*
G75*
%ADD16C,0.06706*%
%ADD17R,0.06706X0.06706*%
%ADD18C,0.04921*%
%ADD19R,0.04921X0.04921*%
%ADD20R,0.06115X0.06115*%
%ADD21C,0.06115*%
%ADD22C,0.04724*%
%ADD23R,0.04724X0.04724*%
%ADD24C,0.05512*%
%ADD25R,0.05512X0.05512*%
%ADD26R,0.04724X0.04724*%
%ADD27C,0.07296*%
%ADD28R,0.06706X0.06706*%
%ADD29C,0.07099*%
%ADD30R,0.07099X0.07099*%
%ADD31C,0.04331*%
%ADD32R,0.04331X0.04331*%
%ADD33C,0.08661*%
%ADD34R,0.08661X0.08661*%
%ADD35R,0.06902X0.06902*%
%ADD36C,0.06902*%
D16*
X58000Y81000D02*
D03*
X68000D02*
D03*
X78000D02*
D03*
X88000D02*
D03*
X98000D02*
D03*
X108000D02*
D03*
X118000D02*
D03*
X128000D02*
D03*
X58000Y111000D02*
D03*
X68000D02*
D03*
X78000D02*
D03*
X88000D02*
D03*
X98000D02*
D03*
X108000D02*
D03*
X118000D02*
D03*
X260000Y78000D02*
D03*
Y88000D02*
D03*
Y98000D02*
D03*
Y108000D02*
D03*
Y118000D02*
D03*
Y128000D02*
D03*
Y138000D02*
D03*
X230000Y78000D02*
D03*
Y88000D02*
D03*
Y98000D02*
D03*
Y108000D02*
D03*
Y118000D02*
D03*
Y128000D02*
D03*
D17*
X128000Y111000D02*
D03*
D18*
X55921Y180000D02*
D03*
Y170000D02*
D03*
Y160000D02*
D03*
Y150000D02*
D03*
X24661D02*
D03*
Y160000D02*
D03*
Y170000D02*
D03*
X193630Y57000D02*
D03*
Y47000D02*
D03*
Y37000D02*
D03*
Y27000D02*
D03*
X162370D02*
D03*
Y37000D02*
D03*
Y47000D02*
D03*
D19*
X24661Y180000D02*
D03*
X162370Y57000D02*
D03*
D20*
X66284Y150000D02*
D03*
X101433Y180000D02*
D03*
X197716Y84000D02*
D03*
X162284Y72000D02*
D03*
X204283Y36000D02*
D03*
X146716Y45000D02*
D03*
X111284Y32000D02*
D03*
X183064Y128000D02*
D03*
D21*
X101716Y150000D02*
D03*
X66000Y180000D02*
D03*
X162284Y84000D02*
D03*
X197716Y72000D02*
D03*
X239717Y36000D02*
D03*
X111284Y45000D02*
D03*
X146716Y32000D02*
D03*
X218498Y128000D02*
D03*
D22*
X85843Y164000D02*
D03*
X36158Y197000D02*
D03*
X144000Y100685D02*
D03*
X75606Y134079D02*
D03*
X145843Y58000D02*
D03*
X223843Y10000D02*
D03*
Y24000D02*
D03*
Y52000D02*
D03*
X182655Y114000D02*
D03*
X240158Y159000D02*
D03*
X36000Y51842D02*
D03*
D23*
X66158Y164000D02*
D03*
X55843Y197000D02*
D03*
X55921Y134079D02*
D03*
X126157Y58000D02*
D03*
X204157Y10000D02*
D03*
Y24000D02*
D03*
Y52000D02*
D03*
X202340Y114000D02*
D03*
X259842Y159000D02*
D03*
D24*
X12250Y88000D02*
D03*
Y98000D02*
D03*
Y108000D02*
D03*
X43750Y88000D02*
D03*
Y98000D02*
D03*
Y108000D02*
D03*
Y118000D02*
D03*
D25*
X12250D02*
D03*
D26*
X144000Y81000D02*
D03*
X36000Y32157D02*
D03*
D27*
X110284Y18000D02*
D03*
X145717D02*
D03*
X184283Y142000D02*
D03*
X219717D02*
D03*
D28*
X230000Y138000D02*
D03*
D29*
X64000Y14000D02*
D03*
X54000D02*
D03*
D30*
X44000D02*
D03*
D31*
X70921Y44000D02*
D03*
D32*
X61079D02*
D03*
D33*
X144780Y162000D02*
D03*
D34*
X227221D02*
D03*
D35*
X14000Y12000D02*
D03*
D36*
Y22000D02*
D03*
Y32000D02*
D03*
Y42000D02*
D03*
Y52000D02*
D03*
M02*
