G04*
G04 #@! TF.GenerationSoftware,Altium Limited,Altium Designer,21.2.1 (34)*
G04*
G04 Layer_Color=32768*
%FSLAX25Y25*%
%MOIN*%
G70*
G04*
G04 #@! TF.SameCoordinates,80AB4F38-7A27-461E-8C37-B356CBF0BF54*
G04*
G04*
G04 #@! TF.FilePolarity,Positive*
G04*
G01*
G75*
%ADD37C,0.00394*%
%ADD38C,0.00197*%
D37*
X162031Y189000D02*
X165969D01*
X164000Y187031D02*
Y190969D01*
Y129032D02*
Y132968D01*
X162031Y131000D02*
X165969D01*
X220000Y304031D02*
Y307968D01*
X218032Y306000D02*
X221969D01*
X220000Y238032D02*
Y241968D01*
X218032Y240000D02*
X221969D01*
X104032Y250000D02*
X107968D01*
X106000Y248031D02*
Y251969D01*
X33228Y53031D02*
Y56968D01*
X31260Y55000D02*
X35197D01*
X245031Y136000D02*
X248969D01*
X247000Y134031D02*
Y137969D01*
X110000Y55032D02*
Y58969D01*
X108031Y57000D02*
X111969D01*
D38*
X203764Y169905D02*
Y208095D01*
X124236Y169905D02*
Y208095D01*
X203764D01*
X124236Y169905D02*
X203764D01*
X124236Y111906D02*
X203764D01*
X124236Y150094D02*
X203764D01*
X124236Y111906D02*
Y150094D01*
X203764Y111906D02*
Y150094D01*
X180236Y286906D02*
X259764D01*
X180236Y325095D02*
X259764D01*
X180236Y286906D02*
Y325095D01*
X259764Y286906D02*
Y325095D01*
X180236Y220905D02*
X259764D01*
X180236Y259095D02*
X259764D01*
X180236Y220905D02*
Y259095D01*
X259764Y220905D02*
Y259095D01*
X100252Y228642D02*
X111748D01*
Y228642D02*
Y271358D01*
X100252Y228642D02*
Y271358D01*
X111748D01*
X4291Y73110D02*
X62165D01*
Y32362D02*
Y73110D01*
X4291Y32362D02*
Y73110D01*
Y32362D02*
X62165D01*
X225642Y130252D02*
Y141748D01*
Y130252D02*
X268358D01*
X225642Y141748D02*
X268358D01*
X268358Y130252D02*
Y141748D01*
X98543Y78063D02*
X119016D01*
X98543Y35937D02*
X119016D01*
X98543D02*
Y78063D01*
X119016Y35937D02*
Y78063D01*
M02*
