G04*
G04 #@! TF.GenerationSoftware,Altium Limited,Altium Designer,21.2.1 (34)*
G04*
G04 Layer_Color=65535*
%FSLAX25Y25*%
%MOIN*%
G70*
G04*
G04 #@! TF.SameCoordinates,3CCBA5C7-3EF3-4D3C-93EB-A50EB93EC52C*
G04*
G04*
G04 #@! TF.FilePolarity,Positive*
G04*
G01*
G75*
%ADD10C,0.02362*%
%ADD11C,0.00984*%
%ADD12C,0.00787*%
%ADD13C,0.00591*%
%ADD14C,0.01000*%
%ADD15R,0.03736X0.10698*%
D10*
X129024Y102496D02*
G03*
X129024Y102496I-1181J0D01*
G01*
X239685Y142842D02*
G03*
X239685Y142842I-1181J0D01*
G01*
D11*
X133610Y111000D02*
G03*
X133610Y111000I-492J0D01*
G01*
X20311Y180197D02*
G03*
X20311Y180197I-492J0D01*
G01*
X5754Y117764D02*
G03*
X5754Y117764I-492J0D01*
G01*
X158020Y57197D02*
G03*
X158020Y57197I-492J0D01*
G01*
X230492Y143118D02*
G03*
X230492Y143118I-492J0D01*
G01*
X31854Y14000D02*
G03*
X31854Y14000I-492J0D01*
G01*
D12*
X131780Y98500D02*
G03*
X131780Y93500I0J-2500D01*
G01*
X242500Y146780D02*
G03*
X247500Y146780I2500J0D01*
G01*
X54220Y85567D02*
Y106433D01*
X131780Y85567D02*
Y93500D01*
Y98500D02*
Y106433D01*
X54220Y85567D02*
X131780D01*
X54220Y106433D02*
X131780D01*
X31728Y183878D02*
X37845D01*
Y181909D02*
Y183878D01*
Y181909D02*
X42738D01*
Y183878D01*
X48854D01*
Y146122D02*
Y183878D01*
X31728Y146122D02*
X48854D01*
X31728D02*
Y183878D01*
X96402Y145276D02*
Y154724D01*
X71598Y145276D02*
X96402D01*
X71598Y154724D02*
X96402D01*
X71598Y145276D02*
Y154724D01*
X68126Y167839D02*
Y168921D01*
Y159079D02*
Y160161D01*
Y159079D02*
X83874D01*
Y167839D02*
Y168921D01*
Y159079D02*
Y160161D01*
X68126Y168921D02*
X83874D01*
X8000Y128000D02*
X48000D01*
X8000Y78000D02*
Y128000D01*
Y78000D02*
X48000D01*
Y128000D01*
X56827Y189126D02*
Y193161D01*
Y200839D02*
Y204874D01*
X35173D02*
X56827D01*
X35173Y189126D02*
Y193161D01*
Y200839D02*
Y204874D01*
Y189126D02*
X56827D01*
X71315Y175276D02*
Y184724D01*
X96118D01*
X71315Y175276D02*
X96118D01*
Y184724D01*
X136126Y80016D02*
X140161D01*
X147839D02*
X151874D01*
Y101669D01*
X136126D02*
X140161D01*
X147839D02*
X151874D01*
X136126Y80016D02*
Y101669D01*
X54937Y137917D02*
Y141953D01*
Y126205D02*
Y130240D01*
Y126205D02*
X76591D01*
Y137917D02*
Y141953D01*
Y126205D02*
Y130240D01*
X54937Y141953D02*
X76591D01*
X167598Y79276D02*
Y88724D01*
X192402D01*
X167598Y79276D02*
X192402D01*
Y88724D01*
X169437Y60878D02*
X175553D01*
Y58909D02*
Y60878D01*
Y58909D02*
X180447D01*
Y60878D01*
X186563D01*
Y23122D02*
Y60878D01*
X169437Y23122D02*
X186563D01*
X169437D02*
Y60878D01*
X128126Y61839D02*
Y62921D01*
Y53079D02*
Y54161D01*
Y53079D02*
X143874D01*
Y61839D02*
Y62921D01*
Y53079D02*
Y54161D01*
X128126Y62921D02*
X143874D01*
X192402Y67276D02*
Y76724D01*
X167598Y67276D02*
X192402D01*
X167598Y76724D02*
X192402D01*
X167598Y67276D02*
Y76724D01*
X206126Y13839D02*
Y14921D01*
Y5079D02*
Y6161D01*
Y5079D02*
X221874D01*
Y13839D02*
Y14921D01*
Y5079D02*
Y6161D01*
X206126Y14921D02*
X221874D01*
X234402Y31276D02*
Y40724D01*
X209598Y31276D02*
X234402D01*
X209598Y40724D02*
X234402D01*
X209598Y31276D02*
Y40724D01*
X206126Y27839D02*
Y28921D01*
Y19079D02*
Y20161D01*
Y19079D02*
X221874D01*
Y27839D02*
Y28921D01*
Y19079D02*
Y20161D01*
X206126Y28921D02*
X221874D01*
X117764Y23354D02*
X138236D01*
X117764Y12646D02*
Y23354D01*
Y12646D02*
X138236D01*
Y23354D01*
X116598Y40276D02*
Y49724D01*
X141402D01*
X116598Y40276D02*
X141402D01*
Y49724D01*
Y27276D02*
Y36724D01*
X116598Y27276D02*
X141402D01*
X116598Y36724D02*
X141402D01*
X116598Y27276D02*
Y36724D01*
X203173Y55839D02*
Y59874D01*
Y44126D02*
Y48161D01*
Y44126D02*
X224827D01*
Y55839D02*
Y59874D01*
Y44126D02*
Y48161D01*
X203173Y59874D02*
X224827D01*
X234567Y69221D02*
X255433D01*
X247500Y146780D02*
X255433D01*
X234567D02*
X242500D01*
X255433Y69221D02*
Y146780D01*
X234567Y69221D02*
Y146780D01*
X33921Y22504D02*
X74079D01*
X33921Y24472D02*
X74079D01*
X33921Y5968D02*
X74079D01*
Y24472D01*
X33921Y5968D02*
Y24472D01*
X191764Y147354D02*
X212236D01*
X191764Y136646D02*
Y147354D01*
Y136646D02*
X212236D01*
Y147354D01*
X213183Y123276D02*
Y132724D01*
X188380Y123276D02*
X213183D01*
X188380Y132724D02*
X213183D01*
X188380Y123276D02*
Y132724D01*
X200372Y109079D02*
Y110161D01*
Y117839D02*
Y118921D01*
X184624D02*
X200372D01*
X184624Y109079D02*
Y110161D01*
Y117839D02*
Y118921D01*
Y109079D02*
X200372D01*
X260827Y151126D02*
Y155161D01*
Y162839D02*
Y166874D01*
X239173D02*
X260827D01*
X239173Y151126D02*
Y155161D01*
Y162839D02*
Y166874D01*
Y151126D02*
X260827D01*
X55567Y36126D02*
Y51874D01*
X28126Y31173D02*
X32161D01*
X39839D02*
X43874D01*
Y52827D01*
X28126D02*
X32161D01*
X39839D02*
X43874D01*
X28126Y31173D02*
Y52827D01*
X196630Y152157D02*
Y171843D01*
X158441Y162000D02*
X167299D01*
X204701D02*
X213559D01*
X204701Y151567D02*
Y172433D01*
X167299D02*
X204701D01*
X167299Y151567D02*
Y172433D01*
Y151567D02*
X204701D01*
X9000Y57748D02*
X19000D01*
Y6252D02*
Y57748D01*
X9000Y6252D02*
X19000D01*
X9000D02*
Y57748D01*
D13*
X79386Y44000D02*
G03*
X79386Y44000I-13386J0D01*
G01*
D14*
X85002Y71999D02*
Y67001D01*
X86001Y66001D01*
X88001D01*
X89000Y67001D01*
Y71999D01*
X94998D02*
X91000D01*
Y69000D01*
X92999Y70000D01*
X93999D01*
X94998Y69000D01*
Y67001D01*
X93999Y66001D01*
X91999D01*
X91000Y67001D01*
X20002Y194999D02*
Y190001D01*
X21001Y189001D01*
X23001D01*
X24000Y190001D01*
Y194999D01*
X26000Y193999D02*
X26999Y194999D01*
X28999D01*
X29998Y193999D01*
Y193000D01*
X28999Y192000D01*
X27999D01*
X28999D01*
X29998Y191000D01*
Y190001D01*
X28999Y189001D01*
X26999D01*
X26000Y190001D01*
X109002Y147001D02*
Y152999D01*
X112001D01*
X113000Y151999D01*
Y150000D01*
X112001Y149000D01*
X109002D01*
X111001D02*
X113000Y147001D01*
X115000Y151999D02*
X115999Y152999D01*
X117999D01*
X118998Y151999D01*
Y151000D01*
X117999Y150000D01*
X118998Y149000D01*
Y148001D01*
X117999Y147001D01*
X115999D01*
X115000Y148001D01*
Y149000D01*
X115999Y150000D01*
X115000Y151000D01*
Y151999D01*
X115999Y150000D02*
X117999D01*
X99000Y165999D02*
X98001Y166999D01*
X96001D01*
X95002Y165999D01*
Y162001D01*
X96001Y161001D01*
X98001D01*
X99000Y162001D01*
X101000D02*
X101999Y161001D01*
X103999D01*
X104998Y162001D01*
Y165999D01*
X103999Y166999D01*
X101999D01*
X101000Y165999D01*
Y165000D01*
X101999Y164000D01*
X104998D01*
X9299Y136798D02*
X8299Y137798D01*
X6300D01*
X5300Y136798D01*
Y135799D01*
X6300Y134799D01*
X8299D01*
X9299Y133799D01*
Y132800D01*
X8299Y131800D01*
X6300D01*
X5300Y132800D01*
X11298Y137798D02*
Y131800D01*
X13297Y133799D01*
X15297Y131800D01*
Y137798D01*
X17296Y131800D02*
X19296D01*
X18296D01*
Y137798D01*
X17296Y136798D01*
X67000Y197999D02*
X66001Y198999D01*
X64001D01*
X63002Y197999D01*
Y194001D01*
X64001Y193001D01*
X66001D01*
X67000Y194001D01*
X69000Y198999D02*
X72998D01*
Y197999D01*
X69000Y194001D01*
Y193001D01*
X108718Y177001D02*
Y182999D01*
X111717D01*
X112717Y181999D01*
Y180000D01*
X111717Y179000D01*
X108718D01*
X110717D02*
X112717Y177001D01*
X114716Y182999D02*
X118715D01*
Y181999D01*
X114716Y178001D01*
Y177001D01*
X141501Y112999D02*
X140501Y113999D01*
X138502D01*
X137502Y112999D01*
Y109001D01*
X138502Y108001D01*
X140501D01*
X141501Y109001D01*
X143500Y108001D02*
X145500D01*
X144500D01*
Y113999D01*
X143500Y112999D01*
X148499Y108001D02*
X150498D01*
X149498D01*
Y113999D01*
X148499Y112999D01*
X84764Y136078D02*
X83764Y137078D01*
X81765D01*
X80765Y136078D01*
Y132079D01*
X81765Y131080D01*
X83764D01*
X84764Y132079D01*
X86764Y136078D02*
X87763Y137078D01*
X89763D01*
X90762Y136078D01*
Y135078D01*
X89763Y134079D01*
X90762Y133079D01*
Y132079D01*
X89763Y131080D01*
X87763D01*
X86764Y132079D01*
Y133079D01*
X87763Y134079D01*
X86764Y135078D01*
Y136078D01*
X87763Y134079D02*
X89763D01*
X205002Y81001D02*
Y86999D01*
X208001D01*
X209000Y85999D01*
Y84000D01*
X208001Y83000D01*
X205002D01*
X207001D02*
X209000Y81001D01*
X214998Y86999D02*
X212999Y85999D01*
X211000Y84000D01*
Y82001D01*
X211999Y81001D01*
X213999D01*
X214998Y82001D01*
Y83000D01*
X213999Y84000D01*
X211000D01*
X159002Y18999D02*
Y14001D01*
X160001Y13001D01*
X162001D01*
X163000Y14001D01*
Y18999D01*
X168998Y13001D02*
X165000D01*
X168998Y17000D01*
Y17999D01*
X167999Y18999D01*
X165999D01*
X165000Y17999D01*
X113000Y59999D02*
X112001Y60999D01*
X110001D01*
X109002Y59999D01*
Y56001D01*
X110001Y55001D01*
X112001D01*
X113000Y56001D01*
X117999Y55001D02*
Y60999D01*
X115000Y58000D01*
X118998D01*
X205002Y69001D02*
Y74999D01*
X208001D01*
X209000Y73999D01*
Y72000D01*
X208001Y71000D01*
X205002D01*
X207001D02*
X209000Y69001D01*
X211000Y73999D02*
X211999Y74999D01*
X213999D01*
X214998Y73999D01*
Y73000D01*
X213999Y72000D01*
X212999D01*
X213999D01*
X214998Y71000D01*
Y70001D01*
X213999Y69001D01*
X211999D01*
X211000Y70001D01*
X233000Y11999D02*
X232001Y12999D01*
X230001D01*
X229002Y11999D01*
Y8001D01*
X230001Y7001D01*
X232001D01*
X233000Y8001D01*
X238998Y12999D02*
X236999Y11999D01*
X235000Y10000D01*
Y8001D01*
X235999Y7001D01*
X237999D01*
X238998Y8001D01*
Y9000D01*
X237999Y10000D01*
X235000D01*
X246001Y33001D02*
Y38999D01*
X249000D01*
X250000Y37999D01*
Y36000D01*
X249000Y35000D01*
X246001D01*
X248001D02*
X250000Y33001D01*
X251999D02*
X253999D01*
X252999D01*
Y38999D01*
X251999Y37999D01*
X233000Y25999D02*
X232001Y26999D01*
X230001D01*
X229002Y25999D01*
Y22001D01*
X230001Y21001D01*
X232001D01*
X233000Y22001D01*
X238998Y26999D02*
X235000D01*
Y24000D01*
X236999Y25000D01*
X237999D01*
X238998Y24000D01*
Y22001D01*
X237999Y21001D01*
X235999D01*
X235000Y22001D01*
X96001Y20999D02*
Y15001D01*
X99000D01*
X100000Y16001D01*
Y19999D01*
X99000Y20999D01*
X96001D01*
X101999Y15001D02*
X103999D01*
X102999D01*
Y20999D01*
X101999Y19999D01*
X96002Y42001D02*
Y47999D01*
X99001D01*
X100000Y46999D01*
Y45000D01*
X99001Y44000D01*
X96002D01*
X98001D02*
X100000Y42001D01*
X104999D02*
Y47999D01*
X102000Y45000D01*
X105998D01*
X96002Y29001D02*
Y34999D01*
X99001D01*
X100000Y33999D01*
Y32000D01*
X99001Y31000D01*
X96002D01*
X98001D02*
X100000Y29001D01*
X105998D02*
X102000D01*
X105998Y33000D01*
Y33999D01*
X104999Y34999D01*
X102999D01*
X102000Y33999D01*
X234000Y48999D02*
X233001Y49999D01*
X231001D01*
X230002Y48999D01*
Y45001D01*
X231001Y44001D01*
X233001D01*
X234000Y45001D01*
X236000Y48999D02*
X236999Y49999D01*
X238999D01*
X239998Y48999D01*
Y48000D01*
X238999Y47000D01*
X237999D01*
X238999D01*
X239998Y46000D01*
Y45001D01*
X238999Y44001D01*
X236999D01*
X236000Y45001D01*
X241002Y65999D02*
Y61001D01*
X242001Y60001D01*
X244001D01*
X245000Y61001D01*
Y65999D01*
X249999Y60001D02*
Y65999D01*
X247000Y63000D01*
X250998D01*
X80001Y16999D02*
Y12001D01*
X81001Y11001D01*
X83000D01*
X84000Y12001D01*
Y16999D01*
X85999Y11001D02*
X87999D01*
X86999D01*
Y16999D01*
X85999Y15999D01*
X161002Y144999D02*
Y139001D01*
X164001D01*
X165000Y140001D01*
Y143999D01*
X164001Y144999D01*
X161002D01*
X167000Y143999D02*
X167999Y144999D01*
X169999D01*
X170998Y143999D01*
Y143000D01*
X169999Y142000D01*
X168999D01*
X169999D01*
X170998Y141000D01*
Y140001D01*
X169999Y139001D01*
X167999D01*
X167000Y140001D01*
X161499Y125001D02*
Y130999D01*
X164498D01*
X165498Y129999D01*
Y128000D01*
X164498Y127000D01*
X161499D01*
X163498D02*
X165498Y125001D01*
X167497Y126001D02*
X168497Y125001D01*
X170496D01*
X171496Y126001D01*
Y129999D01*
X170496Y130999D01*
X168497D01*
X167497Y129999D01*
Y129000D01*
X168497Y128000D01*
X171496D01*
X164999Y115999D02*
X163999Y116999D01*
X162000D01*
X161000Y115999D01*
Y112001D01*
X162000Y111001D01*
X163999D01*
X164999Y112001D01*
X166998Y111001D02*
X168997D01*
X167998D01*
Y116999D01*
X166998Y115999D01*
X175995Y111001D02*
X171996D01*
X175995Y115000D01*
Y115999D01*
X174996Y116999D01*
X172996D01*
X171996Y115999D01*
X251501Y175999D02*
X250501Y176999D01*
X248502D01*
X247502Y175999D01*
Y172001D01*
X248502Y171001D01*
X250501D01*
X251501Y172001D01*
X253501Y171001D02*
X255500D01*
X254500D01*
Y176999D01*
X253501Y175999D01*
X258499D02*
X259499Y176999D01*
X261498D01*
X262498Y175999D01*
Y172001D01*
X261498Y171001D01*
X259499D01*
X258499Y172001D01*
Y175999D01*
X56799Y66198D02*
X55799Y67198D01*
X53800D01*
X52800Y66198D01*
Y62200D01*
X53800Y61200D01*
X55799D01*
X56799Y62200D01*
X62797Y61200D02*
X58798D01*
X62797Y65199D01*
Y66198D01*
X61797Y67198D01*
X59798D01*
X58798Y66198D01*
X32299Y62998D02*
X31299Y63998D01*
X29300D01*
X28300Y62998D01*
Y59000D01*
X29300Y58000D01*
X31299D01*
X32299Y59000D01*
X34298Y58000D02*
X36297D01*
X35298D01*
Y63998D01*
X34298Y62998D01*
X140700Y182198D02*
Y176200D01*
X143699D01*
X144699Y177200D01*
Y181198D01*
X143699Y182198D01*
X140700D01*
X150697Y176200D02*
X146698D01*
X150697Y180199D01*
Y181198D01*
X149697Y182198D01*
X147698D01*
X146698Y181198D01*
X9000Y61700D02*
Y67698D01*
X11999D01*
X12999Y66698D01*
Y64699D01*
X11999Y63699D01*
X9000D01*
X14998Y61700D02*
X16997D01*
X15998D01*
Y67698D01*
X14998Y66698D01*
D15*
X136368Y18005D02*
D03*
X210368Y142005D02*
D03*
M02*
