G04*
G04 #@! TF.GenerationSoftware,Altium Limited,Altium Designer,21.2.1 (34)*
G04*
G04 Layer_Color=8388736*
%FSLAX25Y25*%
%MOIN*%
G70*
G04*
G04 #@! TF.SameCoordinates,3CCBA5C7-3EF3-4D3C-93EB-A50EB93EC52C*
G04*
G04*
G04 #@! TF.FilePolarity,Positive*
G04*
G01*
G75*
%ADD12C,0.00787*%
%ADD13C,0.00591*%
D12*
X27299Y145000D02*
Y185000D01*
Y145000D02*
X53284D01*
Y185000D01*
X27299D02*
X53284D01*
X68126Y159079D02*
Y168921D01*
Y159079D02*
X83874D01*
Y168921D01*
X68126D02*
X83874D01*
X8000Y128000D02*
X48000D01*
X8000Y78000D02*
Y128000D01*
Y78000D02*
X48000D01*
Y128000D01*
X56827Y189126D02*
Y204874D01*
X35173D02*
X56827D01*
X35173Y189126D02*
Y204874D01*
Y189126D02*
X56827D01*
X136126Y80016D02*
X151874D01*
Y101669D01*
X136126D02*
X151874D01*
X136126Y80016D02*
Y101669D01*
X54937Y126205D02*
Y141953D01*
Y126205D02*
X76591D01*
Y141953D01*
X54937D02*
X76591D01*
X165008Y22000D02*
Y62000D01*
Y22000D02*
X190992D01*
Y62000D01*
X165008D02*
X190992D01*
X128126Y53079D02*
Y62921D01*
Y53079D02*
X143874D01*
Y62921D01*
X128126D02*
X143874D01*
X206126Y5079D02*
Y14921D01*
Y5079D02*
X221874D01*
Y14921D01*
X206126D02*
X221874D01*
X206126Y19079D02*
Y28921D01*
Y19079D02*
X221874D01*
Y28921D01*
X206126D02*
X221874D01*
X203173Y44126D02*
Y59874D01*
Y44126D02*
X224827D01*
Y59874D01*
X203173D02*
X224827D01*
X200372Y109079D02*
Y118921D01*
X184624D02*
X200372D01*
X184624Y109079D02*
Y118921D01*
Y109079D02*
X200372D01*
X260827Y151126D02*
Y166874D01*
X239173D02*
X260827D01*
X239173Y151126D02*
Y166874D01*
Y151126D02*
X260827D01*
X28126Y31173D02*
X43874D01*
Y52827D01*
X28126D02*
X43874D01*
X28126Y31173D02*
Y52827D01*
X204701Y151567D02*
Y172433D01*
X167299D02*
X204701D01*
X167299Y151567D02*
Y172433D01*
Y151567D02*
X204701D01*
D13*
X79386Y44000D02*
G03*
X79386Y44000I-13386J0D01*
G01*
M02*
