G04*
G04 #@! TF.GenerationSoftware,Altium Limited,Altium Designer,21.2.1 (34)*
G04*
G04 Layer_Color=0*
%FSLAX25Y25*%
%MOIN*%
G70*
G04*
G04 #@! TF.SameCoordinates,3CCBA5C7-3EF3-4D3C-93EB-A50EB93EC52C*
G04*
G04*
G04 #@! TF.FilePolarity,Positive*
G04*
G01*
G75*
%ADD48C,0.00394*%
D48*
X40291Y163031D02*
Y166969D01*
X38323Y165000D02*
X42260D01*
X76000Y162031D02*
Y165969D01*
X74032Y164000D02*
X77969D01*
X26032Y103000D02*
X29969D01*
X28000Y101031D02*
Y104969D01*
X46000Y195031D02*
Y198969D01*
X44032Y197000D02*
X47969D01*
X142032Y90842D02*
X145968D01*
X144000Y88874D02*
Y92811D01*
X65764Y132110D02*
Y136047D01*
X63795Y134079D02*
X67732D01*
X178000Y40031D02*
Y43968D01*
X176031Y42000D02*
X179969D01*
X136000Y56032D02*
Y59969D01*
X134031Y58000D02*
X137969D01*
X214000Y8032D02*
Y11969D01*
X212032Y10000D02*
X215968D01*
X214000Y22031D02*
Y25969D01*
X212032Y24000D02*
X215968D01*
X214000Y50032D02*
Y53969D01*
X212032Y52000D02*
X215968D01*
X192498Y112031D02*
Y115969D01*
X190529Y114000D02*
X194466D01*
X250000Y157032D02*
Y160968D01*
X248031Y159000D02*
X251969D01*
X66000Y42031D02*
Y45968D01*
X64031Y44000D02*
X67968D01*
X34032Y42000D02*
X37969D01*
X36000Y40031D02*
Y43968D01*
X186000Y160031D02*
Y163969D01*
X184031Y162000D02*
X187969D01*
M02*
