G04*
G04 #@! TF.GenerationSoftware,Altium Limited,Altium Designer,21.2.1 (34)*
G04*
G04 Layer_Color=8388736*
%FSLAX25Y25*%
%MOIN*%
G70*
G04*
G04 #@! TF.SameCoordinates,80AB4F38-7A27-461E-8C37-B356CBF0BF54*
G04*
G04*
G04 #@! TF.FilePolarity,Negative*
G04*
G01*
G75*
%ADD17C,0.09461*%
%ADD18R,0.09461X0.09461*%
%ADD19R,0.08661X0.08661*%
%ADD20C,0.08661*%
%ADD21R,0.08674X0.08674*%
%ADD22C,0.08674*%
%ADD23R,0.08661X0.08661*%
%ADD24R,0.07874X0.07874*%
%ADD25C,0.07874*%
%ADD26C,0.16548*%
%ADD27R,0.06706X0.16548*%
%ADD28R,0.06706X0.14580*%
%ADD29R,0.09461X0.09461*%
%ADD30C,0.09461*%
D17*
X194000Y204000D02*
D03*
X184000D02*
D03*
X174000D02*
D03*
X164000D02*
D03*
X154000D02*
D03*
X144000D02*
D03*
X134000D02*
D03*
X194000Y174000D02*
D03*
X184000D02*
D03*
X174000D02*
D03*
X164000D02*
D03*
X154000D02*
D03*
X144000D02*
D03*
Y116000D02*
D03*
X154000D02*
D03*
X164000D02*
D03*
X174000D02*
D03*
X184000D02*
D03*
X194000D02*
D03*
X134000Y146000D02*
D03*
X144000D02*
D03*
X154000D02*
D03*
X164000D02*
D03*
X174000D02*
D03*
X184000D02*
D03*
X194000D02*
D03*
X195000Y225000D02*
D03*
X205000D02*
D03*
X215000D02*
D03*
X225000D02*
D03*
X235000D02*
D03*
X245000D02*
D03*
X255000D02*
D03*
X185000Y255000D02*
D03*
X195000D02*
D03*
X205000D02*
D03*
X215000D02*
D03*
X225000D02*
D03*
X235000D02*
D03*
X245000D02*
D03*
X255000D02*
D03*
X106000Y232283D02*
D03*
Y267717D02*
D03*
X229283Y136000D02*
D03*
X264717D02*
D03*
X110000Y67000D02*
D03*
Y57000D02*
D03*
D18*
X134000Y174000D02*
D03*
Y116000D02*
D03*
X185000Y225000D02*
D03*
D19*
X78000Y120220D02*
D03*
X104000Y124000D02*
D03*
X130000Y315220D02*
D03*
X160000Y225000D02*
D03*
Y270079D02*
D03*
X264000Y79630D02*
D03*
X168000Y78685D02*
D03*
X209000Y66000D02*
D03*
X182000Y39315D02*
D03*
X35000Y237315D02*
D03*
X50000Y246370D02*
D03*
X20000Y237315D02*
D03*
X30000Y110000D02*
D03*
X140000Y37000D02*
D03*
X139000Y68158D02*
D03*
X103000Y189000D02*
D03*
D20*
X78000Y37780D02*
D03*
X104000Y133843D02*
D03*
X190315Y274000D02*
D03*
X130000Y232780D02*
D03*
X160000Y234842D02*
D03*
Y279921D02*
D03*
X264000Y48370D02*
D03*
X254000D02*
D03*
X244000D02*
D03*
X234000D02*
D03*
Y79630D02*
D03*
X244000D02*
D03*
X254000D02*
D03*
X247158Y93000D02*
D03*
X251842Y35000D02*
D03*
X168000Y39315D02*
D03*
X266685Y108000D02*
D03*
X232157Y21000D02*
D03*
X209000Y75842D02*
D03*
X182000Y78685D02*
D03*
X35000Y276685D02*
D03*
X69842Y232000D02*
D03*
X50000Y277630D02*
D03*
X60000D02*
D03*
X70000D02*
D03*
X80000D02*
D03*
Y246370D02*
D03*
X70000D02*
D03*
X60000D02*
D03*
X20000Y276685D02*
D03*
X227315Y122000D02*
D03*
X20000Y180000D02*
D03*
X30000D02*
D03*
X20000Y170000D02*
D03*
X30000D02*
D03*
X20000Y160000D02*
D03*
X30000D02*
D03*
X20000Y150000D02*
D03*
X30000D02*
D03*
X20000Y140000D02*
D03*
X30000D02*
D03*
X20000Y130000D02*
D03*
X30000D02*
D03*
X20000Y120000D02*
D03*
X30000D02*
D03*
X20000Y110000D02*
D03*
X234685Y93000D02*
D03*
X140000Y46843D02*
D03*
X139000Y78000D02*
D03*
X103000Y198843D02*
D03*
D21*
X190000Y291000D02*
D03*
D22*
X200000D02*
D03*
X210000D02*
D03*
X220000D02*
D03*
X230000D02*
D03*
X240000D02*
D03*
X250000D02*
D03*
X190000Y321000D02*
D03*
X200000D02*
D03*
X210000D02*
D03*
X220000D02*
D03*
X230000D02*
D03*
X240000D02*
D03*
X250000D02*
D03*
D23*
X229685Y274000D02*
D03*
X266843Y93000D02*
D03*
X232157Y35000D02*
D03*
X227315Y108000D02*
D03*
X251842Y21000D02*
D03*
X50157Y232000D02*
D03*
X266685Y122000D02*
D03*
X195315Y93000D02*
D03*
D24*
X160000Y315079D02*
D03*
X50000Y301842D02*
D03*
X80000D02*
D03*
D25*
X160000Y324921D02*
D03*
X50000Y292000D02*
D03*
X80000D02*
D03*
D26*
X15000Y15000D02*
D03*
Y340000D02*
D03*
X285000D02*
D03*
Y15000D02*
D03*
D27*
X58622Y55000D02*
D03*
D28*
X35000D02*
D03*
D29*
X110000Y47000D02*
D03*
D30*
X70000Y146000D02*
D03*
X48000Y82000D02*
D03*
Y122000D02*
D03*
Y160000D02*
D03*
X164000Y162000D02*
D03*
X194027Y160000D02*
D03*
X116000Y148000D02*
D03*
X118000Y161000D02*
D03*
X120000Y102000D02*
D03*
X162000Y94000D02*
D03*
X177740Y93740D02*
D03*
X218000Y196000D02*
D03*
X70000Y208000D02*
D03*
Y194000D02*
D03*
X102000Y106000D02*
D03*
X144000Y94000D02*
D03*
X277000Y48000D02*
D03*
X93000Y246000D02*
D03*
X70000Y179000D02*
D03*
X48000Y140000D02*
D03*
X211000Y179000D02*
D03*
M02*
