%FSTAX23Y23*%
%MOIN*%
%SFA1B1*%

%IPPOS*%
%ADD12C,0.007870*%
%LNtachometer-boardv2.5-1*%
%LPD*%
G36*
X00805Y0078D02*
X00805Y00779D01*
X00805Y00778*
X00805Y00778*
X00804Y00777*
X00804Y00776*
Y00776*
X00804Y00776*
Y00776*
X00804Y00776*
X00804Y00776*
X00804Y00775*
X00804Y00775*
X00803Y00774*
X00803Y00773*
X00803Y00773*
X00802Y00773*
X00802Y00773*
X00802Y00773*
X00802Y00772*
X00802Y00772*
X00801Y00772*
X00801Y00771*
X008Y00771*
X00799Y0077*
X00798Y0077*
X00798*
X00798Y0077*
X00798Y0077*
X00798Y0077*
X00797Y00769*
X00797Y00769*
X00797Y00769*
X00796Y00769*
X00796Y00769*
X00796Y00769*
X00795Y00769*
X00793Y00769*
X00792Y00769*
X00792*
X00792*
X00792*
X00792*
X00791Y00769*
X00791*
X0079Y00769*
X0079Y00769*
X00789Y00769*
X00788Y00769*
X00787Y00769*
X00787*
X00787Y00769*
X00787Y00769*
X00787Y00769*
X00786Y0077*
X00786Y0077*
X00785Y0077*
X00785Y0077*
X00784Y00771*
X00783Y00771*
X00783Y00771*
X00783Y00771*
X00783Y00771*
X00783Y00772*
X00782Y00772*
X00782Y00773*
X00782Y00773*
X00781Y00773*
X00781Y00773*
X00781Y00774*
X00781Y00774*
X00781Y00774*
X0078Y00775*
X0078Y00775*
X0078Y00776*
X0078Y00776*
Y00776*
X0078Y00777*
X0078Y00777*
X0078Y00777*
X0078Y00778*
X0078Y00778*
X0078Y00779*
X0078Y0078*
X0078Y0078*
Y0079*
X00805*
Y0078*
G37*
G36*
X00798Y00763D02*
X00799Y00763D01*
X00799Y00763*
X00799Y00763*
X00799Y00762*
X00799Y00762*
X00799Y00761*
X008Y00761*
X008Y0076*
X00801Y00759*
X00801Y00758*
X00801Y00758*
X00801Y00758*
X00802Y00758*
X00802Y00758*
X00802Y00758*
X00803Y00757*
X00803Y00757*
X00804Y00756*
X00804Y00756*
X00805Y00756*
Y00754*
X0078*
Y00757*
X00799*
X00799Y00757*
X00799Y00757*
X00799Y00757*
X00799Y00758*
X00798Y00758*
X00798Y00759*
X00797Y00759*
X00797Y0076*
Y0076*
X00797Y0076*
X00797Y0076*
X00797Y0076*
X00796Y00761*
X00796Y00761*
X00796Y00762*
X00796Y00762*
X00795Y00763*
X00798*
Y00763*
G37*
G36*
X01033Y01346D02*
X01039D01*
Y01343*
X01033*
Y01332*
X0103*
X01014Y01344*
Y01346*
X0103*
Y0135*
X01033*
Y01346*
G37*
G36*
X01039Y01322D02*
X01019D01*
X01019Y01322*
X0102Y01322*
X0102Y01322*
X0102Y01322*
X0102Y01321*
X01021Y01321*
X01021Y0132*
X01022Y01319*
Y01319*
X01022Y01319*
X01022Y01319*
X01022Y01319*
X01022Y01318*
X01022Y01318*
X01023Y01317*
X01023Y01317*
X01023Y01316*
X0102*
Y01316*
X0102Y01316*
X0102Y01316*
X0102Y01317*
X0102Y01317*
X0102Y01317*
X01019Y01318*
X01019Y01318*
X01018Y01319*
X01018Y0132*
X01017Y01321*
X01017Y01321*
X01017Y01321*
X01017Y01321*
X01017Y01321*
X01016Y01321*
X01016Y01322*
X01016Y01322*
X01015Y01323*
X01014Y01323*
X01014Y01323*
Y01325*
X01039*
Y01322*
G37*
G36*
X01031Y01311D02*
X01031Y01311D01*
X01032Y01311*
X01032Y01311*
X01033Y01311*
X01033Y0131*
X01033Y0131*
X01034Y0131*
X01035Y01309*
X01036Y01309*
X01036Y01308*
X01037Y01308*
X01037Y01307*
X01037Y01307*
X01037Y01307*
X01038Y01307*
X01038Y01307*
X01038Y01306*
X01038Y01306*
X01038Y01306*
X01038Y01305*
X01039Y01305*
X01039Y01304*
X01039Y01304*
X01039Y01303*
X01039Y01303*
X01039Y01302*
X01039Y01301*
X0104Y01301*
Y013*
X01039Y013*
Y013*
X01039Y01299*
X01039Y01299*
X01039Y01298*
X01039Y01297*
X01039Y01296*
X01038Y01295*
X01038Y01294*
X01038Y01294*
X01038Y01294*
X01038Y01294*
X01038Y01294*
X01038Y01294*
X01037Y01293*
X01037Y01293*
X01037Y01293*
X01037Y01292*
X01036Y01292*
X01036Y01292*
X01035Y01291*
X01034Y01291*
X01033Y0129*
X01033*
X01033Y0129*
X01033Y0129*
X01033Y0129*
X01032Y0129*
X01032Y0129*
X01031Y01289*
X01031Y01289*
X01031Y01289*
X0103Y01289*
X01029Y01289*
X01028Y01289*
X01026Y01289*
X01026*
X01026*
X01026*
X01026Y01289*
X01025*
X01025Y01289*
X01024Y01289*
X01024Y01289*
X01023Y01289*
X01022Y01289*
X01021Y0129*
X01019Y0129*
X01019Y0129*
X01019Y0129*
X01019Y0129*
X01019Y01291*
X01019Y01291*
X01018Y01291*
X01018Y01291*
X01017Y01292*
X01016Y01293*
X01016Y01293*
X01015Y01294*
X01015Y01295*
X01015Y01295*
X01015Y01295*
X01015Y01295*
X01015Y01295*
X01014Y01296*
X01014Y01296*
X01014Y01296*
X01014Y01297*
X01014Y01297*
X01014Y01298*
X01014Y01299*
X01013Y01301*
Y01301*
X01013Y01301*
X01014Y01302*
X01014Y01302*
X01014Y01302*
X01014Y01303*
X01014Y01304*
X01014Y01305*
X01014Y01305*
X01015Y01306*
X01015Y01306*
X01015Y01307*
X01015Y01307*
X01015Y01307*
X01016Y01307*
X01016Y01307*
X01016Y01308*
X01016Y01308*
X01016Y01308*
X01017Y01308*
X01017Y01309*
X01018Y01309*
X01018Y01309*
X01018Y0131*
X01019Y0131*
X0102Y0131*
X0102Y0131*
X01021Y01311*
X01022Y01307*
X01022*
X01021Y01307*
X01021Y01307*
X01021Y01307*
X01021Y01307*
X01021Y01307*
X0102Y01307*
X01019Y01306*
X01019Y01306*
X01018Y01305*
X01018Y01305*
X01017Y01305*
X01017Y01304*
X01017Y01304*
X01017Y01304*
X01017Y01303*
X01016Y01302*
X01016Y01301*
X01016Y01301*
Y013*
X01016Y013*
Y013*
X01016Y01299*
X01016Y01299*
X01017Y01298*
X01017Y01297*
X01017Y01296*
X01018Y01296*
Y01296*
X01018Y01296*
X01018Y01295*
X01018Y01295*
X01019Y01295*
X01019Y01294*
X0102Y01294*
X01021Y01293*
X01021Y01293*
X01021*
X01022Y01293*
X01022Y01293*
X01022Y01293*
X01022Y01293*
X01022Y01293*
X01023Y01293*
X01024Y01292*
X01024Y01292*
X01025Y01292*
X01026Y01292*
X01026*
X01026*
X01027*
X01027*
X01027Y01292*
X01027*
X01028Y01292*
X01028Y01292*
X01029Y01292*
X0103Y01293*
X01031Y01293*
X01032Y01293*
X01032*
X01032Y01293*
X01032Y01293*
X01032Y01293*
X01033Y01293*
X01033Y01294*
X01034Y01294*
X01034Y01295*
X01035Y01295*
X01036Y01296*
Y01296*
X01036Y01296*
X01036Y01296*
X01036Y01296*
X01036Y01297*
X01036Y01297*
X01036Y01297*
X01036Y01298*
X01036Y01299*
X01037Y01299*
X01037Y013*
Y01301*
X01037Y01301*
Y01301*
X01037Y01301*
X01036Y01302*
X01036Y01303*
X01036Y01303*
X01036Y01304*
X01035Y01305*
X01035Y01305*
X01035Y01305*
X01035Y01305*
X01035Y01305*
X01035Y01305*
X01035Y01305*
X01034Y01306*
X01034Y01306*
X01034Y01306*
X01034Y01306*
X01033Y01307*
X01033Y01307*
X01032Y01307*
X01032Y01307*
X01031Y01307*
X01031Y01307*
X0103Y01308*
X01031Y01311*
X01031*
X01031Y01311*
G37*
G36*
X021Y02714D02*
X02088D01*
X02088Y02714*
X02087*
X02086Y02714*
X02086Y02714*
X02085Y02715*
X02084Y02715*
X02084Y02715*
X02083Y02715*
X02083*
X02083Y02715*
X02083Y02715*
X02083Y02715*
X02082Y02716*
X02082Y02716*
X02081Y02716*
X02081Y02717*
X0208Y02717*
Y02717*
X0208Y02717*
X0208Y02718*
X0208Y02718*
X0208Y02719*
X0208Y02719*
X0208Y0272*
X02079Y0272*
X02079Y02721*
Y02721*
Y02721*
Y02721*
X02079Y02722*
Y02722*
X02079Y02722*
X0208Y02723*
X0208Y02723*
X0208Y02724*
X02081Y02725*
X02081Y02725*
X02081Y02726*
X02081Y02726*
X02081Y02726*
X02081Y02726*
X02081Y02726*
X02082Y02726*
X02082Y02726*
X02082Y02727*
X02082Y02727*
X02083Y02727*
X02083Y02727*
X02084Y02727*
X02084Y02727*
X02085Y02728*
X02085Y02728*
X02086Y02728*
X02086Y02728*
X02086Y02728*
X02086Y02728*
X02086Y02728*
X02086Y02728*
X02085Y02729*
X02085Y02729*
X02084Y02729*
X02084Y02729*
X02084Y0273*
X02084Y0273*
X02084Y0273*
X02083Y02731*
X02083Y02731*
X02082Y02732*
X02082Y02733*
X02077Y0274*
X02082*
X02085Y02734*
Y02734*
X02085Y02734*
X02085Y02734*
X02085Y02734*
X02085Y02733*
X02086Y02733*
X02086Y02732*
X02086Y02732*
X02087Y02731*
X02087Y02731*
X02087Y02731*
X02087Y02731*
X02088Y0273*
X02088Y0273*
X02088Y0273*
X02089Y02729*
X02089Y02729*
X02089Y02729*
X02089Y02729*
X02089Y02729*
X02089Y02729*
X0209Y02729*
X0209Y02729*
X0209Y02728*
X02091*
X02091Y02728*
X02091*
X02091Y02728*
X02091Y02728*
X02091*
X02092Y02728*
X02096*
Y0274*
X021*
Y02714*
G37*
G36*
X02076Y02739D02*
Y02739D01*
Y02739*
X02076Y02739*
X02076Y02738*
X02076Y02738*
X02076Y02738*
X02075Y02737*
Y02737*
X02075Y02737*
X02075Y02737*
X02075Y02737*
X02075Y02736*
X02075Y02736*
X02074Y02735*
X02074Y02735*
X02073Y02734*
Y02734*
X02073Y02734*
X02073Y02734*
X02073Y02733*
X02072Y02733*
X02072Y02732*
X02071Y02732*
X0207Y02731*
X02069Y0273*
X02069Y0273*
X02069Y0273*
X02069Y0273*
X02069Y0273*
X02068Y02729*
X02068Y02729*
X02068Y02729*
X02067Y02728*
X02066Y02727*
X02065Y02727*
X02065Y02726*
X02064Y02726*
X02064Y02725*
X02064Y02725*
Y02725*
X02064Y02725*
X02064Y02725*
X02064Y02725*
X02063Y02724*
X02063Y02724*
X02063Y02723*
X02063Y02722*
X02062Y02722*
X02062Y02721*
Y02721*
Y02721*
X02062Y02721*
X02062Y0272*
X02063Y0272*
X02063Y0272*
X02063Y02719*
X02063Y02719*
X02064Y02718*
X02064Y02718*
X02064Y02718*
X02064Y02718*
X02065Y02717*
X02065Y02717*
X02066Y02717*
X02066Y02717*
X02067Y02717*
X02067*
X02068Y02717*
X02068Y02717*
X02068Y02717*
X02069Y02717*
X0207Y02717*
X0207Y02718*
X02071Y02718*
X02071Y02718*
X02071Y02718*
X02071Y02719*
X02071Y02719*
X02072Y0272*
X02072Y0272*
X02072Y02721*
X02072Y02722*
X02075Y02721*
Y02721*
X02075Y02721*
Y02721*
X02075Y02721*
X02075Y02721*
X02075Y0272*
X02075Y0272*
X02075Y02719*
X02075Y02719*
X02074Y02718*
X02074Y02717*
X02074Y02717*
X02073Y02716*
X02073Y02716*
X02073Y02716*
X02073Y02716*
X02073Y02716*
X02072Y02716*
X02072Y02716*
X02072Y02716*
X02072Y02715*
X02071Y02715*
X02071Y02715*
X0207Y02715*
X0207Y02715*
X02069Y02714*
X02069Y02714*
X02068Y02714*
X02068Y02714*
X02067Y02714*
X02067*
X02066Y02714*
X02066Y02714*
X02066Y02714*
X02065Y02714*
X02065Y02714*
X02064Y02715*
X02063Y02715*
X02063Y02715*
X02062Y02716*
X02062Y02716*
X02061Y02716*
X02061Y02716*
X02061Y02716*
X02061Y02716*
X02061Y02717*
X02061Y02717*
X02061Y02717*
X0206Y02717*
X0206Y02718*
X0206Y02718*
X0206Y02719*
X02059Y0272*
X02059Y0272*
X02059Y02721*
X02059Y02721*
Y02721*
Y02721*
X02059Y02722*
X02059Y02722*
X02059Y02723*
X02059Y02723*
X0206Y02724*
X0206Y02724*
X0206Y02724*
X0206Y02724*
X0206Y02725*
X0206Y02725*
X02061Y02726*
X02061Y02726*
X02061Y02727*
X02062Y02727*
X02062Y02727*
X02062Y02728*
X02062Y02728*
X02063Y02728*
X02063Y02728*
X02063Y02728*
X02063Y02729*
X02064Y02729*
X02064Y02729*
X02064Y0273*
X02065Y0273*
X02065Y02731*
X02066Y02731*
X02067Y02732*
X02067Y02732*
X02067Y02732*
X02067Y02732*
X02067Y02732*
X02067Y02732*
X02068Y02732*
X02068Y02733*
X02069Y02733*
X02069Y02734*
X0207Y02735*
X0207Y02735*
X0207Y02735*
X0207Y02735*
X0207Y02735*
X02071Y02735*
X02071Y02735*
X02071Y02736*
X02071Y02736*
X02072Y02737*
X02059*
Y0274*
X02076*
Y02739*
G37*
G36*
X01325Y0273D02*
X01325Y02729D01*
X01325Y02728*
X01325Y02728*
X01324Y02727*
X01324Y02726*
Y02726*
X01324Y02726*
Y02726*
X01324Y02726*
X01324Y02726*
X01324Y02725*
X01324Y02725*
X01323Y02724*
X01323Y02723*
X01323Y02723*
X01322Y02723*
X01322Y02723*
X01322Y02723*
X01322Y02722*
X01322Y02722*
X01321Y02722*
X01321Y02721*
X0132Y02721*
X01319Y0272*
X01318Y0272*
X01318*
X01318Y0272*
X01318Y0272*
X01318Y0272*
X01317Y02719*
X01317Y02719*
X01317Y02719*
X01316Y02719*
X01316Y02719*
X01316Y02719*
X01315Y02719*
X01313Y02719*
X01312Y02719*
X01312*
X01312*
X01312*
X01312*
X01311Y02719*
X01311*
X0131Y02719*
X0131Y02719*
X01309Y02719*
X01308Y02719*
X01307Y02719*
X01307*
X01307Y02719*
X01307Y02719*
X01307Y02719*
X01306Y0272*
X01306Y0272*
X01305Y0272*
X01305Y0272*
X01304Y02721*
X01303Y02721*
X01303Y02721*
X01303Y02721*
X01303Y02721*
X01303Y02722*
X01302Y02722*
X01302Y02723*
X01302Y02723*
X01301Y02723*
X01301Y02723*
X01301Y02724*
X01301Y02724*
X01301Y02724*
X013Y02725*
X013Y02725*
X013Y02726*
X013Y02726*
Y02726*
X013Y02727*
X013Y02727*
X013Y02727*
X013Y02728*
X013Y02728*
X013Y02729*
X013Y0273*
X013Y0273*
Y0274*
X01325*
Y0273*
G37*
G36*
X013Y02716D02*
X01301Y02716D01*
X01301Y02716*
X01301Y02716*
X01302Y02715*
X01302*
X01302Y02715*
X01302Y02715*
X01302Y02715*
X01303Y02715*
X01303Y02715*
X01304Y02714*
X01304Y02714*
X01305Y02713*
X01305*
X01305Y02713*
X01305Y02713*
X01306Y02713*
X01306Y02712*
X01307Y02712*
X01307Y02711*
X01308Y0271*
X01309Y02709*
X01309Y02709*
X01309Y02709*
X01309Y02709*
X01309Y02709*
X0131Y02708*
X0131Y02708*
X0131Y02708*
X01311Y02707*
X01312Y02706*
X01312Y02705*
X01313Y02705*
X01313Y02704*
X01314Y02704*
X01314Y02704*
X01314*
X01314Y02704*
X01314Y02704*
X01314Y02704*
X01315Y02703*
X01315Y02703*
X01316Y02703*
X01317Y02703*
X01317Y02702*
X01318Y02702*
X01318*
X01318*
X01318Y02702*
X01319Y02702*
X01319Y02702*
X01319Y02703*
X0132Y02703*
X0132Y02703*
X01321Y02704*
X01321Y02704*
X01321Y02704*
X01321Y02704*
X01322Y02705*
X01322Y02705*
X01322Y02706*
X01322Y02706*
X01322Y02707*
Y02707*
X01322Y02707*
X01322Y02708*
X01322Y02708*
X01322Y02709*
X01322Y0271*
X01321Y0271*
X01321Y02711*
X01321Y02711*
X01321Y02711*
X0132Y02711*
X0132Y02711*
X01319Y02712*
X01319Y02712*
X01318Y02712*
X01317Y02712*
X01318Y02715*
X01318*
X01318Y02715*
X01318*
X01318Y02715*
X01318Y02715*
X01319Y02715*
X01319Y02715*
X0132Y02715*
X0132Y02714*
X01321Y02714*
X01322Y02714*
X01322Y02713*
X01323Y02713*
X01323Y02713*
X01323Y02713*
X01323Y02713*
X01323Y02713*
X01323Y02712*
X01323Y02712*
X01323Y02712*
X01324Y02712*
X01324Y02711*
X01324Y02711*
X01324Y0271*
X01324Y0271*
X01325Y02709*
X01325Y02709*
X01325Y02708*
X01325Y02708*
X01325Y02707*
Y02707*
X01325Y02706*
X01325Y02706*
X01325Y02706*
X01325Y02705*
X01325Y02705*
X01324Y02704*
X01324Y02703*
X01324Y02703*
X01323Y02702*
X01323Y02702*
X01323Y02701*
X01323Y02701*
X01323Y02701*
X01323Y02701*
X01322Y02701*
X01322Y02701*
X01322Y02701*
X01322Y027*
X01321Y027*
X01321Y027*
X0132Y02699*
X01319Y02699*
X01319Y02699*
X01318Y02699*
X01318Y02699*
X01318*
X01318*
X01317Y02699*
X01317Y02699*
X01316Y02699*
X01316Y02699*
X01315Y027*
X01315Y027*
X01315Y027*
X01315Y027*
X01314Y027*
X01314Y027*
X01313Y02701*
X01313Y02701*
X01312Y02701*
X01312Y02702*
X01312Y02702*
X01311Y02702*
X01311Y02702*
X01311Y02702*
X01311Y02703*
X01311Y02703*
X0131Y02703*
X0131Y02704*
X0131Y02704*
X01309Y02704*
X01309Y02705*
X01308Y02705*
X01308Y02706*
X01307Y02707*
X01307Y02707*
X01307Y02707*
X01307Y02707*
X01307Y02707*
X01307Y02707*
X01307Y02708*
X01306Y02708*
X01306Y02709*
X01305Y02709*
X01304Y0271*
X01304Y0271*
X01304Y0271*
X01304Y0271*
X01304Y0271*
X01304Y0271*
X01304Y02711*
X01303Y02711*
X01303Y02711*
X01302Y02712*
Y02699*
X013*
Y02716*
X013*
X013*
X013*
X013Y02716*
G37*
G36*
X01599Y02332D02*
X01579D01*
X01579Y02332*
X0158Y02332*
X0158Y02332*
X0158Y02332*
X0158Y02331*
X01581Y02331*
X01581Y0233*
X01582Y02329*
Y02329*
X01582Y02329*
X01582Y02329*
X01582Y02329*
X01582Y02328*
X01582Y02328*
X01583Y02327*
X01583Y02327*
X01583Y02326*
X0158*
Y02326*
X0158Y02326*
X0158Y02326*
X0158Y02327*
X0158Y02327*
X0158Y02327*
X01579Y02328*
X01579Y02328*
X01578Y02329*
X01578Y0233*
X01577Y02331*
X01577Y02331*
X01577Y02331*
X01577Y02331*
X01577Y02331*
X01577Y02331*
X01576Y02332*
X01576Y02332*
X01575Y02333*
X01574Y02333*
X01574Y02333*
Y02335*
X01599*
Y02332*
G37*
G36*
X01591Y02321D02*
X01591Y02321D01*
X01592Y02321*
X01592Y02321*
X01593Y02321*
X01593Y0232*
X01593Y0232*
X01594Y0232*
X01595Y02319*
X01596Y02319*
X01596Y02318*
X01597Y02318*
X01597Y02317*
X01597Y02317*
X01597Y02317*
X01598Y02317*
X01598Y02317*
X01598Y02316*
X01598Y02316*
X01598Y02316*
X01598Y02315*
X01599Y02315*
X01599Y02314*
X01599Y02314*
X01599Y02313*
X01599Y02313*
X01599Y02312*
X01599Y02311*
X016Y02311*
Y0231*
X01599Y0231*
Y0231*
X01599Y02309*
X01599Y02309*
X01599Y02308*
X01599Y02307*
X01599Y02306*
X01598Y02305*
X01598Y02304*
X01598Y02304*
X01598Y02304*
X01598Y02304*
X01598Y02304*
X01598Y02304*
X01597Y02303*
X01597Y02303*
X01597Y02303*
X01597Y02302*
X01596Y02302*
X01596Y02302*
X01595Y02301*
X01594Y02301*
X01593Y023*
X01593*
X01593Y023*
X01593Y023*
X01593Y023*
X01592Y023*
X01592Y023*
X01591Y02299*
X01591Y02299*
X01591Y02299*
X0159Y02299*
X01589Y02299*
X01588Y02299*
X01586Y02299*
X01586*
X01586*
X01586*
X01586Y02299*
X01585*
X01585Y02299*
X01584Y02299*
X01584Y02299*
X01583Y02299*
X01582Y02299*
X01581Y023*
X01579Y023*
X01579Y023*
X01579Y023*
X01579Y023*
X01579Y02301*
X01579Y02301*
X01578Y02301*
X01578Y02301*
X01577Y02302*
X01576Y02303*
X01576Y02303*
X01575Y02304*
X01575Y02305*
X01575Y02305*
X01575Y02305*
X01575Y02305*
X01575Y02305*
X01574Y02306*
X01574Y02306*
X01574Y02306*
X01574Y02307*
X01574Y02307*
X01574Y02308*
X01574Y02309*
X01573Y02311*
Y02311*
X01573Y02311*
X01574Y02312*
X01574Y02312*
X01574Y02312*
X01574Y02313*
X01574Y02314*
X01574Y02315*
X01574Y02315*
X01575Y02316*
X01575Y02316*
X01575Y02317*
X01575Y02317*
X01575Y02317*
X01576Y02317*
X01576Y02317*
X01576Y02318*
X01576Y02318*
X01576Y02318*
X01577Y02318*
X01577Y02319*
X01578Y02319*
X01578Y02319*
X01578Y0232*
X01579Y0232*
X0158Y0232*
X0158Y0232*
X01581Y02321*
X01582Y02317*
X01582*
X01581Y02317*
X01581Y02317*
X01581Y02317*
X01581Y02317*
X01581Y02317*
X0158Y02317*
X01579Y02316*
X01579Y02316*
X01578Y02315*
X01578Y02315*
X01577Y02315*
X01577Y02314*
X01577Y02314*
X01577Y02314*
X01577Y02313*
X01576Y02312*
X01576Y02311*
X01576Y02311*
Y0231*
X01576Y0231*
Y0231*
X01576Y02309*
X01576Y02309*
X01577Y02308*
X01577Y02307*
X01577Y02306*
X01578Y02306*
Y02306*
X01578Y02306*
X01578Y02305*
X01578Y02305*
X01579Y02305*
X01579Y02304*
X0158Y02304*
X01581Y02303*
X01581Y02303*
X01581*
X01582Y02303*
X01582Y02303*
X01582Y02303*
X01582Y02303*
X01582Y02303*
X01583Y02303*
X01584Y02302*
X01584Y02302*
X01585Y02302*
X01586Y02302*
X01586*
X01586*
X01587*
X01587*
X01587Y02302*
X01587*
X01588Y02302*
X01588Y02302*
X01589Y02302*
X0159Y02303*
X01591Y02303*
X01592Y02303*
X01592*
X01592Y02303*
X01592Y02303*
X01592Y02303*
X01593Y02303*
X01593Y02304*
X01594Y02304*
X01594Y02305*
X01595Y02305*
X01596Y02306*
Y02306*
X01596Y02306*
X01596Y02306*
X01596Y02306*
X01596Y02307*
X01596Y02307*
X01596Y02307*
X01596Y02308*
X01596Y02309*
X01597Y02309*
X01597Y0231*
Y02311*
X01597Y02311*
Y02311*
X01597Y02311*
X01596Y02312*
X01596Y02313*
X01596Y02313*
X01596Y02314*
X01595Y02315*
X01595Y02315*
X01595Y02315*
X01595Y02315*
X01595Y02315*
X01595Y02315*
X01595Y02315*
X01594Y02316*
X01594Y02316*
X01594Y02316*
X01594Y02316*
X01593Y02317*
X01593Y02317*
X01592Y02317*
X01592Y02317*
X01591Y02317*
X01591Y02317*
X0159Y02318*
X01591Y02321*
X01591*
X01591Y02321*
G37*
G36*
X01577Y03241D02*
X01577Y03241D01*
X01577Y03241*
X01577Y03241*
X01577Y03241*
X01578Y0324*
X01578Y0324*
X01578Y0324*
X01579Y03239*
X01579Y03239*
X0158Y03238*
X01581Y03238*
X01581Y03238*
X01582Y03237*
X01583Y03237*
X01583Y03236*
X01583Y03236*
X01584Y03236*
X01584Y03236*
X01584Y03236*
X01585Y03236*
X01585Y03236*
X01586Y03235*
X01586Y03235*
X01587Y03235*
X01587Y03234*
X01588Y03234*
X01589Y03234*
X0159Y03233*
X01592Y03233*
X01592*
X01592Y03233*
X01592Y03233*
X01593Y03233*
X01593Y03232*
X01593Y03232*
X01594Y03232*
X01594Y03232*
X01595Y03232*
X01595Y03232*
X01596Y03232*
X01598Y03232*
X01599Y03232*
Y03228*
X01599*
X01599*
X01599*
X01599Y03228*
X01598*
X01598Y03228*
X01598Y03228*
X01597Y03229*
X01597Y03229*
X01596Y03229*
X01595Y03229*
X01595Y03229*
X01594Y03229*
X01593Y03229*
X01592Y03229*
X01592*
X01592Y0323*
X01592Y0323*
X01591Y0323*
X01591Y0323*
X0159Y0323*
X0159Y0323*
X01589Y0323*
X01589Y03231*
X01588Y03231*
X01587Y03231*
X01585Y03232*
X01584Y03233*
X01584Y03233*
X01584Y03233*
X01583Y03233*
X01583Y03233*
X01583Y03233*
X01582Y03234*
X01582Y03234*
X01582Y03234*
X0158Y03235*
X01579Y03235*
X01578Y03236*
X01577Y03237*
Y03225*
X01574*
Y03241*
X01577*
X01577Y03241*
G37*
G36*
X01591Y03222D02*
X01591Y03222D01*
X01592Y03222*
X01592Y03221*
X01593Y03221*
X01593Y03221*
X01593Y03221*
X01594Y0322*
X01595Y0322*
X01596Y03219*
X01596Y03219*
X01597Y03219*
X01597Y03218*
X01597Y03218*
X01597Y03218*
X01598Y03218*
X01598Y03218*
X01598Y03217*
X01598Y03217*
X01598Y03217*
X01598Y03216*
X01599Y03216*
X01599Y03215*
X01599Y03215*
X01599Y03214*
X01599Y03213*
X01599Y03213*
X01599Y03212*
X016Y03211*
Y03211*
X01599Y03211*
Y0321*
X01599Y0321*
X01599Y03209*
X01599Y03209*
X01599Y03208*
X01599Y03207*
X01598Y03206*
X01598Y03205*
X01598Y03205*
X01598Y03205*
X01598Y03205*
X01598Y03204*
X01598Y03204*
X01597Y03204*
X01597Y03204*
X01597Y03204*
X01597Y03203*
X01596Y03203*
X01596Y03203*
X01595Y03202*
X01594Y03201*
X01593Y03201*
X01593*
X01593Y03201*
X01593Y03201*
X01593Y03201*
X01592Y03201*
X01592Y032*
X01591Y032*
X01591Y032*
X01591Y032*
X0159Y032*
X01589Y032*
X01588Y032*
X01586Y032*
X01586*
X01586*
X01586*
X01586Y032*
X01585*
X01585Y032*
X01584Y032*
X01584Y032*
X01583Y032*
X01582Y032*
X01581Y032*
X01579Y03201*
X01579Y03201*
X01579Y03201*
X01579Y03201*
X01579Y03201*
X01579Y03201*
X01578Y03202*
X01578Y03202*
X01577Y03203*
X01576Y03203*
X01576Y03204*
X01575Y03205*
X01575Y03205*
X01575Y03205*
X01575Y03206*
X01575Y03206*
X01575Y03206*
X01574Y03206*
X01574Y03207*
X01574Y03207*
X01574Y03208*
X01574Y03208*
X01574Y03209*
X01574Y0321*
X01573Y03211*
Y03212*
X01573Y03212*
X01574Y03212*
X01574Y03213*
X01574Y03213*
X01574Y03214*
X01574Y03215*
X01574Y03216*
X01574Y03216*
X01575Y03217*
X01575Y03217*
X01575Y03218*
X01575Y03218*
X01575Y03218*
X01576Y03218*
X01576Y03218*
X01576Y03218*
X01576Y03219*
X01576Y03219*
X01577Y03219*
X01577Y03219*
X01578Y0322*
X01578Y0322*
X01578Y0322*
X01579Y03221*
X0158Y03221*
X0158Y03221*
X01581Y03221*
X01582Y03218*
X01582*
X01581Y03218*
X01581Y03218*
X01581Y03218*
X01581Y03218*
X01581Y03218*
X0158Y03217*
X01579Y03217*
X01579Y03217*
X01578Y03216*
X01578Y03215*
X01577Y03215*
X01577Y03215*
X01577Y03215*
X01577Y03214*
X01577Y03214*
X01576Y03213*
X01576Y03212*
X01576Y03211*
Y03211*
X01576Y03211*
Y03211*
X01576Y0321*
X01576Y0321*
X01577Y03209*
X01577Y03208*
X01577Y03207*
X01578Y03206*
Y03206*
X01578Y03206*
X01578Y03206*
X01578Y03206*
X01579Y03205*
X01579Y03205*
X0158Y03204*
X01581Y03204*
X01581Y03204*
X01581*
X01582Y03204*
X01582Y03204*
X01582Y03204*
X01582Y03204*
X01582Y03203*
X01583Y03203*
X01584Y03203*
X01584Y03203*
X01585Y03203*
X01586Y03203*
X01586*
X01586*
X01587*
X01587*
X01587Y03203*
X01587*
X01588Y03203*
X01588Y03203*
X01589Y03203*
X0159Y03203*
X01591Y03204*
X01592Y03204*
X01592*
X01592Y03204*
X01592Y03204*
X01592Y03204*
X01593Y03204*
X01593Y03205*
X01594Y03205*
X01594Y03205*
X01595Y03206*
X01596Y03207*
Y03207*
X01596Y03207*
X01596Y03207*
X01596Y03207*
X01596Y03207*
X01596Y03208*
X01596Y03208*
X01596Y03209*
X01596Y03209*
X01597Y0321*
X01597Y03211*
Y03211*
X01597Y03212*
Y03212*
X01597Y03212*
X01596Y03213*
X01596Y03213*
X01596Y03214*
X01596Y03215*
X01595Y03215*
X01595Y03216*
X01595Y03216*
X01595Y03216*
X01595Y03216*
X01595Y03216*
X01595Y03216*
X01594Y03216*
X01594Y03217*
X01594Y03217*
X01594Y03217*
X01593Y03217*
X01593Y03218*
X01592Y03218*
X01592Y03218*
X01591Y03218*
X01591Y03218*
X0159Y03218*
X01591Y03222*
X01591*
X01591Y03222*
G37*
G36*
X01592Y02791D02*
X01592Y02791D01*
X01593Y02791*
X01593Y02791*
X01594Y02791*
X01594Y02791*
X01595Y0279*
X01595Y0279*
X01596Y0279*
X01596Y0279*
X01597Y02789*
X01597Y02789*
X01597Y02789*
X01597Y02789*
X01597Y02788*
X01598Y02788*
X01598Y02788*
X01598Y02788*
X01598Y02787*
X01598Y02787*
X01599Y02787*
X01599Y02786*
X01599Y02786*
X01599Y02785*
X01599Y02785*
X01599Y02784*
X01599Y02783*
X016Y02783*
Y02782*
X01599Y02782*
X01599Y02782*
X01599Y02781*
X01599Y02781*
X01599Y02781*
X01599Y0278*
X01599Y02779*
X01598Y02778*
X01598Y02778*
X01598Y02778*
X01598Y02777*
X01598Y02777*
X01597Y02777*
X01597Y02777*
X01597Y02777*
X01597Y02777*
X01597Y02776*
X01596Y02776*
X01596Y02776*
X01596Y02776*
X01595Y02776*
X01595Y02775*
X01594Y02775*
X01593Y02775*
X01592Y02775*
X01592Y02778*
X01592*
X01592Y02778*
X01592Y02778*
X01592Y02778*
X01593Y02778*
X01593Y02778*
X01593Y02778*
X01594Y02778*
X01595Y02779*
X01595Y02779*
X01596Y0278*
X01596Y0278*
X01596Y0278*
X01596Y0278*
X01596Y0278*
X01597Y02781*
X01597Y02781*
X01597Y02782*
X01597Y02783*
Y02783*
X01597Y02783*
X01597Y02783*
X01597Y02784*
X01597Y02785*
X01596Y02785*
X01596Y02786*
X01595Y02786*
X01595Y02786*
X01595Y02787*
X01595Y02787*
X01594Y02787*
X01594Y02787*
X01593Y02788*
X01593Y02788*
X01592Y02788*
X01592*
X01592*
X01591*
X01591Y02788*
X01591Y02788*
X0159Y02788*
X0159Y02788*
X01589Y02787*
X01589Y02787*
X01588Y02786*
X01588Y02786*
X01588Y02786*
X01588Y02786*
X01587Y02786*
X01587Y02785*
X01587Y02784*
X01587Y02784*
X01587Y02783*
Y02783*
X01587Y02782*
X01587Y02782*
X01587Y02782*
X01587Y02781*
X01587Y02781*
X01584Y02781*
Y02781*
X01584Y02781*
Y02782*
X01584Y02782*
X01584Y02783*
X01584Y02783*
X01584Y02784*
X01584Y02785*
X01583Y02785*
Y02785*
X01583Y02785*
X01583Y02785*
X01583Y02786*
X01583Y02786*
X01582Y02786*
X01582Y02786*
X01581Y02787*
X01581Y02787*
X0158*
X0158*
X0158*
X0158*
X0158Y02787*
X01579Y02787*
X01579Y02786*
X01578Y02786*
X01578Y02786*
X01577Y02786*
X01577Y02786*
X01577Y02785*
X01577Y02785*
X01577Y02785*
X01577Y02784*
X01577Y02784*
X01576Y02783*
X01576Y02783*
Y02782*
X01576Y02782*
X01576Y02782*
X01577Y02781*
X01577Y02781*
X01577Y0278*
X01577Y0278*
X01577Y0278*
X01578Y02779*
X01578Y02779*
X01578Y02779*
X01579Y02779*
X01579Y02778*
X0158Y02778*
X01581Y02778*
X0158Y02775*
X0158*
X0158Y02775*
X0158Y02775*
X0158Y02775*
X0158Y02775*
X01579Y02775*
X01579Y02775*
X01578Y02776*
X01577Y02776*
X01576Y02777*
X01575Y02778*
X01575Y02778*
X01575Y02778*
X01575Y02778*
X01575Y02778*
X01575Y02778*
X01575Y02778*
X01575Y02779*
X01575Y02779*
X01574Y0278*
X01574Y0278*
X01574Y02781*
X01574Y02782*
Y02783*
X01574Y02783*
X01574Y02784*
X01574Y02784*
X01574Y02785*
X01574Y02786*
X01575Y02786*
Y02786*
X01575Y02786*
X01575Y02787*
X01575Y02787*
X01575Y02787*
X01576Y02788*
X01576Y02788*
X01577Y02789*
X01577Y02789*
X01577Y02789*
X01577Y02789*
X01578Y02789*
X01578Y02789*
X01579Y0279*
X01579Y0279*
X0158Y0279*
X0158Y0279*
X0158*
X01581*
X01581Y0279*
X01581Y0279*
X01582Y0279*
X01582Y0279*
X01583Y02789*
X01583Y02789*
X01583Y02789*
X01584Y02789*
X01584Y02789*
X01584Y02788*
X01584Y02788*
X01585Y02788*
X01585Y02787*
X01585Y02786*
Y02786*
X01585Y02787*
X01585Y02787*
X01586Y02787*
X01586Y02787*
X01586Y02788*
X01586Y02788*
X01587Y02789*
X01587Y02789*
X01588Y0279*
X01588Y0279*
X01588Y0279*
X01588Y0279*
X01589Y02791*
X01589Y02791*
X0159Y02791*
X01591Y02791*
X01592Y02791*
X01592*
X01592*
X01592*
X01592Y02791*
G37*
G36*
X01591Y02772D02*
X01591Y02772D01*
X01592Y02772*
X01592Y02771*
X01593Y02771*
X01593Y02771*
X01593Y02771*
X01594Y0277*
X01595Y0277*
X01596Y02769*
X01596Y02769*
X01597Y02769*
X01597Y02768*
X01597Y02768*
X01597Y02768*
X01598Y02768*
X01598Y02768*
X01598Y02767*
X01598Y02767*
X01598Y02767*
X01598Y02766*
X01599Y02766*
X01599Y02765*
X01599Y02765*
X01599Y02764*
X01599Y02763*
X01599Y02763*
X01599Y02762*
X016Y02761*
Y02761*
X01599Y02761*
Y0276*
X01599Y0276*
X01599Y02759*
X01599Y02759*
X01599Y02758*
X01599Y02757*
X01598Y02756*
X01598Y02755*
X01598Y02755*
X01598Y02755*
X01598Y02755*
X01598Y02754*
X01598Y02754*
X01597Y02754*
X01597Y02754*
X01597Y02754*
X01597Y02753*
X01596Y02753*
X01596Y02753*
X01595Y02752*
X01594Y02751*
X01593Y02751*
X01593*
X01593Y02751*
X01593Y02751*
X01593Y02751*
X01592Y02751*
X01592Y0275*
X01591Y0275*
X01591Y0275*
X01591Y0275*
X0159Y0275*
X01589Y0275*
X01588Y0275*
X01586Y0275*
X01586*
X01586*
X01586*
X01586Y0275*
X01585*
X01585Y0275*
X01584Y0275*
X01584Y0275*
X01583Y0275*
X01582Y0275*
X01581Y0275*
X01579Y02751*
X01579Y02751*
X01579Y02751*
X01579Y02751*
X01579Y02751*
X01579Y02751*
X01578Y02752*
X01578Y02752*
X01577Y02753*
X01576Y02753*
X01576Y02754*
X01575Y02755*
X01575Y02755*
X01575Y02755*
X01575Y02756*
X01575Y02756*
X01575Y02756*
X01574Y02756*
X01574Y02757*
X01574Y02757*
X01574Y02758*
X01574Y02758*
X01574Y02759*
X01574Y0276*
X01573Y02761*
Y02762*
X01573Y02762*
X01574Y02762*
X01574Y02763*
X01574Y02763*
X01574Y02764*
X01574Y02765*
X01574Y02766*
X01574Y02766*
X01575Y02767*
X01575Y02767*
X01575Y02768*
X01575Y02768*
X01575Y02768*
X01576Y02768*
X01576Y02768*
X01576Y02768*
X01576Y02769*
X01576Y02769*
X01577Y02769*
X01577Y02769*
X01578Y0277*
X01578Y0277*
X01578Y0277*
X01579Y02771*
X0158Y02771*
X0158Y02771*
X01581Y02771*
X01582Y02768*
X01582*
X01581Y02768*
X01581Y02768*
X01581Y02768*
X01581Y02768*
X01581Y02768*
X0158Y02767*
X01579Y02767*
X01579Y02767*
X01578Y02766*
X01578Y02765*
X01577Y02765*
X01577Y02765*
X01577Y02765*
X01577Y02764*
X01577Y02764*
X01576Y02763*
X01576Y02762*
X01576Y02761*
Y02761*
X01576Y02761*
Y02761*
X01576Y0276*
X01576Y0276*
X01577Y02759*
X01577Y02758*
X01577Y02757*
X01578Y02756*
Y02756*
X01578Y02756*
X01578Y02756*
X01578Y02756*
X01579Y02755*
X01579Y02755*
X0158Y02754*
X01581Y02754*
X01581Y02754*
X01581*
X01582Y02754*
X01582Y02754*
X01582Y02754*
X01582Y02754*
X01582Y02753*
X01583Y02753*
X01584Y02753*
X01584Y02753*
X01585Y02753*
X01586Y02753*
X01586*
X01586*
X01587*
X01587*
X01587Y02753*
X01587*
X01588Y02753*
X01588Y02753*
X01589Y02753*
X0159Y02753*
X01591Y02754*
X01592Y02754*
X01592*
X01592Y02754*
X01592Y02754*
X01592Y02754*
X01593Y02754*
X01593Y02755*
X01594Y02755*
X01594Y02755*
X01595Y02756*
X01596Y02757*
Y02757*
X01596Y02757*
X01596Y02757*
X01596Y02757*
X01596Y02757*
X01596Y02758*
X01596Y02758*
X01596Y02759*
X01596Y02759*
X01597Y0276*
X01597Y02761*
Y02761*
X01597Y02762*
Y02762*
X01597Y02762*
X01596Y02763*
X01596Y02763*
X01596Y02764*
X01596Y02765*
X01595Y02765*
X01595Y02766*
X01595Y02766*
X01595Y02766*
X01595Y02766*
X01595Y02766*
X01595Y02766*
X01594Y02766*
X01594Y02767*
X01594Y02767*
X01594Y02767*
X01593Y02767*
X01593Y02768*
X01592Y02768*
X01592Y02768*
X01591Y02768*
X01591Y02768*
X0159Y02768*
X01591Y02772*
X01591*
X01591Y02772*
G37*
G36*
X00513Y02969D02*
X00514D01*
X00514Y02969*
X00515Y02969*
X00515Y02969*
X00516Y02968*
X00517Y02968*
X00518Y02968*
X0052Y02967*
X0052Y02967*
X0052Y02967*
X0052Y02967*
X0052Y02967*
X0052Y02967*
X00521Y02967*
X00521Y02966*
X00522Y02966*
X00523Y02965*
X00523Y02964*
X00524Y02963*
X00524Y02963*
X00524Y02963*
X00524Y02963*
X00524Y02962*
X00524Y02962*
X00525Y02962*
X00525Y02962*
X00525Y02961*
X00525Y02961*
X00525Y0296*
X00525Y02959*
X00525Y02958*
X00526Y02957*
Y02956*
X00526Y02956*
X00525Y02956*
X00525Y02956*
X00525Y02955*
X00525Y02955*
X00525Y02954*
X00525Y02953*
X00525Y02952*
X00524Y02952*
X00524Y02951*
X00524Y0295*
X00524Y0295*
X00524Y0295*
X00523Y0295*
X00523Y0295*
X00523Y0295*
X00523Y0295*
X00523Y02949*
X00522Y02949*
X00522Y02949*
X00521Y02948*
X00521Y02948*
X00521Y02948*
X0052Y02948*
X00519Y02947*
X00519Y02947*
X00518Y02947*
X00517Y0295*
X00517*
X00518Y0295*
X00518Y0295*
X00518Y0295*
X00518Y0295*
X00518Y02951*
X00519Y02951*
X0052Y02951*
X0052Y02952*
X00521Y02952*
X00521Y02953*
X00522Y02953*
X00522Y02953*
X00522Y02953*
X00522Y02954*
X00522Y02954*
X00523Y02955*
X00523Y02956*
X00523Y02957*
Y02957*
X00523Y02957*
Y02958*
X00523Y02958*
X00523Y02959*
X00522Y02959*
X00522Y0296*
X00522Y02961*
X00521Y02962*
Y02962*
X00521Y02962*
X00521Y02962*
X00521Y02962*
X0052Y02963*
X0052Y02963*
X00519Y02964*
X00518Y02964*
X00518Y02965*
X00518*
X00517Y02965*
X00517Y02965*
X00517Y02965*
X00517Y02965*
X00517Y02965*
X00516Y02965*
X00515Y02965*
X00515Y02965*
X00514Y02965*
X00513Y02965*
X00513*
X00513*
X00512*
X00512*
X00512Y02965*
X00512*
X00511Y02965*
X00511Y02965*
X0051Y02965*
X00509Y02965*
X00508Y02965*
X00507Y02964*
X00507*
X00507Y02964*
X00507Y02964*
X00507Y02964*
X00506Y02964*
X00506Y02964*
X00505Y02963*
X00505Y02963*
X00504Y02962*
X00504Y02961*
Y02961*
X00503Y02961*
X00503Y02961*
X00503Y02961*
X00503Y02961*
X00503Y02961*
X00503Y0296*
X00503Y0296*
X00503Y02959*
X00502Y02958*
X00502Y02957*
Y02957*
X00502Y02957*
Y02956*
X00502Y02956*
X00503Y02956*
X00503Y02955*
X00503Y02954*
X00503Y02953*
X00504Y02953*
X00504Y02952*
X00504Y02952*
X00504Y02952*
X00504Y02952*
X00504Y02952*
X00504Y02952*
X00505Y02952*
X00505Y02952*
X00505Y02951*
X00505Y02951*
X00506Y02951*
X00506Y02951*
X00507Y0295*
X00507Y0295*
X00508Y0295*
X00508Y0295*
X00509Y0295*
X00508Y02946*
X00508*
X00508Y02946*
X00508Y02947*
X00507Y02947*
X00507Y02947*
X00506Y02947*
X00506Y02947*
X00506Y02947*
X00505Y02948*
X00504Y02948*
X00503Y02949*
X00503Y02949*
X00502Y0295*
X00502Y0295*
X00502Y0295*
X00502Y0295*
X00501Y02951*
X00501Y02951*
X00501Y02951*
X00501Y02951*
X00501Y02952*
X00501Y02952*
X005Y02953*
X005Y02953*
X005Y02954*
X005Y02954*
X005Y02955*
X005Y02955*
X005Y02956*
X005Y02957*
Y02957*
X005Y02958*
Y02958*
X005Y02958*
X005Y02959*
X005Y02959*
X005Y0296*
X005Y02961*
X00501Y02962*
X00501Y02963*
X00501Y02964*
X00501Y02964*
X00501Y02964*
X00501Y02964*
X00501Y02964*
X00502Y02964*
X00502Y02964*
X00502Y02965*
X00502Y02965*
X00503Y02965*
X00503Y02966*
X00504Y02966*
X00505Y02967*
X00506Y02967*
X00506*
X00506Y02967*
X00506Y02968*
X00506Y02968*
X00507Y02968*
X00507Y02968*
X00508Y02968*
X00508Y02968*
X00508Y02968*
X00509Y02968*
X0051Y02968*
X00511Y02969*
X00513Y02969*
X00513*
X00513*
X00513*
X00513Y02969*
G37*
G36*
X00508Y02944D02*
X00508D01*
X00508Y02944*
X00509Y02943*
X00509Y02943*
X0051Y02943*
X00511Y02943*
X00511Y02942*
X00511*
X00511Y02942*
X00512Y02942*
X00512Y02942*
X00512Y02941*
X00513Y02941*
X00513Y0294*
X00513Y0294*
X00514Y02939*
Y02939*
X00514Y02939*
X00514Y02939*
X00514Y02939*
X00514Y02939*
X00514Y0294*
X00514Y0294*
X00515Y02941*
X00515Y02941*
X00516Y02942*
X00516Y02942*
X00516Y02942*
X00516Y02942*
X00516Y02942*
X00517Y02942*
X00517Y02942*
X00518Y02943*
X00519Y02943*
X00519*
X00519*
X00519*
X00519Y02943*
X00519Y02943*
X0052Y02943*
X0052Y02942*
X00521Y02942*
X00522Y02942*
X00522Y02942*
X00523Y02941*
X00523Y02941*
X00523Y02941*
X00523Y02941*
X00523Y02941*
X00524Y0294*
X00524Y0294*
X00524Y0294*
X00524Y0294*
X00524Y0294*
X00524Y02939*
X00524Y02939*
X00525Y02939*
X00525Y02938*
X00525Y02938*
X00525Y02937*
X00525Y02936*
X00525Y02935*
Y02935*
X00525Y02935*
X00525Y02935*
X00525Y02934*
X00525Y02934*
X00525Y02934*
X00525Y02933*
X00524Y02932*
X00524Y02931*
X00524Y02931*
X00524Y0293*
X00523Y0293*
X00523Y0293*
X00523Y0293*
X00523Y0293*
X00523Y0293*
X00523Y0293*
X00523Y02929*
X00522Y02929*
X00521Y02929*
X00521Y02928*
X0052Y02928*
X00519Y02928*
X00519Y02928*
X00519*
X00519*
X00518*
X00518Y02928*
X00518Y02928*
X00517Y02928*
X00517Y02928*
X00516Y02929*
X00516Y02929*
X00515Y02929*
X00515Y02929*
X00515Y02929*
X00515Y0293*
X00515Y0293*
X00514Y02931*
X00514Y02931*
X00514Y02932*
Y02932*
X00514Y02932*
X00513Y02932*
X00513Y02931*
X00513Y02931*
X00513Y0293*
X00513Y0293*
X00512Y02929*
X00512Y02929*
X00511Y02928*
X00511*
X00511Y02928*
X00511Y02928*
X0051Y02928*
X0051Y02928*
X00509Y02927*
X00509Y02927*
X00508Y02927*
X00507Y02927*
X00507*
X00507*
X00507*
X00507Y02927*
X00506Y02927*
X00506Y02927*
X00506Y02927*
X00505Y02927*
X00504Y02928*
X00504Y02928*
X00503Y02928*
X00503Y02928*
X00503Y02929*
X00502Y02929*
X00502Y02929*
X00502Y02929*
X00502Y02929*
X00501Y0293*
X00501Y0293*
X00501Y0293*
X00501Y0293*
X00501Y02931*
X00501Y02931*
X005Y02931*
X005Y02932*
X005Y02932*
X005Y02933*
X005Y02933*
X005Y02934*
X005Y02935*
X005Y02935*
Y02936*
X005Y02936*
X005Y02936*
X005Y02937*
X005Y02937*
X005Y02937*
X005Y02938*
X005Y02939*
X005Y02939*
X00501Y0294*
X00501Y0294*
X00501Y02941*
X00502Y02941*
X00502Y02941*
X00502Y02941*
X00502Y02942*
X00502Y02942*
X00502Y02942*
X00503Y02942*
X00503Y02942*
X00503Y02943*
X00504Y02943*
X00504Y02943*
X00505Y02943*
X00505Y02943*
X00506Y02944*
X00507Y02944*
X00507Y02944*
X00507*
X00507*
X00507*
X00508Y02944*
G37*
G36*
X02515Y00636D02*
X02501D01*
X02501*
X025*
X025*
X025*
X025Y00636*
X02499*
X02499Y00636*
X02498Y00636*
X02497Y00636*
X02496Y00636*
X02496Y00636*
X02496Y00636*
X02496Y00636*
X02495Y00635*
X02495Y00635*
X02495Y00635*
X02494Y00635*
X02494Y00634*
X02494Y00634*
X02493Y00633*
X02493Y00633*
X02493Y00633*
X02493Y00633*
X02493Y00632*
X02493Y00632*
X02493Y00631*
X02493Y00631*
X02493Y0063*
Y00629*
X02493Y00629*
Y00629*
X02493Y00629*
X02493Y00628*
X02493Y00627*
X02493Y00626*
X02494Y00625*
X02494Y00625*
X02494Y00625*
X02494Y00625*
X02494Y00625*
X02494Y00624*
X02494Y00624*
X02495Y00624*
X02495Y00624*
X02495Y00624*
X02496Y00624*
X02496Y00624*
X02496Y00624*
X02497Y00623*
X02498Y00623*
X02498Y00623*
X02499Y00623*
X025Y00623*
X02501*
X02515*
Y0062*
X02501*
X02501*
X025*
X025*
X025*
X025Y0062*
X02499*
X02499Y0062*
X02498Y0062*
X02497Y0062*
X02496Y0062*
X02495Y0062*
X02495Y0062*
X02494Y00621*
X02494*
X02494Y00621*
X02494Y00621*
X02494Y00621*
X02494Y00621*
X02493Y00621*
X02493Y00622*
X02492Y00622*
X02491Y00623*
X02491Y00624*
Y00624*
X02491Y00624*
X02491Y00624*
X02491Y00624*
X02491Y00624*
X0249Y00625*
X0249Y00625*
X0249Y00625*
X0249Y00626*
X0249Y00626*
X0249Y00627*
X0249Y00627*
X0249Y00628*
X0249Y00628*
X0249Y0063*
Y0063*
X0249Y0063*
Y0063*
X0249Y00631*
X0249Y00631*
X0249Y00632*
X0249Y00633*
X0249Y00633*
X0249Y00634*
X02491Y00635*
Y00635*
X02491Y00635*
X02491Y00636*
X02491Y00636*
X02491Y00636*
X02492Y00637*
X02492Y00637*
X02493Y00638*
X02493Y00638*
X02494Y00639*
X02494*
X02494Y00639*
X02494Y00639*
X02495Y00639*
X02495Y00639*
X02495Y00639*
X02496Y00639*
X02496Y00639*
X02496Y00639*
X02497Y00639*
X02497Y00639*
X02498Y00639*
X02498Y00639*
X02499Y00639*
X025Y0064*
X02501*
X02515*
Y00636*
G37*
G36*
X02497Y00612D02*
X02497D01*
X02497Y00612*
X02497Y00612*
X02497Y00612*
X02496Y00612*
X02496Y00612*
X02496Y00612*
X02495Y00612*
X02494Y00611*
X02494Y00611*
X02493Y0061*
X02493Y0061*
X02493Y0061*
X02493Y0061*
X02493Y0061*
X02492Y00609*
X02492Y00609*
X02492Y00608*
X02492Y00607*
Y00607*
X02492Y00607*
X02492Y00607*
X02492Y00606*
X02492Y00606*
X02493Y00605*
X02493Y00604*
X02494Y00604*
X02494Y00604*
X02494Y00603*
X02494Y00603*
X02495Y00603*
X02495Y00603*
X02496Y00602*
X02496Y00602*
X02497Y00602*
X02497*
X02497*
X02498*
X02498Y00602*
X02498Y00602*
X02499Y00602*
X02499Y00602*
X025Y00603*
X025Y00603*
X02501Y00604*
X02501Y00604*
X02501Y00604*
X02501Y00604*
X02502Y00605*
X02502Y00605*
X02502Y00606*
X02502Y00606*
X02502Y00607*
Y00607*
X02502Y00608*
X02502Y00608*
X02502Y00608*
X02502Y00609*
X02502Y00609*
X02505Y00609*
Y00609*
X02505Y00609*
Y00608*
X02505Y00608*
X02505Y00607*
X02505Y00607*
X02505Y00606*
X02505Y00606*
X02506Y00605*
Y00605*
X02506Y00605*
X02506Y00605*
X02506Y00604*
X02506Y00604*
X02507Y00604*
X02507Y00604*
X02508Y00603*
X02508Y00603*
X02509*
X02509*
X02509*
X02509*
X02509Y00603*
X0251Y00603*
X0251Y00604*
X02511Y00604*
X02511Y00604*
X02512Y00604*
X02512Y00604*
X02512Y00605*
X02512Y00605*
X02512Y00605*
X02512Y00606*
X02513Y00606*
X02513Y00607*
X02513Y00607*
Y00608*
X02513Y00608*
X02513Y00608*
X02512Y00609*
X02512Y00609*
X02512Y0061*
X02512Y0061*
X02512Y0061*
X02511Y00611*
X02511Y00611*
X02511Y00611*
X0251Y00611*
X0251Y00612*
X02509Y00612*
X02508Y00612*
X02509Y00615*
X02509*
X02509Y00615*
X02509Y00615*
X02509Y00615*
X02509Y00615*
X0251Y00615*
X0251Y00615*
X02511Y00614*
X02512Y00614*
X02513Y00613*
X02514Y00612*
X02514Y00612*
X02514Y00612*
X02514Y00612*
X02514Y00612*
X02514Y00612*
X02514Y00612*
X02514Y00611*
X02514Y00611*
X02515Y0061*
X02515Y0061*
X02515Y00609*
X02515Y00608*
Y00607*
X02515Y00607*
X02515Y00606*
X02515Y00606*
X02515Y00605*
X02515Y00604*
X02514Y00604*
Y00604*
X02514Y00604*
X02514Y00603*
X02514Y00603*
X02514Y00603*
X02513Y00602*
X02513Y00602*
X02512Y00601*
X02512Y00601*
X02512Y00601*
X02512Y00601*
X02511Y00601*
X02511Y00601*
X0251Y006*
X0251Y006*
X02509Y006*
X02509Y006*
X02509*
X02508*
X02508Y006*
X02508Y006*
X02507Y006*
X02507Y00601*
X02506Y00601*
X02506Y00601*
X02506Y00601*
X02505Y00601*
X02505Y00601*
X02505Y00602*
X02505Y00602*
X02504Y00602*
X02504Y00603*
X02504Y00604*
Y00604*
X02504Y00604*
X02504Y00603*
X02503Y00603*
X02503Y00603*
X02503Y00602*
X02503Y00602*
X02502Y00601*
X02502Y00601*
X02501Y006*
X02501Y006*
X02501Y006*
X02501Y006*
X025Y006*
X025Y00599*
X02499Y00599*
X02498Y00599*
X02497Y00599*
X02497*
X02497*
X02497*
X02497Y00599*
X02497Y00599*
X02496Y00599*
X02496Y00599*
X02495Y00599*
X02495Y00599*
X02494Y006*
X02494Y006*
X02493Y006*
X02493Y00601*
X02492Y00601*
X02492Y00601*
X02492Y00601*
X02492Y00601*
X02492Y00602*
X02491Y00602*
X02491Y00602*
X02491Y00602*
X02491Y00603*
X02491Y00603*
X0249Y00603*
X0249Y00604*
X0249Y00604*
X0249Y00605*
X0249Y00605*
X0249Y00606*
X0249Y00607*
X0249Y00607*
Y00608*
X0249Y00608*
X0249Y00608*
X0249Y00609*
X0249Y00609*
X0249Y00609*
X0249Y0061*
X0249Y00611*
X02491Y00612*
X02491Y00612*
X02491Y00612*
X02491Y00613*
X02492Y00613*
X02492Y00613*
X02492Y00613*
X02492Y00613*
X02492Y00613*
X02492Y00614*
X02493Y00614*
X02493Y00614*
X02493Y00614*
X02494Y00614*
X02494Y00615*
X02495Y00615*
X02496Y00615*
X02497Y00615*
X02497Y00612*
G37*
G36*
X02558Y00929D02*
X02559D01*
X02559Y00929*
X0256Y00929*
X0256Y00929*
X02561Y00929*
X02562Y00929*
X02563Y00928*
X02564Y00928*
X02564Y00928*
X02564Y00928*
X02564Y00928*
X02565Y00928*
X02565Y00928*
X02565Y00927*
X02565Y00927*
X02565Y00927*
X02566Y00927*
X02566Y00926*
X02566Y00926*
X02567Y00925*
X02568Y00924*
X02568Y00923*
Y00923*
X02568Y00923*
X02568Y00923*
X02568Y00923*
X02568Y00922*
X02569Y00922*
X02569Y00921*
X02569Y00921*
X02569Y00921*
X02569Y0092*
X02569Y00919*
X02569Y00918*
X0257Y00916*
Y00916*
Y00916*
Y00916*
X02569Y00916*
Y00915*
X02569Y00915*
X02569Y00914*
X02569Y00914*
X02569Y00913*
X02569Y00912*
X02569Y00911*
X02568Y00909*
X02568Y00909*
X02568Y00909*
X02568Y00909*
X02568Y00909*
X02568Y00909*
X02567Y00908*
X02567Y00908*
X02566Y00907*
X02566Y00906*
X02565Y00906*
X02564Y00905*
X02564Y00905*
X02564Y00905*
X02563Y00905*
X02563Y00905*
X02563Y00905*
X02563Y00904*
X02562Y00904*
X02562Y00904*
X02561Y00904*
X02561Y00904*
X0256Y00904*
X02559Y00904*
X02558Y00903*
X02557*
X02557Y00903*
X02557Y00904*
X02556Y00904*
X02556Y00904*
X02555Y00904*
X02554Y00904*
X02553Y00904*
X02553Y00904*
X02552Y00905*
X02552Y00905*
X02551Y00905*
X02551Y00905*
X02551Y00905*
X02551Y00906*
X02551Y00906*
X02551Y00906*
X0255Y00906*
X0255Y00906*
X0255Y00907*
X0255Y00907*
X02549Y00908*
X02549Y00908*
X02549Y00908*
X02548Y00909*
X02548Y0091*
X02548Y0091*
X02548Y00911*
X02551Y00912*
Y00912*
X02551Y00911*
X02551Y00911*
X02551Y00911*
X02551Y00911*
X02551Y00911*
X02552Y0091*
X02552Y00909*
X02552Y00909*
X02553Y00908*
X02554Y00908*
X02554Y00907*
X02554Y00907*
X02554Y00907*
X02555Y00907*
X02555Y00907*
X02556Y00906*
X02557Y00906*
X02558Y00906*
X02558*
X02558Y00906*
X02558*
X02559Y00906*
X02559Y00906*
X0256Y00907*
X02561Y00907*
X02562Y00907*
X02563Y00908*
X02563*
X02563Y00908*
X02563Y00908*
X02563Y00908*
X02564Y00909*
X02564Y00909*
X02565Y0091*
X02565Y00911*
X02565Y00911*
Y00911*
X02565Y00912*
X02565Y00912*
X02565Y00912*
X02566Y00912*
X02566Y00912*
X02566Y00913*
X02566Y00914*
X02566Y00914*
X02566Y00915*
X02566Y00916*
Y00916*
Y00916*
Y00917*
Y00917*
X02566Y00917*
Y00917*
X02566Y00918*
X02566Y00918*
X02566Y00919*
X02566Y0092*
X02565Y00921*
X02565Y00922*
Y00922*
X02565Y00922*
X02565Y00922*
X02565Y00922*
X02565Y00923*
X02564Y00923*
X02564Y00924*
X02564Y00924*
X02563Y00925*
X02562Y00926*
X02562*
X02562Y00926*
X02562Y00926*
X02562Y00926*
X02562Y00926*
X02561Y00926*
X02561Y00926*
X0256Y00926*
X0256Y00926*
X02559Y00927*
X02558Y00927*
X02558*
X02557Y00927*
X02557*
X02557Y00927*
X02556Y00926*
X02556Y00926*
X02555Y00926*
X02554Y00926*
X02554Y00925*
X02553Y00925*
X02553Y00925*
X02553Y00925*
X02553Y00925*
X02553Y00925*
X02553Y00925*
X02553Y00924*
X02552Y00924*
X02552Y00924*
X02552Y00924*
X02552Y00923*
X02551Y00923*
X02551Y00922*
X02551Y00922*
X02551Y00921*
X02551Y00921*
X02551Y0092*
X02547Y00921*
Y00921*
X02547Y00921*
X02547Y00921*
X02547Y00922*
X02548Y00922*
X02548Y00923*
X02548Y00923*
X02548Y00923*
X02549Y00924*
X02549Y00925*
X0255Y00926*
X0255Y00926*
X02551Y00927*
X02551Y00927*
X02551Y00927*
X02551Y00927*
X02551Y00928*
X02551Y00928*
X02552Y00928*
X02552Y00928*
X02552Y00928*
X02553Y00928*
X02553Y00929*
X02554Y00929*
X02554Y00929*
X02555Y00929*
X02556Y00929*
X02556Y00929*
X02557Y00929*
X02558Y0093*
X02558*
X02558Y00929*
G37*
G36*
X02534Y00923D02*
X02545D01*
Y0092*
X02534Y00904*
X02531*
Y0092*
X02528*
Y00923*
X02531*
Y00929*
X02534*
Y00923*
G37*
G36*
X02432Y00376D02*
X02432Y00375D01*
X02433Y00375*
X02433Y00375*
X02434Y00375*
X02435Y00375*
X02436Y00375*
X02436Y00375*
X02437Y00374*
X02437Y00374*
X02438Y00374*
X02438Y00374*
X02438Y00374*
X02438Y00373*
X02438Y00373*
X02438Y00373*
X02439Y00373*
X02439Y00373*
X02439Y00372*
X02439Y00372*
X0244Y00371*
X0244Y00371*
X0244Y00371*
X02441Y0037*
X02441Y00369*
X02441Y00369*
X02441Y00368*
X02438Y00367*
Y00367*
X02438Y00368*
X02438Y00368*
X02438Y00368*
X02438Y00368*
X02438Y00368*
X02437Y00369*
X02437Y0037*
X02437Y0037*
X02436Y00371*
X02435Y00371*
X02435Y00372*
X02435Y00372*
X02435Y00372*
X02434Y00372*
X02434Y00372*
X02433Y00373*
X02432Y00373*
X02431Y00373*
X02431*
X02431Y00373*
X02431*
X0243Y00373*
X0243Y00373*
X02429Y00372*
X02428Y00372*
X02427Y00372*
X02426Y00371*
X02426*
X02426Y00371*
X02426Y00371*
X02426Y00371*
X02425Y0037*
X02425Y0037*
X02424Y00369*
X02424Y00368*
X02424Y00368*
Y00368*
X02424Y00367*
X02424Y00367*
X02424Y00367*
X02424Y00367*
X02423Y00367*
X02423Y00366*
X02423Y00365*
X02423Y00365*
X02423Y00364*
X02423Y00363*
Y00363*
Y00363*
Y00362*
Y00362*
X02423Y00362*
Y00362*
X02423Y00361*
X02423Y00361*
X02423Y0036*
X02423Y00359*
X02424Y00358*
X02424Y00357*
Y00357*
X02424Y00357*
X02424Y00357*
X02424Y00357*
X02424Y00356*
X02425Y00356*
X02425Y00355*
X02425Y00355*
X02426Y00354*
X02427Y00354*
X02427*
X02427Y00353*
X02427Y00353*
X02427Y00353*
X02427Y00353*
X02428Y00353*
X02428Y00353*
X02429Y00353*
X02429Y00353*
X0243Y00352*
X02431Y00352*
X02431*
X02432Y00352*
X02432*
X02432Y00352*
X02433Y00353*
X02433Y00353*
X02434Y00353*
X02435Y00353*
X02435Y00354*
X02436Y00354*
X02436Y00354*
X02436Y00354*
X02436Y00354*
X02436Y00354*
X02436Y00354*
X02436Y00355*
X02437Y00355*
X02437Y00355*
X02437Y00355*
X02437Y00356*
X02438Y00356*
X02438Y00357*
X02438Y00357*
X02438Y00358*
X02438Y00358*
X02438Y00359*
X02442Y00358*
Y00358*
X02442Y00358*
X02442Y00358*
X02442Y00357*
X02441Y00357*
X02441Y00356*
X02441Y00356*
X02441Y00356*
X0244Y00355*
X0244Y00354*
X02439Y00353*
X02439Y00353*
X02439Y00352*
X02438Y00352*
X02438Y00352*
X02438Y00352*
X02438Y00351*
X02438Y00351*
X02437Y00351*
X02437Y00351*
X02437Y00351*
X02436Y00351*
X02436Y0035*
X02435Y0035*
X02435Y0035*
X02434Y0035*
X02433Y0035*
X02433Y0035*
X02432Y0035*
X02431Y0035*
X02431*
X02431Y0035*
X0243*
X0243Y0035*
X02429Y0035*
X02429Y0035*
X02428Y0035*
X02427Y0035*
X02426Y00351*
X02425Y00351*
X02425Y00351*
X02425Y00351*
X02425Y00351*
X02424Y00351*
X02424Y00351*
X02424Y00352*
X02424Y00352*
X02424Y00352*
X02423Y00352*
X02423Y00353*
X02423Y00353*
X02422Y00354*
X02421Y00355*
X02421Y00356*
Y00356*
X02421Y00356*
X02421Y00356*
X02421Y00356*
X02421Y00357*
X0242Y00357*
X0242Y00358*
X0242Y00358*
X0242Y00358*
X0242Y00359*
X0242Y0036*
X0242Y00361*
X0242Y00363*
Y00363*
Y00363*
Y00363*
X0242Y00363*
Y00364*
X0242Y00364*
X0242Y00365*
X0242Y00365*
X0242Y00366*
X0242Y00367*
X0242Y00368*
X02421Y0037*
X02421Y0037*
X02421Y0037*
X02421Y0037*
X02421Y0037*
X02421Y0037*
X02422Y00371*
X02422Y00371*
X02423Y00372*
X02423Y00373*
X02424Y00373*
X02425Y00374*
X02425Y00374*
X02425Y00374*
X02426Y00374*
X02426Y00374*
X02426Y00374*
X02426Y00375*
X02427Y00375*
X02427Y00375*
X02428Y00375*
X02428Y00375*
X02429Y00375*
X0243Y00375*
X02431Y00376*
X02432*
X02432Y00376*
G37*
G36*
X0246Y00372D02*
X0245D01*
X02449Y00365*
X02449Y00365*
X02449Y00365*
X02449Y00365*
X02449Y00365*
X02449Y00365*
X0245Y00366*
X0245Y00366*
X02451Y00366*
X02452Y00366*
X02453Y00367*
X02453Y00367*
X02454*
X02454Y00367*
X02454Y00367*
X02455Y00367*
X02455Y00366*
X02455Y00366*
X02456Y00366*
X02457Y00366*
X02457Y00366*
X02458Y00365*
X02458Y00365*
X02459Y00365*
X02459Y00364*
X02459Y00364*
X02459Y00364*
X02459Y00364*
X02459Y00364*
X0246Y00364*
X0246Y00363*
X0246Y00363*
X0246Y00363*
X0246Y00362*
X02461Y00362*
X02461Y00361*
X02461Y00361*
X02461Y0036*
X02461Y0036*
X02461Y00359*
X02461Y00358*
Y00358*
Y00358*
Y00358*
X02461Y00358*
X02461Y00358*
X02461Y00357*
X02461Y00357*
X02461Y00356*
X02461Y00356*
X0246Y00355*
X0246Y00354*
X0246Y00354*
X0246Y00353*
X02459Y00353*
X02459Y00353*
X02459Y00352*
X02459Y00352*
X02459Y00352*
X02459Y00352*
X02458Y00352*
X02458Y00351*
X02458Y00351*
X02457Y00351*
X02457Y0035*
X02456Y0035*
X02456Y0035*
X02455Y0035*
X02454Y0035*
X02453Y0035*
X02453Y0035*
X02452*
X02452Y0035*
X02452Y0035*
X02451Y0035*
X02451Y0035*
X02451Y0035*
X0245Y0035*
X02449Y0035*
X02448Y00351*
X02448Y00351*
X02447Y00351*
X02447Y00351*
X02447Y00351*
X02447Y00351*
X02447Y00352*
X02447Y00352*
X02447Y00352*
X02446Y00352*
X02446Y00352*
X02446Y00353*
X02446Y00353*
X02446Y00354*
X02445Y00354*
X02445Y00355*
X02445Y00356*
X02445Y00357*
X02448Y00357*
Y00357*
Y00357*
X02448Y00357*
X02448Y00356*
X02448Y00356*
X02448Y00355*
X02448Y00355*
X02449Y00354*
X02449Y00354*
X02449Y00353*
X0245Y00353*
X0245Y00353*
X0245Y00353*
X0245Y00353*
X02451Y00352*
X02451Y00352*
X02452Y00352*
X02453Y00352*
X02453*
X02453Y00352*
X02454Y00352*
X02454Y00352*
X02455Y00352*
X02455Y00353*
X02456Y00353*
X02456Y00353*
X02456Y00354*
X02457Y00354*
X02457Y00354*
X02457Y00354*
X02457Y00354*
X02457Y00354*
X02457Y00355*
X02458Y00356*
X02458Y00356*
X02458Y00357*
X02458Y00358*
Y00358*
Y00358*
Y00358*
Y00358*
X02458Y00359*
Y00359*
X02458Y00359*
X02458Y0036*
X02458Y0036*
X02457Y00361*
X02457Y00362*
X02457Y00362*
Y00362*
X02456Y00362*
X02456Y00363*
X02456Y00363*
X02456Y00363*
X02455Y00363*
X02454Y00364*
X02454Y00364*
X02453Y00364*
X02452*
X02452Y00364*
X02452Y00364*
X02451Y00364*
X02451Y00364*
X0245Y00363*
X0245Y00363*
X0245Y00363*
X0245Y00363*
X0245Y00363*
X02449Y00363*
X02449Y00362*
X02449Y00362*
X02448Y00362*
X02448Y00361*
X02445Y00362*
X02448Y00375*
X0246*
Y00372*
G37*
G36*
X01705Y00578D02*
X01705Y00578D01*
Y00577*
X01705Y00576*
X01705Y00576*
X01705Y00575*
X01705Y00574*
X01705Y00574*
X01704Y00573*
Y00573*
X01704Y00573*
X01704Y00573*
X01704Y00573*
X01704Y00572*
X01704Y00572*
X01703Y00571*
X01703Y00571*
X01702Y0057*
X01702*
X01702Y0057*
X01702Y0057*
X01701Y0057*
X01701Y0057*
X017Y0057*
X017Y0057*
X01699Y00569*
X01698Y00569*
X01698*
X01698*
X01698*
X01698Y00569*
X01698*
X01697Y00569*
X01697Y0057*
X01696Y0057*
X01695Y0057*
X01694Y00571*
X01694Y00571*
X01694Y00571*
X01694Y00571*
X01694Y00571*
X01694Y00571*
X01693Y00571*
X01693Y00572*
X01693Y00572*
X01693Y00572*
X01693Y00572*
X01693Y00573*
X01692Y00573*
X01692Y00574*
X01692Y00574*
X01692Y00575*
X01692Y00575*
X01692Y00576*
X01691Y00576*
X01691Y00576*
X01691Y00576*
X01691Y00576*
X01691Y00576*
X01691Y00575*
X0169Y00575*
X0169Y00574*
X0169Y00574*
X0169Y00574*
X0169Y00574*
X01689Y00574*
X01689Y00573*
X01688Y00573*
X01688Y00572*
X01687Y00572*
X0168Y00567*
Y00572*
X01685Y00575*
X01685*
X01685Y00575*
X01685Y00575*
X01686Y00575*
X01686Y00575*
X01686Y00576*
X01687Y00576*
X01688Y00576*
X01688Y00577*
X01689Y00577*
X01689Y00577*
X01689Y00577*
X01689Y00578*
X01689Y00578*
X0169Y00578*
X0169Y00579*
X0169Y00579*
X0169Y00579*
X0169Y00579*
X0169Y00579*
X01691Y00579*
X01691Y0058*
X01691Y0058*
X01691Y0058*
Y00581*
X01691Y00581*
Y00581*
X01691Y00581*
X01691Y00581*
Y00581*
X01691Y00582*
Y00586*
X0168*
Y0059*
X01705*
Y00578*
G37*
G36*
X01687Y00562D02*
X01687D01*
X01687Y00562*
X01687Y00562*
X01687Y00562*
X01686Y00562*
X01686Y00562*
X01686Y00562*
X01685Y00562*
X01684Y00561*
X01684Y00561*
X01683Y0056*
X01683Y0056*
X01683Y0056*
X01683Y0056*
X01683Y0056*
X01682Y00559*
X01682Y00559*
X01682Y00558*
X01682Y00557*
Y00557*
X01682Y00557*
X01682Y00557*
X01682Y00556*
X01682Y00556*
X01683Y00555*
X01683Y00554*
X01684Y00554*
X01684Y00554*
X01684Y00553*
X01684Y00553*
X01685Y00553*
X01685Y00553*
X01686Y00552*
X01686Y00552*
X01687Y00552*
X01687*
X01687*
X01688*
X01688Y00552*
X01688Y00552*
X01689Y00552*
X01689Y00552*
X0169Y00553*
X0169Y00553*
X01691Y00554*
X01691Y00554*
X01691Y00554*
X01691Y00554*
X01692Y00555*
X01692Y00555*
X01692Y00556*
X01692Y00556*
X01692Y00557*
Y00557*
X01692Y00558*
X01692Y00558*
X01692Y00558*
X01692Y00559*
X01692Y00559*
X01695Y00559*
Y00559*
X01695Y00559*
Y00558*
X01695Y00558*
X01695Y00557*
X01695Y00557*
X01695Y00556*
X01695Y00556*
X01696Y00555*
Y00555*
X01696Y00555*
X01696Y00555*
X01696Y00554*
X01696Y00554*
X01697Y00554*
X01697Y00554*
X01698Y00553*
X01698Y00553*
X01699*
X01699*
X01699*
X01699*
X01699Y00553*
X017Y00553*
X017Y00554*
X01701Y00554*
X01701Y00554*
X01702Y00554*
X01702Y00554*
X01702Y00555*
X01702Y00555*
X01702Y00555*
X01702Y00556*
X01703Y00556*
X01703Y00557*
X01703Y00557*
Y00558*
X01703Y00558*
X01703Y00558*
X01702Y00559*
X01702Y00559*
X01702Y0056*
X01702Y0056*
X01702Y0056*
X01701Y00561*
X01701Y00561*
X01701Y00561*
X017Y00561*
X017Y00562*
X01699Y00562*
X01698Y00562*
X01699Y00565*
X01699*
X01699Y00565*
X01699Y00565*
X01699Y00565*
X01699Y00565*
X017Y00565*
X017Y00565*
X01701Y00564*
X01702Y00564*
X01703Y00563*
X01704Y00562*
X01704Y00562*
X01704Y00562*
X01704Y00562*
X01704Y00562*
X01704Y00562*
X01704Y00562*
X01704Y00561*
X01704Y00561*
X01705Y0056*
X01705Y0056*
X01705Y00559*
X01705Y00558*
Y00557*
X01705Y00557*
X01705Y00556*
X01705Y00556*
X01705Y00555*
X01705Y00554*
X01704Y00554*
Y00554*
X01704Y00554*
X01704Y00553*
X01704Y00553*
X01704Y00553*
X01703Y00552*
X01703Y00552*
X01702Y00551*
X01702Y00551*
X01702Y00551*
X01702Y00551*
X01701Y00551*
X01701Y00551*
X017Y0055*
X017Y0055*
X01699Y0055*
X01699Y0055*
X01699*
X01698*
X01698Y0055*
X01698Y0055*
X01697Y0055*
X01697Y00551*
X01696Y00551*
X01696Y00551*
X01696Y00551*
X01695Y00551*
X01695Y00551*
X01695Y00552*
X01695Y00552*
X01694Y00552*
X01694Y00553*
X01694Y00554*
Y00554*
X01694Y00554*
X01694Y00553*
X01693Y00553*
X01693Y00553*
X01693Y00552*
X01693Y00552*
X01692Y00551*
X01692Y00551*
X01691Y0055*
X01691Y0055*
X01691Y0055*
X01691Y0055*
X0169Y0055*
X0169Y00549*
X01689Y00549*
X01688Y00549*
X01687Y00549*
X01687*
X01687*
X01687*
X01687Y00549*
X01687Y00549*
X01686Y00549*
X01686Y00549*
X01685Y00549*
X01685Y00549*
X01684Y0055*
X01684Y0055*
X01683Y0055*
X01683Y00551*
X01682Y00551*
X01682Y00551*
X01682Y00551*
X01682Y00551*
X01682Y00552*
X01681Y00552*
X01681Y00552*
X01681Y00552*
X01681Y00553*
X01681Y00553*
X0168Y00553*
X0168Y00554*
X0168Y00554*
X0168Y00555*
X0168Y00555*
X0168Y00556*
X0168Y00557*
X0168Y00557*
Y00558*
X0168Y00558*
X0168Y00558*
X0168Y00559*
X0168Y00559*
X0168Y00559*
X0168Y0056*
X0168Y00561*
X01681Y00562*
X01681Y00562*
X01681Y00562*
X01681Y00563*
X01682Y00563*
X01682Y00563*
X01682Y00563*
X01682Y00563*
X01682Y00563*
X01682Y00564*
X01683Y00564*
X01683Y00564*
X01683Y00564*
X01684Y00564*
X01684Y00565*
X01685Y00565*
X01686Y00565*
X01687Y00565*
X01687Y00562*
G37*
G36*
X02507Y01088D02*
X0251D01*
Y01086*
X02507*
Y0108*
X02504*
Y01086*
X02493*
Y01088*
X02504Y01105*
X02507*
Y01088*
G37*
G36*
X02481Y01105D02*
X02482D01*
X02483Y01105*
X02483Y01105*
X02484Y01104*
X02485Y01104*
X02485Y01104*
X02486Y01104*
X02486*
X02486Y01104*
X02486Y01104*
X02486Y01104*
X02487Y01103*
X02487Y01103*
X02488Y01103*
X02488Y01102*
X02489Y01102*
Y01102*
X02489Y01102*
X02489Y01101*
X02489Y01101*
X02489Y011*
X02489Y011*
X02489Y01099*
X0249Y01099*
X0249Y01098*
Y01098*
Y01098*
Y01098*
X0249Y01097*
Y01097*
X0249Y01097*
X02489Y01096*
X02489Y01096*
X02489Y01095*
X02488Y01094*
X02488Y01094*
X02488Y01093*
X02488Y01093*
X02488Y01093*
X02488Y01093*
X02488Y01093*
X02487Y01093*
X02487Y01093*
X02487Y01092*
X02487Y01092*
X02486Y01092*
X02486Y01092*
X02485Y01092*
X02485Y01092*
X02484Y01091*
X02484Y01091*
X02483Y01091*
X02483Y01091*
X02483Y01091*
X02483Y01091*
X02483Y01091*
X02483Y01091*
X02484Y0109*
X02484Y0109*
X02485Y0109*
X02485Y0109*
X02485Y01089*
X02485Y01089*
X02485Y01089*
X02486Y01088*
X02486Y01088*
X02487Y01087*
X02487Y01086*
X02492Y0108*
X02487*
X02484Y01085*
Y01085*
X02484Y01085*
X02484Y01085*
X02484Y01085*
X02484Y01086*
X02483Y01086*
X02483Y01087*
X02483Y01087*
X02482Y01088*
X02482Y01088*
X02482Y01088*
X02482Y01088*
X02481Y01089*
X02481Y01089*
X02481Y01089*
X0248Y0109*
X0248Y0109*
X0248Y0109*
X0248Y0109*
X0248Y0109*
X0248Y0109*
X02479Y0109*
X02479Y0109*
X02479Y01091*
X02478*
X02478Y01091*
X02478*
X02478Y01091*
X02478Y01091*
X02478*
X02477Y01091*
X02473*
Y0108*
X0247*
Y01105*
X02481*
X02481Y01105*
G37*
G36*
X02386Y00209D02*
X02386D01*
X02387Y00209*
X02387Y00209*
X02388Y00209*
X02388Y00209*
X02389Y00209*
X02389Y00209*
X0239Y00209*
X0239Y00208*
X02391Y00208*
X02391Y00208*
X02392Y00207*
X02392Y00207*
X02392Y00207*
X02392Y00207*
X02392Y00206*
X02392Y00206*
X02393Y00206*
X02393Y00205*
X02393Y00205*
X02393Y00204*
X02394Y00204*
X02394Y00203*
X02394Y00202*
X02394Y00202*
X02394Y00201*
X02394Y002*
X02394Y00198*
X02395Y00197*
Y00197*
Y00197*
Y00197*
Y00197*
X02394Y00197*
Y00196*
X02394Y00196*
X02394Y00195*
X02394Y00194*
X02394Y00193*
X02394Y00192*
X02394Y00191*
X02394Y00191*
X02393Y0019*
X02393Y00189*
X02393Y00188*
X02392Y00187*
X02392Y00187*
X02392Y00187*
X02392Y00187*
X02392Y00186*
X02391Y00186*
X02391Y00186*
X02391Y00186*
X02391Y00185*
X0239Y00185*
X0239Y00185*
X02389Y00185*
X02389Y00184*
X02388Y00184*
X02388Y00184*
X02387Y00184*
X02386Y00184*
X02385Y00184*
X02385*
X02385Y00184*
X02385*
X02384Y00184*
X02384Y00184*
X02383Y00184*
X02382Y00184*
X02381Y00185*
X02381Y00185*
X02381Y00185*
X02381Y00185*
X02381Y00186*
X0238Y00186*
X0238Y00186*
X0238Y00186*
X0238Y00186*
X0238Y00187*
X02379Y00187*
X02379Y00188*
X02378Y00189*
X02378Y0019*
X02381Y0019*
Y0019*
X02381Y0019*
X02381Y0019*
X02382Y0019*
X02382Y00189*
X02382Y00189*
X02382Y00188*
X02382Y00188*
X02383Y00188*
X02383Y00188*
X02383Y00187*
X02383Y00187*
X02383Y00187*
X02384Y00187*
X02384Y00187*
X02385Y00186*
X02386Y00186*
X02386*
X02386Y00186*
X02387Y00186*
X02387Y00187*
X02387Y00187*
X02388Y00187*
X02388Y00187*
X02388Y00187*
X02389Y00187*
X02389Y00188*
X02389Y00188*
X02389Y00188*
X0239Y00189*
X0239Y0019*
X02391Y0019*
Y0019*
X02391Y0019*
X02391Y00191*
X02391Y00191*
X02391Y00191*
X02391Y00191*
X02391Y00191*
X02391Y00192*
X02391Y00192*
X02391Y00193*
X02391Y00193*
X02391Y00194*
X02391Y00194*
X02391Y00195*
X02391Y00195*
Y00196*
X02391Y00196*
X02391Y00196*
X02391Y00196*
X02391Y00195*
X0239Y00195*
X0239Y00194*
X02389Y00194*
X02389Y00194*
X02389*
X02389Y00194*
X02388Y00193*
X02388Y00193*
X02388Y00193*
X02387Y00193*
X02387Y00193*
X02386Y00193*
X02385Y00193*
X02385*
X02385Y00193*
X02385Y00193*
X02384Y00193*
X02384Y00193*
X02384Y00193*
X02383Y00193*
X02382Y00193*
X02382Y00194*
X02381Y00194*
X02381Y00194*
X0238Y00195*
X0238Y00195*
X0238Y00195*
X0238Y00195*
X0238Y00195*
X0238Y00195*
X0238Y00196*
X02379Y00196*
X02379Y00196*
X02379Y00197*
X02379Y00197*
X02379Y00197*
X02378Y00198*
X02378Y00198*
X02378Y00199*
X02378Y002*
X02378Y002*
X02378Y00201*
Y00201*
Y00201*
Y00201*
Y00201*
X02378Y00202*
Y00202*
X02378Y00202*
X02378Y00203*
X02378Y00204*
X02379Y00205*
X02379Y00205*
Y00205*
X02379Y00205*
X02379Y00206*
X02379Y00206*
X02379Y00206*
X0238Y00206*
X0238Y00207*
X02381Y00208*
X02381Y00208*
X02382Y00208*
X02382*
X02382Y00208*
X02382Y00209*
X02382Y00209*
X02382Y00209*
X02383Y00209*
X02384Y00209*
X02384Y00209*
X02385Y00209*
X02386Y0021*
X02386*
X02386Y00209*
G37*
G36*
X02408D02*
X02409D01*
X02409Y00209*
X0241Y00209*
X0241Y00209*
X02411Y00209*
X02412Y00209*
X02413Y00208*
X02414Y00208*
X02414Y00208*
X02414Y00208*
X02414Y00208*
X02415Y00208*
X02415Y00208*
X02415Y00207*
X02415Y00207*
X02415Y00207*
X02416Y00207*
X02416Y00206*
X02416Y00206*
X02417Y00205*
X02418Y00204*
X02418Y00203*
Y00203*
X02418Y00203*
X02418Y00203*
X02418Y00203*
X02418Y00202*
X02419Y00202*
X02419Y00201*
X02419Y00201*
X02419Y00201*
X02419Y002*
X02419Y00199*
X02419Y00198*
X0242Y00196*
Y00196*
Y00196*
Y00196*
X02419Y00196*
Y00195*
X02419Y00195*
X02419Y00194*
X02419Y00194*
X02419Y00193*
X02419Y00192*
X02419Y00191*
X02418Y00189*
X02418Y00189*
X02418Y00189*
X02418Y00189*
X02418Y00189*
X02418Y00189*
X02417Y00188*
X02417Y00188*
X02416Y00187*
X02416Y00186*
X02415Y00186*
X02414Y00185*
X02414Y00185*
X02414Y00185*
X02413Y00185*
X02413Y00185*
X02413Y00185*
X02413Y00184*
X02412Y00184*
X02412Y00184*
X02411Y00184*
X02411Y00184*
X0241Y00184*
X02409Y00184*
X02408Y00183*
X02407*
X02407Y00183*
X02407Y00184*
X02406Y00184*
X02406Y00184*
X02405Y00184*
X02404Y00184*
X02403Y00184*
X02403Y00184*
X02402Y00185*
X02402Y00185*
X02401Y00185*
X02401Y00185*
X02401Y00185*
X02401Y00186*
X02401Y00186*
X02401Y00186*
X024Y00186*
X024Y00186*
X024Y00187*
X024Y00187*
X02399Y00188*
X02399Y00188*
X02399Y00188*
X02398Y00189*
X02398Y0019*
X02398Y0019*
X02398Y00191*
X02401Y00192*
Y00192*
X02401Y00191*
X02401Y00191*
X02401Y00191*
X02401Y00191*
X02401Y00191*
X02402Y0019*
X02402Y00189*
X02402Y00189*
X02403Y00188*
X02404Y00188*
X02404Y00187*
X02404Y00187*
X02404Y00187*
X02405Y00187*
X02405Y00187*
X02406Y00186*
X02407Y00186*
X02408Y00186*
X02408*
X02408Y00186*
X02408*
X02409Y00186*
X02409Y00186*
X0241Y00187*
X02411Y00187*
X02412Y00187*
X02413Y00188*
X02413*
X02413Y00188*
X02413Y00188*
X02413Y00188*
X02414Y00189*
X02414Y00189*
X02415Y0019*
X02415Y00191*
X02415Y00191*
Y00191*
X02415Y00192*
X02415Y00192*
X02415Y00192*
X02416Y00192*
X02416Y00192*
X02416Y00193*
X02416Y00194*
X02416Y00194*
X02416Y00195*
X02416Y00196*
Y00196*
Y00196*
Y00197*
Y00197*
X02416Y00197*
Y00197*
X02416Y00198*
X02416Y00198*
X02416Y00199*
X02416Y002*
X02415Y00201*
X02415Y00202*
Y00202*
X02415Y00202*
X02415Y00202*
X02415Y00202*
X02415Y00203*
X02414Y00203*
X02414Y00204*
X02414Y00204*
X02413Y00205*
X02412Y00206*
X02412*
X02412Y00206*
X02412Y00206*
X02412Y00206*
X02412Y00206*
X02411Y00206*
X02411Y00206*
X0241Y00206*
X0241Y00206*
X02409Y00207*
X02408Y00207*
X02408*
X02407Y00207*
X02407*
X02407Y00207*
X02406Y00206*
X02406Y00206*
X02405Y00206*
X02404Y00206*
X02404Y00205*
X02403Y00205*
X02403Y00205*
X02403Y00205*
X02403Y00205*
X02403Y00205*
X02403Y00205*
X02403Y00204*
X02402Y00204*
X02402Y00204*
X02402Y00204*
X02402Y00203*
X02401Y00203*
X02401Y00202*
X02401Y00202*
X02401Y00201*
X02401Y00201*
X02401Y002*
X02397Y00201*
Y00201*
X02397Y00201*
X02397Y00201*
X02397Y00202*
X02398Y00202*
X02398Y00203*
X02398Y00203*
X02398Y00203*
X02399Y00204*
X02399Y00205*
X024Y00206*
X024Y00206*
X02401Y00207*
X02401Y00207*
X02401Y00207*
X02401Y00207*
X02401Y00208*
X02401Y00208*
X02402Y00208*
X02402Y00208*
X02402Y00208*
X02403Y00208*
X02403Y00209*
X02404Y00209*
X02404Y00209*
X02405Y00209*
X02406Y00209*
X02406Y00209*
X02407Y00209*
X02408Y0021*
X02408*
X02408Y00209*
G37*
G36*
X02089Y00733D02*
X02089D01*
X02089*
X02089*
X02088Y00733*
X02088Y00733*
X02088Y00734*
X02087Y00734*
X02087Y00734*
X02087*
X02087Y00734*
X02087Y00734*
X02086Y00734*
X02086Y00734*
X02085Y00735*
X02085Y00735*
X02084Y00735*
X02084Y00736*
X02084*
X02083Y00736*
X02083Y00736*
X02083Y00736*
X02082Y00737*
X02082Y00737*
X02081Y00738*
X02081Y00739*
X0208Y0074*
X0208Y0074*
X0208Y0074*
X02079Y0074*
X02079Y0074*
X02079Y00741*
X02079Y00741*
X02078Y00742*
X02078Y00742*
X02077Y00743*
X02076Y00744*
X02076Y00744*
X02075Y00745*
X02075Y00745*
X02074Y00745*
X02074*
X02074Y00745*
X02074Y00746*
X02074Y00746*
X02074Y00746*
X02073Y00746*
X02073Y00746*
X02072Y00747*
X02071Y00747*
X02071Y00747*
X02071*
X02071*
X0207Y00747*
X0207Y00747*
X0207Y00747*
X02069Y00747*
X02069Y00746*
X02068Y00746*
X02068Y00746*
X02068Y00745*
X02067Y00745*
X02067Y00745*
X02067Y00745*
X02067Y00744*
X02066Y00744*
X02066Y00743*
X02066Y00742*
Y00742*
X02066Y00742*
X02066Y00741*
X02066Y00741*
X02067Y0074*
X02067Y0074*
X02067Y00739*
X02068Y00738*
X02068Y00738*
X02068Y00738*
X02068Y00738*
X02069Y00738*
X02069Y00738*
X0207Y00737*
X02071Y00737*
X02071Y00737*
X02071Y00734*
X02071*
X02071Y00734*
X02071*
X0207Y00734*
X0207Y00734*
X0207Y00734*
X02069Y00734*
X02069Y00734*
X02068Y00735*
X02067Y00735*
X02067Y00735*
X02066Y00736*
X02066Y00736*
X02066Y00736*
X02066Y00736*
X02066Y00737*
X02065Y00737*
X02065Y00737*
X02065Y00737*
X02065Y00737*
X02065Y00738*
X02065Y00738*
X02065Y00738*
X02064Y00739*
X02064Y00739*
X02064Y0074*
X02064Y0074*
X02064Y00741*
X02064Y00742*
X02064Y00742*
Y00743*
X02064Y00743*
X02064Y00743*
X02064Y00743*
X02064Y00744*
X02064Y00744*
X02064Y00745*
X02065Y00746*
X02065Y00747*
X02065Y00747*
X02065Y00748*
X02066Y00748*
X02066Y00748*
X02066Y00748*
X02066Y00748*
X02066Y00748*
X02066Y00748*
X02067Y00749*
X02067Y00749*
X02067Y00749*
X02068Y00749*
X02069Y0075*
X02069Y0075*
X0207Y0075*
X0207Y0075*
X02071Y0075*
X02071*
X02071*
X02071Y0075*
X02072Y0075*
X02072Y0075*
X02073Y0075*
X02073Y0075*
X02074Y00749*
X02074Y00749*
X02074Y00749*
X02074Y00749*
X02075Y00749*
X02075Y00749*
X02076Y00748*
X02076Y00748*
X02077Y00747*
X02077Y00747*
X02077Y00747*
X02077Y00747*
X02077Y00747*
X02078Y00746*
X02078Y00746*
X02078Y00746*
X02079Y00746*
X02079Y00745*
X02079Y00745*
X0208Y00744*
X0208Y00744*
X02081Y00743*
X02081Y00743*
X02081Y00743*
X02081Y00742*
X02081Y00742*
X02082Y00742*
X02082Y00742*
X02082Y00742*
X02083Y00741*
X02083Y0074*
X02084Y0074*
X02084Y00739*
X02084Y00739*
X02084Y00739*
X02084Y00739*
X02085Y00739*
X02085Y00739*
X02085Y00739*
X02085Y00738*
X02085Y00738*
X02086Y00738*
Y0075*
X02089*
Y00733*
G37*
G36*
X02081Y00731D02*
X02081Y00731D01*
X02082Y00731*
X02082Y00731*
X02083Y00731*
X02083Y0073*
X02083Y0073*
X02084Y0073*
X02085Y00729*
X02086Y00729*
X02086Y00728*
X02087Y00728*
X02087Y00727*
X02087Y00727*
X02087Y00727*
X02088Y00727*
X02088Y00727*
X02088Y00726*
X02088Y00726*
X02088Y00726*
X02088Y00725*
X02089Y00725*
X02089Y00724*
X02089Y00724*
X02089Y00723*
X02089Y00723*
X02089Y00722*
X02089Y00721*
X0209Y00721*
Y0072*
X02089Y0072*
Y0072*
X02089Y00719*
X02089Y00719*
X02089Y00718*
X02089Y00717*
X02089Y00716*
X02088Y00715*
X02088Y00714*
X02088Y00714*
X02088Y00714*
X02088Y00714*
X02088Y00714*
X02088Y00714*
X02087Y00713*
X02087Y00713*
X02087Y00713*
X02087Y00712*
X02086Y00712*
X02086Y00712*
X02085Y00711*
X02084Y00711*
X02083Y0071*
X02083*
X02083Y0071*
X02083Y0071*
X02083Y0071*
X02082Y0071*
X02082Y0071*
X02081Y00709*
X02081Y00709*
X02081Y00709*
X0208Y00709*
X02079Y00709*
X02078Y00709*
X02076Y00709*
X02076*
X02076*
X02076*
X02076Y00709*
X02075*
X02075Y00709*
X02074Y00709*
X02074Y00709*
X02073Y00709*
X02072Y00709*
X02071Y0071*
X02069Y0071*
X02069Y0071*
X02069Y0071*
X02069Y0071*
X02069Y00711*
X02069Y00711*
X02068Y00711*
X02068Y00711*
X02067Y00712*
X02066Y00713*
X02066Y00713*
X02065Y00714*
X02065Y00715*
X02065Y00715*
X02065Y00715*
X02065Y00715*
X02065Y00715*
X02064Y00716*
X02064Y00716*
X02064Y00716*
X02064Y00717*
X02064Y00717*
X02064Y00718*
X02064Y00719*
X02063Y00721*
Y00721*
X02063Y00721*
X02064Y00722*
X02064Y00722*
X02064Y00722*
X02064Y00723*
X02064Y00724*
X02064Y00725*
X02064Y00725*
X02065Y00726*
X02065Y00726*
X02065Y00727*
X02065Y00727*
X02065Y00727*
X02066Y00727*
X02066Y00727*
X02066Y00728*
X02066Y00728*
X02066Y00728*
X02067Y00728*
X02067Y00729*
X02068Y00729*
X02068Y00729*
X02068Y0073*
X02069Y0073*
X0207Y0073*
X0207Y0073*
X02071Y00731*
X02072Y00727*
X02072*
X02071Y00727*
X02071Y00727*
X02071Y00727*
X02071Y00727*
X02071Y00727*
X0207Y00727*
X02069Y00726*
X02069Y00726*
X02068Y00725*
X02068Y00725*
X02067Y00725*
X02067Y00724*
X02067Y00724*
X02067Y00724*
X02067Y00723*
X02066Y00722*
X02066Y00721*
X02066Y00721*
Y0072*
X02066Y0072*
Y0072*
X02066Y00719*
X02066Y00719*
X02067Y00718*
X02067Y00717*
X02067Y00716*
X02068Y00716*
Y00716*
X02068Y00716*
X02068Y00715*
X02068Y00715*
X02069Y00715*
X02069Y00714*
X0207Y00714*
X02071Y00713*
X02071Y00713*
X02071*
X02072Y00713*
X02072Y00713*
X02072Y00713*
X02072Y00713*
X02072Y00713*
X02073Y00713*
X02074Y00712*
X02074Y00712*
X02075Y00712*
X02076Y00712*
X02076*
X02076*
X02077*
X02077*
X02077Y00712*
X02077*
X02078Y00712*
X02078Y00712*
X02079Y00712*
X0208Y00713*
X02081Y00713*
X02082Y00713*
X02082*
X02082Y00713*
X02082Y00713*
X02082Y00713*
X02083Y00713*
X02083Y00714*
X02084Y00714*
X02084Y00715*
X02085Y00715*
X02086Y00716*
Y00716*
X02086Y00716*
X02086Y00716*
X02086Y00716*
X02086Y00717*
X02086Y00717*
X02086Y00717*
X02086Y00718*
X02086Y00719*
X02087Y00719*
X02087Y0072*
Y00721*
X02087Y00721*
Y00721*
X02087Y00721*
X02086Y00722*
X02086Y00723*
X02086Y00723*
X02086Y00724*
X02085Y00725*
X02085Y00725*
X02085Y00725*
X02085Y00725*
X02085Y00725*
X02085Y00725*
X02085Y00725*
X02084Y00726*
X02084Y00726*
X02084Y00726*
X02084Y00726*
X02083Y00727*
X02083Y00727*
X02082Y00727*
X02082Y00727*
X02081Y00727*
X02081Y00727*
X0208Y00728*
X02081Y00731*
X02081*
X02081Y00731*
G37*
G36*
X0182Y00622D02*
X018D01*
X018Y00622*
X018Y00622*
X018Y00622*
X018Y00621*
X01801Y00621*
X01801Y0062*
X01802Y0062*
X01802Y00619*
Y00619*
X01802Y00619*
X01802Y00619*
X01802Y00619*
X01803Y00618*
X01803Y00618*
X01803Y00617*
X01803Y00617*
X01804Y00616*
X01801*
Y00616*
X018Y00616*
X018Y00616*
X018Y00616*
X018Y00617*
X018Y00617*
X018Y00617*
X01799Y00618*
X01799Y00619*
X01798Y0062*
X01798Y0062*
X01798Y00621*
X01798Y00621*
X01797Y00621*
X01797Y00621*
X01797Y00621*
X01797Y00622*
X01796Y00622*
X01795Y00622*
X01795Y00623*
X01794Y00623*
Y00625*
X0182*
Y00622*
G37*
G36*
Y00607D02*
X01814Y00604D01*
X01814*
X01814Y00604*
X01814Y00604*
X01814Y00604*
X01813Y00604*
X01813Y00603*
X01812Y00603*
X01812Y00603*
X01811Y00602*
X01811Y00602*
X01811Y00602*
X01811Y00602*
X0181Y00601*
X0181Y00601*
X0181Y00601*
X01809Y006*
X01809Y006*
X01809Y006*
X01809Y006*
X01809Y006*
X01809Y006*
X01809Y00599*
X01809Y00599*
X01808Y00599*
Y00598*
X01808Y00598*
Y00598*
X01808Y00598*
X01808Y00598*
Y00598*
X01808Y00597*
Y00593*
X0182*
Y0059*
X01794*
Y00601*
X01794Y00601*
Y00602*
X01794Y00603*
X01794Y00603*
X01795Y00604*
X01795Y00605*
X01795Y00605*
X01795Y00606*
Y00606*
X01795Y00606*
X01795Y00606*
X01795Y00606*
X01796Y00607*
X01796Y00607*
X01796Y00608*
X01797Y00608*
X01797Y00609*
X01797*
X01797Y00609*
X01798Y00609*
X01798Y00609*
X01799Y00609*
X01799Y00609*
X018Y00609*
X018Y0061*
X01801Y0061*
X01801*
X01801*
X01801*
X01802Y0061*
X01802*
X01802Y0061*
X01803Y00609*
X01803Y00609*
X01804Y00609*
X01805Y00608*
X01805Y00608*
X01806Y00608*
X01806Y00608*
X01806Y00608*
X01806Y00608*
X01806Y00608*
X01806Y00607*
X01806Y00607*
X01807Y00607*
X01807Y00607*
X01807Y00606*
X01807Y00606*
X01807Y00605*
X01807Y00605*
X01808Y00604*
X01808Y00604*
X01808Y00603*
X01808Y00603*
X01808Y00603*
X01808Y00603*
X01808Y00603*
X01808Y00603*
X01809Y00604*
X01809Y00604*
X01809Y00605*
X01809Y00605*
X0181Y00605*
X0181Y00605*
X0181Y00605*
X01811Y00606*
X01811Y00606*
X01812Y00607*
X01813Y00607*
X0182Y00612*
Y00607*
G37*
G36*
X00337Y0261D02*
X00338D01*
X00338Y0261*
X00339Y0261*
X0034Y0261*
X00341Y0261*
X00343Y02609*
X00343Y02609*
X00344Y02609*
X00344*
X00344Y02609*
X00344Y02609*
X00344Y02609*
X00344Y02609*
X00345Y02609*
X00345Y02608*
X00346Y02608*
X00347Y02607*
X00347Y02607*
X00348Y02606*
Y02606*
X00348Y02606*
X00348Y02606*
X00348Y02606*
X00348Y02605*
X00348Y02605*
X00349Y02605*
X00349Y02605*
X00349Y02604*
X00349Y02603*
X00349Y02602*
X0035Y02601*
Y02601*
X00349Y02601*
Y026*
X00349Y026*
X00349Y02599*
X00349Y02599*
X00349Y02598*
X00348Y02597*
X00348Y02597*
X00348Y02596*
X00348Y02596*
X00348Y02596*
X00348Y02596*
X00348Y02596*
X00347Y02596*
X00347Y02596*
X00347Y02595*
X00346Y02595*
X00345Y02595*
X00344Y02594*
X00343Y02594*
X00343Y02597*
X00343*
X00343Y02597*
X00343*
X00343Y02597*
X00344Y02597*
X00344Y02597*
X00345Y02598*
X00345Y02598*
X00346Y02598*
X00346Y02598*
X00346Y02599*
X00346Y02599*
X00346Y02599*
X00346Y02599*
X00347Y026*
X00347Y026*
X00347Y02601*
X00347Y02601*
Y02601*
X00347Y02602*
X00347Y02602*
X00347Y02602*
X00347Y02603*
X00347Y02603*
X00346Y02604*
X00346Y02604*
X00346Y02604*
X00346Y02604*
X00346Y02604*
X00346Y02605*
X00345Y02605*
X00345Y02605*
X00345Y02605*
X00345Y02606*
X00344Y02606*
X00344Y02606*
X00344Y02606*
X00343Y02606*
X00343Y02606*
X00342Y02606*
X00342Y02607*
X00342*
X00342Y02607*
X00341*
X00341Y02607*
X00341Y02607*
X0034Y02607*
X0034Y02607*
X00339Y02607*
X00339Y02607*
X00338Y02607*
X00338*
X00338*
X00337*
X00337*
X00337Y02607*
X00337Y02607*
X00338Y02607*
X00338Y02606*
X00338Y02606*
X00339Y02606*
X00339Y02605*
X0034Y02605*
X0034Y02604*
X0034Y02604*
X0034Y02604*
X0034Y02604*
X0034Y02603*
X0034Y02602*
X0034Y02602*
X00341Y02601*
Y02601*
X0034Y02601*
X0034Y026*
X0034Y026*
X0034Y026*
X0034Y02599*
X0034Y02598*
X0034Y02598*
X0034Y02597*
X00339Y02597*
X00339Y02597*
X00339Y02596*
X00338Y02596*
X00338Y02596*
X00338Y02596*
X00338Y02596*
X00338Y02595*
X00338Y02595*
X00337Y02595*
X00337Y02595*
X00337Y02595*
X00336Y02594*
X00336Y02594*
X00335Y02594*
X00335Y02594*
X00334Y02594*
X00334Y02594*
X00333Y02594*
X00332Y02594*
X00332*
X00332*
X00332*
X00332Y02594*
X00331Y02594*
X00331Y02594*
X00331Y02594*
X0033Y02594*
X00329Y02594*
X00329Y02594*
X00328Y02595*
X00328Y02595*
X00327Y02595*
X00327Y02595*
X00326Y02596*
X00326Y02596*
X00326Y02596*
X00326Y02596*
X00326Y02596*
X00326Y02596*
X00325Y02597*
X00325Y02597*
X00325Y02597*
X00325Y02598*
X00325Y02598*
X00324Y02599*
X00324Y026*
X00324Y026*
X00324Y02601*
X00324Y02601*
Y02602*
X00324Y02602*
Y02602*
X00324Y02602*
X00324Y02603*
X00324Y02604*
X00324Y02604*
X00325Y02605*
X00325Y02606*
Y02606*
X00325Y02606*
X00325Y02606*
X00325Y02606*
X00326Y02607*
X00326Y02607*
X00327Y02608*
X00327Y02608*
X00328Y02609*
X00329Y02609*
X00329*
X00329Y02609*
X00329Y02609*
X00329Y02609*
X0033Y02609*
X0033Y02609*
X0033Y0261*
X00331Y0261*
X00331Y0261*
X00332Y0261*
X00332Y0261*
X00333Y0261*
X00334Y0261*
X00334Y0261*
X00335Y0261*
X00336*
X00336*
X00336*
X00336*
X00337*
X00337Y0261*
G37*
G36*
X00349Y02587D02*
X00344Y02584D01*
X00344*
X00344Y02584*
X00344Y02584*
X00343Y02584*
X00343Y02584*
X00343Y02583*
X00342Y02583*
X00341Y02583*
X00341Y02582*
X0034Y02582*
X0034Y02582*
X0034Y02582*
X0034Y02581*
X0034Y02581*
X00339Y02581*
X00339Y0258*
X00339Y0258*
X00339Y0258*
X00339Y0258*
X00339Y0258*
X00338Y0258*
X00338Y02579*
X00338Y02579*
X00338Y02579*
Y02578*
X00338Y02578*
Y02578*
X00338Y02578*
X00338Y02578*
Y02578*
X00338Y02577*
Y02573*
X00349*
Y0257*
X00324*
Y02581*
X00324Y02581*
Y02582*
X00324Y02583*
X00324Y02583*
X00324Y02584*
X00324Y02585*
X00324Y02585*
X00325Y02586*
Y02586*
X00325Y02586*
X00325Y02586*
X00325Y02586*
X00325Y02587*
X00325Y02587*
X00326Y02588*
X00326Y02588*
X00327Y02589*
X00327*
X00327Y02589*
X00327Y02589*
X00328Y02589*
X00328Y02589*
X00329Y02589*
X00329Y02589*
X0033Y0259*
X00331Y0259*
X00331*
X00331*
X00331*
X00331Y0259*
X00331*
X00332Y0259*
X00332Y02589*
X00333Y02589*
X00334Y02589*
X00335Y02588*
X00335Y02588*
X00335Y02588*
X00335Y02588*
X00335Y02588*
X00335Y02588*
X00336Y02588*
X00336Y02587*
X00336Y02587*
X00336Y02587*
X00336Y02587*
X00336Y02586*
X00337Y02586*
X00337Y02585*
X00337Y02585*
X00337Y02584*
X00337Y02584*
X00337Y02583*
X00338Y02583*
X00338Y02583*
X00338Y02583*
X00338Y02583*
X00338Y02583*
X00338Y02584*
X00339Y02584*
X00339Y02585*
X00339Y02585*
X00339Y02585*
X00339Y02585*
X0034Y02585*
X0034Y02586*
X00341Y02586*
X00341Y02587*
X00342Y02587*
X00349Y02592*
Y02587*
G37*
G36*
X00612Y02346D02*
X00612Y02345D01*
X00613Y02345*
X00613Y02345*
X00614Y02345*
X00615Y02345*
X00616Y02345*
X00616Y02345*
X00617Y02344*
X00617Y02344*
X00618Y02344*
X00618Y02344*
X00618Y02344*
X00618Y02343*
X00618Y02343*
X00618Y02343*
X00619Y02343*
X00619Y02343*
X00619Y02342*
X00619Y02342*
X0062Y02341*
X0062Y02341*
X0062Y02341*
X00621Y0234*
X00621Y02339*
X00621Y02339*
X00621Y02338*
X00618Y02337*
Y02337*
X00618Y02338*
X00618Y02338*
X00618Y02338*
X00618Y02338*
X00618Y02338*
X00617Y02339*
X00617Y0234*
X00617Y0234*
X00616Y02341*
X00615Y02341*
X00615Y02342*
X00615Y02342*
X00615Y02342*
X00614Y02342*
X00614Y02342*
X00613Y02343*
X00612Y02343*
X00611Y02343*
X00611*
X00611Y02343*
X00611*
X0061Y02343*
X0061Y02343*
X00609Y02342*
X00608Y02342*
X00607Y02342*
X00606Y02341*
X00606*
X00606Y02341*
X00606Y02341*
X00606Y02341*
X00605Y0234*
X00605Y0234*
X00604Y02339*
X00604Y02338*
X00604Y02338*
Y02338*
X00604Y02337*
X00604Y02337*
X00604Y02337*
X00604Y02337*
X00603Y02337*
X00603Y02336*
X00603Y02335*
X00603Y02335*
X00603Y02334*
X00603Y02333*
Y02333*
Y02333*
Y02332*
Y02332*
X00603Y02332*
Y02332*
X00603Y02331*
X00603Y02331*
X00603Y0233*
X00603Y02329*
X00604Y02328*
X00604Y02327*
Y02327*
X00604Y02327*
X00604Y02327*
X00604Y02327*
X00604Y02326*
X00605Y02326*
X00605Y02325*
X00605Y02325*
X00606Y02324*
X00607Y02324*
X00607*
X00607Y02323*
X00607Y02323*
X00607Y02323*
X00607Y02323*
X00608Y02323*
X00608Y02323*
X00609Y02323*
X00609Y02323*
X0061Y02322*
X00611Y02322*
X00611*
X00612Y02322*
X00612*
X00612Y02322*
X00613Y02323*
X00613Y02323*
X00614Y02323*
X00615Y02323*
X00615Y02324*
X00616Y02324*
X00616Y02324*
X00616Y02324*
X00616Y02324*
X00616Y02324*
X00616Y02324*
X00616Y02325*
X00617Y02325*
X00617Y02325*
X00617Y02325*
X00617Y02326*
X00618Y02326*
X00618Y02327*
X00618Y02327*
X00618Y02328*
X00618Y02328*
X00618Y02329*
X00622Y02328*
Y02328*
X00622Y02328*
X00622Y02328*
X00622Y02327*
X00621Y02327*
X00621Y02326*
X00621Y02326*
X00621Y02326*
X0062Y02325*
X0062Y02324*
X00619Y02323*
X00619Y02323*
X00619Y02322*
X00618Y02322*
X00618Y02322*
X00618Y02322*
X00618Y02321*
X00618Y02321*
X00617Y02321*
X00617Y02321*
X00617Y02321*
X00616Y02321*
X00616Y0232*
X00615Y0232*
X00615Y0232*
X00614Y0232*
X00613Y0232*
X00613Y0232*
X00612Y0232*
X00611Y0232*
X00611*
X00611Y0232*
X0061*
X0061Y0232*
X00609Y0232*
X00609Y0232*
X00608Y0232*
X00607Y0232*
X00606Y02321*
X00605Y02321*
X00605Y02321*
X00605Y02321*
X00605Y02321*
X00604Y02321*
X00604Y02321*
X00604Y02322*
X00604Y02322*
X00604Y02322*
X00603Y02322*
X00603Y02323*
X00603Y02323*
X00602Y02324*
X00601Y02325*
X00601Y02326*
Y02326*
X00601Y02326*
X00601Y02326*
X00601Y02326*
X00601Y02327*
X006Y02327*
X006Y02328*
X006Y02328*
X006Y02328*
X006Y02329*
X006Y0233*
X006Y02331*
X006Y02333*
Y02333*
Y02333*
Y02333*
X006Y02333*
Y02334*
X006Y02334*
X006Y02335*
X006Y02335*
X006Y02336*
X006Y02337*
X006Y02338*
X00601Y0234*
X00601Y0234*
X00601Y0234*
X00601Y0234*
X00601Y0234*
X00601Y0234*
X00602Y02341*
X00602Y02341*
X00603Y02342*
X00603Y02343*
X00604Y02343*
X00605Y02344*
X00605Y02344*
X00605Y02344*
X00606Y02344*
X00606Y02344*
X00606Y02344*
X00606Y02345*
X00607Y02345*
X00607Y02345*
X00608Y02345*
X00608Y02345*
X00609Y02345*
X0061Y02345*
X00611Y02346*
X00612*
X00612Y02346*
G37*
G36*
X00653Y02345D02*
X00653Y02345D01*
X00654Y02345*
X00654Y02345*
X00655Y02345*
X00656Y02345*
X00657Y02344*
X00657Y02344*
X00657Y02344*
X00658Y02344*
X00658Y02343*
X00658Y02343*
X00658Y02343*
X00658Y02343*
X00659Y02343*
X00659Y02343*
X00659Y02342*
X00659Y02342*
X00659Y02342*
X0066Y02341*
X0066Y0234*
X0066Y0234*
X0066Y02339*
X0066Y02339*
X0066Y02338*
Y02338*
Y02338*
X0066Y02338*
X0066Y02337*
X0066Y02337*
X0066Y02336*
X0066Y02336*
X0066Y02335*
X0066Y02335*
X0066Y02335*
X0066Y02335*
X00659Y02334*
X00659Y02334*
X00659Y02333*
X00658Y02333*
X00658Y02332*
X00658Y02332*
X00657Y02332*
X00657Y02332*
X00657Y02332*
X00657Y02331*
X00657Y02331*
X00656Y02331*
X00656Y0233*
X00656Y0233*
X00655Y0233*
X00655Y02329*
X00654Y02329*
X00654Y02328*
X00653Y02328*
X00653Y02328*
X00653Y02328*
X00653Y02328*
X00653Y02327*
X00652Y02327*
X00652Y02327*
X00651Y02326*
X00651Y02326*
X0065Y02325*
X0065Y02325*
X0065Y02325*
X00649Y02325*
X00649Y02325*
X00649Y02324*
X00649Y02324*
X00649Y02324*
X00649Y02324*
X00648Y02324*
X00648Y02323*
X0066*
Y0232*
X00644*
Y0232*
Y0232*
Y0232*
X00644Y02321*
X00644Y02321*
X00644Y02321*
X00644Y02322*
X00644Y02322*
Y02322*
X00644Y02322*
X00644Y02322*
X00644Y02323*
X00645Y02323*
X00645Y02324*
X00645Y02324*
X00646Y02325*
X00646Y02325*
Y02325*
X00646Y02326*
X00646Y02326*
X00647Y02326*
X00647Y02327*
X00648Y02327*
X00648Y02328*
X00649Y02328*
X0065Y02329*
X0065Y02329*
X0065Y02329*
X00651Y0233*
X00651Y0233*
X00651Y0233*
X00652Y0233*
X00652Y02331*
X00652Y02331*
X00653Y02332*
X00654Y02333*
X00655Y02333*
X00655Y02334*
X00655Y02334*
X00656Y02335*
Y02335*
X00656Y02335*
X00656Y02335*
X00656Y02335*
X00656Y02335*
X00657Y02336*
X00657Y02336*
X00657Y02337*
X00657Y02338*
X00657Y02338*
Y02338*
Y02338*
X00657Y02339*
X00657Y02339*
X00657Y02339*
X00657Y0234*
X00657Y0234*
X00656Y02341*
X00656Y02341*
X00656Y02341*
X00656Y02342*
X00655Y02342*
X00655Y02342*
X00655Y02342*
X00654Y02343*
X00653Y02343*
X00652Y02343*
X00652*
X00652Y02343*
X00652Y02343*
X00651Y02343*
X00651Y02342*
X0065Y02342*
X00649Y02342*
X00649Y02341*
X00649Y02341*
X00649Y02341*
X00648Y02341*
X00648Y0234*
X00648Y0234*
X00648Y02339*
X00648Y02338*
X00648Y02338*
X00644Y02338*
Y02338*
X00644Y02338*
Y02338*
X00644Y02339*
X00644Y02339*
X00645Y02339*
X00645Y0234*
X00645Y0234*
X00645Y02341*
X00646Y02342*
X00646Y02342*
X00646Y02343*
X00646Y02343*
X00647Y02343*
X00647Y02343*
X00647Y02343*
X00647Y02344*
X00647Y02344*
X00647Y02344*
X00648Y02344*
X00648Y02344*
X00648Y02344*
X00649Y02344*
X00649Y02345*
X0065Y02345*
X0065Y02345*
X00651Y02345*
X00651Y02345*
X00652Y02345*
X00653Y02345*
X00653*
X00653Y02345*
G37*
G36*
X00636Y0232D02*
X00633D01*
Y0234*
X00633Y0234*
X00633Y02339*
X00633Y02339*
X00632Y02339*
X00632Y02339*
X00631Y02338*
X00631Y02338*
X0063Y02337*
X0063*
X0063Y02337*
X0063Y02337*
X0063Y02337*
X00629Y02337*
X00629Y02337*
X00628Y02336*
X00628Y02336*
X00627Y02336*
Y02339*
X00627*
X00627Y02339*
X00627Y02339*
X00627Y02339*
X00628Y02339*
X00628Y02339*
X00629Y0234*
X00629Y0234*
X0063Y02341*
X00631Y02341*
X00632Y02342*
X00632Y02342*
X00632Y02342*
X00632Y02342*
X00632Y02342*
X00632Y02343*
X00633Y02343*
X00633Y02343*
X00634Y02344*
X00634Y02345*
X00634Y02345*
X00636*
Y0232*
G37*
G36*
X00641Y0266D02*
X00641Y0266D01*
X00642Y0266*
X00642Y0266*
X00643Y0266*
X00643Y0266*
X00644Y02659*
X00645Y02659*
X00645Y02659*
X00646Y02659*
X00646Y02658*
X00646Y02658*
X00647Y02658*
X00647Y02658*
X00647Y02658*
X00647Y02658*
X00647Y02657*
X00648Y02657*
X00648Y02657*
X00648Y02656*
X00649Y02656*
X00649Y02655*
X00649Y02654*
X00649Y02654*
X00649Y02653*
X00649Y02652*
X0065Y02652*
Y02651*
X00649Y02651*
X00649Y02651*
X00649Y0265*
X00649Y0265*
X00649Y0265*
X00649Y02649*
X00649Y02648*
X00648Y02647*
X00648Y02647*
X00648Y02646*
X00648Y02646*
X00648Y02646*
X00648Y02646*
X00647Y02646*
X00647Y02646*
X00647Y02646*
X00647Y02645*
X00647Y02645*
X00646Y02645*
X00646Y02645*
X00646Y02645*
X00645Y02644*
X00644Y02644*
X00643Y02644*
X00642Y02644*
X00642Y02647*
X00642*
X00642*
X00642Y02647*
X00643Y02647*
X00643Y02647*
X00644Y02647*
X00644Y02647*
X00645Y02648*
X00645Y02648*
X00646Y02648*
X00646Y02649*
X00646Y02649*
X00646Y02649*
X00646Y02649*
X00647Y0265*
X00647Y0265*
X00647Y02651*
X00647Y02652*
Y02652*
X00647Y02652*
X00647Y02652*
X00647Y02653*
X00647Y02654*
X00646Y02654*
X00646Y02655*
X00646Y02655*
X00645Y02655*
X00645Y02656*
X00645Y02656*
X00645Y02656*
X00645Y02656*
X00645Y02656*
X00644Y02656*
X00643Y02657*
X00643Y02657*
X00642Y02657*
X00641Y02657*
X00641*
X00641*
X00641*
X00641*
X0064Y02657*
X0064*
X0064Y02657*
X00639Y02657*
X00639Y02657*
X00638Y02656*
X00637Y02656*
X00637Y02656*
X00637*
X00637Y02655*
X00636Y02655*
X00636Y02655*
X00636Y02655*
X00636Y02654*
X00635Y02653*
X00635Y02653*
X00635Y02652*
Y02651*
X00635Y02651*
X00635Y02651*
X00635Y0265*
X00635Y0265*
X00636Y02649*
X00636Y02649*
X00636Y02649*
X00636Y02649*
X00636Y02649*
X00636Y02648*
X00637Y02648*
X00637Y02648*
X00637Y02647*
X00638Y02647*
X00637Y02644*
X00624Y02647*
Y02659*
X00627*
Y02649*
X00634Y02648*
X00634Y02648*
X00634Y02648*
X00634Y02648*
X00634Y02648*
X00634Y02648*
X00633Y02649*
X00633Y02649*
X00633Y0265*
X00633Y02651*
X00632Y02652*
X00632Y02652*
Y02653*
X00632Y02653*
X00632Y02653*
X00632Y02654*
X00633Y02654*
X00633Y02654*
X00633Y02655*
X00633Y02656*
X00633Y02656*
X00634Y02657*
X00634Y02657*
X00634Y02658*
X00635Y02658*
X00635Y02658*
X00635Y02658*
X00635Y02658*
X00635Y02658*
X00635Y02659*
X00636Y02659*
X00636Y02659*
X00636Y02659*
X00637Y02659*
X00637Y0266*
X00638Y0266*
X00638Y0266*
X00639Y0266*
X00639Y0266*
X0064Y0266*
X00641Y0266*
X00641*
X00641*
X00641*
X00641Y0266*
G37*
G36*
X00639Y02639D02*
X0064D01*
X0064Y02639*
X00641Y02639*
X00642Y02639*
X00643Y02639*
X00644Y02639*
X00644Y02639*
X00645Y02638*
X00645*
X00645Y02638*
X00645Y02638*
X00645Y02638*
X00645Y02638*
X00646Y02638*
X00646Y02637*
X00647Y02637*
X00648Y02636*
X00648Y02635*
Y02635*
X00648Y02635*
X00648Y02635*
X00648Y02635*
X00648Y02635*
X00649Y02634*
X00649Y02634*
X00649Y02634*
X00649Y02633*
X00649Y02633*
X00649Y02632*
X00649Y02632*
X00649Y02631*
X00649Y02631*
X0065Y02629*
Y02629*
X00649Y02629*
Y02629*
X00649Y02628*
X00649Y02628*
X00649Y02627*
X00649Y02626*
X00649Y02626*
X00649Y02625*
X00648Y02624*
Y02624*
X00648Y02624*
X00648Y02623*
X00648Y02623*
X00648Y02623*
X00647Y02622*
X00647Y02622*
X00646Y02621*
X00646Y02621*
X00645Y0262*
X00645*
X00645Y0262*
X00645Y0262*
X00644Y0262*
X00644Y0262*
X00644Y0262*
X00643Y0262*
X00643Y0262*
X00643Y0262*
X00642Y0262*
X00642Y0262*
X00641Y0262*
X00641Y0262*
X0064Y0262*
X00639Y0262*
X00638*
X00624*
Y02623*
X00638*
X00638*
X00639*
X00639*
X00639*
X00639Y02623*
X0064*
X0064Y02623*
X00641Y02623*
X00642Y02623*
X00643Y02623*
X00643Y02623*
X00643Y02623*
X00643Y02623*
X00644Y02624*
X00644Y02624*
X00644Y02624*
X00645Y02624*
X00645Y02625*
X00645Y02625*
X00646Y02626*
X00646Y02626*
X00646Y02626*
X00646Y02626*
X00646Y02627*
X00646Y02627*
X00646Y02628*
X00646Y02628*
X00646Y02629*
Y0263*
X00646Y0263*
Y0263*
X00646Y0263*
X00646Y02631*
X00646Y02632*
X00646Y02633*
X00645Y02634*
X00645Y02634*
X00645Y02634*
X00645Y02634*
X00645Y02634*
X00645Y02635*
X00645Y02635*
X00644Y02635*
X00644Y02635*
X00644Y02635*
X00643Y02635*
X00643Y02635*
X00643Y02635*
X00642Y02636*
X00641Y02636*
X00641Y02636*
X0064Y02636*
X00639Y02636*
X00638*
X00624*
Y02639*
X00638*
X00638*
X00639*
X00639*
X00639*
X00639Y02639*
G37*
G36*
X00192Y0261D02*
X00193Y0261D01*
X00193Y0261*
X00193Y0261*
X00194Y0261*
X00195Y0261*
X00195Y02609*
X00196Y02609*
X00196Y02609*
X00196Y02609*
X00197Y02608*
X00197Y02608*
X00197Y02608*
X00197Y02608*
X00198Y02608*
X00198Y02607*
X00198Y02607*
X00198Y02607*
X00198Y02607*
X00198Y02606*
X00199Y02606*
X00199Y02605*
X00199Y02605*
X00199Y02604*
X00199Y02604*
X00199Y02603*
X00199Y02603*
X002Y02602*
Y02601*
X00199Y02601*
X00199Y02601*
X00199Y02601*
X00199Y026*
X00199Y026*
X00199Y02599*
X00199Y02598*
X00199Y02598*
X00198Y02597*
X00198Y02597*
X00198Y02596*
X00197Y02596*
X00197Y02596*
X00197Y02596*
X00197Y02596*
X00197Y02595*
X00197Y02595*
X00196Y02595*
X00196Y02595*
X00196Y02595*
X00195Y02594*
X00195Y02594*
X00194Y02594*
X00194Y02594*
X00193Y02594*
X00192Y02594*
X00192Y02594*
X00192*
X00192*
X00192*
X00191Y02594*
X00191*
X00191Y02594*
X0019Y02594*
X0019Y02594*
X00189Y02594*
X00188Y02594*
X00188Y02595*
X00188*
X00188Y02595*
X00187Y02595*
X00187Y02595*
X00187Y02596*
X00186Y02596*
X00186Y02597*
X00186Y02598*
X00185Y02598*
Y02598*
X00185Y02598*
X00185Y02598*
X00185Y02598*
X00185Y02598*
X00185Y02597*
X00185Y02597*
X00184Y02596*
X00184Y02596*
X00183Y02595*
X00183Y02595*
X00183Y02595*
X00183Y02595*
X00183Y02595*
X00182Y02595*
X00182Y02595*
X00181Y02595*
X0018Y02595*
X0018*
X0018*
X0018*
X0018Y02595*
X0018Y02595*
X00179Y02595*
X00179Y02595*
X00178Y02595*
X00177Y02595*
X00177Y02596*
X00176Y02596*
X00176Y02596*
X00176Y02597*
X00176Y02597*
X00176Y02597*
X00175Y02597*
X00175Y02597*
X00175Y02597*
X00175Y02597*
X00175Y02598*
X00175Y02598*
X00175Y02598*
X00174Y02599*
X00174Y02599*
X00174Y026*
X00174Y02601*
X00174Y02601*
X00174Y02602*
Y02602*
X00174Y02602*
X00174Y02603*
X00174Y02603*
X00174Y02603*
X00174Y02604*
X00174Y02605*
X00175Y02605*
X00175Y02606*
X00175Y02606*
X00175Y02607*
X00176Y02607*
X00176Y02607*
X00176Y02607*
X00176Y02607*
X00176Y02607*
X00176Y02608*
X00176Y02608*
X00177Y02608*
X00178Y02608*
X00179Y02609*
X00179Y02609*
X0018Y02609*
X0018Y02609*
X0018*
X0018*
X00181*
X00181Y02609*
X00181Y02609*
X00182Y02609*
X00182Y02609*
X00183Y02609*
X00183Y02608*
X00184Y02608*
X00184Y02608*
X00184Y02608*
X00184Y02608*
X00185Y02607*
X00185Y02607*
X00185Y02606*
X00185Y02605*
Y02605*
X00185Y02606*
X00186Y02606*
X00186Y02606*
X00186Y02606*
X00186Y02607*
X00186Y02607*
X00187Y02608*
X00187Y02608*
X00188Y02609*
X00188*
X00188Y02609*
X00188Y02609*
X00189Y02609*
X00189Y0261*
X0019Y0261*
X0019Y0261*
X00191Y0261*
X00192Y0261*
X00192*
X00192*
X00192*
X00192Y0261*
G37*
G36*
X00199Y02587D02*
X00194Y02584D01*
X00194*
X00194Y02584*
X00194Y02584*
X00193Y02584*
X00193Y02584*
X00193Y02583*
X00192Y02583*
X00191Y02583*
X00191Y02582*
X0019Y02582*
X0019Y02582*
X0019Y02582*
X0019Y02581*
X0019Y02581*
X00189Y02581*
X00189Y0258*
X00189Y0258*
X00189Y0258*
X00189Y0258*
X00189Y0258*
X00188Y0258*
X00188Y02579*
X00188Y02579*
X00188Y02579*
Y02578*
X00188Y02578*
Y02578*
X00188Y02578*
X00188Y02578*
Y02578*
X00188Y02577*
Y02573*
X00199*
Y0257*
X00174*
Y02581*
X00174Y02581*
Y02582*
X00174Y02583*
X00174Y02583*
X00174Y02584*
X00174Y02585*
X00174Y02585*
X00175Y02586*
Y02586*
X00175Y02586*
X00175Y02586*
X00175Y02586*
X00175Y02587*
X00175Y02587*
X00176Y02588*
X00176Y02588*
X00177Y02589*
X00177*
X00177Y02589*
X00177Y02589*
X00178Y02589*
X00178Y02589*
X00179Y02589*
X00179Y02589*
X0018Y0259*
X00181Y0259*
X00181*
X00181*
X00181*
X00181Y0259*
X00181*
X00182Y0259*
X00182Y02589*
X00183Y02589*
X00184Y02589*
X00185Y02588*
X00185Y02588*
X00185Y02588*
X00185Y02588*
X00185Y02588*
X00185Y02588*
X00186Y02588*
X00186Y02587*
X00186Y02587*
X00186Y02587*
X00186Y02587*
X00186Y02586*
X00187Y02586*
X00187Y02585*
X00187Y02585*
X00187Y02584*
X00187Y02584*
X00187Y02583*
X00188Y02583*
X00188Y02583*
X00188Y02583*
X00188Y02583*
X00188Y02583*
X00188Y02584*
X00189Y02584*
X00189Y02585*
X00189Y02585*
X00189Y02585*
X00189Y02585*
X0019Y02585*
X0019Y02586*
X00191Y02586*
X00191Y02587*
X00192Y02587*
X00199Y02592*
Y02587*
G37*
G36*
X02438Y01219D02*
X02438Y01219D01*
X02439Y01219*
X02439Y01219*
X02439Y01219*
X0244Y01219*
X02441Y01219*
X02442Y01218*
X02442Y01218*
X02443Y01218*
X02443Y01218*
X02443Y01218*
X02443Y01218*
X02443Y01217*
X02443Y01217*
X02443Y01217*
X02444Y01217*
X02444Y01217*
X02444Y01216*
X02444Y01216*
X02444Y01216*
X02445Y01215*
X02445Y01214*
X02445Y01213*
X02445Y01212*
X02442Y01212*
Y01212*
Y01212*
X02442Y01212*
X02442Y01213*
X02442Y01213*
X02442Y01214*
X02442Y01214*
X02441Y01215*
X02441Y01215*
X02441Y01216*
X0244Y01216*
X0244Y01216*
X0244Y01216*
X0244Y01216*
X02439Y01217*
X02439Y01217*
X02438Y01217*
X02437Y01217*
X02437*
X02437Y01217*
X02437Y01217*
X02436Y01217*
X02435Y01217*
X02435Y01216*
X02434Y01216*
X02434Y01216*
X02434Y01215*
X02434Y01215*
X02433Y01215*
X02433Y01215*
X02433Y01215*
X02433Y01215*
X02433Y01214*
X02432Y01213*
X02432Y01213*
X02432Y01212*
X02432Y01211*
Y01211*
Y01211*
Y01211*
Y01211*
X02432Y0121*
Y0121*
X02432Y0121*
X02432Y01209*
X02432Y01209*
X02433Y01208*
X02433Y01207*
X02433Y01207*
Y01207*
X02434Y01207*
X02434Y01206*
X02434Y01206*
X02434Y01206*
X02435Y01206*
X02436Y01205*
X02436Y01205*
X02437Y01205*
X02438*
X02438Y01205*
X02438Y01205*
X02439Y01205*
X02439Y01205*
X0244Y01206*
X0244Y01206*
X0244Y01206*
X0244Y01206*
X0244Y01206*
X02441Y01206*
X02441Y01207*
X02441Y01207*
X02442Y01207*
X02442Y01208*
X02445Y01207*
X02442Y01194*
X0243*
Y01197*
X0244*
X02441Y01204*
X02441Y01204*
X02441Y01204*
X02441Y01204*
X02441Y01204*
X02441Y01204*
X0244Y01203*
X0244Y01203*
X02439Y01203*
X02438Y01203*
X02437Y01202*
X02437Y01202*
X02436*
X02436Y01202*
X02436Y01202*
X02435Y01202*
X02435Y01203*
X02435Y01203*
X02434Y01203*
X02433Y01203*
X02433Y01203*
X02432Y01204*
X02432Y01204*
X02431Y01204*
X02431Y01205*
X02431Y01205*
X02431Y01205*
X02431Y01205*
X02431Y01205*
X0243Y01205*
X0243Y01206*
X0243Y01206*
X0243Y01206*
X0243Y01207*
X02429Y01207*
X02429Y01208*
X02429Y01208*
X02429Y01209*
X02429Y01209*
X02429Y0121*
X02429Y01211*
Y01211*
Y01211*
Y01211*
X02429Y01211*
X02429Y01211*
X02429Y01212*
X02429Y01212*
X02429Y01213*
X02429Y01213*
X0243Y01214*
X0243Y01215*
X0243Y01215*
X0243Y01216*
X02431Y01216*
X02431Y01216*
X02431Y01217*
X02431Y01217*
X02431Y01217*
X02431Y01217*
X02432Y01217*
X02432Y01218*
X02432Y01218*
X02433Y01218*
X02433Y01219*
X02434Y01219*
X02435Y01219*
X02435Y01219*
X02436Y01219*
X02437Y01219*
X02437Y0122*
X02438*
X02438Y01219*
G37*
G36*
X0247Y01194D02*
X02458D01*
X02458Y01194*
X02457*
X02456Y01194*
X02456Y01194*
X02455Y01194*
X02454Y01194*
X02454Y01194*
X02453Y01195*
X02453*
X02453Y01195*
X02453Y01195*
X02453Y01195*
X02452Y01195*
X02452Y01195*
X02451Y01196*
X02451Y01196*
X0245Y01197*
Y01197*
X0245Y01197*
X0245Y01197*
X0245Y01198*
X0245Y01198*
X0245Y01199*
X0245Y01199*
X02449Y012*
X02449Y01201*
Y01201*
Y01201*
Y01201*
X02449Y01201*
Y01201*
X02449Y01202*
X0245Y01202*
X0245Y01203*
X0245Y01204*
X02451Y01205*
X02451Y01205*
X02451Y01205*
X02451Y01205*
X02451Y01205*
X02451Y01205*
X02451Y01206*
X02452Y01206*
X02452Y01206*
X02452Y01206*
X02452Y01206*
X02453Y01206*
X02453Y01207*
X02454Y01207*
X02454Y01207*
X02455Y01207*
X02455Y01207*
X02456Y01207*
X02456Y01208*
X02456Y01208*
X02456Y01208*
X02456Y01208*
X02456Y01208*
X02455Y01208*
X02455Y01209*
X02454Y01209*
X02454Y01209*
X02454Y01209*
X02454Y01209*
X02454Y0121*
X02453Y0121*
X02453Y01211*
X02452Y01211*
X02452Y01212*
X02447Y01219*
X02452*
X02455Y01214*
Y01214*
X02455Y01214*
X02455Y01214*
X02455Y01213*
X02455Y01213*
X02456Y01213*
X02456Y01212*
X02456Y01211*
X02457Y01211*
X02457Y0121*
X02457Y0121*
X02457Y0121*
X02458Y0121*
X02458Y0121*
X02458Y01209*
X02459Y01209*
X02459Y01209*
X02459Y01209*
X02459Y01209*
X02459Y01209*
X02459Y01208*
X0246Y01208*
X0246Y01208*
X0246Y01208*
X02461*
X02461Y01208*
X02461*
X02461Y01208*
X02461Y01208*
X02461*
X02462Y01208*
X02466*
Y01219*
X0247*
Y01194*
G37*
G36*
X00242Y01467D02*
X00242D01*
X00241*
X00241*
X00241Y01467*
X00241Y01467*
X0024Y01467*
X0024Y01467*
X00239Y01467*
X00239*
X00239Y01468*
X00239Y01468*
X00239Y01468*
X00238Y01468*
X00238Y01468*
X00237Y01469*
X00237Y01469*
X00236Y0147*
X00236*
X00236Y0147*
X00236Y0147*
X00235Y0147*
X00235Y01471*
X00234Y01471*
X00234Y01472*
X00233Y01473*
X00232Y01474*
X00232Y01474*
X00232Y01474*
X00232Y01474*
X00232Y01474*
X00231Y01475*
X00231Y01475*
X00231Y01475*
X0023Y01476*
X00229Y01477*
X00229Y01478*
X00228Y01478*
X00228Y01478*
X00227Y01479*
X00227Y01479*
X00227*
X00227Y01479*
X00227Y01479*
X00227Y01479*
X00226Y0148*
X00226Y0148*
X00225Y0148*
X00225Y0148*
X00224Y01481*
X00223Y01481*
X00223*
X00223*
X00223Y01481*
X00223Y01481*
X00222Y0148*
X00222Y0148*
X00221Y0148*
X00221Y0148*
X0022Y01479*
X0022Y01479*
X0022Y01479*
X0022Y01479*
X00219Y01478*
X00219Y01478*
X00219Y01477*
X00219Y01477*
X00219Y01476*
Y01476*
X00219Y01475*
X00219Y01475*
X00219Y01475*
X00219Y01474*
X00219Y01473*
X0022Y01473*
X0022Y01472*
X0022Y01472*
X0022Y01472*
X00221Y01472*
X00221Y01472*
X00222Y01471*
X00222Y01471*
X00223Y01471*
X00224Y01471*
X00224Y01468*
X00224*
X00223Y01468*
X00223*
X00223Y01468*
X00223Y01468*
X00222Y01468*
X00222Y01468*
X00222Y01468*
X00221Y01468*
X0022Y01469*
X00219Y01469*
X00219Y01469*
X00219Y0147*
X00218Y0147*
X00218Y0147*
X00218Y0147*
X00218Y0147*
X00218Y01471*
X00218Y01471*
X00218Y01471*
X00217Y01471*
X00217Y01472*
X00217Y01472*
X00217Y01473*
X00217Y01473*
X00217Y01473*
X00216Y01474*
X00216Y01475*
X00216Y01475*
X00216Y01476*
Y01476*
X00216Y01477*
X00216Y01477*
X00216Y01477*
X00216Y01478*
X00217Y01478*
X00217Y01479*
X00217Y0148*
X00217Y0148*
X00218Y01481*
X00218Y01481*
X00218Y01482*
X00218Y01482*
X00218Y01482*
X00219Y01482*
X00219Y01482*
X00219Y01482*
X00219Y01482*
X00219Y01483*
X0022Y01483*
X0022Y01483*
X00221Y01483*
X00222Y01484*
X00222Y01484*
X00223Y01484*
X00223Y01484*
X00223*
X00224*
X00224Y01484*
X00224Y01484*
X00225Y01484*
X00225Y01484*
X00226Y01483*
X00226Y01483*
X00226Y01483*
X00226Y01483*
X00227Y01483*
X00227Y01483*
X00228Y01482*
X00228Y01482*
X00229Y01482*
X00229Y01481*
X00229Y01481*
X0023Y01481*
X0023Y01481*
X0023Y0148*
X0023Y0148*
X00231Y0148*
X00231Y0148*
X00231Y01479*
X00231Y01479*
X00232Y01478*
X00232Y01478*
X00233Y01477*
X00233Y01477*
X00234Y01476*
X00234Y01476*
X00234Y01476*
X00234Y01476*
X00234Y01476*
X00234Y01476*
X00235Y01475*
X00235Y01475*
X00236Y01474*
X00236Y01474*
X00237Y01473*
X00237Y01473*
X00237Y01473*
X00237Y01473*
X00237Y01473*
X00237Y01472*
X00237Y01472*
X00238Y01472*
X00238Y01472*
X00239Y01471*
Y01484*
X00242*
Y01467*
G37*
G36*
X00234Y01463D02*
X00235D01*
X00235Y01463*
X00236Y01463*
X00237Y01463*
X00238Y01463*
X00238Y01463*
X00239*
X00239Y01463*
X00239Y01462*
X00239Y01462*
X00239Y01462*
X0024Y01462*
X0024Y01461*
X00241Y01461*
X00241Y0146*
X00241Y0146*
X00241Y0146*
X00241Y0146*
X00242Y01459*
X00242Y01458*
X00242Y01458*
X00242Y01457*
X00242Y01456*
Y01456*
X00242Y01456*
X00242Y01455*
X00242Y01455*
X00242Y01454*
X00242Y01454*
X00241Y01453*
X00241Y01452*
X00241Y01452*
X0024Y01452*
X0024Y01451*
X0024Y01451*
X0024Y01451*
X0024Y01451*
X0024Y01451*
X0024Y01451*
X00239Y01451*
X00239Y0145*
X00239Y0145*
X00238Y0145*
X00238Y0145*
X00237Y0145*
X00237Y0145*
X00236Y0145*
X00236Y0145*
X00235Y0145*
X00234*
X00234Y01453*
X00234*
X00234*
X00234*
X00235Y01453*
X00235Y01453*
X00235*
X00236Y01453*
X00236Y01453*
X00237Y01453*
X00237Y01453*
X00238Y01453*
X00238Y01454*
X00238Y01454*
X00238Y01454*
X00238Y01454*
X00238Y01454*
X00239Y01455*
X00239Y01455*
X00239Y01456*
X00239Y01456*
Y01456*
X00239Y01457*
X00239Y01457*
X00239Y01457*
X00239Y01458*
X00239Y01458*
X00238Y01458*
X00238Y01458*
X00238Y01459*
X00238Y01459*
X00238Y01459*
X00238Y01459*
X00238Y01459*
X00237Y0146*
X00237Y0146*
X00237*
X00237Y0146*
X00236Y0146*
X00236Y0146*
X00236Y0146*
X00235Y0146*
X00235Y0146*
X00234*
X00216*
Y01463*
X00234*
X00234*
X00234*
X00234*
X00234*
X00234Y01463*
G37*
G36*
X0219Y00952D02*
X0219Y00952D01*
X0219Y00952*
X0219Y00952*
X0219Y00951*
X0219Y00951*
X02189Y00951*
X02189Y00951*
X02189Y0095*
X02188Y0095*
X02188Y00949*
X02187Y00949*
X02187Y00948*
X02187Y00947*
X02186Y00947*
X02186Y00946*
X02185Y00945*
X02185Y00945*
X02185Y00945*
X02185Y00945*
X02185Y00944*
X02185Y00944*
X02185Y00944*
X02184Y00943*
X02184Y00942*
X02184Y00942*
X02183Y00941*
X02183Y0094*
X02183Y0094*
X02182Y00938*
X02182Y00936*
Y00936*
X02182Y00936*
X02182Y00936*
X02182Y00936*
X02181Y00936*
X02181Y00935*
X02181Y00935*
X02181Y00934*
X02181Y00934*
X02181Y00933*
X02181Y00932*
X02181Y00931*
X02181Y0093*
X02177*
Y0093*
Y0093*
Y0093*
X02177Y0093*
Y0093*
X02177Y00931*
X02177Y00931*
X02177Y00932*
X02178Y00932*
X02178Y00933*
X02178Y00933*
X02178Y00934*
X02178Y00934*
X02178Y00935*
X02178Y00937*
Y00937*
X02179Y00937*
X02179Y00937*
X02179Y00937*
X02179Y00938*
X02179Y00938*
X02179Y00939*
X02179Y00939*
X0218Y0094*
X0218Y0094*
X0218Y00942*
X02181Y00943*
X02182Y00945*
X02182Y00945*
X02182Y00945*
X02182Y00945*
X02182Y00945*
X02182Y00946*
X02182Y00946*
X02183Y00947*
X02183Y00947*
X02184Y00948*
X02184Y00949*
X02185Y0095*
X02186Y00951*
X02174*
Y00954*
X0219*
Y00952*
G37*
G36*
X02161Y00955D02*
X02162D01*
X02163Y00955*
X02163Y00955*
X02164Y00954*
X02165Y00954*
X02165Y00954*
X02166Y00954*
X02166*
X02166Y00954*
X02166Y00954*
X02166Y00954*
X02167Y00953*
X02167Y00953*
X02168Y00953*
X02168Y00952*
X02169Y00952*
Y00952*
X02169Y00952*
X02169Y00951*
X02169Y00951*
X02169Y0095*
X02169Y0095*
X02169Y00949*
X0217Y00949*
X0217Y00948*
Y00948*
Y00948*
Y00948*
X0217Y00947*
Y00947*
X0217Y00947*
X02169Y00946*
X02169Y00946*
X02169Y00945*
X02168Y00944*
X02168Y00944*
X02168Y00943*
X02168Y00943*
X02168Y00943*
X02168Y00943*
X02168Y00943*
X02167Y00943*
X02167Y00943*
X02167Y00942*
X02167Y00942*
X02166Y00942*
X02166Y00942*
X02165Y00942*
X02165Y00942*
X02164Y00941*
X02164Y00941*
X02163Y00941*
X02163Y00941*
X02163Y00941*
X02163Y00941*
X02163Y00941*
X02163Y00941*
X02164Y0094*
X02164Y0094*
X02165Y0094*
X02165Y0094*
X02165Y00939*
X02165Y00939*
X02165Y00939*
X02166Y00938*
X02166Y00938*
X02167Y00937*
X02167Y00936*
X02172Y0093*
X02167*
X02164Y00935*
Y00935*
X02164Y00935*
X02164Y00935*
X02164Y00935*
X02164Y00936*
X02163Y00936*
X02163Y00937*
X02163Y00937*
X02162Y00938*
X02162Y00938*
X02162Y00938*
X02162Y00938*
X02161Y00939*
X02161Y00939*
X02161Y00939*
X0216Y0094*
X0216Y0094*
X0216Y0094*
X0216Y0094*
X0216Y0094*
X0216Y0094*
X02159Y0094*
X02159Y0094*
X02159Y00941*
X02158*
X02158Y00941*
X02158*
X02158Y00941*
X02158Y00941*
X02158*
X02157Y00941*
X02153*
Y0093*
X0215*
Y00955*
X02161*
X02161Y00955*
G37*
G36*
X01387Y0046D02*
X01388D01*
X01388Y0046*
X01389Y0046*
X0139Y0046*
X01391Y0046*
X01393Y0046*
X01393Y0046*
X01394Y00459*
X01394*
X01394Y00459*
X01394Y00459*
X01394Y00459*
X01394Y00459*
X01395Y00459*
X01395Y00459*
X01396Y00458*
X01397Y00458*
X01397Y00457*
X01398Y00456*
Y00456*
X01398Y00456*
X01398Y00456*
X01398Y00456*
X01398Y00456*
X01398Y00455*
X01399Y00455*
X01399Y00455*
X01399Y00454*
X01399Y00453*
X01399Y00452*
X014Y00451*
Y00451*
X01399Y00451*
Y00451*
X01399Y0045*
X01399Y0045*
X01399Y00449*
X01399Y00448*
X01398Y00447*
X01398Y00447*
X01398Y00447*
X01398Y00446*
X01398Y00446*
X01398Y00446*
X01398Y00446*
X01397Y00446*
X01397Y00446*
X01397Y00446*
X01396Y00445*
X01395Y00445*
X01394Y00445*
X01393Y00444*
X01393Y00447*
X01393*
X01393Y00447*
X01393*
X01393Y00447*
X01394Y00447*
X01394Y00448*
X01395Y00448*
X01395Y00448*
X01396Y00448*
X01396Y00449*
X01396Y00449*
X01396Y00449*
X01396Y00449*
X01396Y00449*
X01397Y0045*
X01397Y0045*
X01397Y00451*
X01397Y00451*
Y00452*
X01397Y00452*
X01397Y00452*
X01397Y00453*
X01397Y00453*
X01397Y00454*
X01396Y00454*
X01396Y00454*
X01396Y00454*
X01396Y00454*
X01396Y00455*
X01396Y00455*
X01395Y00455*
X01395Y00455*
X01395Y00456*
X01395Y00456*
X01394Y00456*
X01394Y00456*
X01394Y00456*
X01393Y00456*
X01393Y00456*
X01392Y00457*
X01392Y00457*
X01392*
X01392Y00457*
X01391*
X01391Y00457*
X01391Y00457*
X0139Y00457*
X0139Y00457*
X01389Y00457*
X01389Y00457*
X01388Y00457*
X01388*
X01388*
X01387*
X01387*
X01387Y00457*
X01387Y00457*
X01388Y00457*
X01388Y00457*
X01388Y00456*
X01389Y00456*
X01389Y00455*
X0139Y00455*
X0139Y00455*
X0139Y00454*
X0139Y00454*
X0139Y00454*
X0139Y00453*
X0139Y00453*
X0139Y00452*
X01391Y00451*
Y00451*
X0139Y00451*
X0139Y0045*
X0139Y0045*
X0139Y0045*
X0139Y00449*
X0139Y00449*
X0139Y00448*
X0139Y00448*
X01389Y00447*
X01389Y00447*
X01389Y00446*
X01388Y00446*
X01388Y00446*
X01388Y00446*
X01388Y00446*
X01388Y00446*
X01388Y00445*
X01387Y00445*
X01387Y00445*
X01387Y00445*
X01386Y00445*
X01386Y00445*
X01385Y00444*
X01385Y00444*
X01384Y00444*
X01384Y00444*
X01383Y00444*
X01382Y00444*
X01382*
X01382*
X01382*
X01382Y00444*
X01381Y00444*
X01381Y00444*
X01381Y00444*
X0138Y00444*
X01379Y00444*
X01379Y00445*
X01378Y00445*
X01378Y00445*
X01377Y00445*
X01377Y00446*
X01376Y00446*
X01376Y00446*
X01376Y00446*
X01376Y00446*
X01376Y00446*
X01376Y00447*
X01375Y00447*
X01375Y00447*
X01375Y00448*
X01375Y00448*
X01375Y00448*
X01374Y00449*
X01374Y0045*
X01374Y00451*
X01374Y00451*
X01374Y00452*
Y00452*
X01374Y00452*
Y00452*
X01374Y00453*
X01374Y00453*
X01374Y00454*
X01374Y00455*
X01375Y00455*
X01375Y00456*
Y00456*
X01375Y00456*
X01375Y00456*
X01375Y00457*
X01376Y00457*
X01376Y00457*
X01377Y00458*
X01377Y00458*
X01378Y00459*
X01379Y00459*
X01379*
X01379Y00459*
X01379Y00459*
X01379Y00459*
X0138Y0046*
X0138Y0046*
X0138Y0046*
X01381Y0046*
X01381Y0046*
X01382Y0046*
X01382Y0046*
X01383Y0046*
X01384Y0046*
X01384Y0046*
X01385Y0046*
X01386*
X01386*
X01386*
X01386*
X01387*
X01387Y0046*
G37*
G36*
X01391Y00441D02*
X01391Y00441D01*
X01392Y00441*
X01392Y00441*
X01393Y00441*
X01393Y0044*
X01393Y0044*
X01394Y0044*
X01395Y00439*
X01396Y00439*
X01396Y00438*
X01397Y00438*
X01397Y00437*
X01397Y00437*
X01397Y00437*
X01398Y00437*
X01398Y00437*
X01398Y00436*
X01398Y00436*
X01398Y00436*
X01398Y00435*
X01399Y00435*
X01399Y00434*
X01399Y00434*
X01399Y00433*
X01399Y00433*
X01399Y00432*
X01399Y00431*
X014Y00431*
Y0043*
X01399Y0043*
Y0043*
X01399Y00429*
X01399Y00429*
X01399Y00428*
X01399Y00427*
X01399Y00426*
X01398Y00425*
X01398Y00424*
X01398Y00424*
X01398Y00424*
X01398Y00424*
X01398Y00424*
X01398Y00424*
X01397Y00423*
X01397Y00423*
X01397Y00423*
X01397Y00422*
X01396Y00422*
X01396Y00422*
X01395Y00421*
X01394Y00421*
X01393Y0042*
X01393*
X01393Y0042*
X01393Y0042*
X01393Y0042*
X01392Y0042*
X01392Y0042*
X01391Y00419*
X01391Y00419*
X01391Y00419*
X0139Y00419*
X01389Y00419*
X01388Y00419*
X01386Y00419*
X01386*
X01386*
X01386*
X01386Y00419*
X01385*
X01385Y00419*
X01384Y00419*
X01384Y00419*
X01383Y00419*
X01382Y00419*
X01381Y0042*
X01379Y0042*
X01379Y0042*
X01379Y0042*
X01379Y0042*
X01379Y00421*
X01379Y00421*
X01378Y00421*
X01378Y00421*
X01377Y00422*
X01376Y00423*
X01376Y00423*
X01375Y00424*
X01375Y00425*
X01375Y00425*
X01375Y00425*
X01375Y00425*
X01375Y00425*
X01374Y00426*
X01374Y00426*
X01374Y00426*
X01374Y00427*
X01374Y00427*
X01374Y00428*
X01374Y00429*
X01373Y00431*
Y00431*
X01373Y00431*
X01374Y00432*
X01374Y00432*
X01374Y00432*
X01374Y00433*
X01374Y00434*
X01374Y00435*
X01374Y00435*
X01375Y00436*
X01375Y00436*
X01375Y00437*
X01375Y00437*
X01375Y00437*
X01376Y00437*
X01376Y00437*
X01376Y00438*
X01376Y00438*
X01376Y00438*
X01377Y00438*
X01377Y00439*
X01378Y00439*
X01378Y00439*
X01378Y0044*
X01379Y0044*
X0138Y0044*
X0138Y0044*
X01381Y00441*
X01382Y00437*
X01382*
X01381Y00437*
X01381Y00437*
X01381Y00437*
X01381Y00437*
X01381Y00437*
X0138Y00437*
X01379Y00436*
X01379Y00436*
X01378Y00435*
X01378Y00435*
X01377Y00435*
X01377Y00434*
X01377Y00434*
X01377Y00434*
X01377Y00433*
X01376Y00432*
X01376Y00431*
X01376Y00431*
Y0043*
X01376Y0043*
Y0043*
X01376Y00429*
X01376Y00429*
X01377Y00428*
X01377Y00427*
X01377Y00426*
X01378Y00426*
Y00426*
X01378Y00426*
X01378Y00425*
X01378Y00425*
X01379Y00425*
X01379Y00424*
X0138Y00424*
X01381Y00423*
X01381Y00423*
X01381*
X01382Y00423*
X01382Y00423*
X01382Y00423*
X01382Y00423*
X01382Y00423*
X01383Y00423*
X01384Y00422*
X01384Y00422*
X01385Y00422*
X01386Y00422*
X01386*
X01386*
X01387*
X01387*
X01387Y00422*
X01387*
X01388Y00422*
X01388Y00422*
X01389Y00422*
X0139Y00423*
X01391Y00423*
X01392Y00423*
X01392*
X01392Y00423*
X01392Y00423*
X01392Y00423*
X01393Y00423*
X01393Y00424*
X01394Y00424*
X01394Y00425*
X01395Y00425*
X01396Y00426*
Y00426*
X01396Y00426*
X01396Y00426*
X01396Y00426*
X01396Y00427*
X01396Y00427*
X01396Y00427*
X01396Y00428*
X01396Y00429*
X01397Y00429*
X01397Y0043*
Y00431*
X01397Y00431*
Y00431*
X01397Y00431*
X01396Y00432*
X01396Y00433*
X01396Y00433*
X01396Y00434*
X01395Y00435*
X01395Y00435*
X01395Y00435*
X01395Y00435*
X01395Y00435*
X01395Y00435*
X01395Y00435*
X01394Y00436*
X01394Y00436*
X01394Y00436*
X01394Y00436*
X01393Y00437*
X01393Y00437*
X01392Y00437*
X01392Y00437*
X01391Y00437*
X01391Y00437*
X0139Y00438*
X01391Y00441*
X01391*
X01391Y00441*
G37*
G36*
X01378Y00791D02*
X01378D01*
X01379Y00791*
X01379Y00791*
X0138Y00791*
X01382Y00791*
X01383Y00791*
X01383Y00791*
X01384Y0079*
X01384*
X01384Y0079*
X01384Y0079*
X01384Y0079*
X01385Y0079*
X01385Y0079*
X01385Y0079*
X01386Y00789*
X01387Y00789*
X01387Y00788*
X01388Y00788*
Y00788*
X01388Y00788*
X01388Y00788*
X01388Y00787*
X01388Y00787*
X01389Y00787*
X01389Y00787*
X01389Y00786*
X01389Y00785*
X01389Y00784*
X0139Y00783*
Y00783*
X01389Y00783*
X01389Y00782*
X01389Y00782*
X01389Y00782*
X01389Y00781*
X01389Y00781*
X01389Y0078*
X01389Y0078*
X01388Y00779*
X01388Y00779*
X01388Y00778*
X01387Y00778*
X01387Y00777*
X01387Y00777*
X01387Y00777*
X01387Y00777*
X01386Y00777*
X01386Y00777*
X01386Y00777*
X01385Y00776*
X01384Y00776*
X01384Y00776*
X01383Y00776*
X01382Y00776*
X01381Y00775*
X0138Y00775*
X01379Y00775*
X01378Y00775*
X01377Y00775*
X01377*
X01376*
X01376*
X01376*
X01376Y00775*
X01375*
X01375Y00775*
X01374Y00775*
X01373Y00775*
X01372Y00775*
X01371Y00776*
X0137Y00776*
X01369Y00776*
X01369*
X01369Y00776*
X01369Y00776*
X01369Y00776*
X01369Y00776*
X01369Y00776*
X01368Y00777*
X01367Y00777*
X01367Y00777*
X01366Y00778*
X01365Y00779*
Y00779*
X01365Y00779*
X01365Y00779*
X01365Y00779*
X01365Y00779*
X01365Y00779*
X01364Y0078*
X01364Y00781*
X01364Y00781*
X01364Y00782*
X01364Y00783*
Y00784*
X01364Y00784*
X01364Y00784*
X01364Y00785*
X01364Y00786*
X01364Y00786*
X01365Y00787*
Y00787*
X01365Y00787*
X01365Y00787*
X01365Y00787*
X01365Y00788*
X01366Y00788*
X01366Y00788*
X01366Y00789*
X01367Y00789*
X01367Y00789*
X01367Y00789*
X01368Y0079*
X01368Y0079*
X01369Y0079*
X01369Y0079*
X0137Y00791*
X01371Y00791*
X01371*
X01371Y00791*
X01371Y00791*
X01371Y00791*
X01371Y00791*
X01372Y00791*
X01372Y00791*
X01372Y00791*
X01373Y00791*
X01373Y00791*
X01374Y00791*
X01374Y00791*
X01375Y00791*
X01375*
X01376Y00791*
X01377*
X01377*
X01377*
X01377*
X01377*
X01378Y00791*
G37*
G36*
X01389Y00764D02*
X01369D01*
X01369Y00764*
X0137Y00764*
X0137Y00764*
X0137Y00763*
X0137Y00763*
X01371Y00762*
X01371Y00762*
X01372Y00761*
Y00761*
X01372Y00761*
X01372Y00761*
X01372Y0076*
X01372Y0076*
X01372Y00759*
X01373Y00759*
X01373Y00758*
X01373Y00758*
X0137*
Y00758*
X0137Y00758*
X0137Y00758*
X0137Y00758*
X0137Y00758*
X0137Y00759*
X01369Y00759*
X01369Y0076*
X01368Y00761*
X01368Y00762*
X01367Y00762*
X01367Y00762*
X01367Y00762*
X01367Y00762*
X01367Y00763*
X01366Y00763*
X01366Y00763*
X01366Y00764*
X01365Y00764*
X01364Y00765*
X01364Y00765*
Y00767*
X01389*
Y00764*
G37*
G36*
X01381Y00753D02*
X01381Y00752D01*
X01382Y00752*
X01382Y00752*
X01383Y00752*
X01383Y00752*
X01383Y00752*
X01384Y00751*
X01385Y00751*
X01386Y0075*
X01386Y0075*
X01387Y00749*
X01387Y00749*
X01387Y00749*
X01387Y00749*
X01388Y00748*
X01388Y00748*
X01388Y00748*
X01388Y00748*
X01388Y00747*
X01388Y00747*
X01389Y00746*
X01389Y00746*
X01389Y00745*
X01389Y00745*
X01389Y00744*
X01389Y00744*
X01389Y00743*
X0139Y00742*
Y00742*
X01389Y00741*
Y00741*
X01389Y00741*
X01389Y0074*
X01389Y0074*
X01389Y00739*
X01389Y00738*
X01388Y00737*
X01388Y00736*
X01388Y00735*
X01388Y00735*
X01388Y00735*
X01388Y00735*
X01388Y00735*
X01387Y00735*
X01387Y00735*
X01387Y00734*
X01387Y00734*
X01386Y00734*
X01386Y00733*
X01385Y00733*
X01384Y00732*
X01383Y00732*
X01383*
X01383Y00732*
X01383Y00731*
X01383Y00731*
X01382Y00731*
X01382Y00731*
X01381Y00731*
X01381Y00731*
X01381Y00731*
X0138Y00731*
X01379Y00731*
X01378Y0073*
X01376Y0073*
X01376*
X01376*
X01376*
X01376Y0073*
X01375*
X01375Y0073*
X01374Y0073*
X01374Y0073*
X01373Y00731*
X01372Y00731*
X01371Y00731*
X01369Y00732*
X01369Y00732*
X01369Y00732*
X01369Y00732*
X01369Y00732*
X01369Y00732*
X01368Y00732*
X01368Y00733*
X01367Y00733*
X01366Y00734*
X01366Y00735*
X01365Y00736*
X01365Y00736*
X01365Y00736*
X01365Y00736*
X01365Y00737*
X01365Y00737*
X01364Y00737*
X01364Y00737*
X01364Y00738*
X01364Y00738*
X01364Y00739*
X01364Y0074*
X01364Y00741*
X01363Y00742*
Y00743*
X01363Y00743*
X01364Y00743*
X01364Y00744*
X01364Y00744*
X01364Y00744*
X01364Y00745*
X01364Y00746*
X01364Y00747*
X01365Y00748*
X01365Y00748*
X01365Y00749*
X01365Y00749*
X01365Y00749*
X01366Y00749*
X01366Y00749*
X01366Y00749*
X01366Y00749*
X01366Y0075*
X01367Y0075*
X01367Y0075*
X01368Y00751*
X01368Y00751*
X01368Y00751*
X01369Y00751*
X0137Y00752*
X0137Y00752*
X01371Y00752*
X01372Y00749*
X01372*
X01371Y00749*
X01371Y00749*
X01371Y00749*
X01371Y00749*
X01371Y00748*
X0137Y00748*
X01369Y00748*
X01369Y00747*
X01368Y00747*
X01368Y00746*
X01367Y00746*
X01367Y00746*
X01367Y00746*
X01367Y00745*
X01367Y00745*
X01366Y00744*
X01366Y00743*
X01366Y00742*
Y00742*
X01366Y00742*
Y00741*
X01366Y00741*
X01366Y0074*
X01367Y0074*
X01367Y00739*
X01367Y00738*
X01368Y00737*
Y00737*
X01368Y00737*
X01368Y00737*
X01368Y00737*
X01369Y00736*
X01369Y00736*
X0137Y00735*
X01371Y00735*
X01371Y00734*
X01371*
X01372Y00734*
X01372Y00734*
X01372Y00734*
X01372Y00734*
X01372Y00734*
X01373Y00734*
X01374Y00734*
X01374Y00734*
X01375Y00734*
X01376Y00734*
X01376*
X01376*
X01377*
X01377*
X01377Y00734*
X01377*
X01378Y00734*
X01378Y00734*
X01379Y00734*
X0138Y00734*
X01381Y00734*
X01382Y00735*
X01382*
X01382Y00735*
X01382Y00735*
X01382Y00735*
X01383Y00735*
X01383Y00735*
X01384Y00736*
X01384Y00736*
X01385Y00737*
X01386Y00738*
Y00738*
X01386Y00738*
X01386Y00738*
X01386Y00738*
X01386Y00738*
X01386Y00738*
X01386Y00739*
X01386Y00739*
X01386Y0074*
X01387Y00741*
X01387Y00742*
Y00742*
X01387Y00742*
Y00743*
X01387Y00743*
X01386Y00743*
X01386Y00744*
X01386Y00745*
X01386Y00746*
X01385Y00746*
X01385Y00747*
X01385Y00747*
X01385Y00747*
X01385Y00747*
X01385Y00747*
X01385Y00747*
X01384Y00747*
X01384Y00747*
X01384Y00748*
X01384Y00748*
X01383Y00748*
X01383Y00748*
X01382Y00749*
X01382Y00749*
X01381Y00749*
X01381Y00749*
X0138Y00749*
X01381Y00753*
X01381*
X01381Y00753*
G37*
G36*
X00813Y02969D02*
X00814D01*
X00814Y02969*
X00815Y02969*
X00815Y02969*
X00816Y02968*
X00817Y02968*
X00818Y02968*
X0082Y02967*
X0082Y02967*
X0082Y02967*
X0082Y02967*
X0082Y02967*
X0082Y02967*
X00821Y02967*
X00821Y02966*
X00822Y02966*
X00823Y02965*
X00823Y02964*
X00824Y02963*
X00824Y02963*
X00824Y02963*
X00824Y02963*
X00824Y02962*
X00824Y02962*
X00825Y02962*
X00825Y02962*
X00825Y02961*
X00825Y02961*
X00825Y0296*
X00825Y02959*
X00825Y02958*
X00826Y02957*
Y02956*
X00826Y02956*
X00825Y02956*
X00825Y02956*
X00825Y02955*
X00825Y02955*
X00825Y02954*
X00825Y02953*
X00825Y02952*
X00824Y02952*
X00824Y02951*
X00824Y0295*
X00824Y0295*
X00824Y0295*
X00823Y0295*
X00823Y0295*
X00823Y0295*
X00823Y0295*
X00823Y02949*
X00822Y02949*
X00822Y02949*
X00821Y02948*
X00821Y02948*
X00821Y02948*
X0082Y02948*
X00819Y02947*
X00819Y02947*
X00818Y02947*
X00817Y0295*
X00817*
X00818Y0295*
X00818Y0295*
X00818Y0295*
X00818Y0295*
X00818Y02951*
X00819Y02951*
X0082Y02951*
X0082Y02952*
X00821Y02952*
X00821Y02953*
X00822Y02953*
X00822Y02953*
X00822Y02953*
X00822Y02954*
X00822Y02954*
X00823Y02955*
X00823Y02956*
X00823Y02957*
Y02957*
X00823Y02957*
Y02958*
X00823Y02958*
X00823Y02959*
X00822Y02959*
X00822Y0296*
X00822Y02961*
X00821Y02962*
Y02962*
X00821Y02962*
X00821Y02962*
X00821Y02962*
X0082Y02963*
X0082Y02963*
X00819Y02964*
X00818Y02964*
X00818Y02965*
X00818*
X00817Y02965*
X00817Y02965*
X00817Y02965*
X00817Y02965*
X00817Y02965*
X00816Y02965*
X00815Y02965*
X00815Y02965*
X00814Y02965*
X00813Y02965*
X00813*
X00813*
X00812*
X00812*
X00812Y02965*
X00812*
X00811Y02965*
X00811Y02965*
X0081Y02965*
X00809Y02965*
X00808Y02965*
X00807Y02964*
X00807*
X00807Y02964*
X00807Y02964*
X00807Y02964*
X00806Y02964*
X00806Y02964*
X00805Y02963*
X00805Y02963*
X00804Y02962*
X00804Y02961*
Y02961*
X00803Y02961*
X00803Y02961*
X00803Y02961*
X00803Y02961*
X00803Y02961*
X00803Y0296*
X00803Y0296*
X00803Y02959*
X00802Y02958*
X00802Y02957*
Y02957*
X00802Y02957*
Y02956*
X00802Y02956*
X00803Y02956*
X00803Y02955*
X00803Y02954*
X00803Y02953*
X00804Y02953*
X00804Y02952*
X00804Y02952*
X00804Y02952*
X00804Y02952*
X00804Y02952*
X00804Y02952*
X00805Y02952*
X00805Y02952*
X00805Y02951*
X00805Y02951*
X00806Y02951*
X00806Y02951*
X00807Y0295*
X00807Y0295*
X00808Y0295*
X00808Y0295*
X00809Y0295*
X00808Y02946*
X00808*
X00808Y02946*
X00808Y02947*
X00807Y02947*
X00807Y02947*
X00806Y02947*
X00806Y02947*
X00806Y02947*
X00805Y02948*
X00804Y02948*
X00803Y02949*
X00803Y02949*
X00802Y0295*
X00802Y0295*
X00802Y0295*
X00802Y0295*
X00801Y02951*
X00801Y02951*
X00801Y02951*
X00801Y02951*
X00801Y02952*
X00801Y02952*
X008Y02953*
X008Y02953*
X008Y02954*
X008Y02954*
X008Y02955*
X008Y02955*
X008Y02956*
X008Y02957*
Y02957*
X008Y02958*
Y02958*
X008Y02958*
X008Y02959*
X008Y02959*
X008Y0296*
X008Y02961*
X00801Y02962*
X00801Y02963*
X00801Y02964*
X00801Y02964*
X00801Y02964*
X00801Y02964*
X00801Y02964*
X00802Y02964*
X00802Y02964*
X00802Y02965*
X00802Y02965*
X00803Y02965*
X00803Y02966*
X00804Y02966*
X00805Y02967*
X00806Y02967*
X00806*
X00806Y02967*
X00806Y02968*
X00806Y02968*
X00807Y02968*
X00807Y02968*
X00808Y02968*
X00808Y02968*
X00808Y02968*
X00809Y02968*
X0081Y02968*
X00811Y02969*
X00813Y02969*
X00813*
X00813*
X00813*
X00813Y02969*
G37*
G36*
X00819Y02941D02*
X00819Y02941D01*
X00819Y02941*
X00819Y02941*
X00819Y02941*
X00819Y0294*
X0082Y0294*
X0082Y02939*
X00821Y02938*
X00821Y02937*
X00822Y02937*
X00822Y02937*
X00822Y02937*
X00822Y02937*
X00822Y02936*
X00823Y02936*
X00823Y02936*
X00823Y02935*
X00824Y02935*
X00825Y02934*
X00825Y02934*
Y02932*
X008*
Y02935*
X0082*
X0082Y02935*
X00819Y02935*
X00819Y02935*
X00819Y02936*
X00819Y02936*
X00818Y02937*
X00818Y02937*
X00817Y02938*
Y02938*
X00817Y02938*
X00817Y02938*
X00817Y02939*
X00817Y02939*
X00817Y0294*
X00816Y0294*
X00816Y02941*
X00816Y02941*
X00819*
Y02941*
G37*
G36*
Y02922D02*
X00819Y02922D01*
X00819Y02921*
X00819Y02921*
X00819Y02921*
X00819Y02921*
X0082Y0292*
X0082Y02919*
X00821Y02919*
X00821Y02918*
X00822Y02917*
X00822Y02917*
X00822Y02917*
X00822Y02917*
X00822Y02917*
X00823Y02916*
X00823Y02916*
X00823Y02916*
X00824Y02915*
X00825Y02915*
X00825Y02914*
Y02912*
X008*
Y02915*
X0082*
X0082Y02916*
X00819Y02916*
X00819Y02916*
X00819Y02916*
X00819Y02917*
X00818Y02917*
X00818Y02918*
X00817Y02918*
Y02918*
X00817Y02918*
X00817Y02919*
X00817Y02919*
X00817Y0292*
X00817Y0292*
X00816Y02921*
X00816Y02921*
X00816Y02922*
X00819*
Y02922*
G37*
G36*
X01022Y02D02*
X01022Y02D01*
X01023Y02*
X01023Y02*
X01024Y02*
X01024Y01999*
X01025Y01999*
X01025Y01999*
X01026Y01999*
X01026Y01998*
X01027Y01998*
X01027Y01998*
X01027Y01997*
X01027Y01997*
X01027Y01997*
X01028Y01997*
X01028Y01997*
X01028Y01997*
X01028Y01996*
X01028Y01996*
X01029Y01995*
X01029Y01995*
X01029Y01994*
X01029Y01994*
X01029Y01993*
X01029Y01993*
X01029Y01992*
X0103Y01991*
Y01991*
X01029Y01991*
X01029Y01991*
X01029Y0199*
X01029Y0199*
X01029Y01989*
X01029Y01989*
X01029Y01988*
X01028Y01987*
X01028Y01987*
X01028Y01986*
X01028Y01986*
X01028Y01986*
X01027Y01986*
X01027Y01986*
X01027Y01986*
X01027Y01985*
X01027Y01985*
X01026Y01985*
X01026Y01985*
X01026Y01985*
X01025Y01984*
X01025Y01984*
X01024Y01984*
X01023Y01984*
X01022Y01983*
X01022Y01987*
X01022*
X01022Y01987*
X01022Y01987*
X01022Y01987*
X01023Y01987*
X01023Y01987*
X01023Y01987*
X01024Y01987*
X01025Y01988*
X01025Y01988*
X01026Y01988*
X01026Y01988*
X01026Y01989*
X01026Y01989*
X01026Y01989*
X01027Y0199*
X01027Y0199*
X01027Y01991*
X01027Y01991*
Y01992*
X01027Y01992*
X01027Y01992*
X01027Y01993*
X01027Y01993*
X01026Y01994*
X01026Y01995*
X01025Y01995*
X01025Y01995*
X01025Y01995*
X01025Y01996*
X01024Y01996*
X01024Y01996*
X01023Y01996*
X01023Y01997*
X01022Y01997*
X01022*
X01022*
X01021*
X01021Y01997*
X01021Y01997*
X0102Y01996*
X0102Y01996*
X01019Y01996*
X01019Y01996*
X01018Y01995*
X01018Y01995*
X01018Y01995*
X01018Y01995*
X01017Y01994*
X01017Y01994*
X01017Y01993*
X01017Y01992*
X01017Y01992*
Y01991*
X01017Y01991*
X01017Y01991*
X01017Y0199*
X01017Y0199*
X01017Y0199*
X01014Y0199*
Y0199*
X01014Y0199*
Y01991*
X01014Y01991*
X01014Y01992*
X01014Y01992*
X01014Y01993*
X01014Y01993*
X01013Y01994*
Y01994*
X01013Y01994*
X01013Y01994*
X01013Y01994*
X01013Y01995*
X01012Y01995*
X01012Y01995*
X01011Y01995*
X01011Y01996*
X0101*
X0101*
X0101*
X0101*
X0101Y01995*
X01009Y01995*
X01009Y01995*
X01008Y01995*
X01008Y01995*
X01007Y01994*
X01007Y01994*
X01007Y01994*
X01007Y01994*
X01007Y01994*
X01007Y01993*
X01006Y01993*
X01006Y01992*
X01006Y01991*
Y01991*
X01006Y01991*
X01006Y0199*
X01007Y0199*
X01007Y01989*
X01007Y01989*
X01007Y01988*
X01007Y01988*
X01008Y01988*
X01008Y01988*
X01008Y01988*
X01009Y01987*
X01009Y01987*
X0101Y01987*
X01011Y01987*
X0101Y01984*
X0101*
X0101Y01984*
X0101Y01984*
X0101Y01984*
X0101Y01984*
X01009Y01984*
X01009Y01984*
X01008Y01985*
X01007Y01985*
X01006Y01986*
X01005Y01986*
X01005Y01986*
X01005Y01986*
X01005Y01987*
X01005Y01987*
X01005Y01987*
X01005Y01987*
X01005Y01987*
X01005Y01988*
X01004Y01988*
X01004Y01989*
X01004Y0199*
X01004Y01991*
Y01992*
X01004Y01992*
X01004Y01993*
X01004Y01993*
X01004Y01994*
X01004Y01994*
X01005Y01995*
Y01995*
X01005Y01995*
X01005Y01995*
X01005Y01996*
X01005Y01996*
X01006Y01997*
X01006Y01997*
X01007Y01997*
X01007Y01998*
X01007Y01998*
X01007Y01998*
X01008Y01998*
X01008Y01998*
X01009Y01998*
X01009Y01999*
X0101Y01999*
X0101Y01999*
X0101*
X01011*
X01011Y01999*
X01011Y01999*
X01012Y01998*
X01012Y01998*
X01013Y01998*
X01013Y01998*
X01013Y01998*
X01014Y01998*
X01014Y01997*
X01014Y01997*
X01014Y01997*
X01015Y01996*
X01015Y01996*
X01015Y01995*
Y01995*
X01015Y01995*
X01015Y01995*
X01016Y01996*
X01016Y01996*
X01016Y01996*
X01016Y01997*
X01017Y01998*
X01017Y01998*
X01018Y01999*
X01018Y01999*
X01018Y01999*
X01018Y01999*
X01019Y01999*
X01019Y02*
X0102Y02*
X01021Y02*
X01022Y02*
X01022*
X01022*
X01022*
X01022Y02*
G37*
G36*
X01029Y01972D02*
X01009D01*
X01009Y01972*
X0101Y01972*
X0101Y01972*
X0101Y01972*
X0101Y01971*
X01011Y01971*
X01011Y0197*
X01012Y01969*
Y01969*
X01012Y01969*
X01012Y01969*
X01012Y01969*
X01012Y01968*
X01012Y01968*
X01013Y01967*
X01013Y01967*
X01013Y01966*
X0101*
Y01966*
X0101Y01966*
X0101Y01966*
X0101Y01967*
X0101Y01967*
X0101Y01967*
X01009Y01968*
X01009Y01968*
X01008Y01969*
X01008Y0197*
X01007Y01971*
X01007Y01971*
X01007Y01971*
X01007Y01971*
X01007Y01971*
X01006Y01971*
X01006Y01972*
X01006Y01972*
X01005Y01973*
X01004Y01973*
X01004Y01973*
Y01975*
X01029*
Y01972*
G37*
G36*
X01021Y01961D02*
X01021Y01961D01*
X01022Y01961*
X01022Y01961*
X01023Y01961*
X01023Y0196*
X01023Y0196*
X01024Y0196*
X01025Y01959*
X01026Y01959*
X01026Y01958*
X01027Y01958*
X01027Y01957*
X01027Y01957*
X01027Y01957*
X01028Y01957*
X01028Y01957*
X01028Y01956*
X01028Y01956*
X01028Y01956*
X01028Y01955*
X01029Y01955*
X01029Y01954*
X01029Y01954*
X01029Y01953*
X01029Y01953*
X01029Y01952*
X01029Y01951*
X0103Y01951*
Y0195*
X01029Y0195*
Y0195*
X01029Y01949*
X01029Y01949*
X01029Y01948*
X01029Y01947*
X01029Y01946*
X01028Y01945*
X01028Y01944*
X01028Y01944*
X01028Y01944*
X01028Y01944*
X01028Y01944*
X01028Y01944*
X01027Y01943*
X01027Y01943*
X01027Y01943*
X01027Y01942*
X01026Y01942*
X01026Y01942*
X01025Y01941*
X01024Y01941*
X01023Y0194*
X01023*
X01023Y0194*
X01023Y0194*
X01023Y0194*
X01022Y0194*
X01022Y0194*
X01021Y01939*
X01021Y01939*
X01021Y01939*
X0102Y01939*
X01019Y01939*
X01018Y01939*
X01016Y01939*
X01016*
X01016*
X01016*
X01016Y01939*
X01015*
X01015Y01939*
X01014Y01939*
X01014Y01939*
X01013Y01939*
X01012Y01939*
X01011Y0194*
X01009Y0194*
X01009Y0194*
X01009Y0194*
X01009Y0194*
X01009Y01941*
X01009Y01941*
X01008Y01941*
X01008Y01941*
X01007Y01942*
X01006Y01943*
X01006Y01943*
X01005Y01944*
X01005Y01945*
X01005Y01945*
X01005Y01945*
X01005Y01945*
X01005Y01945*
X01004Y01946*
X01004Y01946*
X01004Y01946*
X01004Y01947*
X01004Y01947*
X01004Y01948*
X01004Y01949*
X01003Y01951*
Y01951*
X01003Y01951*
X01004Y01952*
X01004Y01952*
X01004Y01952*
X01004Y01953*
X01004Y01954*
X01004Y01955*
X01004Y01955*
X01005Y01956*
X01005Y01956*
X01005Y01957*
X01005Y01957*
X01005Y01957*
X01006Y01957*
X01006Y01957*
X01006Y01958*
X01006Y01958*
X01006Y01958*
X01007Y01958*
X01007Y01959*
X01008Y01959*
X01008Y01959*
X01008Y0196*
X01009Y0196*
X0101Y0196*
X0101Y0196*
X01011Y01961*
X01012Y01957*
X01012*
X01011Y01957*
X01011Y01957*
X01011Y01957*
X01011Y01957*
X01011Y01957*
X0101Y01957*
X01009Y01956*
X01009Y01956*
X01008Y01955*
X01008Y01955*
X01007Y01955*
X01007Y01954*
X01007Y01954*
X01007Y01954*
X01007Y01953*
X01006Y01952*
X01006Y01951*
X01006Y01951*
Y0195*
X01006Y0195*
Y0195*
X01006Y01949*
X01006Y01949*
X01007Y01948*
X01007Y01947*
X01007Y01946*
X01008Y01946*
Y01946*
X01008Y01946*
X01008Y01945*
X01008Y01945*
X01009Y01945*
X01009Y01944*
X0101Y01944*
X01011Y01943*
X01011Y01943*
X01011*
X01012Y01943*
X01012Y01943*
X01012Y01943*
X01012Y01943*
X01012Y01943*
X01013Y01943*
X01014Y01942*
X01014Y01942*
X01015Y01942*
X01016Y01942*
X01016*
X01016*
X01017*
X01017*
X01017Y01942*
X01017*
X01018Y01942*
X01018Y01942*
X01019Y01942*
X0102Y01943*
X01021Y01943*
X01022Y01943*
X01022*
X01022Y01943*
X01022Y01943*
X01022Y01943*
X01023Y01943*
X01023Y01944*
X01024Y01944*
X01024Y01945*
X01025Y01945*
X01026Y01946*
Y01946*
X01026Y01946*
X01026Y01946*
X01026Y01946*
X01026Y01947*
X01026Y01947*
X01026Y01947*
X01026Y01948*
X01026Y01949*
X01027Y01949*
X01027Y0195*
Y01951*
X01027Y01951*
Y01951*
X01027Y01951*
X01026Y01952*
X01026Y01953*
X01026Y01953*
X01026Y01954*
X01025Y01955*
X01025Y01955*
X01025Y01955*
X01025Y01955*
X01025Y01955*
X01025Y01955*
X01025Y01955*
X01024Y01956*
X01024Y01956*
X01024Y01956*
X01024Y01956*
X01023Y01957*
X01023Y01957*
X01022Y01957*
X01022Y01957*
X01021Y01957*
X01021Y01958*
X0102Y01958*
X01021Y01961*
X01021*
X01021Y01961*
G37*
%LNtachometer-boardv2.5-2*%
%LPC*%
G36*
X00802Y00786D02*
X00782D01*
Y0078*
X00783Y0078*
X00783Y00779*
X00783Y00779*
X00783Y00778*
X00783Y00777*
X00783Y00777*
X00783Y00777*
X00783Y00777*
X00783Y00776*
X00783Y00776*
X00783Y00776*
X00784Y00775*
X00784Y00775*
X00784Y00775*
X00784Y00775*
X00784Y00774*
X00785Y00774*
X00785Y00774*
X00786Y00774*
X00786Y00773*
X00787Y00773*
X00787Y00773*
X00787*
X00788Y00773*
X00788Y00773*
X00788Y00773*
X00788Y00773*
X00788Y00773*
X00788Y00773*
X00789Y00772*
X00789Y00772*
X0079Y00772*
X00791Y00772*
X00792Y00772*
X00792*
X00792*
X00793*
X00793Y00772*
X00793*
X00794Y00772*
X00794Y00772*
X00795Y00772*
X00795Y00772*
X00797Y00773*
X00797Y00773*
X00798Y00773*
X00798Y00773*
X00798*
X00798Y00773*
X00799Y00774*
X00799Y00774*
X00799Y00774*
X00799Y00774*
X008Y00775*
X008Y00775*
X00801Y00776*
X00801Y00777*
X00801Y00777*
X00801Y00777*
X00801Y00777*
X00801Y00778*
X00802Y00778*
X00802Y00779*
X00802Y00779*
Y0078*
X00802Y0078*
Y00786*
G37*
G36*
X0103Y01343D02*
X01019D01*
X0103Y01335*
Y01343*
G37*
G36*
X02096Y02725D02*
X02089D01*
X02088Y02725*
X02088Y02725*
X02087Y02725*
X02087Y02725*
X02086Y02725*
X02085Y02725*
X02085Y02725*
X02085Y02725*
X02085Y02725*
X02085Y02725*
X02084Y02724*
X02084Y02724*
X02084Y02724*
X02083Y02723*
X02083Y02723*
X02083Y02723*
X02083Y02723*
X02083Y02723*
X02083Y02722*
X02083Y02722*
X02083Y02722*
X02083Y02721*
Y02721*
Y02721*
X02083Y02721*
X02083Y02721*
X02083Y0272*
X02083Y0272*
X02083Y02719*
X02084Y02719*
X02084Y02718*
X02084Y02718*
X02084Y02718*
X02085Y02718*
X02085Y02718*
X02086Y02717*
X02086Y02717*
X02087Y02717*
X02088Y02717*
X02096*
Y02725*
G37*
G36*
X01322Y02736D02*
X01302D01*
Y0273*
X01303Y0273*
X01303Y02729*
X01303Y02729*
X01303Y02728*
X01303Y02727*
X01303Y02727*
X01303Y02727*
X01303Y02727*
X01303Y02726*
X01303Y02726*
X01303Y02726*
X01304Y02725*
X01304Y02725*
X01304Y02725*
X01304Y02725*
X01304Y02724*
X01305Y02724*
X01305Y02724*
X01306Y02724*
X01306Y02723*
X01307Y02723*
X01307Y02723*
X01307*
X01308Y02723*
X01308Y02723*
X01308Y02723*
X01308Y02723*
X01308Y02723*
X01308Y02723*
X01309Y02722*
X01309Y02722*
X0131Y02722*
X01311Y02722*
X01312Y02722*
X01312*
X01312*
X01313*
X01313Y02722*
X01313*
X01314Y02722*
X01314Y02722*
X01315Y02722*
X01315Y02722*
X01317Y02723*
X01317Y02723*
X01318Y02723*
X01318Y02723*
X01318*
X01318Y02723*
X01319Y02724*
X01319Y02724*
X01319Y02724*
X01319Y02724*
X0132Y02725*
X0132Y02725*
X01321Y02726*
X01321Y02727*
X01321Y02727*
X01321Y02727*
X01321Y02727*
X01321Y02728*
X01322Y02728*
X01322Y02729*
X01322Y02729*
Y0273*
X01322Y0273*
Y02736*
G37*
G36*
X00519Y02939D02*
X00519D01*
X00519*
X00519Y02939*
X00518Y02939*
X00518Y02939*
X00517Y02939*
X00517Y02939*
X00516Y02939*
X00516Y02938*
X00516Y02938*
X00516Y02938*
X00516Y02938*
X00515Y02938*
X00515Y02937*
X00515Y02937*
X00515Y02936*
X00515Y02935*
Y02935*
X00515Y02935*
X00515Y02935*
X00515Y02934*
X00515Y02934*
X00515Y02933*
X00516Y02933*
X00516Y02932*
X00516Y02932*
X00516Y02932*
X00516Y02932*
X00517Y02932*
X00517Y02932*
X00518Y02931*
X00518Y02931*
X00519Y02931*
X00519*
X00519*
X00519*
X00519Y02931*
X0052Y02931*
X0052Y02932*
X00521Y02932*
X00521Y02932*
X00522Y02932*
X00522Y02932*
X00522Y02933*
X00522Y02933*
X00522Y02933*
X00522Y02934*
X00523Y02934*
X00523Y02935*
X00523Y02935*
Y02936*
X00523Y02936*
X00523Y02936*
X00522Y02937*
X00522Y02937*
X00522Y02938*
X00522Y02938*
X00521Y02938*
X00521Y02939*
X00521Y02939*
X00521Y02939*
X0052Y02939*
X0052Y02939*
X00519Y02939*
X00519Y02939*
G37*
G36*
X00507Y0294D02*
X00507D01*
X00507*
X00507Y0294*
X00506Y0294*
X00506Y0294*
X00506Y0294*
X00505Y0294*
X00505Y0294*
X00505Y0294*
X00504Y0294*
X00504Y0294*
X00504Y02939*
X00504Y02939*
X00503Y02939*
X00503Y02938*
X00503Y02938*
X00503Y02938*
X00503Y02938*
X00502Y02938*
X00502Y02937*
X00502Y02937*
X00502Y02936*
X00502Y02936*
X00502Y02935*
Y02935*
X00502Y02935*
X00502Y02935*
X00502Y02934*
X00502Y02933*
X00503Y02933*
X00503Y02932*
X00503Y02932*
X00504Y02932*
X00504Y02931*
X00504Y02931*
X00504Y02931*
X00505Y02931*
X00506Y0293*
X00506Y0293*
X00507Y0293*
X00507*
X00507*
X00507*
X00507Y0293*
X00508Y0293*
X00508Y0293*
X00509Y02931*
X0051Y02931*
X0051Y02931*
X00511Y02932*
X00511Y02932*
X00511Y02932*
X00511Y02932*
X00512Y02933*
X00512Y02933*
X00512Y02934*
X00512Y02935*
X00512Y02935*
Y02936*
X00512Y02936*
X00512Y02936*
X00512Y02937*
X00512Y02937*
X00512Y02938*
X00511Y02939*
X00511Y02939*
X00511Y02939*
X00511Y02939*
X0051Y02939*
X0051Y0294*
X00509Y0294*
X00509Y0294*
X00508Y0294*
X00507Y0294*
G37*
G36*
X02542Y0092D02*
X02534D01*
Y00909*
X02542Y0092*
G37*
G36*
X01702Y00586D02*
X01694D01*
Y00579*
X01694Y00578*
X01694Y00578*
X01694Y00577*
X01694Y00577*
X01694Y00576*
X01694Y00575*
X01694Y00575*
X01695Y00575*
X01695Y00575*
X01695Y00575*
X01695Y00574*
X01695Y00574*
X01696Y00574*
X01696Y00573*
X01696Y00573*
X01696Y00573*
X01696Y00573*
X01697Y00573*
X01697Y00573*
X01697Y00573*
X01698Y00573*
X01698Y00573*
X01698*
X01698*
X01699Y00573*
X01699Y00573*
X01699Y00573*
X017Y00573*
X017Y00573*
X01701Y00574*
X01701Y00574*
X01701Y00574*
X01701Y00574*
X01702Y00575*
X01702Y00575*
X01702Y00576*
X01702Y00576*
X01702Y00577*
X01702Y00578*
Y00586*
G37*
G36*
X02504Y011D02*
X02496Y01088D01*
X02504*
Y011*
G37*
G36*
X02481Y01102D02*
X02473D01*
Y01094*
X0248*
X02481Y01094*
X02481Y01094*
X02482Y01094*
X02482Y01094*
X02483Y01094*
X02484Y01094*
X02484Y01094*
X02484Y01094*
X02484Y01094*
X02484Y01094*
X02485Y01095*
X02485Y01095*
X02485Y01095*
X02486Y01096*
X02486Y01096*
X02486Y01096*
X02486Y01096*
X02486Y01096*
X02486Y01097*
X02486Y01097*
X02486Y01097*
X02486Y01098*
Y01098*
Y01098*
X02486Y01098*
X02486Y01098*
X02486Y01099*
X02486Y01099*
X02486Y011*
X02485Y011*
X02485Y01101*
X02485Y01101*
X02485Y01101*
X02484Y01101*
X02484Y01101*
X02483Y01102*
X02483Y01102*
X02482Y01102*
X02481Y01102*
G37*
G36*
X02386Y00207D02*
X02386D01*
X02386Y00207*
X02385Y00207*
X02385Y00207*
X02384Y00207*
X02384Y00206*
X02383Y00206*
X02383Y00206*
X02382Y00205*
Y00205*
X02382Y00205*
X02382Y00205*
X02382Y00205*
X02382Y00204*
X02381Y00204*
X02381Y00203*
X02381Y00202*
X02381Y00201*
Y00201*
Y00201*
Y00201*
X02381Y00201*
Y002*
X02381Y002*
X02381Y002*
X02381Y00199*
X02382Y00198*
X02382Y00198*
X02382Y00197*
X02383Y00197*
X02383Y00197*
X02383Y00197*
X02383Y00196*
X02384Y00196*
X02384Y00196*
X02385Y00196*
X02386Y00195*
X02386*
X02386Y00195*
X02387Y00196*
X02387Y00196*
X02388Y00196*
X02388Y00196*
X02389Y00196*
X0239Y00197*
X0239Y00197*
X0239Y00197*
X0239Y00198*
X0239Y00198*
X0239Y00199*
X02391Y00199*
X02391Y002*
X02391Y00201*
Y00201*
Y00201*
X02391Y00201*
X02391Y00202*
X02391Y00202*
X02391Y00203*
X02391Y00203*
X0239Y00204*
X0239Y00204*
X0239Y00204*
X0239Y00204*
X0239Y00205*
X0239Y00205*
X02389Y00206*
X02389Y00206*
X02388Y00206*
X02388Y00206*
X02388Y00206*
X02388Y00206*
X02388Y00207*
X02387Y00207*
X02387Y00207*
X02386Y00207*
X02386Y00207*
G37*
G36*
X01801Y00606D02*
X01801D01*
X01801*
X01801Y00606*
X01801Y00606*
X018Y00606*
X018Y00606*
X01799Y00606*
X01799Y00605*
X01798Y00605*
X01798Y00605*
X01798Y00605*
X01798Y00604*
X01798Y00604*
X01797Y00603*
X01797Y00603*
X01797Y00602*
X01797Y00601*
Y00593*
X01805*
Y006*
X01805Y00601*
X01805Y00601*
X01805Y00602*
X01805Y00602*
X01805Y00603*
X01805Y00604*
X01805Y00604*
X01805Y00604*
X01805Y00604*
X01805Y00604*
X01804Y00605*
X01804Y00605*
X01804Y00605*
X01803Y00606*
X01803Y00606*
X01803Y00606*
X01803Y00606*
X01803Y00606*
X01802Y00606*
X01802Y00606*
X01802Y00606*
X01801Y00606*
G37*
G36*
X00332Y02607D02*
X00332D01*
X00332*
X00332*
X00332Y02607*
X00331*
X00331Y02607*
X00331Y02607*
X0033Y02606*
X00329Y02606*
X00329Y02606*
X00328Y02605*
X00328*
X00328Y02605*
X00328Y02605*
X00327Y02605*
X00327Y02604*
X00327Y02604*
X00327Y02603*
X00326Y02603*
X00326Y02602*
Y02602*
X00326Y02602*
X00326Y02601*
X00327Y02601*
X00327Y026*
X00327Y02599*
X00327Y02599*
X00328Y02599*
X00328Y02598*
X00328*
X00328Y02598*
X00328Y02598*
X00328Y02598*
X00329Y02598*
X00329Y02598*
X0033Y02597*
X00331Y02597*
X00331Y02597*
X00332Y02597*
X00332*
X00333*
X00333*
X00333Y02597*
X00333*
X00333Y02597*
X00334Y02597*
X00334Y02597*
X00335Y02597*
X00336Y02598*
X00336Y02598*
X00336Y02598*
X00337Y02598*
X00337Y02599*
X00337Y02599*
X00337Y026*
X00338Y026*
X00338Y02601*
X00338Y02602*
Y02602*
X00338Y02602*
X00338Y02603*
X00338Y02603*
X00337Y02604*
X00337Y02604*
X00337Y02605*
X00336Y02605*
X00336Y02605*
X00336Y02606*
X00336Y02606*
X00335Y02606*
X00335Y02606*
X00334Y02607*
X00333Y02607*
X00332Y02607*
G37*
G36*
X00331Y02586D02*
X00331D01*
X00331*
X00331Y02586*
X0033Y02586*
X0033Y02586*
X00329Y02586*
X00329Y02586*
X00328Y02585*
X00328Y02585*
X00328Y02585*
X00328Y02585*
X00327Y02584*
X00327Y02584*
X00327Y02583*
X00327Y02583*
X00327Y02582*
X00327Y02581*
Y02573*
X00335*
Y0258*
X00335Y02581*
X00335Y02581*
X00335Y02582*
X00335Y02582*
X00335Y02583*
X00335Y02584*
X00335Y02584*
X00334Y02584*
X00334Y02584*
X00334Y02584*
X00334Y02585*
X00334Y02585*
X00333Y02585*
X00333Y02586*
X00333Y02586*
X00333Y02586*
X00333Y02586*
X00332Y02586*
X00332Y02586*
X00332Y02586*
X00331Y02586*
X00331Y02586*
G37*
G36*
X0018Y02606D02*
X0018D01*
X0018*
X0018*
X0018Y02606*
X00179Y02606*
X00179Y02606*
X00178Y02605*
X00178Y02605*
X00177Y02605*
X00177Y02605*
X00177Y02605*
X00177Y02604*
X00177Y02604*
X00177Y02604*
X00176Y02603*
X00176Y02602*
X00176Y02602*
Y02602*
X00176Y02601*
X00176Y02601*
X00177Y026*
X00177Y026*
X00177Y02599*
X00177Y02599*
X00178Y02599*
X00178Y02599*
X00178Y02599*
X00178Y02598*
X00179Y02598*
X00179Y02598*
X0018Y02598*
X0018Y02598*
X0018*
X0018*
X00181Y02598*
X00181Y02598*
X00181Y02598*
X00182Y02598*
X00182Y02598*
X00183Y02599*
X00183Y02599*
X00183Y02599*
X00183Y02599*
X00183Y02599*
X00184Y026*
X00184Y026*
X00184Y02601*
X00184Y02601*
X00184Y02602*
Y02602*
X00184Y02602*
X00184Y02602*
X00184Y02603*
X00184Y02603*
X00184Y02604*
X00183Y02604*
X00183Y02605*
X00183Y02605*
X00183Y02605*
X00183Y02605*
X00182Y02605*
X00182Y02606*
X00181Y02606*
X00181Y02606*
X0018Y02606*
G37*
G36*
X00192Y02607D02*
X00192D01*
X00192*
X00192*
X00192Y02607*
X00191Y02607*
X00191Y02607*
X0019Y02607*
X00189Y02606*
X00189Y02606*
X00188Y02606*
X00188Y02605*
X00188Y02605*
X00188Y02605*
X00187Y02604*
X00187Y02604*
X00187Y02603*
X00187Y02603*
X00187Y02602*
Y02602*
X00187Y02601*
X00187Y02601*
X00187Y026*
X00187Y026*
X00187Y02599*
X00188Y02599*
X00188Y02598*
X00188Y02598*
X00188Y02598*
X00189Y02598*
X00189Y02597*
X0019Y02597*
X0019Y02597*
X00191Y02597*
X00192Y02597*
X00192*
X00192*
X00192Y02597*
X00193Y02597*
X00193Y02597*
X00193Y02597*
X00194Y02597*
X00194Y02597*
X00194Y02597*
X00195Y02597*
X00195Y02598*
X00195Y02598*
X00195Y02598*
X00196Y02598*
X00196Y02599*
X00196Y02599*
X00196Y02599*
X00196Y02599*
X00197Y026*
X00197Y026*
X00197Y026*
X00197Y02601*
X00197Y02601*
X00197Y02602*
Y02602*
X00197Y02602*
X00197Y02603*
X00197Y02603*
X00197Y02604*
X00196Y02604*
X00196Y02605*
X00196Y02606*
X00195Y02606*
X00195Y02606*
X00195Y02606*
X00195Y02606*
X00194Y02607*
X00193Y02607*
X00193Y02607*
X00192Y02607*
G37*
G36*
X00181Y02586D02*
X00181D01*
X00181*
X00181Y02586*
X0018Y02586*
X0018Y02586*
X00179Y02586*
X00179Y02586*
X00178Y02585*
X00178Y02585*
X00178Y02585*
X00178Y02585*
X00177Y02584*
X00177Y02584*
X00177Y02583*
X00177Y02583*
X00177Y02582*
X00177Y02581*
Y02573*
X00185*
Y0258*
X00185Y02581*
X00185Y02581*
X00185Y02582*
X00185Y02582*
X00185Y02583*
X00185Y02584*
X00185Y02584*
X00184Y02584*
X00184Y02584*
X00184Y02584*
X00184Y02585*
X00184Y02585*
X00183Y02585*
X00183Y02586*
X00183Y02586*
X00183Y02586*
X00183Y02586*
X00182Y02586*
X00182Y02586*
X00182Y02586*
X00181Y02586*
X00181Y02586*
G37*
G36*
X02466Y01205D02*
X02459D01*
X02458Y01205*
X02458Y01205*
X02457Y01205*
X02457Y01205*
X02456Y01205*
X02455Y01205*
X02455Y01205*
X02455Y01204*
X02455Y01204*
X02455Y01204*
X02454Y01204*
X02454Y01204*
X02454Y01203*
X02453Y01203*
X02453Y01203*
X02453Y01203*
X02453Y01203*
X02453Y01202*
X02453Y01202*
X02453Y01202*
X02453Y01201*
X02453Y01201*
Y01201*
Y01201*
X02453Y01201*
X02453Y012*
X02453Y012*
X02453Y01199*
X02453Y01199*
X02454Y01198*
X02454Y01198*
X02454Y01198*
X02454Y01198*
X02455Y01197*
X02455Y01197*
X02456Y01197*
X02456Y01197*
X02457Y01197*
X02458Y01197*
X02466*
Y01205*
G37*
G36*
X02161Y00952D02*
X02153D01*
Y00944*
X0216*
X02161Y00944*
X02161Y00944*
X02162Y00944*
X02162Y00944*
X02163Y00944*
X02164Y00944*
X02164Y00944*
X02164Y00944*
X02164Y00944*
X02164Y00944*
X02165Y00945*
X02165Y00945*
X02165Y00945*
X02166Y00946*
X02166Y00946*
X02166Y00946*
X02166Y00946*
X02166Y00946*
X02166Y00947*
X02166Y00947*
X02166Y00947*
X02166Y00948*
Y00948*
Y00948*
X02166Y00948*
X02166Y00948*
X02166Y00949*
X02166Y00949*
X02166Y0095*
X02165Y0095*
X02165Y00951*
X02165Y00951*
X02165Y00951*
X02164Y00951*
X02164Y00951*
X02163Y00952*
X02163Y00952*
X02162Y00952*
X02161Y00952*
G37*
G36*
X01382Y00457D02*
X01382D01*
X01382*
X01382*
X01382Y00457*
X01381*
X01381Y00457*
X01381Y00457*
X0138Y00457*
X01379Y00456*
X01379Y00456*
X01378Y00456*
X01378*
X01378Y00455*
X01378Y00455*
X01377Y00455*
X01377Y00455*
X01377Y00454*
X01377Y00454*
X01376Y00453*
X01376Y00452*
Y00452*
X01376Y00452*
X01376Y00451*
X01377Y00451*
X01377Y0045*
X01377Y0045*
X01377Y00449*
X01378Y00449*
X01378Y00448*
X01378*
X01378Y00448*
X01378Y00448*
X01378Y00448*
X01379Y00448*
X01379Y00448*
X0138Y00447*
X01381Y00447*
X01381Y00447*
X01382Y00447*
X01382*
X01383*
X01383*
X01383Y00447*
X01383*
X01383Y00447*
X01384Y00447*
X01384Y00447*
X01385Y00448*
X01386Y00448*
X01386Y00448*
X01386Y00448*
X01387Y00449*
X01387Y00449*
X01387Y00449*
X01387Y0045*
X01388Y00451*
X01388Y00451*
X01388Y00452*
Y00452*
X01388Y00452*
X01388Y00453*
X01388Y00453*
X01387Y00454*
X01387Y00454*
X01387Y00455*
X01386Y00456*
X01386Y00456*
X01386Y00456*
X01386Y00456*
X01385Y00456*
X01385Y00457*
X01384Y00457*
X01383Y00457*
X01382Y00457*
G37*
G36*
X01378Y00788D02*
X01377D01*
X01377*
X01377*
X01376*
X01376*
X01376Y00788*
X01375*
X01375Y00788*
X01374Y00788*
X01373Y00788*
X01372Y00788*
X01371Y00788*
X01371Y00788*
X0137Y00788*
X01369Y00787*
X01369Y00787*
X01368Y00787*
X01368*
X01368Y00787*
X01368Y00787*
X01368Y00787*
X01368Y00786*
X01367Y00786*
X01367Y00785*
X01367Y00785*
X01366Y00784*
X01366Y00784*
X01366Y00784*
X01366Y00783*
Y00783*
X01366Y00783*
X01366Y00782*
X01367Y00782*
X01367Y00781*
X01367Y00781*
X01367Y00781*
X01368Y0078*
X01368Y0078*
X01368Y0078*
X01368*
X01368Y0078*
X01368Y0078*
X01369Y00779*
X01369Y00779*
X01369Y00779*
X0137Y00779*
X0137Y00779*
X01371Y00779*
X01371Y00779*
X01372Y00779*
X01373Y00778*
X01374Y00778*
X01375Y00778*
X01376Y00778*
X01377Y00778*
X01377*
X01377*
X01377*
X01378Y00778*
X01378*
X01379Y00778*
X01379Y00778*
X0138Y00778*
X01381Y00779*
X01382Y00779*
X01383Y00779*
X01383Y00779*
X01384Y00779*
X01384Y00779*
X01385Y0078*
X01385*
X01385Y0078*
X01385Y0078*
X01386Y0078*
X01386Y00781*
X01386Y00781*
X01387Y00782*
X01387Y00782*
X01387Y00783*
X01387Y00783*
Y00783*
X01387Y00784*
X01387Y00784*
X01387Y00784*
X01386Y00785*
X01386Y00786*
X01386Y00786*
X01386Y00786*
X01385Y00786*
X01385Y00787*
X01385*
X01385Y00787*
X01385Y00787*
X01385Y00787*
X01384Y00787*
X01384Y00787*
X01384Y00787*
X01383Y00788*
X01383Y00788*
X01382Y00788*
X01381Y00788*
X01381Y00788*
X0138Y00788*
X01379Y00788*
X01378Y00788*
G37*
%LNtachometer-boardv2.5-3*%
%LPD*%
G54D12*
X00888Y0033D02*
Y01249D01*
X00671Y0033D02*
X00888D01*
X00671D02*
Y01249D01*
X00888*
X01874Y02684D02*
X02325D01*
X01874D02*
Y02795D01*
X02325*
Y02684D02*
Y02795D01*
X01408Y0228D02*
Y03199D01*
X01191Y0228D02*
X01408D01*
X01191D02*
Y03199D01*
X01408*
X02286Y00824D02*
X02693D01*
X02286Y00455D02*
Y00824D01*
Y00455D02*
X02693D01*
Y00824*
X02695Y00874D02*
Y00985D01*
X02444D02*
X02695D01*
X02444Y00874D02*
Y00985D01*
Y00874D02*
X02695D01*
X02294Y00294D02*
Y00405D01*
Y00294D02*
X02545D01*
Y00405*
X02294D02*
X02545D01*
X01624Y00815D02*
X01735D01*
X01624Y00364D02*
Y00815D01*
Y00364D02*
X01735D01*
Y00815*
X02244Y01024D02*
Y01135D01*
Y01024D02*
X02695D01*
Y01135*
X02244D02*
X02695D01*
X02545Y00154D02*
Y00265D01*
X02294D02*
X02545D01*
X02294Y00154D02*
Y00265D01*
Y00154D02*
X02545D01*
X01764Y00364D02*
X01875D01*
Y00815*
X01764D02*
X01875D01*
X01764Y00364D02*
Y00815D01*
X00294Y02344D02*
X00405D01*
Y02795*
X00294D02*
X00405D01*
X00294Y02344D02*
Y02795D01*
X00474Y02264D02*
Y02375D01*
Y02264D02*
X00725D01*
Y02375*
X00474D02*
X00725D01*
X00446Y02435D02*
X00853D01*
Y02804*
X00446D02*
X00853D01*
X00446Y02435D02*
Y02804D01*
X00144Y02344D02*
X00255D01*
Y02795*
X00144D02*
X00255D01*
X00144Y02344D02*
Y02795D01*
X02695Y01164D02*
Y01275D01*
X02244D02*
X02695D01*
X02244Y01164D02*
Y01275D01*
Y01164D02*
X02695D01*
X00058Y00886D02*
X00426D01*
Y02013*
X00058D02*
X00426D01*
X00058Y00886D02*
Y02013D01*
X01924Y00874D02*
Y00985D01*
Y00874D02*
X02375D01*
Y00985*
X01924D02*
X02375D01*
M02*