%FSTAX23Y23*%
%MOIN*%
%SFA1B1*%

%IPPOS*%
%ADD12C,0.007870*%
%LNtachometer-boardv2.5-1*%
%LPD*%
G54D12*
X0104Y01427D02*
D01*
X0103Y01426*
X0102Y01425*
X01011Y01423*
X01002Y01421*
X00992Y01418*
X00983Y01415*
X00975Y0141*
X00966Y01406*
X00959Y014*
X00951Y01394*
X00944Y01388*
X00937Y01381*
X00931Y01374*
X00925Y01366*
X0092Y01358*
X00916Y01349*
X00912Y0134*
X00908Y01331*
X00906Y01322*
X00904Y01313*
X00902Y01303*
X00902Y01294*
Y01284*
X00902Y01274*
X00904Y01265*
X00906Y01255*
X00908Y01246*
X00912Y01237*
X00916Y01228*
X0092Y0122*
X00925Y01212*
X00931Y01204*
X00937Y01197*
X00944Y0119*
X00951Y01183*
X00959Y01177*
X00966Y01172*
X00975Y01167*
X00983Y01163*
X00992Y01159*
X01002Y01156*
X01011Y01154*
X0102Y01152*
X0103Y01151*
X0104Y01151*
D01*
X01049Y01151*
X01059Y01152*
X01068Y01154*
X01077Y01156*
X01087Y01159*
X01096Y01163*
X01104Y01167*
X01113Y01172*
X0112Y01177*
X01128Y01183*
X01135Y0119*
X01142Y01197*
X01148Y01204*
X01154Y01212*
X01159Y0122*
X01163Y01228*
X01167Y01237*
X01171Y01246*
X01173Y01255*
X01175Y01265*
X01177Y01274*
X01177Y01284*
Y01294*
X01177Y01303*
X01175Y01313*
X01173Y01322*
X01171Y01331*
X01167Y0134*
X01163Y01349*
X01159Y01358*
X01154Y01366*
X01148Y01374*
X01142Y01381*
X01135Y01388*
X01128Y01394*
X0112Y014*
X01113Y01406*
X01104Y0141*
X01096Y01415*
X01087Y01418*
X01077Y01421*
X01068Y01424*
X01059Y01425*
X01049Y01426*
X0104Y01427*
X016Y02437D02*
D01*
X0159Y02436*
X0158Y02435*
X01571Y02433*
X01562Y02431*
X01552Y02428*
X01543Y02425*
X01535Y0242*
X01526Y02416*
X01519Y0241*
X01511Y02404*
X01504Y02398*
X01497Y02391*
X01491Y02384*
X01485Y02376*
X0148Y02368*
X01476Y02359*
X01472Y0235*
X01468Y02341*
X01466Y02332*
X01464Y02323*
X01462Y02313*
X01462Y02304*
Y02294*
X01462Y02284*
X01464Y02275*
X01466Y02265*
X01468Y02256*
X01472Y02247*
X01476Y02238*
X0148Y0223*
X01485Y02222*
X01491Y02214*
X01497Y02207*
X01504Y022*
X01511Y02193*
X01519Y02187*
X01526Y02182*
X01535Y02177*
X01543Y02173*
X01552Y02169*
X01562Y02166*
X01571Y02164*
X0158Y02162*
X0159Y02161*
X016Y02161*
D01*
X01609Y02161*
X01619Y02162*
X01628Y02164*
X01637Y02166*
X01647Y02169*
X01656Y02173*
X01664Y02177*
X01673Y02182*
X0168Y02187*
X01688Y02193*
X01695Y022*
X01702Y02207*
X01708Y02214*
X01714Y02222*
X01719Y0223*
X01723Y02238*
X01727Y02247*
X01731Y02256*
X01733Y02265*
X01735Y02275*
X01737Y02284*
X01737Y02294*
Y02304*
X01737Y02313*
X01735Y02323*
X01733Y02332*
X01731Y02341*
X01727Y0235*
X01723Y02359*
X01719Y02368*
X01714Y02376*
X01708Y02384*
X01702Y02391*
X01695Y02398*
X01688Y02404*
X0168Y0241*
X01673Y02416*
X01664Y0242*
X01656Y02425*
X01647Y02428*
X01637Y02431*
X01628Y02434*
X01619Y02435*
X01609Y02436*
X016Y02437*
Y03337D02*
D01*
X0159Y03337*
X0158Y03336*
X01571Y03334*
X01562Y03332*
X01552Y03329*
X01543Y03325*
X01535Y03321*
X01526Y03316*
X01519Y03311*
X01511Y03305*
X01504Y03299*
X01497Y03292*
X01491Y03284*
X01485Y03277*
X0148Y03268*
X01476Y0326*
X01472Y03251*
X01468Y03242*
X01466Y03233*
X01464Y03223*
X01462Y03214*
X01462Y03204*
Y03195*
X01462Y03185*
X01464Y03176*
X01466Y03166*
X01468Y03157*
X01472Y03148*
X01476Y03139*
X0148Y03131*
X01485Y03122*
X01491Y03115*
X01497Y03107*
X01504Y031*
X01511Y03094*
X01519Y03088*
X01526Y03083*
X01535Y03078*
X01543Y03074*
X01552Y0307*
X01562Y03067*
X01571Y03065*
X0158Y03063*
X0159Y03062*
X016Y03062*
D01*
X01609Y03062*
X01619Y03063*
X01628Y03065*
X01637Y03067*
X01647Y0307*
X01656Y03074*
X01664Y03078*
X01673Y03083*
X0168Y03088*
X01688Y03094*
X01695Y031*
X01702Y03107*
X01708Y03115*
X01714Y03122*
X01719Y03131*
X01723Y03139*
X01727Y03148*
X01731Y03157*
X01733Y03166*
X01735Y03176*
X01737Y03185*
X01737Y03195*
Y03204*
X01737Y03214*
X01735Y03223*
X01733Y03233*
X01731Y03242*
X01727Y03251*
X01723Y0326*
X01719Y03268*
X01714Y03277*
X01708Y03284*
X01702Y03292*
X01695Y03299*
X01688Y03305*
X0168Y03311*
X01673Y03316*
X01664Y03321*
X01656Y03325*
X01647Y03329*
X01637Y03332*
X01628Y03334*
X01619Y03336*
X01609Y03337*
X016Y03337*
Y02887D02*
D01*
X0159Y02887*
X0158Y02886*
X01571Y02884*
X01562Y02882*
X01552Y02879*
X01543Y02875*
X01535Y02871*
X01526Y02866*
X01519Y02861*
X01511Y02855*
X01504Y02849*
X01497Y02842*
X01491Y02834*
X01485Y02827*
X0148Y02818*
X01476Y0281*
X01472Y02801*
X01468Y02792*
X01466Y02783*
X01464Y02773*
X01462Y02764*
X01462Y02754*
Y02745*
X01462Y02735*
X01464Y02726*
X01466Y02716*
X01468Y02707*
X01472Y02698*
X01476Y02689*
X0148Y02681*
X01485Y02672*
X01491Y02665*
X01497Y02657*
X01504Y0265*
X01511Y02644*
X01519Y02638*
X01526Y02633*
X01535Y02628*
X01543Y02624*
X01552Y0262*
X01562Y02617*
X01571Y02615*
X0158Y02613*
X0159Y02612*
X016Y02612*
D01*
X01609Y02612*
X01619Y02613*
X01628Y02615*
X01637Y02617*
X01647Y0262*
X01656Y02624*
X01664Y02628*
X01673Y02633*
X0168Y02638*
X01688Y02644*
X01695Y0265*
X01702Y02657*
X01708Y02665*
X01714Y02672*
X01719Y02681*
X01723Y02689*
X01727Y02698*
X01731Y02707*
X01733Y02716*
X01735Y02726*
X01737Y02735*
X01737Y02745*
Y02754*
X01737Y02764*
X01735Y02773*
X01733Y02783*
X01731Y02792*
X01727Y02801*
X01723Y0281*
X01719Y02818*
X01714Y02827*
X01708Y02834*
X01702Y02842*
X01695Y02849*
X01688Y02855*
X0168Y02861*
X01673Y02866*
X01664Y02871*
X01656Y02875*
X01647Y02879*
X01637Y02882*
X01628Y02884*
X01619Y02886*
X01609Y02887*
X016Y02887*
X005Y02831D02*
D01*
X00509Y02831*
X00519Y02832*
X00528Y02834*
X00537Y02836*
X00547Y02839*
X00556Y02843*
X00564Y02847*
X00573Y02852*
X0058Y02857*
X00588Y02863*
X00595Y0287*
X00602Y02877*
X00608Y02884*
X00614Y02892*
X00619Y029*
X00623Y02908*
X00627Y02917*
X00631Y02926*
X00633Y02935*
X00635Y02945*
X00637Y02954*
X00637Y02964*
Y02974*
X00637Y02983*
X00635Y02993*
X00633Y03002*
X00631Y03011*
X00627Y0302*
X00623Y03029*
X00619Y03038*
X00614Y03046*
X00608Y03054*
X00602Y03061*
X00595Y03068*
X00588Y03074*
X0058Y0308*
X00573Y03086*
X00564Y0309*
X00556Y03095*
X00547Y03098*
X00537Y03101*
X00528Y03104*
X00519Y03105*
X00509Y03106*
X005Y03107*
D01*
X0049Y03106*
X0048Y03105*
X00471Y03103*
X00462Y03101*
X00452Y03098*
X00443Y03095*
X00435Y0309*
X00426Y03086*
X00419Y0308*
X00411Y03074*
X00404Y03068*
X00397Y03061*
X00391Y03054*
X00385Y03046*
X0038Y03038*
X00376Y03029*
X00372Y0302*
X00368Y03011*
X00366Y03002*
X00364Y02993*
X00362Y02983*
X00362Y02974*
Y02964*
X00362Y02954*
X00364Y02945*
X00366Y02935*
X00368Y02926*
X00372Y02917*
X00376Y02908*
X0038Y029*
X00385Y02892*
X00391Y02884*
X00397Y02877*
X00404Y0287*
X00411Y02863*
X00419Y02857*
X00426Y02852*
X00435Y02847*
X00443Y02843*
X00452Y02839*
X00462Y02836*
X00471Y02834*
X0048Y02832*
X0049Y02831*
X005Y02831*
X0209Y00571D02*
D01*
X02099Y00571*
X02109Y00572*
X02118Y00574*
X02127Y00576*
X02137Y00579*
X02146Y00583*
X02154Y00587*
X02163Y00592*
X0217Y00597*
X02178Y00603*
X02185Y0061*
X02192Y00617*
X02198Y00624*
X02204Y00632*
X02209Y0064*
X02213Y00648*
X02217Y00657*
X02221Y00666*
X02223Y00675*
X02225Y00685*
X02227Y00694*
X02227Y00704*
Y00714*
X02227Y00723*
X02225Y00733*
X02223Y00742*
X02221Y00751*
X02217Y0076*
X02213Y00769*
X02209Y00778*
X02204Y00786*
X02198Y00794*
X02192Y00801*
X02185Y00808*
X02178Y00814*
X0217Y0082*
X02163Y00826*
X02154Y0083*
X02146Y00835*
X02137Y00838*
X02127Y00841*
X02118Y00844*
X02109Y00845*
X02099Y00846*
X0209Y00847*
D01*
X0208Y00846*
X0207Y00845*
X02061Y00843*
X02052Y00841*
X02042Y00838*
X02033Y00835*
X02025Y0083*
X02016Y00826*
X02009Y0082*
X02001Y00814*
X01994Y00808*
X01987Y00801*
X01981Y00794*
X01975Y00786*
X0197Y00778*
X01966Y00769*
X01962Y0076*
X01958Y00751*
X01956Y00742*
X01954Y00733*
X01952Y00723*
X01952Y00714*
Y00704*
X01952Y00694*
X01954Y00685*
X01956Y00675*
X01958Y00666*
X01962Y00657*
X01966Y00648*
X0197Y0064*
X01975Y00632*
X01981Y00624*
X01987Y00617*
X01994Y0061*
X02001Y00603*
X02009Y00597*
X02016Y00592*
X02025Y00587*
X02033Y00583*
X02042Y00579*
X02052Y00576*
X02061Y00574*
X0207Y00572*
X0208Y00571*
X0209Y00571*
X014Y00281D02*
D01*
X01409Y00281*
X01419Y00282*
X01428Y00284*
X01437Y00286*
X01447Y00289*
X01456Y00293*
X01464Y00297*
X01473Y00302*
X0148Y00307*
X01488Y00313*
X01495Y0032*
X01502Y00327*
X01508Y00334*
X01514Y00342*
X01519Y0035*
X01523Y00358*
X01527Y00367*
X01531Y00376*
X01533Y00385*
X01535Y00395*
X01537Y00404*
X01537Y00414*
Y00424*
X01537Y00433*
X01535Y00443*
X01533Y00452*
X01531Y00461*
X01527Y0047*
X01523Y00479*
X01519Y00488*
X01514Y00496*
X01508Y00504*
X01502Y00511*
X01495Y00518*
X01488Y00524*
X0148Y0053*
X01473Y00536*
X01464Y0054*
X01456Y00545*
X01447Y00548*
X01437Y00551*
X01428Y00554*
X01419Y00555*
X01409Y00556*
X014Y00557*
D01*
X0139Y00556*
X0138Y00555*
X01371Y00553*
X01362Y00551*
X01352Y00548*
X01343Y00545*
X01335Y0054*
X01326Y00536*
X01319Y0053*
X01311Y00524*
X01304Y00518*
X01297Y00511*
X01291Y00504*
X01285Y00496*
X0128Y00488*
X01276Y00479*
X01272Y0047*
X01268Y00461*
X01266Y00452*
X01264Y00443*
X01262Y00433*
X01262Y00424*
Y00414*
X01262Y00404*
X01264Y00395*
X01266Y00385*
X01268Y00376*
X01272Y00367*
X01276Y00358*
X0128Y0035*
X01285Y00342*
X01291Y00334*
X01297Y00327*
X01304Y0032*
X01311Y00313*
X01319Y00307*
X01326Y00302*
X01335Y00297*
X01343Y00293*
X01352Y00289*
X01362Y00286*
X01371Y00284*
X0138Y00282*
X0139Y00281*
X014Y00281*
X0139Y00592D02*
D01*
X01399Y00593*
X01409Y00594*
X01418Y00596*
X01427Y00598*
X01437Y00601*
X01446Y00604*
X01454Y00609*
X01463Y00613*
X0147Y00619*
X01478Y00625*
X01485Y00631*
X01492Y00638*
X01498Y00645*
X01504Y00653*
X01509Y00661*
X01513Y0067*
X01517Y00679*
X01521Y00688*
X01523Y00697*
X01525Y00706*
X01527Y00716*
X01527Y00725*
Y00735*
X01527Y00745*
X01525Y00754*
X01523Y00764*
X01521Y00773*
X01517Y00782*
X01513Y00791*
X01509Y00799*
X01504Y00807*
X01498Y00815*
X01492Y00822*
X01485Y00829*
X01478Y00836*
X0147Y00842*
X01463Y00847*
X01454Y00852*
X01446Y00856*
X01437Y0086*
X01427Y00863*
X01418Y00865*
X01409Y00867*
X01399Y00868*
X0139Y00868*
D01*
X0138Y00868*
X0137Y00867*
X01361Y00865*
X01352Y00863*
X01342Y0086*
X01333Y00856*
X01325Y00852*
X01316Y00847*
X01309Y00842*
X01301Y00836*
X01294Y00829*
X01287Y00822*
X01281Y00815*
X01275Y00807*
X0127Y00799*
X01266Y00791*
X01262Y00782*
X01258Y00773*
X01256Y00764*
X01254Y00754*
X01252Y00745*
X01252Y00735*
Y00725*
X01252Y00716*
X01254Y00706*
X01256Y00697*
X01258Y00688*
X01262Y00679*
X01266Y0067*
X0127Y00661*
X01275Y00653*
X01281Y00645*
X01287Y00638*
X01294Y00631*
X01301Y00625*
X01309Y00619*
X01316Y00613*
X01325Y00609*
X01333Y00604*
X01342Y00601*
X01352Y00598*
X01361Y00595*
X0137Y00594*
X0138Y00593*
X0139Y00592*
X008Y03107D02*
D01*
X0079Y03106*
X0078Y03105*
X00771Y03103*
X00762Y03101*
X00752Y03098*
X00743Y03095*
X00735Y0309*
X00726Y03086*
X00719Y0308*
X00711Y03074*
X00704Y03068*
X00697Y03061*
X00691Y03054*
X00685Y03046*
X0068Y03038*
X00676Y03029*
X00672Y0302*
X00668Y03011*
X00666Y03002*
X00664Y02993*
X00662Y02983*
X00662Y02974*
Y02964*
X00662Y02954*
X00664Y02945*
X00666Y02935*
X00668Y02926*
X00672Y02917*
X00676Y02908*
X0068Y029*
X00685Y02892*
X00691Y02884*
X00697Y02877*
X00704Y0287*
X00711Y02863*
X00719Y02857*
X00726Y02852*
X00735Y02847*
X00743Y02843*
X00752Y02839*
X00762Y02836*
X00771Y02834*
X0078Y02832*
X0079Y02831*
X008Y02831*
D01*
X00809Y02831*
X00819Y02832*
X00828Y02834*
X00837Y02836*
X00847Y02839*
X00856Y02843*
X00864Y02847*
X00873Y02852*
X0088Y02857*
X00888Y02863*
X00895Y0287*
X00902Y02877*
X00908Y02884*
X00914Y02892*
X00919Y029*
X00923Y02908*
X00927Y02917*
X00931Y02926*
X00933Y02935*
X00935Y02945*
X00937Y02954*
X00937Y02964*
Y02974*
X00937Y02983*
X00935Y02993*
X00933Y03002*
X00931Y03011*
X00927Y0302*
X00923Y03029*
X00919Y03038*
X00914Y03046*
X00908Y03054*
X00902Y03061*
X00895Y03068*
X00888Y03074*
X0088Y0308*
X00873Y03086*
X00864Y0309*
X00856Y03095*
X00847Y03098*
X00837Y03101*
X00828Y03104*
X00819Y03105*
X00809Y03106*
X008Y03107*
X0103Y01801D02*
D01*
X01039Y01801*
X01049Y01802*
X01058Y01804*
X01067Y01806*
X01077Y01809*
X01086Y01813*
X01094Y01817*
X01103Y01822*
X0111Y01827*
X01118Y01833*
X01125Y0184*
X01132Y01847*
X01138Y01854*
X01144Y01862*
X01149Y0187*
X01153Y01878*
X01157Y01887*
X01161Y01896*
X01163Y01905*
X01165Y01915*
X01167Y01924*
X01167Y01934*
Y01944*
X01167Y01953*
X01165Y01963*
X01163Y01972*
X01161Y01981*
X01157Y0199*
X01153Y01999*
X01149Y02008*
X01144Y02016*
X01138Y02024*
X01132Y02031*
X01125Y02038*
X01118Y02044*
X0111Y0205*
X01103Y02056*
X01094Y0206*
X01086Y02065*
X01077Y02068*
X01067Y02071*
X01058Y02074*
X01049Y02075*
X01039Y02076*
X0103Y02077*
D01*
X0102Y02076*
X0101Y02075*
X01001Y02073*
X00992Y02071*
X00982Y02068*
X00973Y02065*
X00965Y0206*
X00956Y02056*
X00949Y0205*
X00941Y02044*
X00934Y02038*
X00927Y02031*
X00921Y02024*
X00915Y02016*
X0091Y02008*
X00906Y01999*
X00902Y0199*
X00898Y01981*
X00896Y01972*
X00894Y01963*
X00892Y01953*
X00892Y01944*
Y01934*
X00892Y01924*
X00894Y01915*
X00896Y01905*
X00898Y01896*
X00902Y01887*
X00906Y01878*
X0091Y0187*
X00915Y01862*
X00921Y01854*
X00927Y01847*
X00934Y0184*
X00941Y01833*
X00949Y01827*
X00956Y01822*
X00965Y01817*
X00973Y01813*
X00982Y01809*
X00992Y01806*
X01001Y01804*
X0101Y01802*
X0102Y01801*
X0103Y01801*
X00888Y0033D02*
Y01249D01*
X00671Y0033D02*
X00888D01*
X00671D02*
Y01249D01*
X00888*
X01874Y02684D02*
X02325D01*
X01874D02*
Y02795D01*
X02325*
Y02684D02*
Y02795D01*
X01408Y0228D02*
Y03199D01*
X01191Y0228D02*
X01408D01*
X01191D02*
Y03199D01*
X01408*
X02286Y00824D02*
X02693D01*
X02286Y00455D02*
Y00824D01*
Y00455D02*
X02693D01*
Y00824*
X02695Y00874D02*
Y00985D01*
X02444D02*
X02695D01*
X02444Y00874D02*
Y00985D01*
Y00874D02*
X02695D01*
X02294Y00294D02*
Y00405D01*
Y00294D02*
X02545D01*
Y00405*
X02294D02*
X02545D01*
X01624Y00815D02*
X01735D01*
X01624Y00364D02*
Y00815D01*
Y00364D02*
X01735D01*
Y00815*
X02244Y01024D02*
Y01135D01*
Y01024D02*
X02695D01*
Y01135*
X02244D02*
X02695D01*
X02545Y00154D02*
Y00265D01*
X02294D02*
X02545D01*
X02294Y00154D02*
Y00265D01*
Y00154D02*
X02545D01*
X01764Y00364D02*
X01875D01*
Y00815*
X01764D02*
X01875D01*
X01764Y00364D02*
Y00815D01*
X00294Y02344D02*
X00405D01*
Y02795*
X00294D02*
X00405D01*
X00294Y02344D02*
Y02795D01*
X00474Y02264D02*
Y02375D01*
Y02264D02*
X00725D01*
Y02375*
X00474D02*
X00725D01*
X00446Y02435D02*
X00853D01*
Y02804*
X00446D02*
X00853D01*
X00446Y02435D02*
Y02804D01*
X00144Y02344D02*
X00255D01*
Y02795*
X00144D02*
X00255D01*
X00144Y02344D02*
Y02795D01*
X02695Y01164D02*
Y01275D01*
X02244D02*
X02695D01*
X02244Y01164D02*
Y01275D01*
Y01164D02*
X02695D01*
X00058Y00886D02*
X00426D01*
Y02013*
X00058D02*
X00426D01*
X00058Y00886D02*
Y02013D01*
X01924Y00874D02*
Y00985D01*
Y00874D02*
X02375D01*
Y00985*
X01924D02*
X02375D01*
M02*