%FSTAX23Y23*%
%MOIN*%
%SFA1B1*%

%IPPOS*%
%ADD37C,0.003940*%
%ADD38C,0.001970*%
%LNtachometer-boardv2.5-1*%
%LPD*%
G54D37*
X0162Y0189D02*
X01659D01*
X0164Y0187D02*
Y01909D01*
Y0129D02*
Y01329D01*
X0162Y0131D02*
X01659D01*
X022Y0304D02*
Y03079D01*
X0218Y0306D02*
X02219D01*
X022Y0238D02*
Y02419D01*
X0218Y024D02*
X02219D01*
X0104Y025D02*
X01079D01*
X0106Y0248D02*
Y02519D01*
X00332Y0053D02*
Y00569D01*
X00312Y0055D02*
X00351D01*
X0245Y0136D02*
X02489D01*
X0247Y0134D02*
Y01379D01*
X011Y0055D02*
Y00589D01*
X0108Y0057D02*
X01119D01*
G54D38*
X02037Y01699D02*
Y0208D01*
X01242Y01699D02*
Y0208D01*
X02037*
X01242Y01699D02*
X02037D01*
X01242Y01119D02*
X02037D01*
X01242Y015D02*
X02037D01*
X01242Y01119D02*
Y015D01*
X02037Y01119D02*
Y015D01*
X01802Y02869D02*
X02597D01*
X01802Y0325D02*
X02597D01*
X01802Y02869D02*
Y0325D01*
X02597Y02869D02*
Y0325D01*
X01802Y02209D02*
X02597D01*
X01802Y0259D02*
X02597D01*
X01802Y02209D02*
Y0259D01*
X02597Y02209D02*
Y0259D01*
X01002Y02286D02*
X01117D01*
Y02713D01*
X01002Y02286D02*
Y02713D01*
X01117*
X00042Y00731D02*
X00621D01*
Y00323D02*
Y00731D01*
X00042Y00323D02*
Y00731D01*
Y00323D02*
X00621D01*
X02256Y01302D02*
Y01417D01*
Y01302D02*
X02683D01*
X02256Y01417D02*
X02683D01*
Y01302D02*
Y01417D01*
X00985Y0078D02*
X0119D01*
X00985Y00359D02*
X0119D01*
X00985D02*
Y0078D01*
X0119Y00359D02*
Y0078D01*
M02*