%FSTAX23Y23*%
%MOIN*%
%SFA1B1*%

%IPPOS*%
%ADD19R,0.086610X0.086610*%
%ADD20C,0.086610*%
%ADD23R,0.086610X0.086610*%
%ADD24R,0.078740X0.078740*%
%ADD25C,0.078740*%
%ADD31C,0.015000*%
%ADD32C,0.157480*%
%ADD33R,0.059060X0.157480*%
%ADD34R,0.059060X0.137800*%
%ADD35C,0.086610*%
%LNtachometer-boardv2.5-1*%
%LPD*%
G54D19*
X0134Y0174D03*
X0078Y01202D03*
X0134Y0116D03*
X0104Y0124D03*
X0185Y0225D03*
X013Y03152D03*
X016Y0225D03*
Y027D03*
X0264Y00796D03*
X0168Y00786D03*
X0209Y0066D03*
X0182Y00393D03*
X0035Y02373D03*
X005Y02463D03*
X002Y02373D03*
X003Y011D03*
X014Y0037D03*
X0139Y00681D03*
X0103Y0189D03*
G54D20*
X0194Y0204D03*
X0184D03*
X0174D03*
X0164D03*
X0154D03*
X0144D03*
X0134D03*
X0194Y0174D03*
X0184D03*
X0174D03*
X0164D03*
X0154D03*
X0144D03*
X0078Y00377D03*
X0144Y0116D03*
X0154D03*
X0164D03*
X0174D03*
X0184D03*
X0194D03*
X0134Y0146D03*
X0144D03*
X0154D03*
X0164D03*
X0174D03*
X0184D03*
X0194D03*
X0104Y01338D03*
X01903Y0274D03*
X0195Y0225D03*
X0205D03*
X0215D03*
X0225D03*
X0235D03*
X0245D03*
X0255D03*
X0185Y0255D03*
X0195D03*
X0205D03*
X0215D03*
X0225D03*
X0235D03*
X0245D03*
X0255D03*
X013Y02327D03*
X016Y02348D03*
X0106Y02322D03*
Y02677D03*
X016Y02799D03*
X0264Y00483D03*
X0254D03*
X0244D03*
X0234D03*
Y00796D03*
X0244D03*
X0254D03*
X02471Y0093D03*
X02518Y0035D03*
X0168Y00393D03*
X02666Y0108D03*
X02321Y0021D03*
X0209Y00758D03*
X0182Y00786D03*
X0035Y02766D03*
X00698Y0232D03*
X005Y02776D03*
X006D03*
X007D03*
X008D03*
Y02463D03*
X007D03*
X006D03*
X002Y02766D03*
X02292Y0136D03*
X02647D03*
X02273Y0122D03*
X002Y018D03*
X003D03*
X002Y017D03*
X003D03*
X002Y016D03*
X003D03*
X002Y015D03*
X003D03*
X002Y014D03*
X003D03*
X002Y013D03*
X003D03*
X002Y012D03*
X003D03*
X002Y011D03*
X02346Y0093D03*
X014Y00468D03*
X011Y0067D03*
Y0057D03*
X0139Y0078D03*
X0103Y01988D03*
G54D23*
X02296Y0274D03*
X02668Y0093D03*
X02321Y0035D03*
X02273Y0108D03*
X02518Y0021D03*
X00501Y0232D03*
X02666Y0122D03*
X01953Y0093D03*
X011Y0047D03*
G54D24*
X019Y0291D03*
X016Y0315D03*
X005Y03018D03*
X008D03*
G54D25*
X02Y0291D03*
X021D03*
X022D03*
X023D03*
X024D03*
X025D03*
X019Y0321D03*
X02D03*
X021D03*
X022D03*
X023D03*
X024D03*
X025D03*
X016Y03249D03*
X005Y0292D03*
X008D03*
G54D31*
X007Y0146D02*
X0083D01*
X0088Y0141*
X02478Y00937D02*
X02527D01*
X02565Y00975D02*
X02666Y01076D01*
X02527Y00937D02*
X02565Y00975D01*
X02471Y0093D02*
X02478Y00937D01*
X02346Y0093D02*
X02471D01*
X0103Y0161D02*
X0118D01*
X0078Y0186D02*
D01*
X0103Y0161D01*
X007Y0194D02*
X0078Y0186D01*
X01679Y027D02*
X0172Y0266D01*
Y0232D02*
Y0266D01*
X016Y027D02*
X01679D01*
X01681Y02281D02*
X0172Y0232D01*
X01631Y02281D02*
X01681D01*
X016Y0225D02*
X01631Y02281D01*
X0083Y0047D02*
X011D01*
X0048Y0082D02*
X0083Y0047D01*
X0048Y01073D02*
Y0122D01*
Y01073D02*
X00883Y0067D01*
X0048Y016D02*
X006Y0172D01*
Y0211*
X0114Y0208D02*
X012Y0202D01*
Y0174D02*
X01332Y01607D01*
X012Y0174D02*
Y0202D01*
X007Y0208D02*
X0114D01*
X0164Y01607D02*
Y0162D01*
Y016D02*
Y01607D01*
X01332D02*
X01633D01*
X0164Y016D02*
X0164Y016D01*
X0194D02*
D01*
X0164D02*
X0194D01*
X0116Y01073D02*
Y0148D01*
Y01073D02*
X012Y01033D01*
Y0102D02*
Y01033D01*
X0162Y0094D02*
X0174Y0106D01*
X0201D02*
X0211Y0116D01*
X0174Y0106D02*
X0201D01*
X019Y0102D02*
X0207D01*
X0219Y0114*
X01828Y00948D02*
X019Y0102D01*
X01788Y00948D02*
X01828D01*
X01777Y00937D02*
X01788Y00948D01*
X0219Y0114D02*
Y0195D01*
X0218Y0196D02*
X0219Y0195D01*
X00883Y0067D02*
X011D01*
X0056Y0138D02*
X0064Y013D01*
X00519Y0138D02*
X0056D01*
X0064Y01098D02*
Y013D01*
X0048Y014D02*
X00499D01*
X00519Y0138*
X0064Y01098D02*
X00878Y0086D01*
X01606*
X0088Y01021D02*
X00884Y01017D01*
X00885Y01016D02*
X01031Y0092D01*
X00884Y01017D02*
X00885Y01016D01*
X0088Y01025D02*
Y0141D01*
Y01025D02*
X0088Y01021D01*
X01031Y0092D02*
X014D01*
X0142Y0094*
X0094Y0112D02*
Y0146D01*
X007Y017D02*
X0094Y0146D01*
Y0112D02*
X01Y0106D01*
X0102*
X007Y017D02*
Y0179D01*
X0142Y0094D02*
X0144D01*
X01606Y0086D02*
X0168Y00786D01*
X0235Y0062D02*
X027D01*
X0221Y0076D02*
X0235Y0062D01*
X027D02*
X0277Y0055D01*
Y0048D02*
Y0055D01*
X02091Y0076D02*
X0221D01*
X0209Y00758D02*
X02091Y0076D01*
X0146Y0255D02*
X016Y0241D01*
Y02348D02*
Y0241D01*
X0146Y0255D02*
Y0318D01*
X01529Y03249*
X016*
X0026Y0261D02*
X0087D01*
X0093Y0246D02*
Y0255D01*
X0087Y0261D02*
X0093Y0255D01*
X00213Y02656D02*
X0026Y0261D01*
X00213Y02656D02*
Y02753D01*
X002Y02766D02*
X00213Y02753D01*
X006Y0211D02*
X0068Y0219D01*
X0096*
X01046Y02276*
X011Y0047D02*
X01101Y00468D01*
X014*
X01046Y02276D02*
Y02309D01*
X0106Y02322*
X0211Y0116D02*
Y0179D01*
X02668Y0093D02*
X0276Y01021D01*
Y01126*
X02666Y0122D02*
X0276Y01126D01*
X02666Y01076D02*
Y0108D01*
X02647Y01239D02*
X02666Y0122D01*
X02647Y01239D02*
Y0136D01*
X00713Y03486D02*
X00766D01*
X0074*
Y03406*
X00833Y03486D02*
X00806D01*
X00793Y03473*
Y0342*
X00806Y03406*
X00833*
X00846Y0342*
Y03473*
X00833Y03486*
X00873Y03406D02*
Y03486D01*
X00913*
X00926Y03473*
Y03446*
X00913Y03433*
X00873*
X00406Y03354D02*
Y03301D01*
X00433Y03275*
X0046Y03301*
Y03354*
X0054D02*
X00486D01*
Y03275*
X0054*
X00486Y03314D02*
X00513D01*
X00566Y03275D02*
Y03354D01*
X00606*
X0062Y03341*
Y03314*
X00606Y03301*
X00566*
X00593D02*
X0062Y03275D01*
X007Y03341D02*
X00686Y03354D01*
X0066*
X00646Y03341*
Y03328*
X0066Y03314*
X00686*
X007Y03301*
Y03288*
X00686Y03275*
X0066*
X00646Y03288*
X00726Y03354D02*
X00753D01*
X0074*
Y03275*
X00726*
X00753*
X00833Y03354D02*
X00806D01*
X00793Y03341*
Y03288*
X00806Y03275*
X00833*
X00846Y03288*
Y03341*
X00833Y03354*
X00873Y03275D02*
Y03354D01*
X00926Y03275*
Y03354*
X01086Y03275D02*
X01033D01*
X01086Y03328*
Y03341*
X01073Y03354*
X01046*
X01033Y03341*
X01113Y03275D02*
Y03288D01*
X01126*
Y03275*
X01113*
X01233Y03354D02*
X01179D01*
Y03314*
X01206Y03328*
X01219*
X01233Y03314*
Y03288*
X01219Y03275*
X01193*
X01179Y03288*
G54D32*
X0015Y0015D03*
Y034D03*
X0285D03*
Y0015D03*
G54D33*
X00586Y0055D03*
G54D34*
X0035Y0055D03*
G54D35*
X007Y0146D03*
X0048Y0082D03*
Y0122D03*
Y016D03*
X0164Y0162D03*
X0194Y016D03*
X0116Y0148D03*
X0118Y0161D03*
X012Y0102D03*
X0162Y0094D03*
X01777Y00937D03*
X0218Y0196D03*
X007Y0208D03*
Y0194D03*
X0102Y0106D03*
X0144Y0094D03*
X0277Y0048D03*
X0093Y0246D03*
X007Y0179D03*
X0048Y014D03*
X0211Y0179D03*
M02*