%FSTAX23Y23*%
%MOIN*%
%SFA1B1*%

%IPPOS*%
%ADD9500C,0.029530*%
%ADD9501C,0.035430*%
%ADD9502C,0.125980*%
%LNtachometer-boardv2.5-1*%
%LPD*%
G54D9500*
X025Y0291D03*
G54D9501*
X0078Y00377D03*
X011Y0047D03*
X014Y00468D03*
Y0037D03*
X0168Y00393D03*
X0182D03*
X02321Y0035D03*
Y0021D03*
X02518D03*
Y0035D03*
X0254Y00483D03*
X0264D03*
X0277Y0048D03*
X0244Y00483D03*
X0234D03*
Y00796D03*
X0244D03*
X0254D03*
X0264D03*
X02668Y0093D03*
X02666Y0108D03*
Y0122D03*
X02647Y0136D03*
X02292D03*
X02273Y0122D03*
Y0108D03*
X02346Y0093D03*
X02471D03*
X0218Y0196D03*
X0211Y0179D03*
X0194Y0174D03*
X0184D03*
X0174D03*
X0164D03*
X0154D03*
X0144D03*
X0134D03*
Y0146D03*
X0144D03*
X0154D03*
X0164D03*
X0174D03*
X0184D03*
X0194D03*
X0194Y016D03*
X0164Y0162D03*
Y0204D03*
X0174D03*
X0184D03*
X0194D03*
X0154D03*
X0144D03*
X0134D03*
X0103Y01988D03*
Y0189D03*
X007Y0194D03*
Y0208D03*
Y0179D03*
Y0146D03*
X0078Y01202D03*
X0104Y0124D03*
Y01338D03*
X0116Y0148D03*
X0118Y0161D03*
X012Y0102D03*
X0102Y0106D03*
X0134Y0116D03*
X0144D03*
X0154D03*
X0164D03*
X0174D03*
X0184D03*
X0194D03*
X01953Y0093D03*
X01777Y00937D03*
X0162Y0094D03*
X0144D03*
X0139Y0078D03*
Y00681D03*
X011Y0067D03*
Y0057D03*
X0168Y00786D03*
X0182D03*
X0209Y00758D03*
Y0066D03*
X0048Y0082D03*
Y0122D03*
Y014D03*
X003D03*
Y015D03*
Y016D03*
Y017D03*
Y018D03*
X002D03*
Y017D03*
Y016D03*
Y015D03*
Y014D03*
Y013D03*
X003D03*
Y012D03*
X002D03*
Y011D03*
X003D03*
X0048Y016D03*
X00501Y0232D03*
X005Y02463D03*
X0035Y02373D03*
X002D03*
Y02766D03*
X0035D03*
X005Y02776D03*
Y0292D03*
Y03018D03*
X008D03*
Y0292D03*
Y02776D03*
X007D03*
X006D03*
Y02463D03*
X007D03*
X008D03*
X0093Y0246D03*
X0106Y02322D03*
X013Y02327D03*
X016Y02348D03*
Y0225D03*
X0185D03*
X0195D03*
X0205D03*
Y0255D03*
X0195D03*
X0185D03*
X01903Y0274D03*
X019Y0291D03*
X02D03*
X021D03*
Y0321D03*
X02D03*
X019D03*
X016Y03249D03*
Y0315D03*
X013Y03152D03*
X016Y02799D03*
Y027D03*
X0106Y02677D03*
X00698Y0232D03*
X0215Y0225D03*
X0225D03*
X0235D03*
X0245D03*
X0255D03*
Y0255D03*
X0245D03*
X0235D03*
X0225D03*
X0215D03*
X02296Y0274D03*
X023Y0291D03*
X022D03*
X024D03*
Y0321D03*
X023D03*
X022D03*
X025D03*
G54D9502*
X0015Y0015D03*
X0285D03*
X0015Y034D03*
X0285D03*
M02*