%FSTAX23Y23*%
%MOIN*%
%SFA1B1*%

%IPPOS*%
%ADD10C,0.023620*%
%ADD11C,0.009840*%
%ADD12C,0.007870*%
%ADD13C,0.005910*%
%ADD14C,0.010000*%
%ADD15R,0.106980X0.037360*%
%ADD16R,0.037360X0.106980*%
%LNtachometer-boardv2.5-1*%
%LPD*%
G54D10*
X01303Y01825D02*
D01*
X01303Y01825*
X01303Y01826*
X01303Y01827*
X01302Y01828*
X01302Y01829*
X01302Y01829*
X01302Y0183*
X01301Y01831*
X01301Y01831*
X013Y01832*
X013Y01833*
X01299Y01833*
X01298Y01834*
X01298Y01834*
X01297Y01835*
X01296Y01835*
X01296Y01835*
X01295Y01836*
X01294Y01836*
X01293Y01836*
X01292Y01836*
X01291Y01836*
X01291*
X0129Y01836*
X01289Y01836*
X01288Y01836*
X01287Y01836*
X01287Y01835*
X01286Y01835*
X01285Y01835*
X01284Y01834*
X01284Y01834*
X01283Y01833*
X01283Y01833*
X01282Y01832*
X01282Y01831*
X01281Y01831*
X01281Y0183*
X0128Y01829*
X0128Y01829*
X0128Y01828*
X0128Y01827*
X01279Y01826*
X01279Y01825*
X01279Y01825*
X01279Y01824*
X01279Y01823*
X0128Y01822*
X0128Y01821*
X0128Y01821*
X0128Y0182*
X01281Y01819*
X01281Y01818*
X01282Y01818*
X01282Y01817*
X01283Y01816*
X01283Y01816*
X01284Y01815*
X01284Y01815*
X01285Y01814*
X01286Y01814*
X01287Y01814*
X01287Y01813*
X01288Y01813*
X01289Y01813*
X0129Y01813*
X01291Y01813*
X01291*
X01292Y01813*
X01293Y01813*
X01294Y01813*
X01295Y01813*
X01296Y01814*
X01296Y01814*
X01297Y01814*
X01298Y01815*
X01298Y01815*
X01299Y01816*
X013Y01816*
X013Y01817*
X01301Y01818*
X01301Y01818*
X01302Y01819*
X01302Y0182*
X01302Y01821*
X01302Y01821*
X01303Y01822*
X01303Y01823*
X01303Y01824*
X01303Y01825*
Y01245D02*
D01*
X01303Y01245*
X01303Y01246*
X01303Y01247*
X01302Y01248*
X01302Y01249*
X01302Y01249*
X01302Y0125*
X01301Y01251*
X01301Y01251*
X013Y01252*
X013Y01253*
X01299Y01253*
X01298Y01254*
X01298Y01254*
X01297Y01255*
X01296Y01255*
X01296Y01255*
X01295Y01256*
X01294Y01256*
X01293Y01256*
X01292Y01256*
X01291Y01256*
X01291*
X0129Y01256*
X01289Y01256*
X01288Y01256*
X01287Y01256*
X01287Y01255*
X01286Y01255*
X01285Y01255*
X01284Y01254*
X01284Y01254*
X01283Y01253*
X01283Y01253*
X01282Y01252*
X01282Y01251*
X01281Y01251*
X01281Y0125*
X0128Y01249*
X0128Y01249*
X0128Y01248*
X0128Y01247*
X01279Y01246*
X01279Y01245*
X01279Y01245*
X01279Y01244*
X01279Y01243*
X0128Y01242*
X0128Y01241*
X0128Y01241*
X0128Y0124*
X01281Y01239*
X01281Y01238*
X01282Y01238*
X01282Y01237*
X01283Y01236*
X01283Y01236*
X01284Y01235*
X01284Y01235*
X01285Y01234*
X01286Y01234*
X01287Y01234*
X01287Y01233*
X01288Y01233*
X01289Y01233*
X0129Y01233*
X01291Y01233*
X01291*
X01292Y01233*
X01293Y01233*
X01294Y01233*
X01295Y01233*
X01296Y01234*
X01296Y01234*
X01297Y01234*
X01298Y01235*
X01298Y01235*
X01299Y01236*
X013Y01236*
X013Y01237*
X01301Y01238*
X01301Y01238*
X01302Y01239*
X01302Y0124*
X01302Y01241*
X01302Y01241*
X01303Y01242*
X01303Y01243*
X01303Y01244*
X01303Y01245*
X01863Y02995D02*
D01*
X01863Y02995*
X01863Y02996*
X01863Y02997*
X01862Y02998*
X01862Y02999*
X01862Y02999*
X01862Y03*
X01861Y03001*
X01861Y03001*
X0186Y03002*
X0186Y03003*
X01859Y03003*
X01858Y03004*
X01858Y03004*
X01857Y03005*
X01856Y03005*
X01856Y03005*
X01855Y03006*
X01854Y03006*
X01853Y03006*
X01852Y03006*
X01851Y03006*
X01851*
X0185Y03006*
X01849Y03006*
X01848Y03006*
X01847Y03006*
X01847Y03005*
X01846Y03005*
X01845Y03005*
X01844Y03004*
X01844Y03004*
X01843Y03003*
X01843Y03003*
X01842Y03002*
X01842Y03001*
X01841Y03001*
X01841Y03*
X0184Y02999*
X0184Y02999*
X0184Y02998*
X0184Y02997*
X01839Y02996*
X01839Y02995*
X01839Y02995*
X01839Y02994*
X01839Y02993*
X0184Y02992*
X0184Y02991*
X0184Y02991*
X0184Y0299*
X01841Y02989*
X01841Y02988*
X01842Y02988*
X01842Y02987*
X01843Y02986*
X01843Y02986*
X01844Y02985*
X01844Y02985*
X01845Y02984*
X01846Y02984*
X01847Y02984*
X01847Y02983*
X01848Y02983*
X01849Y02983*
X0185Y02983*
X01851Y02983*
X01851*
X01852Y02983*
X01853Y02983*
X01854Y02983*
X01855Y02983*
X01856Y02984*
X01856Y02984*
X01857Y02984*
X01858Y02985*
X01858Y02985*
X01859Y02986*
X0186Y02986*
X0186Y02987*
X01861Y02988*
X01861Y02988*
X01862Y02989*
X01862Y0299*
X01862Y02991*
X01862Y02991*
X01863Y02992*
X01863Y02993*
X01863Y02994*
X01863Y02995*
Y02335D02*
D01*
X01863Y02335*
X01863Y02336*
X01863Y02337*
X01862Y02338*
X01862Y02339*
X01862Y02339*
X01862Y0234*
X01861Y02341*
X01861Y02341*
X0186Y02342*
X0186Y02343*
X01859Y02343*
X01858Y02344*
X01858Y02344*
X01857Y02345*
X01856Y02345*
X01856Y02345*
X01855Y02346*
X01854Y02346*
X01853Y02346*
X01852Y02346*
X01851Y02346*
X01851*
X0185Y02346*
X01849Y02346*
X01848Y02346*
X01847Y02346*
X01847Y02345*
X01846Y02345*
X01845Y02345*
X01844Y02344*
X01844Y02344*
X01843Y02343*
X01843Y02343*
X01842Y02342*
X01842Y02341*
X01841Y02341*
X01841Y0234*
X0184Y02339*
X0184Y02339*
X0184Y02338*
X0184Y02337*
X01839Y02336*
X01839Y02335*
X01839Y02335*
X01839Y02334*
X01839Y02333*
X0184Y02332*
X0184Y02331*
X0184Y02331*
X0184Y0233*
X01841Y02329*
X01841Y02328*
X01842Y02328*
X01842Y02327*
X01843Y02326*
X01843Y02326*
X01844Y02325*
X01844Y02325*
X01845Y02324*
X01846Y02324*
X01847Y02324*
X01847Y02323*
X01848Y02323*
X01849Y02323*
X0185Y02323*
X01851Y02323*
X01851*
X01852Y02323*
X01853Y02323*
X01854Y02323*
X01855Y02323*
X01856Y02324*
X01856Y02324*
X01857Y02324*
X01858Y02325*
X01858Y02325*
X01859Y02326*
X0186Y02326*
X0186Y02327*
X01861Y02328*
X01861Y02328*
X01862Y02329*
X01862Y0233*
X01862Y02331*
X01862Y02331*
X01863Y02332*
X01863Y02333*
X01863Y02334*
X01863Y02335*
G54D11*
X01293Y0174D02*
D01*
X01293Y0174*
X01293Y0174*
X01293Y01741*
X01293Y01741*
X01293Y01741*
X01293Y01742*
X01293Y01742*
X01292Y01742*
X01292Y01742*
X01292Y01743*
X01292Y01743*
X01292Y01743*
X01291Y01743*
X01291Y01744*
X01291Y01744*
X0129Y01744*
X0129Y01744*
X0129Y01744*
X0129Y01744*
X01289Y01744*
X01289Y01744*
X01288Y01744*
X01288*
X01288Y01744*
X01287Y01744*
X01287Y01744*
X01287Y01744*
X01286Y01744*
X01286Y01744*
X01286Y01744*
X01286Y01744*
X01285Y01743*
X01285Y01743*
X01285Y01743*
X01285Y01743*
X01284Y01742*
X01284Y01742*
X01284Y01742*
X01284Y01742*
X01284Y01741*
X01284Y01741*
X01284Y01741*
X01283Y0174*
X01283Y0174*
X01283Y0174*
X01283Y01739*
X01283Y01739*
X01284Y01738*
X01284Y01738*
X01284Y01738*
X01284Y01737*
X01284Y01737*
X01284Y01737*
X01284Y01737*
X01285Y01736*
X01285Y01736*
X01285Y01736*
X01285Y01736*
X01286Y01735*
X01286Y01735*
X01286Y01735*
X01286Y01735*
X01287Y01735*
X01287Y01735*
X01287Y01735*
X01288Y01735*
X01288Y01735*
X01288*
X01289Y01735*
X01289Y01735*
X0129Y01735*
X0129Y01735*
X0129Y01735*
X0129Y01735*
X01291Y01735*
X01291Y01735*
X01291Y01736*
X01292Y01736*
X01292Y01736*
X01292Y01736*
X01292Y01737*
X01292Y01737*
X01293Y01737*
X01293Y01737*
X01293Y01738*
X01293Y01738*
X01293Y01738*
X01293Y01739*
X01293Y01739*
X01293Y0174*
Y0116D02*
D01*
X01293Y0116*
X01293Y0116*
X01293Y01161*
X01293Y01161*
X01293Y01161*
X01293Y01162*
X01293Y01162*
X01292Y01162*
X01292Y01162*
X01292Y01163*
X01292Y01163*
X01292Y01163*
X01291Y01163*
X01291Y01164*
X01291Y01164*
X0129Y01164*
X0129Y01164*
X0129Y01164*
X0129Y01164*
X01289Y01164*
X01289Y01164*
X01288Y01164*
X01288*
X01288Y01164*
X01287Y01164*
X01287Y01164*
X01287Y01164*
X01286Y01164*
X01286Y01164*
X01286Y01164*
X01286Y01164*
X01285Y01163*
X01285Y01163*
X01285Y01163*
X01285Y01163*
X01284Y01162*
X01284Y01162*
X01284Y01162*
X01284Y01162*
X01284Y01161*
X01284Y01161*
X01284Y01161*
X01283Y0116*
X01283Y0116*
X01283Y0116*
X01283Y01159*
X01283Y01159*
X01284Y01158*
X01284Y01158*
X01284Y01158*
X01284Y01157*
X01284Y01157*
X01284Y01157*
X01284Y01157*
X01285Y01156*
X01285Y01156*
X01285Y01156*
X01285Y01156*
X01286Y01155*
X01286Y01155*
X01286Y01155*
X01286Y01155*
X01287Y01155*
X01287Y01155*
X01287Y01155*
X01288Y01155*
X01288Y01155*
X01288*
X01289Y01155*
X01289Y01155*
X0129Y01155*
X0129Y01155*
X0129Y01155*
X0129Y01155*
X01291Y01155*
X01291Y01155*
X01291Y01156*
X01292Y01156*
X01292Y01156*
X01292Y01156*
X01292Y01157*
X01292Y01157*
X01293Y01157*
X01293Y01157*
X01293Y01158*
X01293Y01158*
X01293Y01158*
X01293Y01159*
X01293Y01159*
X01293Y0116*
X01853Y0291D02*
D01*
X01853Y0291*
X01853Y0291*
X01853Y02911*
X01853Y02911*
X01853Y02911*
X01853Y02912*
X01853Y02912*
X01852Y02912*
X01852Y02912*
X01852Y02913*
X01852Y02913*
X01852Y02913*
X01851Y02913*
X01851Y02914*
X01851Y02914*
X0185Y02914*
X0185Y02914*
X0185Y02914*
X0185Y02914*
X01849Y02914*
X01849Y02914*
X01848Y02914*
X01848*
X01848Y02914*
X01847Y02914*
X01847Y02914*
X01847Y02914*
X01846Y02914*
X01846Y02914*
X01846Y02914*
X01846Y02914*
X01845Y02913*
X01845Y02913*
X01845Y02913*
X01845Y02913*
X01844Y02912*
X01844Y02912*
X01844Y02912*
X01844Y02912*
X01844Y02911*
X01844Y02911*
X01844Y02911*
X01843Y0291*
X01843Y0291*
X01843Y0291*
X01843Y02909*
X01843Y02909*
X01844Y02908*
X01844Y02908*
X01844Y02908*
X01844Y02907*
X01844Y02907*
X01844Y02907*
X01844Y02907*
X01845Y02906*
X01845Y02906*
X01845Y02906*
X01845Y02906*
X01846Y02905*
X01846Y02905*
X01846Y02905*
X01846Y02905*
X01847Y02905*
X01847Y02905*
X01847Y02905*
X01848Y02905*
X01848Y02905*
X01848*
X01849Y02905*
X01849Y02905*
X0185Y02905*
X0185Y02905*
X0185Y02905*
X0185Y02905*
X01851Y02905*
X01851Y02905*
X01851Y02906*
X01852Y02906*
X01852Y02906*
X01852Y02906*
X01852Y02907*
X01852Y02907*
X01853Y02907*
X01853Y02907*
X01853Y02908*
X01853Y02908*
X01853Y02908*
X01853Y02909*
X01853Y02909*
X01853Y0291*
X01803Y0225D02*
D01*
X01803Y0225*
X01803Y0225*
X01803Y02251*
X01803Y02251*
X01803Y02251*
X01803Y02252*
X01803Y02252*
X01802Y02252*
X01802Y02252*
X01802Y02253*
X01802Y02253*
X01802Y02253*
X01801Y02253*
X01801Y02254*
X01801Y02254*
X018Y02254*
X018Y02254*
X018Y02254*
X018Y02254*
X01799Y02254*
X01799Y02254*
X01798Y02254*
X01798*
X01798Y02254*
X01797Y02254*
X01797Y02254*
X01797Y02254*
X01796Y02254*
X01796Y02254*
X01796Y02254*
X01796Y02254*
X01795Y02253*
X01795Y02253*
X01795Y02253*
X01795Y02253*
X01794Y02252*
X01794Y02252*
X01794Y02252*
X01794Y02252*
X01794Y02251*
X01794Y02251*
X01794Y02251*
X01793Y0225*
X01793Y0225*
X01793Y0225*
X01793Y02249*
X01793Y02249*
X01794Y02248*
X01794Y02248*
X01794Y02248*
X01794Y02247*
X01794Y02247*
X01794Y02247*
X01794Y02247*
X01795Y02246*
X01795Y02246*
X01795Y02246*
X01795Y02246*
X01796Y02245*
X01796Y02245*
X01796Y02245*
X01796Y02245*
X01797Y02245*
X01797Y02245*
X01797Y02245*
X01798Y02245*
X01798Y02245*
X01798*
X01799Y02245*
X01799Y02245*
X018Y02245*
X018Y02245*
X018Y02245*
X018Y02245*
X01801Y02245*
X01801Y02245*
X01801Y02246*
X01802Y02246*
X01802Y02246*
X01802Y02246*
X01802Y02247*
X01802Y02247*
X01803Y02247*
X01803Y02247*
X01803Y02248*
X01803Y02248*
X01803Y02248*
X01803Y02249*
X01803Y02249*
X01803Y0225*
X02646Y00844D02*
D01*
X02646Y00845*
X02646Y00845*
X02646Y00845*
X02646Y00846*
X02646Y00846*
X02646Y00846*
X02646Y00847*
X02646Y00847*
X02645Y00847*
X02645Y00847*
X02645Y00848*
X02645Y00848*
X02644Y00848*
X02644Y00848*
X02644Y00848*
X02644Y00849*
X02643Y00849*
X02643Y00849*
X02643Y00849*
X02642Y00849*
X02642Y00849*
X02642Y00849*
X02641*
X02641Y00849*
X02641Y00849*
X0264Y00849*
X0264Y00849*
X0264Y00849*
X02639Y00849*
X02639Y00848*
X02639Y00848*
X02638Y00848*
X02638Y00848*
X02638Y00848*
X02638Y00847*
X02637Y00847*
X02637Y00847*
X02637Y00847*
X02637Y00846*
X02637Y00846*
X02637Y00846*
X02637Y00845*
X02637Y00845*
X02637Y00845*
X02637Y00844*
X02637Y00844*
X02637Y00844*
X02637Y00843*
X02637Y00843*
X02637Y00843*
X02637Y00842*
X02637Y00842*
X02637Y00842*
X02637Y00841*
X02638Y00841*
X02638Y00841*
X02638Y00841*
X02638Y0084*
X02639Y0084*
X02639Y0084*
X02639Y0084*
X0264Y0084*
X0264Y0084*
X0264Y00839*
X02641Y00839*
X02641Y00839*
X02641Y00839*
X02642*
X02642Y00839*
X02642Y00839*
X02643Y00839*
X02643Y0084*
X02643Y0084*
X02644Y0084*
X02644Y0084*
X02644Y0084*
X02644Y0084*
X02645Y00841*
X02645Y00841*
X02645Y00841*
X02645Y00841*
X02646Y00842*
X02646Y00842*
X02646Y00842*
X02646Y00843*
X02646Y00843*
X02646Y00843*
X02646Y00844*
X02646Y00844*
X02646Y00844*
X00642Y0055D02*
D01*
X00642Y0055*
X00642Y0055*
X00642Y00551*
X00642Y00551*
X00642Y00551*
X00641Y00552*
X00641Y00552*
X00641Y00552*
X00641Y00552*
X00641Y00553*
X0064Y00553*
X0064Y00553*
X0064Y00553*
X0064Y00554*
X00639Y00554*
X00639Y00554*
X00639Y00554*
X00638Y00554*
X00638Y00554*
X00638Y00554*
X00637Y00554*
X00637Y00554*
X00637*
X00636Y00554*
X00636Y00554*
X00636Y00554*
X00635Y00554*
X00635Y00554*
X00635Y00554*
X00634Y00554*
X00634Y00554*
X00634Y00553*
X00634Y00553*
X00633Y00553*
X00633Y00553*
X00633Y00552*
X00633Y00552*
X00633Y00552*
X00632Y00552*
X00632Y00551*
X00632Y00551*
X00632Y00551*
X00632Y0055*
X00632Y0055*
X00632Y0055*
X00632Y00549*
X00632Y00549*
X00632Y00548*
X00632Y00548*
X00632Y00548*
X00632Y00547*
X00633Y00547*
X00633Y00547*
X00633Y00547*
X00633Y00546*
X00633Y00546*
X00634Y00546*
X00634Y00546*
X00634Y00545*
X00634Y00545*
X00635Y00545*
X00635Y00545*
X00635Y00545*
X00636Y00545*
X00636Y00545*
X00636Y00545*
X00637Y00545*
X00637*
X00637Y00545*
X00638Y00545*
X00638Y00545*
X00638Y00545*
X00639Y00545*
X00639Y00545*
X00639Y00545*
X0064Y00545*
X0064Y00546*
X0064Y00546*
X0064Y00546*
X00641Y00546*
X00641Y00547*
X00641Y00547*
X00641Y00547*
X00641Y00547*
X00642Y00548*
X00642Y00548*
X00642Y00548*
X00642Y00549*
X00642Y00549*
X00642Y0055*
X00502Y02415D02*
D01*
X00502Y02415*
X00502Y02415*
X00502Y02416*
X00502Y02416*
X00502Y02416*
X00502Y02417*
X00502Y02417*
X00502Y02417*
X00502Y02418*
X00501Y02418*
X00501Y02418*
X00501Y02418*
X00501Y02419*
X005Y02419*
X005Y02419*
X005Y02419*
X00499Y02419*
X00499Y02419*
X00499Y0242*
X00498Y0242*
X00498Y0242*
X00498Y0242*
X00497*
X00497Y0242*
X00497Y0242*
X00496Y0242*
X00496Y02419*
X00496Y02419*
X00495Y02419*
X00495Y02419*
X00495Y02419*
X00495Y02419*
X00494Y02418*
X00494Y02418*
X00494Y02418*
X00494Y02418*
X00493Y02417*
X00493Y02417*
X00493Y02417*
X00493Y02416*
X00493Y02416*
X00493Y02416*
X00493Y02415*
X00493Y02415*
X00493Y02415*
X00493Y02414*
X00493Y02414*
X00493Y02414*
X00493Y02413*
X00493Y02413*
X00493Y02413*
X00493Y02412*
X00493Y02412*
X00494Y02412*
X00494Y02412*
X00494Y02411*
X00494Y02411*
X00495Y02411*
X00495Y02411*
X00495Y02411*
X00495Y0241*
X00496Y0241*
X00496Y0241*
X00496Y0241*
X00497Y0241*
X00497Y0241*
X00497Y0241*
X00498*
X00498Y0241*
X00498Y0241*
X00499Y0241*
X00499Y0241*
X00499Y0241*
X005Y0241*
X005Y02411*
X005Y02411*
X00501Y02411*
X00501Y02411*
X00501Y02411*
X00501Y02412*
X00502Y02412*
X00502Y02412*
X00502Y02412*
X00502Y02413*
X00502Y02413*
X00502Y02413*
X00502Y02414*
X00502Y02414*
X00502Y02414*
X00502Y02415*
X00447Y01098D02*
D01*
X00447Y01099*
X00447Y01099*
X00447Y01099*
X00447Y011*
X00447Y011*
X00446Y011*
X00446Y01101*
X00446Y01101*
X00446Y01101*
X00446Y01102*
X00446Y01102*
X00445Y01102*
X00445Y01102*
X00445Y01102*
X00444Y01103*
X00444Y01103*
X00444Y01103*
X00444Y01103*
X00443Y01103*
X00443Y01103*
X00443Y01103*
X00442Y01103*
X00442*
X00441Y01103*
X00441Y01103*
X00441Y01103*
X0044Y01103*
X0044Y01103*
X0044Y01103*
X0044Y01103*
X00439Y01102*
X00439Y01102*
X00439Y01102*
X00438Y01102*
X00438Y01102*
X00438Y01101*
X00438Y01101*
X00438Y01101*
X00438Y011*
X00437Y011*
X00437Y011*
X00437Y01099*
X00437Y01099*
X00437Y01099*
X00437Y01098*
X00437Y01098*
X00437Y01098*
X00437Y01097*
X00437Y01097*
X00437Y01097*
X00438Y01096*
X00438Y01096*
X00438Y01096*
X00438Y01095*
X00438Y01095*
X00438Y01095*
X00439Y01095*
X00439Y01095*
X00439Y01094*
X0044Y01094*
X0044Y01094*
X0044Y01094*
X0044Y01094*
X00441Y01094*
X00441Y01094*
X00441Y01093*
X00442Y01093*
X00442*
X00443Y01093*
X00443Y01094*
X00443Y01094*
X00444Y01094*
X00444Y01094*
X00444Y01094*
X00444Y01094*
X00445Y01094*
X00445Y01095*
X00445Y01095*
X00446Y01095*
X00446Y01095*
X00446Y01095*
X00446Y01096*
X00446Y01096*
X00446Y01096*
X00447Y01097*
X00447Y01097*
X00447Y01097*
X00447Y01098*
X00447Y01098*
X00447Y01098*
X01104Y00343D02*
D01*
X01104Y00343*
X01104Y00344*
X01104Y00344*
X01104Y00344*
X01104Y00345*
X01104Y00345*
X01104Y00345*
X01104Y00346*
X01103Y00346*
X01103Y00346*
X01103Y00347*
X01103Y00347*
X01103Y00347*
X01102Y00347*
X01102Y00347*
X01102Y00348*
X01101Y00348*
X01101Y00348*
X01101Y00348*
X011Y00348*
X011Y00348*
X011Y00348*
X01099*
X01099Y00348*
X01099Y00348*
X01098Y00348*
X01098Y00348*
X01098Y00348*
X01097Y00348*
X01097Y00347*
X01097Y00347*
X01096Y00347*
X01096Y00347*
X01096Y00347*
X01096Y00346*
X01096Y00346*
X01095Y00346*
X01095Y00345*
X01095Y00345*
X01095Y00345*
X01095Y00344*
X01095Y00344*
X01095Y00344*
X01095Y00343*
X01095Y00343*
X01095Y00343*
X01095Y00342*
X01095Y00342*
X01095Y00342*
X01095Y00341*
X01095Y00341*
X01095Y00341*
X01095Y00341*
X01096Y0034*
X01096Y0034*
X01096Y0034*
X01096Y00339*
X01096Y00339*
X01097Y00339*
X01097Y00339*
X01097Y00339*
X01098Y00339*
X01098Y00338*
X01098Y00338*
X01099Y00338*
X01099Y00338*
X01099Y00338*
X011*
X011Y00338*
X011Y00338*
X01101Y00338*
X01101Y00338*
X01101Y00339*
X01102Y00339*
X01102Y00339*
X01102Y00339*
X01103Y00339*
X01103Y00339*
X01103Y0034*
X01103Y0034*
X01103Y0034*
X01104Y00341*
X01104Y00341*
X01104Y00341*
X01104Y00341*
X01104Y00342*
X01104Y00342*
X01104Y00342*
X01104Y00343*
X01104Y00343*
G54D12*
X01252Y01865D02*
D01*
X01253Y01865*
X01255Y01865*
X01257Y01865*
X01259Y01865*
X0126Y01866*
X01262Y01867*
X01263Y01867*
X01265Y01868*
X01266Y01869*
X01268Y0187*
X01269Y01872*
X0127Y01873*
X01271Y01874*
X01272Y01876*
X01273Y01877*
X01274Y01879*
X01275Y0188*
X01275Y01882*
X01276Y01883*
X01276Y01885*
X01277Y01887*
X01277Y01889*
Y0189*
X01277Y01892*
X01276Y01894*
X01276Y01896*
X01275Y01897*
X01275Y01899*
X01274Y019*
X01273Y01902*
X01272Y01903*
X01271Y01905*
X0127Y01906*
X01269Y01907*
X01268Y01909*
X01266Y0191*
X01265Y01911*
X01263Y01912*
X01262Y01912*
X0126Y01913*
X01259Y01914*
X01257Y01914*
X01255Y01914*
X01253Y01914*
X01252Y01915*
Y01285D02*
D01*
X01253Y01285*
X01255Y01285*
X01257Y01285*
X01259Y01285*
X0126Y01286*
X01262Y01287*
X01263Y01287*
X01265Y01288*
X01266Y01289*
X01268Y0129*
X01269Y01292*
X0127Y01293*
X01271Y01294*
X01272Y01296*
X01273Y01297*
X01274Y01299*
X01275Y013*
X01275Y01302*
X01276Y01303*
X01276Y01305*
X01277Y01307*
X01277Y01309*
Y0131*
X01277Y01312*
X01276Y01314*
X01276Y01316*
X01275Y01317*
X01275Y01319*
X01274Y0132*
X01273Y01322*
X01272Y01323*
X01271Y01325*
X0127Y01326*
X01269Y01327*
X01268Y01329*
X01266Y0133*
X01265Y01331*
X01263Y01332*
X01262Y01332*
X0126Y01333*
X01259Y01334*
X01257Y01334*
X01255Y01334*
X01253Y01334*
X01252Y01335*
X01812Y03035D02*
D01*
X01813Y03035*
X01815Y03035*
X01817Y03035*
X01819Y03035*
X0182Y03036*
X01822Y03037*
X01823Y03037*
X01825Y03038*
X01826Y03039*
X01828Y0304*
X01829Y03042*
X0183Y03043*
X01831Y03044*
X01832Y03046*
X01833Y03047*
X01834Y03049*
X01835Y0305*
X01835Y03052*
X01836Y03053*
X01836Y03055*
X01837Y03057*
X01837Y03059*
Y0306*
X01837Y03062*
X01836Y03064*
X01836Y03066*
X01835Y03067*
X01835Y03069*
X01834Y0307*
X01833Y03072*
X01832Y03073*
X01831Y03075*
X0183Y03076*
X01829Y03077*
X01828Y03079*
X01826Y0308*
X01825Y03081*
X01823Y03082*
X01822Y03082*
X0182Y03083*
X01819Y03084*
X01817Y03084*
X01815Y03084*
X01813Y03084*
X01812Y03085*
Y02375D02*
D01*
X01813Y02375*
X01815Y02375*
X01817Y02375*
X01819Y02375*
X0182Y02376*
X01822Y02377*
X01823Y02377*
X01825Y02378*
X01826Y02379*
X01828Y0238*
X01829Y02382*
X0183Y02383*
X01831Y02384*
X01832Y02386*
X01833Y02387*
X01834Y02389*
X01835Y0239*
X01835Y02392*
X01836Y02393*
X01836Y02395*
X01837Y02397*
X01837Y02399*
Y024*
X01837Y02402*
X01836Y02404*
X01836Y02406*
X01835Y02407*
X01835Y02409*
X01834Y0241*
X01833Y02412*
X01832Y02413*
X01831Y02415*
X0183Y02416*
X01829Y02417*
X01828Y02419*
X01826Y0242*
X01825Y02421*
X01823Y02422*
X01822Y02422*
X0182Y02423*
X01819Y02424*
X01817Y02424*
X01815Y02424*
X01813Y02424*
X01812Y02425*
X02027Y01785D02*
Y01994D01*
X01252Y01915D02*
Y01994D01*
Y01785D02*
Y01865D01*
Y01994D02*
X02027D01*
X01252Y01785D02*
X02027D01*
X00884Y00602D02*
Y00977D01*
X00675Y00602D02*
X00884D01*
X00675D02*
Y00977D01*
X00884*
X0078D02*
Y01065D01*
Y00514D02*
Y00602D01*
X00681Y00896D02*
X00878D01*
X01252Y01205D02*
X02027D01*
X01252Y01414D02*
X02027D01*
X01252Y01205D02*
Y01285D01*
Y01335D02*
Y01414D01*
X02027Y01205D02*
Y01414D01*
X00961Y01184D02*
X01118D01*
X01812Y02955D02*
X02587D01*
X01812Y03164D02*
X02587D01*
X01812Y02955D02*
Y03035D01*
Y03085D02*
Y03164D01*
X02587Y02955D02*
Y03164D01*
X01966Y02688D02*
X02233D01*
X01966D02*
Y02791D01*
X02233*
Y02688D02*
Y02791D01*
Y0274D02*
X02256D01*
X01943D02*
X01966D01*
X01812Y02295D02*
X02587D01*
X01812Y02504D02*
X02587D01*
X01812Y02295D02*
Y02375D01*
Y02425D02*
Y02504D01*
X02587Y02295D02*
Y02504D01*
X01404Y02552D02*
Y02927D01*
X01195Y02552D02*
X01404D01*
X01195D02*
Y02927D01*
X01404*
X013D02*
Y03015D01*
Y02464D02*
Y02552D01*
X01201Y02846D02*
X01398D01*
X01521Y02194D02*
X01678D01*
X01006Y02397D02*
X01113D01*
X01006D02*
Y02602D01*
X01113*
Y02397D02*
Y02602D01*
X01521Y03095D02*
X01678D01*
X01521Y02645D02*
X01678D01*
X00421Y03073D02*
X00578D01*
X02678Y00664D02*
Y00725D01*
X02659Y00664D02*
X02678D01*
X02659Y00615D02*
Y00664D01*
Y00615D02*
X02678D01*
Y00554D02*
Y00615D01*
X02301Y00554D02*
X02678D01*
X02301D02*
Y00725D01*
X02678*
X02648Y00878D02*
Y00891D01*
Y00968D02*
Y00981D01*
X02491D02*
X02648D01*
X02491Y00878D02*
Y00891D01*
Y00968D02*
Y00981D01*
Y00878D02*
X02648D01*
X02341Y00388D02*
Y00401D01*
Y00298D02*
Y00311D01*
Y00298D02*
X02498D01*
Y00388D02*
Y00401D01*
Y00298D02*
Y00311D01*
X02341Y00401D02*
X02498D01*
X0168Y00433D02*
Y00456D01*
Y00723D02*
Y00746D01*
X01628Y00723D02*
X01731D01*
X01628Y00456D02*
Y00723D01*
Y00456D02*
X01731D01*
Y00723*
X02603Y0108D02*
X02626D01*
X02313D02*
X02336D01*
Y01028D02*
Y01131D01*
Y01028D02*
X02603D01*
Y01131*
X02336D02*
X02603D01*
X02498Y00158D02*
Y00171D01*
Y00248D02*
Y00261D01*
X02341D02*
X02498D01*
X02341Y00158D02*
Y00171D01*
Y00248D02*
Y00261D01*
Y00158D02*
X02498D01*
X02011Y00604D02*
X02168D01*
X0182Y00723D02*
Y00746D01*
Y00433D02*
Y00456D01*
X01768D02*
X01871D01*
Y00723*
X01768D02*
X01871D01*
X01768Y00456D02*
Y00723D01*
X00046Y00372D02*
Y00727D01*
Y00372D02*
X00385D01*
X00617Y00644D02*
Y00727D01*
X00046D02*
X00617D01*
X00554Y00372D02*
X00617D01*
Y00455*
X0035Y02703D02*
Y02726D01*
Y02413D02*
Y02436D01*
X00298D02*
X00401D01*
Y02703*
X00298D02*
X00401D01*
X00298Y02436D02*
Y02703D01*
X00521Y02358D02*
Y02371D01*
Y02268D02*
Y02281D01*
Y02268D02*
X00678D01*
Y02358D02*
Y02371D01*
Y02268D02*
Y02281D01*
X00521Y02371D02*
X00678D01*
X00461Y02534D02*
Y02595D01*
X0048*
Y02644*
X00461D02*
X0048D01*
X00461D02*
Y02705D01*
X00838*
Y02534D02*
Y02705D01*
X00461Y02534D02*
X00838D01*
X002Y02703D02*
Y02726D01*
Y02413D02*
Y02436D01*
X00148D02*
X00251D01*
Y02703*
X00148D02*
X00251D01*
X00148Y02436D02*
Y02703D01*
X02367Y01413D02*
X02572D01*
X02367Y01306D02*
Y01413D01*
Y01306D02*
X02572D01*
Y01413*
X02313Y0122D02*
X02336D01*
X02603D02*
X02626D01*
X02603Y01168D02*
Y01271D01*
X02336D02*
X02603D01*
X02336Y01168D02*
Y01271D01*
Y01168D02*
X02603D01*
X00062Y0089D02*
X00422D01*
Y0201*
X00062D02*
X00422D01*
X00062Y0089D02*
Y0201D01*
X02283Y0093D02*
X02306D01*
X01993D02*
X02016D01*
Y00878D02*
Y00981D01*
Y00878D02*
X02283D01*
Y00981*
X02016D02*
X02283D01*
X01321Y00314D02*
X01478D01*
X01014Y00369D02*
Y0077D01*
X00995Y00369D02*
Y0077D01*
X0118Y00369D02*
Y0077D01*
X00995D02*
X0118D01*
X00995Y00369D02*
X0118D01*
X01311Y00626D02*
X01468D01*
X00721Y03073D02*
X00878D01*
X00951Y01834D02*
X01108D01*
G54D13*
X01173Y01289D02*
D01*
X01173Y01298*
X01172Y01307*
X0117Y01317*
X01168Y01326*
X01165Y01334*
X01162Y01343*
X01158Y01352*
X01153Y0136*
X01148Y01367*
X01142Y01375*
X01136Y01382*
X01129Y01388*
X01122Y01394*
X01114Y014*
X01106Y01405*
X01098Y01409*
X0109Y01413*
X01081Y01416*
X01072Y01419*
X01063Y01421*
X01053Y01422*
X01044Y01422*
X01035*
X01026Y01422*
X01016Y01421*
X01007Y01419*
X00998Y01416*
X00989Y01413*
X00981Y01409*
X00973Y01405*
X00965Y014*
X00957Y01394*
X0095Y01388*
X00943Y01382*
X00937Y01375*
X00931Y01367*
X00926Y0136*
X00921Y01352*
X00917Y01343*
X00914Y01334*
X00911Y01326*
X00909Y01317*
X00907Y01307*
X00906Y01298*
X00906Y01289*
X00906Y01279*
X00907Y0127*
X00909Y01261*
X00911Y01252*
X00914Y01243*
X00917Y01234*
X00921Y01226*
X00926Y01218*
X00931Y0121*
X00937Y01203*
X00943Y01196*
X0095Y01189*
X00957Y01183*
X00965Y01178*
X00973Y01173*
X00981Y01168*
X00989Y01165*
X00998Y01161*
X01007Y01159*
X01016Y01157*
X01026Y01156*
X01035Y01155*
X01044*
X01053Y01156*
X01063Y01157*
X01072Y01159*
X01081Y01161*
X0109Y01165*
X01098Y01168*
X01106Y01173*
X01114Y01178*
X01122Y01183*
X01129Y01189*
X01136Y01196*
X01142Y01203*
X01148Y0121*
X01153Y01218*
X01158Y01226*
X01162Y01234*
X01165Y01243*
X01168Y01252*
X0117Y01261*
X01172Y0127*
X01173Y01279*
X01173Y01289*
X01733Y02299D02*
D01*
X01733Y02308*
X01732Y02317*
X0173Y02327*
X01728Y02336*
X01725Y02344*
X01722Y02353*
X01718Y02362*
X01713Y0237*
X01708Y02377*
X01702Y02385*
X01696Y02392*
X01689Y02398*
X01682Y02404*
X01674Y0241*
X01666Y02415*
X01658Y02419*
X0165Y02423*
X01641Y02426*
X01632Y02429*
X01623Y02431*
X01613Y02432*
X01604Y02432*
X01595*
X01586Y02432*
X01576Y02431*
X01567Y02429*
X01558Y02426*
X01549Y02423*
X01541Y02419*
X01533Y02415*
X01525Y0241*
X01517Y02404*
X0151Y02398*
X01503Y02392*
X01497Y02385*
X01491Y02377*
X01486Y0237*
X01481Y02362*
X01477Y02353*
X01474Y02344*
X01471Y02336*
X01469Y02327*
X01467Y02317*
X01466Y02308*
X01466Y02299*
X01466Y02289*
X01467Y0228*
X01469Y02271*
X01471Y02262*
X01474Y02253*
X01477Y02244*
X01481Y02236*
X01486Y02228*
X01491Y0222*
X01497Y02213*
X01503Y02206*
X0151Y02199*
X01517Y02193*
X01525Y02188*
X01533Y02183*
X01541Y02178*
X01549Y02175*
X01558Y02171*
X01567Y02169*
X01576Y02167*
X01586Y02166*
X01595Y02165*
X01604*
X01613Y02166*
X01623Y02167*
X01632Y02169*
X01641Y02171*
X0165Y02175*
X01658Y02178*
X01666Y02183*
X01674Y02188*
X01682Y02193*
X01689Y02199*
X01696Y02206*
X01702Y02213*
X01708Y0222*
X01713Y02228*
X01718Y02236*
X01722Y02244*
X01725Y02253*
X01728Y02262*
X0173Y02271*
X01732Y0228*
X01733Y02289*
X01733Y02299*
Y032D02*
D01*
X01733Y03209*
X01732Y03218*
X0173Y03227*
X01728Y03236*
X01725Y03245*
X01722Y03254*
X01718Y03262*
X01713Y0327*
X01708Y03278*
X01702Y03286*
X01696Y03292*
X01689Y03299*
X01682Y03305*
X01674Y0331*
X01666Y03315*
X01658Y0332*
X0165Y03324*
X01641Y03327*
X01632Y03329*
X01623Y03331*
X01613Y03333*
X01604Y03333*
X01595*
X01586Y03333*
X01576Y03331*
X01567Y03329*
X01558Y03327*
X01549Y03324*
X01541Y0332*
X01533Y03315*
X01525Y0331*
X01517Y03305*
X0151Y03299*
X01503Y03292*
X01497Y03286*
X01491Y03278*
X01486Y0327*
X01481Y03262*
X01477Y03254*
X01474Y03245*
X01471Y03236*
X01469Y03227*
X01467Y03218*
X01466Y03209*
X01466Y032*
X01466Y0319*
X01467Y03181*
X01469Y03172*
X01471Y03163*
X01474Y03154*
X01477Y03145*
X01481Y03137*
X01486Y03129*
X01491Y03121*
X01497Y03113*
X01503Y03107*
X0151Y031*
X01517Y03094*
X01525Y03089*
X01533Y03084*
X01541Y03079*
X01549Y03075*
X01558Y03072*
X01567Y0307*
X01576Y03068*
X01586Y03066*
X01595Y03066*
X01604*
X01613Y03066*
X01623Y03068*
X01632Y0307*
X01641Y03072*
X0165Y03075*
X01658Y03079*
X01666Y03084*
X01674Y03089*
X01682Y03094*
X01689Y031*
X01696Y03107*
X01702Y03113*
X01708Y03121*
X01713Y03129*
X01718Y03137*
X01722Y03145*
X01725Y03154*
X01728Y03163*
X0173Y03172*
X01732Y03181*
X01733Y0319*
X01733Y032*
Y0275D02*
D01*
X01733Y02759*
X01732Y02768*
X0173Y02777*
X01728Y02786*
X01725Y02795*
X01722Y02804*
X01718Y02812*
X01713Y0282*
X01708Y02828*
X01702Y02836*
X01696Y02842*
X01689Y02849*
X01682Y02855*
X01674Y0286*
X01666Y02865*
X01658Y0287*
X0165Y02874*
X01641Y02877*
X01632Y02879*
X01623Y02881*
X01613Y02883*
X01604Y02883*
X01595*
X01586Y02883*
X01576Y02881*
X01567Y02879*
X01558Y02877*
X01549Y02874*
X01541Y0287*
X01533Y02865*
X01525Y0286*
X01517Y02855*
X0151Y02849*
X01503Y02842*
X01497Y02836*
X01491Y02828*
X01486Y0282*
X01481Y02812*
X01477Y02804*
X01474Y02795*
X01471Y02786*
X01469Y02777*
X01467Y02768*
X01466Y02759*
X01466Y0275*
X01466Y0274*
X01467Y02731*
X01469Y02722*
X01471Y02713*
X01474Y02704*
X01477Y02695*
X01481Y02687*
X01486Y02679*
X01491Y02671*
X01497Y02663*
X01503Y02657*
X0151Y0265*
X01517Y02644*
X01525Y02639*
X01533Y02634*
X01541Y02629*
X01549Y02625*
X01558Y02622*
X01567Y0262*
X01576Y02618*
X01586Y02616*
X01595Y02616*
X01604*
X01613Y02616*
X01623Y02618*
X01632Y0262*
X01641Y02622*
X0165Y02625*
X01658Y02629*
X01666Y02634*
X01674Y02639*
X01682Y02644*
X01689Y0265*
X01696Y02657*
X01702Y02663*
X01708Y02671*
X01713Y02679*
X01718Y02687*
X01722Y02695*
X01725Y02704*
X01728Y02713*
X0173Y02722*
X01732Y02731*
X01733Y0274*
X01733Y0275*
X00633Y02969D02*
D01*
X00633Y02978*
X00632Y02987*
X0063Y02997*
X00628Y03006*
X00625Y03014*
X00622Y03023*
X00618Y03032*
X00613Y0304*
X00608Y03047*
X00602Y03055*
X00596Y03062*
X00589Y03068*
X00582Y03074*
X00574Y0308*
X00566Y03085*
X00558Y03089*
X0055Y03093*
X00541Y03096*
X00532Y03099*
X00523Y03101*
X00513Y03102*
X00504Y03102*
X00495*
X00486Y03102*
X00476Y03101*
X00467Y03099*
X00458Y03096*
X00449Y03093*
X00441Y03089*
X00433Y03085*
X00425Y0308*
X00417Y03074*
X0041Y03068*
X00403Y03062*
X00397Y03055*
X00391Y03047*
X00386Y0304*
X00381Y03032*
X00377Y03023*
X00374Y03014*
X00371Y03006*
X00369Y02997*
X00367Y02987*
X00366Y02978*
X00366Y02969*
X00366Y02959*
X00367Y0295*
X00369Y02941*
X00371Y02932*
X00374Y02923*
X00377Y02914*
X00381Y02906*
X00386Y02898*
X00391Y0289*
X00397Y02883*
X00403Y02876*
X0041Y02869*
X00417Y02863*
X00425Y02858*
X00433Y02853*
X00441Y02848*
X00449Y02845*
X00458Y02841*
X00467Y02839*
X00476Y02837*
X00486Y02836*
X00495Y02835*
X00504*
X00513Y02836*
X00523Y02837*
X00532Y02839*
X00541Y02841*
X0055Y02845*
X00558Y02848*
X00566Y02853*
X00574Y02858*
X00582Y02863*
X00589Y02869*
X00596Y02876*
X00602Y02883*
X00608Y0289*
X00613Y02898*
X00618Y02906*
X00622Y02914*
X00625Y02923*
X00628Y02932*
X0063Y02941*
X00632Y0295*
X00633Y02959*
X00633Y02969*
X02223Y00709D02*
D01*
X02223Y00718*
X02222Y00727*
X0222Y00737*
X02218Y00746*
X02215Y00754*
X02212Y00763*
X02208Y00772*
X02203Y0078*
X02198Y00787*
X02192Y00795*
X02186Y00802*
X02179Y00808*
X02172Y00814*
X02164Y0082*
X02156Y00825*
X02148Y00829*
X0214Y00833*
X02131Y00836*
X02122Y00839*
X02113Y00841*
X02103Y00842*
X02094Y00842*
X02085*
X02076Y00842*
X02066Y00841*
X02057Y00839*
X02048Y00836*
X02039Y00833*
X02031Y00829*
X02023Y00825*
X02015Y0082*
X02007Y00814*
X02Y00808*
X01993Y00802*
X01987Y00795*
X01981Y00787*
X01976Y0078*
X01971Y00772*
X01967Y00763*
X01964Y00754*
X01961Y00746*
X01959Y00737*
X01957Y00727*
X01956Y00718*
X01956Y00709*
X01956Y00699*
X01957Y0069*
X01959Y00681*
X01961Y00672*
X01964Y00663*
X01967Y00654*
X01971Y00646*
X01976Y00638*
X01981Y0063*
X01987Y00623*
X01993Y00616*
X02Y00609*
X02007Y00603*
X02015Y00598*
X02023Y00593*
X02031Y00588*
X02039Y00585*
X02048Y00581*
X02057Y00579*
X02066Y00577*
X02076Y00576*
X02085Y00575*
X02094*
X02103Y00576*
X02113Y00577*
X02122Y00579*
X02131Y00581*
X0214Y00585*
X02148Y00588*
X02156Y00593*
X02164Y00598*
X02172Y00603*
X02179Y00609*
X02186Y00616*
X02192Y00623*
X02198Y0063*
X02203Y00638*
X02208Y00646*
X02212Y00654*
X02215Y00663*
X02218Y00672*
X0222Y00681*
X02222Y0069*
X02223Y00699*
X02223Y00709*
X01533Y00419D02*
D01*
X01533Y00428*
X01532Y00437*
X0153Y00447*
X01528Y00456*
X01525Y00464*
X01522Y00473*
X01518Y00482*
X01513Y0049*
X01508Y00497*
X01502Y00505*
X01496Y00512*
X01489Y00518*
X01482Y00524*
X01474Y0053*
X01466Y00535*
X01458Y00539*
X0145Y00543*
X01441Y00546*
X01432Y00549*
X01423Y00551*
X01413Y00552*
X01404Y00552*
X01395*
X01386Y00552*
X01376Y00551*
X01367Y00549*
X01358Y00546*
X01349Y00543*
X01341Y00539*
X01333Y00535*
X01325Y0053*
X01317Y00524*
X0131Y00518*
X01303Y00512*
X01297Y00505*
X01291Y00497*
X01286Y0049*
X01281Y00482*
X01277Y00473*
X01274Y00464*
X01271Y00456*
X01269Y00447*
X01267Y00437*
X01266Y00428*
X01266Y00419*
X01266Y00409*
X01267Y004*
X01269Y00391*
X01271Y00382*
X01274Y00373*
X01277Y00364*
X01281Y00356*
X01286Y00348*
X01291Y0034*
X01297Y00333*
X01303Y00326*
X0131Y00319*
X01317Y00313*
X01325Y00308*
X01333Y00303*
X01341Y00298*
X01349Y00295*
X01358Y00291*
X01367Y00289*
X01376Y00287*
X01386Y00286*
X01395Y00285*
X01404*
X01413Y00286*
X01423Y00287*
X01432Y00289*
X01441Y00291*
X0145Y00295*
X01458Y00298*
X01466Y00303*
X01474Y00308*
X01482Y00313*
X01489Y00319*
X01496Y00326*
X01502Y00333*
X01508Y0034*
X01513Y00348*
X01518Y00356*
X01522Y00364*
X01525Y00373*
X01528Y00382*
X0153Y00391*
X01532Y004*
X01533Y00409*
X01533Y00419*
X01523Y0073D02*
D01*
X01523Y0074*
X01522Y00749*
X0152Y00758*
X01518Y00767*
X01515Y00776*
X01512Y00785*
X01508Y00793*
X01503Y00801*
X01498Y00809*
X01492Y00816*
X01486Y00823*
X01479Y0083*
X01472Y00836*
X01464Y00841*
X01456Y00846*
X01448Y00851*
X0144Y00854*
X01431Y00858*
X01422Y0086*
X01413Y00862*
X01403Y00863*
X01394Y00864*
X01385*
X01376Y00863*
X01366Y00862*
X01357Y0086*
X01348Y00858*
X01339Y00854*
X01331Y00851*
X01323Y00846*
X01315Y00841*
X01307Y00836*
X013Y0083*
X01293Y00823*
X01287Y00816*
X01281Y00809*
X01276Y00801*
X01271Y00793*
X01267Y00785*
X01264Y00776*
X01261Y00767*
X01259Y00758*
X01257Y00749*
X01256Y0074*
X01256Y0073*
X01256Y00721*
X01257Y00712*
X01259Y00702*
X01261Y00693*
X01264Y00685*
X01267Y00676*
X01271Y00667*
X01276Y00659*
X01281Y00652*
X01287Y00644*
X01293Y00637*
X013Y00631*
X01307Y00625*
X01315Y00619*
X01323Y00614*
X01331Y0061*
X01339Y00606*
X01348Y00603*
X01357Y006*
X01366Y00598*
X01376Y00597*
X01385Y00597*
X01394*
X01403Y00597*
X01413Y00598*
X01422Y006*
X01431Y00603*
X0144Y00606*
X01448Y0061*
X01456Y00614*
X01464Y00619*
X01472Y00625*
X01479Y00631*
X01486Y00637*
X01492Y00644*
X01498Y00652*
X01503Y00659*
X01508Y00667*
X01512Y00676*
X01515Y00685*
X01518Y00693*
X0152Y00702*
X01522Y00712*
X01523Y00721*
X01523Y0073*
X00933Y02969D02*
D01*
X00933Y02978*
X00932Y02987*
X0093Y02997*
X00928Y03006*
X00925Y03014*
X00922Y03023*
X00918Y03032*
X00913Y0304*
X00908Y03047*
X00902Y03055*
X00896Y03062*
X00889Y03068*
X00882Y03074*
X00874Y0308*
X00866Y03085*
X00858Y03089*
X0085Y03093*
X00841Y03096*
X00832Y03099*
X00823Y03101*
X00813Y03102*
X00804Y03102*
X00795*
X00786Y03102*
X00776Y03101*
X00767Y03099*
X00758Y03096*
X00749Y03093*
X00741Y03089*
X00733Y03085*
X00725Y0308*
X00717Y03074*
X0071Y03068*
X00703Y03062*
X00697Y03055*
X00691Y03047*
X00686Y0304*
X00681Y03032*
X00677Y03023*
X00674Y03014*
X00671Y03006*
X00669Y02997*
X00667Y02987*
X00666Y02978*
X00666Y02969*
X00666Y02959*
X00667Y0295*
X00669Y02941*
X00671Y02932*
X00674Y02923*
X00677Y02914*
X00681Y02906*
X00686Y02898*
X00691Y0289*
X00697Y02883*
X00703Y02876*
X0071Y02869*
X00717Y02863*
X00725Y02858*
X00733Y02853*
X00741Y02848*
X00749Y02845*
X00758Y02841*
X00767Y02839*
X00776Y02837*
X00786Y02836*
X00795Y02835*
X00804*
X00813Y02836*
X00823Y02837*
X00832Y02839*
X00841Y02841*
X0085Y02845*
X00858Y02848*
X00866Y02853*
X00874Y02858*
X00882Y02863*
X00889Y02869*
X00896Y02876*
X00902Y02883*
X00908Y0289*
X00913Y02898*
X00918Y02906*
X00922Y02914*
X00925Y02923*
X00928Y02932*
X0093Y02941*
X00932Y0295*
X00933Y02959*
X00933Y02969*
X01163Y01939D02*
D01*
X01163Y01948*
X01162Y01957*
X0116Y01967*
X01158Y01976*
X01155Y01984*
X01152Y01993*
X01148Y02002*
X01143Y0201*
X01138Y02017*
X01132Y02025*
X01126Y02032*
X01119Y02038*
X01112Y02044*
X01104Y0205*
X01096Y02055*
X01088Y02059*
X0108Y02063*
X01071Y02066*
X01062Y02069*
X01053Y02071*
X01043Y02072*
X01034Y02072*
X01025*
X01016Y02072*
X01006Y02071*
X00997Y02069*
X00988Y02066*
X00979Y02063*
X00971Y02059*
X00963Y02055*
X00955Y0205*
X00947Y02044*
X0094Y02038*
X00933Y02032*
X00927Y02025*
X00921Y02017*
X00916Y0201*
X00911Y02002*
X00907Y01993*
X00904Y01984*
X00901Y01976*
X00899Y01967*
X00897Y01957*
X00896Y01948*
X00896Y01939*
X00896Y01929*
X00897Y0192*
X00899Y01911*
X00901Y01902*
X00904Y01893*
X00907Y01884*
X00911Y01876*
X00916Y01868*
X00921Y0186*
X00927Y01853*
X00933Y01846*
X0094Y01839*
X00947Y01833*
X00955Y01828*
X00963Y01823*
X00971Y01818*
X00979Y01815*
X00988Y01811*
X00997Y01809*
X01006Y01807*
X01016Y01806*
X01025Y01805*
X01034*
X01043Y01806*
X01053Y01807*
X01062Y01809*
X01071Y01811*
X0108Y01815*
X01088Y01818*
X01096Y01823*
X01104Y01828*
X01112Y01833*
X01119Y01839*
X01126Y01846*
X01132Y01853*
X01138Y0186*
X01143Y01868*
X01148Y01876*
X01152Y01884*
X01155Y01893*
X01158Y01902*
X0116Y01911*
X01162Y0192*
X01163Y01929*
X01163Y01939*
G54D14*
X0191Y02169D02*
Y0212D01*
X0192Y0211*
X0194*
X0195Y0212*
Y02169*
X0197D02*
X02009D01*
Y02159*
X0197Y0212*
Y0211*
X01005Y01498D02*
X00995Y01508D01*
X00975*
X00965Y01498*
Y01458*
X00975Y01448*
X00995*
X01005Y01458*
X01025Y01448D02*
X01045D01*
X01035*
Y01508*
X01025Y01498*
X01104Y01448D02*
Y01508D01*
X01074Y01478*
X01114*
X0079Y02369D02*
Y0232D01*
X008Y0231*
X0082*
X0083Y0232*
Y02369*
X00889D02*
X0085D01*
Y0234*
X00869Y0235*
X00879*
X00889Y0234*
Y0232*
X00879Y0231*
X00859*
X0085Y0232*
X0209Y01469D02*
Y0142D01*
X021Y0141*
X0212*
X0213Y0142*
Y01469*
X02189D02*
X02169Y01459D01*
X0215Y0144*
Y0142*
X02159Y0141*
X02179*
X02189Y0142*
Y0143*
X02179Y0144*
X0215*
X00994Y00871D02*
Y00822D01*
X01004Y00812*
X01023*
X01033Y00822*
Y00871*
X01083Y00812D02*
Y00871D01*
X01053Y00841*
X01093*
X0274Y00689D02*
Y0064D01*
X0275Y0063*
X0277*
X0278Y0064*
Y00689*
X028Y00679D02*
X02809Y00689D01*
X02829*
X02839Y00679*
Y0067*
X02829Y0066*
X02819*
X02829*
X02839Y0065*
Y0064*
X02829Y0063*
X02809*
X028Y0064*
X0264Y02439D02*
Y0239D01*
X0265Y0238*
X0267*
X0268Y0239*
Y02439*
X02739Y0238D02*
X027D01*
X02739Y0242*
Y02429*
X02729Y02439*
X02709*
X027Y02429*
X0264Y03089D02*
Y0304D01*
X0265Y0303*
X0267*
X0268Y0304*
Y03089*
X02699Y0303D02*
X02719D01*
X02709*
Y03089*
X02699Y03079*
X0031Y0221D02*
Y02269D01*
X0034*
X0035Y02259*
Y0224*
X0034Y0223*
X0031*
X0033D02*
X0035Y0221D01*
X0037Y0222D02*
X00379Y0221D01*
X00399*
X00409Y0222*
Y02259*
X00399Y02269*
X00379*
X0037Y02259*
Y0225*
X00379Y0224*
X00409*
X0015Y0221D02*
Y02269D01*
X0018*
X0019Y02259*
Y0224*
X0018Y0223*
X0015*
X0017D02*
X0019Y0221D01*
X0021Y02259D02*
X00219Y02269D01*
X00239*
X00249Y02259*
Y0225*
X00239Y0224*
X00249Y0223*
Y0222*
X00239Y0221*
X00219*
X0021Y0222*
Y0223*
X00219Y0224*
X0021Y0225*
Y02259*
X00219Y0224D02*
X00239D01*
X0176Y009D02*
Y00959D01*
X0179*
X018Y00949*
Y0093*
X0179Y0092*
X0176*
X0178D02*
X018Y009D01*
X0182Y00959D02*
X01859D01*
Y00949*
X0182Y0091*
Y009*
X0276Y0119D02*
Y01249D01*
X0279*
X028Y01239*
Y0122*
X0279Y0121*
X0276*
X0278D02*
X028Y0119D01*
X02859Y01249D02*
X0282D01*
Y0122*
X02839Y0123*
X02849*
X02859Y0122*
Y012*
X02849Y0119*
X02829*
X0282Y012*
X0276Y0105D02*
Y01109D01*
X0279*
X028Y01099*
Y0108*
X0279Y0107*
X0276*
X0278D02*
X028Y0105D01*
X02849D02*
Y01109D01*
X0282Y0108*
X02859*
X0163Y0028D02*
Y00339D01*
X0166*
X0167Y00329*
Y0031*
X0166Y003*
X0163*
X0165D02*
X0167Y0028D01*
X0169Y00329D02*
X01699Y00339D01*
X01719*
X01729Y00329*
Y0032*
X01719Y0031*
X01709*
X01719*
X01729Y003*
Y0029*
X01719Y0028*
X01699*
X0169Y0029*
X0237Y0271D02*
Y02769D01*
X024*
X0241Y02759*
Y0274*
X024Y0273*
X0237*
X0239D02*
X0241Y0271D01*
X02469D02*
X0243D01*
X02469Y0275*
Y02759*
X02459Y02769*
X02439*
X0243Y02759*
X018Y00276D02*
Y00336D01*
X0183*
X0184Y00326*
Y00306*
X0183Y00296*
X018*
X0182D02*
X0184Y00276D01*
X01859D02*
X01879D01*
X01869*
Y00336*
X01859Y00326*
X00104Y02107D02*
X00084D01*
X00094*
Y02058*
X00084Y02048*
X00075*
X00065Y02058*
X00164Y02048D02*
X00124D01*
X00164Y02087*
Y02097*
X00154Y02107*
X00134*
X00124Y02097*
X00091Y00821D02*
X00071D01*
X00081*
Y00772*
X00071Y00762*
X00062*
X00052Y00772*
X00111Y00762D02*
X00131D01*
X00121*
Y00821*
X00111Y00811*
X0276Y01389D02*
Y0133D01*
X0279*
X028Y0134*
Y01379*
X0279Y01389*
X0276*
X02849Y0133D02*
Y01389D01*
X0282Y0136*
X02859*
X0102Y02209D02*
Y0215D01*
X0105*
X0106Y0216*
Y02199*
X0105Y02209*
X0102*
X0108Y02199D02*
X01089Y02209D01*
X01109*
X01119Y02199*
Y0219*
X01109Y0218*
X01099*
X01109*
X01119Y0217*
Y0216*
X01109Y0215*
X01089*
X0108Y0216*
X0125Y02209D02*
Y0215D01*
X0128*
X0129Y0216*
Y02199*
X0128Y02209*
X0125*
X01349Y0215D02*
X0131D01*
X01349Y0219*
Y02199*
X01339Y02209*
X01319*
X0131Y02199*
X0071Y01339D02*
Y0128D01*
X0074*
X0075Y0129*
Y01329*
X0074Y01339*
X0071*
X00769Y0128D02*
X00789D01*
X00779*
Y01339*
X00769Y01329*
X01005Y01769D02*
X00995Y01779D01*
X00975*
X00965Y01769*
Y0173*
X00975Y0172*
X00995*
X01005Y0173*
X01025Y0172D02*
X01045D01*
X01035*
Y01779*
X01025Y01769*
X01074D02*
X01084Y01779D01*
X01104*
X01114Y01769*
Y0176*
X01104Y0175*
X01094*
X01104*
X01114Y0174*
Y0173*
X01104Y0172*
X01084*
X01074Y0173*
X00815Y02249D02*
X00805Y02259D01*
X00785*
X00775Y02249*
Y0221*
X00785Y022*
X00805*
X00815Y0221*
X00835Y022D02*
X00855D01*
X00845*
Y02259*
X00835Y02249*
X00924Y022D02*
X00884D01*
X00924Y0224*
Y02249*
X00914Y02259*
X00894*
X00884Y02249*
X00775Y03189D02*
X00765Y03199D01*
X00745*
X00735Y03189*
Y03149*
X00745Y03139*
X00765*
X00775Y03149*
X00795Y03139D02*
X00814D01*
X00805*
Y03199*
X00795Y03189*
X00844Y03139D02*
X00864D01*
X00854*
Y03199*
X00844Y03189*
X01185Y00931D02*
X01175Y00941D01*
X01155*
X01145Y00931*
Y00891*
X01155Y00881*
X01175*
X01185Y00891*
X01205Y00881D02*
X01225D01*
X01215*
Y00941*
X01205Y00931*
X01254D02*
X01264Y00941D01*
X01284*
X01294Y00931*
Y00891*
X01284Y00881*
X01264*
X01254Y00891*
Y00931*
X0139Y00228D02*
X0138Y00238D01*
X0136*
X0135Y00228*
Y00188*
X0136Y00178*
X0138*
X0139Y00188*
X0141D02*
X01419Y00178D01*
X01439*
X01449Y00188*
Y00228*
X01439Y00238*
X01419*
X0141Y00228*
Y00218*
X01419Y00208*
X01449*
X0047Y03179D02*
X0046Y03189D01*
X0044*
X0043Y03179*
Y0314*
X0044Y0313*
X0046*
X0047Y0314*
X0049Y03179D02*
X00499Y03189D01*
X00519*
X00529Y03179*
Y0317*
X00519Y0316*
X00529Y0315*
Y0314*
X00519Y0313*
X00499*
X0049Y0314*
Y0315*
X00499Y0316*
X0049Y0317*
Y03179*
X00499Y0316D02*
X00519D01*
X0159Y0342D02*
X0158Y0343D01*
X0156*
X0155Y0342*
Y0338*
X0156Y0337*
X0158*
X0159Y0338*
X0161Y0343D02*
X01649D01*
Y0342*
X0161Y0338*
Y0337*
X0265Y00229D02*
X0264Y00239D01*
X0262*
X0261Y00229*
Y0019*
X0262Y0018*
X0264*
X0265Y0019*
X02709Y00239D02*
X02689Y00229D01*
X0267Y0021*
Y0019*
X02679Y0018*
X02699*
X02709Y0019*
Y002*
X02699Y0021*
X0267*
X0265Y00369D02*
X0264Y00379D01*
X0262*
X0261Y00369*
Y0033*
X0262Y0032*
X0264*
X0265Y0033*
X02709Y00379D02*
X0267D01*
Y0035*
X02689Y0036*
X02699*
X02709Y0035*
Y0033*
X02699Y0032*
X02679*
X0267Y0033*
X028Y00949D02*
X0279Y00959D01*
X0277*
X0276Y00949*
Y0091*
X0277Y009*
X0279*
X028Y0091*
X02849Y009D02*
Y00959D01*
X0282Y0093*
X02859*
X0159Y02969D02*
X0158Y02979D01*
X0156*
X0155Y02969*
Y0293*
X0156Y0292*
X0158*
X0159Y0293*
X0161Y02969D02*
X01619Y02979D01*
X01639*
X01649Y02969*
Y0296*
X01639Y0295*
X01629*
X01639*
X01649Y0294*
Y0293*
X01639Y0292*
X01619*
X0161Y0293*
X0208Y00529D02*
X0207Y00539D01*
X0205*
X0204Y00529*
Y00489*
X0205Y00479*
X0207*
X0208Y00489*
X02139Y00479D02*
X021D01*
X02139Y00519*
Y00529*
X02129Y00539*
X02109*
X021Y00529*
X016Y02519D02*
X0159Y02529D01*
X0157*
X0156Y02519*
Y0248*
X0157Y0247*
X0159*
X016Y0248*
X01619Y0247D02*
X01639D01*
X01629*
Y02529*
X01619Y02519*
G54D15*
X0106Y02416D03*
G54D16*
X02553Y0136D03*
M02*