%FSTAX23Y23*%
%MOIN*%
%SFA1B1*%

%IPPOS*%
%ADD18C,0.049210*%
%ADD19R,0.049210X0.049210*%
%ADD22C,0.047240*%
%ADD23R,0.047240X0.047240*%
%ADD24C,0.055120*%
%ADD25R,0.055120X0.055120*%
%ADD26R,0.047240X0.047240*%
%ADD31C,0.043310*%
%ADD32R,0.043310X0.043310*%
%ADD33C,0.086610*%
%ADD34R,0.086610X0.086610*%
%ADD37C,0.015000*%
%ADD38C,0.059060*%
%ADD39R,0.059060X0.059060*%
%ADD40R,0.053150X0.053150*%
%ADD41C,0.053150*%
%ADD42C,0.064960*%
%ADD43R,0.059060X0.059060*%
%ADD44C,0.062990*%
%ADD45R,0.062990X0.062990*%
%ADD46R,0.061020X0.061020*%
%ADD47C,0.061020*%
%LNtachometer-board-1*%
%LPD*%
G36*
X02734Y00015D02*
X00015D01*
Y02134*
X02734*
Y00015*
G37*
%LNtachometer-board-2*%
%LPC*%
G36*
X00592Y02003D02*
X00524D01*
Y01936*
X00592*
Y02003*
G37*
G36*
X00563Y01834D02*
X00554D01*
X00545Y01832*
X00537Y01827*
X00531Y01821*
X00526Y01813*
X00524Y01804*
Y01795*
X00526Y01786*
X00531Y01778*
X00537Y01772*
X00545Y01767*
X00554Y01765*
X00563*
X00572Y01767*
X0058Y01772*
X00586Y01778*
X00591Y01786*
X00593Y01795*
Y01804*
X00591Y01813*
X00586Y01821*
X0058Y01827*
X00572Y01832*
X00563Y01834*
G37*
G36*
X0105Y01836D02*
X00977D01*
Y01763*
X0105*
Y01836*
G37*
G36*
X00664D02*
X00655D01*
X00645Y01834*
X00637Y01829*
X0063Y01822*
X00625Y01814*
X00623Y01804*
Y01795*
X00625Y01785*
X0063Y01777*
X00637Y0177*
X00645Y01765*
X00655Y01763*
X00664*
X00674Y01765*
X00682Y0177*
X00689Y01777*
X00694Y01785*
X00696Y01795*
Y01804*
X00694Y01814*
X00689Y01822*
X00682Y01829*
X00674Y01834*
X00664Y01836*
G37*
G36*
X00563Y01734D02*
X00554D01*
X00545Y01732*
X00537Y01727*
X00531Y01721*
X00526Y01713*
X00524Y01704*
Y01695*
X00526Y01686*
X00531Y01678*
X00537Y01672*
X00545Y01667*
X00554Y01665*
X00563*
X00572Y01667*
X0058Y01672*
X00586Y01678*
X00591Y01686*
X00593Y01695*
Y01704*
X00591Y01713*
X00586Y01721*
X0058Y01727*
X00572Y01732*
X00563Y01734*
G37*
G36*
X00251D02*
X00242D01*
X00233Y01732*
X00225Y01727*
X00218Y01721*
X00214Y01713*
X00212Y01704*
Y01695*
X00214Y01686*
X00218Y01678*
X00225Y01672*
X00233Y01667*
X00242Y01665*
X00251*
X00259Y01667*
X00267Y01672*
X00274Y01678*
X00278Y01686*
X00281Y01695*
Y01704*
X00278Y01713*
X00274Y01721*
X00267Y01727*
X00259Y01732*
X00251Y01734*
G37*
G36*
X00695Y01673D02*
X00627D01*
Y01606*
X00695*
Y01673*
G37*
G36*
X02325Y01673D02*
X02218D01*
Y01566*
X02325*
Y01673*
G37*
G36*
X01454D02*
X0144D01*
X01427Y01669*
X01415Y01662*
X01405Y01652*
X01398Y0164*
X01394Y01627*
Y01612*
X01398Y01599*
X014Y01595*
X01242Y01437*
X0046*
X00453Y01436*
X00447Y01432*
X00276Y01262*
X00272Y01256*
X00271Y01249*
Y00676*
X00153Y00558*
X00145Y0056*
X00134*
X00124Y00557*
X00115Y00552*
X00107Y00544*
X00102Y00535*
X00099Y00525*
Y00514*
X00102Y00504*
X00107Y00495*
X00115Y00487*
X00124Y00482*
X00134Y00479*
X00145*
X00155Y00482*
X00164Y00487*
X00172Y00495*
X00177Y00504*
X0018Y00514*
Y00525*
X00178Y00533*
X00302Y00656*
X00305Y00662*
X00307Y00669*
Y01242*
X00467Y01402*
X0125*
X01256Y01403*
X01262Y01407*
X01426Y0157*
X01427Y0157*
X0144Y01566*
X01454*
X01468Y0157*
X0148Y01577*
X0149Y01587*
X01497Y01599*
X01501Y01612*
Y01627*
X01497Y0164*
X0149Y01652*
X0148Y01662*
X01468Y01669*
X01454Y01673*
G37*
G36*
X00563Y01634D02*
X00554D01*
X00545Y01632*
X00537Y01627*
X00531Y01621*
X00526Y01613*
X00524Y01604*
Y01595*
X00526Y01586*
X00531Y01578*
X00537Y01572*
X00545Y01567*
X00554Y01565*
X00563*
X00572Y01567*
X0058Y01572*
X00586Y01578*
X00591Y01586*
X00593Y01595*
Y01604*
X00591Y01613*
X00586Y01621*
X0058Y01627*
X00572Y01632*
X00563Y01634*
G37*
G36*
X00251D02*
X00242D01*
X00233Y01632*
X00225Y01627*
X00218Y01621*
X00214Y01613*
X00212Y01604*
Y01595*
X00214Y01586*
X00218Y01578*
X00225Y01572*
X00233Y01567*
X00242Y01565*
X00251*
X00259Y01567*
X00267Y01572*
X00274Y01578*
X00278Y01586*
X00281Y01595*
Y01604*
X00278Y01613*
X00274Y01621*
X00267Y01627*
X00259Y01632*
X00251Y01634*
G37*
G36*
X02632Y01623D02*
X02564D01*
Y01556*
X02632*
Y01623*
G37*
G36*
X00563Y01534D02*
X00554D01*
X00545Y01532*
X00537Y01527*
X00531Y01521*
X00526Y01513*
X00524Y01504*
Y01495*
X00526Y01486*
X00531Y01478*
X00537Y01472*
X00545Y01467*
X00554Y01465*
X00563*
X00572Y01467*
X0058Y01472*
X00586Y01478*
X00591Y01486*
X00593Y01495*
Y01504*
X00591Y01513*
X00586Y01521*
X0058Y01527*
X00572Y01532*
X00563Y01534*
G37*
G36*
X00251D02*
X00242D01*
X00233Y01532*
X00225Y01527*
X00218Y01521*
X00214Y01513*
X00212Y01504*
Y01495*
X00214Y01486*
X00218Y01478*
X00225Y01472*
X00233Y01467*
X00242Y01465*
X00251*
X00259Y01467*
X00267Y01472*
X00274Y01478*
X00278Y01486*
X00281Y01495*
Y01504*
X00278Y01513*
X00274Y01521*
X00267Y01527*
X00259Y01532*
X00251Y01534*
G37*
G36*
X01021Y01536D02*
X01012D01*
X01003Y01534*
X00994Y01529*
X00987Y01522*
X00983Y01514*
X0098Y01504*
Y01495*
X00983Y01485*
X00987Y01477*
X00994Y0147*
X01003Y01465*
X01012Y01463*
X01021*
X01031Y01465*
X01039Y0147*
X01046Y01477*
X01051Y01485*
X01053Y01495*
Y01504*
X01051Y01514*
X01046Y01522*
X01039Y01529*
X01031Y01534*
X01021Y01536*
G37*
G36*
X00699D02*
X00626D01*
Y01463*
X00699*
Y01536*
G37*
G36*
X02202Y01462D02*
X02191D01*
X0218Y01459*
X02171Y01453*
X02163Y01446*
X02157Y01436*
X02154Y01425*
Y01414*
X02157Y01403*
X02163Y01393*
X02171Y01386*
X0218Y0138*
X02191Y01377*
X02202*
X02213Y0138*
X02223Y01386*
X02231Y01393*
X02236Y01403*
X02239Y01414*
Y01425*
X02236Y01436*
X02231Y01446*
X02223Y01453*
X02213Y01459*
X02202Y01462*
G37*
G36*
X02605Y01419D02*
X02594D01*
X02584Y01416*
X02575Y01411*
X02568Y01404*
X02563Y01395*
X0256Y01385*
Y01374*
X02563Y01364*
X02568Y01355*
X02575Y01348*
X02584Y01343*
X02594Y0134*
X02605*
X02615Y01343*
X02624Y01348*
X02631Y01355*
X02636Y01364*
X02639Y01374*
Y01385*
X02636Y01395*
X02631Y01404*
X02624Y01411*
X02615Y01416*
X02605Y01419*
G37*
G36*
X02339D02*
X0226D01*
Y0134*
X02339*
Y01419*
G37*
G36*
X00592Y01374D02*
X00525D01*
Y01307*
X00592*
Y01374*
G37*
G36*
X02189Y01316D02*
X0218D01*
X0217Y01314*
X02162Y01309*
X02155Y01302*
X0215Y01294*
X02148Y01284*
Y01275*
X0215Y01265*
X02155Y01257*
X02162Y0125*
X0217Y01245*
X0218Y01243*
X02189*
X02199Y01245*
X02207Y0125*
X02214Y01257*
X02219Y01265*
X02221Y01275*
Y01284*
X02219Y01294*
X02214Y01302*
X02207Y01309*
X02199Y01314*
X02189Y01316*
G37*
G36*
X02305Y01319D02*
X02294D01*
X02284Y01316*
X02275Y01311*
X02268Y01304*
X02263Y01295*
X0226Y01285*
Y01274*
X02262Y01267*
X01952Y00957*
X0121*
X01203Y00956*
X012Y00954*
X01197Y00952*
X01092Y00847*
X01085Y00849*
X01074*
X01064Y00846*
X01055Y00841*
X01048Y00834*
X01043Y00825*
X0104Y00815*
Y00804*
X01043Y00794*
X01048Y00785*
X01055Y00778*
X01064Y00773*
X01074Y0077*
X01085*
X01095Y00773*
X01104Y00778*
X01111Y00785*
X01116Y00794*
X01119Y00804*
Y00815*
X01117Y00822*
X01217Y00922*
X0196*
X01966Y00923*
X01972Y00927*
X02287Y01242*
X02294Y0124*
X02305*
X02315Y01243*
X02324Y01248*
X02331Y01255*
X02336Y01264*
X02339Y01274*
Y01285*
X02336Y01295*
X02331Y01304*
X02324Y01311*
X02315Y01316*
X02305Y01319*
G37*
G36*
X00442Y01217D02*
X00432D01*
X00423Y01215*
X00414Y0121*
X00407Y01203*
X00402Y01194*
X00399Y01184*
Y01175*
X00402Y01165*
X00407Y01156*
X00414Y01149*
X00423Y01145*
X00432Y01142*
X00442*
X00452Y01145*
X0046Y01149*
X00467Y01156*
X00472Y01165*
X00475Y01175*
Y01184*
X00472Y01194*
X00467Y01203*
X0046Y0121*
X00452Y01215*
X00442Y01217*
G37*
G36*
X0016D02*
X00084D01*
Y01142*
X0016*
Y01217*
G37*
G36*
X02605Y01219D02*
X02594D01*
X02584Y01216*
X02575Y01211*
X02568Y01204*
X02563Y01195*
X0256Y01185*
Y01174*
X02563Y01164*
X02568Y01155*
X02575Y01148*
X02584Y01143*
X02594Y0114*
X02605*
X02615Y01143*
X02624Y01148*
X02631Y01155*
X02636Y01164*
X02639Y01174*
Y01185*
X02636Y01195*
X02631Y01204*
X02624Y01211*
X02615Y01216*
X02605Y01219*
G37*
G36*
X02057Y01173D02*
X01989D01*
Y01106*
X02057*
Y01173*
G37*
G36*
X01319Y01149D02*
X0124D01*
Y0107*
X01319*
Y01149*
G37*
G36*
X01185D02*
X01174D01*
X01164Y01146*
X01155Y01141*
X01148Y01134*
X01143Y01125*
X0114Y01115*
Y01104*
X01143Y01094*
X01148Y01085*
X01155Y01078*
X01164Y01073*
X01174Y0107*
X01185*
X01195Y01073*
X01204Y01078*
X01211Y01085*
X01216Y01094*
X01219Y01104*
Y01115*
X01216Y01125*
X01211Y01134*
X01204Y01141*
X01195Y01146*
X01185Y01149*
G37*
G36*
X01085D02*
X01074D01*
X01064Y01146*
X01055Y01141*
X01048Y01134*
X01043Y01125*
X0104Y01115*
Y01104*
X01043Y01094*
X01048Y01085*
X01055Y01078*
X01064Y01073*
X01074Y0107*
X01085*
X01095Y01073*
X01104Y01078*
X01111Y01085*
X01116Y01094*
X01119Y01104*
Y01115*
X01116Y01125*
X01111Y01134*
X01104Y01141*
X01095Y01146*
X01085Y01149*
G37*
G36*
X00985D02*
X00974D01*
X00964Y01146*
X00955Y01141*
X00948Y01134*
X00943Y01125*
X0094Y01115*
Y01104*
X00943Y01094*
X00948Y01085*
X00955Y01078*
X00964Y01073*
X00974Y0107*
X00985*
X00995Y01073*
X01004Y01078*
X01011Y01085*
X01016Y01094*
X01019Y01104*
Y01115*
X01016Y01125*
X01011Y01134*
X01004Y01141*
X00995Y01146*
X00985Y01149*
G37*
G36*
X00885D02*
X00874D01*
X00864Y01146*
X00855Y01141*
X00848Y01134*
X00843Y01125*
X0084Y01115*
Y01104*
X00843Y01094*
X00848Y01085*
X00855Y01078*
X00864Y01073*
X00874Y0107*
X00885*
X00895Y01073*
X00904Y01078*
X00911Y01085*
X00916Y01094*
X00919Y01104*
Y01115*
X00916Y01125*
X00911Y01134*
X00904Y01141*
X00895Y01146*
X00885Y01149*
G37*
G36*
X00785D02*
X00774D01*
X00764Y01146*
X00755Y01141*
X00748Y01134*
X00743Y01125*
X0074Y01115*
Y01104*
X00743Y01094*
X00748Y01085*
X00755Y01078*
X00764Y01073*
X00774Y0107*
X00785*
X00795Y01073*
X00804Y01078*
X00811Y01085*
X00816Y01094*
X00819Y01104*
Y01115*
X00816Y01125*
X00811Y01134*
X00804Y01141*
X00795Y01146*
X00785Y01149*
G37*
G36*
X00685D02*
X00674D01*
X00664Y01146*
X00655Y01141*
X00648Y01134*
X00643Y01125*
X0064Y01115*
Y01104*
X00643Y01094*
X00648Y01085*
X00655Y01078*
X00664Y01073*
X00674Y0107*
X00685*
X00695Y01073*
X00704Y01078*
X00711Y01085*
X00716Y01094*
X00719Y01104*
Y01115*
X00716Y01125*
X00711Y01134*
X00704Y01141*
X00695Y01146*
X00685Y01149*
G37*
G36*
X00127Y01117D02*
X00117D01*
X00108Y01115*
X00099Y0111*
X00092Y01103*
X00087Y01094*
X00084Y01084*
Y01075*
X00087Y01065*
X00092Y01056*
X00099Y01049*
X00108Y01045*
X00117Y01042*
X00127*
X00137Y01045*
X00145Y01049*
X00152Y01056*
X00157Y01065*
X0016Y01075*
Y01084*
X00157Y01094*
X00152Y01103*
X00145Y0111*
X00137Y01115*
X00127Y01117*
G37*
G36*
X02305Y01119D02*
X02294D01*
X02284Y01116*
X02275Y01111*
X02268Y01104*
X02263Y01095*
X0226Y01085*
Y01074*
X02263Y01064*
X02268Y01055*
X02275Y01048*
X02284Y01043*
X02294Y0104*
X02305*
X02315Y01043*
X02324Y01048*
X02331Y01055*
X02336Y01064*
X02339Y01074*
Y01085*
X02336Y01095*
X02331Y01104*
X02324Y01111*
X02315Y01116*
X02305Y01119*
G37*
G36*
X00442Y01017D02*
X00432D01*
X00423Y01015*
X00414Y0101*
X00407Y01003*
X00402Y00994*
X00399Y00984*
Y00975*
X00402Y00965*
X00407Y00956*
X00414Y00949*
X00423Y00945*
X00432Y00942*
X00442*
X00452Y00945*
X0046Y00949*
X00467Y00956*
X00472Y00965*
X00475Y00975*
Y00984*
X00472Y00994*
X00467Y01003*
X0046Y0101*
X00452Y01015*
X00442Y01017*
G37*
G36*
X00127D02*
X00117D01*
X00108Y01015*
X00099Y0101*
X00092Y01003*
X00087Y00994*
X00084Y00984*
Y00975*
X00087Y00965*
X00092Y00956*
X00099Y00949*
X00108Y00945*
X00117Y00942*
X00127*
X00137Y00945*
X00145Y00949*
X00152Y00956*
X00157Y00965*
X0016Y00975*
Y00984*
X00157Y00994*
X00152Y01003*
X00145Y0101*
X00137Y01015*
X00127Y01017*
G37*
G36*
X02605Y01019D02*
X02594D01*
X02584Y01016*
X02575Y01011*
X02568Y01004*
X02563Y00995*
X0256Y00985*
Y00974*
X02563Y00964*
X02568Y00955*
X02575Y00948*
X02584Y00943*
X02594Y0094*
X02605*
X02615Y00943*
X02624Y00948*
X02631Y00955*
X02636Y00964*
X02639Y00974*
Y00985*
X02636Y00995*
X02631Y01004*
X02624Y01011*
X02615Y01016*
X02605Y01019*
G37*
G36*
X02013Y00876D02*
X01982D01*
Y00845*
X02013*
Y00876*
G37*
G36*
X01972D02*
X0194D01*
Y00845*
X01972*
Y00876*
G37*
G36*
X00442Y00917D02*
X00432D01*
X00423Y00915*
X00414Y0091*
X00407Y00903*
X00402Y00894*
X00399Y00884*
Y00875*
X00402Y00865*
X00407Y00856*
X00414Y00849*
X00423Y00845*
X00432Y00842*
X00442*
X00452Y00845*
X0046Y00849*
X00467Y00856*
X00472Y00865*
X00475Y00875*
Y00884*
X00472Y00894*
X00467Y00903*
X0046Y0091*
X00452Y00915*
X00442Y00917*
G37*
G36*
X00127D02*
X00117D01*
X00108Y00915*
X00099Y0091*
X00092Y00903*
X00087Y00894*
X00084Y00884*
Y00875*
X00087Y00865*
X00092Y00856*
X00099Y00849*
X00108Y00845*
X00117Y00842*
X00127*
X00137Y00845*
X00145Y00849*
X00152Y00856*
X00157Y00865*
X0016Y00875*
Y00884*
X00157Y00894*
X00152Y00903*
X00145Y0091*
X00137Y00915*
X00127Y00917*
G37*
G36*
X02305Y00919D02*
X02294D01*
X02284Y00916*
X02275Y00911*
X02268Y00904*
X02263Y00895*
X0226Y00885*
Y00874*
X02263Y00864*
X02268Y00855*
X02275Y00848*
X02284Y00843*
X02294Y0084*
X02305*
X02315Y00843*
X02324Y00848*
X02331Y00855*
X02336Y00864*
X02339Y00874*
Y00885*
X02336Y00895*
X02331Y00904*
X02324Y00911*
X02315Y00916*
X02305Y00919*
G37*
G36*
X02013Y00835D02*
X01982D01*
Y00803*
X02013*
Y00835*
G37*
G36*
X01972D02*
X0194D01*
Y00803*
X01972*
Y00835*
G37*
G36*
X01627Y00876D02*
X01618D01*
X01608Y00874*
X016Y00869*
X01593Y00862*
X01588Y00854*
X01586Y00844*
Y00835*
X01588Y00825*
X01593Y00817*
X016Y0081*
X01608Y00805*
X01618Y00803*
X01627*
X01636Y00805*
X01645Y0081*
X01652Y00817*
X01656Y00825*
X01659Y00835*
Y00844*
X01656Y00854*
X01652Y00862*
X01645Y00869*
X01636Y00874*
X01627Y00876*
G37*
G36*
X01473Y00843D02*
X01406D01*
Y00776*
X01473*
Y00843*
G37*
G36*
X01285Y00849D02*
X01274D01*
X01264Y00846*
X01255Y00841*
X01248Y00834*
X01243Y00825*
X0124Y00815*
Y00804*
X01243Y00794*
X01248Y00785*
X01255Y00778*
X01264Y00773*
X01274Y0077*
X01285*
X01295Y00773*
X01304Y00778*
X01311Y00785*
X01316Y00794*
X01319Y00804*
Y00815*
X01316Y00825*
X01311Y00834*
X01304Y00841*
X01295Y00846*
X01285Y00849*
G37*
G36*
X01185D02*
X01174D01*
X01164Y00846*
X01155Y00841*
X01148Y00834*
X01143Y00825*
X0114Y00815*
Y00804*
X01143Y00794*
X01148Y00785*
X01155Y00778*
X01164Y00773*
X01174Y0077*
X01185*
X01195Y00773*
X01204Y00778*
X01211Y00785*
X01216Y00794*
X01219Y00804*
Y00815*
X01216Y00825*
X01211Y00834*
X01204Y00841*
X01195Y00846*
X01185Y00849*
G37*
G36*
X00885D02*
X00874D01*
X00864Y00846*
X00855Y00841*
X00848Y00834*
X00843Y00825*
X0084Y00815*
Y00804*
X00843Y00794*
X00848Y00785*
X00855Y00778*
X00864Y00773*
X00874Y0077*
X00885*
X00895Y00773*
X00904Y00778*
X00911Y00785*
X00916Y00794*
X00919Y00804*
Y00815*
X00916Y00825*
X00911Y00834*
X00904Y00841*
X00895Y00846*
X00885Y00849*
G37*
G36*
X00785D02*
X00774D01*
X00764Y00846*
X00755Y00841*
X00748Y00834*
X00743Y00825*
X0074Y00815*
Y00804*
X00743Y00794*
X00748Y00785*
X00755Y00778*
X00764Y00773*
X00774Y0077*
X00785*
X00795Y00773*
X00804Y00778*
X00811Y00785*
X00816Y00794*
X00819Y00804*
Y00815*
X00816Y00825*
X00811Y00834*
X00804Y00841*
X00795Y00846*
X00785Y00849*
G37*
G36*
X00685D02*
X00674D01*
X00664Y00846*
X00655Y00841*
X00648Y00834*
X00643Y00825*
X0064Y00815*
Y00804*
X00643Y00794*
X00648Y00785*
X00655Y00778*
X00664Y00773*
X00674Y0077*
X00685*
X00695Y00773*
X00704Y00778*
X00711Y00785*
X00716Y00794*
X00719Y00804*
Y00815*
X00716Y00825*
X00711Y00834*
X00704Y00841*
X00695Y00846*
X00685Y00849*
G37*
G36*
X00585D02*
X00574D01*
X00564Y00846*
X00555Y00841*
X00548Y00834*
X00543Y00825*
X0054Y00815*
Y00804*
X00543Y00794*
X00548Y00785*
X00555Y00778*
X00564Y00773*
X00574Y0077*
X00585*
X00595Y00773*
X00604Y00778*
X00611Y00785*
X00616Y00794*
X00619Y00804*
Y00815*
X00616Y00825*
X00611Y00834*
X00604Y00841*
X00595Y00846*
X00585Y00849*
G37*
G36*
X02605Y00819D02*
X02594D01*
X02584Y00816*
X02575Y00811*
X02568Y00804*
X02563Y00795*
X0256Y00785*
Y00774*
X02563Y00764*
X02568Y00755*
X02575Y00748*
X02584Y00743*
X02594Y0074*
X02605*
X02615Y00743*
X02624Y00748*
X02631Y00755*
X02636Y00764*
X02639Y00774*
Y00785*
X02636Y00795*
X02631Y00804*
X02624Y00811*
X02615Y00816*
X02605Y00819*
G37*
G36*
X01981Y00756D02*
X01972D01*
X01963Y00754*
X01954Y00749*
X01947Y00742*
X01943Y00734*
X0194Y00724*
Y00715*
X01943Y00705*
X01947Y00697*
X01954Y0069*
X01963Y00685*
X01972Y00683*
X01981*
X01991Y00685*
X01999Y0069*
X02006Y00697*
X02011Y00705*
X02013Y00715*
Y00724*
X02011Y00734*
X02006Y00742*
X01999Y00749*
X01991Y00754*
X01981Y00756*
G37*
G36*
X01659D02*
X01586D01*
Y00683*
X01659*
Y00756*
G37*
G36*
X01462Y00613D02*
X01454D01*
X01445Y00611*
X01437Y00606*
X01431Y006*
X01427Y00592*
X01424Y00584*
Y00575*
X01427Y00567*
X01431Y00559*
X01437Y00553*
X01445Y00548*
X01454Y00546*
X01462*
X01471Y00548*
X01479Y00553*
X01485Y00559*
X01489Y00567*
X01492Y00575*
Y00584*
X01489Y00592*
X01485Y006*
X01479Y00606*
X01471Y00611*
X01462Y00613*
G37*
G36*
X01295D02*
X01227D01*
Y00546*
X01295*
Y00613*
G37*
G36*
X0194Y00604D02*
X01931D01*
X01922Y00602*
X01915Y00597*
X01908Y00591*
X01904Y00583*
X01901Y00574*
Y00565*
X01904Y00556*
X01908Y00548*
X01915Y00542*
X01922Y00537*
X01931Y00535*
X0194*
X01949Y00537*
X01957Y00542*
X01963Y00548*
X01968Y00556*
X0197Y00565*
Y00574*
X01968Y00583*
X01963Y00591*
X01957Y00597*
X01949Y00602*
X0194Y00604*
G37*
G36*
X02075Y00553D02*
X02007D01*
Y00486*
X02075*
Y00553*
G37*
G36*
X0194Y00504D02*
X01931D01*
X01922Y00502*
X01915Y00497*
X01908Y00491*
X01904Y00483*
X01901Y00474*
Y00465*
X01904Y00456*
X01908Y00448*
X01915Y00442*
X01922Y00437*
X01931Y00435*
X0194*
X01949Y00437*
X01957Y00442*
X01963Y00448*
X01968Y00456*
X0197Y00465*
Y00474*
X01968Y00483*
X01963Y00491*
X01957Y00497*
X01949Y00502*
X0194Y00504*
G37*
G36*
X01628D02*
X01619D01*
X0161Y00502*
X01602Y00497*
X01596Y00491*
X01591Y00483*
X01589Y00474*
Y00465*
X01591Y00456*
X01596Y00448*
X01602Y00442*
X0161Y00437*
X01619Y00435*
X01628*
X01637Y00437*
X01644Y00442*
X01651Y00448*
X01655Y00456*
X01658Y00465*
Y00474*
X01655Y00483*
X01651Y00491*
X01644Y00497*
X01637Y00502*
X01628Y00504*
G37*
G36*
X01503Y00486D02*
X0143D01*
Y00413*
X01503*
Y00486*
G37*
G36*
X00442Y01117D02*
X00432D01*
X00423Y01115*
X00414Y0111*
X00407Y01103*
X00402Y01094*
X00399Y01084*
Y01075*
X00402Y01065*
X00407Y01056*
X00414Y01049*
X00423Y01045*
X00432Y01042*
X00442*
X00448Y01044*
X00485Y01007*
Y00777*
X00486Y0077*
X0049Y00764*
X00817Y00437*
X0082Y00435*
X00823Y00433*
X0083Y00432*
X0108*
X01083Y00427*
X0109Y0042*
X01098Y00415*
X01108Y00413*
X01117*
X01126Y00415*
X01135Y0042*
X01142Y00427*
X01146Y00435*
X01149Y00445*
Y00454*
X01146Y00464*
X01142Y00472*
X01135Y00479*
X01126Y00484*
X01117Y00486*
X01108*
X01098Y00484*
X0109Y00479*
X01083Y00472*
X0108Y00467*
X00837*
X0052Y00784*
Y01014*
X00519Y01021*
X00515Y01027*
X00473Y01069*
X00475Y01075*
Y01084*
X00472Y01094*
X00467Y01103*
X0046Y0111*
X00452Y01115*
X00442Y01117*
G37*
G36*
X00713Y00471D02*
X00705D01*
X00697Y00469*
X00689Y00465*
X00683Y00459*
X00679Y00452*
X00677Y00444*
Y00435*
X00679Y00427*
X00683Y0042*
X00689Y00414*
X00697Y0041*
X00705Y00408*
X00713*
X00721Y0041*
X00728Y00414*
X00734Y0042*
X00738Y00427*
X0074Y00435*
Y00444*
X00738Y00452*
X00734Y00459*
X00728Y00465*
X00721Y00469*
X00713Y00471*
G37*
G36*
X0194Y00404D02*
X01931D01*
X01922Y00402*
X01915Y00397*
X01908Y00391*
X01904Y00383*
X01901Y00374*
Y00365*
X01904Y00356*
X01908Y00348*
X01915Y00342*
X01922Y00337*
X01931Y00335*
X0194*
X01949Y00337*
X01957Y00342*
X01963Y00348*
X01968Y00356*
X0197Y00365*
Y00374*
X01968Y00383*
X01963Y00391*
X01957Y00397*
X01949Y00402*
X0194Y00404*
G37*
G36*
X01628D02*
X01619D01*
X0161Y00402*
X01602Y00397*
X01596Y00391*
X01591Y00383*
X01589Y00374*
Y00365*
X01591Y00356*
X01596Y00348*
X01602Y00342*
X0161Y00337*
X01619Y00335*
X01628*
X01637Y00337*
X01644Y00342*
X01651Y00348*
X01655Y00356*
X01658Y00365*
Y00374*
X01655Y00383*
X01651Y00391*
X01644Y00397*
X01637Y00402*
X01628Y00404*
G37*
G36*
X02401Y00396D02*
X02392D01*
X02383Y00394*
X02374Y00389*
X02367Y00382*
X02363Y00374*
X0236Y00364*
Y00355*
X02363Y00345*
X02367Y00337*
X02374Y0033*
X02383Y00325*
X02392Y00323*
X02401*
X02411Y00325*
X02419Y0033*
X02426Y00337*
X02431Y00345*
X02433Y00355*
Y00364*
X02431Y00374*
X02426Y00382*
X02419Y00389*
X02411Y00394*
X02401Y00396*
G37*
G36*
X02079D02*
X02006D01*
Y00323*
X02079*
Y00396*
G37*
G36*
X00393Y00355D02*
X00326D01*
Y00287*
X00393*
Y00355*
G37*
G36*
X01471Y00356D02*
X01462D01*
X01453Y00354*
X01444Y00349*
X01437Y00342*
X01433Y00334*
X0143Y00324*
Y00315*
X01433Y00305*
X01437Y00297*
X01444Y0029*
X01453Y00285*
X01462Y00283*
X01471*
X01481Y00285*
X01489Y0029*
X01496Y00297*
X01501Y00305*
X01503Y00315*
Y00324*
X01501Y00334*
X01496Y00342*
X01489Y00349*
X01481Y00354*
X01471Y00356*
G37*
G36*
X00145Y0046D02*
X00134D01*
X00124Y00457*
X00115Y00452*
X00107Y00444*
X00102Y00435*
X00099Y00425*
Y00414*
X00102Y00404*
X00107Y00395*
X00115Y00387*
X00124Y00382*
X00134Y00379*
X00145*
X00155Y00382*
X00164Y00387*
X00172Y00395*
X00176Y00402*
X00432*
X00527Y00307*
X00533Y00303*
X0054Y00302*
X01076*
Y00283*
X01149*
Y00356*
X01076*
Y00337*
X00547*
X00452Y00432*
X00446Y00436*
X0044Y00437*
X00176*
X00172Y00444*
X00164Y00452*
X00155Y00457*
X00145Y0046*
G37*
G36*
X0194Y00304D02*
X01931D01*
X01922Y00302*
X01915Y00297*
X01908Y00291*
X01904Y00283*
X01901Y00274*
Y00265*
X01904Y00256*
X01908Y00248*
X01915Y00242*
X01922Y00237*
X01931Y00235*
X0194*
X01949Y00237*
X01957Y00242*
X01963Y00248*
X01968Y00256*
X0197Y00265*
Y00274*
X01968Y00283*
X01963Y00291*
X01957Y00297*
X01949Y00302*
X0194Y00304*
G37*
G36*
X01628D02*
X01619D01*
X0161Y00302*
X01602Y00297*
X01596Y00291*
X01591Y00283*
X01589Y00274*
Y00265*
X01591Y00256*
X01596Y00248*
X01602Y00242*
X0161Y00237*
X01619Y00235*
X01628*
X01637Y00237*
X01644Y00242*
X01651Y00248*
X01655Y00256*
X01658Y00265*
Y00274*
X01655Y00283*
X01651Y00291*
X01644Y00297*
X01637Y00302*
X01628Y00304*
G37*
G36*
X02075Y00273D02*
X02007D01*
Y00206*
X02075*
Y00273*
G37*
G36*
X01462Y00222D02*
X01451D01*
X0144Y00219*
X01431Y00213*
X01423Y00206*
X01417Y00196*
X01414Y00185*
Y00174*
X01417Y00163*
X01423Y00153*
X01431Y00146*
X0144Y0014*
X01451Y00137*
X01462*
X01473Y0014*
X01483Y00146*
X01491Y00153*
X01496Y00163*
X01499Y00174*
Y00185*
X01496Y00196*
X01491Y00206*
X01483Y00213*
X01473Y00219*
X01462Y00222*
G37*
G36*
X00645Y00181D02*
X00634D01*
X00623Y00178*
X00614Y00173*
X00606Y00165*
X00601Y00156*
X00598Y00145*
Y00134*
X00601Y00123*
X00606Y00114*
X00614Y00106*
X00623Y00101*
X00634Y00098*
X00645*
X00656Y00101*
X00665Y00106*
X00673Y00114*
X00678Y00123*
X00681Y00134*
Y00145*
X00678Y00156*
X00673Y00165*
X00665Y00173*
X00656Y00178*
X00645Y00181*
G37*
G36*
X00481D02*
X00398D01*
Y00098*
X00481*
Y00181*
G37*
G36*
X0018Y0016D02*
X00099D01*
Y00079*
X0018*
Y0016*
G37*
G36*
X02075Y00133D02*
X02007D01*
Y00066*
X02075*
Y00133*
G37*
%LNtachometer-board-3*%
%LPD*%
G54D18*
X00559Y018D03*
Y017D03*
Y016D03*
Y015D03*
X00246D03*
Y016D03*
Y017D03*
X01936Y0057D03*
Y0047D03*
Y0037D03*
Y0027D03*
X01623D03*
Y0037D03*
Y0047D03*
G54D19*
X00246Y018D03*
X01623Y0057D03*
G54D22*
X00858Y0164D03*
X00361Y0197D03*
X0144Y01006D03*
X00756Y0134D03*
X01458Y0058D03*
X02238Y001D03*
Y0024D03*
Y0052D03*
X01826Y0114D03*
X02401Y0159D03*
X0036Y00518D03*
G54D23*
X00661Y0164D03*
X00558Y0197D03*
X00559Y0134D03*
X01261Y0058D03*
X02041Y001D03*
Y0024D03*
Y0052D03*
X02023Y0114D03*
X02598Y0159D03*
G54D24*
X00122Y0088D03*
Y0098D03*
Y0108D03*
X00437Y0088D03*
Y0098D03*
Y0108D03*
Y0118D03*
G54D25*
X00122Y0118D03*
G54D26*
X0144Y0081D03*
X0036Y00321D03*
G54D31*
X00709Y0044D03*
G54D32*
X0061Y0044D03*
G54D33*
X01447Y0162D03*
G54D34*
X02272Y0162D03*
G54D37*
X0083Y0045D02*
X01112D01*
X00502Y00777D02*
Y01014D01*
Y00777D02*
X0083Y0045D01*
X0125Y0142D02*
X01447Y01617D01*
Y0162*
X00289Y01249D02*
X0046Y0142D01*
X0125*
X0014Y0052D02*
X00289Y00669D01*
Y01249*
X0044Y0042D02*
X0054Y0032D01*
X0014Y0042D02*
X0044D01*
X0054Y0032D02*
X01112D01*
X00437Y0108D02*
X00502Y01014D01*
X0196Y0094D02*
X023Y0128D01*
X0121Y0094D02*
X0196D01*
X0108Y0081D02*
X0121Y0094D01*
G54D38*
X0058Y0081D03*
X0068D03*
X0078D03*
X0088D03*
X0098D03*
X0108D03*
X0118D03*
X0128D03*
X0058Y0111D03*
X0068D03*
X0078D03*
X0088D03*
X0098D03*
X0108D03*
X0118D03*
X026Y0078D03*
Y0088D03*
Y0098D03*
Y0108D03*
Y0118D03*
Y0128D03*
Y0138D03*
X023Y0078D03*
Y0088D03*
Y0098D03*
Y0108D03*
Y0118D03*
Y0128D03*
G54D39*
X0128Y0111D03*
G54D40*
X00662Y015D03*
X01014Y018D03*
X01977Y0084D03*
X01622Y0072D03*
X02042Y0036D03*
X01467Y0045D03*
X01112Y0032D03*
X0183Y0128D03*
G54D41*
X01017Y015D03*
X0066Y018D03*
X01622Y0084D03*
X01977Y0072D03*
X02397Y0036D03*
X01112Y0045D03*
X01467Y0032D03*
X02184Y0128D03*
G54D42*
X01102Y0018D03*
X01457D03*
X01842Y0142D03*
X02197D03*
G54D43*
X023Y0138D03*
G54D44*
X0064Y0014D03*
X0054D03*
G54D45*
X0044Y0014D03*
G54D46*
X0014Y0012D03*
G54D47*
X0014Y0022D03*
Y0032D03*
Y0042D03*
Y0052D03*
M02*