%FSTAX23Y23*%
%MOIN*%
%SFA1B1*%

%IPPOS*%
%ADD48C,0.003940*%
%ADD49C,0.001970*%
%LNtachometer-board-1*%
%LPD*%
G54D48*
X0091Y0096D02*
X00949D01*
X0093Y0094D02*
Y00979D01*
X0084Y0148D02*
Y01519D01*
X0082Y015D02*
X00859D01*
X00837Y0178D02*
Y01819D01*
X00817Y018D02*
X00856D01*
X018Y0082D02*
Y00859D01*
X0178Y0084D02*
X01819D01*
X018Y007D02*
Y00739D01*
X0178Y0072D02*
X01819D01*
X0222Y0034D02*
Y00379D01*
X022Y0036D02*
X02239D01*
X0126Y0018D02*
X01299D01*
X0128Y0016D02*
Y00199D01*
X0129Y0043D02*
Y00469D01*
X0127Y0045D02*
X01309D01*
X0129Y003D02*
Y00339D01*
X0127Y0032D02*
X01309D01*
X0245Y0106D02*
Y01099D01*
X0243Y0108D02*
X02469D01*
X0052Y0014D02*
X00559D01*
X0054Y0012D02*
Y00159D01*
X02Y0142D02*
X02039D01*
X0202Y014D02*
Y01439D01*
X02007Y0126D02*
Y01299D01*
X01988Y0128D02*
X02027D01*
G54D49*
X00532Y00769D02*
Y0115D01*
X01327Y00769D02*
Y0115D01*
X00532Y00769D02*
X01327D01*
X00532Y0115D02*
X01327D01*
X01047Y01448D02*
Y01551D01*
X00632D02*
X01047D01*
X00632Y01448D02*
X01047D01*
X00632D02*
Y01551D01*
X00629Y01748D02*
Y01851D01*
Y01748D02*
X01044D01*
X00629Y01851D02*
X01044D01*
Y01748D02*
Y01851D01*
X01592Y00788D02*
Y00891D01*
Y00788D02*
X02007D01*
X01592Y00891D02*
X02007D01*
Y00788D02*
Y00891D01*
Y00668D02*
Y00771D01*
X01592D02*
X02007D01*
X01592Y00668D02*
X02007D01*
X01592D02*
Y00771D01*
X02427Y00308D02*
Y00411D01*
X02012D02*
X02427D01*
X02012Y00308D02*
X02427D01*
X02012D02*
Y00411D01*
X01066Y00122D02*
Y00237D01*
Y00122D02*
X01493D01*
X01066Y00237D02*
X01493D01*
Y00122D02*
Y00237D01*
X01082Y00398D02*
Y00501D01*
Y00398D02*
X01497D01*
X01082Y00501D02*
X01497D01*
Y00398D02*
Y00501D01*
Y00268D02*
Y00371D01*
X01082D02*
X01497D01*
X01082Y00268D02*
X01497D01*
X01082D02*
Y00371D01*
X02259Y00682D02*
X0264D01*
X02259Y01477D02*
X0264D01*
Y00682D02*
Y01477D01*
X02259Y00682D02*
Y01477D01*
X0075Y00049D02*
Y00254D01*
X00329Y00049D02*
Y00254D01*
X0075*
X00329Y00049D02*
X0075D01*
X01806Y01362D02*
Y01477D01*
Y01362D02*
X02233D01*
X01806Y01477D02*
X02233D01*
Y01362D02*
Y01477D01*
X02215Y01228D02*
Y01331D01*
X018D02*
X02215D01*
X018Y01228D02*
X02215D01*
X018D02*
Y01331D01*
X00081Y00586D02*
X00198D01*
Y00053D02*
Y00586D01*
X00081Y00053D02*
X00198D01*
X00081D02*
Y00586D01*
M02*