%FSTAX23Y23*%
%MOIN*%
%SFA1B1*%

%IPPOS*%
%ADD10C,0.023620*%
%ADD11C,0.009840*%
%ADD12C,0.007870*%
%ADD13C,0.005910*%
%ADD14C,0.010000*%
%ADD15R,0.037360X0.106980*%
%LNtachometer-board-1*%
%LPD*%
G54D10*
X0129Y01024D02*
D01*
X0129Y01025*
X0129Y01026*
X01289Y01027*
X01289Y01028*
X01289Y01028*
X01289Y01029*
X01288Y0103*
X01288Y01031*
X01287Y01031*
X01287Y01032*
X01286Y01033*
X01286Y01033*
X01285Y01034*
X01285Y01034*
X01284Y01035*
X01283Y01035*
X01282Y01035*
X01282Y01036*
X01281Y01036*
X0128Y01036*
X01279Y01036*
X01278Y01036*
X01278*
X01277Y01036*
X01276Y01036*
X01275Y01036*
X01274Y01036*
X01274Y01035*
X01273Y01035*
X01272Y01035*
X01271Y01034*
X01271Y01034*
X0127Y01033*
X01269Y01033*
X01269Y01032*
X01268Y01031*
X01268Y01031*
X01268Y0103*
X01267Y01029*
X01267Y01028*
X01267Y01028*
X01266Y01027*
X01266Y01026*
X01266Y01025*
X01266Y01024*
X01266Y01024*
X01266Y01023*
X01266Y01022*
X01267Y01021*
X01267Y0102*
X01267Y0102*
X01268Y01019*
X01268Y01018*
X01268Y01018*
X01269Y01017*
X01269Y01016*
X0127Y01016*
X01271Y01015*
X01271Y01015*
X01272Y01014*
X01273Y01014*
X01274Y01014*
X01274Y01013*
X01275Y01013*
X01276Y01013*
X01277Y01013*
X01278Y01013*
X01278*
X01279Y01013*
X0128Y01013*
X01281Y01013*
X01282Y01013*
X01282Y01014*
X01283Y01014*
X01284Y01014*
X01285Y01015*
X01285Y01015*
X01286Y01016*
X01286Y01016*
X01287Y01017*
X01287Y01018*
X01288Y01018*
X01288Y01019*
X01289Y0102*
X01289Y0102*
X01289Y01021*
X01289Y01022*
X0129Y01023*
X0129Y01024*
X0129Y01024*
X02396Y01428D02*
D01*
X02396Y01429*
X02396Y0143*
X02396Y0143*
X02396Y01431*
X02396Y01432*
X02395Y01433*
X02395Y01433*
X02395Y01434*
X02394Y01435*
X02394Y01436*
X02393Y01436*
X02392Y01437*
X02392Y01437*
X02391Y01438*
X0239Y01438*
X0239Y01439*
X02389Y01439*
X02388Y01439*
X02387Y01439*
X02387Y0144*
X02386Y0144*
X02385Y0144*
X02384*
X02383Y0144*
X02382Y0144*
X02382Y01439*
X02381Y01439*
X0238Y01439*
X02379Y01439*
X02379Y01438*
X02378Y01438*
X02377Y01437*
X02377Y01437*
X02376Y01436*
X02375Y01436*
X02375Y01435*
X02375Y01434*
X02374Y01433*
X02374Y01433*
X02373Y01432*
X02373Y01431*
X02373Y0143*
X02373Y0143*
X02373Y01429*
X02373Y01428*
X02373Y01427*
X02373Y01426*
X02373Y01425*
X02373Y01425*
X02373Y01424*
X02374Y01423*
X02374Y01422*
X02375Y01422*
X02375Y01421*
X02375Y0142*
X02376Y0142*
X02377Y01419*
X02377Y01419*
X02378Y01418*
X02379Y01418*
X02379Y01417*
X0238Y01417*
X02381Y01417*
X02382Y01416*
X02382Y01416*
X02383Y01416*
X02384Y01416*
X02385*
X02386Y01416*
X02387Y01416*
X02387Y01416*
X02388Y01417*
X02389Y01417*
X0239Y01417*
X0239Y01418*
X02391Y01418*
X02392Y01419*
X02392Y01419*
X02393Y0142*
X02394Y0142*
X02394Y01421*
X02395Y01422*
X02395Y01422*
X02395Y01423*
X02396Y01424*
X02396Y01425*
X02396Y01425*
X02396Y01426*
X02396Y01427*
X02396Y01428*
G54D11*
X01336Y0111D02*
D01*
X01336Y0111*
X01336Y0111*
X01335Y01111*
X01335Y01111*
X01335Y01111*
X01335Y01112*
X01335Y01112*
X01335Y01112*
X01335Y01112*
X01334Y01113*
X01334Y01113*
X01334Y01113*
X01334Y01113*
X01333Y01114*
X01333Y01114*
X01333Y01114*
X01333Y01114*
X01332Y01114*
X01332Y01114*
X01332Y01114*
X01331Y01114*
X01331Y01114*
X01331*
X0133Y01114*
X0133Y01114*
X01329Y01114*
X01329Y01114*
X01329Y01114*
X01329Y01114*
X01328Y01114*
X01328Y01114*
X01328Y01113*
X01327Y01113*
X01327Y01113*
X01327Y01113*
X01327Y01112*
X01327Y01112*
X01326Y01112*
X01326Y01112*
X01326Y01111*
X01326Y01111*
X01326Y01111*
X01326Y0111*
X01326Y0111*
X01326Y0111*
X01326Y01109*
X01326Y01109*
X01326Y01108*
X01326Y01108*
X01326Y01108*
X01326Y01107*
X01326Y01107*
X01327Y01107*
X01327Y01107*
X01327Y01106*
X01327Y01106*
X01327Y01106*
X01328Y01106*
X01328Y01105*
X01328Y01105*
X01329Y01105*
X01329Y01105*
X01329Y01105*
X01329Y01105*
X0133Y01105*
X0133Y01105*
X01331Y01105*
X01331*
X01331Y01105*
X01332Y01105*
X01332Y01105*
X01332Y01105*
X01333Y01105*
X01333Y01105*
X01333Y01105*
X01333Y01105*
X01334Y01106*
X01334Y01106*
X01334Y01106*
X01334Y01106*
X01335Y01107*
X01335Y01107*
X01335Y01107*
X01335Y01107*
X01335Y01108*
X01335Y01108*
X01335Y01108*
X01336Y01109*
X01336Y01109*
X01336Y0111*
X00203Y01801D02*
D01*
X00203Y01802*
X00203Y01802*
X00203Y01802*
X00202Y01803*
X00202Y01803*
X00202Y01803*
X00202Y01804*
X00202Y01804*
X00202Y01804*
X00201Y01805*
X00201Y01805*
X00201Y01805*
X00201Y01805*
X002Y01806*
X002Y01806*
X002Y01806*
X002Y01806*
X00199Y01806*
X00199Y01806*
X00199Y01806*
X00198Y01806*
X00198Y01806*
X00198*
X00197Y01806*
X00197Y01806*
X00196Y01806*
X00196Y01806*
X00196Y01806*
X00196Y01806*
X00195Y01806*
X00195Y01806*
X00195Y01805*
X00194Y01805*
X00194Y01805*
X00194Y01805*
X00194Y01804*
X00194Y01804*
X00193Y01804*
X00193Y01803*
X00193Y01803*
X00193Y01803*
X00193Y01802*
X00193Y01802*
X00193Y01802*
X00193Y01801*
X00193Y01801*
X00193Y01801*
X00193Y018*
X00193Y018*
X00193Y018*
X00193Y01799*
X00193Y01799*
X00194Y01799*
X00194Y01799*
X00194Y01798*
X00194Y01798*
X00194Y01798*
X00195Y01798*
X00195Y01797*
X00195Y01797*
X00196Y01797*
X00196Y01797*
X00196Y01797*
X00196Y01797*
X00197Y01797*
X00197Y01797*
X00198Y01797*
X00198*
X00198Y01797*
X00199Y01797*
X00199Y01797*
X00199Y01797*
X002Y01797*
X002Y01797*
X002Y01797*
X002Y01797*
X00201Y01798*
X00201Y01798*
X00201Y01798*
X00201Y01798*
X00202Y01799*
X00202Y01799*
X00202Y01799*
X00202Y01799*
X00202Y018*
X00202Y018*
X00203Y018*
X00203Y01801*
X00203Y01801*
X00203Y01801*
X00057Y01177D02*
D01*
X00057Y01177*
X00057Y01178*
X00057Y01178*
X00057Y01178*
X00057Y01179*
X00057Y01179*
X00056Y01179*
X00056Y0118*
X00056Y0118*
X00056Y0118*
X00056Y01181*
X00055Y01181*
X00055Y01181*
X00055Y01181*
X00055Y01181*
X00054Y01182*
X00054Y01182*
X00054Y01182*
X00053Y01182*
X00053Y01182*
X00053Y01182*
X00052Y01182*
X00052*
X00052Y01182*
X00051Y01182*
X00051Y01182*
X00051Y01182*
X0005Y01182*
X0005Y01182*
X0005Y01181*
X00049Y01181*
X00049Y01181*
X00049Y01181*
X00049Y01181*
X00048Y0118*
X00048Y0118*
X00048Y0118*
X00048Y01179*
X00048Y01179*
X00047Y01179*
X00047Y01178*
X00047Y01178*
X00047Y01178*
X00047Y01177*
X00047Y01177*
X00047Y01177*
X00047Y01176*
X00047Y01176*
X00047Y01176*
X00047Y01175*
X00048Y01175*
X00048Y01175*
X00048Y01175*
X00048Y01174*
X00048Y01174*
X00049Y01174*
X00049Y01173*
X00049Y01173*
X00049Y01173*
X0005Y01173*
X0005Y01173*
X0005Y01173*
X00051Y01172*
X00051Y01172*
X00051Y01172*
X00052Y01172*
X00052Y01172*
X00052*
X00053Y01172*
X00053Y01172*
X00053Y01172*
X00054Y01172*
X00054Y01173*
X00054Y01173*
X00055Y01173*
X00055Y01173*
X00055Y01173*
X00055Y01173*
X00056Y01174*
X00056Y01174*
X00056Y01174*
X00056Y01175*
X00056Y01175*
X00057Y01175*
X00057Y01175*
X00057Y01176*
X00057Y01176*
X00057Y01176*
X00057Y01177*
X00057Y01177*
X0158Y00571D02*
D01*
X0158Y00572*
X0158Y00572*
X0158Y00572*
X0158Y00573*
X01579Y00573*
X01579Y00573*
X01579Y00574*
X01579Y00574*
X01579Y00574*
X01579Y00575*
X01578Y00575*
X01578Y00575*
X01578Y00575*
X01578Y00576*
X01577Y00576*
X01577Y00576*
X01577Y00576*
X01576Y00576*
X01576Y00576*
X01576Y00576*
X01575Y00576*
X01575Y00576*
X01575*
X01574Y00576*
X01574Y00576*
X01574Y00576*
X01573Y00576*
X01573Y00576*
X01573Y00576*
X01572Y00576*
X01572Y00576*
X01572Y00575*
X01571Y00575*
X01571Y00575*
X01571Y00575*
X01571Y00574*
X01571Y00574*
X0157Y00574*
X0157Y00573*
X0157Y00573*
X0157Y00573*
X0157Y00572*
X0157Y00572*
X0157Y00572*
X0157Y00571*
X0157Y00571*
X0157Y00571*
X0157Y0057*
X0157Y0057*
X0157Y0057*
X0157Y00569*
X0157Y00569*
X01571Y00569*
X01571Y00569*
X01571Y00568*
X01571Y00568*
X01571Y00568*
X01572Y00568*
X01572Y00567*
X01572Y00567*
X01573Y00567*
X01573Y00567*
X01573Y00567*
X01574Y00567*
X01574Y00567*
X01574Y00567*
X01575Y00567*
X01575*
X01575Y00567*
X01576Y00567*
X01576Y00567*
X01576Y00567*
X01577Y00567*
X01577Y00567*
X01577Y00567*
X01578Y00567*
X01578Y00568*
X01578Y00568*
X01578Y00568*
X01579Y00568*
X01579Y00569*
X01579Y00569*
X01579Y00569*
X01579Y00569*
X01579Y0057*
X0158Y0057*
X0158Y0057*
X0158Y00571*
X0158Y00571*
X0158Y00571*
X02304Y01431D02*
D01*
X02304Y01431*
X02304Y01431*
X02304Y01432*
X02304Y01432*
X02304Y01432*
X02304Y01433*
X02304Y01433*
X02304Y01433*
X02303Y01434*
X02303Y01434*
X02303Y01434*
X02303Y01434*
X02303Y01435*
X02302Y01435*
X02302Y01435*
X02302Y01435*
X02301Y01435*
X02301Y01435*
X02301Y01435*
X023Y01436*
X023Y01436*
X023Y01436*
X02299*
X02299Y01436*
X02299Y01436*
X02298Y01435*
X02298Y01435*
X02298Y01435*
X02297Y01435*
X02297Y01435*
X02297Y01435*
X02296Y01435*
X02296Y01434*
X02296Y01434*
X02296Y01434*
X02296Y01434*
X02295Y01433*
X02295Y01433*
X02295Y01433*
X02295Y01432*
X02295Y01432*
X02295Y01432*
X02295Y01431*
X02295Y01431*
X02295Y01431*
X02295Y0143*
X02295Y0143*
X02295Y0143*
X02295Y01429*
X02295Y01429*
X02295Y01429*
X02295Y01428*
X02295Y01428*
X02296Y01428*
X02296Y01428*
X02296Y01427*
X02296Y01427*
X02296Y01427*
X02297Y01427*
X02297Y01426*
X02297Y01426*
X02298Y01426*
X02298Y01426*
X02298Y01426*
X02299Y01426*
X02299Y01426*
X02299Y01426*
X023*
X023Y01426*
X023Y01426*
X02301Y01426*
X02301Y01426*
X02301Y01426*
X02302Y01426*
X02302Y01426*
X02302Y01427*
X02303Y01427*
X02303Y01427*
X02303Y01427*
X02303Y01428*
X02303Y01428*
X02304Y01428*
X02304Y01428*
X02304Y01429*
X02304Y01429*
X02304Y01429*
X02304Y0143*
X02304Y0143*
X02304Y0143*
X02304Y01431*
X00318Y0014D02*
D01*
X00318Y0014*
X00318Y0014*
X00318Y00141*
X00318Y00141*
X00318Y00141*
X00318Y00142*
X00317Y00142*
X00317Y00142*
X00317Y00142*
X00317Y00143*
X00317Y00143*
X00316Y00143*
X00316Y00143*
X00316Y00144*
X00316Y00144*
X00315Y00144*
X00315Y00144*
X00315Y00144*
X00314Y00144*
X00314Y00144*
X00314Y00144*
X00313Y00144*
X00313*
X00313Y00144*
X00312Y00144*
X00312Y00144*
X00312Y00144*
X00311Y00144*
X00311Y00144*
X00311Y00144*
X0031Y00144*
X0031Y00143*
X0031Y00143*
X0031Y00143*
X00309Y00143*
X00309Y00142*
X00309Y00142*
X00309Y00142*
X00309Y00142*
X00308Y00141*
X00308Y00141*
X00308Y00141*
X00308Y0014*
X00308Y0014*
X00308Y0014*
X00308Y00139*
X00308Y00139*
X00308Y00138*
X00308Y00138*
X00308Y00138*
X00309Y00137*
X00309Y00137*
X00309Y00137*
X00309Y00137*
X00309Y00136*
X0031Y00136*
X0031Y00136*
X0031Y00136*
X0031Y00135*
X00311Y00135*
X00311Y00135*
X00311Y00135*
X00312Y00135*
X00312Y00135*
X00312Y00135*
X00313Y00135*
X00313Y00135*
X00313*
X00314Y00135*
X00314Y00135*
X00314Y00135*
X00315Y00135*
X00315Y00135*
X00315Y00135*
X00316Y00135*
X00316Y00135*
X00316Y00136*
X00316Y00136*
X00317Y00136*
X00317Y00136*
X00317Y00137*
X00317Y00137*
X00317Y00137*
X00318Y00137*
X00318Y00138*
X00318Y00138*
X00318Y00138*
X00318Y00139*
X00318Y00139*
X00318Y0014*
G54D12*
X01317Y00985D02*
D01*
X01316Y00984*
X01314Y00984*
X01312Y00984*
X0131Y00984*
X01309Y00983*
X01307Y00982*
X01306Y00982*
X01304Y00981*
X01303Y0098*
X01301Y00979*
X013Y00977*
X01299Y00976*
X01298Y00975*
X01297Y00973*
X01296Y00972*
X01295Y0097*
X01294Y00969*
X01294Y00967*
X01293Y00966*
X01293Y00964*
X01292Y00962*
X01292Y0096*
Y00959*
X01292Y00957*
X01293Y00955*
X01293Y00953*
X01294Y00952*
X01294Y0095*
X01295Y00949*
X01296Y00947*
X01297Y00946*
X01298Y00944*
X01299Y00943*
X013Y00942*
X01301Y0094*
X01303Y00939*
X01304Y00938*
X01306Y00937*
X01307Y00937*
X01309Y00936*
X0131Y00935*
X01312Y00935*
X01314Y00935*
X01316Y00935*
X01317Y00935*
X02425Y01467D02*
D01*
X02425Y01466*
X02425Y01464*
X02425Y01462*
X02425Y0146*
X02426Y01459*
X02427Y01457*
X02427Y01456*
X02428Y01454*
X02429Y01453*
X0243Y01451*
X02432Y0145*
X02433Y01449*
X02434Y01448*
X02436Y01447*
X02437Y01446*
X02439Y01445*
X0244Y01444*
X02442Y01444*
X02443Y01443*
X02445Y01443*
X02447Y01442*
X02449Y01442*
X0245*
X02452Y01442*
X02454Y01443*
X02456Y01443*
X02457Y01444*
X02459Y01444*
X0246Y01445*
X02462Y01446*
X02463Y01447*
X02465Y01448*
X02466Y01449*
X02467Y0145*
X02469Y01451*
X0247Y01453*
X02471Y01454*
X02472Y01456*
X02472Y01457*
X02473Y01459*
X02474Y0146*
X02474Y01462*
X02474Y01464*
X02474Y01466*
X02475Y01467*
X00542Y00855D02*
Y01064D01*
X01317Y00855D02*
Y00935D01*
Y00985D02*
Y01064D01*
X00542Y00855D02*
X01317D01*
X00542Y01064D02*
X01317D01*
X00317Y01838D02*
X00378D01*
Y01819D02*
Y01838D01*
Y01819D02*
X00427D01*
Y01838*
X00488*
Y01461D02*
Y01838D01*
X00317Y01461D02*
X00488D01*
X00317D02*
Y01838D01*
X00964Y01452D02*
Y01547D01*
X00715Y01452D02*
X00964D01*
X00715Y01547D02*
X00964D01*
X00715Y01452D02*
Y01547D01*
X00681Y01678D02*
Y01689D01*
Y0159D02*
Y01601D01*
Y0159D02*
X00838D01*
Y01678D02*
Y01689D01*
Y0159D02*
Y01601D01*
X00681Y01689D02*
X00838D01*
X0008Y0128D02*
X0048D01*
X0008Y0078D02*
Y0128D01*
Y0078D02*
X0048D01*
Y0128*
X00568Y01891D02*
Y01931D01*
Y02008D02*
Y02048D01*
X00351D02*
X00568D01*
X00351Y01891D02*
Y01931D01*
Y02008D02*
Y02048D01*
Y01891D02*
X00568D01*
X00713Y01752D02*
Y01847D01*
X00961*
X00713Y01752D02*
X00961D01*
Y01847*
X01361Y008D02*
X01401D01*
X01478D02*
X01518D01*
Y01016*
X01361D02*
X01401D01*
X01478D02*
X01518D01*
X01361Y008D02*
Y01016D01*
X00549Y01379D02*
Y01419D01*
Y01262D02*
Y01302D01*
Y01262D02*
X00765D01*
Y01379D02*
Y01419D01*
Y01262D02*
Y01302D01*
X00549Y01419D02*
X00765D01*
X01675Y00792D02*
Y00887D01*
X01924*
X01675Y00792D02*
X01924D01*
Y00887*
X01694Y00608D02*
X01755D01*
Y00589D02*
Y00608D01*
Y00589D02*
X01804D01*
Y00608*
X01865*
Y00231D02*
Y00608D01*
X01694Y00231D02*
X01865D01*
X01694D02*
Y00608D01*
X01281Y00618D02*
Y00629D01*
Y0053D02*
Y00541D01*
Y0053D02*
X01438D01*
Y00618D02*
Y00629D01*
Y0053D02*
Y00541D01*
X01281Y00629D02*
X01438D01*
X01924Y00672D02*
Y00767D01*
X01675Y00672D02*
X01924D01*
X01675Y00767D02*
X01924D01*
X01675Y00672D02*
Y00767D01*
X02061Y00138D02*
Y00149D01*
Y0005D02*
Y00061D01*
Y0005D02*
X02218D01*
Y00138D02*
Y00149D01*
Y0005D02*
Y00061D01*
X02061Y00149D02*
X02218D01*
X02344Y00312D02*
Y00407D01*
X02095Y00312D02*
X02344D01*
X02095Y00407D02*
X02344D01*
X02095Y00312D02*
Y00407D01*
X02061Y00278D02*
Y00289D01*
Y0019D02*
Y00201D01*
Y0019D02*
X02218D01*
Y00278D02*
Y00289D01*
Y0019D02*
Y00201D01*
X02061Y00289D02*
X02218D01*
X01177Y00233D02*
X01382D01*
X01177Y00126D02*
Y00233D01*
Y00126D02*
X01382D01*
Y00233*
X01165Y00402D02*
Y00497D01*
X01414*
X01165Y00402D02*
X01414D01*
Y00497*
Y00272D02*
Y00367D01*
X01165Y00272D02*
X01414D01*
X01165Y00367D02*
X01414D01*
X01165Y00272D02*
Y00367D01*
X02031Y00558D02*
Y00598D01*
Y00441D02*
Y00481D01*
Y00441D02*
X02248D01*
Y00558D02*
Y00598D01*
Y00441D02*
Y00481D01*
X02031Y00598D02*
X02248D01*
X02345Y00692D02*
X02554D01*
X02475Y01467D02*
X02554D01*
X02345D02*
X02425D01*
X02554Y00692D02*
Y01467D01*
X02345Y00692D02*
Y01467D01*
X00339Y00225D02*
X0074D01*
X00339Y00244D02*
X0074D01*
X00339Y00059D02*
X0074D01*
Y00244*
X00339Y00059D02*
Y00244D01*
X01917Y01473D02*
X02122D01*
X01917Y01366D02*
Y01473D01*
Y01366D02*
X02122D01*
Y01473*
X02131Y01232D02*
Y01327D01*
X01883Y01232D02*
X02131D01*
X01883Y01327D02*
X02131D01*
X01883Y01232D02*
Y01327D01*
X02003Y0109D02*
Y01101D01*
Y01178D02*
Y01189D01*
X01846D02*
X02003D01*
X01846Y0109D02*
Y01101D01*
Y01178D02*
Y01189D01*
Y0109D02*
X02003D01*
X02608Y01511D02*
Y01551D01*
Y01628D02*
Y01668D01*
X02391D02*
X02608D01*
X02391Y01511D02*
Y01551D01*
Y01628D02*
Y01668D01*
Y01511D02*
X02608D01*
X00555Y00361D02*
Y00518D01*
X00281Y00311D02*
X00321D01*
X00398D02*
X00438D01*
Y00528*
X00281D02*
X00321D01*
X00398D02*
X00438D01*
X00281Y00311D02*
Y00528D01*
X01966Y01521D02*
Y01718D01*
X01584Y0162D02*
X01672D01*
X02047D02*
X02135D01*
X02047Y01515D02*
Y01724D01*
X01672D02*
X02047D01*
X01672Y01515D02*
Y01724D01*
Y01515D02*
X02047D01*
X0009Y00577D02*
X0019D01*
Y00062D02*
Y00577D01*
X0009Y00062D02*
X0019D01*
X0009D02*
Y00577D01*
G54D13*
X00793Y0044D02*
D01*
X00793Y00449*
X00792Y00458*
X0079Y00467*
X00788Y00476*
X00785Y00485*
X00782Y00494*
X00778Y00502*
X00773Y0051*
X00768Y00518*
X00762Y00526*
X00756Y00532*
X00749Y00539*
X00742Y00545*
X00734Y0055*
X00726Y00555*
X00718Y0056*
X0071Y00564*
X00701Y00567*
X00692Y00569*
X00683Y00571*
X00673Y00573*
X00664Y00573*
X00655*
X00646Y00573*
X00636Y00571*
X00627Y00569*
X00618Y00567*
X00609Y00564*
X00601Y0056*
X00593Y00555*
X00585Y0055*
X00577Y00545*
X0057Y00539*
X00563Y00532*
X00557Y00526*
X00551Y00518*
X00546Y0051*
X00541Y00502*
X00537Y00494*
X00534Y00485*
X00531Y00476*
X00529Y00467*
X00527Y00458*
X00526Y00449*
X00526Y0044*
X00526Y0043*
X00527Y00421*
X00529Y00412*
X00531Y00403*
X00534Y00394*
X00537Y00385*
X00541Y00377*
X00546Y00369*
X00551Y00361*
X00557Y00353*
X00563Y00347*
X0057Y0034*
X00577Y00334*
X00585Y00329*
X00593Y00324*
X00601Y00319*
X00609Y00315*
X00618Y00312*
X00627Y0031*
X00636Y00308*
X00646Y00306*
X00655Y00306*
X00664*
X00673Y00306*
X00683Y00308*
X00692Y0031*
X00701Y00312*
X0071Y00315*
X00718Y00319*
X00726Y00324*
X00734Y00329*
X00742Y00334*
X00749Y0034*
X00756Y00347*
X00762Y00353*
X00768Y00361*
X00773Y00369*
X00778Y00377*
X00782Y00385*
X00785Y00394*
X00788Y00403*
X0079Y00412*
X00792Y00421*
X00793Y0043*
X00793Y0044*
G54D14*
X0085Y00719D02*
Y0067D01*
X0086Y0066*
X0088*
X0089Y0067*
Y00719*
X00949D02*
X0091D01*
Y0069*
X00929Y007*
X00939*
X00949Y0069*
Y0067*
X00939Y0066*
X00919*
X0091Y0067*
X002Y01949D02*
Y019D01*
X0021Y0189*
X0023*
X0024Y019*
Y01949*
X0026Y01939D02*
X00269Y01949D01*
X00289*
X00299Y01939*
Y0193*
X00289Y0192*
X00279*
X00289*
X00299Y0191*
Y019*
X00289Y0189*
X00269*
X0026Y019*
X0109Y0147D02*
Y01529D01*
X0112*
X0113Y01519*
Y015*
X0112Y0149*
X0109*
X0111D02*
X0113Y0147D01*
X0115Y01519D02*
X01159Y01529D01*
X01179*
X01189Y01519*
Y0151*
X01179Y015*
X01189Y0149*
Y0148*
X01179Y0147*
X01159*
X0115Y0148*
Y0149*
X01159Y015*
X0115Y0151*
Y01519*
X01159Y015D02*
X01179D01*
X0099Y01659D02*
X0098Y01669D01*
X0096*
X0095Y01659*
Y0162*
X0096Y0161*
X0098*
X0099Y0162*
X0101D02*
X01019Y0161D01*
X01039*
X01049Y0162*
Y01659*
X01039Y01669*
X01019*
X0101Y01659*
Y0165*
X01019Y0164*
X01049*
X00092Y01367D02*
X00082Y01377D01*
X00063*
X00053Y01367*
Y01357*
X00063Y01347*
X00082*
X00092Y01337*
Y01328*
X00082Y01318*
X00063*
X00053Y01328*
X00112Y01377D02*
Y01318D01*
X00132Y01337*
X00152Y01318*
Y01377*
X00172Y01318D02*
X00192D01*
X00182*
Y01377*
X00172Y01367*
X0067Y01979D02*
X0066Y01989D01*
X0064*
X0063Y01979*
Y0194*
X0064Y0193*
X0066*
X0067Y0194*
X0069Y01989D02*
X00729D01*
Y01979*
X0069Y0194*
Y0193*
X01087Y0177D02*
Y01829D01*
X01117*
X01127Y01819*
Y018*
X01117Y0179*
X01087*
X01107D02*
X01127Y0177D01*
X01147Y01829D02*
X01187D01*
Y01819*
X01147Y0178*
Y0177*
X01415Y01129D02*
X01405Y01139D01*
X01385*
X01375Y01129*
Y0109*
X01385Y0108*
X01405*
X01415Y0109*
X01435Y0108D02*
X01455D01*
X01445*
Y01139*
X01435Y01129*
X01484Y0108D02*
X01504D01*
X01494*
Y01139*
X01484Y01129*
X00847Y0136D02*
X00837Y0137D01*
X00817*
X00807Y0136*
Y0132*
X00817Y0131*
X00837*
X00847Y0132*
X00867Y0136D02*
X00877Y0137D01*
X00897*
X00907Y0136*
Y0135*
X00897Y0134*
X00907Y0133*
Y0132*
X00897Y0131*
X00877*
X00867Y0132*
Y0133*
X00877Y0134*
X00867Y0135*
Y0136*
X00877Y0134D02*
X00897D01*
X0205Y0081D02*
Y00869D01*
X0208*
X0209Y00859*
Y0084*
X0208Y0083*
X0205*
X0207D02*
X0209Y0081D01*
X02149Y00869D02*
X02129Y00859D01*
X0211Y0084*
Y0082*
X02119Y0081*
X02139*
X02149Y0082*
Y0083*
X02139Y0084*
X0211*
X0159Y00189D02*
Y0014D01*
X016Y0013*
X0162*
X0163Y0014*
Y00189*
X01689Y0013D02*
X0165D01*
X01689Y0017*
Y00179*
X01679Y00189*
X01659*
X0165Y00179*
X0113Y00599D02*
X0112Y00609D01*
X011*
X0109Y00599*
Y0056*
X011Y0055*
X0112*
X0113Y0056*
X01179Y0055D02*
Y00609D01*
X0115Y0058*
X01189*
X0205Y0069D02*
Y00749D01*
X0208*
X0209Y00739*
Y0072*
X0208Y0071*
X0205*
X0207D02*
X0209Y0069D01*
X0211Y00739D02*
X02119Y00749D01*
X02139*
X02149Y00739*
Y0073*
X02139Y0072*
X02129*
X02139*
X02149Y0071*
Y007*
X02139Y0069*
X02119*
X0211Y007*
X0233Y00119D02*
X0232Y00129D01*
X023*
X0229Y00119*
Y0008*
X023Y0007*
X0232*
X0233Y0008*
X02389Y00129D02*
X02369Y00119D01*
X0235Y001*
Y0008*
X02359Y0007*
X02379*
X02389Y0008*
Y0009*
X02379Y001*
X0235*
X0246Y0033D02*
Y00389D01*
X0249*
X025Y00379*
Y0036*
X0249Y0035*
X0246*
X0248D02*
X025Y0033D01*
X02519D02*
X02539D01*
X02529*
Y00389*
X02519Y00379*
X0233Y00259D02*
X0232Y00269D01*
X023*
X0229Y00259*
Y0022*
X023Y0021*
X0232*
X0233Y0022*
X02389Y00269D02*
X0235D01*
Y0024*
X02369Y0025*
X02379*
X02389Y0024*
Y0022*
X02379Y0021*
X02359*
X0235Y0022*
X0096Y00209D02*
Y0015D01*
X0099*
X01Y0016*
Y00199*
X0099Y00209*
X0096*
X01019Y0015D02*
X01039D01*
X01029*
Y00209*
X01019Y00199*
X0096Y0042D02*
Y00479D01*
X0099*
X01Y00469*
Y0045*
X0099Y0044*
X0096*
X0098D02*
X01Y0042D01*
X01049D02*
Y00479D01*
X0102Y0045*
X01059*
X0096Y0029D02*
Y00349D01*
X0099*
X01Y00339*
Y0032*
X0099Y0031*
X0096*
X0098D02*
X01Y0029D01*
X01059D02*
X0102D01*
X01059Y0033*
Y00339*
X01049Y00349*
X01029*
X0102Y00339*
X0234Y00489D02*
X0233Y00499D01*
X0231*
X023Y00489*
Y0045*
X0231Y0044*
X0233*
X0234Y0045*
X0236Y00489D02*
X02369Y00499D01*
X02389*
X02399Y00489*
Y0048*
X02389Y0047*
X02379*
X02389*
X02399Y0046*
Y0045*
X02389Y0044*
X02369*
X0236Y0045*
X0241Y00659D02*
Y0061D01*
X0242Y006*
X0244*
X0245Y0061*
Y00659*
X02499Y006D02*
Y00659D01*
X0247Y0063*
X02509*
X008Y00169D02*
Y0012D01*
X0081Y0011*
X0083*
X0084Y0012*
Y00169*
X00859Y0011D02*
X00879D01*
X00869*
Y00169*
X00859Y00159*
X0161Y01449D02*
Y0139D01*
X0164*
X0165Y014*
Y01439*
X0164Y01449*
X0161*
X0167Y01439D02*
X01679Y01449D01*
X01699*
X01709Y01439*
Y0143*
X01699Y0142*
X01689*
X01699*
X01709Y0141*
Y014*
X01699Y0139*
X01679*
X0167Y014*
X01614Y0125D02*
Y01309D01*
X01644*
X01654Y01299*
Y0128*
X01644Y0127*
X01614*
X01634D02*
X01654Y0125D01*
X01674Y0126D02*
X01684Y0125D01*
X01704*
X01714Y0126*
Y01299*
X01704Y01309*
X01684*
X01674Y01299*
Y0129*
X01684Y0128*
X01714*
X01649Y01159D02*
X01639Y01169D01*
X0162*
X0161Y01159*
Y0112*
X0162Y0111*
X01639*
X01649Y0112*
X01669Y0111D02*
X01689D01*
X01679*
Y01169*
X01669Y01159*
X01759Y0111D02*
X01719D01*
X01759Y0115*
Y01159*
X01749Y01169*
X01729*
X01719Y01159*
X02515Y01759D02*
X02505Y01769D01*
X02485*
X02475Y01759*
Y0172*
X02485Y0171*
X02505*
X02515Y0172*
X02535Y0171D02*
X02555D01*
X02545*
Y01769*
X02535Y01759*
X02584D02*
X02594Y01769D01*
X02614*
X02624Y01759*
Y0172*
X02614Y0171*
X02594*
X02584Y0172*
Y01759*
X00567Y00661D02*
X00557Y00671D01*
X00538*
X00528Y00661*
Y00622*
X00538Y00612*
X00557*
X00567Y00622*
X00627Y00612D02*
X00587D01*
X00627Y00651*
Y00661*
X00617Y00671*
X00597*
X00587Y00661*
X00322Y00629D02*
X00312Y00639D01*
X00293*
X00283Y00629*
Y0059*
X00293Y0058*
X00312*
X00322Y0059*
X00342Y0058D02*
X00362D01*
X00352*
Y00639*
X00342Y00629*
X01407Y01821D02*
Y01762D01*
X01436*
X01446Y01772*
Y01811*
X01436Y01821*
X01407*
X01506Y01762D02*
X01466D01*
X01506Y01801*
Y01811*
X01496Y01821*
X01476*
X01466Y01811*
X0009Y00617D02*
Y00676D01*
X00119*
X00129Y00666*
Y00646*
X00119Y00636*
X0009*
X00149Y00617D02*
X00169D01*
X00159*
Y00676*
X00149Y00666*
G54D15*
X01363Y0018D03*
X02103Y0142D03*
M02*