%FSTAX23Y23*%
%MOIN*%
%SFA1B1*%

%IPPOS*%
%ADD12C,0.007870*%
%ADD13C,0.005910*%
%LNtachometer-board-1*%
%LPD*%
G54D12*
X00272Y0145D02*
Y0185D01*
Y0145D02*
X00532D01*
Y0185*
X00272D02*
X00532D01*
X00681Y0159D02*
Y01689D01*
Y0159D02*
X00838D01*
Y01689*
X00681D02*
X00838D01*
X0008Y0128D02*
X0048D01*
X0008Y0078D02*
Y0128D01*
Y0078D02*
X0048D01*
Y0128*
X00568Y01891D02*
Y02048D01*
X00351D02*
X00568D01*
X00351Y01891D02*
Y02048D01*
Y01891D02*
X00568D01*
X01361Y008D02*
X01518D01*
Y01016*
X01361D02*
X01518D01*
X01361Y008D02*
Y01016D01*
X00549Y01262D02*
Y01419D01*
Y01262D02*
X00765D01*
Y01419*
X00549D02*
X00765D01*
X0165Y0022D02*
Y0062D01*
Y0022D02*
X01909D01*
Y0062*
X0165D02*
X01909D01*
X01281Y0053D02*
Y00629D01*
Y0053D02*
X01438D01*
Y00629*
X01281D02*
X01438D01*
X02061Y0005D02*
Y00149D01*
Y0005D02*
X02218D01*
Y00149*
X02061D02*
X02218D01*
X02061Y0019D02*
Y00289D01*
Y0019D02*
X02218D01*
Y00289*
X02061D02*
X02218D01*
X02031Y00441D02*
Y00598D01*
Y00441D02*
X02248D01*
Y00598*
X02031D02*
X02248D01*
X02003Y0109D02*
Y01189D01*
X01846D02*
X02003D01*
X01846Y0109D02*
Y01189D01*
Y0109D02*
X02003D01*
X02608Y01511D02*
Y01668D01*
X02391D02*
X02608D01*
X02391Y01511D02*
Y01668D01*
Y01511D02*
X02608D01*
X00281Y00311D02*
X00438D01*
Y00528*
X00281D02*
X00438D01*
X00281Y00311D02*
Y00528D01*
X02047Y01515D02*
Y01724D01*
X01672D02*
X02047D01*
X01672Y01515D02*
Y01724D01*
Y01515D02*
X02047D01*
G54D13*
X00793Y0044D02*
D01*
X00793Y00449*
X00792Y00458*
X0079Y00467*
X00788Y00476*
X00785Y00485*
X00782Y00494*
X00778Y00502*
X00773Y0051*
X00768Y00518*
X00762Y00526*
X00756Y00532*
X00749Y00539*
X00742Y00545*
X00734Y0055*
X00726Y00555*
X00718Y0056*
X0071Y00564*
X00701Y00567*
X00692Y00569*
X00683Y00571*
X00673Y00573*
X00664Y00573*
X00655*
X00646Y00573*
X00636Y00571*
X00627Y00569*
X00618Y00567*
X00609Y00564*
X00601Y0056*
X00593Y00555*
X00585Y0055*
X00577Y00545*
X0057Y00539*
X00563Y00532*
X00557Y00526*
X00551Y00518*
X00546Y0051*
X00541Y00502*
X00537Y00494*
X00534Y00485*
X00531Y00476*
X00529Y00467*
X00527Y00458*
X00526Y00449*
X00526Y0044*
X00526Y0043*
X00527Y00421*
X00529Y00412*
X00531Y00403*
X00534Y00394*
X00537Y00385*
X00541Y00377*
X00546Y00369*
X00551Y00361*
X00557Y00353*
X00563Y00347*
X0057Y0034*
X00577Y00334*
X00585Y00329*
X00593Y00324*
X00601Y00319*
X00609Y00315*
X00618Y00312*
X00627Y0031*
X00636Y00308*
X00646Y00306*
X00655Y00306*
X00664*
X00673Y00306*
X00683Y00308*
X00692Y0031*
X00701Y00312*
X0071Y00315*
X00718Y00319*
X00726Y00324*
X00734Y00329*
X00742Y00334*
X00749Y0034*
X00756Y00347*
X00762Y00353*
X00768Y00361*
X00773Y00369*
X00778Y00377*
X00782Y00385*
X00785Y00394*
X00788Y00403*
X0079Y00412*
X00792Y00421*
X00793Y0043*
X00793Y0044*
M02*