%FSTAX23Y23*%
%MOIN*%
%SFA1B1*%

%IPPOS*%
%ADD18C,0.049210*%
%ADD19R,0.049210X0.049210*%
%ADD22C,0.047240*%
%ADD23R,0.047240X0.047240*%
%ADD24C,0.055120*%
%ADD25R,0.055120X0.055120*%
%ADD26R,0.047240X0.047240*%
%ADD31C,0.043310*%
%ADD32R,0.043310X0.043310*%
%ADD33C,0.086610*%
%ADD34R,0.086610X0.086610*%
%ADD37C,0.015000*%
%ADD38C,0.059060*%
%ADD39R,0.059060X0.059060*%
%ADD40R,0.053150X0.053150*%
%ADD41C,0.053150*%
%ADD42C,0.064960*%
%ADD43R,0.059060X0.059060*%
%ADD44C,0.062990*%
%ADD45R,0.062990X0.062990*%
%ADD46R,0.061020X0.061020*%
%ADD47C,0.061020*%
%LNtachometer-board-1*%
%LPD*%
G36*
X02734Y00015D02*
X00015D01*
Y02134*
X02734*
Y00015*
G37*
%LNtachometer-board-2*%
%LPC*%
G36*
X00366Y02003D02*
X00357D01*
X00348Y02001*
X0034Y01996*
X00334Y0199*
X0033Y01982*
X00327Y01974*
Y01965*
X0033Y01957*
X00334Y01949*
X0034Y01943*
X00348Y01938*
X00357Y01936*
X00366*
X00374Y01938*
X00382Y01943*
X00388Y01949*
X00392Y01957*
X00395Y01965*
Y01974*
X00392Y01982*
X00388Y0199*
X00382Y01996*
X00374Y02001*
X00366Y02003*
G37*
G36*
X0105Y01836D02*
X00977D01*
Y01817*
X0083*
X00823Y01816*
X00817Y01812*
X00742Y01737*
X00585*
X00578Y01736*
X00572Y01732*
X00572Y01732*
X00563Y01734*
X00554*
X00545Y01732*
X00537Y01727*
X00531Y01721*
X00526Y01713*
X00524Y01704*
Y01695*
X00526Y01686*
X00531Y01678*
X00535Y01675*
X00533Y0167*
X0052*
X00516Y01669*
X00515Y01668*
X00471Y01712*
X00466Y01716*
X00459Y01717*
X00276*
X00274Y01721*
X00267Y01727*
X00259Y01732*
X00251Y01734*
X00242*
X00233Y01732*
X00225Y01727*
X00218Y01721*
X00214Y01713*
X00212Y01704*
Y01695*
X00214Y01686*
X00218Y01678*
X00225Y01672*
X00233Y01667*
X00242Y01665*
X00251*
X00259Y01667*
X00267Y01672*
X00274Y01678*
X00276Y01682*
X00451*
X00509Y01624*
Y0156*
X0051Y01556*
X00512Y01552*
X00516Y0155*
X0052Y01549*
X00595*
X00609Y01535*
Y0144*
X0061Y01436*
X00612Y01432*
X00616Y0143*
X0062Y01429*
X007*
X00703Y0143*
X00707Y01432*
X00709Y01436*
X0071Y0144*
Y0166*
X00709Y01663*
X00707Y01667*
X00703Y01669*
X007Y0167*
X00695*
Y01673*
X00627*
Y0167*
X00585*
X00583Y01675*
X00586Y01678*
X00591Y01686*
X00593Y01695*
Y01702*
X0075*
X00756Y01703*
X00762Y01707*
X00837Y01782*
X00977*
Y01763*
X00996*
Y0153*
X00994Y01529*
X00987Y01522*
X00983Y01514*
X0098Y01504*
Y01495*
X00983Y01485*
X00987Y01477*
X00994Y0147*
X01003Y01465*
X01012Y01463*
X01021*
X01031Y01465*
X01039Y0147*
X01046Y01477*
X01051Y01485*
X01053Y01495*
Y01504*
X01051Y01514*
X01046Y01522*
X01039Y01529*
X01032Y01533*
Y01763*
X0105*
Y01836*
G37*
G36*
X00281Y01834D02*
X00212D01*
Y01765*
X00281*
Y01834*
G37*
G36*
X00862Y01673D02*
X00854D01*
X00845Y01671*
X00837Y01666*
X00831Y0166*
X00827Y01652*
X00824Y01644*
Y01635*
X00827Y01627*
X00831Y01619*
X00837Y01613*
X00845Y01608*
X00854Y01606*
X00862*
X00871Y01608*
X00879Y01613*
X00885Y01619*
X00889Y01627*
X00892Y01635*
Y01644*
X00889Y01652*
X00885Y0166*
X00879Y01666*
X00871Y01671*
X00862Y01673*
G37*
G36*
X02406Y01623D02*
X02397D01*
X02388Y01621*
X0238Y01616*
X02374Y0161*
X0237Y01602*
X02367Y01594*
Y01585*
X0237Y01577*
X02374Y01569*
X0238Y01563*
X02388Y01558*
X02397Y01556*
X02406*
X02414Y01558*
X02422Y01563*
X02428Y01569*
X02432Y01577*
X02435Y01585*
Y01594*
X02432Y01602*
X02428Y0161*
X02422Y01616*
X02414Y01621*
X02406Y01623*
G37*
G36*
X01454Y01673D02*
X0144D01*
X01427Y01669*
X01415Y01662*
X01405Y01652*
X01398Y0164*
X01394Y01627*
Y01612*
X01398Y01599*
X01405Y01587*
X01415Y01577*
X01427Y0157*
X0144Y01566*
X01454*
X01468Y0157*
X0148Y01577*
X0149Y01587*
X01497Y01599*
X01498Y01602*
X01989*
X02157Y01434*
X02154Y01425*
Y01414*
X02157Y01403*
X02163Y01393*
X02171Y01386*
X0218Y0138*
X02191Y01377*
X02202*
X02213Y0138*
X02223Y01386*
X02231Y01393*
X02236Y01403*
X02239Y01414*
Y01425*
X02236Y01436*
X02231Y01446*
X02223Y01453*
X02213Y01459*
X02202Y01462*
X02191*
X02182Y0146*
X02009Y01632*
X02003Y01636*
X01997Y01637*
X01498*
X01497Y0164*
X0149Y01652*
X0148Y01662*
X01468Y01669*
X01454Y01673*
G37*
G36*
X01848Y01462D02*
X01837D01*
X01826Y01459*
X01816Y01453*
X01808Y01446*
X01803Y01436*
X018Y01425*
Y01414*
X01803Y01403*
X01808Y01393*
X01816Y01386*
X01826Y0138*
X01837Y01377*
X01848*
X01859Y0138*
X01868Y01386*
X01876Y01393*
X01882Y01403*
X01885Y01414*
Y01425*
X01882Y01436*
X01876Y01446*
X01868Y01453*
X01859Y01459*
X01848Y01462*
G37*
G36*
X02325Y01673D02*
X02218D01*
Y01566*
X02282*
Y01419*
X0226*
Y01375*
X02257*
X02251Y01374*
X02245Y0137*
X02245*
X02191Y01316*
X02189Y01316*
X0218*
X0217Y01314*
X02162Y01309*
X02155Y01302*
X0215Y01294*
X02148Y01284*
Y01283*
X02038Y01173*
X02037Y01173*
X01989*
Y01106*
X02057*
Y01142*
X02058Y01143*
X02164Y01249*
X0217Y01245*
X0218Y01243*
X02189*
X02199Y01245*
X02207Y0125*
X02214Y01257*
X02219Y01265*
X02221Y01275*
Y01284*
X02219Y01293*
X02265Y0134*
X02277*
X02279Y0134*
X02339*
Y01419*
X02317*
Y01566*
X02325*
Y01673*
G37*
G36*
X0076Y01374D02*
X00751D01*
X00743Y01372*
X00735Y01367*
X00729Y01361*
X00724Y01353*
X00722Y01345*
Y01336*
X00724Y01327*
X00729Y0132*
X00735Y01313*
X00743Y01309*
X00751Y01307*
X0076*
X00769Y01309*
X00776Y01313*
X00782Y0132*
X00787Y01327*
X00789Y01336*
Y01345*
X00787Y01353*
X00782Y01361*
X00776Y01367*
X00769Y01372*
X0076Y01374*
G37*
G36*
X00563Y01534D02*
X00554D01*
X00545Y01532*
X00537Y01527*
X00531Y01521*
X00526Y01513*
X00524Y01504*
Y01495*
X00526Y01486*
X00531Y01478*
X00537Y01472*
X00541Y0147*
Y01374*
X00525*
Y01307*
X00592*
Y01374*
X00577*
Y0147*
X0058Y01472*
X00586Y01478*
X00591Y01486*
X00593Y01495*
Y01504*
X00591Y01513*
X00586Y01521*
X0058Y01527*
X00572Y01532*
X00563Y01534*
G37*
G36*
X01867Y01316D02*
X01794D01*
Y01243*
X01867*
Y01316*
G37*
G36*
X02605Y01319D02*
X02594D01*
X02584Y01316*
X02575Y01311*
X02568Y01304*
X02563Y01295*
X0256Y01285*
Y01274*
X02563Y01264*
X02568Y01255*
X02575Y01248*
X02584Y01243*
X02594Y0124*
X02605*
X02615Y01243*
X02624Y01248*
X02631Y01255*
X02636Y01264*
X02639Y01274*
Y01285*
X02636Y01295*
X02631Y01304*
X02624Y01311*
X02615Y01316*
X02605Y01319*
G37*
G36*
X02305D02*
X02294D01*
X02284Y01316*
X02275Y01311*
X02268Y01304*
X02263Y01295*
X0226Y01285*
Y01274*
X02263Y01264*
X02268Y01255*
X02275Y01248*
X02284Y01243*
X02294Y0124*
X02305*
X02315Y01243*
X02324Y01248*
X02331Y01255*
X02336Y01264*
X02339Y01274*
Y01285*
X02336Y01295*
X02331Y01304*
X02324Y01311*
X02315Y01316*
X02305Y01319*
G37*
G36*
X02605Y01219D02*
X02594D01*
X02584Y01216*
X02575Y01211*
X02568Y01204*
X02563Y01195*
X0256Y01185*
Y01174*
X02563Y01164*
X02568Y01155*
X02575Y01148*
X02584Y01143*
X02594Y0114*
X02605*
X02615Y01143*
X02624Y01148*
X02631Y01155*
X02636Y01164*
X02639Y01174*
Y01185*
X02636Y01195*
X02631Y01204*
X02624Y01211*
X02615Y01216*
X02605Y01219*
G37*
G36*
X02305D02*
X02294D01*
X02284Y01216*
X02275Y01211*
X02268Y01204*
X02263Y01195*
X0226Y01185*
Y01174*
X02263Y01164*
X02268Y01155*
X02275Y01148*
X02284Y01143*
X02294Y0114*
X02305*
X02315Y01143*
X02324Y01148*
X02331Y01155*
X02336Y01164*
X02339Y01174*
Y01185*
X02336Y01195*
X02331Y01204*
X02324Y01211*
X02315Y01216*
X02305Y01219*
G37*
G36*
X0183Y01173D02*
X01822D01*
X01813Y01171*
X01805Y01166*
X01799Y0116*
X01795Y01152*
X01792Y01144*
Y01135*
X01795Y01127*
X01799Y01119*
X01805Y01113*
X01813Y01108*
X01822Y01106*
X0183*
X01839Y01108*
X01847Y01113*
X01853Y01119*
X01857Y01127*
X0186Y01135*
Y01144*
X01857Y01152*
X01853Y0116*
X01847Y01166*
X01839Y01171*
X0183Y01173*
G37*
G36*
X01319Y01149D02*
X0124D01*
Y0107*
X01319*
Y01149*
G37*
G36*
X00251Y01634D02*
X00242D01*
X00233Y01632*
X00225Y01627*
X00218Y01621*
X00214Y01613*
X00212Y01604*
Y01595*
X00214Y01586*
X00218Y01578*
X00225Y01572*
X00233Y01567*
X00242Y01565*
X00251*
X00254Y01566*
X00302Y01519*
Y01384*
X00134Y01217*
X00084*
Y01142*
X00153*
X00155Y01137*
X00133Y01116*
X00127Y01117*
X00117*
X00108Y01115*
X00099Y0111*
X00092Y01103*
X00087Y01094*
X00084Y01084*
Y01075*
X00087Y01065*
X00092Y01056*
X00099Y01049*
X00108Y01045*
X00117Y01042*
X00127*
X00137Y01045*
X00145Y01049*
X00152Y01056*
X00157Y01065*
X0016Y01075*
Y01084*
X00158Y0109*
X00274Y01207*
X00405*
X00406Y01202*
X00402Y01194*
X00399Y01184*
Y01175*
X00402Y01165*
X00407Y01156*
X00414Y01149*
X00419Y01146*
Y01113*
X00414Y0111*
X00407Y01103*
X00402Y01094*
X00399Y01084*
Y01075*
X00402Y01065*
X00407Y01056*
X00411Y01052*
X00409Y01047*
X0018*
X00173Y01046*
X00167Y01042*
X00138Y01013*
X00137Y01015*
X00127Y01017*
X00117*
X00108Y01015*
X00099Y0101*
X00092Y01003*
X00087Y00994*
X00084Y00984*
Y00975*
X00087Y00965*
X00092Y00956*
X00099Y00949*
X00108Y00945*
X00117Y00942*
X00127*
X00137Y00945*
X00145Y00949*
X00152Y00956*
X00157Y00965*
X0016Y00975*
Y00984*
X00187Y01012*
X00409*
X00411Y01007*
X00407Y01003*
X00402Y00994*
X00399Y00984*
Y00975*
X00402Y00965*
X00407Y00956*
X00414Y00949*
X00419Y00946*
Y00913*
X00414Y0091*
X00407Y00903*
X00402Y00894*
X00399Y00884*
Y00875*
X00402Y00865*
X00407Y00856*
X00414Y00849*
X00423Y00845*
X00432Y00842*
X00442*
X00452Y00845*
X0046Y00849*
X00467Y00856*
X0047Y00862*
X01102*
X01142Y00822*
X0114Y00815*
Y00804*
X01143Y00794*
X01148Y00785*
X01155Y00778*
X01164Y00773*
X01174Y0077*
X01185*
X01195Y00773*
X01204Y00778*
X01211Y00785*
X01216Y00794*
X01219Y00804*
Y00815*
X01216Y00825*
X01211Y00834*
X01204Y00841*
X01195Y00846*
X01185Y00849*
X01174*
X01167Y00847*
X01122Y00892*
X01116Y00896*
X0111Y00897*
X0047*
X00467Y00903*
X0046Y0091*
X00455Y00913*
Y00946*
X0046Y00949*
X00467Y00956*
X00472Y00965*
X00475Y00975*
Y00984*
X00472Y00994*
X00467Y01003*
X00463Y01007*
X00465Y01012*
X009*
X00906Y01013*
X00912Y01017*
X00967Y01072*
X00974Y0107*
X00985*
X00995Y01073*
X01004Y01078*
X01011Y01085*
X01016Y01094*
X01019Y01104*
Y01115*
X01016Y01125*
X01011Y01134*
X01004Y01141*
X00995Y01146*
X00985Y01149*
X00974*
X00964Y01146*
X00955Y01141*
X00948Y01134*
X00943Y01125*
X0094Y01115*
Y01104*
X00942Y01097*
X00892Y01047*
X00465*
X00463Y01052*
X00467Y01056*
X00472Y01065*
X00475Y01075*
Y01084*
X00472Y01094*
X00467Y01103*
X0046Y0111*
X00455Y01113*
Y01146*
X0046Y01149*
X00467Y01156*
X00472Y01165*
X00475Y01175*
Y01184*
X00472Y01194*
X00468Y01202*
X00469Y01207*
X01057*
X01142Y01122*
X0114Y01115*
Y01104*
X01143Y01094*
X01148Y01085*
X01155Y01078*
X01164Y01073*
X01174Y0107*
X01185*
X01195Y01073*
X01204Y01078*
X01211Y01085*
X01216Y01094*
X01219Y01104*
Y01115*
X01216Y01125*
X01211Y01134*
X01204Y01141*
X01195Y01146*
X01185Y01149*
X01174*
X01167Y01147*
X01077Y01237*
X01071Y01241*
X01064Y01242*
X00267*
X0026Y01241*
X00254Y01237*
X00164Y01147*
X0016Y01149*
Y01192*
X00332Y01364*
X00336Y0137*
X00337Y01377*
Y01526*
X00336Y01533*
X00332Y01539*
X0028Y01591*
X00281Y01595*
Y01604*
X00278Y01613*
X00274Y01621*
X00267Y01627*
X00259Y01632*
X00251Y01634*
G37*
G36*
X01085Y01149D02*
X01074D01*
X01064Y01146*
X01055Y01141*
X01048Y01134*
X01043Y01125*
X0104Y01115*
Y01104*
X01043Y01094*
X01048Y01085*
X01055Y01078*
X01064Y01073*
X01074Y0107*
X01085*
X01095Y01073*
X01104Y01078*
X01111Y01085*
X01116Y01094*
X01119Y01104*
Y01115*
X01116Y01125*
X01111Y01134*
X01104Y01141*
X01095Y01146*
X01085Y01149*
G37*
G36*
X00885D02*
X00874D01*
X00864Y01146*
X00855Y01141*
X00848Y01134*
X00843Y01125*
X0084Y01115*
Y01104*
X00843Y01094*
X00848Y01085*
X00855Y01078*
X00864Y01073*
X00874Y0107*
X00885*
X00895Y01073*
X00904Y01078*
X00911Y01085*
X00916Y01094*
X00919Y01104*
Y01115*
X00916Y01125*
X00911Y01134*
X00904Y01141*
X00895Y01146*
X00885Y01149*
G37*
G36*
X00785D02*
X00774D01*
X00764Y01146*
X00755Y01141*
X00748Y01134*
X00743Y01125*
X0074Y01115*
Y01104*
X00743Y01094*
X00748Y01085*
X00755Y01078*
X00764Y01073*
X00774Y0107*
X00785*
X00795Y01073*
X00804Y01078*
X00811Y01085*
X00816Y01094*
X00819Y01104*
Y01115*
X00816Y01125*
X00811Y01134*
X00804Y01141*
X00795Y01146*
X00785Y01149*
G37*
G36*
X00685D02*
X00674D01*
X00664Y01146*
X00655Y01141*
X00648Y01134*
X00643Y01125*
X0064Y01115*
Y01104*
X00643Y01094*
X00648Y01085*
X00655Y01078*
X00664Y01073*
X00674Y0107*
X00685*
X00695Y01073*
X00704Y01078*
X00711Y01085*
X00716Y01094*
X00719Y01104*
Y01115*
X00716Y01125*
X00711Y01134*
X00704Y01141*
X00695Y01146*
X00685Y01149*
G37*
G36*
X00585D02*
X00574D01*
X00564Y01146*
X00555Y01141*
X00548Y01134*
X00543Y01125*
X0054Y01115*
Y01104*
X00543Y01094*
X00548Y01085*
X00555Y01078*
X00564Y01073*
X00574Y0107*
X00585*
X00595Y01073*
X00604Y01078*
X00611Y01085*
X00616Y01094*
X00619Y01104*
Y01115*
X00616Y01125*
X00611Y01134*
X00604Y01141*
X00595Y01146*
X00585Y01149*
G37*
G36*
X02605Y01119D02*
X02594D01*
X02584Y01116*
X02575Y01111*
X02568Y01104*
X02563Y01095*
X0256Y01085*
Y01074*
X02563Y01064*
X02568Y01055*
X02575Y01048*
X02584Y01043*
X02594Y0104*
X02605*
X02615Y01043*
X02624Y01048*
X02631Y01055*
X02636Y01064*
X02639Y01074*
Y01085*
X02636Y01095*
X02631Y01104*
X02624Y01111*
X02615Y01116*
X02605Y01119*
G37*
G36*
X02305D02*
X02294D01*
X02284Y01116*
X02275Y01111*
X02268Y01104*
X02263Y01095*
X0226Y01085*
Y01074*
X02263Y01064*
X02268Y01055*
X02275Y01048*
X02284Y01043*
X02294Y0104*
X02305*
X02315Y01043*
X02324Y01048*
X02331Y01055*
X02336Y01064*
X02339Y01074*
Y01085*
X02336Y01095*
X02331Y01104*
X02324Y01111*
X02315Y01116*
X02305Y01119*
G37*
G36*
X01444Y0104D02*
X01435D01*
X01427Y01038*
X01419Y01033*
X01413Y01027*
X01408Y01019*
X01406Y01011*
Y01002*
X01408Y00993*
X01413Y00986*
X01419Y00979*
X01427Y00975*
X01435Y00973*
X01444*
X01452Y00975*
X0146Y00979*
X01466Y00986*
X01471Y00993*
X01473Y01002*
Y01011*
X01471Y01019*
X01466Y01027*
X0146Y01033*
X01452Y01038*
X01444Y0104*
G37*
G36*
X02605Y01019D02*
X02594D01*
X02584Y01016*
X02575Y01011*
X02568Y01004*
X02563Y00995*
X0256Y00985*
Y00974*
X02563Y00964*
X02568Y00955*
X02575Y00948*
X02584Y00943*
X02594Y0094*
X02605*
X02615Y00943*
X02624Y00948*
X02631Y00955*
X02636Y00964*
X02639Y00974*
Y00985*
X02636Y00995*
X02631Y01004*
X02624Y01011*
X02615Y01016*
X02605Y01019*
G37*
G36*
X02305D02*
X02294D01*
X02284Y01016*
X02275Y01011*
X02268Y01004*
X02263Y00995*
X0226Y00985*
Y00974*
X02263Y00964*
X02268Y00955*
X02275Y00948*
X02284Y00943*
X02294Y0094*
X02305*
X02315Y00943*
X02324Y00948*
X02331Y00955*
X02336Y00964*
X02339Y00974*
Y00985*
X02336Y00995*
X02331Y01004*
X02324Y01011*
X02315Y01016*
X02305Y01019*
G37*
G36*
X02605Y00919D02*
X02594D01*
X02584Y00916*
X02575Y00911*
X02568Y00904*
X02563Y00895*
X0256Y00885*
Y00874*
X02563Y00864*
X02568Y00855*
X02575Y00848*
X02584Y00843*
X02594Y0084*
X02605*
X02615Y00843*
X02624Y00848*
X02631Y00855*
X02636Y00864*
X02639Y00874*
Y00885*
X02636Y00895*
X02631Y00904*
X02624Y00911*
X02615Y00916*
X02605Y00919*
G37*
G36*
X02305D02*
X02294D01*
X02284Y00916*
X02275Y00911*
X02268Y00904*
X02263Y00895*
X0226Y00885*
Y00874*
X02263Y00864*
X02268Y00855*
X02275Y00848*
X02284Y00843*
X02294Y0084*
X02305*
X02315Y00843*
X02324Y00848*
X02331Y00855*
X02336Y00864*
X02339Y00874*
Y00885*
X02336Y00895*
X02331Y00904*
X02324Y00911*
X02315Y00916*
X02305Y00919*
G37*
G36*
X02013Y00876D02*
X0194D01*
Y00803*
X02013*
Y00876*
G37*
G36*
X01085Y00849D02*
X01074D01*
X01064Y00846*
X01055Y00841*
X01048Y00834*
X01043Y00825*
X0104Y00815*
Y00804*
X01043Y00794*
X01048Y00785*
X01055Y00778*
X01064Y00773*
X01074Y0077*
X01085*
X01095Y00773*
X01104Y00778*
X01111Y00785*
X01116Y00794*
X01119Y00804*
Y00815*
X01116Y00825*
X01111Y00834*
X01104Y00841*
X01095Y00846*
X01085Y00849*
G37*
G36*
X00985D02*
X00974D01*
X00964Y00846*
X00955Y00841*
X00948Y00834*
X00943Y00825*
X0094Y00815*
Y00804*
X00943Y00794*
X00948Y00785*
X00955Y00778*
X00964Y00773*
X00974Y0077*
X00985*
X00995Y00773*
X01004Y00778*
X01011Y00785*
X01016Y00794*
X01019Y00804*
Y00815*
X01016Y00825*
X01011Y00834*
X01004Y00841*
X00995Y00846*
X00985Y00849*
G37*
G36*
X00885D02*
X00874D01*
X00864Y00846*
X00855Y00841*
X00848Y00834*
X00843Y00825*
X0084Y00815*
Y00804*
X00843Y00794*
X00848Y00785*
X00855Y00778*
X00864Y00773*
X00874Y0077*
X00885*
X00895Y00773*
X00904Y00778*
X00911Y00785*
X00916Y00794*
X00919Y00804*
Y00815*
X00916Y00825*
X00911Y00834*
X00904Y00841*
X00895Y00846*
X00885Y00849*
G37*
G36*
X00785D02*
X00774D01*
X00764Y00846*
X00755Y00841*
X00748Y00834*
X00743Y00825*
X0074Y00815*
Y00804*
X00743Y00794*
X00748Y00785*
X00755Y00778*
X00764Y00773*
X00774Y0077*
X00785*
X00795Y00773*
X00804Y00778*
X00811Y00785*
X00816Y00794*
X00819Y00804*
Y00815*
X00816Y00825*
X00811Y00834*
X00804Y00841*
X00795Y00846*
X00785Y00849*
G37*
G36*
X00585D02*
X00574D01*
X00564Y00846*
X00555Y00841*
X00548Y00834*
X00543Y00825*
X0054Y00815*
Y00804*
X00543Y00794*
X00548Y00785*
X00555Y00778*
X00564Y00773*
X00574Y0077*
X00585*
X00595Y00773*
X00604Y00778*
X00611Y00785*
X00616Y00794*
X00619Y00804*
Y00815*
X00616Y00825*
X00611Y00834*
X00604Y00841*
X00595Y00846*
X00585Y00849*
G37*
G36*
X02605Y00819D02*
X02594D01*
X02584Y00816*
X02575Y00811*
X02568Y00804*
X02563Y00795*
X0256Y00785*
Y00774*
X02563Y00764*
X02568Y00755*
X02575Y00748*
X02584Y00743*
X02594Y0074*
X02605*
X02615Y00743*
X02624Y00748*
X02631Y00755*
X02636Y00764*
X02639Y00774*
Y00785*
X02636Y00795*
X02631Y00804*
X02624Y00811*
X02615Y00816*
X02605Y00819*
G37*
G36*
X02305D02*
X02294D01*
X02284Y00816*
X02275Y00811*
X02268Y00804*
X02263Y00795*
X0226Y00785*
Y00774*
X02263Y00764*
X02268Y00755*
X02275Y00748*
X02284Y00743*
X02294Y0074*
X02305*
X02315Y00743*
X02324Y00748*
X02331Y00755*
X02336Y00764*
X02339Y00774*
Y00785*
X02336Y00795*
X02331Y00804*
X02324Y00811*
X02315Y00816*
X02305Y00819*
G37*
G36*
X00127Y00917D02*
X00117D01*
X00108Y00915*
X00099Y0091*
X00092Y00903*
X00087Y00894*
X00084Y00884*
Y00875*
X00087Y00865*
X00092Y00856*
X00099Y00849*
X00104Y00846*
Y00827*
X00106Y0082*
X00109Y00814*
X00207Y00717*
X00213Y00713*
X0022Y00712*
X0062*
X00626Y00713*
X00632Y00717*
X00684Y00768*
X00685Y0077*
X00695Y00773*
X00704Y00778*
X00711Y00785*
X00716Y00794*
X00719Y00804*
Y00815*
X00716Y00825*
X00711Y00834*
X00704Y00841*
X00695Y00846*
X00685Y00849*
X00674*
X00664Y00846*
X00655Y00841*
X00648Y00834*
X00643Y00825*
X0064Y00815*
Y00804*
X00643Y00794*
X00648Y00785*
X00649Y00784*
X00612Y00747*
X00227*
X0014Y00834*
Y00846*
X00145Y00849*
X00152Y00856*
X00157Y00865*
X0016Y00875*
Y00884*
X00157Y00894*
X00152Y00903*
X00145Y0091*
X00137Y00915*
X00127Y00917*
G37*
G36*
X01627Y00876D02*
X01618D01*
X01608Y00874*
X016Y00869*
X01593Y00862*
X01588Y00854*
X01586Y00844*
Y00835*
X01588Y00825*
X01593Y00817*
X016Y0081*
X01604Y00808*
Y00756*
X01586*
Y00737*
X0152*
X01513Y00736*
X01507Y00732*
X01447Y00672*
X01443Y00666*
X01442Y0066*
Y00609*
X01437Y00606*
X01431Y006*
X01427Y00592*
X01424Y00584*
Y00575*
X01427Y00567*
X01431Y00559*
X01437Y00553*
X01445Y00548*
X01454Y00546*
X01462*
X01471Y00548*
X01479Y00553*
X01485Y00559*
X01486Y00562*
X01492*
X01589Y00465*
Y00465*
X01591Y00456*
X01596Y00448*
X01602Y00442*
X0161Y00437*
X01619Y00435*
X01628*
X01637Y00437*
X01644Y00442*
X01651Y00448*
X01655Y00456*
X01658Y00465*
Y00474*
X01655Y00483*
X01651Y00491*
X01644Y00497*
X01637Y00502*
X01628Y00504*
X01619*
X0161Y00502*
X01605Y00499*
X01512Y00592*
X01506Y00596*
X015Y00597*
X01487*
X01485Y006*
X01479Y00606*
X01477Y00607*
Y00652*
X01527Y00702*
X01586*
Y00683*
X01659*
Y00756*
X0164*
Y00808*
X01645Y0081*
X01652Y00817*
X01656Y00825*
X01659Y00835*
Y00844*
X01656Y00854*
X01652Y00862*
X01645Y00869*
X01636Y00874*
X01627Y00876*
G37*
G36*
X01658Y00604D02*
X01589D01*
Y00535*
X01658*
Y00604*
G37*
G36*
X02242Y00553D02*
X02234D01*
X02225Y00551*
X02217Y00546*
X02211Y0054*
X02207Y00532*
X02204Y00524*
Y00515*
X02207Y00507*
X02211Y00499*
X02217Y00493*
X02225Y00488*
X02234Y00486*
X02242*
X02251Y00488*
X02259Y00493*
X02265Y00499*
X02269Y00507*
X02272Y00515*
Y00524*
X02269Y00532*
X02265Y0054*
X02259Y00546*
X02251Y00551*
X02242Y00553*
G37*
G36*
X00364Y00552D02*
X00355D01*
X00347Y00549*
X00339Y00545*
X00333Y00539*
X00328Y00531*
X00326Y00522*
Y00514*
X00328Y00505*
X00333Y00497*
X00339Y00491*
X00347Y00487*
X00355Y00484*
X00364*
X00372Y00487*
X0038Y00491*
X00386Y00497*
X00391Y00505*
X00393Y00514*
Y00522*
X00391Y00531*
X00386Y00539*
X0038Y00545*
X00372Y00549*
X00364Y00552*
G37*
G36*
X00145Y0056D02*
X00134D01*
X00124Y00557*
X00115Y00552*
X00107Y00544*
X00102Y00535*
X00099Y00525*
Y00514*
X00102Y00504*
X00107Y00495*
X00115Y00487*
X00124Y00482*
X00134Y00479*
X00145*
X00155Y00482*
X00164Y00487*
X00172Y00495*
X00177Y00504*
X0018Y00514*
Y00525*
X00177Y00535*
X00172Y00544*
X00164Y00552*
X00155Y00557*
X00145Y0056*
G37*
G36*
X01117Y00486D02*
X01108D01*
X01098Y00484*
X0109Y00479*
X01083Y00472*
X01078Y00464*
X01076Y00454*
Y00445*
X01078Y00435*
X01083Y00427*
X0109Y0042*
X01098Y00415*
X01108Y00413*
X01117*
X01126Y00415*
X01135Y0042*
X01142Y00427*
X01146Y00435*
X01149Y00445*
Y00454*
X01146Y00464*
X01142Y00472*
X01135Y00479*
X01126Y00484*
X01117Y00486*
G37*
G36*
X00642Y00471D02*
X00579D01*
Y00408*
X00642*
Y00471*
G37*
G36*
X00145Y0046D02*
X00134D01*
X00124Y00457*
X00115Y00452*
X00107Y00444*
X00102Y00435*
X00099Y00425*
Y00414*
X00102Y00404*
X00107Y00395*
X00115Y00387*
X00124Y00382*
X00134Y00379*
X00145*
X00155Y00382*
X00164Y00387*
X00172Y00395*
X00177Y00404*
X0018Y00414*
Y00425*
X00177Y00435*
X00172Y00444*
X00164Y00452*
X00155Y00457*
X00145Y0046*
G37*
G36*
X01295Y00613D02*
X01227D01*
Y00546*
X01295*
Y00562*
X01329*
X0143Y00461*
Y00413*
X01431*
X01433Y00408*
X01397Y00372*
X01393Y00366*
X01392Y0036*
Y00236*
X01393Y00229*
X01397Y00224*
X0142Y00201*
X01417Y00196*
X01414Y00185*
Y00174*
X01417Y00163*
X01423Y00153*
X01431Y00146*
X0144Y0014*
X01451Y00137*
X01462*
X01473Y0014*
X01483Y00146*
X01491Y00153*
X01496Y00163*
X01499Y00174*
Y00185*
X01496Y00196*
X01491Y00206*
X01483Y00213*
X01473Y00219*
X01462Y00222*
X01451*
X01449Y00222*
X01427Y00244*
Y00306*
X01432Y00306*
X01433Y00305*
X01437Y00297*
X01444Y0029*
X01453Y00285*
X01462Y00283*
X01471*
X01481Y00285*
X01489Y0029*
X01496Y00297*
X01499Y00302*
X01573*
X0158Y00303*
X01586Y00307*
X01615Y00336*
X01619Y00335*
X01628*
X01637Y00337*
X01644Y00342*
X01651Y00348*
X01655Y00356*
X01658Y00365*
Y00374*
X01655Y00383*
X01651Y00391*
X01644Y00397*
X01637Y00402*
X01628Y00404*
X01619*
X0161Y00402*
X01602Y00397*
X01596Y00391*
X01591Y00383*
X01589Y00374*
Y00365*
X0159Y00361*
X01566Y00337*
X01499*
X01496Y00342*
X01489Y00349*
X01481Y00354*
X01471Y00356*
X01462*
X01453Y00354*
X01444Y00349*
X01437Y00342*
X01433Y00334*
X01432Y00333*
X01427Y00333*
Y00352*
X01472Y00397*
X01476Y00402*
X01477Y00409*
X0148Y00413*
X01503*
Y00486*
X01455*
X01349Y00592*
X01343Y00596*
X01337Y00597*
X01295*
Y00613*
G37*
G36*
X01149Y00356D02*
X01076D01*
Y00283*
X01149*
Y00356*
G37*
G36*
X00145Y0036D02*
X00134D01*
X00124Y00357*
X00115Y00352*
X00107Y00344*
X00102Y00335*
X00099Y00325*
Y00314*
X00102Y00304*
X00107Y00295*
X00115Y00287*
X00124Y00282*
X00134Y00279*
X00145*
X00155Y00282*
X00164Y00287*
X00172Y00295*
X00177Y00304*
X0018Y00314*
Y00325*
X00177Y00335*
X00172Y00344*
X00164Y00352*
X00155Y00357*
X00145Y0036*
G37*
G36*
X02242Y00273D02*
X02234D01*
X02225Y00271*
X02217Y00266*
X02211Y0026*
X02207Y00252*
X02204Y00244*
Y00235*
X02207Y00227*
X02211Y00219*
X02217Y00213*
X02225Y00208*
X02234Y00206*
X02242*
X02251Y00208*
X02259Y00213*
X02265Y00219*
X02269Y00227*
X02272Y00235*
Y00244*
X02269Y00252*
X02265Y0026*
X02259Y00266*
X02251Y00271*
X02242Y00273*
G37*
G36*
X0194Y00504D02*
X01931D01*
X01922Y00502*
X01915Y00497*
X01908Y00491*
X01904Y00483*
X01901Y00474*
Y00465*
X01904Y00456*
X01908Y00448*
X01915Y00442*
X01918Y0044*
Y00399*
X01915Y00397*
X01908Y00391*
X01904Y00383*
X01901Y00374*
Y00365*
X01904Y00356*
X01908Y00348*
X01915Y00342*
X01922Y00337*
X01931Y00335*
X0194*
X01949Y00337*
X01957Y00342*
X01963Y00348*
X01965Y00352*
X02006*
Y00323*
X02024*
Y00273*
X02007*
Y00206*
X02075*
Y00273*
X0206*
Y00323*
X02079*
Y00396*
X02006*
Y00387*
X01965*
X01963Y00391*
X01957Y00397*
X01954Y00399*
Y0044*
X01957Y00442*
X01963Y00448*
X01968Y00456*
X0197Y00465*
Y00474*
X01968Y00483*
X01963Y00491*
X01957Y00497*
X01949Y00502*
X0194Y00504*
G37*
G36*
X00145Y0026D02*
X00134D01*
X00124Y00257*
X00115Y00252*
X00107Y00244*
X00102Y00235*
X00099Y00225*
Y00214*
X00102Y00204*
X00107Y00195*
X00115Y00187*
X00124Y00182*
X00134Y00179*
X00145*
X00155Y00182*
X00164Y00187*
X00172Y00195*
X00177Y00204*
X0018Y00214*
Y00225*
X00177Y00235*
X00172Y00244*
X00164Y00252*
X00155Y00257*
X00145Y0026*
G37*
G36*
X01108Y00222D02*
X01097D01*
X01086Y00219*
X01076Y00213*
X01068Y00206*
X01063Y00196*
X0106Y00185*
Y00174*
X01063Y00163*
X01068Y00153*
X01076Y00146*
X01086Y0014*
X01097Y00137*
X01108*
X01119Y0014*
X01128Y00146*
X01136Y00153*
X01142Y00163*
X01145Y00174*
Y00185*
X01142Y00196*
X01136Y00206*
X01128Y00213*
X01119Y00219*
X01108Y00222*
G37*
G36*
X00545Y00181D02*
X00534D01*
X00523Y00178*
X00514Y00173*
X00506Y00165*
X00501Y00156*
X00498Y00145*
Y00134*
X00501Y00123*
X00506Y00114*
X00514Y00106*
X00523Y00101*
X00534Y00098*
X00545*
X00556Y00101*
X00565Y00106*
X00573Y00114*
X00578Y00123*
X00581Y00134*
Y00145*
X00578Y00156*
X00573Y00165*
X00565Y00173*
X00556Y00178*
X00545Y00181*
G37*
G36*
X0044Y0037D02*
X003D01*
X00296Y00369*
X00292Y00367*
X0029Y00363*
X00289Y0036*
Y0017*
X001*
X00096Y00169*
X00092Y00167*
X0009Y00163*
X00089Y0016*
Y0008*
X0009Y00076*
X00092Y00072*
X00096Y0007*
X001Y00069*
X0048*
X00483Y0007*
X00487Y00072*
X00489Y00076*
X0049Y0008*
Y0018*
X00489Y00183*
X00487Y00187*
X0045Y00224*
Y0036*
X00449Y00363*
X00447Y00367*
X00443Y00369*
X0044Y0037*
G37*
G36*
X02242Y00133D02*
X02234D01*
X02225Y00131*
X02217Y00126*
X02211Y0012*
X02207Y00112*
X02204Y00104*
Y00095*
X02207Y00087*
X02211Y00079*
X02217Y00073*
X02225Y00068*
X02234Y00066*
X02242*
X02251Y00068*
X02259Y00073*
X02265Y00079*
X02269Y00087*
X02272Y00095*
Y00104*
X02269Y00112*
X02265Y0012*
X02259Y00126*
X02251Y00131*
X02242Y00133*
G37*
G36*
X0194Y00304D02*
X01931D01*
X01922Y00302*
X01915Y00297*
X01908Y00291*
X01904Y00283*
X01901Y00274*
Y00265*
X01904Y00256*
X01908Y00248*
X01915Y00242*
X01918Y0024*
Y00183*
X01919Y00176*
X01923Y00171*
X01993Y00101*
X01999Y00097*
X02006Y00095*
X02007*
Y00066*
X02075*
Y00133*
X02011*
X01954Y00191*
Y0024*
X01957Y00242*
X01963Y00248*
X01968Y00256*
X0197Y00265*
Y00274*
X01968Y00283*
X01963Y00291*
X01957Y00297*
X01949Y00302*
X0194Y00304*
G37*
%LNtachometer-board-3*%
%LPD*%
G36*
X007Y0144D02*
X0062D01*
Y0154*
X006Y0156*
X0052*
Y0166*
X007*
Y0144*
G37*
G36*
X0044Y0022D02*
X0048Y0018D01*
Y0008*
X001*
Y0016*
X003*
Y0036*
X0044*
Y0022*
G37*
G54D18*
X00559Y018D03*
Y017D03*
Y016D03*
Y015D03*
X00246D03*
Y016D03*
Y017D03*
X01936Y0057D03*
Y0047D03*
Y0037D03*
Y0027D03*
X01623D03*
Y0037D03*
Y0047D03*
G54D19*
X00246Y018D03*
X01623Y0057D03*
G54D22*
X00858Y0164D03*
X00361Y0197D03*
X0144Y01006D03*
X00756Y0134D03*
X01458Y0058D03*
X02238Y001D03*
Y0024D03*
Y0052D03*
X01826Y0114D03*
X02401Y0159D03*
X0036Y00518D03*
G54D23*
X00661Y0164D03*
X00558Y0197D03*
X00559Y0134D03*
X01261Y0058D03*
X02041Y001D03*
Y0024D03*
Y0052D03*
X02023Y0114D03*
X02598Y0159D03*
G54D24*
X00122Y0088D03*
Y0098D03*
Y0108D03*
X00437Y0088D03*
Y0098D03*
Y0108D03*
Y0118D03*
G54D25*
X00122Y0118D03*
G54D26*
X0144Y0081D03*
X0036Y00321D03*
G54D31*
X00709Y0044D03*
G54D32*
X0061Y0044D03*
G54D33*
X01447Y0162D03*
G54D34*
X02272Y0162D03*
G54D37*
X0111Y0088D02*
X0118Y0081D01*
X00437Y0088D02*
X0111D01*
X00437D02*
Y0098D01*
X00246Y016D02*
X0032Y01526D01*
X00122Y0118D02*
X0032Y01377D01*
Y01526*
X01997Y0162D02*
X02197Y0142D01*
X01447Y0162D02*
X01997D01*
X02184Y0128D02*
Y01284D01*
X02257Y01357*
X02277*
X02162Y01272D02*
X02177D01*
X02039Y01156D02*
X02046D01*
X02023Y0114D02*
X02039Y01156D01*
X02046D02*
X02162Y01272D01*
X02277Y01357D02*
X023Y0138D01*
X02272Y0162D02*
X023Y01592D01*
Y0138D02*
Y01592D01*
X02598Y0159D02*
X026Y01588D01*
Y0138D02*
Y01588D01*
X00585Y0172D02*
X0075D01*
X0083Y018D02*
X01014D01*
X0075Y0172D02*
X0083Y018D01*
X01014Y01502D02*
Y018D01*
X00559D02*
Y01969D01*
X00558Y0197D02*
X00559Y01969D01*
Y018D02*
X0066D01*
X0021Y0175D02*
X00509D01*
X00559Y018*
X0017Y0171D02*
X0021Y0175D01*
X0017Y01576D02*
Y0171D01*
Y01576D02*
X00246Y015D01*
X00654Y0178D02*
X00662D01*
X00122Y00827D02*
Y0088D01*
X0013Y0098D02*
X0018Y0103D01*
X00122Y0108D02*
X00267Y01225D01*
X00122Y0098D02*
X0013D01*
X00671Y00781D02*
Y00801D01*
X01064Y01225D02*
X0118Y0111D01*
X00267Y01225D02*
X01064D01*
X0018Y0103D02*
X009D01*
X00437Y0108D02*
Y0118D01*
X009Y0103D02*
X0098Y0111D01*
X00246Y017D02*
X00459D01*
X00559D02*
X00565D01*
X00585Y0172*
X00459Y017D02*
X00559Y016D01*
X00556Y0134D02*
X00556Y01341D01*
X00559Y0134D02*
Y015D01*
X01014Y01502D02*
X01017Y015D01*
X00671Y00801D02*
X0068Y0081D01*
X0022Y0073D02*
X0062D01*
X01261Y0058D02*
X01337D01*
X01467Y0045*
X01459Y00442D02*
X01467Y0045D01*
X01459Y00409D02*
Y00442D01*
X0141Y00236D02*
Y0036D01*
X01459Y00409*
X0141Y00236D02*
X01457Y00189D01*
Y0018D02*
Y00189D01*
X01467Y0032D02*
X01573D01*
X01623Y0037*
X0062Y0073D02*
X00671Y00781D01*
X00122Y00827D02*
X0022Y0073D01*
X0208Y0052D02*
X0224Y0036D01*
X02397*
X01603Y00476D02*
X01617D01*
X015Y00579D02*
X01603Y00476D01*
X01617D02*
X01623Y0047D01*
X01458Y00579D02*
X015D01*
X01458Y0058D02*
X0146Y00581D01*
X01458Y0058D02*
X01458Y00579D01*
X0146Y00581D02*
Y0066D01*
X0163Y0027D02*
X0193Y0057D01*
X01936Y0037D02*
Y0047D01*
X0146Y0066D02*
X0152Y0072D01*
X01622*
X02027Y00113D02*
X02041Y001D01*
X02006Y00113D02*
X02027D01*
X01936Y00183D02*
X02006Y00113D01*
X01623Y0027D02*
X0163D01*
X01986Y0052D02*
X02041D01*
X0208*
X01936Y0057D02*
X01986Y0052D01*
X0193Y0057D02*
X01936D01*
Y00183D02*
Y0027D01*
Y0037D02*
X02032D01*
X02041Y0024D02*
X02042Y00241D01*
X02032Y0037D02*
X02042Y0036D01*
Y00241D02*
Y0036D01*
X01622Y0072D02*
Y0084D01*
X01936Y0057D02*
X01977Y0061D01*
Y0072*
X0042Y0012D02*
X0044Y0014D01*
G54D38*
X0058Y0081D03*
X0068D03*
X0078D03*
X0088D03*
X0098D03*
X0108D03*
X0118D03*
X0128D03*
X0058Y0111D03*
X0068D03*
X0078D03*
X0088D03*
X0098D03*
X0108D03*
X0118D03*
X026Y0078D03*
Y0088D03*
Y0098D03*
Y0108D03*
Y0118D03*
Y0128D03*
Y0138D03*
X023Y0078D03*
Y0088D03*
Y0098D03*
Y0108D03*
Y0118D03*
Y0128D03*
G54D39*
X0128Y0111D03*
G54D40*
X00662Y015D03*
X01014Y018D03*
X01977Y0084D03*
X01622Y0072D03*
X02042Y0036D03*
X01467Y0045D03*
X01112Y0032D03*
X0183Y0128D03*
G54D41*
X01017Y015D03*
X0066Y018D03*
X01622Y0084D03*
X01977Y0072D03*
X02397Y0036D03*
X01112Y0045D03*
X01467Y0032D03*
X02184Y0128D03*
G54D42*
X01102Y0018D03*
X01457D03*
X01842Y0142D03*
X02197D03*
G54D43*
X023Y0138D03*
G54D44*
X0064Y0014D03*
X0054D03*
G54D45*
X0044Y0014D03*
G54D46*
X0014Y0012D03*
G54D47*
X0014Y0022D03*
Y0032D03*
Y0042D03*
Y0052D03*
M02*