%FSTAX23Y23*%
%MOIN*%
%SFA1B1*%

%IPPOS*%
%ADD48C,0.003940*%
%LNtachometer-board-1*%
%LPD*%
G54D48*
X01302Y01054D02*
D01*
X01302Y01055*
X01301Y01057*
X01301Y01058*
X01301Y01059*
X013Y01061*
X013Y01062*
X01299Y01063*
X01299Y01064*
X01298Y01066*
X01297Y01067*
X01296Y01068*
X01295Y01069*
X01294Y0107*
X01293Y0107*
X01292Y01071*
X0129Y01072*
X01289Y01072*
X01288Y01073*
X01287Y01073*
X01285Y01073*
X01284Y01074*
X01283Y01074*
X01281*
X0128Y01074*
X01278Y01073*
X01277Y01073*
X01276Y01073*
X01274Y01072*
X01273Y01072*
X01272Y01071*
X01271Y0107*
X0127Y0107*
X01269Y01069*
X01268Y01068*
X01267Y01067*
X01266Y01066*
X01265Y01064*
X01264Y01063*
X01264Y01062*
X01263Y01061*
X01263Y01059*
X01263Y01058*
X01262Y01057*
X01262Y01055*
X01262Y01054*
X01262Y01053*
X01262Y01051*
X01263Y0105*
X01263Y01049*
X01263Y01047*
X01264Y01046*
X01264Y01045*
X01265Y01044*
X01266Y01042*
X01267Y01041*
X01268Y0104*
X01269Y01039*
X0127Y01038*
X01271Y01038*
X01272Y01037*
X01273Y01036*
X01274Y01036*
X01276Y01035*
X01277Y01035*
X01278Y01035*
X0128Y01034*
X01281Y01034*
X01283*
X01284Y01034*
X01285Y01035*
X01287Y01035*
X01288Y01035*
X01289Y01036*
X0129Y01036*
X01292Y01037*
X01293Y01038*
X01294Y01038*
X01295Y01039*
X01296Y0104*
X01297Y01041*
X01298Y01042*
X01299Y01044*
X01299Y01045*
X013Y01046*
X013Y01047*
X01301Y01049*
X01301Y0105*
X01301Y01051*
X01302Y01053*
X01302Y01054*
X02375Y01432D02*
D01*
X02375Y01433*
X02375Y01435*
X02374Y01436*
X02374Y01437*
X02374Y01439*
X02373Y0144*
X02372Y01441*
X02372Y01442*
X02371Y01443*
X0237Y01445*
X02369Y01446*
X02368Y01446*
X02367Y01447*
X02366Y01448*
X02365Y01449*
X02364Y0145*
X02362Y0145*
X02361Y01451*
X0236Y01451*
X02358Y01451*
X02357Y01451*
X02356Y01452*
X02354*
X02353Y01451*
X02352Y01451*
X0235Y01451*
X02349Y01451*
X02348Y0145*
X02346Y0145*
X02345Y01449*
X02344Y01448*
X02343Y01447*
X02342Y01446*
X02341Y01446*
X0234Y01445*
X02339Y01443*
X02338Y01442*
X02338Y01441*
X02337Y0144*
X02337Y01439*
X02336Y01437*
X02336Y01436*
X02336Y01435*
X02335Y01433*
X02335Y01432*
X02335Y0143*
X02336Y01429*
X02336Y01428*
X02336Y01426*
X02337Y01425*
X02337Y01424*
X02338Y01423*
X02338Y01421*
X02339Y0142*
X0234Y01419*
X02341Y01418*
X02342Y01417*
X02343Y01416*
X02344Y01416*
X02345Y01415*
X02346Y01414*
X02348Y01414*
X02349Y01413*
X0235Y01413*
X02352Y01412*
X02353Y01412*
X02354Y01412*
X02356*
X02357Y01412*
X02358Y01412*
X0236Y01413*
X02361Y01413*
X02362Y01414*
X02364Y01414*
X02365Y01415*
X02366Y01416*
X02367Y01416*
X02368Y01417*
X02369Y01418*
X0237Y01419*
X02371Y0142*
X02372Y01421*
X02372Y01423*
X02373Y01424*
X02374Y01425*
X02374Y01426*
X02374Y01428*
X02375Y01429*
X02375Y0143*
X02375Y01432*
X00542Y0083D02*
Y01089D01*
X01317Y0083D02*
Y01089D01*
X00542Y0083D02*
X01317D01*
X00542Y01089D02*
X01317D01*
X00715Y01452D02*
Y01547D01*
X00964*
X00715Y01452D02*
X00964D01*
Y01547*
X00961Y01752D02*
Y01847D01*
X00713Y01752D02*
X00961D01*
X00713Y01847D02*
X00961D01*
X00713Y01752D02*
Y01847D01*
X01924Y00792D02*
Y00887D01*
X01675Y00792D02*
X01924D01*
X01675Y00887D02*
X01924D01*
X01675Y00792D02*
Y00887D01*
Y00672D02*
Y00767D01*
X01924*
X01675Y00672D02*
X01924D01*
Y00767*
X02095Y00312D02*
Y00407D01*
X02344*
X02095Y00312D02*
X02344D01*
Y00407*
X01382Y00126D02*
Y00233D01*
X01177D02*
X01382D01*
X01177Y00126D02*
X01382D01*
X01177D02*
Y00233D01*
X01414Y00402D02*
Y00497D01*
X01165Y00402D02*
X01414D01*
X01165Y00497D02*
X01414D01*
X01165Y00402D02*
Y00497D01*
Y00272D02*
Y00367D01*
X01414*
X01165Y00272D02*
X01414D01*
Y00367*
X0232Y00692D02*
X02579D01*
X0232Y01467D02*
X02579D01*
Y00692D02*
Y01467D01*
X0232Y00692D02*
Y01467D01*
X00339Y00191D02*
X0074D01*
Y00059D02*
Y00244D01*
X00339Y00059D02*
Y00244D01*
X0074*
X00339Y00059D02*
X0074D01*
X02122Y01366D02*
Y01473D01*
X01917D02*
X02122D01*
X01917Y01366D02*
X02122D01*
X01917D02*
Y01473D01*
X01883Y01232D02*
Y01327D01*
X02131*
X01883Y01232D02*
X02131D01*
Y01327*
X0009Y00577D02*
X0019D01*
Y00062D02*
Y00577D01*
X0009Y00062D02*
X0019D01*
X0009D02*
Y00577D01*
M02*