%FSTAX23Y23*%
%MOIN*%
%SFA1B1*%

%IPPOS*%
%ADD18C,0.049210*%
%ADD19R,0.049210X0.049210*%
%ADD22C,0.047240*%
%ADD23R,0.047240X0.047240*%
%ADD24C,0.055120*%
%ADD25R,0.055120X0.055120*%
%ADD26R,0.047240X0.047240*%
%ADD31C,0.043310*%
%ADD32R,0.043310X0.043310*%
%ADD33C,0.086610*%
%ADD34R,0.086610X0.086610*%
%ADD38C,0.059060*%
%ADD39R,0.059060X0.059060*%
%ADD40R,0.053150X0.053150*%
%ADD41C,0.053150*%
%ADD42C,0.064960*%
%ADD43R,0.059060X0.059060*%
%ADD44C,0.062990*%
%ADD45R,0.062990X0.062990*%
%ADD46R,0.061020X0.061020*%
%ADD47C,0.061020*%
%LNtachometer-board-1*%
%LPD*%
G54D18*
X00559Y018D03*
Y017D03*
Y016D03*
Y015D03*
X00246D03*
Y016D03*
Y017D03*
X01936Y0057D03*
Y0047D03*
Y0037D03*
Y0027D03*
X01623D03*
Y0037D03*
Y0047D03*
G54D19*
X00246Y018D03*
X01623Y0057D03*
G54D22*
X00858Y0164D03*
X00361Y0197D03*
X0144Y01006D03*
X00756Y0134D03*
X01458Y0058D03*
X02238Y001D03*
Y0024D03*
Y0052D03*
X01826Y0114D03*
X02401Y0159D03*
X0036Y00518D03*
G54D23*
X00661Y0164D03*
X00558Y0197D03*
X00559Y0134D03*
X01261Y0058D03*
X02041Y001D03*
Y0024D03*
Y0052D03*
X02023Y0114D03*
X02598Y0159D03*
G54D24*
X00122Y0088D03*
Y0098D03*
Y0108D03*
X00437Y0088D03*
Y0098D03*
Y0108D03*
Y0118D03*
G54D25*
X00122Y0118D03*
G54D26*
X0144Y0081D03*
X0036Y00321D03*
G54D31*
X00709Y0044D03*
G54D32*
X0061Y0044D03*
G54D33*
X01447Y0162D03*
G54D34*
X02272Y0162D03*
G54D38*
X0058Y0081D03*
X0068D03*
X0078D03*
X0088D03*
X0098D03*
X0108D03*
X0118D03*
X0128D03*
X0058Y0111D03*
X0068D03*
X0078D03*
X0088D03*
X0098D03*
X0108D03*
X0118D03*
X026Y0078D03*
Y0088D03*
Y0098D03*
Y0108D03*
Y0118D03*
Y0128D03*
Y0138D03*
X023Y0078D03*
Y0088D03*
Y0098D03*
Y0108D03*
Y0118D03*
Y0128D03*
G54D39*
X0128Y0111D03*
G54D40*
X00662Y015D03*
X01014Y018D03*
X01977Y0084D03*
X01622Y0072D03*
X02042Y0036D03*
X01467Y0045D03*
X01112Y0032D03*
X0183Y0128D03*
G54D41*
X01017Y015D03*
X0066Y018D03*
X01622Y0084D03*
X01977Y0072D03*
X02397Y0036D03*
X01112Y0045D03*
X01467Y0032D03*
X02184Y0128D03*
G54D42*
X01102Y0018D03*
X01457D03*
X01842Y0142D03*
X02197D03*
G54D43*
X023Y0138D03*
G54D44*
X0064Y0014D03*
X0054D03*
G54D45*
X0044Y0014D03*
G54D46*
X0014Y0012D03*
G54D47*
X0014Y0022D03*
Y0032D03*
Y0042D03*
Y0052D03*
M02*